P2
50 50
255
  30  39  36  29  38  33  34  22  27  30  36  33  41  24  42  38  47  59  67  76 100 138 143 144 141 136 141 138 150 135 130 105  87  64  61  47  40  41  41  26  24  33  38  40  42  43  55  53  48  46
  46  40  43  45  34  44  49  50  47  43  42  45  45  41  42  41  45  52  68  75  89 123 135 139 137 138 137 141 136 132  89 102  73  69  54  54  49  49  49  47  44  46  44  41  42  45  43  53  51  47
  46  50  52  50  55  56  64  75  70  66  64  54  52  48  50  52  51  58  64  87  85 118 128 133 135 140 140 140 128 109 108 101  68  64  86  58  62  70  59  68  65  81 115 124 112  88  67  56  56  55
  54  60  67  64  74  75  82  94  91 100  93  92  68  72  72  64  60  62  64  71  84  95 130 122 127 128 139 131 134 124 114  98 105 105 105  79  93 119 113 111 128 134 137 149 137 137 130 110 108  54
  64  71  73  73  93  95  91 105 105 114 114 101  97  89  88  87  79  85  89  82 101 119 128 117 122 131 138 144 136 135 114 118 111 128 130 128 121 102 104 123 134 135 144 142 146 152 152 154 149 148
  74  81  79 101  95  92  98 105  68  86  85  97 110  96  89  74  71  69  75  82  91 111 117 127 120 136 135 144 136 126 133 136 134 129 125 112 107  97 101 116 130 146 153 154 153 155 159 161 161 157
  97 107  96  91  77  50  53  69  76  82  87  81  63  68  95  82  74  67  77  71  91 105 113 117 123 128 139 144 143 137 136 140 129 118 105  89  89  82  62  60  75  99  99 104 136 156 163 160 161 160
 102 105  84  68  55  72  67  59  52  49  50  61  67  75  64  87  72  68  61  70  85  99  94 113 123 126 136 149 143 145 140 133 113  90  87  95  53  55  62  65  68  87 116 140 142 127 129 156 164 165
  95 100  76  52  70  55  35  27   4   2   6   5  15  51  65  53  87  74  62  61  71  87  98 119 119 129 149 148 152 150 139 117  80  76  59  53  52  45   6   4  11   8  22  47 116 148 137 139 160 161
  86  75  60  64  45  22  47  39  10  21  21  39  54  79  42  58  71  78  65  60  63  81 103 115 121 136 141 151 152 148 135 114  75  56  60  43  48   5  22  20  28  48  43  57  39  55 136 140 152 162
  95  80  53  40  24  49  85  58  13  16   1   5  10 112 112  48  57  81  61  61  71  80  93 111 125 128 141 150 154 145 127 107  71  75  47  51  74  29  29   4   6  14  44 141  74  37  48 106 147 157
  67  57  49  28  39  60  92  91  36   7   7   8  59 130  88  49  43  68  62  56  62  75  96 107 117 126 134 145 150 142 129 106  79  79  45  51  61  54   8   4   7  27 130 154 119  53  34  50 101 154
  62  57  50  49  49  49  47  52  51  53  55  62  79  65  67  61  53  64  61  58  61  65  89 111 117 123 135 142 144 135 111  99  80  56  63  58  61  67  68  71  58  69  64  66  63  69  62  70  78 128
  62  61  67  71  74  67  65  58  70  78  69  72  72  82  75  72  71  59  60  58  58  73  94  98 113 119 131 141 137 135 121 104 100 101  77  67  74  68  66  74  82 120 140 145 131 139 136 129 126 131
  68  75  75  81  85 102 104 106 101  93 101  84  72  80  70  69  56  59  56  67  70  84 104 104 104 113 132 143 144 134 128 115 106 113  67  63  63  68  93 108 118 131 145 151 153 152 149 143 136 136
  89  82  73  84  88  84  77  84  87  89  75  81  72  77  69  60  63  63  62  67  91  84  97 103 111  97 132 137 139 137 132 131 114 119 101  82  69  68  62  71  94 109 121 131 135 136 140 137 139 137
  82  94  89  96  78  73  80  86  85  78  75  71  70  73  62  73  71  60  68  62 101  74  87 104 113 120 130 135 143 142 143 135 127 123 113 108 103 101  99  90 100 103 108 121 132 137 140 145 144 146
 106 100  94  98 100  94  87  98  87  73  80  65  64  71  81  83  83  88  84  92  86  85 110 104 116 118 128 139 146 137 135 144 141 135 124 120 120 107  92 102 107 121 121 123 123 135 135 145 143 148
  98 106  99  97 103  87  85  81  79  80  83  80  83  92  90  89  81  76  82  83  90  96  95  92 100 124 133 142 143 144 138 145 144 140 130 136 124 116 115 112 107 114 106 115 123 130 131 143 140 149
  97 105 103 108  93  93  82  77  82  81  86  98 103  94 106  90  80  92  88 102 103 104  99 112 115 125 140 148 148 149 148 143 149 139 138 135 132 127 124 119 113 109 101 121 127 137 137 144 148 148
 117 114 107 108 105 109 103  90  85  90 111 106 103 100  97  92  80  80  99  95 106  97 116 121 125 127 144 150 150 145 147 151 148 145 136 137 128 132 131 128 125 123 123 127 136 140 142 147 156 155
 119 119 118 122 122 113 101 109 106  98 111 100 111 106 100  99  95  87  88  83  92 112 110 125 127 133 148 152 156 151 147 144 144 151 132 134 127 132 137 136 132 135 131 132 147 144 150 160 162 161
 124 121 123 125 118 120 115 113 117 105 112 104  93  91  91  73  81  81  91  88  96 115 132 129 132 135 151 157 160 154 150 145 139 141 141 130 132 135 136 131 133 132 141 141 147 150 158 163 163 165
 127 124 120 130 124 115 121 116 114 108 102 103 104  90  85  84  73  86  84 107 113 126 122 131 140 144 157 169 174 167 156 153 147 140 138 125 128 127 132 136 137 141 138 147 151 160 164 165 166 171
 128 124 120 122 123 126 118 123 115 127 114 115 110 105  77  73  81 105 115 117 119 125 118 132 140 146 159 166 169 172 170 165 160 155 148 133 117 129 135 138 143 139 144 153 149 162 164 167 167 171
 124 124 122 119 119 118 127 126 122 117 122 124 103  80  71  70 106 121 126 128 128 119 110 121 134 142 151 158 157 155 159 168 171 169 160 136 115 120 134 145 139 149 152 154 155 162 167 168 171 170
 116 127 126 121 124 123 127 127 124 127 134 127  96  80  69  80 100 129 130 134 131 110 103 112 127 137 144 154 153 139 143 151 168 177 167 144 128 118 132 138 145 150 153 158 160 161 170 171 173 176
 125 125 126 119 127 121 130 129 131 126 130 112 106  85  86  85 112 122 132 136  88  27  38  55 111 128 142 147  21   6  15 108 158 167 168 146 134 128 130 136 143 146 150 161 161 167 168 172 169 174
 119 119 121 130 121 126 130 129 130 126 127 131 105  96  81  71 103 123 130  64  31  16  41  50  94 126 149 123  60  26  18  42 123 153 159 150 143 141 135 135 140 147 158 156 163 166 167 171 173 173
 115 115 121 113 127 124 122 127 132 134 130 126 113 104  88  70  73  88 110  64  53  70  68  75  79 130 140 149 141 125 120  87 100 132 148 143 141 143 141 134 141 143 153 158 162 162 165 171 175 176
 123 121 128 117 127 118 122 124 118 134 136 130 119 106  91  74  64  59  53  56  80  74  82  74 104 131 135 142 140 140 145 135 125 117 137 145 141 140 144 134 150 147 151 157 164 164 167 168 171 173
 111 115 123 121 120 127 127 123 128 131 137 132 120 113 109  95  88  80  60  58  61  72  64  88 114 127 127 131 129 133 133 132 131 128 139 145 145 140 141 144 141 151 150 152 164 165 169 167 173 170
 111 115 111 118 119 113 118 127 129 132 133 128 121  99 100  96  84  81  63  64  65  67  74  76 112 111 110 115 121 119 126 133 132 131 139 145 142 143 145 145 147 149 153 156 162 167 167 169 171 168
 108 109 113 119 114 114 121 125 125 122 121 115 101 100  95  90  80  72  68  64  59  63  67  98  97  83  92  86 109 121 109 118 116 130 131 139 144 148 148 151 147 151 157 160 164 167 167 170 167 169
 108 118 117 100 108 120 112 117 118 121 108  99  87  87  84  66  68  62  56  61  59  65  65  92  86  76  87  99 103 114 116 120 119 122 126 136 137 144 149 149 147 154 160 161 166 166 166 167 167 167
 107 111 114 100 121 119 117 108 123 116 105  94  82  76  72  58  59  60  61  56  63  64  72  97  87  63  73  92 103 118 118 126 125 114 115 123 127 133 150 143 151 151 155 157 164 167 164 167 167 167
 102 111  98  97 107 111 104 107 102 106 104  92  77  68  61  63  67  76  75  69  74  72  93  92  81  71  87  94  98 129 134 134 141 133 128 129 126 134 135 143 145 152 156 161 164 166 169 167 168 167
  91 100 106  93  99 107 107 105 102 105  87  74  74  71  75  77  90  96  88  71  74  67 100 108 110 111 109 124 118 125 125 131 142 140 134 140 143 136 127 137 146 148 155 159 164 164 165 167 164 164
 100  84 108 107 106  98 110 107 101 103  80  67  73  63  83  78  95  82  72  62  70  60  71  74  90  93 100 105 121 123 130 125 127 134 143 152 147 151 133 148 142 144 152 161 165 164 168 163 163 159
  90  81  95 105  95 102 100 102  95  92  73  71  77  77  82  87  83  79  72  75  75  83  95  73  92  96 113 116 127 135 136 135 126 131 134 150 149 149 147 148 148 150 156 160 163 166 163 163 157 160
 102  92  99 104  92 104  90  92 100 103  91  83  89  97  80  71  60  63  67  62  65  62  72  85  73  95 107 111 113 126 125 117 125 122 115 118 135 120 136 139 149 148 156 160 164 163 164 163 158 159
  89  81  95 100  90 101 101  96  94  85  87  84  77  68  59  50  46  47  50  41  33  19  42  48  51  57  62  54  52  46  46  54  59  86  76  62  45  51  76 128 125 136 154 159 162 162 163 156 152 159
  87  93  81  97  97  94 102  96 103 108  85  66  77  63  25  37  43  49  53  53  52  53  47  47  49  50  51  49  50  52  50  56  61  78  76  71  51  61 111 114 111 138 152 158 162 165 155 157 156 159
  83  71  95  92  97  88 100  88 103  82  68  52  63  66  78  67  61  74  73  70  85  80  81  92  88  89  77  68  81 110 119 127 140 143 136 137 135 134 127 119 104 126 151 158 158 161 153 156 158 159
  79  87  80  88  82  99  85  99  96  75  69  53  59  66  90  80  88  72  89  82  77  94 112 111 121 114 112 126 130 130 141 144 145 141 144 150 152 144 128 134 139 139 151 153 152 159 160 159 159 159
  77  86  82  77  84  98  95  87  94  78  69  64  64  64  79  99  92  92  92  79  79  83  98 111 115 122 119 131 136 135 141 139 150 149 149 154 156 141 144 148 144 145 149 155 157 156 157 160 154 154
  97  81  77  82  80  89  95  96  83  83  79  72  79  81  74  79  92 100 103  99 101  95 115 109 124 121 119 136 133 137 143 147 150 155 161 157 152 151 148 154 149 150 150 158 161 163 159 160 159 155
  82  95  77  88  87  86  94  93  78  80  83  84  86  73  75  71  86  87  89  91 105  89 103  82  92  98 111 103 111 123 142 145 152 159 159 152 155 155 154 161 156 157 154 156 162 157 158 160 153 158
  89  85  88  74  81  86  76  85  96  80  81  81  84  86  80  71  87  76  77  90 107 106 107  96  98  98  78 106 112 127 136 139 146 144 153 151 154 153 153 156 159 151 156 155 159 156 154 151 152 152
 130  77  80  82  85  79  87  82  82  87  86  81  87  87  82  81  87  81  91  82  87 106 109 103  99  85  89 107 113 130 128 127 143 152 155 154 150 152 156 158 153 158 157 159 154 155 156 160 154 155
