P2
50 50
255
  36  45  42  37  39  36  30  22  30  44  35  38  37  31  41  37  49  58  74  88 116 134 139 139 139 129 141 141 138 120 102  81  89  61  55  47  43  47  29  33  32  31  32  40  43  48  48  60  48  48
  51  41  47  51  49  49  51  53  46  47  47  47  46  46  44  47  52  53  71  72 104 124 130 143 134 134 131 134 127 127  77  70  73  55  55  51  55  49  45  47  48  41  36  38  24  45  43  53  54  50
  53  54  54  59  56  72  71  83  76  70  73  56  61  53  49  51  50  65  63  62  98 103 123 130 133 138 127 122 119 109  85  74  80  73  80  51  62  59  62  66  76  71 112 122  99  91  63  52  47  54
  61  68  61  79  67  77  75  93 103 100 102  84  74  70  66  68  66  71  59  68  92 108 117 127 123 135 136 132 138 106  84  74  76 108  95  96  97 105 113 104 116 126 132 144 137 133 127 108 111  61
  70  79  83  78  96 103 108 108 116 122 109  99  84  78  75  67  74  71  68  77 107 112 120 123 120 133 130 137 125 120 101 131 114 127 129 128 111  96 109 117 126 137 135 142 141 148 150 152 146 143
  99  84  88  95  98  91  61  57  50  56  60  77 107  94  81  70  71  79  74  91 101 108 113 120 126 135 139 141 130 121 121 129 129 125 118  97  99  98 100 112 129 138 148 145 150 155 152 161 157 147
  98  98  97  76  57  49  77  83  80  92  73  77  71  55  88  77  57  64  80  87  82  98 113 121 124 134 135 145 136 133 132 139 124 110  90  84  81  99  56  63  70  92  89  83 134 158 165 159 161 163
 100 100  79  56  68  75  70  51  43  35  42  60  69  62  54  96  70  63  59  75  94  97 105 117 129 129 139 139 142 143 139 126  88  95  75  76  51  55  68  71  72  88 127 140 139 119 132 154 163 166
  97  79  53  71  63  37  10  28   7   3   3   9  13  50  62  55  77  64  60  67  83  81 118 113 125 135 145 149 150 143 130 102  79  73  73  54  54  47  16   2   2  17  35  48 119 148 130 135 157 163
  97  71  72  48  25  38  49  31  15  18  18  49  32  70  39  62  65  75  58  58  68  87  89 114 120 136 142 154 151 148 131  81  61  58  55  43  48  13  13  31  31  36  45  55  38  54 139 141 141 161
  79  69  45  16  38  66  82  50  20  22   1  12  26 132  61  44  72  67  63  60  76  84 104 102 123 134 138 155 156 138 132  74  64  73  46  53  75  14  20  15   2   9  48 147  64  35  53 109 148 154
  63  54  40  44  46  57  93 102  21  12  13  14  96 119  53  42  45  68  56  56  67  86  95 114 120 126 142 146 139 136 126  77  79  45  47  53  68  68   8   8  13  33  56 157 118  53  36  45  81 141
  58  55  58  58  52  52  52  52  52  52  66  70  75  70  61  56  55  62  55  56  65  83 105 106 112 126 132 141 140 130 112  90 103  57  60  66  62  65  66  58  57  58  69  61  61  71  54  57  73 116
  68  74  71  81  75  73  74  75  85  65  81  69  76  77  67  74  64  63  57  58  68  79  82 110 116 129 141 142 135 129 114 102 107  92  67  63  66  73  81  71  76 107 137 147 125 126 122 119 116 127
  79  85  77  79  78  98 106  91 105  98  87  82  65  64  66  59  61  61  60  66  76  85  87  96 111 118 131 144 144 130 114 106 106 100  72  63  63  67  96  93 111 135 147 154 153 153 151 141 139 133
  97  87  77  68  77  80  89  82  88  76  70  71  66  65  62  58  62  67  64  67  75  82  87  99 110 117 136 143 140 135 124 119 116 108  92  82  66  66  65  81 105 113 128 129 134 138 139 137 137 134
  97  96  88  91  86  79  76  86  70  74  68  65  62  64  75  72  67  74  72  81  78  86  97 102 108 126 133 142 142 141 146 127 125 119 106  96  98  94  80  75  79  84 101 117 132 130 141 144 142 145
  97  91  93 101  89  79  89  88  68  76  71  67  64  82  80  79  77  77  77  86  89  91 104 106 118 127 137 137 139 138 142 142 137 121 124 115 106  82  99  92 106 120 122 128 126 123 134 137 143 139
 106  97  97  95 101  87  85  69  75  70  69  75  85  90  83  82  81  73  97  89  87  90  97 108 126 135 139 141 144 135 145 141 138 134 130 126 120 111 104 101  99 110 108 108 124 121 130 139 138 145
 112 100 102  98  92  90  78  80  84  79  83  94  96  99  86  87  74  95  87  95  98 112 110 101 122 138 145 146 146 147 146 141 138 134 133 129 133 125 116 113 113 102 107 113 117 123 132 134 146 144
 114 107 110 112 110  90  82  81  90  96 104 110  98  91  84  87  83  95  96 101 100 109 120 117 126 135 146 148 146 146 146 146 142 142 129 130 133 130 128 121 120 125 114 119 135 135 141 147 151 154
 127 124 120 112 120 112 107 103 103  93  99 101 105  87  89  92  75  89  93  96 107 114 120 126 133 145 149 155 147 146 147 149 147 146 133 125 131 130 131 126 134 127 126 136 134 145 146 150 156 162
 118 124 126 119 117 107 108 117  97 109  97  94 100  81  77  80  90  77  97 102 114 119 129 130 143 152 154 158 156 146 142 136 143 143 131 120 127 133 135 129 133 129 134 137 142 146 154 162 163 167
 122 125 116 117 118 107 113 109 109  98 101 101  84  94  78  78  80 100 120 112 131 127 123 138 145 161 170 169 157 156 148 142 134 136 134 124 124 131 133 131 132 133 135 144 146 153 158 161 161 171
 124 118 117 124 115 121 112 102 118 114 106 104  86  79  64  75  98 118 114 125 116 126 136 134 142 159 170 174 182 167 161 158 152 145 136 116 130 127 134 138 135 137 139 145 149 158 161 167 169 172
 116 121 118 121 112 122 120 119 107 120 117  98  81  75  80  95 124 127 128 121 115 119 127 134 143 158 162 162 156 164 171 170 165 158 140 122 114 126 127 138 137 136 148 149 156 157 163 169 167 169
 115 123 119 117 122 116 117 118 127 124 120  99  86  88  78 119 129 122 128 127  96 111 117 130 135 151 152 146 146 147 159 171 176 167 146 140 116 122 133 134 143 146 151 154 158 161 168 169 171 172
 124 119 121 122 117 129 124 123 121 121 107 113  83  73  70 118 126 128 131  81  44  54  86 118 130 139 141  97  30  50 138 161 169 171 153 136 113 122 127 135 142 145 150 153 161 163 170 171 171 175
 115 120 128 116 121 120 124 129 124 120 120  99  89  84  72 108 126 134  49  28   0  38  48 104 123 145  89  56  10   6  44 140 152 161 152 133 132 131 129 133 143 152 156 159 160 162 169 168 174 175
 108 114 115 118 118 123 121 127 127 126 122 113  89  89  82  75 107 108  61  58  57  64  70  82 128 141 151 135 105  81  53  87 135 148 145 142 138 138 135 138 142 145 152 157 161 165 164 168 171 176
 111 126 122 118 108 125 122 126 131 132 132 120 110 104  80  65  56  57  60  71  78  82  61 107 124 133 138 144 145 145 131 106 114 135 137 135 145 142 133 136 139 146 151 156 159 157 166 170 174 177
 114 118 107 117 130 123 126 123 128 131 130 119 109 103  92  83  79  59  59  70  76  73  79 110 124 127 120 133 137 136 135 127 131 129 136 142 143 138 142 133 141 146 150 157 161 165 168 166 171 173
 117 114 113 120 117 122 117 129 130 124 120 107  97  93  95  89  75  71  70  64  63  74  74 105 114 114 114 115 120 128 129 126 124 130 142 139 147 142 142 141 142 149 151 158 164 167 167 166 168 167
 107 112 102 114 112 119 112 126 127 115 111  96  95  81  88  70  72  77  62  62  66  70  85 106  94  91  83 105 117 104 113 125 131 134 138 139 139 148 145 146 144 151 147 163 162 167 165 168 167 166
 107 108  99 107 125 116 114 118 114 111  89  93  88  81  66  65  62  60  56  62  75  69  79  83  78  86  96  99 111 110 117 118 116 128 127 135 143 149 143 143 152 157 156 160 165 165 167 169 166 167
 110 118  96 110 116 110 116 110 102  97  96  85  79  66  63  62  56  60  66  67  59  72  91  79  79  71  80 105 120 124 120 118 108 110 127 122 131 147 146 146 146 156 159 157 162 163 166 167 168 168
 110 108 104 110 112 114 104  97 103 102  93  77  61  62  64  63  74  79  67  66  75  77  82  75  75  77  81  96 118 128 129 128 133 112 107 114 126 137 137 145 146 150 160 162 163 166 166 167 167 165
 109 108 108 101 111 107 108  97 103  88  73  66  68  66  79  78  84  73  66  76  84  99  99  97 101 101 109 119 133 133 134 145 135 133 142 138 130 114 136 143 145 149 161 164 163 166 166 162 164 167
  98 104  93 100 106 102  97  98 105  83  65  73  64  67  81  92  80  67  60  62  71  75  87 113 110 102  98 115 114 123 126 139 138 139 144 146 137 136 140 142 147 149 160 160 166 165 164 162 163 164
  81 102  99  99  93  99  94  97  87  65  71  79  84  83  85  73  61  78  66  75  79  79  85  68  98 102 115 117 128 134 131 122 122 133 149 150 154 147 143 143 145 151 154 163 163 165 165 164 162 162
  86  97  89 103 102  87  83  89  93  78  77  81  76  80  73  64  70  69  74  71  74  74  84  92 106 118 110 117 130 127 127 122 126 130 134 141 141 139 143 146 143 150 153 162 166 167 162 161 161 162
  93 100 103  89  93  99  87  94  94  82  77  66  65  59  49  50  52  53  51  46  50  49  56  61  79  85  79  67  85  72  96 102 114 108  87  65 100 112 108 142 146 150 156 162 161 165 163 159 152 155
  91  99 101  86  96  99  91  92  91  72  64  73  64   9  11  38  48  48  47  43  44  41  43  39  22  36  43  45  36  36  47  49  52  49  50  37  45  57 106  99 130 150 152 160 158 162 160 156 155 160
  91  94 102  92  89  92  81  92  97  71  52  60  64  58  65  74  68  77  68  77  73  79  73  76  76  63  59  63  67  87 120 128 125 117 108  81 112 111 116  96 118 137 150 159 165 159 152 154 161 158
  89  88  94  98  83  88  99  95  84  69  53  67  64  84  82  85  84  87  69  83  79 101 109 106 103 102 106 116 125 132 143 145 139 141 145 152 139 126 118 110 123 139 159 153 158 161 161 160 159 156
  91  77  87  81  82  84  83  93  90  71  59  69  64  73  89  94  95  96  78  75  96 108 107 112 113 124 132 133 137 133 142 142 141 146 154 152 142 138 140 137 135 145 149 154 157 161 158 159 157 154
  88  95  87  78  89  83  91  81  82  77  69  75  81  72  96  87 104  89  93  89 101  95 112 114 115 130 133 138 138 139 144 148 150 159 160 152 142 149 146 144 144 145 153 156 159 154 161 159 153 156
  94  94  81  89  84  95  79  92  77  71  76  90  76  83  77  82  86  84  98  98 105  98  97 115 109 112 123 127 134 139 143 150 157 157 157 154 143 150 159 156 147 150 156 154 163 160 158 158 156 156
 103  85  83  72  79  99  70  79  76  70  87  89  77  84  73  71  77  81  87  99  87  97  80  87  91  96  94 109 127 133 143 149 156 155 151 150 150 153 157 156 156 156 152 152 155 159 157 158 155 156
 145  87  87  82  78  79  88  93  76  93  83  98  83  84  81  92  84  79  95  90  88  94  96  79  95  81 102 118 124 131 134 147 148 149 153 148 149 160 161 154 152 147 155 155 159 156 152 157 148 154
