P2
50 50
255
  25   5  25  36  43  38  47  30  39  20  37  30  29  32  38  44  45  56  63  66  94 111 127 127 128 121 127 127 112 101  78  79  62  64  53  53  49  49  46  34  37  42  41  32  38  31  44  41  44  51
  20  10  27  43  53  50  52  50  55  49  48  48  49  50  41  48  51  55  64  65  95 106 118 119 131 121 120 108  98  98  71  66  63  57  59  57  62  59  52  54  58  53  60  79  79  62  86  65  57  54
  20  14  22  51  62  56  59  65  65  69  67  63  60  61  54  53  51  58  62  55  85  98 104 106 122 119 117 112  95  83  66  64  63  82  82  61  84  68  66  73  86  77  96 108 112 107 100 104  86  87
  31  23  36  58  76  72  77  71  77  92  93  77  72  71  78  71  64  66  65  65  77  93 100 103 117 115 108 111 116 101  75  81  70  78 106  96  99  89  84  92  98 108 107 121 123 121 135 136 134 124
  36  24  42  80  70  90  92 105  84  94  99  92  97  84  77  70  77  69  67  72  89  91 115 113  98 110 122 126 110 101  98 116 100 104 112  99  90  73  83  80  88 111 115 124 132 131 140 144 144 145
  26  22  51  82  84  92  96 100  88  90  80  78  75  92  80  87  82  74  80  73  75  89 105 106 110 116 126 125 116 112 114 114 111 113  91  87  79  67  77  89 105 111 121 135 137 142 148 152 156 161
  20  13  56 112 107 107  93  57  79  74  77  78  72  61  68  80  74  71  68  69  74  78 101 105 107 129 124 126 125 114 117 118 110 105  83  75  66  78  54  64  70  90 102 104  89  86  95 138 155 158
   9   6  68 123 117 102  70  82  71  60  58  61  72  67  64  59  76  72  70  65  77  87  97  99 120 120 116 118 131 130 126 114  94  72  69  60  57  57  58  57  59  62  75  97 119 121 126 117 113 142
   8   8 102 126 114  80  70  52  14   4   1  11  25  54  59  61  59  69  66  66  65  79  95  95 107 112 129 134 134 135 123 108  72  66  65  57  53  41   1   5   4   7  20  51  52  67 118 141 139 123
  12  16 100 116 105  62  53  11  23  13   4  22  38  80  68  54  59  62  64  65  65  78  94 102 105 122 134 137 146 140 134 114  64  62  60  56  31  10  13  10  27  11  38  82  65  80  55  61 126 141
  12  16 112 115  97  70  35  37  48  24  14  16  11  93 107  66  57  62  67  64  61  70  90 101 111 109 131 143 149 144 134 113  73  63  67  12  35  47  12  17  24   4  30 121 104 102  88  60  46  57
  33  18 124 119  80  53  42  45  59  30   9  22  37 118 111  74  54  52  72  63  63  78  87 109 107 119 129 131 145 144 135 114  86  65  59  39  28  51   5  14  15  18  58 133 127 137 100  79  51  47
  24  22 123 102  70  54  53  54  54  54  56  56  55  63  61  60  60  59  59  64  62  64 103  95 105 120 127 135 140 134 127 105  78  75  56  55  57  56  64  59  57  60  61  58  58  63  62  62  64  91
  46  27 124  99  78  81  77  64  70  66  64  64  74  64  64  65  60  62  61  60  65  79 106 100 107 124 127 134 140 127 117 100  79  79  69  65  61  59  61  60  77  66  79  87  93  98 111 109 113 122
  22  48 107 103  96  98  86 101  97  99  86  75  73  71  64  63  63  63  66  62  69  88  94 108 115 125 138 138 131 130 115  93  87  89  81  69  56  61  64  77  74  90 104 112 111 133 134 139 140 139
   7  61 114 109  99  99  82  82  74  73  71  60  68  60  62  61  62  66  64  67  83  95  94  97 117 125 140 144 140 139 117 115  97  98 100  84  63  62  60  60  70  74  83 100 101 105 116 120 128 127
  28 104 113 105  97 104 102  75  83  69  65  64  68  70  70  64  75  70  84  82  89 100  92 107 118 134 135 138 135 135 131 123 124 116 107 101  81  76  70  66  63  60  68  67  84  86 105 116 118 119
  35 119 108 121 108 106  94  86  87  77  75  68  67  69  72  86  85  79  94  85 103 108 112 114 126 134 138 138 138 133 140 137 124 116 117 109 103  77  79  74  73  81  83 100 100 104  91 105 104 123
  54 126 116 122 110 101 104  91  87  80  77  83  72  78  99 100  93  89  91  97 102 113 107 119 135 141 140 143 143 141 144 138 130 130 117 116 111 101 101  71  72  79  84  89  91  98  96 113 119 122
 104 120 126 115 113 108  99  97  86  76  80  93  87 101  95  92  94  90  97 116 112 111 119 132 138 144 144 138 144 147 147 145 137 121 121 122 115 107 106  98  87  92  84  84  86  92 107 112 120 118
 131 130 123 116 120 108 100  98  95 104  88  81 101  99  94  86  81 105  99 112 123 129 137 141 141 146 145 144 149 148 145 144 133 121 115 121 113 120 114 115  97 101 102  97  96 115 119 125 126 137
 135 132 132 124 126 117 111 100 102  93 102 104 105 102  92  94  85  95 117 117 126 122 137 146 152 149 145 151 145 151 146 146 140 137 114 117 111 108 112 111 107 103  97 109 113 121 125 134 140 145
 134 122 128 131 125 120 109  97 102  87 101  95 102  94 107 101  89 100 112 125 125 134 140 153 153 151 151 147 147 140 135 141 145 136 115 113 115 115 114 110 121 119 121 102 125 129 134 142 148 151
 141 137 134 126 124 117 116 107 100 105 101  95 105  88  92  89  93 109 137 134 127 138 151 157 160 152 149 149 145 135 134 134 133 140 115  99 105 115 124 113 101 116 125 121 125 135 140 144 153 158
 133 133 124 133 126 125 120 107 100 115 101 106 101  96  87  98 129 129 131 127 131 140 153 160 172 172 156 156 148 147 146 142 137 134 115  98 105 113 119 121 127 127 120 132 134 139 147 148 156 161
 137 130 135 125 131 122 123 113 109 111 109 112 105  86  73 134 130 125 125 114 132 142 149 153 159 161 158 167 165 162 158 152 148 131 131  90  97 109 114 121 131 123 127 137 140 145 153 156 158 167
 140 137 131 134 125 121 122 115 108 119 114  99  90  76 114 137 115 115 113 115 134 137 145 155 151 146 149 159 159 172 172 168 158 150 131 122  87 109 113 121 125 131 137 132 143 149 154 156 160 166
 145 132 136 134 126 120 127 114 110 113 115 108  92  84 127 137 122  93  99 102 116 126 138 146 143 130 131 130 152 166 174 177 171 153 137 117  99 104 112 123 127 123 134 141 141 145 148 162 166 165
 150 134 132 134 126 125 125 119 120 110 112 102  90  87 124 127 111  36   3  17  65 125 125 138  72  32   5  31  98 153 166 168 171 161 139 120 103 109 116 122 124 120 134 135 144 152 153 162 162 166
 146 138 131 121 124 112 112 109 118 111 119  97  94  95 115 117  85  46  38  31  55  96 126 150 118  81  50  10  23  81 145 160 161 162 142 126 121 111 119 121 119 131 136 138 152 146 155 165 169 168
 148 139 129 129 127 118 115 116 119 110 113 101 102  87  79  78  83  62  64  72  71  78 114 132 138 131 117 107  83  65  91 129 142 142 136 126 125 129 123 114 125 129 133 140 146 155 156 159 163 171
 168 134 127 119 127 122 115 116 113 109 115 107 106 102  82  65  57  63  75  76  73  79 106 115 122 123 131 135 134 125 116 101 104 117 129 132 129 124 128 117 129 127 141 142 149 149 154 161 170 168
 173 139 134 123 122 121 121 116 115 117 109 107 102  96  95  81  68  64  73  68  71 103 111 107 113 104 130 117 130 124 113 113 111 124 128 135 132 125 125 124 124 131 131 136 148 151 155 160 168 170
 172 132 121 128 120 117 118 115 115 115  98  91  97 100  97  80  84  68  66  69  74  74  90  87  93  89  96 112 113 114 111 115 129 125 137 132 133 124 129 130 129 132 129 144 147 155 156 162 164 167
 183 135 132 125 120 126 118 113 118 111 109  74  92 100  97  80  77  65  68  67  69  86  77  81  77  76 104  97  84  89 105 113 121 131 131 125 126 135 134 132 134 134 130 143 151 155 153 161 163 167
 181 138 132 124 112 126 107 113 112  97  94  89  88  79  78  76  67  64  64  69  76  80  71  77  80  98 100  98  92 102 104 113 114 124 121 126 140 134 135 127 140 141 141 141 146 152 157 161 165 170
 181 156 124 123 112 124 112 107 103  92 105  87  87  72  68  71  59  68  71  79  73  68  67  72  77  84 101 105  88 109  94  89 107 108 125 120 127 135 131 132 130 140 141 149 147 152 154 155 165 167
 181 166 128 125 114 108 113  95 106  94  89  77  74  66  72  90  77  72  71  77  74  72  72  73  82  89 103 108 117 114 114  97  83  97 106 112 121 125 127 132 134 139 148 149 149 159 149 161 162 165
 183 176 117 115 119 107 107  94 104  91  88  82  69  82 100  77  70  73  88  86  96  77  83  96  91 111 114 115 123 121 130 109 104 119 118 116 117 112 127 127 130 132 142 148 151 156 161 165 162 166
 182 177 122 117 109 107 109  92  97  89  69  72  75  92 103  86  68  66  66  72  82  91  94  82  80  86  97  94 107 119 122 123 123 133 131 132 120 113 121 119 124 124 142 146 151 155 160 162 161 163
 178 179 124 111 100 107 101  96  84  87  68  86  89  96  84  72  76  78  81  65  67  68  75  78 101 105  99 106 111 106 109 109 136 146 145 138 133 121 133 125 127 128 137 149 161 153 156 158 163 163
 179 182 146 113 113 104 103  85  83  89  71  84  83  82  71  72  82  74  72  72  73  78  82  97 102 103 113 113 122 108 107 112 126 139 141 141 142 133 131 138 135 119 144 152 155 161 161 162 160 162
 177 181 162 106 114 111 113  94  88  79  75  70  71  57  54  57  58  56  58  64  65  62  81  83  72  79  82 100  98  93  99 102  92  90  91  97  96 118 121 127 129 135 131 149 158 158 161 163 167 163
 177 180 175 119 100  99  99  97  89  75  67  65  67  31   3  41  47  49  45   2  33  43  41  48  48  55  52  48  38  49  54  62  68  61  63  53  36  60  97 100 114 122 140 144 153 156 160 162 161 152
 182 176 179 139 109 109  99  97  94  69  60  57  72  65  72  72  71  66  56  54  53  54  54  50  56  56  54  49  54  57  63  71  78  65  62  55  50  69  80  76  92 115 132 143 151 155 160 152 153 152
 176 177 177 164  93 105 100 103  85  64  63  59  69 102 107  91  88  82  85  88  79  93  89  69  63  69  80  76 105 115 119 127 124 118 102 106 111  95 103  78  68 101 128 143 147 157 162 162 159 156
 179 178 177 174 114 103 103  97  78  76  64  65  79 103 108 100  88  88  99  92 101 102  93  93 103 107 113 101 129 130 132 134 130 134 148 139 139 115 118  97 103  99 133 141 144 154 165 159 152 159
 179 179 178 176 160 106  98  97  89  71  77  85  81  99 112 104  96  82  74  79  94  89 103 106 113 108 115 125 123 139 134 142 145 151 153 141 134 129 134 119 119 119 120 145 146 155 157 161 160 159
 180 182 179 179 175 116 104  97  85  77  79  88  88 102  97  99  97  93  87  93 104  94 105 117 117 116 123 129 132 141 147 146 160 158 155 145 142 141 144 137 121 125 134 146 158 156 159 159 159 156
 181 179 179 174 175 160 104  97  88  83  79  81  94  99  85  98 102  85  76  80  90  91 104 103 110 107 123 129 134 140 148 158 152 150 148 138 142 146 146 146 133 134 141 155 155 163 158 160 151 157
