P2
50 50
255
  34  39  41  50  41  50  51  53  27  41  43  48  43  45  42  54  56  56  66  80 119 124 127 113 109 109 113 107  88  74  70  60  62  56  60  54  57  56  51  55  55  52  55  61  66  61  58  58  56  59
  17  46  43  52  56  58  58  64  65  60  56  56  56  48  49  50  61  83  65  72 110 101 109 134 133 121 103  89  97  67  65  69  68  68  65  61  69  62  67  62  79  85  87  88  90  95  78  76  75  81
  32  42  59  64  65  66  68  75  84  73  79  69  65  70  63  59  59  55  61  71  93  96 111 109 113 111 109 112  93  82  71  69  81  97  79  83  82  81  91  83  87 105 114 116 119 113 127 117 117 104
  35  45  64  88  81  94  82  93  87  93  93  78  71  74  74  73  66  67  74  75  91 107 100 102 109 116 119  96  99  89  81 102  91 101 104 107  86  84  87  89  98 111 117 119 118 119 128 131 136 135
  52  39  87 102  98  94 111 110 106 104 104  92  84  80  70  73  82  76  71  71 102 117 103  98 112 116 121 106  98  91  98 109 107 101 101  86  81  74  79  89 111 118 129 127 130 134 140 145 147 152
  44  41  93 113 107 113 102  69  59  62  70  62  88  76  79  81  69  71  72  79  87 101 103  98 113 121 121 115 109 109 111 109 107  94  84  75  68  71  93  62  65  67  69  68  93 120 139 152 155 155
  40  40 117 119 119  90  67  97  81  71  70  71  64  59  74  73  71  71  72  86  91 104 100 113 115 111 119 118 114 122 119 110  87  79  70  65  71  55  62  67  74  82 109 104 113 110  99  69 124 152
  27  28 135 116 103  75  81  61  52  51  54  66  68  62  60  71  92  66  65  73  80  93 100 119 117 116 123 130 131 119 116  96  68  66  65  65  56  54  53  35  41  47  58  70 109 122 139 134 110 120
  16  13 129 122  87  73  56  25   9   7   7   8  48  59  62  65  64  73  63  62  73  99  97  93 121 123 130 139 130 132 110  81  65  64  61  55  50   5   9   5  11  15  20  59  52  56  81 128 149 139
  34  30 123 126  76  63  17  38  24  13  13  38  58  69  61  57  59  68  65  66  67  87 103  94  98 126 135 138 139 128 125  85  64  60  63  37  26  16  15  14  17   1  22  61  63  68  57  50  66 124
  38  29 123 114  90  37  36  54  42  11  16  24  66 109  85  60  56  69  65  66  78  94  98 101 113 123 139 146 149 135 115  98  63  60  64  16  44  54  10  10  18   5  22  86  99  96  84  61  53  43
  42  48 130 101  54  52  53  37  48  21  22  26  73 102  63  50  46  60  62  60  79  97 107 111 119 121 132 134 137 134 113  98  65  83  29  40  50  53  31   9  14  10  48 122 111 123  64  55  50  52
  48  46 121  79  55  57  53  56  55  64  56  61  66  63  67  57  63  56  68  64  73 101  94 100 120 124 127 131 130 121 108  92  71  83  57  59  59  60  62  65  60  63  62  62  61  69  66  65  63  89
  55  55 121  94  70  91  76  62  63  65  65  65  65  67  68  62  67  64  65  65  81 110 104  96 123 128 128 134 121 123 106  86  77  79  79  62  64  62  58  66  70  66  74  97 103 103 106 120 110 111
  64  68 115 112 104  99 113 100  93  89  83  71  73  66  61  67  64  68  64  71  89  90 110 119 120 126 139 137 125 115  95  97  87  93  71  58  61  59  66  72  68  87 101  98 117 122 123 130 137 137
  50  95 115 116 102  94  89  92  79  76  71  67  64  63  64  67  68  69  71  84  98  91 107 113 127 138 138 138 135 128 118 110 100  93  90  73  62  58  58  62  68  74  84  95  94 100 107 111 114 121
  51 113 116 117 103  93  81  79  72  74  70  65  73  69  65  65  81  64  94  98 104 101 106 120 130 140 139 131 136 134 133 122 111  99 101  87  81  73  68  68  64  62  65  69  74  91  89  95 104 115
  53 121 117 115 107 109  98  83  81  79  75  73  65  74  79  77  90  82  89 104 117 124 119 125 134 135 144 135 134 141 137 129 117 120 111 102  97  76  81  70  75  77  85  95  89  91  89  91 108 104
  98 119 123 117 103 107  98  84  81  77  76  68  84  88  95  91  91  95 106 107 104 111 123 142 139 137 139 140 132 148 135 134 133 117 113 104 110  88  71  73  74  75  87  93  88  86  93  98 111 109
 128 129 123 115 111 112 101  81  79  90  99  91 101  92  95  86  88 101 106 108 123 129 142 139 139 144 138 148 146 141 141 137 129 120 119 117  98 107 102  86  88  81  80  87  93  91 112 102 111 108
 137 128 123 117 113 103  95  92  98  93  96 102 102 100  95  94 101 107 125 126 132 147 146 146 147 146 144 149 149 146 139 133 121 118 115 109 105 109 107 108  91  95  91  87 100 113 119 123 124 127
 141 129 132 115 122 113 105  99  98 107 105  94 102  95  95  94 109 123 127 129 133 144 144 146 155 149 151 145 149 149 147 137 126 113 111 107 101 113 107 115 102  93 107 107 106 118 125 129 138 141
 134 137 125 135 125 120 108 106  98 100  99 109 114  96  95  96 109 129 135 129 133 147 154 146 150 149 149 144 148 142 148 146 138 120 112 107 111 113 121 120 113 117 109 107 125 123 125 140 139 150
 137 128 135 132 121 115 116 109 109  98  81 102  90  90 104 106 131 130 127 134 141 146 157 153 146 144 147 135 131 134 134 145 139 108 107  95 107 127 111 112 117 117 121 127 129 134 132 141 147 155
 138 137 126 129 127 120 109 105 106 103 105  94  95  90 103 139 132 137 129 139 147 159 164 165 157 155 149 140 135 130 137 135 136 120  94  99 103 107 109 120 116 119 125 121 132 129 143 149 148 153
 141 144 131 130 121 114 115 116 121 112 114  93  79  82 132 129 137 125 124 141 156 153 167 168 165 164 162 159 155 152 143 142 137 133 102  97 111 103 121 126 121 117 116 129 132 138 150 146 160 158
 139 135 130 132 118 111 115 106 113 110  99  95  89 131 137 129 123 127 123 129 141 153 160 152 150 157 166 166 168 164 160 152 147 138 108  89  98 115 115 118 123 127 138 135 135 141 152 153 159 158
 141 135 133 127 119 125 113 115 117 109  99  93  96 138 132 122 117 115 119 134 143 153 152 136 140 145 152 165 175 179 170 166 151 142 125  98 102 107 121 121 130 132 131 136 135 142 150 155 163 167
 139 137 136 127 122 123 119 107 113 106 110  91 115 135 127 103  85 101 106 120 129 145 145 123 105 113 136 157 164 172 180 173 157 138 127  87  84 110 119 114 128 120 132 138 137 145 152 156 165 169
 142 128 134 132 128 125 125 117 115 114  99  91  91 134 128  67  31  15  10 107 117 138 127  53  48   3  15 113 153 163 170 170 167 153 115 109  99 100 115 121 121 132 134 138 147 144 152 160 162 171
 141 134 134 122 117 119 116 113 107 102  90  98  97 112 113  63  51  51  58  81 104 134 147 136  77  55  37  42  84 143 157 162 161 148 127 117 119 117 104 120 124 135 130 139 146 148 151 162 164 165
 146 133 129 127 125 117 121 107 115 110 116  93  87  81  76  65  60  70  87  81  91 108 130 127 129 127 111  96  62  81 119 133 138 129 126 119 114 125 115 117 113 129 135 136 144 148 153 157 164 171
 152 138 119 125 113 123 115 112 117 111 104 102  98 101  66  58  67  77  85  87  95 107 112 117 121 132 132 108 122 107 100 100 115 131 134 127 118 127 111 121 123 123 132 137 153 137 153 160 164 169
 162 134 130 127 120 119 112 121 111 105 107  93 102  91  85  72  71  82  73  76 108 100 110 103 114 124 111 112 122 113 100 111 124 127 130 125 125 122 124 119 129 122 127 132 141 150 154 157 162 167
 171 137 131 121 118 110 118 114 107 102  97  95  95  91  82  78  69  79  69  78  85  92  85  81 104 110 104 113 106 113 106 116 121 128 130 129 124 125 116 117 130 134 138 136 139 149 155 154 156 167
 174 137 133 121 122 113 111  99 111 101  98 102  95  93  93  79  73  68  74  82  75  85  81  81  90  94 104  94  94 111  98 121 121 126 120 127 132 130 123 130 125 130 129 139 142 151 155 162 164 166
 176 130 133 118 116 114 115 110 103  93  87  90  85  81  75  74  73  71  75  75  69  75  77  91  95  93  95  89  87 103 101 109 121 121 124 131 137 134 130 125 134 135 141 145 146 148 153 158 163 169
 179 129 125 112 123 117 113 110  96  89  90  84  77  71  69  68  67  70  69  84  67  74  77  79  87 104 107  96 102  91  92 102 117 114 121 118 137 138 125 124 134 138 141 142 146 152 153 163 162 169
 179 149 130 119 118 115 111 104 102  94  84  87  81  81  91  72  70  69  92  77  71  69  81  82  82  95 102 101 115 113  95 104  87  91 109 121 125 115 125 126 134 135 141 146 148 153 157 158 163 163
 179 154 128 115 113 101  95 102  90  87  79  71  89 102  86  92  83  91  87  76  79  87  92  94 104 115 105 120 130 128 108 106 119 100 101 118 112 112 124 121 125 128 143 151 150 145 153 160 162 167
 182 163 125 114 116 104 104 112  81  82  74  81 100  92  73  69  71  70  93  98 101  99  76  77  87  91  96 120 127 123 120 120 130 134 129 123 114 113 116 126 125 135 143 147 155 153 153 158 157 161
 183 172 115 121 112 107 104  82  77  76  91 104  95  78  75  73  70  81  72  69  71  83  90  91  97 104  95 103  99 103 125 135 135 138 141 138 119 125 130 122 121 123 133 152 157 155 157 158 162 161
 181 174 127 112 117 100  93 102  90  90  96 101  86  72  76  88  93  85  76  82  77  94  86 110 113 123 126 113  99 109 110 127 134 137 136 135 140 130 134 128 123 130 146 149 161 164 162 158 164 163
 181 181 141 114 111  95 100  95  82  76  79  80  59  61  65  71  65  65  76  69  85  80  85  82  98  94 106 102 100  98 107  89  93 120 122 112 125 134 125 132 132 137 137 144 155 157 162 160 163 160
 180 181 147 110 113 111  98 105  79  72  71  62  38  42  46  51  49  31  47  54  59  79  67  53  57  53  53  64  65  71  93  89  67  63  65  64  70  82 104  93 113 134 137 144 152 154 160 161 168 160
 181 180 169 112 117 110  93  85  69  61  69  69  54  61  68  58  56  53  50  43  41  43  59  51  53  43  42  45  38  54  57  58  54  55  54  36  53  72  74  82  95 123 134 147 150 150 162 157 155 149
 182 179 177 131 113  98 104  81  70  62  62  78  99 101 104  83  90  77  75  64  74  66  62  57  65  61  65  73 103 103  96 103  82  77  73  63  84  95  85  65  74 116 137 144 144 157 160 158 159 157
 182 180 180 154 115 100  98  73  74  67  69  89 116 100 108  89  93  95  95  98  91  89  93  91 110 112 113 131 123 117 130 129 134 128 137 127 116 110  89  82  74 109 134 142 138 154 161 163 162 164
 181 180 180 171 119 110 101  89  74  74  77  81 115 103 105  88  89  89 101 105 105 104 105  99 109 118 127 130 122 121 132 134 144 153 142 137 125 121 114 109 107 114 133 137 136 149 151 165 161 156
 181 181 179 178 148 107 102  91  70  74  93  91 112 111 100  97  93  91  91 101 109 110 107 109 115 122 132 127 139 131 142 155 152 150 146 125 134 126 135 105 119 123 135 139 146 150 157 155 152 158
