P2
50 50
255
  43  43  33  22  40  32  24  30  32  40  38  29  40  28  43  35  53  63  76  86 110 134 141 137 140 136 137 140 140 133 121 103  82  79  59  48  49  49  40  34  27  35  39  42  46  47  51  54  53  50
  46  40  50  46  47  53  52  47  49  42  47  47  48  43  42  45  48  58  63  77  89 123 136 136 135 133 138 137 135 130 101 110  78  63  62  58  54  49  52  49  56  50  51  58  65  60  61  63  56  51
  53  56  52  58  58  64  77  72  76  67  57  57  56  54  49  54  56  70  60  84  90 117 133 130 134 140 137 132 128 113 114 101  66  71  79  62  69  59  76  72 103 123 130 133 129  89  93 109  73  57
  57  73  75  70  63  78  93 101 107  86  85  80  73  70  78  65  61  60  69  75  86 114 123 126 133 136 137 135 136 119 121 101 113 113 113  95 110 117 114 115 132 136 139 143 143 143 140 135 131 130
  75  73  77  76  87  94 106  98 105 109 109 108  94  82  86  78  72  70  73  81  99 110 124 127 121 130 136 139 133 122 125 127 120 127 131 126 118 104 116 119 128 136 138 145 146 153 154 150 149 148
  71  74  82  91  94  94  98  83  67  63  69  72 108 103  96  89  76  72  76  85  79 109 123 126 122 135 136 143 137 130 128 132 133 124 118 112 101  95 113 117 130 130 142 146 158 157 162 158 155 152
  98  96 102  88  61  53  64  78  76  81  83  85  71  62  95  94  76  69  69  76  79  95 106 116 129 134 136 146 139 136 137 134 128 112  93  87  92  59  55  71 104 120 126 126  99 131 153 158 160 163
  93  92  78  65  61  71  64  59  44  48  50  54  75  72  58  87  76  71  62  66  88  95 103 107 129 130 137 145 141 143 140 133 102  79  75  82  56  60  56  45  34  56  83 125 144 140 121 148 159 164
  94  79  59  65  60  52  34  15   5   7   7   5  19  55  75  62  80  71  65  61  72  91 108 115 124 128 136 151 151 145 138 119  76  80  69  57  51  24  14  10  10  28  12  44  64 132 151 135 155 162
  90  62  64  54  29  35  62  29  20  28  11  60  44  68  46  59  76  73  63  63  67  85 104 109 126 133 143 151 151 145 138 101  70  63  62  48  59  21  14   5   5  47  44 106  51  44  71 140 143 158
  80  67  51  26  32  62  94  51  21  23   4  20  23 133  75  49  64  80  69  66  66  81  94 103 115 129 141 149 152 146 131 109  68 100  48  61  78  48  12  11   2  35  54 144  99  48  26  59 125 153
  63  56  46  43  47  59  94  84  20  12  19  12  69 102  54  48  44  86  58  60  64  71  87 105 119 124 138 149 146 137 123 113  87  43  45  48  57  57  54  39  38  50  88  70  64  56  54  53  70 136
  66  58  58  53  56  56  54  54  57  64  70  77  86  86  73  65  63  64  63  60  60  78  87 104 121 123 134 141 144 136 122 103 105  77  63  70  65  66  75  70 104 112 129 133 126 129 131 119 118 137
  72  77  68  73  72  75  71  66  78  76  79  76  76  92  72  70  67  62  58  61  65  74  78  95 118 114 132 137 140 133 127 115 106 107  77  59  66  71  85  90 116 134 146 155 154 154 151 143 143 133
  75  74  74  69  76  83  94  98  99 106  96  84  76  74  77  72  60  62  63  62  68  74  85  99 108 121 127 135 144 140 134 114 113 116  94  66  59  69  80  87 101 124 134 130 135 139 139 138 133 141
  91  83  78  69  83  84  78  82  82  81  82  77  76  73  62  63  64  65  69  63  83  83  87  95  98 112 128 140 142 141 140 130 118 116 108 108  92  82  81  69  69  97 100 123 128 135 139 143 142 145
  88 103  92  85  85  80  87  95  75  85  83  79  73  76  68  66  70  79  69  82  80  87  85 105  93 113 124 138 141 142 141 138 133 126 122 122 108 106 110 110 106 121 136 129 131 129 135 144 145 144
 100 103  97  95  92  92  87  87  88  85  85  74  79  75  85  84  76  81  85  78  80  82  88  96 108 123 124 137 140 141 140 140 140 136 130 124 121 106  98 101 107 115 119 124 126 127 133 135 143 144
  92 105  89  99  99  83  93  86  82  84  78  80  76  83  96  72  87  75  79  83  84  94 110 101 112 115 134 142 143 141 138 141 145 142 136 133 129 124 121 105 118 107 115 115 127 127 132 140 138 147
 106  93  96 103  94  98  94  95  76  87  88  94 104  95  92  92  94  72  78  94  92 100 101 106 110 121 132 143 144 145 147 146 146 141 138 136 130 129 131 128 120 119 121 119 126 136 140 145 148 152
 109 118 102 104  99  94  87  90  95  96  98 106 101 110 100  91  89  94  92  99  94 111 112 123 120 126 133 143 143 152 149 147 147 145 140 132 130 132 128 129 127 123 125 127 137 141 145 150 157 159
 122 125 118 119 122 119 109 107 108  94 106 105 109 115 100  90  87  76 102  94 102 112 111 119 120 126 134 144 151 150 148 145 146 142 142 133 128 129 133 135 133 134 134 135 141 141 151 155 160 163
 116 124 123 130 119 120 116 121 110 116 112 101 101  99  90  93  83  89  89  93  99 101 121 116 126 131 139 145 153 150 151 147 138 140 144 131 129 124 132 133 132 139 140 136 141 150 152 162 168 169
 122 127 120 123 120 121 119 120 116 111 110 102 108  95  99  86  75  85  85  99 114 110 123 123 129 136 148 154 161 163 160 154 145 142 138 133 126 135 129 140 137 137 137 144 148 153 161 162 168 170
 123 125 118 120 120 117 116 120 118 122 119 118 108 108  83  71  76  88 108 116 115 121 125 127 134 141 147 164 172 179 172 161 159 157 145 142 124 119 132 134 137 137 142 151 150 159 160 163 166 169
 121 121 119 116 121 120 119 121 117 125 119 119 101 100  73  72  75  97 118 126 123 122 126 119 136 141 147 154 160 161 161 166 168 167 162 147 132 114 132 134 140 145 146 149 159 160 163 167 170 175
 116 121 120 118 113 123 125 121 125 126 125 117 109  89  74  78  91 118 121 131 125 116 111 111 119 135 144 151 159 152 148 155 163 172 170 155 140 118 125 130 138 143 140 154 160 160 164 170 170 174
 121 119 125 122 118 124 129 125 123 127 130 116 103  93  83  68 104 119 124 138 133 107  94  88 113 129 138 147 149 129  60 111 149 165 168 160 132 132 125 129 138 143 143 155 158 160 163 169 169 172
 124 119 118 119 108 121 131 126 127 130 124 129 108  92  92  73 105 124 131 134  48   1   0  42  57 122 132 148  81  35  10  39  68 147 163 153 145 140 139 132 134 143 144 153 156 159 163 162 170 177
 123 118 118 122 116 116 123 124 126 129 124 127  97 100  81  79  85  96 121  98  53  56  61  83  73  99 137 148 152 132 122  99  65 116 145 145 143 145 136 139 135 138 143 154 153 156 159 163 170 171
 115 116 122 112 114 119 124 122 127 129 130 132 118 114 106  84  62  62  68  70  70  92  78  87  81 119 134 142 141 145 146 143 134 128 133 142 149 147 144 136 134 138 142 143 155 159 163 166 167 167
 118 112 115 116 113 128 126 127 126 125 134 127 118 114 110 100  96  91  65  61  62  67  73  83 103 127 130 133 135 140 137 140 131 131 138 146 151 148 143 136 137 139 142 144 155 156 163 163 163 167
 108 107 113 113 118 116 120 122 129 132 130 124 124 109 100 106  94  85  82  69  74  67  72  84 100 121 127 113 117 132 134 132 127 135 137 147 142 145 145 142 143 139 143 148 151 158 162 162 165 167
 103 115 114 108 109 114 106 118 131 130 125 121 106 104  94  85  87  75  78  73  68  65  70  87  99 110 103 108 108 118 121 118 127 129 135 142 139 143 147 150 142 142 147 154 153 157 159 162 165 162
 112 108 110  95 106 119 116 115 115 124 116 118 102  97  86  77  72  80  62  65  63  64  75  77 105  96  93 101 108 118 117 127 123 126 123 136 135 140 146 148 136 145 146 151 155 160 160 160 164 166
 101 110 106  96 114 116 107 108 116 119 110  96  95  91  77  68  63  65  56  62  64  77  75  70 105  96  94  90  75 106 126 132 130 130 119 127 129 132 135 134 144 140 148 153 160 157 160 160 161 163
 103 111  98  89 106 108 106 109 110 111 106 106  83  68  66  63  60  65  69  67  62  79  73  95  97  80  89  94 104 108 128 131 137 142 136 130 135 130 133 117 143 140 139 153 159 154 159 160 160 162
  98 105  98 100 101 103 112 113 105 104  94  91  76  70  70  66  78  88  93  71  72  78  97 112 106 101  92 108 121 130 135 136 143 145 141 141 148 143 141 141 145 147 140 145 152 159 159 157 160 160
 102  94 103  96  94 101 113  93 105 100  97  76  65  69  76  69  85  87  93  72  66  68  69  77  98 117 113 102 110 117 122 129 130 132 137 144 149 146 148 144 145 146 142 143 153 160 160 163 161 159
  99  94  98  88  94 106 103  98  95  94  74  67  77  82  74  99  87  89  80  71  74  66  85  83 104  80  95 112 113 129 135 139 139 132 132 140 147 148 147 147 142 143 146 144 153 159 160 163 159 151
  92  87  97  96  93  87  94  95  83  91  86  71  79  85  83  78  72  62  73  71  83  78  82  94  88  95 109 116 119 120 133 133 131 130 130 118 111 114 109 119 131 134 143 143 154 153 156 160 150 155
  85  86  87  75  90  98  98  94  89  95  98  92  71  72  70  63  56  60  58  58  54  57  56  62  63  67  90  91  89  71  52  53  60  57  68  66  54  47  55 108 117 126 137 146 153 158 160 149 150 155
  80  85  85  91  78  91  92  98  96  98  87  73  63  88  48  15  43  46  50  55  55  50  51  49  52  51  54  54  53  56  53  56  69 115 115 110 100  85 131 132 121 111 128 150 149 155 159 152 158 155
  73  79  75  89  75  87  94  90  91 104  83  56  58  65  62  60  65  83  71  79  74  81  78  72  89  95  98  93  74  95 121 123 136 137 142 138 146 151 137 135 130 131 143 151 149 150 154 153 159 155
  78  76  83  86  94  85  86  91  99  81  72  58  59  69  73  85  79  77  80  86  83  81  95 106 118 116 114 121 124 135 134 136 143 145 138 146 154 152 137 145 142 140 144 148 153 148 152 156 152 151
  82  85  78  80  79  76  79  86  88  94  75  69  75  70  59  80  91  85  94  92  81  66  83  94 110 126 122 119 133 141 145 143 147 148 150 160 160 149 148 149 151 145 147 151 155 156 156 155 158 155
  86  86  83  81  88  90  92  87  96  87  87  80  72  83  78  81  92  95  90 109 102  92 101 117 120 121 122 129 139 138 136 143 147 150 160 161 159 151 150 153 156 152 148 151 152 155 155 160 154 153
  90  85  80  80  78  73  75  83  87  78  78  76  85  88  81  72  67  98  98  91  97 101  99 101 112 108 118 114 112 119 132 139 145 154 158 151 151 156 153 156 158 159 151 155 153 156 156 154 150 155
  99  85  72  87  75  78  83  71  78  84  78  86  77  83  78  78  83  82  89  96 102 109 112 106 107 108 110 109 115 126 131 138 138 147 151 158 153 153 156 159 159 156 152 153 158 155 151 152 155 155
 118  84  79  84  85  72  70  79  91  87  84  82  81  87  83  84  75  96  93  98  93 101 103 110 103  90  80  97 114 118 126 134 138 144 152 154 153 150 151 158 158 152 155 159 157 151 154 158 154 162
