P2
50 50
255
  33  29  26  38  28  26  11  26  37  27  35  28  30  41  45  52  60  76  92 125 134 131 135 133 132 135 134 128 104  90  80  67  59  52  48  51  46  44  43  30  26  38  31  19  33  44  51  55  51  52
  43  48  42  44  45  47  49  35  41  41  45  41  42  42  45  54  55  63  80 103 122 121 132 128 128 128 123 112 109  78  65  67  59  63  54  57  54  55  56  54  63  82 109 104  77  70  61  48  55  52
  50  45  52  54  58  61  78  64  59  55  57  55  50  52  46  53  63  75  68  81 105 121 120 126 132 128 127 104 103  71  72  67  94  77  65  84  78  95  74 111 109 121 136 128 126 120 108 102  91  69
  57  60  63  64  73  79  70  91  84  82  63  64  71  63  64  65  61  55  64  94 111 103 116 121 128 131 128 130 116  90  87  89 105 102 107 113  96 107 105 116 125 131 136 137 144 146 149 147 141 140
  63  75  73  80  84  86  95  92 104  95  92  90  71  76  68  68  70  66  74  78 109 109 115 121 131 128 135 122 111 100 119 123 123 125 115 110  97  97 103 116 124 138 145 147 145 153 152 159 156 151
  72  75  84  88  93  98 104 104  83  94 101 103  94  81  77  64  72  77  85  80  97 109 116 119 126 135 140 127 118 123 129 129 114 104 103  96  87 100  80  69  67  89  95 143 158 162 162 162 159 157
 104  97 100  97  60  55  65  72  86  83  72  60  64  85  72  67  58  68  79  89  95 107 114 115 129 137 140 131 132 130 128 113  99  84  82  78  62  56  63  84  99 120 131 128 122 107 147 157 162 162
 110 101  73  68  63  74  70  67  57  56  66  73  65  58  82  70  59  57  67  77  88  99 118 126 122 136 140 140 140 131 119  86  76  68  68  54  54  55  49  40  35  51  59 125 144 140 126 144 157 163
 106  74  55  75  59  48  33  18   4   3   1  11  57  63  55  68  59  57  58  69  92 101 106 119 131 144 146 144 147 136 103  73  65  63  53  51  43  14  10   7   2  10  17  32  54 129 149 128 144 163
  95  62  80  54  34  41  49   8   6  18  33  53  34  41  53  56  65  57  56  70  81  99 108 107 119 143 148 150 144 134  99  60  62  58  48  53  61  28  10  11  16  42  50  69  52  38  64 121 145 151
  79  71  52  19  40  68  83  15  10  19   5  14  36  83  49  53  66  59  57  62  89  92 105 109 124 137 148 153 140 133  97  64  73  47  50  69 112  37  10   5  17  26  52 146 107  52  32  48  96 144
  73  51  41  33  53 109 115  55  17   5  13  32  75  69  50  30  68  56  54  61  74  99 110 108 121 136 143 147 136 128 103  67  57  34  46  52  54  57  45  11  12  44  75  65  63  54  52  48  55  98
  61  53  49  49  49  51  50  56  51  53  49  63  60  56  54  54  62  53  56  65  76  91 109 102 121 129 140 137 133 121  98  71  73  63  63  62  60  71  67  94  95 108  99 105 121 104  91 108 105 122
  68  63  67  65  60  59  58  57  64  64  65  68  62  61  63  61  54  58  61  62  72  87 105 106 120 132 136 137 131 117 106  95  92  75  66  67  74  81  76  90 105 133 140 142 145 145 149 140 133 133
  75  73  82  76 100  90  95  89  83  80  80  73  62  67  57  55  59  61  61  72  87  86  97 108 117 131 139 138 131 128 110  98 112  87  60  60  62  67  74  75 105 120 132 131 136 138 141 136 136 128
  92  89  78  79  79  89  98  94  81  72  68  68  59  61  60  59  62  63  69  74  79  99  89 103 119 137 140 140 135 137 126 112 116 111 100  80  70  63  62  61  80  89  99 114 118 130 135 131 136 137
  87  97  91  93  79  73  71  84  74  64  63  64  64  65  65  70  69  66  84  89  81 103 106 116 126 130 141 137 136 143 133 128 125 109 114  93  85  98  87  89  93  98 112 117 115 121 132 134 141 139
 109  93  96  92  86  83  84  72  73  68  66  61  71  76  75  75  73  83  88  88 101 106 101 119 126 140 139 131 136 134 142 138 128 123 114 109 100  74  77  96  97 104 101 112 116 117 127 124 131 139
 100  99  95  90  87  88  71  63  75  71  70  74  85  78  75  71  74  87  92  94 101  98 108 124 134 138 137 143 140 140 140 139 137 128 125 120 121 106 106  93  97  99 105 113 125 112 135 131 137 140
 104  94  97  85  85  73  80  72  83  74  84  71  94  87  79  75  84  89 101  88 105 113 115 127 135 144 145 144 139 145 145 145 131 132 126 118 119 118 112 109 107 103 113 114 128 134 133 137 145 151
 110 110  96 100  84  91  80  74  83 102  97 100  92  89  78  81  89  99  99 109 117 122 129 133 144 143 147 147 141 145 147 143 144 133 118 119 125 125 129 117 117 113 124 124 132 140 145 149 153 156
 115 111 103 116 101 101  87  87 103  98 104 105 107  86  82  82  92  94 110 114 116 123 125 134 146 142 149 146 145 146 144 145 137 133 122 126 124 128 125 130 129 117 122 131 132 137 153 152 159 161
 120 125 119 113 115 100 105  95  99  88  97 110  79  80  91  95  91 103 109 117 123 123 131 143 147 157 153 150 142 141 133 133 143 132 115 118 123 130 126 123 128 136 136 139 140 148 159 160 160 165
 119 118 125 118 117 102 105 104 107 102 102 101  86  73  76  78  85 106 107 125 120 128 133 148 161 167 166 159 159 148 142 143 132 142 119 115 125 125 129 128 132 126 131 140 147 157 157 164 168 171
 123 121 115 115 109 112 100 111 117 109 107 109  90  80  71  89 116 118 126 125 123 126 139 145 160 171 178 175 168 158 159 159 143 141 125 102 117 125 134 135 131 132 144 143 147 161 159 161 167 168
 125 123 118 113 119 107 115 108 117 103 103 106  74  71  74 115 125 121 121 109 123 129 130 145 153 157 161 157 158 168 172 168 161 147 135 108 106 123 135 137 137 146 141 152 153 161 164 168 170 171
 121 117 121 114 114 116 115 112 112 117 106  97  68  81 102 115 127 121 117 107 104 118 128 140 145 150 141 138 145 154 168 174 170 157 139 116 108 122 125 134 139 141 145 149 159 163 165 170 173 175
 128 123 121 121 125 118 123 114 121 115 105  88  79  74 110 129 135 128 102  82  65  99 119 132 142 135  92  31  52 139 156 168 170 164 134 122 111 118 128 131 135 140 151 153 157 161 163 170 172 175
 123 125 115 119 119 125 120 126 115 115 105  84  75  79 111 125 123  62  25   2  12  48 114 127 145 113  62   1   2  32 119 155 161 159 138 135 131 132 132 137 135 147 149 153 156 162 168 170 172 177
 117 123 119 115 113 126 119 121 119 119 116  95  85  77  84 101 115  65  52  52  74  63  79 126 142 152 137  97  77  59  68 120 143 146 137 137 130 137 131 129 134 144 149 154 159 157 166 168 173 175
 122 121 115 111 113 111 121 125 126 126 111 110  94  81  66  60  61  61  64  75  77  65  82 112 131 133 136 143 137 137 121 112 123 131 132 141 139 136 134 133 135 141 149 154 154 157 166 170 170 173
 113 123 119 116 117 120 113 119 126 125 125 104 100  97  96  73  57  56  59  71  72  72  98 118 118 128 127 136 133 137 124 122 122 134 137 140 140 135 133 128 140 146 145 153 163 161 168 165 168 171
 115 119 113 116 115 119 119 117 123 125 119  98  92  89  89  88  69  67  76  66  77  75 101 113 109 101 107 118 124 129 114 122 131 142 141 136 138 139 136 138 139 143 153 153 158 162 168 166 168 168
 112 117 113 117 112 111 118 122 112 107  89  91  92  90  77  79  77  71  61  64  68  78  85  95  95  97  83 112 108 119 119 125 126 132 132 133 139 141 142 143 142 148 153 157 159 165 162 170 164 168
 121 104 106 104 108 119 104 115 109 102  98 111  87  76  75  67  61  59  59  67  71  71  75  73  89  86  82 105 115 109 102 109 116 131 127 136 137 144 144 136 141 149 152 157 160 164 162 166 166 167
 115 112 102 109 112 109 111 109 105  86  84  90  81  69  68  56  57  59  61  65  68  81  84  61  69  81  97 110 123 109 115 105 109 117 128 126 136 142 144 142 142 146 156 155 159 165 164 168 166 168
 111 108 110 119 113 110 106 105  98  87  81  80  57  57  60  59  65  62  64  63  77  81  81  64  69  90  95 109 123 125 125 125 117 101 105 113 129 133 135 143 144 146 154 160 160 163 162 168 165 166
 101 111 105 109 106 114  98  95  92  99  78  71  63  67  77  85  79  67  73  95 105  95  78  82  89 101 110 130 132 125 137 139 126 135 142 129 117 119 134 142 136 149 152 157 159 160 162 165 163 163
 108 109 103 103 100 102  92  91 100  74  71  63  74  67  91  92  74  66  59  66  71  83 100 100 103  99 101 107 111 116 128 133 140 144 142 146 145 132 138 138 143 144 152 161 163 161 160 163 161 162
 103 101 103  96 115 107  99  86  83  69  71  67  73  96  98  75  63  65  66  80  76  73  74  85  96 104 109 119 124 115 109 123 127 137 147 146 144 143 145 147 140 145 151 158 164 164 164 165 157 161
 102 112 102  95 102 103  91  96  95  79  77  95  76  75  67  64  68  64  73  67  72  76  86  96 105 107 108 124 125 131 124 126 119 111 134 139 135 138 140 143 139 146 151 155 160 166 161 163 158 157
  89 100 102 105 104  89  96  79  89  71  76  69  65  68  58  55  55  62  58  62  61  62  63  85  91  76  80  89  81  99 104 104 118  82  85  63  64  77 108 128 135 147 152 161 159 166 161 162 150 152
 103  99  82  82  92  96  92  98  98  84  80  85  55  38  19  31  39  41  37  21  18  38  25  40  14  39  42  39  25  35  49  47  52  53  54  44  45  62  97  93 123 137 145 157 158 161 154 151 152 159
 100 103  98 102 111 106  93  91  87  84  61  57  57  49  55  60  58  64  73  67  63  55  63  68  60  58  55  60  60  93 116 127 124 114 113  90 110 114 117  89 102 132 152 150 153 163 161 158 160 159
  91  94  97  99  99  89 101  84  85  64  53  63  64  80  85  80  87  81  75  86  95  93  99  92  93  91 107 106 121 132 137 136 141 137 144 145 141 128 125 122 118 134 149 152 153 157 157 152 163 160
  95  92  95  83  84  84  96  97  70  64  60  64  64  92  95  99  86  70  80  89  89  97 112 112 113 121 128 116 133 136 136 135 140 147 152 151 139 136 137 132 132 141 147 151 150 159 156 161 159 161
  98  83  75  92  84  91  85  80  85  67  62  73  68  76  95  93  95  92  90  84  95  85 107 110 112 122 125 136 135 138 144 149 153 159 158 153 144 146 145 145 142 140 147 154 159 160 158 160 160 158
 124  98  99  86  82  95  82  77  82  71  73  75  81  78  89  83  98 101 100  89  88  99 107 115 105 123 122 120 131 141 138 153 157 158 157 147 143 152 154 155 145 141 149 154 161 160 163 153 154 156
 162 104  78  97  81  94  82  83  88  79  84  85  72  86  85  82  84  94  86  94  89  83  71  92  89  87  88 115 127 133 141 151 149 150 148 151 148 152 157 158 158 148 153 153 156 157 158 156 155 153
 172 149  93  91  76  90  74  81  76  82  73  91  92  75  82  91  73  76  92  95  87  89  85  99  97  95  91 109 123 119 132 140 145 153 148 148 145 156 157 153 152 158 156 155 156 160 154 157 152 154
