P2
50 50
255
  40  33  33  21  20  14  28  32  37  44  31  35  34  40  53  53  65  99 116 124 130 131 126 124 129 129 117 111  92  71  67  59  53  48  41  48  37  36  40  29  28  30  29  39  40  46  52  53  51  49
  42  51  50  49  53  52  47  46  48  47  41  43  46  47  52  58  61  82  99 119 127 124 125 124 122 123 111 102  77  69  67  61  57  57  55  56  49  51  50  52  47  48  54  61  51  50  52  61  56  52
  54  57  57  64  65  64  64  70  62  58  56  51  51  50  56  63  66  61  90 105 112 111 126 128 125 114 102  88  76  69  63  68  71  60  65  61  69  63  67  77  95 110 106 108  88  70  69  67  78  58
  66  68  63  73  77  78  86  82  77  86  70  66  73  62  60  65  60  72  81 104 104 116 111 123 123 120 114 106  83  80  79  99 100  90  97  98  95 103  99 106 121 125 130 121 128 129 126 117  98 117
  88  79  75  88  95  99  99 109 102  84  80  73  74  71  65  69  71  77  97 108 115 108 115 121 122 124 117 115 104 110 109 112 124 124 101  91  97 100 108 121 122 123 132 136 135 143 143 143 138 144
  82  95  81  87  76  64  57  54  57  63  78  84  74  73  63  66  68  80  88  96 114 104 112 107 126 128 121 102 117 120 124 115 106 106  92  83  96 106 110 118 128 133 138 146 145 151 154 156 150 154
 108  95  76  52  60  71  70  71  65  70  64  53  69  66  63  60  66  73  84  85 102 112 109 120 121 132 121 124 122 118 110 100  85  77  78  89  73  57  60  76  91  94  88  86 133 151 155 157 156 155
  99  78  55  72  66  65  51  45  44  48  59  62  56  56  64  58  60  67  71  92  94 110 114 117 124 128 131 134 125 125 107  78  76  68  72  52  59  61  59  55  67  82 116 134 118 106 127 155 154 161
  80  55  77  54  38  33  49   8   7   4   3   9  57  57  57  64  56  61  70  84  99 112 112 122 134 132 139 136 129 103  66  70  65  62  54  57  47  19   1   7   5   7  43  70 129 141 108 128 149 159
  70  80  49  31  49  63  51  18  24  32  47  72  38  51  56  60  58  60  65  80 102 106 114 128 130 145 142 137 135  98  65  61  59  51  44  51  60  25  11  16  46  44  47  44  46  93 140 129 132 152
  90  45  24  48  95 106  50  26  20   1  11  13  56  49  53  60  60  59  66  90  98  99 110 124 134 142 148 141 131  99  60  61  57  46  56  77  95  36  21  12   9  26  46  90  55  34  58 110 140 145
  58  37  44  51  91 102 104   5   9   7  16  25  54  50  43  64  55  55  63  80  90  98 106 120 132 134 141 139 130 108  67  72  49  45  50  61  88  56  14  13   8  30  65 127  73  41  30  49  87 128
  52  54  57  51  47  50  53  53  58  69  65  64  66  57  53  57  58  55  62  73  95 103 108 121 124 136 136 128 122  99  73  70  59  55  60  59  63  63  53  58  63  57  67  64  64  58  73  62  73 101
  84  74  79  72  71  65  64  68  69  61  59  61  58  59  58  56  57  60  65  74  97 105 102 115 129 133 136 127 112  95  72  80  64  58  64  66  68  77  73  70  99 108 130 130 129 123 117 115 103 121
  69  69  80  84  85  90  88  80  80  69  58  60  58  60  57  57  60  62  74  83  95  98 113 119 133 137 134 119 106 100  95 100  77  57  57  59  74  88  88 102 112 127 136 144 150 146 141 130 129 124
  83  73  76  71  72  78  74  72  62  65  65  69  60  57  60  60  61  70  76  82  92  98 107 122 132 134 136 125 120 112 110 105  90  69  65  59  61  66  66  76  93 114 114 127 124 130 133 127 124 125
  94  92  73  80  71  76  65  74  62  67  60  62  60  70  68  73  70  78  77  91  91  86 106 124 130 134 128 137 133 121 115 109 105  89  88  87  76  72  68  69  85  92 106 116 120 121 127 129 130 134
  85 100  92  86  79  81  70  76  63  66  65  65  78  72  78  70  78  80  80  96 109 112 113 125 134 136 135 130 132 132 123 124 110 109 103  80  89  87  88  92  99 101 107 102 112 115 122 132 135 130
  98  94  85  88  78  73  71  68  69  67  74  81  79  86  86  80  71  87 104 103 104 116 123 131 133 129 130 130 137 135 126 128 116 117 108  99  88  84  85  90  97 101  99 106 112 111 127 125 129 134
 100  95  90  87  79  77  72  74  78  74  92  90  82  83  79  80  90  81  95  99 100 116 128 137 142 138 139 142 138 138 133 133 122 122 113 119 107  98  95  81  91  94 108 109 111 121 125 129 129 134
 105 107  99  87  93  82  79  85  90  79  95  84  78  84  85  97  92 101 108 118 120 128 131 137 142 138 137 139 142 141 135 126 121 118 115 115 114 107 104  98 102 101 100 119 121 127 129 133 137 141
 112 108  98  97  96  89  89  95  93 103  92  89  87  79  86  97 106 114 107 114 120 128 136 136 139 143 144 138 144 144 139 138 129 114 120 115 123 115 115 108 106 109 114 127 128 134 137 144 146 153
 119 115 104 106  99  97  85  95  92  88  91  78  91  87  87  92 100 106 122 114 127 134 142 146 145 142 144 137 133 136 145 136 128 114 112 117 117 118 123 115 113 113 124 127 133 136 142 152 154 156
 117 115 114 102 104 102  94 103  81  95  89  84  77  87  81  93 114 114 115 121 133 137 144 151 150 143 139 142 135 129 136 136 131 112 110 115 119 117 115 124 125 124 127 130 136 146 149 154 147 163
 108 114 109 113 111 103 100  98 100 106  95  77  73  78 103 110 113 123 124 128 136 146 157 165 163 159 151 146 138 133 133 134 128 105 113 112 113 121 124 124 121 124 130 138 145 150 154 158 164 165
 117 109 102 120 110  94 116 108 103  94  84  73  77  99 126 116 124 117 122 128 138 145 158 163 169 167 161 158 152 151 143 138 137 114 110 110 115 127 125 124 131 135 134 140 147 156 157 161 159 167
 116 114 108 106 103 109 106 106  99  92  75  69  95 116 119 115 112 105 114 124 134 141 147 153 155 154 154 159 165 163 159 146 134 124 103 110 118 124 130 130 133 138 141 145 144 158 159 164 165 167
 113 108 112 114 113 114 113 114 100  97  69  85 103 120 125 122 114 100  98 112 129 136 140 149 141 134 135 153 163 175 171 159 142 129 105 108 113 125 130 128 135 136 139 145 151 157 164 165 169 171
 111 111 115 112 115 113 110 101 103  95  81  83 106 126 127 118  57  51  61 104 119 128 138 130  69  37  50 131 155 161 168 165 145 129 118 102 118 121 119 123 133 139 144 153 153 159 163 166 169 174
 111 114 110 113 115 114 114 115 104 102  85  83 102 118 119  64  25   0  33  55  87 127 136 114  57  28   6  26 105 146 159 160 149 134 128 119 126 124 124 129 134 143 146 147 151 159 163 167 169 172
 120 111 117 113 117 112 116 113 108  95  83  78  70  91  95  63  52  62  62  65  95 114 133 144 133 108  83  58  58 108 136 146 145 134 133 127 126 117 128 124 129 135 145 150 154 161 160 167 174 173
 113 109 117 112 108 106 112 118 106  99  99  86  77  59  54  54  63  77  75  75  94 111 121 130 134 133 136 133 116  99 111 128 134 128 134 128 126 125 118 125 133 139 144 145 146 158 163 166 174 171
 108 111 112 115 108 117 119 112 103  92  95  94  92  75  66  60  61  67  70  78 100 104 106 121 125 130 129 132 128 122 110 121 128 136 135 128 130 121 122 132 127 135 144 144 155 160 163 166 164 169
 110 110 104 115 110 112 114 109  99  91  91  88  90  74  73  65  65  56  65  80  92 104 101 112 110 114 112 121 121 115 120 127 134 133 136 135 130 127 128 129 137 139 138 146 155 159 159 162 165 164
 111 103 109 102 110 117 108 100  97  89  88  88  84  75  71  65  61  66  66  85  88  89  79  96  88 104 109 103 114 117 122 131 134 132 135 130 134 134 128 132 138 141 142 150 156 160 161 162 164 163
 102 103 105 102 105 109 101  96  88  77  90  70  75  65  60  61  63  65  71  72  77  76  79  78  99  97 104 101  93 110 115 121 121 125 135 138 141 134 134 138 142 143 147 152 155 155 164 163 163 167
 105 103 106 110 108 104 100  83  90  85  74  63  61  61  58  63  62  68  66  83  75  69  70  83  88  98 109 102 111 103 103 110 122 123 129 132 139 132 136 135 141 143 143 153 155 158 160 160 159 162
 100 107 106 104  97  99 100  83  81  72  65  65  61  66  70  60  65  67  88  74  70  74  75  92  95 103 111 113 119 125 108 100  99 113 119 129 132 126 133 139 137 143 149 151 155 156 161 159 161 161
  99 100 104 103 103  99  89  91  81  71  67  72  71  82  73  71  71  85  92  72  73  75  87  92 100 122 118 118 132 128 125 112 128 120 122 122 121 129 130 129 137 147 146 151 157 159 158 160 160 161
 105 103 100  99  96  89  92  69  64  74  70  79  82  83  81  60  61  71  77  97  99 107 101  99  90 106 113 116 129 129 123 129 134 133 135 131 129 133 130 129 133 142 151 150 152 156 156 157 161 160
  99  97  99  96  85  81  76  69  67  69  79  88  80  77  66  70  67  66  80  75  74  72  81 100 106 117 114 115 110 117 120 135 143 143 145 138 132 137 133 135 134 137 152 155 154 155 157 156 159 158
  99  97  96  89  88  85  85  76  76  78  86  72  73  61  68  73  81  79  76  75  91  91  94 114 114 120 132 129 122 114 115 128 133 145 139 134 139 137 138 129 136 141 148 153 156 154 159 157 154 155
  95  97  83  83  88  72  77  71  71  70  66  56  56  56  57  61  59  64  69  59  76  89 100 100 100 109 116 117 115 112 119 101  96 105 113 106 109 122 127 134 137 146 146 152 155 156 159 155 151 155
  95  96  88  96  82  83  86  71  60  66  52  24  22  38  42  46  32  35  33  45  47  57  54  53  44  30  15  47  54  56  59  60  61  50  39  46  82 104 109 114 136 143 146 153 156 154 153 152 148 155
  98  99 101  96  78  80  77  64  54  62  63  48  60  60  65  71  66  53  54  56  57  62  59  53  54  54  55  64  86 104  88  79  70  62  66  91 109 104  81 112 129 147 144 151 152 148 148 145 156 152
  95  95  95  90  85  89  74  60  51  65  74  75  83  76  86  80  79  88  92  97  99  93  84  80 101 113 121 120 124 129 130 132 130 130 130 116 118 106 102 101 135 143 143 145 157 154 151 159 155 151
  83  92  83  84  94  84  64  63  57  67  69  96  87  98  95  74  77  83  89  92 104 104  97 102 122 125 122 137 133 126 133 133 147 148 138 128 128 124 125 123 137 140 145 148 155 154 150 151 158 156
  90  87  90  96  86  73  70  69  65  72  71  87  96  97 102  82  85  82 104  99 112 110 115 121 129 123 136 131 145 139 144 148 156 149 136 138 137 135 132 136 134 142 151 146 152 152 155 151 152 148
  92  85  76  79  80  78  73  70  70  83  81  85  95  99  98 101  90  88  93 104 104 106 114 124 118 122 126 136 138 146 158 155 155 144 141 141 148 145 137 135 138 146 148 151 153 151 156 152 151 150
 125 102  84  85  77  77  71  68  85  86  87  76  84  84  84  88  83  82  74  85  78  88 101  95 112 114 127 135 138 152 151 150 147 150 141 142 146 154 145 144 142 147 145 155 154 155 150 154 148 151
