P2
50 50
255
  35  44  30  32  24  14   7   9  22  26  33  21  23  29  35  43  60  80  96 113 130 135 131 134 134 134 134 139 133 114 108  85  74  63  49  48  47  27  37  36  34  32  31  44  46  49  53  55  47  50
  39  44  35  32  32  36  22  20  32  41  36  42  36  32  37  45  54  57  78  93 118 133 135 138 136 138 137 138 129 112  85  83  67  59  55  53  51  48  49  50  46  46  54  67  59  59  59  55  54  52
  47  40  49  38  50  55  49  57  47  47  48  50  47  41  49  47  55  62  80  84 122 124 129 130 134 129 131 125 111 104 102  66  68  78  64  66  69  67  65  82 112 124 126 124 108 106  91  68  58  59
  52  54  55  55  57  66  70  77  72  70  69  63  64  56  55  52  54  73  73  58 107 113 121 126 128 131 129 131 124 115 101  89  97 106  85  99 111 117 107 120 131 131 143 138 143 142 137 134 134 107
  62  65  66  71  67  78  82  96  91 108  92  84  73  75  74  65  63  72  72  91  96 105 120 125 122 131 138 135 124 115 106 123 121 131 126 113 104 105 107 128 133 135 140 146 155 152 147 151 146 148
  78  74  76  84  94  82  98  96 112 115 111 101  94  73  79  63  75  76  84  87  90 114 125 120 122 138 137 133 126 122 124 130 124 110 109 105  93 107 104 118 123 131 138 154 156 158 160 152 151 148
  83  82  80  84  83  94  62  53  59  58  68  57  80  90  85  74  69  73  79  76  94 105 113 124 124 133 137 135 132 132 138 132 119  94  85  86  78  56  62  87 104 129 130 105 116 141 151 159 160 159
  81  95 105  82  57  53  71  84  72  81  70  74  66  53  81  76  72  65  61  85  86  99 107 119 123 126 139 140 136 137 136 118  94  75  72  58  54  56  48  45  46  52  95 132 140 128 130 150 161 163
 101  82  74  54  68  64  60  26  22  12   1   2  63  69  63  71  72  66  57  65  83  92 115 117 127 133 142 148 143 137 128  81  72  67  55  52  46   3   3  12  12  10  43  38  85 143 127 139 158 161
  96  87  58  72  63  39  37  39   3   8   5  13   7  46  61  72  69  67  63  64  72  87 106 112 123 133 146 147 147 140 122  66  62  64  50  51  54   9  33   7  15  40  93  58  32  52 110 144 147 156
  96  68  71  52  21  46  59  46  24  20   5  20  19  98  44  44  78  66  61  63  69  84  99 111 115 134 142 151 142 135 126  69  64  50  52  69  98  16  20   5  17  44 142 149  54  29  47  94 137 156
  78  64  47  19  23  68 103  96  19  20   4   8  24 131  65  47  50  69  59  57  67  85  94 115 113 131 138 144 141 131 120  74 111  41  47  54  56  54  51  38  45  63  73  65  59  60  69  68 115 138
  60  59  47  47  53  53  56  57  51  41  44  53  59  62  60  56  50  65  58  56  66  75 100 112 113 128 138 140 138 127 118  89 101  59  64  64  64  70  67  87 100 122 139 122 137 126 110 125 122 135
  64  60  59  58  57  56  57  57  58  71  61  66  81  81  67  62  68  62  58  59  66  80  95 109 106 121 131 135 136 126 114 107 106  80  63  69  75  76  98 101 118 138 150 155 149 151 142 135 133 128
  67  73  72  76  74  80  76  97 102 101  93  79  70  69  63  71  61  62  59  66  69  81  92 102 113 124 129 140 133 129 120 109 117 107  81  60  59  61  78 102 107 124 125 132 134 133 138 135 133 139
  78  80  75  80  72  72  91  91  90  92  73  69  64  70  64  59  65  66  67  64  77  87  90  96  99 119 132 139 137 135 131 119 117 111  99  90  96  85  73  70  81  92 111 122 125 136 135 141 145 142
  73  85  81  74  77  76  79  65  78  81  74  76  70  63  58  65  74  62  70  76  81  95  79  96 107 125 132 139 135 135 135 129 124 119 113 107  92  93 107 113 117 122 126 126 122 131 131 143 142 135
 101  98  89  90  84  82  94  88  96  85  73  72  68  73  72  84  78  73  70  89  86  84  98 102 120 125 133 138 135 134 136 141 134 131 129 119 110  96  90 103 111 113 111 117 122 123 133 137 137 141
  99  97  90  91  91  99  83  92  72  73  78  67  72  83  89  95  76  86  78  84  88  99  99 109 115 123 139 141 143 138 139 142 137 134 130 129 125 119 119 104 101  98 112 119 126 129 133 140 141 145
 107  95 101 102  92  97  90  87  80  83  77  77  83  96  97  93  76  75  87  94  94  93 104 102 111 126 138 142 144 138 147 140 141 131 133 125 130 125 125 111 114 117 116 123 133 136 139 144 152 153
 105 109 101 104 101  96  92  78  66  83  94  96  90 102  85  85  79  84  90 102  96 103 120 118 126 137 142 140 149 143 144 145 142 140 133 124 128 129 125 125 125 122 125 132 131 142 148 154 159 160
 113 117 118 108 117 106 101  91  87 103  99  97  97 101  90  90  85  90  97 101 104 103 113 123 128 131 145 149 146 144 140 140 142 142 132 130 126 134 128 128 129 127 131 133 143 150 154 158 157 163
 124 121 115 120 116 112 108 105 102  99 103  89 100  91  84  83  87  92  83  95 103 113 109 126 131 138 144 154 147 145 144 139 134 141 133 122 123 131 126 132 131 135 137 141 141 154 159 160 166 168
 125 100 124 120 117 111 112 107 107 101 101  99 106  94  84  78  85  78  87 110 116 126 122 129 130 141 155 164 164 156 157 147 140 133 138 118 126 124 129 133 135 133 135 144 144 160 160 162 163 170
 119 122 124 120 119 119 113 115 101 113 113 110 101  98  74  69  76  89 111 113 116 119 122 125 137 141 159 167 176 171 165 159 156 148 142 128 115 120 133 135 130 132 142 150 150 160 164 163 166 168
 119 120 115 116 119 117 114 120 111 116 119 115  99  88  70  90  93 110 125 120 116 118 119 124 134 140 156 158 160 154 159 166 169 162 147 140 117 116 129 135 137 135 144 148 154 160 163 166 171 172
 127 108 122 117 120 113 115 122 117 119 118 122  91  82  66  83 100 125 124 126 120 115 107 113 129 137 147 153 144 144 146 156 166 173 162 142 117 115 126 128 138 137 145 151 155 160 165 169 171 172
 117 117 115 119 112 120 124 124 117 118 122 109  94  81  78  78 116 119 129 127 118  93  86  94 124 132 140 137  62   6  37 136 155 165 163 138 134 128 129 132 139 136 150 152 158 160 163 167 166 171
 117 118 117 120 116 124 124 122 122 119 124 115  96  82  83  77 111 125 126  74  32   0  32  49 112 128 145 103  64  11  36  46 130 157 156 142 140 135 129 131 136 132 145 151 155 160 160 169 170 176
 121 108 120 116 103 119 125 124 124 126 119 115 102  87  88  78  91  98 115  57  55  56  71  71  92 122 141 148 142 133 128  85 105 127 139 135 142 139 135 129 139 138 142 147 151 154 162 165 166 171
 124 110 118 111 113 115 116 119 123 130 125 125 111  97  94  84  60  63  66  59  70  76  76  68 112 128 130 136 141 146 143 138 128 129 135 138 145 142 135 135 133 140 143 147 154 159 165 163 165 165
 107 109 121 104 109 125 119 120 118 124 128 125 110  98  90 100  92  66  62  59  64  77  76  87 118 120 123 126 133 140 129 131 126 129 135 143 146 141 138 138 136 137 146 151 154 156 163 163 165 165
 113 108 110 107 107 117 119 119 120 123 125 115 111 102  96  95  87  75  71  76  69  64  75  85 114 111 114 108 113 126 128 130 130 132 139 141 140 143 143 140 143 138 148 151 155 156 158 160 165 164
  99 110 112 105 110  96 115 118 120 126 120 113  99 100  94  95  84  80  73  64  64  67  85  88  95  96  96 100 105 122 118 114 116 130 128 129 134 143 143 142 139 145 149 150 157 159 157 161 163 165
 104 114 110 105  95 113 119 113 117 117 117 114 103  85  76  66  68  69  67  58  63  70  77  85  90  79  90  84 111 123 119 119 120 119 127 129 129 131 144 143 142 143 145 152 155 157 157 153 156 159
 107 105 108 106 104 109 108 115 114 119 107 102  88  76  66  65  62  58  63  65  66  72  75  92  85  83  81  85  96 117 126 128 126 123 116 105 119 127 137 138 140 141 144 152 152 155 157 160 160 161
 108 105 101 103 108 105 109 114  99 107  94  90  78  79  60  63  62  65  76  65  72  72  93  97  82  81  81 102 107 124 127 129 141 138 131 133 131 125 116 134 135 136 141 149 154 156 158 154 156 159
 101 102 103 106  95  99 107 103 100  98  84  78  70  71  68  72  81  85  74  84  75  69  98 107 100 100 109 119 113 127 124 132 138 141 141 140 146 144 137 143 135 138 142 147 157 158 152 158 158 156
  92  96 104 103 101  91 106  95 101  98  85  76  64  65  72  75  80  84  83  61  68  66  74  81  83  97  83 105 119 117 125 128 125 126 133 146 143 148 146 143 143 136 142 144 154 157 157 161 157 160
  96  96  96  95  92  92 103  96 101  80  76  61  75  75  76  90  78  91  73  81  76  94  83  82  88  99 107 119 125 129 132 138 131 128 129 131 137 134 128 133 137 142 139 146 152 157 155 160 150 151
 102  86 101  96  93  95 103  96  85  98  97  69  71  79  75  91  65  67  68  70  71  66  78  76  72  94 112 117 110 121 121 118 116 118 109  89  67  52  65 122 127 127 142 146 154 155 155 151 145 152
  90  89  94  85  87  93  96  85  91  92  92  82  70  77  60  56  50  53  57  49  52  36  44  59  63  67  70  67  36  24  17  54  54  59  62  62  56  54 104 123  83 112 138 146 146 158 155 156 146 155
  92 102  87  91  96  86  87  98  75  90  93  78  60  72  48  23  48  53  51  58  53  55  54  54  58  70  64  60  56  59  66  99 106 131 131 129 123 133 130 126 120 115 138 148 147 155 150 152 157 151
  87  94  74  90  96  84  90  93  91  88  82  64  55  61  63  61  69  88  82  90  79  79  84  92 103 103  95 105 103 124 126 134 140 137 144 139 151 147 138 134 131 134 141 149 146 147 153 153 148 155
  92  83  76  84  84  79  96  81  95  87  69  61  55  62  72  83  85  92  81  75  84  84  85 105 113 124 107 120 133 133 136 142 142 142 147 153 160 143 146 143 144 139 146 149 152 148 154 156 157 154
  98  83  79  83  91  83  89  76  93  85  77  68  63  75  61  86 102  91  95  87  92  85  89 104 112 120 122 126 134 133 142 142 143 152 156 160 153 145 148 151 150 142 145 155 152 154 157 150 155 150
 105  74  84  82  80  74  89  80  71  76  72  71  80  81  90  83  85  89  87  99 107 103  93  99 119 116 122 124 126 129 132 143 146 157 152 150 151 148 151 152 155 147 151 149 155 154 149 156 156 154
 156  85  90  84  86  80  75  79  76  75  73  64  85  81  73  68  86  85  85  78  99 100  97  99  96  95  99 100 102 117 131 139 143 149 150 156 153 149 155 151 160 153 149 151 151 156 152 153 152 153
 162 137  81  78  70  77  75  72  81  90  74  82  81  84  76  75  76  84  92  78  85 101  95 106  96  91 107  99 117 122 130 129 134 145 146 150 149 148 150 155 157 157 152 154 152 152 149 145 153 149
 165 159 122  84  93  81  84  79  81  75  75  71  83  83  90  84  85  95  87  85  82  89 109 114 102 103  89 101 109 108 130 132 140 143 147 148 147 151 152 160 157 156 154 156 153 154 150 148 150 150
