P2
50 50
255
  38  33  31  37  38  25  27  25  24  36  29  31  24  29  38  41  53  64  88  89 114 137 140 137 142 135 140 141 141 132 126 110 101  81  63  51  44  44  37  34  42  38  38  31  48  49  49  52  54  48
  47  45  46  44  43  49  47  44  39  37  47  42  46  40  45  46  50  58  77  74 100 130 140 135 140 131 139 142 134 132 109 106  83  63  54  54  52  44  48  50  52  46  40  45  52  49  51  59  61  56
  50  51  51  55  53  60  64  65  62  56  55  54  53  52  46  53  54  66  69  83 100 119 133 131 135 140 135 141 127 118 107 111  64  65  77  62  61  67  62  68  64 108 122 128 124  85  72  56  77  53
  61  59  69  66  73  76  86  92  93  85  77  69  71  75  61  63  61  65  63  72  93 110 123 130 134 136 135 137 137 122 114  97 112 112 105  85 101 116 105 118 131 132 136 143 139 140 126 132  97 127
  65  75  73  79  93  92  97 101 114 100 110  90  92  80  82  72  69  72  65  80  87 111 126 130 123 134 136 141 135 126 121 112 108 126 132 121 113  97 119 123 126 136 139 143 146 149 152 145 143 145
  76  88  76  94  91  90  96 110 112 112 105 114 104  94  94  68  72  83  73  74  87 110 122 130 122 138 138 144 139 126 126 130 132 126 116 116 108 105 106 118 135 142 147 152 154 159 160 159 155 155
  97 106  90  94  77  55  57  85  81  76  85  74  62  87  83  91  75  66  76  75  89 104 111 125 129 132 138 144 135 138 137 134 128 119  94  85  85  85  55  64  83 114 118 100 102 148 159 160 162 160
  99  90  71  56  56  72  68  72  63  58  59  71  78  69  61 101  79  66  64  66  87 103 110 118 130 133 136 146 138 141 140 133 107  90  81  80  52  59  58  62  57  81 108 132 145 132 118 155 161 164
  94  79  55  61  63  57  29  19   1   4   5   3  32  75  72  64  94  77  62  59  74  90 113 110 128 129 136 149 147 142 137 116  78  83  76  56  57  39  19   5   5  16  17  50  93 141 141 137 155 161
  77  64  63  57  36  26  55  10   4  29  26  44  38  45  51  70  70  70  69  62  71  91  97 114 123 136 144 152 150 148 137 107  71  63  58  49  55  12  10  24  41 115  52  64  41  50 125 146 144 160
  76  68  49  32  32  55  87  27  21  15   0  22  25 128  56  35  87  68  60  63  65  79  92 119 119 133 144 151 153 144 130 107  70  77  52  53  73  29  19  11  17  35  48 141  99  44  45  84 140 156
  61  53  42  46  51  92 102  54  16  20  11   6 114 137  62  46  48  83  61  60  63  80  93 116 112 127 136 148 147 137 132  96  85  53  41  46  58  61  24  21  25  26 134 107  69  57  43  52 101 139
  60  56  51  48  51  56  54  55  51  55  58  59  77  62  71  63  55  71  63  63  69  75  91 112 120 124 132 144 145 134 124 104 100  62  63  64  64  68  78  70  87  92 106 101 102  86 101 102 105 134
  65  69  64  65  70  63  62  62  64  76  75  83  85  85  69  72  68  63  59  58  66  72  89 111 112 113 134 140 143 133 122 109 102 106  75  64  74  69  79  77 111 131 145 153 153 149 147 141 134 130
  69  74  82  80  73 101  97 104  96  94  88  85  71  77  78  73  69  61  62  62  68  85  82  97 112 119 133 140 144 132 123 120 116 115  75  58  60  70  83 109 117 128 133 141 145 142 141 138 134 137
  76  76  74  71  75  75  86  95  93  89  80  72  76  73  69  67  64  58  67  65  84  84  97  94 103 116 129 137 144 137 135 128 116 118 109  96  83  70  66  65  72 100 113 124 129 134 134 136 140 145
  83  79  91  86  83  85  91  80 102  78  75  68  78  68  67  70  70  72  69  75  89  89  85 101 106 104 121 136 138 138 136 136 130 123 118 112  99 106 108 104 102 112 120 121 131 131 138 144 144 143
  94  96 101 101  95  97  93  92  98  88  83  70  71  71  85  78  80  84  74  85  93  80  97 107 107 123 129 132 140 145 136 140 135 133 130 122 115  95 101 102  95 129 124 128 128 131 131 136 144 144
  92  99  86  99  86  86  92  78  77  70  83  81  76  81  91  83  86  85  77  79  83  97  95 104 113 121 130 141 142 137 137 140 142 138 135 131 128 121 116 112 107 122 114 118 123 123 137 138 137 143
 109 106  94 108  93  94  90  82  87  87  93  90  99  94  91  89  79  73  90  84  92  90  97 104 105 124 131 142 143 142 144 148 143 140 136 133 131 131 128 121 117 112 117 120 126 133 138 142 142 151
 110 108 105  98 101 101  88  95  92 103  92  96  92 106  85  93  84  85  92 101  96  99 109 125 114 125 135 141 145 146 148 146 146 144 141 131 131 133 130 131 129 123 123 123 137 133 144 151 155 157
 118 118 112 110 108 114  99 108  99  93 100 107 108 101 101  89  92  83  95 106 101 104 114 123 123 124 136 145 148 150 144 144 148 145 141 130 129 131 130 133 136 133 130 130 140 138 149 153 160 163
 126 118 126 119 123 111 109 111 101 104 108  99 108 100  92  99  87  87  91  87  96 105 113 120 121 129 138 147 154 151 146 145 142 141 142 133 130 132 135 134 136 137 133 136 142 143 154 160 162 159
 124 118 121 122 120 119 119 114 107 113 106  96 111  99  92  86  83  86  87  93 115 101 122 127 127 133 148 154 159 156 150 149 140 138 141 133 123 125 133 133 132 140 136 137 148 152 160 160 167 170
 118 122 126 118 121 119 119 120 116 124 115 118 116  95  87  76  77  90  98 108 116 126 128 126 134 140 147 166 177 173 166 160 154 150 141 137 120 127 129 144 140 141 137 148 148 158 160 163 166 168
 124 119 118 122 119 124 116 117 116 120 119 122 106  95  70  79  73 104 117 125 123 118 119 130 132 143 145 160 165 167 170 170 166 164 154 142 126 113 133 136 135 147 144 150 154 161 161 168 170 170
 119 124 121 125 120 127 123 126 117 120 122 119  95  88  74  84  90 121 123 130 126 119 111 122 126 135 143 155 155 155 151 162 171 177 167 152 143 120 127 133 137 144 145 157 155 162 163 170 170 173
 118 118 121 118 115 116 127 123 121 128 130 109 110  91  80  86 101 125 129 133 132 116 101 107 117 133 143 149 154 144 135 143 156 168 170 162 139 129 127 130 135 145 142 154 160 161 164 170 168 171
 124 122 126 121 120 126 126 130 127 129 130 119 108  91  93  76 113 120 131 135 119   1  11  40  89 127 135 145  60   2   3  34 139 158 166 160 138 136 135 133 136 143 147 153 160 160 161 171 166 176
 106 116 119 124 118 119 123 131 130 130 127 120 103  93  82  71 104 111 130 103  49  43  53  58  68 115 134 149 138  67  54  54  64 134 152 149 140 143 135 138 137 139 142 148 155 159 155 167 169 172
 119 116 127 122 119 125 123 126 129 131 130 129 112  94  93  74  61  75  94  85  70  82  80  74  79 116 131 147 145 148 145 136 112 116 135 141 146 143 137 133 131 134 146 148 152 154 163 164 170 167
 114 119 118 116 120 120 122 126 123 129 137 131 116 117 113  95  97  69  53  58  69  76  75  70  96 126 130 133 137 141 146 145 137 135 130 144 149 149 141 141 134 142 147 146 152 157 163 166 167 166
 108 108 108 118 121 124 124 128 130 129 132 130 124 110 113 105  92  92  65  67  71  77  66  81 110 126 130 132 133 135 131 131 135 136 143 146 148 147 143 141 138 138 143 148 152 155 161 163 166 163
  99 120 114 116 114 119 119 119 127 122 127 123 112 101  90  87  92  86  87  83  67  70  68  87  77 117 114 112 109 122 131 130 130 133 135 146 144 144 149 146 144 142 148 154 151 156 162 163 166 163
 110 110 116 104 110 116 116 119 121 121 120 112 110 103  80  83  77  80  69  62  65  66  73  83 106 112  84  99 114 123 121 113 122 127 131 137 134 141 145 145 140 139 147 150 154 160 160 161 163 166
 108 110 110  95 102 120 102 116 118 115 109 108  98  94  86  74  71  62  60  60  61  66  71  91  97  94  92  92 109 112 126 133 130 121 125 126 132 130 143 141 148 144 145 152 158 160 161 159 163 163
 105 108  99  83 107 114 118 111 112 111  99 101  87  69  70  65  61  62  63  63  65  73  72  94  99  90  74  90  92 110 127 127 129 135 130 113 124 120 136 138 137 144 144 153 154 157 159 160 162 161
 103 107 100  92 108 110  97 108 101 109 104  89  79  69  70  70  71  80  77  83  70  80  91  99  96  92  84  87 110 118 136 136 140 146 137 137 148 141 125 134 138 144 136 149 155 160 158 162 160 163
  86 105 103 101 111 108  93  99  90 107  86  76  69  72  71  69  78  96  95  73  69  68  85 102 112 111 116 119 131 115 124 130 137 143 140 142 145 148 147 146 146 144 143 144 154 159 159 161 160 160
  90  98 107  97  99 101 105 111  92  99  83  74  62  70  75  75  92  88  77  69  64  69  68  74  88  94  78  96 124 121 130 130 130 130 135 144 147 150 149 147 147 144 140 144 154 157 163 159 159 159
  91 104  95  84  83  88  99  94  93  91  81  72  83  91  78  98  79  75  75  76  84  77  99  95  84  94 105 118 124 132 140 142 136 134 133 129 136 145 128 136 142 141 147 148 152 156 160 161 153 150
  83  95  90  94  94  87  88  85  85  91  76  79  78  69  73  73  59  62  70  68  77  72  68  77  81  76 109 112 117 113 113 108 117 118 127  96  78  48  54 110 126 128 140 147 154 156 160 153 148 154
  85  90  83  97  93  93  92  87  84 101  92  80  77  78  50  29  34  43  36  33  31  35  37  48  52  53  63  54  45  33   5  49  56  66  60  78  63  54  92 132 113 121 135 147 152 154 155 153 151 158
  87  88  88  94  89  91  90  94  91 103  90  62  65  73  58  48  56  58  60  60  64  75  58  67  57  71  64  68  58  70  66 102 130 138 132 135 131 134 133 135 126 121 133 151 149 154 157 151 158 155
  73  77  92  90  90  83  76  82  99  78  72  56  56  71  76  83  72  78  75  94  77  91  95  93  96 108 107 112  96 123 126 136 141 147 142 142 151 150 135 135 135 138 142 151 146 149 155 155 155 157
  83  79  78  81  90  94  85  84  93  72  73  60  65  68  72  87  92  86  87  88  79  69  94 103 110 120 116 119 130 138 138 142 143 146 146 151 162 152 144 144 148 146 144 150 155 151 153 155 155 153
  88  80  85  80  84  85  90  93  87  92  72  62  66  79  69  80  94  87  98  94  98  98  99 113 109 125 134 130 133 136 143 144 145 151 160 159 161 154 152 152 153 146 150 152 151 157 159 156 155 155
  85  92  84  87  82  79  90  92  73  76  75  78  85  86  71  86  87  92  96 104 108  98 107 113 113 123 119 131 133 128 134 143 149 153 160 155 157 149 148 153 158 152 149 152 155 152 155 156 148 155
  83  74  70  79  78  80  69  80  83  76  76  77  89  85  85  77  81  83  94  90 107 103  91  96 107  93 112 109 108 114 130 138 146 152 157 154 152 155 149 156 156 156 154 155 154 158 154 153 151 154
  75  83  87  84  75  76  84  79  85  76  86  86  79  89  81  76  91  83  78  80 101  87 106 103  99  95 116 112 117 130 132 138 137 143 147 152 153 150 151 160 160 158 155 152 156 155 157 152 154 155
