P2
50 50
255
  36  41  38  39  36  32  33  30  33  34  36  39  38  36  43  41  51  60  85  92 125 140 139 139 138 138 138 144 140 134 103  76 103  64  52  49  42  47  32  37  32  36  35  38  41  49  54  45  49  44
  45  49  49  50  50  52  53  58  49  46  45  41  49  36  44  42  50  56  62  65 124 128 137 138 138 133 141 139 129 126  72  56  63  52  51  51  51  49  47  47  52  44  42  41  51  49  48  54  52  49
  53  54  57  61  59  65  78  81  73  77  65  63  62  53  50  49  50  77  78  56 104 122 128 135 138 139 138 134 112 120  85  72  79  96  87  56  59  56  67  63  95 107 126 118 122  74  62  52  62  53
  63  74  65  93  76  84  90  85 106 101  97  84  75  74  71  66  73  77  57  70 104 118 115 129 128 140 137 136 134 113  96  94  73 105  82 113 105 116 113 111 129 130 138 142 141 140 133 116  99  71
  79  76  79  79  76  96  92 110 119 111 117  99  98  79  79  77  71  83  79  80 102 112 124 127 112 138 137 144 130 125 112 124 116 129 130 121 103 114 112 128 132 133 141 139 145 152 149 151 144 144
  82  93  87  91  95  81  57  61  61  59  69  88 105 110  94  83  64  76  77  77  94 113 117 124 124 136 141 137 123 126 125 133 126 123 118 103  95  96 107 121 132 143 152 153 157 157 159 163 156 157
 112  94  89  83  56  59  68  83  82  78  77  78  71  63  97  82  74  67  77 101  83 105 115 129 126 137 139 148 141 142 138 138 119  93  92  84  96  61  56  67 103 107 112 104 137 159 161 163 162 161
 102  86  72  51  66  61  57  50  39  22  34  53  65  71  51  90  72  60  64  73  88 100 110 124 131 133 142 143 148 142 137 117  99  81  71  79  54  58  59  61  65  99 124 141 137 127 139 161 164 167
  89  71  56  65  54  30  30   8   6   1   5   8  25  51  69  60  86  68  57  63  78  96 115 116 131 141 146 151 151 146 130  86  80  66  63  53  52  25   6   3   7   3  31  58 125 150 129 146 161 164
  83  67  58  43  32  42  55  15  24  28  17  89  38  96  41  66  75  64  59  56  69  90 104 113 121 141 146 153 159 142 129  72  64  64  53  47  58  10  19  12  39  59  44  41  38  63 147 136 154 164
  70  56  40  27  40  68  90  22  24  11   3  17  62 138  55  32  89  63  57  59  70  92  97 114 119 134 145 153 151 142 127  74  64  57  48  73  77  15  20   1   3  31  90 139  49  33  52 128 145 157
  63  52  44  45  47  60  73  81  10  11   6  40  88  76  59  39  40  70  54  59  63  92  99 123 123 132 141 151 140 134 117  82 113  45  41  49  60  42  13  12  23  27 146 146  81  49  37  56 113 154
  66  55  58  57  53  51  54  53  58  58  66  66  91  71  64  65  55  59  57  56  70  82 102 115 115 125 135 143 139 134 113  87 123  61  62  64  57  72  68  55  59  65  65  70  66  74  73  64  87 134
  75  78  69  76  77  79  74  73  78  81  74  71  80  71  64  67  65  57  61  61  63  90  98 111 108 133 139 141 134 130 105  96 101  76  62  66  75  79  67  91 105 133 142 146 134 134 137 133 111 132
  77  82  81  81  83  95 103  87 105 112  84  81  76  75  63  58  61  68  64  72  69  76  82 101 109 121 137 146 137 132 120 106 110 102  60  62  68  71  97  97 120 136 148 150 150 147 146 141 138 133
  82  82  77  86  80  81  72  74  82  84  68  74  70  67  57  63  65  70  63  89  82  79  85 102 100 124 135 142 139 133 134 120 108 111 104  90  71  62  65  71  95 106 119 131 131 142 138 135 133 139
  88  95 101  79  87  79  84  90  78  91  73  67  67  66  67  74  70  73  73  76  92  89  99 110 121 131 135 142 143 139 138 129 126 126 117  95 100  98  89  84  88 101 110 124 135 138 141 143 145 142
 110 106  91  97  93  83  87  83  75  69  75  65  74  83  79  77  79  80  78  82  94 100 108 109 118 129 142 142 138 140 139 143 132 133 123 117  90  93 103 106 106 119 123 124 122 126 142 144 146 140
  97 104  94  98  87  89  88  75  69  83  95  72  89  94  79  84  91  77  87  85  88  99 100 104 122 131 138 139 145 137 142 147 142 133 133 129 124 108 109  98 102 107 110 116 129 125 131 134 143 142
 108 106 103 109  92  92  82  83  72  92  99  97 100 101  81  80  76  87  94  82  93 103 120 121 128 141 142 142 146 144 147 144 139 133 133 131 123 123 126 111 117 102 109 123 131 137 135 140 144 150
 115 114 105 109 106 109 102  85  99  84 112 108 103 101  92  71  82  93  97  95 106 110 117 116 128 136 146 149 149 145 143 147 142 143 133 125 129 121 131 128 117 119 128 132 136 144 145 151 155 156
 115 120 124 124 107 119 101 101  96  97  98 114 104  92  94  84  74  94  93  91 106 116 121 122 135 148 150 153 150 150 142 144 142 142 133 132 129 136 134 131 137 132 130 134 137 147 152 160 161 165
 124 124 124 118 117 117 113 104 106 118  95  99 104  97  76  84  87  79 101 102 109 128 128 132 136 148 158 158 157 147 148 136 138 140 125 131 132 135 134 134 132 135 138 146 150 153 161 165 164 172
 128 117 119 128 119 121 118 115 107 111 109 112  97  91  72  79  74  95 107 124 128 123 123 141 146 158 170 177 169 160 151 146 143 140 130 118 130 134 134 132 138 132 139 146 151 161 163 167 169 169
 123 110 121 126 115 117 115 114 117 124 119 112  91  76  82  70 101 123 124 123 128 124 133 139 144 156 165 171 172 170 169 164 160 149 141 116 127 133 137 144 146 141 147 145 154 166 163 167 167 172
 124 126 123 124 123 122 119 125 117 124 117  99  79  66  73  90 127 120 128 126 113 119 116 130 141 146 152 159 155 158 165 168 168 165 140 129 113 128 144 137 138 146 150 151 159 163 166 168 172 172
 113 123 123 118 121 114 121 123 127 133 119 101  93  79  70  98 124 125 133 131 111 111  94 129 134 146 149 149 140 139 152 167 175 172 152 142 114 127 131 144 147 149 157 157 160 165 168 170 172 174
 120 123 117 125 126 131 128 129 126 128 114 114  85  80  73 114 122 132 134  54   3  22  49 108 130 141 150  34   3   4  83 156 167 172 153 132 115 129 133 142 146 147 158 160 156 165 171 174 176 179
 120 128 122 117 119 128 128 132 130 120 126 116  90  95  66  97 117 132  63  37  21  49  53  86 126 146 130  82  35  27  45 113 147 163 157 134 138 128 131 134 143 152 157 161 161 165 170 172 172 177
 124 119 121 124 116 123 128 123 132 126 126 111 104  96  72  65  80 100  68  59  72  70  71  91 116 135 147 150 133 121  78  92 130 147 144 141 139 138 133 140 143 151 153 157 163 162 165 172 175 174
 115 123 119 113 125 115 125 126 134 137 131 124 115 105  82  90  57  51  55  75  69  74  69  97 132 131 138 138 145 144 139 125 126 134 141 148 147 143 135 141 143 151 154 160 158 164 169 172 173 176
 112 116 117 123 120 123 114 126 129 135 124 111 109 104 102  89  72  61  62  66  71  72  79 118 126 117 128 129 139 134 132 123 134 131 144 150 143 144 148 139 146 151 155 157 160 165 166 169 170 171
 111 111 113 113 122 120 128 120 124 124 115 114 103  87  92  84  76  62  73  68  59  74  77  97 106 110  92 114 128 126 127 122 126 138 145 142 143 148 144 142 142 149 152 161 164 169 169 168 168 170
 111 112 109 111 113 119 115 122 123 112 110 107  90  82  68  73  72  71  64  58  67  78  92  97  92  97  91 101 117 121 115 117 121 126 137 139 146 146 146 149 148 155 157 160 164 163 169 168 169 168
 117 112  96 119 121 116 121 122 121 111  97  89  85  87  73  68  58  62  56  72  66  65  83  98  77  92  78 103 124 119 120 113 115 124 134 137 144 146 150 146 150 154 158 165 164 166 165 169 166 169
 114 115 105 113 118 115 113 111 108 106  90  79  78  75  60  62  59  60  60  64  66  85  96  82  79  70  79 102 115 123 123 124 120 104 116 120 137 142 141 146 155 154 158 161 166 167 167 165 170 167
 106 100  98 103 115 113  97 104 105 101  92  87  63  64  57  67  82  70  66  79  80  85  95  73  72  72  85 103 127 132 131 140 132 119 129 127 114 135 141 145 150 154 162 163 165 167 164 162 166 166
 108 111  93 101 111 106 102 105 116  88  89  71  65  66  71  82  87  70  70  70  72  85 107 104 109 122 120 117 124 124 136 140 135 138 138 141 136 123 133 142 145 152 161 164 160 165 164 166 166 167
 107 108 110 106 100 110  93 113  94  68  75  60  71  68  87  86  87  67  66  74  66  75  72  85  84  94 108 120 113 132 131 129 137 141 149 150 150 138 140 139 147 150 161 165 163 163 163 161 163 160
  92 101  92  97 102  97  89 103  98  88  63  79  86  69  84  78  63  67  80  76  79  77  84 109 105 106 123 129 139 131 136 121 127 137 140 150 150 144 150 146 145 151 158 163 166 166 167 163 162 160
  89 103  98  93 103  97  95  82  82  82  81  67  70  69  63  58  62  57  64  65  61  68  68  77  97 100 114 109 119 126 124 124 125 121 123 132 126 133 139 149 146 152 158 162 163 164 163 158 158 162
 102 104 100  99  99 103  99  87  93  77  77  74  72  56  46  44  45  47  44  30  30  35  42  54  59  57  54  53  48  47  52  56  77  82  67  53  37  82 118 135 137 152 157 158 163 161 162 153 157 160
  86  89  95  92  97 103  90 101  97  74  66  64  71  41  44  44  52  61  53  58  50  49  49  50  51  48  50  43  52  51  61  94  76  70  63  54  58  93 115  92 133 151 155 162 163 162 151 155 161 160
  96  87 101  92  88  94  99  98  95  66  53  59  62  65  63  80  70  78  70  82  81  80  79  97 102  94  74  90 109 114 133 136 133 140 137 127 130 131 122 108 125 139 154 159 164 162 156 163 158 158
  89 102  93  92  75  75  89 114  74  66  56  63  60  77  92 103  74  95  77  76  97  94 100 115 109 115 106 125 121 134 144 142 138 145 145 157 149 134 128 128 128 144 155 152 159 159 159 161 155 159
  85  74  74  92  99  91  85  87  90  68  65  71  75  74  89  92  94  93  78  85  86  97 106 114 119 124 132 130 138 142 139 149 144 147 151 156 139 143 144 141 144 143 152 159 156 156 161 160 158 155
  81  83  83  83  66  87  87  83  77  70  64  86  85  73  80  91  95  98 100  92  86 103 110 115 113 118 129 132 132 139 146 145 156 158 159 151 145 151 152 149 149 144 156 158 159 159 157 158 156 155
  89  86  89  79  79  82  79  87  77  70  78  98  71  74  79  79  86  97 104  87  87  88  88 104  95 103 110 119 125 138 147 151 158 152 151 158 145 152 157 157 151 149 157 153 161 159 156 159 153 159
  84  79  94  77  75  77  77  85  84  79  76  82  78  74  76  83  74  82  80  90 100  90  95  96 113  99 106 115 127 131 139 144 145 153 151 153 150 154 158 160 157 152 156 158 160 158 156 152 157 157
 124  84  95  78  74  80  83  87  93  83  71  70  84  71  77  93  87  89  81  92  99  95  84  92  87  92 100 113 123 131 135 142 146 149 153 150 152 156 159 152 154 156 154 157 162 156 154 157 151 154
