P2
50 50
255
  40  41  43  37  33  35  30  18  36  22  36  37  31  39  43  50  56  68  71 109 128 135 136 137 128 135 136 134 121  96  77  76  63  54  49  50  48  34  34  33  27  36  34  39  40  42  51  50  52  46
  50  48  51  46  49  49  50  52  46  47  49  47  46  44  48  48  52  72  68 107 111 128 132 124 125 129 129 120 109  66  69  64  55  55  55  54  53  50  48  51  50  47  54  64  53  48  51  54  55  50
  52  57  52  57  58  73  84  78  71  64  62  59  53  52  49  51  64  61  62  80  99 113 125 128 131 132 129 113 101  84  68  68  94  83  62  74  59  74  67  79 102 118 122 117 108  76  88  85  79  58
  61  68  73  70  67  74  76  86  95  97  78  71  67  79  57  59  62  57  72  83 104 106 115 117 125 132 128 131 117  99  85  85 102  97  95 103  97 115 100 117 123 127 132 136 138 144 132 127 103 124
  81  73  81  79  96 105  98  99 109 107  99  94  72  69  67  68  68  69  74  83 104 109 117 109 129 125 135 131 118 107 121 126 125 126 124 113  97 102 106 119 125 126 138 140 143 149 149 148 141 145
  87  86  96  96  93  90  59  56  55  54  60  96  95  77  72  67  66  80  80  76  95 105 121 119 123 132 139 127 115 117 129 128 117 106 101  97  95  87 100 121 124 136 146 148 156 160 158 161 149 155
 107 108  95  79  53  58  77  77  80  80  77  63  55  74  74  69  61  70  74  79  98 107 115 115 131 133 138 132 132 127 132 120 106  85  87  82  72  58  57  74  87 112 120 100 105 151 161 163 163 163
  99  90  81  56  72  64  62  51  50  36  42  61  77  65  59  79  60  60  66  78  92 101 112 128 119 136 139 139 139 132 128  97  83  73  68  60  54  58  53  55  50  74 103 137 144 125 110 158 160 168
 104  95  56  71  57  40  36  28  13   5   2   4  20  57  60  64  61  59  58  61  89 101 103 113 131 139 145 144 146 136 103  73  67  61  56  52  51  23   7   4   9  11  14  48 110 149 140 136 149 161
  98  68  67  45  16  41  53  14  26  25  23  55  45  49  46  57  63  58  57  64  77  99 108 107 120 139 147 150 145 136 102  63  61  60  48  46  55  21   7  23  31  82  53  49  43  50 132 144 140 154
  86  73  45  25  44  81  93  50  16  14   2   6  36 106  52  41  68  60  58  61  88  97 104 109 117 137 148 153 143 136  99  67  66  49  51  70  92  34  17  23   1  21  45 133  60  40  41  73 137 148
  68  50  40  44  45  68 102  92  14   7  11   8  69  57  48  39  61  59  54  62  76  99 107 111 119 136 143 147 136 129 108  65  69  36  34  51  56  63  10  11  22  27  96 132  79  50  42  44  66 124
  59  58  54  57  50  50  53  55  56  57  65  69  76  62  57  56  58  56  54  63  75  84 107 103 121 129 140 139 133 120 103  68  74  62  65  60  62  71  68  58  69  64  61  75  67  80  67  91  81  94
  71  84  76  87  77  66  67  63  70  65  64  63  66  60  61  63  55  58  63  67  75  87 106 106 119 132 136 135 131 118 103  85  83  73  60  69  79  72  75  88  86 103 135 135 130 137 135 125 121 123
  86  98  69  80  91  99  87  98  98  92  74  73  64  60  61  60  59  61  59  73  85  82  97 107 117 131 139 137 131 125 107  96 112  79  59  63  65  70  84  92 111 126 139 147 148 145 144 135 136 127
  90  99  88  74  74  76  79  76  73  66  66  59  61  60  62  64  69  64  72  77  81  97  91 102 119 137 140 140 134 135 124 111 107 106  92  69  60  60  60  73  91 105 109 127 125 131 136 132 131 136
  89  95  89  85  78  81  76  74  79  70  64  65  68  67  68  78  75  75  85  84  85 102 107 117 126 129 140 136 135 140 136 126 123 105 113  98  79  92  76  75  94  92  88 119 122 125 133 136 143 145
 104  98  99  98  84  81  76  71  73  69  77  65  66  73  76  71  76  76  86  89  98 106 101 120 127 138 136 132 137 138 141 135 128 119 117 111  98  82  85  92 103 109 113 117 115 119 131 133 139 137
 103  97  91  89  94  71  78  76  73  84  76  74  93  65  81  70  80  81  99  97 101  98 111 126 131 135 136 144 140 140 142 133 137 128 123 124 114  97 103  92 103 105 103 117 117 120 122 136 137 139
 104  97  97  97  89  81  76  70  84  86  95  96  94  84  81  85  84  92  97  88 112 119 117 129 137 144 145 141 139 144 146 141 129 133 124 120 119 112 111 101 107 105 111 118 124 131 131 137 144 147
 118 109 106 102  97 101  96  91  83 100  99  94  92  87  71  86  89 101 101 103 118 119 130 133 143 144 147 146 144 144 147 143 140 134 124 119 123 118 121 113 109 115 114 119 126 138 144 146 149 152
 114 123 115 116 105 112 100 101  92  97 108  99 100  81  81  84  84  86 110 117 120 123 126 139 148 141 148 144 145 144 145 147 140 133 122 126 123 121 118 126 121 117 128 132 130 143 149 150 153 161
 112 123 123 116 113 110 102 104 103  91  92  99  85  74  91  96  75 110 107 124 121 128 133 146 147 158 154 148 144 141 132 136 144 129 123 127 125 129 119 128 126 131 133 139 136 147 153 162 159 166
 125 121 113 123 112 115 103 100 105 104  94  91  84  81  77  84  93 101 117 125 127 127 140 152 164 166 164 159 155 146 141 139 134 132 117 118 121 124 129 125 132 125 137 145 148 157 160 164 171 172
 127 120 125 115 115 103 103 110 119 105 108 100  87  76  70 108 121 123 127 125 126 132 140 147 165 169 176 174 167 158 158 154 138 138 110 113 124 127 129 134 137 139 143 144 154 161 163 166 167 171
 121 115 118 114 120 116 116 115 110 108 105  89  80  68  96 121 125 116 112 106 121 131 139 146 154 156 159 155 161 169 170 164 150 143 126 102 109 126 135 138 136 141 143 154 158 157 164 167 173 170
 125 124 109 119 119 117 121 120 121 111 106  88  78  79 114 125 131 122 101 107 106 120 132 137 147 149 144 136 145 160 170 174 167 148 135 115 110 129 135 141 140 146 148 152 154 164 168 169 173 175
 125 126 117 117 115 118 123 117 110 111 105  89  94  70 117 130 131 128  61  50  68 108 121 133 136 127  55  22  91 144 161 170 170 151 132 126 118 126 130 136 133 140 146 156 154 165 170 170 174 177
 115 121 115 113 123 125 123 116 119 116 107  89  80  74 113 120 119  50  21   4  36  51 122 132 147  67  53   5   6  50 136 160 161 154 125 132 128 124 129 135 137 151 157 153 155 165 169 171 175 177
 117 121 118 115 121 119 117 121 121 119  95  95  85  69  79  96 105  56  57  72  67  67 105 129 141 146 135 110  83  57  88 137 145 149 130 139 134 132 130 134 136 144 147 155 160 165 166 173 176 176
 117 117 121 116 115 119 121 121 123 126 121  92 101  81  64  56  62  59  65  78  77  74 105 127 132 139 136 145 144 130 110 119 131 133 134 140 133 131 126 136 136 145 149 156 147 159 168 173 173 173
 118 114 115 114 125 113 123 125 122 123 117 101 101  95  84  67  58  59  68  73  68  79 112 115 113 129 130 135 135 135 125 129 121 138 138 139 135 137 133 130 144 143 148 153 159 167 168 168 170 173
 113 112 110 124 113 117 122 119 122 109 111  82  86  89  82  74  73  67  64  67  73  83 103 114 105 106 105 105 119 126 123 118 136 139 137 139 137 135 139 137 144 144 153 154 159 165 169 169 169 170
 109 117 108 109 115 114 118 119 108 109  89  92  87  79  80  77  74  62  60  72  68  88  94  87  74  84 104 113 107 119 119 122 130 137 136 135 140 143 140 139 144 147 151 157 163 165 165 168 167 168
 112 112 113 117 110 107 112 116  98 104  92  97  81  72  70  65  60  57  60  68  71  80  86  70  81  84  98 105 114 102 115 121 118 129 133 138 141 141 141 137 149 153 157 154 160 164 169 169 167 168
 110 102 101 101 109 107 115 112  90  95  80  80  67  59  57  65  58  58  63  68  67  89  76  71  73  83 101 114 121 112 111 105 105 123 125 131 136 146 139 136 143 153 156 158 161 164 164 166 168 169
 113 101 104 108 111 101 107 103  97  86  77  68  65  61  67  67  68  68  67  66  75  70  83  72  70  85 103 116 121 122 126 126 100 109 108 123 132 133 140 146 148 151 160 159 164 165 166 166 167 164
 106 101 108 107 107 104  97  99  89  89  64  66  61  80  87  89  74  68  65  98  98  88  81  83 104 103 120 128 126 138 139 135 132 135 131 133 119 114 141 145 140 154 157 162 159 163 161 164 164 165
 100 107  95  95 107 101  98  94  76  63  62  67  74  74  81  86  68  65  67  67  72  94  94  85  80  94 101 112 117 117 129 139 143 140 144 144 133 134 139 141 140 146 158 163 160 160 161 161 162 162
 101 111  93  94  98  88  89  95  70  62  73  68  81  83  73  69  73  69  76  77  66  74  95  86 103 109 114 123 129 122 112 121 139 147 145 146 140 136 144 136 140 148 157 160 162 161 165 159 163 162
  94 105 105  93 106 100  81  86  92  67  83  77  82  74  59  64  72  80  65  68  72  65  85 104 109  93 121 123 129 125 121 126 122 130 143 136 139 143 145 144 145 147 156 163 164 163 163 161 162 159
  80  93  91  89  89  88  95  88  77  86  64  73  57  51  48  51  53  46  49  51  51  54  67  73  74  70  65  64  76  89 100 109  89  64  73  76 105  98 128 133 141 148 154 158 161 161 162 154 154 161
  90  97  95  97  96 103  83  87  70  73  73  74  34   6  28  46  46  48  43  45  46  39  15  20  34  43  46  34  40  32  50  55  57  53  48  40  51  85  91 123 137 146 159 160 160 159 155 156 158 161
  89  95  95  95  92  91  84  88  76  57  57  57  56  62  74  78  69  69  72  79  71  73  74  86  63  57  63  63 103 110 131 124 114 105 104 104 111 111 100 104 121 147 151 158 164 159 159 156 159 158
  96  79 103 101  92  96  97  64  72  55  63  64  83  89  95  76  84  75  95  86 102 108 102  96  89 110 106 123 131 139 137 140 136 141 146 146 129 123 117 114 128 149 152 154 159 157 157 163 159 156
  88  90 103  86  88  89  86  92  76  60  75  62  82  92  85  90  85  90  79  85 101 113 105 118 114 133 125 129 132 136 135 140 146 152 156 141 141 139 133 132 136 148 148 150 158 158 160 157 157 159
  83  86  75  91  94  84  91  89  76  75  79  81  76  82  95  99  97  85  95  97 100 114 107 119 122 130 131 136 133 141 149 148 159 158 151 144 146 145 146 140 140 142 154 158 156 160 161 159 157 152
 121  95  89  90  95  81  88  71  64  76  74  83  77  79  76  87  90  98  79  89 106 105 108 105 123 119 118 128 141 135 148 159 152 155 155 143 152 154 152 144 140 148 156 159 158 160 157 155 158 155
 164  95  81  84  81  95  76  73  77  79  86  89  78  84  74  84  94  78  86  79  74  84  85  92  80 104 108 125 132 140 147 151 149 146 153 146 151 157 157 156 151 149 152 156 160 154 157 158 151 156
 168 149  99  94  80  88  98  82  75  86  80  83  84  80  94  76  74  88  85  96  89  79  78  87  92  92 109 120 128 127 140 144 150 147 148 145 158 158 155 153 157 154 154 154 162 157 157 151 154 153
