P2
50 50
255
  33  36  34  38  30  27  20   9  29  33  31  38  34  30  36  47  57  64  84 112 129 141 140 141 135 135 139 140 136 116  88  69  79  63  49  48  47  36  33  28  23  35  42  39  36  46  52  48  49  40
  47  44  43  44  42  47  46  38  31  41  47  42  44  39  42  48  51  61  84  84 119 134 136 131 135 139 138 129 123  98  84  66  71  54  60  49  50  48  48  50  49  47  52  68  56  48  54  57  51  50
  46  51  50  54  56  61  58  79  60  60  54  55  53  50  53  51  66  57  80  81 110 119 127 127 137 137 130 126 112 108  89  68  70  97  70  67  71  75  66  92  93 120 136 124 100  69  93 101  70  53
  54  63  65  63  69  80  78  78  94  85  78  76  68  65  63  60  60  77  65  71  92 107 121 127 130 138 131 129 130 112 100 101 106 107  95 109 117 114 111 124 129 128 138 144 149 142 134 130 120 125
  64  66  70  89  80  96  97  94 102 104 103  89  89  77  73  75  79  70  78  80 113 120 112 124 125 132 133 138 112 108 112 127 125 131 126 113 101 106 115 119 128 134 135 146 149 152 152 148 151 143
  68  69  81  93  92  91 107  94 104  98 105 107  97  82  72  67  69  75  77  90  91 109 117 123 131 136 138 138 131 130 122 137 127 114 109 104  99  87 112 122 127 137 147 156 160 162 161 161 156 158
 102  89  94  92  72  54  60  78  78  74  75  76  54  89  85  71  61  61  74  92  92 104 103 119 126 135 137 142 129 135 138 126 114  92  91  81  77  57  59  63 102 110 120  93 114 149 163 161 161 163
 109  97  80  63  56  75  67  69  60  54  61  61  69  58  68  94  73  64  67  87  99  97 113 117 126 127 139 146 143 138 134 113  94  79  73  61  55  54  63  49  55  63  91 139 145 129 126 153 160 165
 104  81  62  61  65  51  37  13   2   0  10   8  45  71  66  68  69  67  57  61  91 103 118 121 119 138 147 150 150 139 122  86  75  63  62  54  49  17  12   3   3   5  21  42 102 149 141 135 161 164
  89  72  59  54  36  36  42  19   8  17  25  46  33  49  55  66  67  70  57  62  67  85 103 112 124 140 146 155 153 144 125  70  61  66  53  43  57  15  20  10  36 124  46  56  42  52 119 147 146 161
  79  67  50  22  35  50  79  17  20  14   2  17  31 125  50  43  77  66  58  60  79  85 107 106 120 137 145 154 148 142 127  61  61  64  48  67  97  17  13   2  11  21  63 145  68  28  44  76 132 157
  71  51  40  36  43  84 111  67  15   8  12  10 122 127  62  36  57  64  56  60  65  86  99 118 119 127 145 148 139 132 126  74 110  39  41  48  53  53   9   7  20  35 144 125  58  55  43  53  95 143
  62  58  50  47  51  50  52  54  51  55  53  54  61  63  61  54  48  59  55  58  64  81 100 110 116 131 136 139 137 126 110  91 102  64  60  62  61  73  72  62  88  71  58  84 114 107  67 106  99 127
  66  73  63  63  56  61  57  60  62  69  81  70  73  77  66  68  62  61  55  58  64  76 107 110 118 127 142 138 134 129 104 102 105  81  67  68  65  66  80  87 102 136 139 143 141 143 135 139 127 133
  73  71  79  86  87  89 113  99  97  84  86  86  79  78  68  59  57  59  64  68  75  87  83  96 116 125 136 144 141 132 117 105 112 101  66  60  65  64  91  93 114 128 137 141 148 149 140 138 128 135
  80  78  81  71  79  88 103  88  89  81  67  66  66  68  61  61  63  65  67  68  74  84  94 102 108 120 137 137 141 132 130 116 113 115 100  84  70  64  63  73  93 106 114 126 133 129 139 137 139 135
  93  82  89  79  87  72  72  82  74  76  69  68  66  67  73  80  70  76  69  79  79  88 101 104 113 130 135 142 142 142 139 131 124 120 112 103  90  86  92  86  93 111 112 118 132 124 138 145 145 146
 105  92  96  81  97  89  89  94  74  82  68  67  62  75  80  77  79  75  77  87  87  88 108 109 118 127 138 136 139 133 142 139 135 135 128 120 118  91  88  91 103 113 112 118 118 126 134 137 137 140
 106  99  96  99  99  93  87  78  71  71  68  76  78  87  85  82  81  75  97  89  86  88  96 107 127 137 136 141 143 138 145 140 135 135 136 131 120 113 110  98  97 104 113 113 120 122 130 135 141 142
 108  91  95  89  89  88  79  81  79  80  77  94  95 101  86  79  76  94  89  96  97 112 109 102 124 142 147 147 146 146 149 143 135 135 130 126 126 126 120 117 110  97 108 116 133 127 138 151 148 153
 112 112  99 105  97  92  87  92  93  88  98 107  97  90  83  83  81  93 101  99  99 109 119 118 126 134 142 148 146 145 146 146 145 141 130 129 134 127 125 126 126 122 118 130 136 142 145 152 152 158
 122 120 116 118 101  99  98  98 101 101 103 104 105  92  93  86  78  85  92  97 107 114 121 126 133 146 150 153 147 147 141 146 146 142 133 124 129 130 133 127 134 129 124 130 138 145 152 158 163 164
 119 127 117 123 118 115 115 106  95  95 101  91  96  81  81  76  88  75  97 103 113 120 128 129 144 153 154 160 153 147 143 135 141 145 131 123 124 130 134 133 128 131 141 139 146 148 159 161 158 165
 119 124 118 116 120 114 119 115 107 104 101  97  82  87  85  76  79  90 117 112 130 127 126 138 147 162 174 171 160 158 150 145 139 137 135 116 127 130 132 134 139 131 139 143 151 158 160 166 170 172
 123 118 118 124 116 112 109 100 112 114 103 106  90  86  64  77  97 114 116 126 114 126 137 135 143 160 168 169 179 169 167 162 158 145 143 111 122 126 131 138 139 139 144 148 152 162 162 167 169 170
 118 123 119 122 116 123 116 120 109 116 116 103  88  76  73  94 117 129 130 121 114 115 124 132 142 156 162 161 154 161 169 171 169 161 140 127 112 124 134 134 141 146 146 153 156 159 167 167 171 171
 124 127 124 126 118 121 115 111 123 122 116  97  91  75  96 106 128 125 129 125  97 109 114 126 134 150 156 145 139 140 153 167 171 171 150 141 108 125 131 137 141 147 151 152 164 164 169 169 173 175
 119 126 122 114 123 123 125 122 116 125 121 112  85  78  76 112 129 130 131  95  47  53  77 119 126 136 140  25   2  22 104 158 166 170 153 137 126 124 128 133 143 146 154 157 157 164 168 171 171 177
 119 118 126 121 120 124 129 129 130 121 122 109  77  88  68 106 127 133  74  32   4  42  49  93 123 144 121  78  27  17  42 112 149 160 153 134 133 134 127 127 140 150 152 157 160 163 167 168 171 176
 115 119 122 121 117 127 127 131 129 127 125 120  91  85  84  72  82 107  70  55  62  64  77  81 120 139 151 146 126 112  91  77 129 146 149 136 141 135 133 132 141 145 154 157 160 157 163 171 175 172
 111 121 118 125 121 126 116 121 132 129 128 120 110 102  80  67  60  60  54  76  73  83  64 102 119 133 139 141 144 145 142 125 118 131 139 142 142 141 141 134 146 148 152 157 158 162 167 171 174 173
 115 121 117 114 118 127 129 126 130 134 129 125 105 100  95  97  86  59  57  65  71  70  79 105 121 115 124 129 137 131 133 122 133 130 140 140 142 134 137 141 144 147 150 154 163 165 169 167 171 171
 107 109 109 108 118 118 124 124 131 129 124 116 103  99  92  80  84  78  73  68  66  73  75  92 106 112 107  99 121 131 133 122 124 133 142 139 143 146 142 142 142 144 152 157 159 166 166 167 169 166
 110 110 110 112 108 124 116 128 120 123 118  97  92  80  91  81  74  73  62  63  67  71  83 101  88  89  93  98 119 100  93 120 125 130 136 135 139 145 144 141 145 155 152 160 163 164 169 168 166 167
 113 118 107 103 116 114 121 119 128 114 112  85 102  81  78  76  63  59  57  71  60  68  99  93  80  87  89  96 113 114 108 112 109 119 131 133 141 147 143 147 148 154 156 157 162 165 166 168 167 167
 104 114  96 101 116 111 116 110 122 106 103  87  78  69  64  63  55  64  61  65  64  67  92 101  71  77  84  94 112 122 124 120 110 104 118 118 130 139 145 144 146 149 157 160 162 164 164 167 168 163
 103 103 105  96 117 114 102 105 104  93  95  84  65  62  63  64  67  73  67  64  68  79  84  70  70  75  95 108 119 128 126 138 137 114 125 114 116 131 130 139 150 147 159 162 162 164 167 164 163 167
 100 102 110 100 106 102  99  93 106  80  73  63  69  64  67  81  99  78  71  75  73  90 103 106  99 116 120 119 124 130 134 141 140 132 139 143 138 122 130 138 141 146 153 163 164 167 164 162 165 165
  98  97  95  98  89 110  94 104 110  89  78  63  66  66  75  96  88  68  59  70  68  71  71  89 104  92  91 115 120 124 124 120 130 141 143 150 146 140 138 143 145 147 153 164 159 164 167 165 163 162
  96 104  99  93  91 107  97  91  83  68  64  71  71  76  81  84  83  72  72  75  89  89  83  82  96  99 110 120 127 135 131 123 121 129 140 148 147 145 142 148 147 150 157 159 164 167 166 165 158 160
  92 106  95  99  96  97 105  82  96  93  68  72  77  72  90  74  63  64  66  68  75  70  73  82 110 103 114 106 128 114 124 126 123 123 118 127 133 125 133 138 142 147 151 160 159 164 160 164 154 159
  85  97  98  97  96 102  87  98 101  88  87  73  78  72  61  53  54  52  49  45  42  48  55  57  65  82  67  58  49  47  54  57  89  88  71  61  45  54 101 122 130 143 154 156 159 165 162 156 156 157
  89 100  92  96  99  92  86  81  99  94  73  61  81  38   0  22  38  47  50  47  46  45  47  42  41  36  48  47  49  47  52  64  72  69  67  56  50  78 110  95 120 140 152 161 158 164 151 152 156 155
  81  97  90  95  95  97  97  92  76  80  62  58  60  64  55  63  70  71  79  80  83  79  97  88  89  81  69  68  86  83 121 135 129 137 128 123 126 129 122 108 106 129 150 156 158 160 160 153 161 159
  95  84  89  98  94  89  97  89  88  78  60  55  60  74  92  90  67  96  77  82  92  99 110 124 105  99 108 115 129 133 142 138 138 145 145 152 143 131 137 127 135 139 149 152 157 161 158 162 162 157
  83  91  86  90  90  82 104  92  87  71  64  64  60  71  92  79  93  93  88  79  76  90 100 116 112 115 129 137 136 134 142 142 142 147 153 154 146 139 143 144 141 142 151 153 157 159 157 162 157 157
  94  97  80  81 103  92  98  79  89  75  79  77  81  69  83  92  94 102  91  85  85  98 102 117 115 126 129 134 134 142 139 146 156 153 158 154 148 151 151 149 145 148 148 157 159 161 154 157 157 160
  89  96  83  85  90  87  88  84  78  81  70  86  84  75  73  88  84  87  85  89  95  96 104 107  97 107 109 123 123 136 141 147 158 154 150 157 148 151 155 157 149 152 154 152 156 159 159 157 152 153
 113  97  86  78  77  79  83  79  75  89  77  77  84  75  79  75  71  85  98  87  86  94  84  90  91  92  98 110 116 131 136 142 146 149 150 157 152 156 153 160 157 154 157 160 160 156 158 151 151 153
 159  86  82  75  85  75  81  87  77  76  95  75  89  84  87  89  86  86  83  97  97  92  87  92  77  95 101 106 106 126 131 138 143 148 150 150 149 152 159 157 154 157 156 157 157 159 151 153 156 152
