P2
50 50
255
  37  25  29  18  26  25  25  37  23  26  29  29  46  46  53  54  71  95 115 128 127 133 123 122 127 128 124 112  97  78  71  61  53  48  39  48  38  36  36  31  31  33  26  36  36  42  51  55  51  48
  47  45  42  47  45  48  36  32  43  43  35  42  41  44  48  56  61  79  99 113 128 124 127 119 123 124 114 101  75  69  69  59  57  57  54  56  49  50  51  50  46  50  63  57  58  54  56  64  54  51
  50  49  53  59  60  65  62  59  57  55  54  51  48  50  52  66  70  63  92 110 117 115 129 129 125 115 102  93  72  70  63  67  69  60  65  62  69  63  68  80  96 114 107 108  83  68  88  71  67  55
  65  69  63  70  69  77  77  80  75  69  61  64  64  56  59  61  57  62  74 101 106 119 113 121 121 110 114 106  90  81  84  99  99  89  97  98  96 104  99 106 121 124 130 121 130 132 129 111 121 119
  70  67  77  75  88  80  88  91  98  80  77  68  69  68  61  69  65  64  92 109 110 106 113 124 123 124 119 117  99 107 104 111 124 124 102  92  97 103 108 121 122 123 134 137 138 145 143 145 143 143
  76  74  86  92  91  95  97  71  87  95  94  78  73  70  63  67  70  76  89  95 112 106 116 107 126 130 121 102 117 120 123 115 106 106  91  83  97 107 112 118 127 133 137 147 147 155 155 156 151 154
  92  99  98  66  50  61  74  76  70  69  63  57  72  72  66  59  57  74  74  89 100 110 109 124 121 130 124 125 124 119 114 103  84  78  78  90  70  56  61  77  97  99 100  82 121 148 157 156 159 159
 105  85  64  57  76  63  60  57  56  54  57  59  58  57  66  57  57  65  73  79  90 104 115 115 122 126 128 131 127 125 109  79  74  67  70  53  61  59  57  50  62  82 115 136 121 106 126 143 156 159
 103  70  58  63  48  24  43  16   2   5   1  20  55  55  57  63  56  57  65  78  94 111 112 122 132 130 137 137 130 107  65  70  65  62  53  55  47  18   2   6   5   8  27  55 123 141 112 132 150 157
  90  61  73  33  31  49  63   9  15  22  33  47  14  44  57  57  60  59  61  75  97 104 114 124 132 146 143 138 138  99  69  62  60  53  43  52  60  29  17  16  45  81  50  44  44  72 136 130 131 151
  88  66  40  24  56  84  92  27  23   6   8  18  31  51  45  61  58  59  62  73  94  96 108 118 134 144 148 142 134 108  60  59  63  46  57  82  94  35  20  12  14  25  42 101  58  31  52  88 133 146
  66  42  39  43  89 116 115  39  18   6   6  14  56  52  47  54  59  53  59  67  89  99 102 117 127 138 143 144 129 112  72  72  41  44  47  59  76  58  11  11  12  32  70 101  62  46  38  47  71 125
  57  50  50  52  49  53  54  54  53  55  53  64  62  57  53  51  56  56  59  64  99 105 101 117 125 136 135 129 123 102  70  69  57  57  61  60  65  65  57  59  64  62  70  68  72  72  80  72  77 107
  68  69  71  69  66  59  62  60  65  61  62  60  59  60  58  57  58  60  61  69  95 102 103 110 125 132 134 129 113  96  77  82  64  57  61  63  66  76  81  74 101 109 134 136 138 134 122 118 108 119
  84  76  70  89  96  92 102  82  74  71  59  57  58  55  60  59  58  60  66  76  84  95 114 121 134 135 134 121 109  98  98  99  78  57  57  60  72  83  83 113 108 122 128 131 142 139 137 130 126 125
  99  81  72  80  73  75  87  72  64  66  64  60  64  57  63  60  57  64  74  89  93  98 102 114 131 134 136 128 125 114 105 108 100  80  66  60  61  63  62  77  95 112 111 119 121 127 128 125 127 128
  85  92  88  71  91  71  75  67  74  65  65  57  65  62  62  65  69  82  89  95  87  93  99 122 133 136 134 140 132 126 120 114 111 103  90  85  71  70  72  66  84  92 100 113 124 119 127 130 129 136
  96  99  94  89  76  73  76  76  76  63  66  64  70  77  75  71  66  76  78  86 100 108 110 125 135 137 137 132 129 133 126 121 114 110 106  86  84  87  92  90  99  99 104 108 110 121 118 133 135 132
  98  99  89  91  85  79  78  69  72  69  78  74  86  83  78  81  78  80  87 102  95 109 121 128 137 133 129 129 134 137 124 127 117 117 111 104  95  80  78  90  92 102  96 106 114 108 122 128 125 133
 105  97  93  89  76  73  63  78  75  89  78  88  80  81  74  89  90  97  97 100  99 116 124 137 138 136 137 135 141 139 136 132 119 125 114 116 112 101  97 101  86  98 101 104 110 121 129 129 132 137
 117 100 106  97  89  80  74  76  85  88  92  93  96  81  87  85  93 100 111 110 112 132 133 137 139 140 142 139 143 138 134 131 125 116 117 116 122 108 106  98  99 107 102 120 122 125 135 134 141 146
 115 105 102  92  85  92  92  89  90 103  98  95  81  76  83  85  97 110 107 117 117 125 134 138 140 141 142 139 143 143 142 138 127 115 114 116 119 122 116 109 113 114 115 125 129 137 139 150 152 154
 119 114 116 109 103 100  95  87  95  89  95  84  87  84  88  95 101 102 112 115 117 132 140 145 145 144 144 143 136 137 141 135 125 120 113 119 120 119 125 117 107 114 125 127 135 136 145 151 159 159
 117 120 112 112 114  98 100  94  97  84  99  78  73  78  71  98 107 114 118 117 125 135 142 151 148 147 142 141 135 130 135 135 129 110 110 112 117 121 115 117 124 123 126 134 142 145 154 154 159 163
 121 108 114 112 108 108  99  94  99  92  89  95  76  81  89 115 112 122 119 126 131 138 152 165 165 163 151 148 142 138 138 133 134 104 106 114 113 120 125 127 126 124 132 139 148 151 154 159 163 167
 120 114 115 110 108 108 112 120 110 106  88  75  74  83 116 117 115 122 124 128 132 140 151 159 163 167 166 162 156 152 147 143 135 122 106 111 117 122 125 125 133 136 139 142 146 152 157 158 162 166
 121 117 112 115 104 104 104 103 107 104  82  70  81 113 118 117 115 108 112 117 123 137 142 151 159 150 153 155 163 170 163 154 138 128 110 102 107 127 133 130 137 133 138 145 147 157 161 165 164 167
 119 106 108 116 110 111 108 122 115  89  88  76  86 122 125 119 115 105  97 108 118 129 140 144 141 133 135 143 156 169 171 165 152 135 110 102 114 122 130 129 130 139 142 144 153 159 163 167 170 172
 122 112 114 119 112 115 113 109 107 104  77  80  91 117 121 123  77  32  32  64 109 120 129 135  54   3   3  70 141 158 165 165 149 134 127 106 103 117 125 128 130 139 143 151 155 156 161 167 167 171
 114 115 107 108 113 115 114 104 110  95  90  82  78 112 118  98  45  20  25  51  70 117 137 136  90  57  14  15  50 136 154 155 156 133 133 122 122 121 117 128 136 141 144 149 155 157 161 163 167 171
 110 121 111 114 112 115 116 111 111  99  90  94  74  71  95  78  56  61  64  61  72 111 128 134 138 133 110  96  64  94 127 136 143 136 135 128 128 115 124 127 132 136 138 146 146 159 160 167 172 172
 114 109 109 110 114 110 112 112 114 111 107  95  90  71  57  56  60  71  73  70  81 105 117 127 129 133 134 134 130 116 102 117 129 132 136 125 128 124 125 131 129 137 143 147 154 159 165 167 170 170
 119 108 112 114 119 112 119 118 110  92  97  89 101  91  77  62  64  65  65  72  98 107 109 110 120 127 128 114 125 119 115 121 132 135 136 133 126 120 124 135 135 136 142 147 152 159 162 165 164 169
 108 112 110 106 108 112 109 110 101  99 100  97  84  76  74  66  66  62  66  69  89 106 100  95 101 114 108 119 122 116 120 128 136 132 135 134 130 128 129 129 136 137 142 148 152 159 160 162 165 162
 112 112 101 106 104 117 109 108  99  80  86  79  74  75  69  72  61  58  62  70  78  84  79  85  81 104 108 102 105 113 118 127 131 134 132 134 135 134 132 132 137 138 146 152 156 158 159 162 163 163
 114 106 108 107 105 101 106  90  98  78  85  82  69  67  63  66  60  61  65  71  79  75  78  90  90 104 108 108 108 106 105 116 122 123 132 136 137 137 133 133 141 143 146 148 155 158 161 163 161 161
 112 102 112 104 104 105 106  93  82  92  74  67  62  58  64  65  67  70  72  74  83  78  68  67  83  98 114 115 110 102  94  99 113 114 110 132 133 132 135 132 133 142 147 148 155 158 158 159 163 162
 106 102 105 102 100  99  99 100  91  83  67  65  64  61  69  77  61  70  65  78  76  70  70  68  89  97 117 124 121 123 120 107 115 101 109 127 132 135 134 133 135 146 146 151 152 157 158 159 160 159
 108  97 103 107  99  97  97  84  78  71  67  65  77  85  76  72  76  72  97  94  73  70  94  93 100 111 125 122 132 133 132 126 129 132 122 117 122 129 128 125 129 140 147 155 152 156 158 158 160 161
 110 100  99 100 100  87  99  80  70  63  71  69  81  78  80  65  66  63  65  83  96  95  95  78  99 102 107 115 112 129 131 134 133 137 138 136 132 134 126 135 131 134 145 152 153 155 157 159 158 159
 102 100  92  97  98  83  82  71  68  72  69  72  86  80  60  69  66  74  74  74  66  77  82 106 108 114 120 122 114 111 117 127 136 142 140 139 138 137 143 132 129 135 150 151 156 152 159 158 149 156
  97  99  99  99  79  85  78  81  68  72  82  84  69  65  67  72  71  72  80  71  87  90  97 110 106 119 127 122 127 120 120 119 111 129 133 127 133 135 130 130 135 136 146 156 155 155 157 159 154 154
  88  91  95  85  84  95  72  82  72  70  71  60  52  54  54  54  56  59  57  64  62  68  83  90  93  90  93  73 109 100 108 106  83  62  60  57  88 112 127 121 132 139 142 148 155 156 158 146 150 150
  95  99  97 100 102  89  84  73  65  60  70  36  15  39  45  51  46  44  44  48  47  49  48  47  38  40  35  43  51  57  59  54  60  56  49  51  73  99  81 112 130 137 144 149 152 149 143 146 147 155
  95 102  94  91  93  87  93  62  55  54  58  62  64  66  76  67  71  85  65  67  60  77  70  65  58  61  71  83 106 125 119 108 110  91 100 112 110 111  93  93 120 139 143 147 152 154 155 152 154 155
  99  99  97  91  88  91  79  70  56  55  64  85  95  97  77  85  78  83  99  99 103  96  92 100 100 113 119 122 133 133 130 132 133 143 144 133 122 123 117 112 122 141 142 144 157 151 150 155 157 156
  95  88  96  87  88  84  77  61  56  61  73  70  97  95 103  84  78  74  87  85  92 107 109 110 124 124 125 128 133 134 136 139 146 147 143 133 129 134 124 130 135 141 148 146 152 152 158 147 151 151
  99  84  89  86  83  83  70  64  67  66  79  66  92  95 102 101  87  88  92 109 115 110 119 121 129 119 127 133 138 137 144 153 157 156 143 145 142 139 138 135 139 144 146 147 147 154 155 156 155 154
 147  91  95  84  86  83  69  73  72  75  88  88  72  83  88  90  96  78  89  97 100 105 107 115 110 114 125 135 140 141 156 156 151 152 145 137 146 147 148 142 142 145 152 154 148 154 151 152 153 147
 162 113  97  83  95  73  76  79  71  83  76  86  93  81  72  87  95  87  88  83  77  78  88  97  93 104 115 130 137 142 148 146 146 151 144 148 148 151 151 146 141 147 143 156 155 148 150 150 151 153
