P2
50 50
255
  44  37  28  35  23  28  23  20  30  28  31  24  35  41  46  51  61  73 106 111 132 130 135 126 131 134 129 129 110 102  85  82  61  51  46  46  46  34  32  26  31  31  33  38  47  50  53  53  49  45
  42  43  47  46  48  48  49  37  42  45  43  46  35  46  47  51  58  68  81 110 125 128 127 127 127 128 129 117  96  72  65  54  56  58  53  53  53  48  50  48  47  42  51  58  53  53  54  61  54  54
  52  50  53  55  61  64  64  69  62  53  54  54  51  51  49  53  61  71  71 103 106 122 124 126 130 126 120 102 104  82  76  67  81  71  61  62  61  67  68  78 104 111 113 115  78  68  64  74  61  55
  57  63  68  68  70  70  87  96  95  77  74  71  64  66  58  61  63  61  68  98 107 114 115 128 127 125 125 121  99  78  74  88 110  96  95 102 101 107 102 118 123 131 133 135 135 132 119 101 114 107
  67  68  72  93  85  98  91  96 104  99  94  82  67  67  67  68  69  68  64  87 111 113 117 122 130 126 129 114 108 107 120 120 120 125 117  96 100 104 117 119 120 126 137 142 145 143 146 142 145 136
  81  71  98  89  85  84  72  63  57  61  63  92  87  80  70  64  66  67  76  89 107 117 113 110 122 129 130 119 113 115 124 124 118 104  96  93  96 111 113 119 132 137 140 150 149 154 157 152 152 154
  93  94  94  75  53  60  71  77  79  87  68  62  56  86  73  64  62  68  72  78  99 110 115 115 121 131 138 132 128 126 120 113 101  87  81  86  65  59  62  81  96 111  95  74 138 150 158 157 158 159
  93  95  66  55  68  60  59  50  46  46  49  66  71  54  71  71  60  57  72  85  95 102 111 122 119 136 132 133 139 127 116  80  74  68  61  55  56  58  55  54  58  77 121 139 126 106 140 158 159 160
  92  75  58  76  54  40  30  19   6   3   3   1  40  66  57  64  63  61  62  71  82 108 112 116 129 136 143 145 139 124  90  72  69  56  53  54  47  17  16   8   6  14  17  56 125 144 114 139 155 161
  86  67  64  45  22  50  64  15  16  36  37 105  34  39  51  61  62  61  57  69  93  94 114 113 130 142 145 145 143 120  77  64  61  54  51  52  55  20  15  27  50 111  50  50  41  81 138 133 144 156
  72  65  31  25  50 100  92  41  20  12   3  12  43  72  48  53  68  65  57  68  85  96 109 111 124 138 145 150 142 127  77  64  67  44  55  81  79  17  23   7   7  33  70 104  52  28  50 100 139 155
  62  51  46  43  53  70  96  63  17   9   4  31  54  56  47  40  59  60  60  64  78  93 111 107 123 136 145 141 135 120  82  68  53  38  40  53  61  55  17  24  23  42 110  98  58  48  52  59  99 133
  66  59  55  54  50  51  50  54  58  64  72  65  77  60  56  59  59  58  56  62  82  96 106 110 124 131 137 136 130 110  91  93  59  67  68  69  61  66  68  72  77  80  75 102  92  81  83  72 105 126
  74  65  78  72  78  69  68  72  70  74  67  59  64  61  66  60  57  57  62  61  78 100 104 115 124 130 132 131 126 115  92  89  92  68  57  64  72  72  79  86 114 130 143 142 145 140 135 127 109 126
  81  72  69  77  82  93  91  97  81  77  66  67  60  59  60  56  60  56  61  74  80  89 105 110 120 130 138 132 126 105 102 101 104  69  58  61  63  81  84  99 114 119 129 137 139 136 135 135 122 125
  96  81  84  83  72  72  79  76  72  62  61  64  66  64  61  61  61  59  66  80  86  89 100 110 127 136 137 135 136 126 116 117 103 106  80  71  63  57  59  72  94 108 120 125 127 130 129 127 131 137
  90  84  92  85  79  81  76  80  76  74  67  67  61  62  69  69  68  71  76  84  92  97 107 114 124 132 136 131 138 133 128 119 115 111  94  92  96  88  90  91  98 102 108 114 120 126 130 137 143 137
  96  97  89  94  84  82  84  77  81  72  62  69  73  81  70  73  70  76  80  96  89  96 105 118 127 134 135 131 132 139 135 129 127 110 116 101  85  82  86  94 105 111 111 119 118 126 132 129 135 135
 106  98  94  82  76  87  81  71  77  80  80  83  87  78  79  68  84  89  87 107 100  94 113 125 134 139 139 139 132 138 142 133 130 130 126 117 108  98  98  89  93  98 106 111 120 119 129 130 135 140
 104 100 100  84  83  87  77  72  74  88  86  86  89  89  75  82  80  95  93  97 110 112 104 114 133 141 137 139 145 140 141 134 129 126 124 117 117 111  96 103 107 103 109 118 124 131 131 137 138 145
 117 108 100 102 100  87  95  84  81 102  99  93  90  81  80  82  94  97 106 107 114 120 126 127 138 143 144 143 143 143 143 139 132 123 122 125 120 120 121 117 107 110 120 120 130 134 139 144 151 150
 109 112 113 108 102  96  97  92  91  97 100  99  98  96  88  89  98  96  98 104 110 116 127 135 140 143 144 142 143 143 139 139 138 126 126 124 119 131 122 125 118 116 127 129 136 142 147 151 155 157
 125 125 118 110 105 114 100 104  96  94  96 102  93  77  80 102  87  96 113 112 119 121 132 137 143 146 145 144 144 133 131 139 144 124 117 124 126 119 126 123 122 129 132 135 138 145 148 152 155 162
 120 115 115 119 111 106 101 102  98  96 100  86  89  82  79  91  92 104 113 118 121 126 137 143 156 157 157 154 146 143 133 130 134 124 115 119 120 119 126 129 129 122 135 140 147 150 158 164 166 166
 116 114 115 116 110  95 107 102 119 102  97  95  79  78  79  99 111 119 121 115 125 130 136 146 160 169 176 165 156 151 145 145 140 136 115 114 121 123 129 128 128 134 138 144 153 153 160 164 164 169
 119 121 112 112 120 115 111 105 110 106  96  88  77  72  86 110 124 122 121 116 117 126 132 143 152 156 156 156 162 164 160 157 148 136 126 110 121 127 125 132 135 138 140 145 154 156 161 162 164 167
 122 117 122 111 119 108 108 108 123 112  98  84  71  89 110 120 127 120 104 107 108 117 135 143 145 152 145 139 150 161 170 171 157 143 130 110 110 120 124 131 134 139 145 149 152 159 163 166 170 171
 119 119 111 120 123 113 110 108 115 109  87  87  86  89 120 124 128 122 106  76  75 117 126 133 141 132  96 106 125 145 160 169 166 146 131 113 113 120 126 131 134 145 141 149 155 164 166 166 171 172
 119 112 111 103 119 117 119 119 111 114  96  83  74  77 106 120 115  51   3   5  24  59 115 132 138  66  44   0   5  59 145 158 161 147 135 126 117 125 122 131 136 139 150 150 154 161 164 167 171 177
 117 111 119 115 115 119 120 113 110 117 106  96  85  67  81  99 106  55  55  54  63  66 106 129 144 144 120  91  65  52 107 136 145 142 135 134 128 125 126 130 133 140 146 155 152 156 160 169 175 171
 113 119  99 118 120 120 110 124 122 119 115  96  94  83  70  57  62  60  84  68  80  78 104 125 132 136 139 138 133 127 105 118 126 131 130 136 131 127 125 134 131 140 143 150 155 161 165 166 167 171
 111 108 113 117 111 110 117 115 119 113 113 107 103  98  93  76  56  59  67  67  79  96 110 117 119 125 126 132 130 130 126 122 125 129 143 138 131 132 127 129 132 143 146 149 155 160 162 166 166 169
 110 109 119 106 112 113 119 124 114 111 112  93  94  80  85  78  67  63  62  69  68  92 106 112 109 113 113 120 124 121 121 125 131 135 139 139 138 136 132 132 137 142 144 150 157 161 160 165 161 164
 107 117 112 113 107 111 114 120 111 109  88  92  83  82  74  72  67  62  63  68  75  72  97  92  91  89  98 111 115 117 124 124 132 137 139 138 139 136 135 131 138 143 146 154 156 159 163 164 160 163
 110 111 100 104 113 113 112 110 108 103  94  89  77  72  69  61  58  58  58  61  72  76  82  78  93  96 111 114 102 108 119 115 120 131 132 135 143 141 137 137 141 145 151 151 157 158 160 164 162 165
 108 107 102 106 112  98 108 106  98  90  89  74  78  68  56  57  55  61  68  71  76  82  71  77  83  94  92 111 117 119 117 103 111 124 126 130 136 137 138 135 139 144 150 150 156 160 160 160 162 163
 106 115  97 103 106 102 104 100  85  88  84  67  61  62  65  75  66  67  69  72  79  74  71  64  74  83 100 110 119 127 130 122 110 108 113 113 132 136 138 137 139 144 149 153 156 158 160 160 162 158
 100 105  94 113 109  99  98 101  89  75  65  70  67  68  82  83  72  75  74  92 103  82  92  87  91 106 111 132 130 131 138 135 132 135 132 126 124 123 135 135 132 145 149 153 156 160 156 158 157 163
 102 104  97  98 100  93  90  91  72  70  69  66  77  74  81  87  71  64  67  68  75  89 108 100  94 111 105 114 110 122 130 136 139 138 142 141 138 135 139 132 136 136 145 154 155 159 157 156 157 158
  86 101  94  96 102  94  90  89  79  67  69  67  89  92  76  71  66  68  68  73  69  82  75  87  96 115 119 125 123 113 122 122 131 143 140 145 143 139 143 143 132 138 144 155 152 157 158 152 155 159
  84 102  96  88  94  82  74  90  94  78  74  77  79  78  69  67  65  77  71  64  78  73  99  98 111 109 124 126 130 129 127 122 121 125 132 129 128 135 132 139 139 139 149 148 154 156 160 157 150 158
  88 103  90  87  93  86  84 100  82  78  57  69  64  54  53  57  56  56  54  61  61  66  73  89 107  93  93  94  82 100  99 117 102  74  66  50  70  96 114 124 129 144 144 149 155 150 159 152 151 155
  81  87  94  95  95  97  80  94  75  66  61  65  43   7  45  47  50  47  44  48  38  44  44  49  49  47  40  40  52  56  62  61  63  57  54  51  61  98 101 102 126 140 147 150 155 151 149 144 155 156
  84  82  94  83  91  91  85  86  69  59  54  68  61  58  62  74  75  62  74  73  70  69  71  87  85  61  66  73  95 118 123 124 126 121 102 117 122 125 108 102 119 143 144 154 155 155 150 153 159 154
  86  88  94  92  84  87  78  81  72  58  57  62  90  89  85  84  78  88  74  86 100  94 109 104 102 107 117 123 130 131 132 136 136 139 146 144 129 116 121 129 129 140 145 144 151 155 145 157 150 150
  85 100  77  90  90  77  86  75  68  60  67  77  75  97  89  96  82  72  83  87  94 101 105 112 119 125 126 129 131 133 138 136 148 149 150 138 137 137 134 133 137 139 146 151 153 152 154 149 153 154
 101  87  85  88  79  84  89  80  69  67  76  78  70  91  91 103 101  87  86  82 100 100 112 115 128 125 130 136 137 143 145 149 155 158 152 145 144 144 145 140 136 145 150 151 150 147 156 155 157 148
 114  85  89  92  88  66  82  66  72  67  82  89  84  74  83  92  89  96 106  92  96  98 116 106 115 123 125 126 138 140 147 152 150 151 154 138 146 149 151 147 144 145 151 156 154 156 152 154 151 147
 162  85  96  77  79  82  80  84  78  75  78  81  75  82  78  79  84  95  94  80  92  89  87 100  98  89 109 122 131 135 143 147 146 146 146 146 149 150 155 152 148 147 152 155 155 149 149 146 152 146
 166 146  92  83  94  81  91  78  82  77  76  83  74  86  92  78  82  83  74  89  96  92  70  84  76  92 109 121 125 127 138 140 146 146 149 145 149 155 152 151 151 146 147 154 153 152 145 150 150 151
