P2
50 50
255
  43  43  37  35  35  23  30  14  37  43  38  42  27  34  50  50  60  59  88  88 125 137 138 139 134 130 142 138 134 131 107  95  81  68  56  49  43  49  36  39  39  36  34  38  41  50  49  57  51  44
  48  49  48  49  49  51  59  50  44  49  47  48  48  40  48  49  55  61  72  88 113 132 137 133 132 130 134 138 127 123  81  80  67  61  56  56  54  53  51  52  52  49  48  59  61  55  57  59  57  49
  61  59  54  56  71  71  79  85  72  74  61  57  58  54  53  51  55  69  84  88 105 118 130 130 133 134 134 131 119 117  88  79  69  79  86  65  73  68  83  75  94 120 130 125 123  82  73  76  89  57
  69  63  72  71  82  79  94 111 109 100  87  74  70  71  67  63  69  69  63  71  97 112 130 125 131 134 135 133 134 112 101  92  89 107 107 101 109 110 113 112 127 131 135 142 144 141 138 131 124 125
  72  80  76  79  86  89  99 105 117 111 114 104  95  85  71  68  71  74  69  85 103 124 123 119 128 135 132 135 128 125 115 122 126 129 124 124 108 105 108 125 127 133 135 143 146 150 150 149 146 142
  82  87  95  94  97  76  66  53  57  58  59  99  99  93  91  71  67  82  80  90 107 111 123 117 129 135 138 136 127 130 126 133 131 121 117 101 103 107 110 118 129 133 146 152 155 155 157 157 151 150
 103  99  89  69  56  62  78  80  83  72  78  74  57  71  85  87  63  70  71  85  97 104 113 123 129 132 142 143 137 133 132 131 122 101  89  83  87  57  60  62  93 113 117 106 101 144 154 157 158 162
  99  86  63  60  69  61  56  50  40  35  49  65  72  66  59  85  66  60  64  83  95  98 109 123 128 131 137 144 144 142 134 121 106  78  85  62  54  63  58  50  53  63  96 136 142 134 113 150 159 163
  82  61  60  63  50  33  26   4   4   6   4   5  37  66  69  63  76  68  61  64  78  94 113 125 125 136 147 147 147 138 133  98  77  71  60  54  52  25   2   3   8  11  27  40  74 141 149 133 154 164
  71  63  66  35  28  52  49  22  22  26  38 112  50  48  52  72  66  65  67  60  73  92 106 117 122 136 147 150 150 144 129  83  74  59  55  48  56  25  24   4  21 104  53  57  31  58 109 144 141 158
  73  53  27  29  58  92  81  21  23   8   4   6  96 119  55  44  89  66  63  63  71  81 101 113 121 138 145 156 147 137 125  82  68  60  50  64  79  20  18  16  10  37  58 142  76  42  43  84 141 152
  57  49  42  46  55  80  91  48  17  14  12  41  79  59  49  40  59  68  60  62  70  94 103 107 124 129 138 146 142 132 127  87  89  37  44  49  52  54  27   8  16  35 116  93  69  58  51  54 103 142
  57  57  56  57  54  52  55  54  62  64  75  79  86  69  73  63  61  62  60  61  68  86 111 113 121 123 139 139 135 126 114  94  98  62  69  68  71  68  68  68  95  94 106 105 120  94  90 117 100 132
  73  73  78  73  76  82  81  74  71  79  81  86  76  85  71  62  61  61  56  61  68  85  92 107 119 125 134 138 135 129 118 101 107  98  65  59  72  76  83  92 112 136 151 154 150 152 146 136 134 128
  74  73  75  87  80  95  94  99  99  89  92  74  74  68  68  61  67  63  60  63  78  85  90 111 102 124 134 142 134 130 120 106 117 109  67  62  62  69  86  97 119 126 131 139 139 142 138 139 132 134
  87  77  81  78  81  81  75  81  74  68  73  71  67  74  59  62  67  63  65  70  83  78  92 100 109 120 129 140 136 138 132 121 109 113 113  87  77  67  58  70  83 107 116 125 130 133 135 133 139 140
 101  85  82  96  91  87  83  89  85  84  67  78  76  62  71  70  73  75  72  85  89  78  99 107 103 117 134 138 139 140 138 135 127 121 124 109 101 109 106  95 101 115 115 125 127 130 137 143 148 144
  92  88  93  89  99  88  94  87  77  71  73  76  71  79  78  87  74  71  78  73  84  85 100 111 116 120 131 139 139 135 137 139 138 128 124 121 105  95 105  97  99 118 119 124 127 130 133 138 143 142
 105 102  96  96  83  86  90  81  73  81  83  76  82  80  92  79  80  77  87  85  90  99  97 102 122 125 139 140 142 135 142 144 141 134 130 132 125 120 103 113 106 117 109 124 126 128 134 140 144 143
 109  94 100 101  95 100  80  78  89  83  91  96  95  97  94  79  81  88  91 103 100 105  97 109 121 124 134 140 145 143 140 143 142 133 131 133 130 129 125 115 117 106 113 122 126 131 137 143 146 150
 108 117 113 102 101  99  99  85  93  94 101 102  99 105  87  87  83  94 103  99 100 100 118 117 118 132 137 140 150 147 146 147 146 139 132 128 130 130 129 129 116 122 127 128 137 133 145 147 150 156
 115 113 109 115 107 103 101  99 110 104  98 113 104 105 106  89  95  88  97  97 107 114 119 117 127 132 143 148 148 146 148 149 149 145 139 128 128 130 132 132 131 127 125 127 133 143 148 151 162 158
 117 123 124 119 114 110 119 112  95 109  93  99  99  94  87  83  95  84  85 104 104 112 122 120 125 137 140 151 157 148 147 144 138 145 133 130 130 137 133 133 130 126 137 138 144 148 157 162 151 161
 119 121 119 122 120 124 114 102 109 108 107 109  94  93  88  77  78  91  96 109 103 119 122 127 131 145 157 155 158 154 154 146 134 137 138 122 126 127 131 133 134 136 132 143 147 149 159 163 165 171
 125 121 114 122 114 119 110 104 115 117 107 105  92  88  78  83  85  90 107 111 123 122 128 128 138 143 164 173 175 171 159 156 151 147 140 129 125 125 130 137 139 139 140 142 148 156 161 164 164 167
 121 121 122 112 115 119 120 119 118 115 114  99  91  78  70  74 109 116 113 121 117 122 124 132 133 146 155 161 162 164 171 167 164 159 147 140 119 114 128 134 141 138 147 150 155 152 164 167 166 167
 121 122 121 119 116 121 127 122 119 125 122 103  90  88  86  87 113 121 126 112 117 106 105 123 132 139 150 152 154 155 154 163 173 171 160 144 129 121 124 132 138 146 142 150 158 161 164 167 167 174
 115 119 122 125 119 122 128 124 124 128 121 103  91  84  80  96 124 127 133 131 115 109 107 108 129 135 147 149 151 126 137 154 166 171 166 144 135 123 125 131 135 138 144 152 156 157 163 168 170 175
 116 119 119 119 124 122 124 124 121 125 125 103  89  88  74  96 122 128 130  73  19   5  21  53 117 130 142  91   1   2  17  95 150 162 162 147 135 130 122 130 137 139 147 152 158 162 164 169 167 172
 117 116 112 112 119 119 128 130 128 125 115 107  93  93  77  90 102 117 102  55  47  52  61  72 107 133 147 134 109  61  58  56 111 148 152 145 142 139 134 131 135 144 148 148 159 160 159 164 171 173
 119 120 117 120 119 125 122 128 126 129 127 114 105  98  84  70  66  75  74  66  76  85  83  82 106 127 143 144 145 146 139 115 115 126 138 142 137 142 140 131 134 140 144 149 152 160 161 165 168 170
 115 114 117 118 121 119 119 122 119 130 128 120 115 106  96  97  71  61  60  70  77  74  80  90 114 127 132 138 141 140 142 138 133 131 135 144 149 148 137 138 138 144 143 150 154 160 163 164 167 167
 113 116 119 114 120 120 124 125 129 128 124 111 111 103  94  92  74  67  67  71  67  63  87  96 127 119 125 126 132 134 132 135 131 134 141 146 145 144 142 138 140 140 146 149 154 156 163 164 164 164
 111 113 111 116 107 122 109 125 129 122 120  97  92  82  88  78  80  73  73  64  66  74  76  81 103 103 100  93 112 125 128 134 134 134 138 144 143 145 146 140 138 143 150 150 154 158 162 162 162 164
 108 109 104 108 116 117 110 122 128 117 110  95 101  96  81  70  72  65  61  60  66  71  79  91  95 104 102 101 103 125 119 113 124 127 130 136 139 141 144 145 141 144 151 154 153 157 162 163 164 164
 109 104  87 115 111 118 113 125 113 112 105  89  94  81  71  64  60  61  58  63  69  65  79  95  97  96  92 100 105 126 126 126 122 115 123 132 131 141 145 145 145 145 147 155 155 157 160 161 161 163
 107 105  99 107 110 116 104 110 108 103  92  81  73  71  67  61  65  65  62  63  65  78  96  92  86  74  75 101 101 115 131 129 137 128 115 116 122 132 137 137 142 144 148 154 156 159 161 158 161 162
 101 107  84 103  91 105 103 102  99  99  88  83  76  67  64  75  70  70  73  70  76  70  90  96  72  76  86 116 120 135 135 135 140 140 133 140 138 132 119 136 136 135 144 151 156 155 157 161 159 159
 101 102 101 101 103 102  94  96 109  84  76  71  64  73  79  83  85  90  70  69  76  73  97 111 107 116 121 119 114 125 128 135 144 143 140 141 146 147 135 143 144 143 142 147 159 157 156 161 156 157
  95 100  89  95  97 105  87  97  96  75  71  68  71  73  90  92  75  79  66  66  71  70  75  80  82  95 108 113 117 126 129 124 129 128 137 148 146 149 148 144 145 142 139 148 156 160 161 158 152 157
  90  95  86  93 100  98  82  90  86  82  71  80  81  81  88  91  68  72  77  81  78  81  84  93  98  99 117 122 128 135 138 134 124 130 128 133 139 137 139 143 144 145 142 148 155 155 157 160 154 151
  92  89  88  96  94  94  88  91  96  91  73  72  72  70  72  63  64  59  67  65  78  73  88  70  78  99 117 106 116 118 124 125 119 122 114  90  69  65 103 129 129 132 146 152 155 156 158 156 150 156
  80  81  89  95  96  87  85  81  89  86  75  74  78  54  33  37  37  43  43  41  21  36  47  55  53  59  61  52  44   6  39  54  55  61  61  58  52  58 114 123 109 129 145 149 155 158 151 150 150 153
  81  85  97  87  82  91  92  87  94 104  63  58  68  57  49  57  55  61  64  61  65  65  61  59  66  68  67  61  64  62  73 108 129 130 124 122 119 132 131 121 118 123 142 149 151 157 156 157 153 152
  76  86  87  80  94  89  94  94  85  78  54  59  65  67  84  80  78  74  97  91  77  91 100 111  94 106 106  97 118 122 131 138 138 139 145 144 150 143 135 132 133 132 143 149 152 155 157 152 158 156
  79  84  97  77  83  94  89  85  77  74  60  63  62  72  87  87  93  88  89  86  77  92 101 112 124 119 123 131 134 133 139 140 147 144 149 155 150 144 143 146 145 141 145 150 150 152 149 156 155 152
  91  74  82  95  90  87  89  92  99  76  66  67  77  60  81 103  97  92  92  87  93  96 105 103 122 122 128 133 138 140 147 146 149 154 157 162 152 149 143 151 148 146 148 157 156 156 154 154 158 155
  92  85  80  71  76  96  84  82  73  80  78  76  89  89  80  82  99  91 104 100 110  94 110 109 122 124 125 131 132 131 142 150 150 158 156 156 155 148 155 152 153 150 147 150 157 152 155 154 154 154
  92  88  89  75  79  94  75  73  82  82  75  79  87  88  81  82  78  77 103  93 105  91 101 106  94 104 105 110 118 129 135 146 148 154 156 152 157 151 155 154 157 154 153 151 158 152 151 152 150 153
  94  88  94  77  76  93  76  87  87  83  80  78  86  78  89  78  76  78  92 101 103 107  90 101  94 108 108 111 123 127 131 139 143 148 152 154 148 151 158 156 152 153 153 151 154 156 154 154 156 152
