P2
50 50
255
  29  24  24  27  29  30  26  27  24  29  18  26  20  15  38  34  49  79  82  73 101 117 125 122 122 117 122 123 121 118  94 103  93  66  55  45  37  43  25  35  32  34  36  38  43  55  60  69  43  44
  39  29  28  32  31  23  23  22  17  23  31  22  29  27  29  25  33  47  68  78  93 104 111 117 114 111 115 116 103 106  70  93  74  51  45  43  42  30  28  22  31  29  27  50  49  59  52  54  46  52
  32  44  39  39  33  34  40  47  43  38  33  37  33  32  32  36  40  52  52  79  78  88 113 102 105 110 113 112  96  84  43  77  62  56  60  40  45  42  43  38  52  60  67  68  69  53  55  69  62  53
  38  46  48  46  49  51  53  48  52  51  49  47  47  53  43  46  48  44  54  63  68  79  92 100 101 109 106  97  96  82  61  58  56  70  60  59  66  65  73  67  77  81  96  99  95  90  84  77  87  84
  49  53  48  52  56  58  58  64  58  64  58  52  50  49  52  52  55  48  54  56  57  77  91  91  94 103 100  98  90  86  67  74  71  81  74  72  62  69  90 110 125 132 124 123 119 112 108 105 107 100
  52  57  59  56  61  72  79  89  87  93  85  75  53  51  54  51  52  52  54  61  55  75  82  93  85 100  99  98  85  70  74  79  77  75  65  65  73  86 106 130 129 130 138 140 133 132 124 117 115 116
  69  62  64  67  72  64  41  45  97 105  98  69  43  57  47  48  53  50  56  58  65  67  76  89  91  98  95 100  92  87  75  81  72  63  62  60  82  49  79 123 144 149 139  79  60 119 123 122 121 122
  71  70  66  57  42  59  85  94  87  74  95  84  77  55  33  51  52  45  48  55  58  70  80  88 102 102 110 107  95  92  87  74  62  59  56  69  52  80  79  65  53  89 100 122 132  95  81 111 121 121
  69  67  56  37  69  55  53  32   5   6   3   3  32  53  52  40  50  47  44  49  56  71  87  97 109 121 120 125 113 100  84  72  56  53  65  53  43   9   3   5   8   8  26  40  86 115 118 103 119 120
  67  58  45  64  56  25  38   3   3   1   1   2   4  28  37  51  50  45  44  45  53  73  88 104 118 126 139 136 127 112  90  64  56  58  67  23  37   9  10   2   7  18  38  38  39  49 105 118 111 122
  61  53  55  28  10  25  55  10  15   2   1  16   4  47  32  18  64  57  48  50  57  79  94 110 134 147 150 148 137 115 101  81  68  85  25  43  54  12  14   3  22  33  95  91  44  39  33  66 100 116
  56  41  29  11  32  47  64  58  10  15   7   5  57  71  39  26  18  92  71  56  69  85 105 122 140 154 155 147 140 123 113 111  96  19  38  63  55  44   9  17  20  38  82  76  67  65  43  49  79  98
  50  43  30  31  31  31  41  49  52  60  77  95  85 134 119 115  96  83  93  79  84  88 110 130 144 153 157 149 141 131 122 126 108 110 103  91  86  71  92  58  88  82  73  74  97  93  92 107 108 105
  56  63  55  53  49  51  52  53  57  70  62  80  73  96  85  93 102  85  94  87  87  94 110 127 139 154 155 151 144 135 130 134 133  95  73  67  71  83  74  76  82 100 104 113 117 118 125 119 126 129
  72  72  68  69  70  73  80  83  80  78  81  77  80  77  81  91  94 100  98  93  95 103 113 128 141 152 155 152 150 141 133 129 139 123  99  61  54  60  65  75  78  87  96  98 100 102 109 118 126 135
  80  76  69  65  60  74  63  67  69  68  58  61  68  81  89  95 106 103 100  99 100 106 111 124 138 146 153 152 147 143 144 140 136 140 137 118  88  59  59  56  55  67  74  87  95 109 118 133 137 139
  83  79  78  74  70  68  63  64  68  73  73  84  90 106 105 113 108 106  98  98 108 104 110 130 142 152 153 153 148 144 147 142 140 144 146 142 140 121 106 105  98 112 103 113 124 129 135 139 144 144
  93  90  89  85  89  83  88  93  95  92  99 107 111 110 119 117 110 105 102 103  98 107 113 128 143 155 155 156 148 144 141 145 142 144 149 148 149 144 142 139 137 139 142 144 146 147 144 149 147 150
  96  98  97  96 102  97 105 107 111 114 117 122 123 125 124 116 104  98  97  98  99 107 114 127 140 153 155 157 155 151 144 144 143 145 147 150 157 153 148 148 149 147 151 150 150 150 150 153 152 153
 104 103 104 110 107 110 118 113 117 120 127 128 128 130 121 116  96  95  96  95 102 108 117 133 138 149 155 157 157 154 152 149 142 133 142 148 154 155 155 153 152 151 154 151 156 155 155 157 156 154
 107 110 114 111 118 118 116 120 127 124 127 128 130 128 130 112  99  92  96  98  98 108 117 137 139 149 160 159 155 155 148 148 145 139 139 144 147 150 153 158 158 155 155 155 157 157 155 157 157 153
 108 108 110 112 114 119 123 121 124 125 131 129 137 131 123 114  99  87  94 102 104 109 121 126 139 152 166 162 158 154 153 147 146 142 137 135 141 147 149 151 155 154 158 155 155 157 155 154 150 153
 102 104 110 107 114 114 118 127 127 121 131 130 127 127 117 108  90  88  95 109 112 112 125 121 135 142 159 162 159 158 155 150 148 144 131 126 131 140 146 145 148 153 146 153 151 153 154 152 154 155
  95 102 103 108 109 111 121 120 121 127 118 127 130 123 114 103  92  89 110 119 119 113 121 116 122 130 144 150 157 158 156 157 152 151 142 120 121 134 137 145 144 145 148 153 150 154 150 152 150 152
  93  93  98 105 112 112 116 119 121 127 133 129 128 122 111  95  88  98 115 123 123 104 102 108 110 117 122 137 142 142 143 155 158 159 148 133 108 125 138 138 136 143 144 148 145 151 150 151 150 152
  92  98  99 103 105 107 117 118 121 122 127 127 123 116 109 102  82 103 110 118 113  90  87  86  96 103 113 118 119 120 125 139 148 157 155 137 114 110 122 130 133 135 143 139 140 143 147 150 150 150
  94  98 102  96 103 104 111 111 114 119 130 122 123 117 109  84  81  95 102  98  91  86  75  80  83  91  97 101 105  99 100 106 133 144 150 138 129 113 114 125 127 132 132 140 140 143 142 147 142 148
  92  94  93  99  99 107 107 109 113 117 122 122 119 112 109  84  82  89  92  95  88  83  72  75  79  85  89  92  64   5   2  74 109 129 137 130 142 126 115 118 124 123 134 133 136 137 140 141 142 144
  86  88  90  95  94 100 105 107 114 114 118 119 113 109 101  65  76  82  84  72   1   1   5  27  44  84  89 100  46   4   6  18  71  96 111 118 139 137 128 120 118 114 126 126 134 136 138 136 142 144
  82  80  84  85  92  92  96 107 108 108 109 116 109 102  90  69  59  70  70  46  29  37  45  50  54  75  81  80  61  53  47  42  55  79  92 125 144 141 132 120 119 118 124 129 130 123 133 137 137 140
  81  82  84  86  90  90  93  98  96 107 110 108 104  99  95  68  52  38  36  37  44  47  46  48  50  59  67  73  66  81  69  67  59  62  83 140 146 144 138 132 121 124 124 126 133 135 134 132 137 136
  79  77  82  84  84  92  95  92  98 105 107 112 103  97  87  78  53  47  39  38  41  44  45  46  52  56  70  89 105 107 104  87  76 108 127 143 144 143 140 134 133 126 130 130 131 133 135 133 135 131
  76  78  77  82  84  84  88  88  99 105 108 107 104  93  86  79  62  51  46  46  54  50  52  53  66  80  85  95 104 118 120 122 118 124 141 142 143 143 143 142 137 136 137 128 130 134 130 131 133 133
  74  76  77  78  82  82  86  92 102 102 103 104  94  94  87  80  76  64  67  61  64  71  79  78  85  85  93 100 113 124 129 122 122 129 136 140 141 145 144 143 137 135 138 134 133 133 133 136 132 131
  78  76  80  75  77  83  86  83  94 101 100 102  95  92  87  81  71  78  64  71  72  77  94  95  99  94  95 107 111 130 134 129 132 124 129 135 134 135 139 140 137 135 136 137 135 133 133 136 131 131
  73  76  77  69  78  80  87  85  91  99  83  90  87  87  82  78  72  75  72  70  90  99 112 127 113 109 100 111 123 134 135 129 133 125 117 116 121 125 126 123 129 131 133 138 138 130 129 130 131 129
  73  74  72  73  76  80  84  82  88  93  88  93  85  75  71  68  81  79  89  93  99 107 119 133 131 127 117 133 137 135 135 135 141 144 123 124 119 114 116 115 122 123 127 134 134 131 129 130 126 128
  69  72  76  68  70  75  79  83  84  85  79  83  73  78  65  70  81  94  95  81  70  66  71 102 123 126 136 128 108  91  96  99 118 130 129 119 123 122 113 116 118 122 118 131 136 133 126 131 124 122
  71  65  65  71  77  79  79  82  80  81  74  70  57  64  68  70  83  81  67  56  55  59  57  59  67  69  65  80  87  81  90  89  87  92  94 122 124 118 112 112 119 116 118 123 131 130 133 126 120 124
  68  69  67  68  67  76  73  76  76  81  78  67  65  64  57  69  58  56  54  52  56  65  61  61  61  59  68  71  81  83  89  85  76  75  82  87 105  92  75  94 107 104 114 117 131 130 124 127 118 117
  68  67  69  67  65  69  73  72  67  69  73  54  64  59  54  54  52  48  42  48  44  50  48  51  46  51  58  59  54  55  61  57  62  69  68  61  62  58  39  64  82  99 118 118 124 124 123 122 114 114
  63  61  68  65  69  71  76  69  68  72  62  59  52  49  32  27  29  24  29  24  20  12  15  22  18  15  22  26  24  28  25  22  29  32  40  28  26  16  39  50  55  83 108 116 122 122 121 117 111 117
  68  63  56  67  67  65  69  69  69  69  61  47  46  36   9   9  13  32  45  72  78 102  86 103  93 104 103 106  93 102 101 102 144 141 138 131 129 120 113 104  80  72  96 116 117 121 122 116 121 118
  61  64  60  69  65  68  68  68  73  70  64  45  39  55  54  67  72  93  87 104  99 104 111 135 137 144 128 140 154 148 153 144 138 133 137 141 139 140 122 117 107 100 105 113 112 117 119 121 121 117
  65  56  64  64  69  65  68  65  73  72  65  58  53  61  63  78  85  90  89  87  91  88  95 106 116 123 131 130 137 132 123 119 128 136 140 136 136 131 128 127 118 117 111 111 118 112 117 121 114 114
  69  65  62  65  61  62  62  65  70  75  70  70  66  72  62  72  74  80  85  87  80  82  80  89  90 101 104 106 105 112 113 118 121 122 126 130 135 128 136 133 132 121 113 117 118 121 117 114 114 112
  74  65  64  55  62  59  65  63  66  73  76  74  75  78  79  72  67  70  60  69  68  67  66  75  75  79  78  81  82  78  79  89  96 109 119 123 127 128 136 134 135 122 117 117 114 117 112 115 113 113
  72  67  67  63  61  64  60  62  64  64  71  73  78  74  70  70  65  65  68  63  58  60  56  58  55  59  64  62  57  69  78  85  93 104 110 120 124 128 135 131 133 127 117 119 116 118 112 110 110 106
  70  72  63  66  64  60  64  57  61  68  71  75  72  76  73  72  66  71  66  60  70  58  53  54  55  52  55  53  58  67  81  91  94 106 114 124 124 126 130 134 128 124 123 119 121 112 112 111 112 109
  89  66  63  61  58  59  59  58  65  65  67  73  68  74  76  71  68  69  70  73  66  69  68  62  68  56  60  78  78  81  94 103 109 109 117 123 126 127 133 131 127 127 123 119 118 112 113 112 110 113
