P2
50 50
255
  16  42  36  30  30  28  22  17  22  23  26  23  25  25  27  26  38  83  71  76  88 108 115 119 118 114 117 117 115 111 102  87  86  83  45  43  33  40  31  39  32  26  33  37  41  42  48  53  62  52
  42  33  40  35  36  35  35  39  31  29  26  31  31  35  30  32  35  49  69  83  63  84 108 113 108 105 113 110 103  93  84  80  73  69  59  55  48  35  34  28  33  30  33  42  67  52  57  60  53  42
  44  41  42  44  42  48  50  50  50  51  49  44  43  46  35  40  44  64  51  65  86  82  89  98 105 109 106 104  95  83  86  75  67  54  57  45  49  42  47  42  58  63  68  72  66  55  59  72  43  56
  53  52  51  54  51  55  57  56  55  54  53  47  49  52  52  49  43  47  55  58  60  75  91  95  91 104 106 101  97  79  84  75  61  69  71  66  63  64  68  71  86  95  97  98  96  91  91  78  84  83
  56  55  57  54  62  71  75  83  94  86  77  60  51  51  55  54  52  55  54  58  60  77  88  92  88  95  99  96  90  81  77  82  77  77  76  71  66  73  83 104 127 132 133 128 124 119 112 106 109  99
  64  58  62  68  73  76  69  49  36  32  41  66  58  52  52  50  49  56  55  56  64  74  82  88  95  96  96  99  88  83  77  79  78  71  68  65  66  80 104 107 115 120 131 134 138 132 125 122 114 114
  70  66  73  60  42  46  82  98 105 107 101  87  51  37  52  51  47  51  53  56  54  70  80  89  90  98 100  98  91  85  82  83  73  60  57  60  71  51  69 117 139 145 142 133  63  94 118 121 119 120
  68  60  58  39  74  74  65  46  38  27  41  71  61  56  30  52  51  49  43  54  61  71  82  90 104 101 109 106 101  94  82  72  62  57  54  65  51  68  79  63  41  72  81 112 130 127  84 102 115 122
  69  60  39  65  52  37  26   5   1   1   2   2   7  53  50  39  49  46  50  47  57  70  89  98 110 122 124 121 117 104  90  75  56  56  62  51  43   4   7   5   3   6  19  35  73 103 124  89 113 124
  58  47  57  39  18  26  42   4   2   1   1  15   5  38  25  46  53  52  47  47  60  79  90 110 119 135 140 139 133 110  98  72  56  63  57  27  44  14   7   1   1  22  15  48  45  35  75 114 113 118
  60  43  27  17  25  54  54   8  12   7  15   9  43  55  35  19  79  69  52  54  63  84  99 114 135 149 151 148 138 119 106  88  70  85  15  40  45  21  14  11  13  26  25  90  69  39  29  50  89 114
  45  35  23  26  28  34  57  49  12  11   3  33  67  64  45  19  14  93  68  66  76  90 109 123 141 155 155 149 140 127 113 113  95  22  34  51  55  60  22  14  19  18  87  86  63  53  40  44  58  80
  46  45  41  47  44  39  50  47  62  71  79  76  93 103 109 107  93  91  83  78  85  94 110 129 143 152 155 149 141 134 125 130 106 114  98  98  84  70  64  80  87  95  77  76  89  79 102  93  88 100
  71  69  65  60  65  71  59  73  70  68  78  76  79  60  78  92  99  91  96  90  87  95 110 125 141 153 154 150 143 136 129 132 132 109  85  63  73  78  71  72  80  84  98 108 117 111 119 120 121 118
  78  71  65  62  66  67  65  76  69  68  58  63  72  82  90  95  95 100  95  96  98 105 109 125 141 149 156 150 145 139 137 130 138 129  96  56  54  54  61  72  74  80  88  89 103 103 101 113 122 127
  80  74  65  68  62  59  55  57  60  56  63  82  87  93 103 104 105 102 101  94 103 106 115 128 139 146 150 151 146 143 141 138 139 138 134 129  88  55  55  51  59  68  75  83  91 101 109 121 132 136
  89  83  82  79  78  81  81  82  76  93  90  95 102 110 111 115 109 101  99 103 105 104 111 130 141 152 153 153 147 142 143 142 141 142 144 139 132 115 103 100  95  88 101  99 113 123 133 135 139 141
  95  93  91  90  91  97  97  98 103 100 109 112 117 120 122 106 106 104  96 101 101 108 119 131 141 150 155 156 149 145 138 144 141 142 147 147 148 141 137 129 141 138 137 140 141 144 143 143 147 149
  96  99  98 103 101 100 112 115 116 119 122 126 125 125 119 112  99  96  99  99  97 106 118 124 140 153 155 156 153 148 143 143 141 142 146 152 155 151 148 146 149 146 149 150 149 148 148 150 151 152
 106 105 108 110 109 114 115 124 120 125 127 127 131 129 118 105  97  95  94  99  99 111 118 135 139 150 156 156 154 153 150 147 141 135 141 149 151 152 153 153 149 149 150 152 153 153 154 153 155 151
 106 112 113 114 115 122 114 121 122 126 130 130 130 127 117 106  95  87  94 102 103 113 122 137 140 152 159 155 155 154 147 148 141 139 138 143 146 149 154 155 154 153 155 154 155 154 155 156 152 152
 103 113 114 114 114 116 118 124 124 127 130 134 130 129 116 109  91  88  95  98  98 111 122 130 138 155 166 158 156 153 152 148 144 139 136 139 138 146 149 149 155 150 155 150 155 155 156 152 153 153
 100 105 110 113 114 113 119 128 123 130 133 124 134 116 111 103  87  94  97 109 115 113 121 125 133 150 166 161 156 156 154 151 147 143 128 125 132 141 142 144 147 153 151 149 153 151 152 151 150 149
  96  95 102 103 112 115 120 120 119 124 130 131 124 119 106  94  88  99 111 120 117 115 117 118 124 131 143 151 157 157 155 154 150 149 139 115 123 134 136 145 147 147 151 152 150 152 151 150 150 152
 101 100 104 110 106 117 113 116 122 131 124 130 123 114 103  91  87 105 118 118 112 108 105 106 112 122 133 136 143 144 152 155 155 155 144 134 108 125 131 135 141 141 145 149 145 149 150 149 151 149
  93  98 103 105 106 114 114 116 122 117 125 126 119 112 103  89  93 109 114 113 101  93  89  90  99 104 110 120 123 125 130 141 151 156 149 138 116 110 122 130 134 138 142 141 141 145 147 149 148 151
  95 100 100  96 101 109 109 112 113 123 127 124 116 112 103  86  87  97 102  99  90  81  78  79  86  93 105 107 104 104 106 115 138 148 150 133 125 112 115 123 131 132 135 136 138 140 143 145 143 149
  89  91  94  95 100 104 109 112 118 118 123 119 107 108  95  70  78  88  91  93  83  80  74  71  83  88  93  96  90  50  55  99 113 136 143 131 139 122 109 114 120 123 132 136 136 139 138 141 145 146
  83  91  94  94  94 100 106 113 114 114 120 119 112 103  91  60  79  88  86  81   2   0  13  29  83  83  90  68  28   1   1  15  84 106 117 126 139 135 123 122 118 120 128 127 134 136 138 138 140 144
  83  82  88  91  90  95 103 103 108 109 110 110 106 100  82  53  66  74  70  34  27  36  41  49  61  79  88  76  54  43  36  39  63  90  99 128 139 139 134 118 123 115 125 127 131 126 124 138 139 141
  82  83  83  88  88  93  93  95  97 101 110 107 104  93  81  54  42  38  50  41  44  49  45  44  52  66  71  75  70  65  60  53  58  68  81 141 149 144 135 123 119 122 122 127 130 139 134 135 135 140
  81  80  79  85  87  90  91  96  99 101 109 101  96  91  82  63  47  44  39  41  46  44  42  43  50  62  70  87  91  92  73  65  64  83 130 145 144 143 136 136 123 131 127 125 127 132 133 133 135 133
  79  72  78  82  83  85  92  98 103 105 106 102  97  87  86  68  53  51  46  47  51  49  49  56  72  76  83  98 112 114 118 112 109 125 139 141 139 141 142 140 136 131 134 128 130 131 132 132 133 131
  74  80  78  82  82  86  89  96 103 102 103  98  98  90  86  78  61  57  65  56  58  72  74  81  86  88  93 102 113 124 124 122 118 132 135 142 141 143 142 142 141 136 133 132 132 133 130 132 132 132
  76  78  74  78  84  90  88  91 104 101  98  93  90  89  82  74  70  72  62  64  77  80  90  91  91  91  96 107 122 128 129 127 122 128 132 137 140 142 146 141 138 135 135 132 133 137 132 131 131 132
  75  78  71  77  81  79  86  90  95  95  90  89  88  83  79  71  73  65  77  75  89  93 105 111 105 100 100 109 118 135 133 133 127 114 119 127 123 127 133 133 135 134 132 134 135 134 134 128 130 130
  70  71  73  77  79  82  84  89  87  87  91  87  75  60  74  74  79  79  89  91 104 108 129 132 120 116 115 123 131 139 139 134 137 132 114 113 118 117 121 123 124 125 130 135 138 131 131 130 130 127
  71  73  69  75  77  80  80  82  89  87  83  73  76  70  68  81  88  98  85  69  74  79  99 129 134 128 135 136 116 114 115 114 131 140 128 122 123 115 103 110 119 119 124 133 132 130 128 127 126 124
  65  70  67  76  73  78  78  80  83  82  75  64  64  63  71  83  87  80  66  57  59  56  70  81  97 103  87  86  87  90  90  91  93 103 123 123 120 118 108 116 113 113 118 131 135 132 126 125 122 122
  70  70  70  70  71  79  76  79  78  75  65  66  63  58  62  74  67  55  52  56  61  63  60  59  60  64  73  85  85  89  89  90  80  82  90 104 119 109 108 104 115 112 115 120 130 131 130 125 120 122
  68  68  68  70  71  73  64  73  67  74  67  66  57  55  56  57  53  50  54  48  53  53  53  56  51  60  57  68  71  74  79  72  70  75  79  85  93  81  62  78 101 103 115 120 126 128 123 125 117 115
  64  69  60  66  69  73  69  75  71  71  59  55  51  37  53  41  38  37  43  27  27  34  39  40  40  48  47  51  46  49  47  53  52  54  53  53  44  24  31  59  78  89 113 119 127 122 122 117 112 115
  69  64  66  66  68  71  72  68  70  69  55  48  44   3   0   8  18  28  30  41  48  42  34  34  32  29  28  44  54  56  48  74  81  70  55  42  40  37  60  56  58  81 114 119 118 123 119 118 110 117
  67  65  66  66  65  71  70  77  72  62  50  39  43  41  43  52  63  88  92 109 107 110 110 135 126 131 133 110 133 130 137 136 138 138 145 139 131 131 113 102  95  78  96 115 114 120 119 117 119 115
  60  64  66  70  62  69  66  68  71  65  47  43  56  60  70  85  81  88  94  95  89  96 116 131 141 155 143 151 152 143 135 135 133 132 138 137 140 134 122 114 104 100 108 114 109 117 120 115 116 113
  65  62  65  63  65  66  65  70  72  72  65  55  68  59  71  80  81  88  89  84  83  84  95  91 107 115 117 117 118 118 122 122 130 134 135 134 136 122 128 124 118 112 113 113 118 112 114 120 114 115
  62  61  63  63  65  62  61  66  71  72  72  72  74  75  73  69  66  70  81  75  80  77  77  81  87  90  93 101 108 106 108 110 114 122 124 127 132 125 134 133 128 117 114 119 115 117 119 112 116 112
  73  67  64  63  60  60  62  65  64  71  71  73  79  68  69  69  64  63  65  62  67  62  64  63  67  67  73  78  77  73  73  88  94 117 119 117 128 124 134 132 130 120 115 115 114 117 110 114 111 111
  70  66  65  61  63  58  59  63  63  73  74  71  73  77  69  61  65  61  63  61  58  57  55  53  54  54  58  57  66  72  81  90  96 104 112 119 125 125 133 132 128 123 115 117 115 117 114 110 109 110
  66  65  66  66  63  62  59  65  65  65  73  74  73  73  72  62  70  70  67  64  63  57  56  55  59  51  54  64  67  82  82  94 101 110 121 120 124 129 128 134 124 123 117 115 115 113 112 110 111 109
