P2
50 50
255
  24  28  30  30  33  24  26  29  21  23  19  23  27  23  40  24  37  74  63  79  99 112 122 122 121 117 120 121 123 117  94 102  83  90  50  52  39  39  32  39  29  36  35  41  41  45  61  51  46  43
  33  33  38  32  33  27  32  28  17  21  27  24  27  27  32  28  36  47  58  76  77 103 106 113 113 109 112 115 101 103  86  84  84  62  60  40  48  34  33  27  34  30  34  38  51  52  46  57  62  46
  33  38  34  40  39  42  40  49  46  45  37  35  37  36  24  37  44  49  53  74  82  91 102 103 108 109 110 108  89  88  66  78  56  50  60  40  49  44  43  40  55  55  75  64  69  56  57  76  65  53
  50  50  49  46  45  52  51  51  55  49  49  50  50  53  52  49  42  44  49  62  56  83  90  96 102 107 103  99  97  76  77  63  58  75  72  54  57  67  64  62  82  83  96  95  90  86  84  82  80  82
  50  52  53  56  58  59  57  67  64  70  65  49  50  49  52  55  55  54  53  52  62  69  91  89  93 103 100  96  86  85  73  64  77  75  75  73  60  70  86 106 121 127 125 122 115 111 106 103 105  88
  56  53  55  61  61  76  80  90  86  84  89  78  61  51  51  52  51  55  55  61  60  75  82  92  90  97 102  93  91  81  67  82  75  79  73  61  68  85 104 130 130 134 139 141 136 129 125 117 111 112
  63  67  65  63  62  53  39  78 100 110 108  93  39  56  51  50  48  50  54  56  63  63  77  87  94  98  96  98  92  83  81  81  72  70  58  60  76  71  63 120 145 147 138  60  83 123 120 118 121 122
  65  67  65  57  48  68  79  86  70  62  49  91  70  54  24  54  47  44  43  53  56  67  78  90 101 100 105 107  98  93  85  80  62  57  55  73  58  79  74  87  71  79 128 128 132 104  87 114 121 122
  68  66  57  35  68  56  41  19   4   1   2   1  15  53  53  36  48  46  46  46  54  68  86  92 108 118 121 125 109 104  85  74  57  51  57  51  45   6   3   6   4   8  24  37  81 121 111 102 116 123
  64  57  42  61  40  15  37   3   2   2   0   3   2  37  27  48  47  47  43  50  58  72  87 106 120 132 139 138 130 110  91  66  56  57  68  27  38  11   6   2   4  17  21  38  36  48 107 117 112 122
  59  58  48  29   5  27  51  28  16  11   1  15  14  53  36  23  58  72  55  50  51  81  92 112 130 145 151 149 138 117 100  83  72  83  19  41  51  11  12   4  23  31  86  86  53  45  34  72  98 120
  52  42  32  19  27  40  66  62   5  13   7   6  66  67  45  27  21  88  78  58  75  84 106 124 141 154 155 148 140 122 113 108  95  26  28  60  56  57   0  16  19  29  89  76  57  69  42  49  81  91
  52  46  34  37  35  39  37  50  57  65  90  92  86 105 105 113  99  55  87  84  83  88 105 125 142 154 157 148 143 136 126 127 109 109  98  90  80  80  89  60  90  82  64  70  96  91  77 108 108 103
  62  66  59  60  58  59  69  57  58  63  71  85  83  85  81  88 101  88  93  88  86  94 107 126 136 154 154 149 144 136 129 133 132 105  75  73  67  81  73  76  82 100 102 114 118 120 123 120 123 129
  79  75  74  65  62  69  73  77  72  71  76  63  61  72  83  91  95  98  95  91  94 102 113 128 140 151 156 153 145 140 138 129 139 130  90  65  55  54  69  79  77  89  91  94 101 104 107 116 121 133
  80  76  73  70  61  61  57  59  58  59  57  70  78  93  97 105 108 103  99  93 103 107 111 125 140 147 153 152 145 143 143 138 140 141 138 116  80  65  55  53  63  70  76  85  91 107 118 131 133 139
  87  88  83  82  81  78  77  80  77  82  92  88 100 106 109 115 110 108 100 101 105 106 109 130 142 152 153 151 149 144 145 142 140 145 145 145 135 119  99 104  96 107 106 116 113 125 136 138 141 143
  94  91  92  90  92  95  92  92 100  98 109 106 110 117 120 113 108 103 102  98  96 106 118 130 142 153 155 156 150 145 140 144 141 143 148 149 148 141 140 136 140 134 140 142 145 146 142 143 147 151
 100 101  96  98  98 100 108 113 112 121 121 124 125 126 121 115 103 100  97 100 102 107 116 125 138 152 155 158 154 150 144 143 142 141 145 152 156 152 147 147 149 145 149 151 152 150 151 153 153 151
 101 106 105 107 108 111 117 115 120 122 130 125 130 130 121 111 101  90  91  98 101 107 115 134 139 148 155 157 155 155 151 146 142 137 142 149 151 153 154 152 151 153 155 152 156 155 154 157 157 153
 107 108 113 109 116 118 116 119 122 126 126 126 130 130 126 111  98  91  91 103 100 112 118 133 138 150 160 157 155 154 148 149 144 138 139 142 146 151 153 157 155 155 155 154 156 155 157 157 155 154
 106 105 116 115 115 117 122 119 123 124 129 127 136 132 121 111  94  86  96  99 105 109 123 129 136 154 166 159 157 155 152 147 146 142 138 136 141 144 148 152 154 154 157 155 155 156 155 155 152 153
  98 102 107 113 113 116 118 126 126 125 130 126 129 124 117 102  89  90 100 112 115 112 125 125 134 145 159 160 159 157 153 149 146 142 126 126 135 142 145 144 149 152 148 153 154 153 152 152 152 154
  92 100 100 103 108 115 118 120 120 126 112 124 127 120 115 101  88  96 110 118 121 115 116 117 121 132 144 148 157 156 154 156 149 151 138 115 122 136 137 145 145 145 147 149 153 153 149 150 151 151
  92  98  98 101 109 108 116 119 117 128 128 127 134 115 108  93  88 102 116 120 117 107 102 103 108 118 125 135 139 143 147 155 157 156 145 133 107 125 135 135 138 138 145 147 145 151 149 150 151 150
  91  97 100 102 105 105 114 117 120 119 126 127 121 117 107 101  82 102 109 113 107  91  86  88  96 102 111 116 122 121 123 141 151 155 149 136 111 112 122 130 133 134 142 140 142 143 148 150 150 150
  88  93 100  96 101 105 108 112 113 119 131 125 118 112 106  86  81  97  96  97  90  80  78  80  84  88 101 104 101  92 105 113 136 146 150 135 124 111 116 121 129 132 136 138 138 142 144 149 143 149
  87  87  96  96  98 102 108 108 115 116 121 118 115 107 106  67  80  87  90  88  83  63  66  81  77  83  90  93  47   1   1  97 113 132 135 129 138 125 113 115 123 122 134 135 138 138 140 141 144 146
  85  88  88  93  91  97 104 107 111 111 108 121 113 107  94  60  75  81  87  78  10   1  19  36  55  86  90  74  32   3   6  21  81 103 113 124 138 138 127 120 121 117 130 129 134 138 139 132 142 145
  80  86  86  88  87  93  96 101 101 107 109 116 109  97  94  70  58  65  70  37  26  39  47  51  52  76  86  79  66  53  54  35  61  83  94 123 141 138 131 116 121 120 123 127 134 125 135 137 138 139
  81  82  87  84  86  92  92  98  97 103 111 108 107  93  84  57  50  37  38  40  46  46  45  46  49  63  68  75  78  73  65  63  61  66  94 142 145 145 137 130 123 122 123 127 130 135 134 134 134 134
  80  79  78  81  86  94  93  90 101 100 107 107 101 100  87  72  46  48  38  40  42  45  44  45  56  66  71  93 101 104  90  83  75 107 132 145 142 142 140 137 126 130 129 124 130 134 133 133 131 133
  73  75  81  79  81  86  89  91 101 101 107 106 103  92  88  75  58  52  47  52  53  50  53  53  66  80  88  93 109 118 121 122 119 127 140 145 140 142 143 142 137 136 135 127 130 129 131 135 132 134
  77  80  77  76  76  86  86  92  97 105 103 101  93  91  87  80  72  68  75  66  62  68  78  80  80  91  93 101 112 122 122 122 123 133 134 140 142 147 145 143 138 137 138 135 130 130 130 134 131 131
  78  75  77  71  82  85  83  91  94 101  98  99  96  89  86  82  76  66  69  76  77  82  90 100  93  86  98 105 117 127 131 127 126 126 130 136 136 137 141 141 136 137 136 133 131 131 131 131 130 131
  73  76  76  68  78  81  84  87  89  93  90  87  85  86  82  80  75  74  78  59  90  97 115 128 109 110 101 111 129 135 136 134 137 124 116 101 119 121 127 126 130 133 136 137 135 132 133 130 128 127
  70  75  74  70  71  81  84  81  84  91  90  86  82  67  77  73  81  88  92  93 103 108 124 134 128 125 119 134 136 139 138 137 139 139 117 126 114 117 123 121 125 117 128 136 134 128 127 130 129 126
  72  73  73  70  78  77  81  83  79  85  76  78  78  72  63  64  85  96  91  67  72  61  80 101 119 122 129 112 104  94  99  99 117 133 131 112 122 117 108 112 118 119 123 134 135 130 127 126 125 123
  68  75  72  73  68  76  79  82  82  81  75  67  60  58  68  73  91  72  59  54  54  58  59  58  69  76  75  81  84  87  88  93  87  87 104 125 120 118 108 113 116 116 122 127 137 130 130 122 116 122
  68  61  73  63  68  70  72  75  76  76  76  61  57  63  59  73  54  51  51  54  56  59  62  61  59  58  71  71  79  88  88  86  81  76  85  98 109  96  86 103 109 105 115 120 131 130 129 127 120 120
  65  67  63  68  70  75  70  74  68  74  73  59  54  53  56  52  47  45  50  49  43  43  50  52  51  52  53  51  54  64  59  59  69  58  64  57  62  61  53  63  84  96 116 122 123 126 124 123 113 117
  64  66  65  70  71  71  76  68  67  75  57  56  52  42  32  25  23  26  20  15  12  15  14  16  22  26  25  21  26  24  18  26  32  35  37  29  12   9  33  55  60  90 114 115 118 124 113 112 111 117
  66  66  60  63  68  71  72  67  68  69  62  42  48  37  13   7  22  48  65  62  97  98  88  97 104 111 107  92  97 107  89 114 113 124 129 110 114 121 105  88  71  87  99 116 116 121 118 118 118 116
  65  65  62  68  63  63  63  72  71  69  54  40  48  52  56  58  82  87  88  89  99 104 119 142 139 145 138 136 154 156 145 141 138 135 143 143 138 137 116 112  98  83 107 116 112 116 121 120 120 115
  65  62  60  64  65  63  64  71  69  65  62  53  57  59  68  82  86  92  91  84  85  86  92 108 112 126 135 134 133 125 125 120 133 135 138 136 138 124 128 123 113 109 111 115 112 115 114 120 113 113
  68  67  58  67  62  64  61  64  70  70  70  71  69  70  59  68  73  80  81  83  81  87  84  88  89 102 106 107 106 113 115 117 122 127 126 133 131 122 135 131 125 118 117 116 117 116 113 115 120 113
  70  68  60  66  65  60  59  62  68  69  70  68  77  78  73  68  69  67  61  69  70  70  69  73  79  84  81  81  82  81  89  96  97 112 117 122 133 120 135 134 126 121 109 113 113 115 111 115 109 112
  67  67  67  64  62  62  59  59  65  71  75  74  81  72  70  68  72  60  61  63  58  58  52  56  56  61  57  58  59  71  80  92  96 107 112 114 129 127 137 134 134 121 117 116 112 115 111 112 108 111
  67  65  65  68  67  59  61  65  63  70  70  73  68  75  65  62  73  68  64  64  65  57  56  55  54  48  52  56  56  77  86  89  99 106 116 121 123 129 130 132 126 125 119 117 115 114 113 110 111 111
  85  66  61  67  63  63  60  62  63  66  74  75  71  72  72  72  68  70  66  65  65  65  65  64  59  64  61  75  74  81  97  99 107 112 120 122 126 129 130 130 126 122 120 119 115 110 108 112 107 108
