P2
50 50
255
  24  27  25  31  26  21  24  23  24  19  27  19  21  36  37  45  46  60  71  95 104 106 107 106 104 105 110 108  98  88  66  69  65  48  42  32  38  25  29  27  24  30  36  40  43  44  55  57  74  49
  36  35  35  32  31  34  41  21  27  24  23  27  21  25  31  41  46  57  62  79  95 103 101 100 101 103  99  90  80  70  61  61  49  48  40  37  32  29  28  29  26  29  36  49  44  52  47  57  77  51
  39  43  43  44  43  45  46  47  47  40  38  44  38  37  30  42  47  56  72  75  79  91 100 100  99  97  90  81  73  54  52  59  59  54  41  48  38  43  40  48  49  52  61  57  64  54  52  58  59  49
  48  49  50  43  51  53  51  50  49  49  45  46  50  48  42  47  55  45  51  67  77  83  87  94  95  90  86  80  74  58  57  50  62  52  56  56  56  56  55  66  71  74  87  81  82  75  72  73  69  73
  55  55  54  54  60  58  59  68  66  52  50  49  47  48  54  53  53  56  58  65  77  82  84  85  86  86  84  70  67  58  67  66  70  64  71  64  57  65  77 100 113 119 119 113 103 100  93  91  87  94
  64  63  62  66  72  65  56  51  43  43  50  51  47  47  48  47  53  51  55  58  69  78  80  81  86  85  83  73  67  66  71  73  64  64  58  64  72  84 107 121 130 136 135 134 130 119 112 112 105 102
  70  65  65  57  40  55  79  87  88  81  62  37  34  42  45  45  45  50  54  57  67  75  79  83  86  90  83  79  75  72  72  65  59  55  60  65  76  42  57  87 131 130  84  49 104 123 117 114 113 111
  69  65  56  38  73  68  70  53  44  45  60  57  40  22  42  43  45  45  54  58  66  70  81  93  95  95  87  85  79  75  70  58  53  52  54  40  48  71  74  86 100 116 129 131 122  70  78 105 111 119
  67  58  42  61  51  28  22   1   0   0   1   1  40  40  28  40  42  39  46  52  71  80  89  98 113 111 104 100  88  76  60  47  51  51  39  52  44  29  13   3   3  19  32  61  97 121 101  82 102 113
  63  50  68  31  22  39  41   3   2   1   1   7   8  12  41  36  40  44  44  52  71  81 101 107 126 131 125 116  99  77  58  50  49  49  49  33  39  12   4   2   6   8  14  27  35  65 105 114  89 106
  63  51  23  11  41  59  60   5  12   4   5   2  14  33  18  56  47  44  44  55  73  91 109 126 141 149 141 132 108  91  59  51  61  38  22  47  49  13  11   3   8  14  15  47  52  40  49  72 103 105
  51  35  24  22  39  60  68  44   6   7   3   2  51  33  16  16  76  50  53  66  85 104 123 135 150 152 143 135 120 110  92  71  69  16  30  38  54  60   9  12  21  26  56  79  53  29  34  36  54  75
  48  38  42  39  37  40  45  49  52  68  73  79  78  87  85  61  76  70  59  71  93 117 131 141 156 153 147 141 130 126 129  81  82  80  87  69  74  81  87  99  99 109  76  76  69  56  63  73  72  67
  59  63  59  60  56  56  56  50  54  55  59  71  80  67  74  78  71  77  74  81  99 117 131 142 153 153 148 143 136 132 135 111  94  82  66  68  62  63  63  64  77  65  80  91  94 106 104 104 111 112
  72  65  61  68  70  72  70  66  68  72  65  58  72  78  80  82  88  79  86  88 103 119 133 145 153 151 149 141 138 132 140 135 129  72  48  51  60  65  65  70  77  89  97 104 111 112 114 115 118 126
  74  67  65  62  58  62  58  59  58  55  60  73  79  89  90  90  89  87  86  94 105 122 134 148 153 150 149 143 142 139 136 141 139 130  72  48  47  45  52  57  65  71  73  83  87  91 104 114 122 127
  79  74  69  72  61  62  67  65  66  73  74  78  93 100 100  97  91  87  96  96 108 130 136 146 153 151 149 143 144 142 140 144 143 140 135  96  80  71  52  48  51  57  70  77  96 109 122 129 132 134
  82  81  79  80  79  76  79  81  80  86  96  99 104 108 100  89  87  91  96  99 113 132 142 149 153 153 148 146 143 144 142 141 144 145 143 141 124 110 107 110 103 109 118 120 131 137 136 139 142 142
  88  85  87  86  89  94  92  99  98 102 110 114 108 103  95  90  87  91  94 100 121 133 143 150 156 153 149 143 141 143 143 140 143 149 149 148 143 140 137 138 137 140 141 142 146 147 147 146 147 150
  94  95  95  94 101 101 103 104 110 114 115 114 107 101  91  85  88  90  92 105 118 133 147 152 155 153 151 149 147 143 143 138 143 144 148 151 148 149 144 146 146 146 148 149 147 149 152 155 151 151
 100 104 104 114 108 104 113 113 113 115 118 115 110  95  91  83  83  90  99 110 133 136 147 155 153 154 151 150 148 143 142 137 137 140 143 144 145 150 150 150 149 151 149 150 152 154 155 155 154 153
 104 103 106 108 105 108 110 113 121 118 123 117 111 100  84  82  87  89 105 114 122 137 152 162 155 155 153 151 145 147 143 139 132 135 139 139 141 143 150 153 152 152 150 155 152 155 153 154 153 152
  99  99 102 106 107 115 108 110 117 114 113 114 105  96  82  84  98 102 105 115 125 132 155 171 161 155 152 151 148 143 143 143 134 128 130 135 139 142 141 147 145 152 150 155 155 153 153 151 152 149
  95  96  99 104 110 104 115 111 111 112 114 107 101  86  74  97 111 112 110 112 116 125 135 150 160 157 157 151 151 144 145 142 134 113 114 129 135 136 138 141 148 143 148 149 149 146 148 149 149 148
  92  92  99  97 104 107 107 118 115 117 113 107 102  79  90 110 114 106 103 103 108 115 126 136 142 149 149 152 157 153 149 143 139 132 105 115 125 129 136 137 138 141 143 147 148 147 146 143 148 148
  92  95  95 100 104 107 110 110 115 117 110 107  94  86  99 107 110  98  89  87  93 102 108 122 126 130 134 135 146 153 155 149 143 138 109 104 118 124 123 125 134 138 141 140 144 145 143 144 145 146
  93  94  95  99  98 103 104 111 115 115 110 101  95  79  98  99  94  85  77  78  81  91  91 104 106 109 110 117 131 142 150 151 145 133 129 100 106 115 122 127 130 136 136 134 137 142 143 144 147 146
  86  90  89  96  99  99 106 114 118 110 104 101  85  78  87  93  86  81  71  72  80  79  81  86  92  87  83  93 100 126 138 145 144 131 126 105  98 109 113 120 121 130 131 134 133 138 141 142 143 145
  83  85  88  94  96  99 106 101 112 111 100  95  82  73  82  82  79  28   0   5  53  79  79  85  80  13   0   0  65 100 126 132 133 128 133 121 103 105 112 118 118 128 127 129 132 134 136 140 140 141
  82  81  85  86  95  95 100  99 102 103  94  93  73  64  72  77  45  16  10  25  40  73  81  83  59  36  13   2  10  44  91 108 110 117 132 129 122 113 107 110 116 122 123 128 129 131 132 134 138 142
  81  81  83  87  85  91  91 101  99 101  92  83  74  47  55  61  38  40  46  44  50  54  67  70  64  59  53  47  43  44  70  80  90 118 133 135 128 114 107 112 111 115 118 125 115 123 131 135 138 136
  77  80  80  82  83  83  88  93 101  97  85  79  68  51  45  29  39  43  46  47  47  51  53  56  65  61  59  57  56  52  50  56  95 133 142 138 131 121 110 115 108 110 121 127 128 127 129 131 134 135
  73  76  82  82  80  83  94  94  98  90  83  76  71  53  50  40  40  44  42  41  47  52  57  69  83  91  91  92  67  56  78 106 139 143 142 139 137 129 119 119 122 116 117 123 127 127 125 129 128 132
  76  79  76  78  79  86  89  90  90  88  81  76  68  53  48  49  51  45  51  48  48  62  68  78  85  99 110 115 117 113 119 134 141 142 138 138 138 136 132 123 127 122 122 121 124 126 129 128 128 127
  77  72  78  76  78  77  88  93  89  83  81  73  69  55  56  55  53  55  55  65  71  73  76  85  95 108 117 122 118 120 129 131 135 137 140 141 141 136 133 131 128 134 127 129 127 123 128 128 129 123
  77  69  72  74  76  82  87  88  79  83  75  71  71  62  55  55  57  66  71  75  78  86  78  90  98 113 127 128 124 119 123 124 132 131 134 135 140 138 133 134 131 129 129 127 129 122 127 129 128 128
  73  67  73  71  78  79  81  84  79  73  72  65  64  65  58  69  65  77  91 117 106  98  92  89 100 119 130 129 129 129 113 111 119 127 123 122 132 129 133 130 127 133 132 128 127 128 127 123 127 125
  74  71  64  72  73  78  80  80  76  70  69  62  60  71  79  82  82  86 103 119 125 118 112 113 117 123 135 136 131 136 130 115 112 112 111 120 118 117 122 123 125 132 131 130 125 123 123 123 125 126
  72  68  70  72  68  72  75  68  68  64  60  62  65  81  83  73  64  54  57  84 108 119 122 113 108  91  95  97 106 131 135 129 124 122 114 105 100 107 110 113 113 123 128 129 124 125 122 120 123 125
  71  71  70  70  73  72  68  72  62  64  58  62  71  77  64  52  47  53  53  50  62  78  75  71  72  77  79  81  82  85  93 121 125 117 115 112 100 107 110 113 110 119 129 129 125 123 123 119 120 120
  73  66  68  70  70  69  71  67  60  58  63  59  59  58  50  55  57  53  60  58  56  54  55  62  79  75  81  82  80  73  70  76  94 105 105 104 102 103 113 108 114 116 121 128 126 125 123 120 115 115
  71  68  65  68  64  70  63  67  52  51  52  52  52  47  42  46  44  51  47  44  50  51  54  53  60  56  63  56  57  61  64  70  70  76  83  64  72  85  95  98 107 107 117 123 122 120 123 118 108 115
  68  66  64  60  70  59  65  61  54  54  43  25  27  29  21  25  21  16  18  18  23  27  38  34  36  40  29  22  38  51  50  48  45  50  44  34  36  57  73  76 101 110 118 120 118 119 117 106 105 113
  65  63  67  67  65  65  56  59  49  41  38  23   8  17  37  37  56  76  70  70  66  65  44  52  55  57  75  50  78  95  77  71  49  35  31  32  43  52  52  68  94 109 110 114 117 111 106 104 112 110
  64  68  67  66  59  64  62  56  46  37  44  46  50  67  78  92  90  94 100 116 122 126 123 127 121 133 140 145 138 135 137 136 133 130 132 125 101  96  78  61  85 108 109 111 115 113 112 114 115 109
  66  64  71  69  63  62  62  56  48  46  51  53  71  81  83  86  79  78  92  99 107 128 132 136 139 142 132 131 131 128 127 131 133 134 135 130 112 110  99  87  90 105 108 109 110 112 107 114 117 112
  70  69  65  65  67  60  60  59  59  56  62  55  65  72  73  79  78  80  80  84  90  95 103 104 103 101 113 115 119 131 130 130 131 131 131 117 128 120 110 105 107 107 108 108 112 107 114 110 109 108
  70  66  67  64  65  59  62  65  60  67  70  60  65  65  64  68  70  67  69  73  69  74  76  82  87  87  97 104 105 110 119 119 127 129 128 126 129 128 123 111 105 108 114 110 110 107 110 111 107 105
  74  66  65  63  61  62  64  62  65  70  70  65  62  59  62  56  55  56  55  58  58  54  64  67  65  71  72  77  79  89 113 109 111 118 125 124 130 128 125 114 105 107 108 111 110 109 108 107 107 105
  86  71  67  60  58  59  69  63  68  65  69  68  60  64  56  58  59  58  53  51  53  53  52  51  55  59  67  77  77  87  95 104 110 118 122 123 130 129 127 121 109 111 111 110 111 105 107 104 103 103
