P2
50 50
255
  25  25  23  28  21  24  20  16  14  22  19  19  18  35  24  30  71  75  65  96 105 114 114 113 109 110 114 114 107  83  98  86 101  74  41  31  39  31  25  29  24  30  30  38  46  41  36  53  56  52
  47  28  25  26  25  24  21  19  18  20  15  21  27  24  26  32  32  53  60  71 101 101 106 109 105 106 106  99 101  88  77  74  62  49  59  31  34  32  27  27  29  26  31  31  41  44  38  63  80  55
  25  36  38  36  37  37  40  44  39  34  32  37  35  22  32  39  43  35  60  71  85  91  96  99 102 105 101  90  78  86  78  55  40  52  48  39  47  40  40  35  51  57  65  56  58  50  54  46  67  55
  43  37  43  44  48  46  48  48  48  47  45  46  41  50  42  37  32  49  51  50  76  80  90  94  98 100  91  93  77  76  66  68  64  70  56  57  66  62  68  66  83  73  88  94  85  79  64  78  52  77
  48  51  51  51  52  55  57  56  57  50  47  44  44  50  51  51  50  50  48  54  72  82  83  85  94  99  92  86  79  74  67  70  63  69  72  70  63  57  80 106 119 128 122 115 106 105 101 100  94  98
  51  56  55  58  60  69  77  80  75  70  67  53  47  43  51  47  49  52  51  54  62  73  82  77  89  93  87  88  74  74  74  76  71  72  63  62  71  82 102 127 131 142 135 136 131 124 117 117 111 107
  61  61  62  63  58  36  32  66  88  91  76  42  39  47  42  43  44  50  52  55  57  70  79  83  86  90  85  88  77  81  76  73  69  62  61  67  77  55  38 112 133 142  95  43  98 120 119 118 117 116
  64  68  63  48  38  67  81  82  72  51  84  65  53  32  47  40  45  41  48  52  58  71  76  85  91  96  99  91  85  82  77  68  61  53  53  69  50  72  69  84  98  95 125 133 125  61  88 112 118 118
  69  63  54  34  72  44  32  17   5   0   4   2  33  51  41  44  42  42  43  51  60  72  81  95 103 110 114 110 102  83  69  54  52  50  54  47  41  34   5   4  10  15  24  53  93 121  86  92 111 124
  65  54  41  57  36  22  30  10   1   1   3   4   1  15  35  41  38  40  41  45  54  76  92 101 114 131 127 125 115  97  77  53  52  52  52  27  39   9   4   2   6  17  15  28  37  51 110 118 100 118
  65  50  38  18  14  45  51  20  12   9   2   9   1  34  21  20  56  43  39  47  61  76  96 115 133 143 145 138 121 106  83  56  52  73  20  38  53   7   8   3  16  22  18  49  42  28  39  74 106 114
  52  40  24  21  20  51  68  57  11  11   6   4  40  50  26  15  46  67  47  58  70  93 108 122 140 151 150 142 130 118 110  81  88  23  20  38  49  44  12  13  18  21  90  83  53  35  32  39  65  92
  42  40  36  30  26  31  38  48  59  69  85  93  87 112 105  86  34  81  65  69  74  92 115 132 139 153 151 145 137 125 127 112 101  90  79  78  58  75  85  78 107  94  70  77  73  84  70  91  97  80
  53  59  44  46  51  47  50  51  50  53  52  69  69  82  75  83  79  78  70  74  77  96 115 129 142 151 151 145 140 131 133 135  98  88  68  63  78  66  68  62  74  86  95 108 106 115 118 114 118 115
  66  66  63  63  68  71  75  71  65  71  82  69  70  78  95  82  85  86  80  82  90 102 117 129 144 152 149 145 138 134 129 137 132  79  50  47  52  56  63  72  72  86  95  99 107  99 102 116 121 125
  75  68  60  59  58  59  56  69  65  60  56  66  71  79  88  95  94  90  86  92  92 105 120 132 143 150 150 145 142 143 138 136 139 132 113  71  49  47  43  52  62  64  71  81  88  95 110 119 130 133
  77  71  75  68  61  62  63  60  66  71  74  79  77  92  97 100 100  90  89  97  96 105 121 132 148 152 150 146 142 144 143 140 142 143 142 129 105  90  95  51  56  71  64  90 102 115 129 134 136 138
  87  81  78  77  77  77  81  82  76  86  89  95  99 105 106 101  98  92  90  91  95 106 125 138 148 150 151 147 145 139 142 142 142 148 144 146 142 131 134 125 128 123 122 129 137 140 142 139 144 145
  91  86  85  85  91  94  96  96  98 100 104 109 111 110 107  95  89  86  90  89 100 109 122 136 148 153 153 149 145 138 143 144 138 143 152 151 146 143 143 144 140 145 142 147 148 149 147 152 149 150
  94  93  96  98 101 103 103 105 106 116 113 114 119 112 105  91  85  87  87  90  99 109 124 139 149 152 151 149 147 145 143 138 137 143 145 146 151 150 152 147 149 148 151 152 150 152 152 154 152 150
  97 101 104 106 109 110 107 113 112 111 115 120 117 116 101  94  85  85  91  93 104 118 131 140 151 155 150 153 150 147 147 142 135 139 141 144 147 147 154 153 150 152 152 152 154 154 155 154 152 152
  97 101 106 108 107 109 110 111 113 119 118 126 120 112 104  83  76  91  91  95 106 115 121 138 156 157 153 153 150 147 147 144 137 134 134 139 142 146 148 152 151 153 150 154 155 154 155 153 153 152
  95 101 102 105 107 107 115 113 113 120 120 120 119 109  99  82  83  96 101 105 111 112 123 132 155 162 157 154 152 149 147 143 142 130 125 127 136 142 141 144 149 152 151 154 153 153 153 149 147 150
  91  91  96 100 105 113 109 109 113 107 120 119 111 103  95  82  94 109 111 105 105 109 110 121 135 146 155 154 154 150 147 145 147 140 114 117 135 134 137 143 147 147 149 148 151 152 150 150 149 152
  90  94  93 102 101 106 110 109 113 118 111 122 112 101  87  76  98 114 110  99  96  99 105 111 122 134 141 142 143 147 156 154 149 141 136 105 116 123 130 134 136 136 143 147 148 147 149 147 148 149
  91  92  96  99 100 105 107 114 114 119 118 113 109  97  96  89 100 109 103  88  89  82  91  97 107 119 125 120 125 138 147 154 151 147 137 114 103 114 121 129 133 136 131 143 144 143 146 149 150 149
  85  93  92  95  94 101 104 106 112 119 118 111 106  99  76  83  97  95  84  79  79  75  82  86  90 104 106 103 110 113 133 145 151 147 133 130 105 105 118 121 127 126 136 136 138 137 143 146 147 149
  85  87  90  91  97 101 104 106 108 114 111 105 101  96  67  76  88  89  82  79  73  72  79  84  85  90  91  94  82  94 105 129 137 140 129 133 112 105 110 112 120 121 131 130 132 136 139 142 142 145
  82  83  84  86  86  97  95 102 105 108 111 104  97  86  59  79  81  77  46   0   0   2  25  77  82  92  22  14   0   1  17 102 119 121 124 130 126 115 108 112 118 121 125 127 132 134 136 138 136 141
  78  76  80  81  86  91  96 100 101 105 109  94  91  78  53  66  71  64  29  23  34  44  48  70  76  82  58  48  31  33  35  75  96 102 117 134 133 129 108 106 115 115 119 121 130 120 133 136 141 143
  78  79  80  82  82  87  91  95  96 102  98  91  89  78  48  38  45  40  41  50  42  43  49  52  63  69  65  63  58  60  53  57  67  82 133 146 138 132 119 109 111 112 117 122 120 130 126 134 135 139
  75  76  74  76  82  85  88  91  90 102  95  88  82  72  51  47  39  34  38  41  43  46  45  56  65  75  78  94  91  73  65  59  92 129 144 141 136 134 127 119 115 119 119 115 122 129 130 128 133 135
  72  74  78  78  85  83  80  90  95  98  92  88  76  72  59  47  46  42  39  42  39  43  51  65  71  83  95 114 110 117 109 112 125 142 142 139 139 139 134 130 119 120 120 122 121 125 129 130 129 131
  76  77  75  74  74  82  82  90  90  94  88  83  76  70  59  51  48  50  50  49  53  57  68  79  79  88 102 110 121 122 127 130 133 138 139 139 141 141 136 133 129 129 126 121 124 126 126 129 128 127
  68  73  68  71  78  76  85  87  92  90  86  83  75  69  57  54  54  56  52  63  70  72  82  82  86  94 107 124 130 126 126 129 128 133 137 137 139 142 140 133 133 130 123 125 125 125 122 128 127 129
  74  75  66  69  73  80  77  84  88  82  82  79  73  70  61  59  62  65  68  79  87 108  97  97  97  96 106 120 130 132 130 130 121 120 124 127 128 134 132 132 127 126 126 130 127 126 126 126 126 128
  70  72  68  68  69  73  77  77  80  78  79  73  62  64  61  74  67  76  89  97 102 126 124 116 110 112 121 125 137 138 137 136 130 116 108 122 111 122 118 121 121 126 130 131 128 123 126 125 126 127
  69  70  67  66  69  74  70  74  80  76  69  68  60  57  75  85  87  75  70  69  77 104 123 120 125 126 124 111 106 107 117 138 138 130 123 124 118 108 112 115 114 113 120 127 125 122 121 122 121 121
  66  72  67  70  69  71  75  74  73  72  64  54  57  66  76  83  70  54  52  52  52  67  76  89  83  83  86  85  82  89  92  92 106 126 123 122 119 117 116 116 113 109 116 129 127 126 122 122 120 122
  64  68  66  65  66  72  69  69  70  60  56  57  57  60  68  66  51  52  54  54  57  56  59  57  53  75  78  78  86  90  90  78  75  90 105 119 110 105 108 114 109 111 113 119 124 123 121 121 106 118
  63  69  61  69  65  63  65  63  66  67  52  56  53  56  51  52  47  45  52  51  49  53  51  51  55  57  56  52  63  74  71  70  70  74  80  88  84  71  87 100 101 107 107 116 120 120 122 122 114 117
  61  65  63  67  66  65  61  58  65  59  52  42  47  43  36  39  31  32  26  24  27  31  38  36  43  47  36  28  26  25  37  38  52  54  52  44  37  19  58  72  81  99 112 119 116 124 118 115 111 113
  63  57  63  70  64  65  62  57  66  51  38  48  29   1   1  11  27  34  51  57  48  61  50  53  42  72  46  75  76  70  99 104  88  59  47  43  36  69  53  64  73  99 111 112 116 121 109 112 106 115
  62  60  67  68  60  60  65  65  58  49  30  40  37  32  53  58  79  94  91 101 110 115 121 124 118 133 131 136 138 144 138 135 136 141 138 133 130 115 106  96  70  89 114 113 114 120 115 118 114 113
  66  60  67  62  59  65  65  70  57  49  36  48  51  56  70  82  80  85  79  79  94 111 118 132 130 134 142 142 132 132 133 131 130 137 135 142 132 123 119 109 106 101 109 111 110 115 111 118 115 115
  65  59  59  68  55  57  60  64  63  51  49  58  56  57  70  71  79  82  81  77  79  82  93  98 105 109 112 110 120 119 123 136 130 132 134 136 124 131 126 121 113 114 110 115 113 114 113 117 113 109
  65  69  65  62  60  61  60  57  63  56  57  59  65  61  62  65  61  66  69  61  64  67  70  75  79  79  94 104  99 102 110 108 122 125 125 129 124 134 130 131 119 113 113 115 116 115 112 115 118 114
  67  64  65  60  60  57  60  65  58  63  60  70  63  66  60  65  62  60  63  55  53  59  55  64  60  61  66  67  71  81  91 106 119 118 119 127 125 134 132 133 120 116 114 113 114 112 113 114 110 111
  68  62  63  60  59  60  53  57  66  60  57  65  66  65  64  62  61  55  58  57  52  52  51  56  51  52  53  67  75  83  86 100 101 116 119 127 127 135 130 133 125 119 116 117 115 111 110 109 108 107
  82  64  66  60  58  59  63  61  61  64  68  60  66  65  58  65  60  57  57  55  56  56  53  52  52  56  66  69  86  90  92 104 112 121 126 125 127 129 133 125 126 121 116 116 110 111 109 107 109 107
