P2
50 50
255
  25  26  24  34  37  29  28  28  17  25  21  13  25  22  24  30  38  51  51  94  92 105 119 122 122 122 115 123 122 125 117  71 109 104  83  54  50  29  38  25  37  36  29  43  39  40  56  49  71  48
  40  32  42  31  32  27  25  32  24  20  24  29  29  26  25  32  33  42  71  67  67  96 105 113 113 113 111 116 117 109 108  61  84  77  57  57  58  52  34  27  30  31  31  28  59  47  50  55  52  37
  34  41  35  38  41  39  41  49  45  44  37  36  35  41  37  37  39  43  49  79  63  88  88 109 107 112 116 113 107 101  90  56  70  76  58  69  40  47  41  54  54  56  68  72  70  59  67  75  64  54
  45  51  43  45  50  50  52  54  53  52  49  50  48  53  54  47  49  53  60  51  63  76  93  96 104 106 112 109 103  99  79  65  56  66  73  60  61  73  70  70  72  90  91 101  97  98  95  84  87  87
  53  53  56  55  55  55  62  63  68  72  61  53  49  53  53  58  59  57  61  54  68  74  84  95  96  97 102 104 103  81  81  68  82  70  79  79  76  71  74  97 109 124 128 124 124 122 111 110 112 103
  53  56  59  63  65  77  78  87  87  83  84  80  62  57  51  53  55  55  56  60  59  73  83  90  93  77 103 103 100  91  81  80  82  80  76  68  69  73  89 109 118 107 130 128 134 131 129 123 116 122
  65  67  68  68  74  44  37  49 100 111 105  78  28  55  53  52  53  53  55  55  61  62  74  85  91  96 100 103 102  96  86  84  82  73  60  55  68  82  44 101 139 146 146 137  72  78 110 116 126 125
  68  64  61  50  43  76  82  90  85  62  76  93  81  59  30  52  49  46  50  57  58  61  74  80  94 108 109 109 104  91  90  87  75  65  59  57  36  68  64  52  46  52  76  94 127 129  99  99 118 128
  65  64  53  30  71  59  46  29   4   2   1   3  22  62  57  37  50  47  45  40  53  60  76  89 105 114 117 122 117 113  96  82  60  61  54  40  46  35   3   4   4  12  14  32  41 100 121  92 108 124
  59  51  40  61  41  24  34   5   0   2   2  11   6  31  31  46  45  54  46  49  50  59  82  93 115 122 131 136 129 122 104  87  61  57  55  31  34  15  10   4   2  20  21  64  39  38  62 101 121 118
  59  51  44  28  15  33  53   3  10   7   5  16   8  67  40  25  58  66  46  48  55  61  90 103 121 136 143 144 142 131 110  89  74  59  25  31  46  31  12  20  20  24  32 101  95  37  28  37  82 114
  56  39  25  22  28  54  60  52  12  12   6   4  74  86  43  27   6  89  78  61  71  80  99 111 127 143 151 149 143 132 117 110 100  94  29  39  62  68  47  15  12   8  83  81  71  64  77  47  52  93
  44  39  30  29  30  34  42  43  42  47  79  98  91 140 136 122 102  42 101  76  85  90 104 116 136 147 153 153 145 140 125 117 120 107 112 100  93  78  78  97  72  89  84  86  86 104  99  94 113 106
  55  54  54  51  46  53  50  54  58  64  65  74  83 108 106  91 100  95  99  95  90  94 102 112 132 143 155 151 147 143 134 131 132 118 104  89  69  76  78  77  79  84 102 111 116 119 124 125 119 129
  74  71  71  67  76  82  83  85  86  84  77  87  80  82  84 103  95 103 102  99  94  99 107 119 133 142 151 154 149 142 137 132 135 138 101  61  51  59  60  69  80  82  90  96  98  99 105 112 122 128
  82  74  71  69  65  72  72  77  76  75  66  70  75  84  96  96 109 105 108 103 101 108 108 121 127 144 153 153 149 145 142 140 137 140 137 137  93  51  55  56  58  66  75  79  86  93 104 124 134 138
  86  83  84  81  77  72  72  71  69  79  81  87  92  99 108 116 116 116 107 104 103 109 109 115 133 143 145 150 150 145 143 143 141 141 143 144 140 120 108  93  81  90  85  86 113 118 128 133 139 143
  95  92  90  87  94  87  91  91  95  93  95 103 108 115 122 123 117 114 109 101 107 108 109 113 131 144 151 153 151 147 147 140 142 140 144 146 150 148 136 140 137 138 137 137 143 143 144 143 144 148
 101 100  99  99 100 104 108 109 114 114 116 121 122 125 129 126 115 110 108 103 107 101 112 115 133 141 152 152 154 152 146 141 144 141 144 149 152 152 147 147 148 147 145 149 150 151 151 149 151 150
 105 108 107 110 106 113 115 118 123 126 128 131 130 136 131 123 113 100 100 103 100 107 106 115 126 139 145 152 155 154 150 148 144 143 138 142 147 152 153 152 151 151 155 153 151 155 153 153 154 152
 110 116 114 116 127 119 120 122 129 129 134 135 132 129 134 122 111 101  99  96 104 107 110 115 129 141 147 155 155 155 154 149 147 144 137 139 144 147 151 154 154 153 153 153 154 155 154 154 154 154
 109 113 118 116 122 122 123 123 125 129 137 138 137 135 133 121 111 101  90  96 105 105 111 118 128 134 144 158 158 155 154 152 145 147 139 137 141 141 147 149 151 154 153 154 154 154 155 155 153 153
 109  99 111 116 117 117 122 124 127 124 131 138 134 132 125 118 107  92  90 103 109 111 116 119 126 136 144 159 165 156 154 154 151 145 144 132 128 138 144 146 147 149 153 152 153 153 150 153 152 153
  97 100 107 109 113 117 119 123 127 124 129 135 134 127 118 112 102  89 100 112 120 126 117 118 123 128 131 140 152 154 154 155 151 148 149 139 117 128 137 140 146 144 147 146 150 150 151 150 152 151
  97 100  99 103 110 112 117 124 126 126 134 134 135 129 120 111  97  96 106 114 123 128 116 118 116 117 124 132 141 147 148 151 152 155 154 147 136 117 128 135 137 141 139 144 148 147 149 151 151 151
 100 104 105 105 112 114 121 119 121 123 128 128 132 120 118 108  99  91 109 117 126 121 108 100  95 107 108 114 129 132 134 137 142 151 155 151 139 120 117 127 135 137 139 142 142 143 144 149 150 149
  94 101 106 107 108 109 118 115 119 120 119 128 123 117 113 110 101  86 105 110 110 108  92  85  84  87  91 100 110 113 118 115 123 140 149 153 140 132 115 117 127 129 134 138 140 139 141 147 146 145
  92  96 101 105 101 104 110 111 118 123 128 124 123 121 113 104  84  85  93  97 101  96  84  84  84  82  86  92 100 105  97  90 101 113 132 144 139 139 122 112 119 126 126 130 136 137 140 139 142 144
  92  94  94  99 100 105 111 117 113 118 117 126 121 113 110 100  74  80  86  90  93  94   0   0   3  47  89  90  95  52   0   1   8  94 110 129 128 139 137 123 118 117 122 128 129 136 139 139 137 141
  89  83  86  92  94  97 101 108 111 111 113 114 113 112 108  96  57  76  80  87  81  22  15  24  44  55  81  86  95  60  34  23  28  41  87 108 115 139 139 134 121 121 120 122 126 132 123 128 139 141
  84  85  86  88  92  94  97 100 104 107 111 114 111 109 100  89  58  51  60  62  47  42  49  52  53  52  69  85  82  73  69  66  63  60  71  84 132 147 144 137 125 121 121 120 123 126 131 132 134 136
  82  81  85  86  89  91  91  96  99  99 105 110 110 107  99  89  68  51  40  35  40  46  49  47  50  51  59  69  64  83  86  77  70  62  70 101 140 144 143 139 136 127 126 125 122 125 131 129 132 135
  71  82  83  84  84  92  95  95  99 103 110 110 110 101  95  88  78  49  45  36  39  43  46  43  45  54  65  77  93  99 112 111 109  99 110 136 143 143 143 144 139 135 127 128 122 124 128 132 134 132
  73  78  78  81  85  86  90  91  96 103 104 105 104 101  95  93  82  60  58  55  56  56  57  58  63  65  80  87  91 104 115 119 122 123 132 135 141 143 144 143 139 139 133 132 129 124 128 125 135 132
  74  76  79  78  81  85  88  86  95 105 109 105 101 102  97  91  79  72  72  64  59  64  70  80  85  87  92  89 104 112 130 131 131 127 128 131 139 135 144 143 144 137 139 135 131 131 129 128 129 131
  81  76  78  72  78  86  85  88  96  98 103  97  99  95  97  87  85  82  69  70  78  78  82  97 105  98  98  91 106 118 126 137 134 136 132 126 128 131 128 128 137 135 134 128 132 134 129 128 127 129
  72  74  68  73  82  82  78  84  91  96  98  96  95  88  86  80  77  75  75  88  88  91 108 110 131 125 117 110 117 127 141 140 138 137 139 133 121 124 117 126 122 128 123 124 134 132 128 126 127 126
  73  73  72  72  74  81  81  83  87  93  91  96  85  86  76  73  76  86  85 102 101  96  97 118 140 136 138 133 136 143 132 133 138 136 142 141 130 131 126 108 117 117 116 118 127 131 129 128 127 126
  69  72  69  72  77  77  81  83  84  90  90  82  76  77  69  72  74  89 100 102  73  61  62  70  78 107 118 110 108  96 101  97  97 100 105 125 131 127 126 123 116 121 118 115 124 131 129 126 125 119
  66  67  73  65  73  74  83  75  83  81  85  81  74  64  64  73  81  90  75  65  56  55  65  66  64  68  75  61  83  85  93  95  99  95  87  89 103 118 116 108 111 121 113 110 115 125 126 127 127 123
  69  66  69  69  69  74  77  75  78  78  79  70  64  61  70  69  72  63  56  56  58  67  59  63  68  63  60  70  75  79  73  88  83  81  80  82  80  96  97  73  93 101 109 116 118 127 126 123 124 116
  66  69  71  65  71  72  76  69  74  78  80  67  60  60  59  58  54  47  48  42  49  50  44  47  53  45  48  58  58  56  55  55  44  58  62  61  51  59  16  22  60  81  90 111 118 118 123 121 111 116
  64  61  69  65  70  72  73  76  69  74  73  65  58  53  44  27  21  21  22  23  21  13  14  13  20  18  23  21  23  31  32  41  55  56  60  75  52  41  46  86  81  64  85 114 118 121 123 120 122 119
  69  64  62  65  67  69  76  70  64  67  73  59  31  47  28  13  17  30  42  58  85  98 121 113 110 128 133 117 130 114 135 137 139 139 149 138 142 132 138 118 112 107  92 104 118 117 118 117 116 119
  62  62  62  68  62  67  62  71  70  77  67  54  40  53  54  69  63  87  94  90 100 100 103 111 136 148 150 154 151 156 153 145 138 136 131 136 139 141 139 121 123 117 114 112 116 112 115 118 122 118
  60  62  59  65  66  65  64  67  70  75  70  60  44  61  60  79  84  87  97  91  94  91  86  97 102 110 122 129 120 126 128 124 132 131 136 136 137 139 134 135 131 131 122 117 121 119 118 118 118 116
  63  63  61  64  65  70  65  66  69  73  74  73  69  72  69  65  72  83  85  87  85  83  87  79  85  94  97 108 103 108 112 114 117 115 118 131 128 134 126 137 135 136 121 117 120 117 117 118 116 116
  67  64  64  68  62  61  69  61  66  67  75  78  77  81  81  76  71  66  73  69  70  73  73  68  77  74  81  86  79  83  83  80  85  97 108 119 121 127 131 138 136 136 129 121 119 116 118 117 118 116
  64  69  68  61  61  57  64  65  65  72  77  74  76  85  80  76  65  74  67  64  60  61  68  64  59  60  62  61  60  61  73  78  91  95 103 110 123 127 129 137 136 134 127 121 119 117 114 111 117 116
  65  64  62  64  61  63  66  63  67  72  72  85  79  76  77  72  67  72  77  69  62  64  59  62  57  59  59  58  60  63  76  83  94 100 109 116 125 127 130 129 134 134 131 127 121 116 118 117 118 120
