P2
50 50
255
  29  30  19  20  14  15  17  20  18  17  10  14  24  30  47  48  57  77  83  90  94  92  91  92  91  92  74  64  60  57  55  47  40  37  30  29  27  25  25  25  24  28  32  40  45  43  64  67  56  54
  30  40  34  28  34  37  25  30  29  27  21  25  31  32  37  56  52  69  76  89  86  88  91  90  82  78  73  52  57  52  49  49  42  40  37  36  33  34  42  39  46  54  55  59  49  53  53  47  64  57
  43  41  46  40  44  48  43  47  46  41  47  43  37  39  40  41  43  58  69  70  79  81  83  83  80  75  68  56  49  52  57  52  47  52  50  49  55  50  58  58  68  77  66  69  63  61  60  68  60  59
  48  51  54  51  49  49  52  46  49  47  45  48  47  46  47  47  48  53  64  76  77  77  83  81  83  71  64  57  57  55  54  59  57  60  58  54  60  77  88  97 100  98  99  89  91  79  81  79  77  77
  59  58  53  55  63  62  66  56  50  47  43  46  48  49  50  53  49  55  62  70  77  72  81  77  77  68  59  55  60  66  62  61  58  59  59  69  84  97 111 125 129 126 126 122 112 104 100  96 100  92
  65  64  63  66  63  51  33  35  32  47  46  41  42  47  45  52  53  57  61  64  70  75  75  80  76  72  61  63  63  61  59  57  56  60  63  75  80  81  73  72  76  96 109 126 121 117 112 107 102 105
  75  67  63  39  44  68  74  68  64  53  44  24  37  39  43  42  49  52  59  63  70  77  79  81  80  73  64  68  65  60  55  53  54  58  63  45  52  79  95 114 132 140 135  40  72  98 107 108 111 110
  72  65  51  69  68  69  54  53  37  44  51  45  31  37  41  37  42  50  55  69  73  83  84  85  90  89  79  73  65  53  51  52  51  53  43  55  62  51  55  45  57  67 113 120 124  61  69  98 109 114
  69  57  61  56  28  25  26   8   1   1   0   6  38  30  32  38  41  45  53  67  73  86 102 107 104 104  88  78  66  55  48  47  46  42  44  36  34  16   5   2   4   6  21  43  99 115  78  77  96 109
  67  57  53  18  21  29  40   6   4   1   1   5   0  17  33  37  38  42  57  73  86  95 116 127 132 124 110  92  72  50  45  48  44  29  33  42  44  15   8   2   2   9  12  33  30  58  85 107  86  97
  60  55  15  17  42  60  63   6   9   2   1   2   0  16  20  42  39  39  55  73  89 108 128 136 144 138 127 113  87  56  50  51  15  22  37  57  59  22  10   2   5  17  17  46  32  32  33  65  82  96
  58  29  24  17  56  60  63  32   6   8   2   1   9  15  13  59  44  50  64  87 109 122 136 147 146 140 132 122 112  79  67  32  21  36  42  49  54  55   4   6   7  19  26  58  42  32  22  30  43  56
  45  34  43  27  35  35  41  43  56  55  58  68  66  51  43  53  52  63  72  97 111 123 143 150 150 144 136 130 132 125  76  77  72  71  65  60  56  59  67  68  66  65  75  78  72  71  83  70 103  60
  57  60  54  59  54  48  53  52  48  48  53  62  57  56  60  60  59  63  81 100 119 130 141 148 147 144 137 134 134 132 101  72  59  46  51  62  61  58  66  70  84  81 103 105 114 117 120 123 116 119
  69  66  67  65  63  62  57  59  66  55  47  59  67  67  70  73  69  76  90 108 122 135 145 149 147 144 138 134 132 138 131 112  63  45  44  47  52  54  55  71  74  79  92  93  95  96 107 115 119 126
  71  61  58  55  55  55  52  48  51  57  65  70  70  77  79  73  81  85  94 114 123 138 150 148 147 144 144 140 139 138 138 133 114  80  47  40  41  40  52  50  54  63  69  78  87  99 112 123 128 130
  72  69  67  58  59  55  57  59  63  70  72  79  86  87  83  80  82  85 103 124 134 140 149 148 146 143 145 146 143 143 143 138 134 127  98  74  61  55  47  48  49  60  87  85 105 116 126 131 132 134
  75  72  73  68  67  70  67  71  77  79  87  93  92  85  83  80  78  92 110 129 138 147 149 147 144 144 139 143 143 141 140 144 142 136 128 114 103 111 106 107 110 113 121 118 128 135 135 138 142 141
  81  78  79  79  84  84  90  85  91  96 100  95  91  82  79  79  84  97 112 131 140 147 150 147 146 143 138 144 143 141 139 143 143 143 138 132 132 130 127 129 131 128 135 136 140 138 143 145 146 147
  84  88  86  89  87  89  93 100 102 102 100 100  87  78  74  81  90 103 123 134 144 149 148 147 145 144 142 140 141 139 136 138 137 138 137 138 141 135 135 132 132 135 138 143 144 149 149 149 148 149
  97  99  97  95  94 100  99 102 104 107 105  95  86  75  79  85  98 117 130 139 150 149 149 149 148 144 143 145 139 137 134 135 131 129 131 132 139 142 140 138 139 138 143 147 149 150 151 151 150 150
  95  96  99 101  99 100 100 104 111 107 103  95  82  72  83  89 102 116 128 139 155 156 152 146 147 142 143 144 142 135 132 128 128 128 128 131 132 137 139 144 141 144 147 148 151 151 151 152 151 149
  96  93 100  99 104 102 102 106 102 106  97  90  76  79  87  98 110 116 125 139 154 161 152 152 147 144 142 139 138 139 134 120 117 119 128 128 128 132 137 139 140 144 149 149 151 151 150 146 149 148
  86  95  95 100  97 101  98 103 105 100  92  85  77  96 105 102 100 104 114 128 136 149 153 155 151 147 144 140 143 139 138 121 104 104 122 122 126 128 129 135 136 143 140 147 147 147 148 148 146 145
  87  95  92  94  97  96 107 109 107 100  95  82  83 107  99  91  91  93 106 111 122 131 135 135 145 153 152 146 144 141 137 135 102 100 112 113 121 125 126 130 132 138 143 144 146 144 144 143 145 144
  90  91  96  94  97  98 103 105 105  99  90  81  97 100  85  81  81  79  90 101 108 114 112 119 128 136 145 151 149 144 139 138 119  90 101 110 114 117 121 125 133 132 135 142 144 144 144 144 144 144
  89  89  91  90  97  94 106 109 102  96  87  85  91  85  78  74  73  76  79  85  95  96  96  96 106 116 131 144 147 145 140 132 127  97  88  97 108 111 116 122 126 128 132 133 136 138 140 143 144 143
  86  85  87  90  90  97 103  99  99  92  84  78  85  81  74  74  69  73  77  77  84  84  79  73  79  91 112 129 133 140 135 129 124 104  89  94 100 108 113 114 122 126 128 129 133 136 137 138 142 141
  79  82  85  89  92  92 101  97  91  83  81  72  80  75  43   1   0   4  76  73  77  67  16   3   0   1  84 106 118 127 129 126 122 120 100  92  95 103 106 114 120 120 127 128 129 132 136 136 139 138
  76  77  81  84  86  90  92  91  86  83  68  67  70  57  20  12   8  36  52  73  75  75  46  31   3   4  12  75  94 106 108 115 125 121 111 101  94  96 100 108 111 117 123 123 128 130 128 133 136 136
  78  75  79  79  81  87  88  90  83  75  63  51  57  52  37  37  46  48  51  57  62  63  54  48  45  43  40  46  64  80  75 106 126 123 115 108  96 103 100 105 108 112 117 115 120 126 131 135 137 134
  78  79  77  76  80  80  90  84  79  73  62  55  40  34  40  47  47  48  45  52  54  59  55  52  52  53  54  52  46  53  83 127 138 135 128 116 100  99 102 103 109 112 115 117 120 123 126 130 132 133
  77  76  78  78  80  84  83  82  73  68  59  58  49  42  43  40  42  46  50  51  62  72  80  88  85  75  63  69  86 115 132 141 137 133 132 119 113 101 107 101 106 107 113 117 122 120 126 125 128 129
  81  74  73  73  79  80  82  79  75  69  58  52  53  50  46  42  43  43  55  59  68  77  84 102 108 112 120 117 124 132 137 136 134 133 132 130 121 114 106 110 110 108 112 117 123 120 122 123 125 128
  70  71  74  72  72  82  79  78  71  67  58  50  52  51  46  46  53  56  61  70  75  83  96 103 117 119 118 121 130 130 134 136 134 135 135 132 125 119 113 118 115 111 112 116 117 119 122 120 120 121
  68  75  75  66  79  80  71  69  70  67  58  53  52  49  54  58  63  68  72  75  77  82  95 114 122 120 122 116 122 126 131 127 132 133 136 132 127 120 119 122 113 117 115 116 113 122 126 123 121 122
  69  75  69  70  73  75  66  66  66  61  58  55  56  55  69  74  89  96  86  85  81  87 103 113 123 125 125 127 111 114 119 127 123 123 129 128 127 123 120 120 122 119 121 119 116 119 119 123 125 124
  70  72  69  68  67  72  68  69  61  57  57  64  70  71  78  95 104 113 108 104  98 110 110 124 130 130 131 132 127 115 107 114 112 116 120 113 116 115 117 120 121 123 119 117 115 119 120 119 119 120
  71  65  71  70  69  68  63  59  59  56  62  75  71  57  57  55  68  98 105 108 101  96  89  85  90  97 119 132 133 122 120 121 111 107 105 106 111 106 104 111 121 121 122 116 119 119 115 121 121 120
  76  66  70  68  63  68  61  55  54  62  68  69  51  53  51  53  53  56  68  70  64  62  67  72  76  78  78  84 106 123 122 116 116 111 103 107 112 105 103 103 115 117 122 115 116 117 115 116 117 119
  70  64  66  66  62  63  59  55  58  59  65  56  54  52  55  55  57  52  51  52  57  62  71  72  76  78  72  69  76  82  98 108 109 107 103 103 105 104 103 101 108 117 120 118 116 119 116 112 113 112
  71  66  67  62  59  61  58  54  54  59  56  48  46  51  53  47  48  47  45  52  49  52  55  59  61  60  60  63  62  68  69  83  94  85  76  91  95 100  99 102 100 109 119 117 120 116 117 107 113 113
  68  63  68  63  62  59  52  51  47  40  35  31  35  35  21  18  24  29  37  35  33  35  31  36  36  38  40  50  54  59  53  54  55  58  55  46  65  72  88 101 104 110 112 116 112 117 115 103 105 111
  69  68  62  67  57  58  50  43  43  23   2   2  22  31  35  47  46  35  41  40  29  37  46  59  40  32  45  33  27  30  28  20  22   6   5  28  54  59  74  92 102 106 108 113 110 112 109 106 104 110
  69  69  68  60  63  57  49  38  37  40  31  56  76  81  88  95 105 112 109 112 112 110 119 120 133 129 134 137 131 134 124 108 100  89  96  81  63  55  69  93 103 105 105 111 108 103 101 100 110 108
  69  68  65  62  66  55  50  31  40  51  68  74  72  81  78  88  96 102 119 121 118 124 131 126 133 130 128 127 128 132 134 135 132 130 112 104  93  81  73  83 100 102 103 108 112 107 111 111 108 107
  68  68  65  64  64  58  51  44  49  49  67  70  82  72  72  74  81  83  90  93  99  99 105 111 113 115 124 128 129 130 128 130 132 126 119 118 110  98  96  91 100 101 102 107 111 104 108 112 108 108
  75  69  68  63  59  58  53  53  56  59  61  66  68  68  61  62  70  71  71  80  81  83  89  96  96 106 112 118 119 120 127 127 126 120 128 125 126 105 106 107 102 104 103 106 103 107 104 107 109 104
  78  65  67  63  60  55  58  56  63  61  60  59  61  59  57  54  56  57  64  66  64  66  64  68  76  80  89 101 106 110 117 122 123 121 128 127 128 119 106 104 103 107 107 108 110 105 107 108 108 104
  86  70  67  59  55  59  56  63  64  68  63  57  57  58  53  54  52  49  51  51  48  53  55  58  68  76  79  90 102 108 107 120 121 120 128 127 125 118 112 107 102 104 110 108 105 105 106 102 104 102
