P2
50 50
255
  20  21  27  26  25  25  23  25  18  23  17  26  22  32  24  34  81  78  87  98 108 117 115 119 116 112 116 119 115 100  87  83  84  78  40  38  30  44  22  28  26  34  35  42  48  42  51  54  51  43
  41  31  25  25  20  26  15  20  18  21  28  23  23  25  26  29  34  46  69  74  95 101 109 106 104 109 112 107 100  90  87  78  67  54  39  37  34  28  27  24  26  25  30  37  35  45  45  60  64  55
  25  36  32  37  33  36  39  46  43  28  31  30  27  28  35  36  43  49  64  79  87  92 102 104 103 102 109  90  84  85  76  54  60  56  65  33  50  35  38  36  52  65  64  60  65  53  51  47  52  55
  41  45  46  46  46  42  46  48  49  47  45  43  50  51  45  41  35  51  55  43  75  79  87  95  98 105  97  92  82  76  70  59  50  70  52  55  56  57  63  65  63  74  89  92  81  78  76  78  54  76
  49  52  48  54  53  50  58  62  55  53  48  45  47  49  54  52  53  53  53  55  67  73  89  94  94 102  94  97  78  76  72  70  65  73  71  71  64  62  83  97 116 124 121 116 106 102 101  99  92  94
  54  57  57  60  63  69  74  81  82  74  72  47  44  48  47  49  52  50  54  58  61  77  84  88  86  99  90  90  80  74  69  77  74  72  69  65  71  78 104 129 135 146 136 132 131 121 116 117 113 116
  65  66  60  64  65  39  33  49  87  85  80  36  46  48  44  46  46  51  53  55  58  68  78  84  88  95  98  90  79  76  77  79  73  64  57  64  78  77  45  92 138 133  59  52 110 124 118 118 122 119
  70  66  60  44  39  70  78  90  80  74  95  69  61  35  46  42  45  43  49  52  61  68  74  85  96 103 102  96  87  83  80  74  63  55  55  68  41  77  77  94  95 112 131 132 124  57  96 117 121 123
  65  64  49  27  63  52  33  15  10   1   1   1  45  54  42  44  45  42  40  50  57  73  78  92 106 110 120 112 106  87  73  59  56  53  55  50  47  33   7   2   3  23  30  62 109 124  80  95 112 122
  59  56  44  58  35  18  28   2   1   1   2   3   1  17  37  42  43  42  39  46  56  74  90 102 108 128 130 123 116  96  77  55  62  59  54  29  32   8   7   3   6  16  11  30  37  57 112 109 106 119
  58  50  46  20  14  45  56  15  11   2   2   9   3  40  24  22  57  42  41  44  56  79  93 111 129 141 144 139 125 110  89  56  61  81  23  36  55   7  13   3  16  20  13  60  49  27  50  89 108 119
  50  41  21  20  24  49  65  65  12   7   5   3  39  53  26  14  35  63  49  53  70  87 105 123 141 149 150 143 133 118 111  84  89  24  23  42  40  46   8  11  23  27  96  81  54  39  30  36  69 100
  46  37  39  28  24  33  42  46  54  67  77  91  89 110 106  81  31  87  67  64  74  89 110 135 141 152 151 145 136 124 122 130  99  99  85  79  69  79  96  93 100 101  71  71  73  87  72  84  79  89
  50  50  49  45  48  48  44  51  55  54  56  68  77  91  84  81  85  78  82  72  82  97 115 129 139 153 150 147 143 134 132 134 105  93  74  65  80  65  62  68  67  85  98 108 107 117 122 110 117 119
  69  65  60  62  72  72  77  76  76  73  83  70  72  74  96  85  85  92  84  86  90 103 113 127 142 152 150 147 140 136 129 135 135  95  55  44  52  55  69  70  81  93  98  99 109 105 107 116 121 128
  73  69  67  64  61  63  62  69  67  59  62  68  72  81  88  94  96  95  91  89  92 102 112 132 144 146 150 148 143 141 139 135 140 135 121  70  43  46  46  51  65  70  77  80  89  93 111 122 128 135
  78  74  71  70  63  67  62  64  67  72  73  83  88  98  98 107 103  94  91  92  98 101 118 130 141 148 150 146 142 142 142 138 144 142 140 131  99  98  88  60  55  58  68  89  98 113 125 131 138 139
  88  80  84  76  83  77  81  80  71  84  89  99 100 107 113 105  99  96  89  99  97 101 117 137 147 149 153 148 145 141 141 141 141 146 146 146 141 134 135 127 116 125 134 132 137 141 142 141 145 146
  89  91  87  91  96  95 102  99 104 101 106 110 114 113 111 100  97  90  92  92  99 103 123 134 146 151 154 149 146 140 142 143 140 144 150 151 148 143 145 143 143 145 146 148 147 150 147 153 148 148
  97  95  99 100 104 103 104 107 109 115 118 120 123 114 112  97  90  89  88  91  98 103 121 131 147 151 154 152 150 148 144 141 138 141 143 147 152 151 152 148 150 149 152 150 152 153 150 154 150 150
 102 107 106 108 111 112 112 117 117 117 118 123 120 116 106  97  85  85  90  94  98 108 131 135 146 155 152 153 152 148 146 143 136 139 141 141 147 148 153 153 151 151 153 153 155 155 155 153 152 152
  98 106 107 108 112 111 110 113 115 118 123 131 123 118 110  93  79  85  93  97 102 113 121 134 149 158 155 154 151 149 145 146 140 135 137 139 143 146 147 152 152 154 153 155 155 155 155 151 154 152
  97 101 103 107 106 112 118 115 112 120 127 118 120 112 106  86  79  89  98 104 105 115 121 127 147 164 159 153 154 151 148 144 141 135 125 130 136 141 143 143 150 152 153 155 155 153 154 151 147 150
  91  93  97 100 107 111 110 112 114 109 121 123 115 108  98  81  80 106 112 113 107 112 115 116 129 145 153 155 155 151 151 146 148 140 121 117 131 138 141 144 148 146 148 148 149 151 150 148 150 153
  89  94  96 103 103 107 114 113 114 123 132 123 116 110  96  84  92 109 113 112 101 102 106 109 123 132 136 145 147 150 155 152 151 146 139 112 116 128 128 135 137 136 146 149 147 148 148 148 150 148
  91  95  97  98  99 107 111 117 114 120 118 117 112 106  91  80  98 108 114  97  91  87  88  99 105 114 123 127 128 135 145 152 154 150 137 128 106 115 126 131 137 135 136 140 142 142 145 149 149 151
  89  89  91  96  99 105 105 109 112 120 121 113 114 103  97  75  96  96  96  90  77  78  78  83  92  98 108 107 104 112 125 140 149 149 140 133 111 105 117 121 127 123 137 135 136 141 145 148 148 149
  85  89  89  92  96 102 103 107 108 119 116 110 107 101  74  78  87  89  90  81  73  76  69  83  81  91  97  96  94 100  98 120 138 141 137 133 121 108 110 113 118 118 135 135 133 140 141 141 146 146
  81  85  88  89  91  98  97 106 108 106 116 111 100  91  55  76  80  81  79   1   0   0  12  78  83  86  88  23   0   0  10  90 115 124 127 135 132 114 107 112 113 122 126 130 133 135 137 140 139 145
  81  79  82  84  89  93  97  99 102 106 107 103  94  86  62  69  71  78  35  22  29  38  46  63  73  86  76  53  38  33  32  49  89  99 107 128 134 129 116 107 115 114 120 123 134 123 135 138 141 145
  79  80  80  80  87  92  95  92 103 102 103  95  91  83  69  45  47  45  38  41  52  45  46  47  66  72  71  66  54  57  55  53  57  76 125 146 142 132 122 110 113 113 117 122 124 129 130 133 136 141
  76  78  73  84  86  86  87  93  93 101 103  94  91  77  62  53  41  36  34  44  45  41  39  44  55  70  78  84  97  57  63  60  80 105 144 142 138 138 132 122 113 118 118 121 124 131 132 132 134 136
  74  73  76  77  76  81  85  91  98 102  99  93  85  75  65  51  47  40  42  44  47  38  48  59  71  79  97 103 108 108 108 102 112 137 146 142 142 140 135 132 123 122 122 123 124 126 128 132 132 132
  75  77  77  76  73  80  84  92  97  94  92  87  83  68  66  53  48  47  53  47  51  56  71  77  80  89  97 103 123 122 126 122 133 135 141 141 142 140 140 135 131 132 132 123 126 126 125 131 132 131
  75  72  72  72  77  80  80  88  94  92  91  87  82  72  67  58  63  53  48  62  65  73  81  84  84  89 103 116 129 128 126 113 126 132 135 135 139 141 141 135 132 134 131 127 127 126 125 126 130 131
  73  78  68  71  76  77  78  79  90  87  88  84  79  74  67  62  60  62  65  74  81  98 103 101  97  97 102 115 131 133 133 131 118 122 127 126 127 130 135 134 131 127 131 131 128 127 125 126 127 126
  73  73  70  71  76  76  78  80  87  80  80  78  69  68  62  71  66  80  78  92  99 118 126 116 112 108 121 124 135 136 137 134 135 122 115 119 116 118 117 122 122 128 131 129 128 127 126 124 124 125
  69  68  70  68  71  72  77  76  80  79  75  71  70  59  68  82  92  77  78  70  70  98 126 129 124 126 128 117 111 113 109 131 142 128 127 129 121 106 107 120 116 111 117 126 127 127 124 121 123 123
  65  73  71  67  71  72  73  74  76  70  66  58  56  64  66  83  78  66  54  52  51  58  70  76  93  86  76  84  85  91  92  94  98 124 130 122 122 118 114 118 111 110 113 127 131 123 125 123 123 123
  68  67  72  69  67  73  68  65  72  64  57  62  59  63  76  59  53  52  52  53  64  61  57  55  66  67  78  79  87  90  91  83  80  91 103 112 111 107 117 117 120 108 112 119 127 126 124 123 111 117
  63  67  67  63  68  68  65  62  67  65  59  62  59  62  52  52  49  51  51  54  49  50  51  51  53  61  65  56  65  74  76  74  69  76  76  81  97  75  76  96 102 107 112 117 122 122 126 121 115 116
  65  65  60  60  61  65  67  70  66  65  54  47  49  50  39  34  36  37  32  23  25  30  32  39  50  36  40  35  34  27  37  45  42  54  48  43  36   5  48  68  81  97 116 118 120 123 119 112 112 116
  67  62  65  61  60  65  64  63  64  60  52  48  35   1   1   7  19  27  44  40  50  52  43  51  58  64  64  68  78  63  83 108  98 101  70  50  46  83  72  72  73  88 113 115 118 122 111 113 112 118
  62  63  68  70  64  66  61  64  60  56  38  37  39  39  40  64  83  82  92 100  99 109 129 125 137 130 117 136 137 140 146 145 139 141 141 132 137 122 109  93  85  88 110 115 115 123 118 112 117 116
  59  60  62  59  68  65  62  69  61  58  44  41  50  59  71  84  83  87  87  85  91 102 115 125 141 136 140 147 138 131 131 133 131 135 137 136 137 121 120 111 109 102 109 112 111 117 117 116 115 115
  65  64  64  64  59  64  60  64  64  60  56  55  54  56  69  77  78  80  77  83  80  86  86  97 108 107 111 107 116 121 122 132 136 132 135 135 132 131 131 132 116 112 109 117 112 114 111 120 116 111
  68  66  63  65  64  59  61  60  65  63  64  70  70  65  60  64  65  64  71  71  70  76  75  74  83  88  93  93  98 103 105 107 120 124 126 134 127 135 132 135 122 115 115 115 116 117 114 116 116 112
  66  70  57  63  59  57  55  58  57  71  65  67  70  65  67  64  62  60  57  60  62  56  55  61  63  64  59  68  67  73  88 102 113 120 118 129 129 135 135 133 127 121 115 112 117 112 111 113 111 112
  68  64  66  60  62  58  57  53  55  66  68  66  68  69  62  66  57  51  55  55  52  53  53  51  52  50  52  60  70  77  86  93 103 115 122 127 129 131 132 135 128 120 118 115 116 112 111 109 109 110
  82  60  63  67  64  59  56  63  64  67  70  64  67  64  67  67  62  60  60  62  56  55  54  54  49  57  61  71  77  80  94 102 109 120 123 124 132 127 133 129 130 123 122 120 112 114 112 108 112 111
