P2
50 50
255
  30  35  31  41  30  27  25  21  21  23  25  20  24  22  26  41  25  56  77  86  82  99 117 122 122 122 115 123 122 126 117  93 102  93  90  52  73  34  39  28  31  36  42  36  43  53  43  58  56  46
  33  41  32  39  35  36  37  39  42  30  31  26  30  32  25  34  32  33  41  75  62  99 101 112 112 112 110 115 117 107 108  77  85  83  66  64  36  43  33  29  25  31  29  30  39  37  45  57  65  57
  43  47  45  40  46  44  44  47  45  47  54  41  47  46  40  39  39  41  62  47  78  82  85 106 107 112 114 114 109  99  95  62  78  66  59  52  41  44  42  37  47  49  57  68  66  71  58  58  48  62
  48  51  48  52  54  56  57  56  61  59  57  52  49  51  56  54  49  57  56  49  57  77  95  94 102 104 112 109 103 101  81  66  60  66  79  61  57  63  72  61  68  75  85  94  89  83  82  86  84  77
  57  55  56  56  59  69  77  83  87  91  83  70  55  53  53  54  59  57  57  63  61  78  87  90  93  96 101  99  98  87  82  70  80  68  81  76  77  70  74  86 103 117 122 116 117 110 109 104 100  96
  66  66  68  65  71  78  68  42  30  35  31  46  70  59  51  50  49  52  55  60  61  76  76  88  91  90  98 103 100  92  80  79  83  79  79  69  69  73  86 114 133 140 142 133 132 128 125 123 118 117
  69  67  64  64  40  38  82 101 108 110 107  92  61  31  54  54  54  48  46  58  59  67  76  86  91  95 107 104 103  98  86  84  81  72  61  55  68  79  45  64 143 148 140  70  70 113 125 121 119 122
  67  58  58  43  60  74  72  42  36  38  25  40  81  68  54  45  51  45  45  53  59  66  73  81  96 108 111 110 104  91  90  87  74  65  58  59  47  66  74  95  77  98  98 126 130 114  70 110 122 126
  59  56  37  64  60  37  27   7   5   2   1   2   8  35  62  49  52  48  49  46  55  60  77  89 104 116 122 123 118 113  95  81  59  60  54  38  50  43   2   4   6  10  24  40  75 111 131  99 114 127
  59  47  58  40  21  25  44   1  10   2   1   5  12  39  28  44  54  56  46  45  52  66  81  96 115 123 136 136 132 120 104  84  59  56  55  35  34  13   6   3   3  24  20  45  39  38 100 124 108 122
  57  43  27   5  29  46  61  20  10   9   2  14  19  79  50  27  11  82  52  54  58  74  91 109 123 138 145 144 140 129 110  85  75  61  31  38  46  13  11  10  20  25  26  95  48  42  37  66 109 120
  46  37  24  23  23  31  45  61   4  15  12   3  82  71  45  36  21  77  89  65  70  84  98 117 130 147 152 150 143 131 114 110  96 100  28  38  54  55   6  20  26  24 105  97  68  45  35  46  75 104
  49  50  46  45  38  47  47  49  56  74  72  79  90  99 102 117 116  75 106  83  81  94 105 118 138 147 154 153 144 138 121 123 105 102 112 100  91  76  84  94 102  91  83  64  86  70 103  91  81  97
  72  71  68  63  68  72  68  81  60  72  88  81  86  96  82  92 106  99 100  94  91  96 107 113 134 148 155 150 146 142 134 127 130 110 105  79  79  87  76  72  77  83  94 108 117 115 124 123 124 121
  82  77  73  66  69  71  77  78  74  87  86  74  78  84  91 103 104 108 108  98  99 104 109 122 136 144 154 153 148 141 136 128 135 135 106  61  58  59  65  76  76  90  93 100 110 110 109 118 126 133
  84  82  78  72  74  67  65  68  65  65  73  76  83  92 100 107 111 109 107 103  98 109 110 122 129 144 153 153 149 142 143 140 135 139 135 118  77  56  51  50  65  74  78  84  90  98 109 121 132 138
  94  87  86  89  86  87  78  86  82  78  91  85  93 107 114 116 116 114 107 104 110 108 113 117 135 144 150 151 150 144 143 142 140 140 142 144 135 113 107  80  69  63  90  82 100 112 122 131 137 139
  98  98  93  97  97  99  95  96 101 102 108 106 115 119 126 123 118 109 108 103 105 105 111 118 134 146 154 152 151 149 143 140 142 140 144 147 147 139 136 137 134 131 123 124 135 141 139 141 144 145
 104 106 102 108 107 109 111 119 121 120 122 130 129 131 129 123 112 105 103 104 103 104 113 119 134 141 150 154 155 150 146 142 143 140 144 151 153 149 145 147 147 149 146 147 149 151 154 149 149 150
 109 114 110 117 111 115 118 122 128 127 130 132 132 134 131 126 111  96  99 101 104 105 110 116 131 140 150 154 155 152 150 147 144 140 141 143 149 153 151 150 150 149 152 153 151 151 152 153 151 151
 110 115 116 119 118 128 122 124 132 127 131 130 137 135 128 122 107  97  93 100 107 107 116 116 136 141 149 156 155 153 152 149 148 140 139 141 147 149 149 155 153 153 152 152 153 155 154 154 153 152
 108 110 117 121 118 123 126 122 127 128 131 136 140 137 133 119 107  93  94  97 104 105 116 122 129 136 149 160 157 155 152 150 147 144 138 136 139 146 148 151 154 153 156 151 155 151 154 154 154 154
 101 104 109 115 115 117 119 131 131 125 137 133 131 132 123 109  96  94 100 109 111 115 115 124 128 137 147 161 159 156 155 151 150 144 140 127 135 141 145 147 148 151 153 151 154 154 153 153 153 148
  97 107 107 110 114 117 123 124 123 130 117 134 131 128 118 108  92  92 110 117 126 125 117 120 124 125 131 143 151 154 154 155 152 149 144 134 120 136 143 144 147 149 148 147 150 151 153 150 151 153
 103 101 103 110 111 113 118 121 122 127 134 129 132 121 115 106  97  91 111 122 125 122 115 110 112 115 122 133 144 145 149 149 154 155 151 143 118 124 133 135 139 143 139 148 149 149 151 152 153 151
  95 102 105 111 113 111 117 119 121 123 127 127 121 110 112 104  92  99 112 117 121 112  99  99  99 104 111 120 130 132 132 139 145 151 155 148 135 115 122 131 139 139 140 142 144 147 146 148 151 152
  92  96 104 104 107 105 110 115 118 122 128 124 123 119 112 109  87  94 108 107 110  95  85  84  83  90  95 103 115 117 114 117 129 144 151 149 137 118 116 123 127 133 130 141 138 143 144 147 149 150
  93  94  95 100 100 107 110 113 115 119 125 119 118 115 113  79  78  87  94  95  97  89  81  77  77  84  89  95 100 103  97  92 110 121 143 145 138 127 119 115 121 128 124 134 137 138 142 141 146 146
  90  86  90  99  94 104 102 108 115 118 116 121 116 111 104  81  72  80  87  91  88   1   1   7  20  86  89  93  95   3   1   2  16 104 120 127 135 136 127 117 118 121 125 134 136 137 139 140 140 144
  83  87  87  92  91  97 101 104 110 111 112 116 110 104  99  77  57  73  81  74  25  23  37  49  45  63  83  92  86  59  36  30  33  76 100 111 131 137 136 123 117 123 123 124 129 133 126 137 140 143
  80  84  87  87  90  94  96 100 101 108 109 109 105 105 104  84  51  40  43  44  43  54  51  47  49  58  72  77  74  67  75  69  59  66  75 108 144 145 138 131 118 121 122 122 126 128 135 132 138 141
  80  83  83  87  90  93  95  96 101 103 109 110 105 100  97  80  61  42  39  36  40  48  43  47  45  60  67  69  80  87  84  77  76  72  90 134 144 144 139 137 127 123 124 119 123 129 134 136 133 137
  74  77  79  84  86  89  91  91 100 105 111 110 104  96  92  84  64  52  41  41  42  47  45  46  53  61  75  82  99 111 106 106 106 110 127 139 144 143 143 139 135 127 127 124 123 126 128 134 134 134
  72  78  78  83  83  84  90  91 102 107 106 108  98 100  92  84  77  59  62  62  60  57  65  67  72  83  85  87 100 111 118 122 126 128 127 137 144 143 143 143 138 134 132 133 127 129 128 132 136 132
  76  78  76  75  81  87  86  89 102 104 104 105 100 100  91  84  77  77  58  67  70  80  80  89  90  92  85  96 110 127 132 130 130 132 129 137 127 141 142 144 137 138 135 129 129 130 128 127 131 134
  76  77  76  74  85  84  84  91  96 100  95  95  96  99  86  80  80  69  67  84  74  90 100 109 110 110 100 106 113 124 134 135 138 135 123 125 132 128 133 138 138 132 129 135 136 128 129 128 129 129
  72  71  73  72  80  83  83  86  89  97  91  94  86  83  75  82  79  83  90  91  90 109 113 136 137 120 118 117 125 137 140 139 139 139 135 117 120 123 128 124 127 123 128 134 131 128 126 127 129 129
  71  73  75  72  75  83  82  84  87  90  85  88  77  78  72  75  89  97 104  95  85  94  81 115 134 139 134 135 144 133 120 135 123 139 143 129 129 124 108 116 123 116 117 125 131 128 127 126 123 131
  70  75  72  73  71  81  82  81  82  86  84  76  65  63  67  76  88  92  89  70  59  65  67  69  82 101 110  99  92  90  96  96  99 100 116 128 125 125 123 116 123 117 115 123 129 129 127 126 124 123
  64  69  68  70  73  78  76  83  75  82  75  74  75  71  69  78  74  70  58  57  57  60  68  65  61  62  71  76  86  88  95 100  97  84  90  99 114 119 115 117 120 118 115 115 126 126 129 121 122 124
  64  73  72  62  68  73  71  73  66  76  77  69  64  63  62  67  59  55  54  58  61  59  57  61  59  56  68  73  73  77  82  80  78  81  77  82  93  95  83  92 102 110 116 116 125 126 122 124 116 118
  61  68  65  68  69  74  74  71  73  75  71  63  51  56  48  42  40  39  48  41  37  26  34  48  41  45  56  58  51  40  43  33  51  66  59  60  58  28  21  59  77  88 107 118 121 123 124 120 117 120
  64  62  67  74  67  69  77  70  73  73  60  49  47  45   2   1  14  19  25  31  36  42  51  44  55  40  44  40  42  62  65  46  83  82  87  57  41  33  93  81  71  81 110 118 122 124 121 122 118 117
  67  64  69  67  66  71  72  69  69  69  54  35  44  47  41  33  61  85  96 104 104 118 115 127 141 137 140 139 128 143 139 137 137 139 139 144 134 138 118 112 105  87 101 119 117 118 119 114 118 118
  58  56  61  64  66  65  67  72  77  66  57  40  57  59  69  83  93  97  86  96  95  95 105 120 140 145 154 150 155 149 144 138 135 132 136 140 139 139 121 122 115 112 111 117 110 113 118 120 118 115
  60  60  68  61  65  61  65  69  74  77  69  59  69  62  72  82  84  84  90  91  90  85  91  95 101 111 114 120 121 118 122 129 130 136 135 137 139 134 133 131 133 122 118 117 118 117 116 121 113 114
  65  58  66  63  60  68  71  65  70  73  74  77  74  81  70  76  66  77  75  85  80  83  78  85  85  97  94  99 108 110 111 113 112 114 131 128 134 126 137 135 135 120 116 121 116 118 119 118 116 115
  70  64  60  62  60  62  59  67  66  75  81  72  74  77  77  70  70  69  58  67  67  69  65  67  73  73  75  76  80  81  77  83  96 109 119 121 127 131 139 137 136 127 121 119 117 118 116 115 117 119
  65  63  64  61  61  60  63  63  67  70  77  78  76  76  76  76  74  68  63  62  64  62  64  62  60  60  57  59  64  73  80  92  96 105 110 123 126 129 137 137 134 127 121 119 117 116 115 117 117 118
  62  68  67  64  62  60  61  59  65  71  74  79  72  76  75  70  69  76  65  65  64  67  60  61  63  60  58  58  69  78  87  95 101 110 118 125 127 131 131 134 134 129 125 119 116 117 117 118 119 159
