P2
50 50
255
  46  44  38  34  32  34  35  32  25  36  37  36  39  37  41  44  50  79  88 101 113 127 135 140 141 136 137 139 139 131 120 103  90  87  50  40  37  38  39  39  41  44  45  43  58  58  39  37  31  25
  45  50  46  44  54  54  63  54  46  45  43  43  41  40  43  48  52  70  81  95  93 115 130 133 130 134 134 133 128 120 112  94  83  79  62  58  42  42  43  44  38  35  74  70  69  64  43  36  34  38
  59  55  56  64  65  62  66  68  72  65  58  58  57  53  46  53  61  72  78  92  90 109 119 121 131 131 129 129 120 105  99  92  79  76  74  59  64  54  65  75  85  91  88  82  85  85  60  42  33  38
  61  70  74  75  83  93 100  85  79  71  64  63  66  69  68  71  68  72  69  78  89 103 115 120 123 127 128 125 116 105  96  83  81  92  80  91  92  99  83 113 114 118 118 109 102 102 100  44  25  34
  77  78  89  95 109 116 123 123 121 113  88  77  65  68  63  72  69  77  72  78  88 101 109 109 116 120 119 118 112 100  94 101  96  99 101  97 103 120 131 133 136 135 130 131 124 122 112  44  38  39
  84  87  97  98  99  82  65  43  42  52  72  88  75  65  66  64  66  73  74  76  87  97  99 117 116 121 121 120 109 101 101 100  99  92  96 105 113 129 143 141 145 136 146 141 138 132 128  41  35  79
  84  85  57  44  83 119 137 139 138 130 115  80  60  71  63  59  61  64  72  77  82  95 104 115 117 122 122 120 112 103 101  99  99  91  95 110 114  58 126 147 151 148  54 135 136 139 140  39  30  59
  66  45  91  97  95 107  94  82  78  62  58  99  86  43  67  62  51  54  62  74  82  98 104 119 128 124 127 119 114 105  99  91  90  95  95  59 108 117 108 124 101 114 138  76 127 140 144  31  34  46
  53  89  87  67  46  38  34  22  11   7   5   3  44  76  51  64  56  57  63  71  87 104 116 126 134 136 136 131 120 102  90  86  86  95  79  88  80  39  17  21  17  35  46 137 109 137 146  36  28  84
  76  62  34  39  46  71  38  14   7  17  18  11  17  29  76  68  58  63  62  77  88 108 121 142 144 145 147 139 123 106  82  84  85  78  61  63  76  41  24  30  19  29  37  62 112 131 149  36  36  44
  23  30  56  65  65  87  74  22  10  18  20  10  38  21  33  95  74  70  77  87  99 114 129 146 154 152 152 147 125 106  87  89 101  50  67  86  97  40  28  23  35  43  35  40 101 131 147  34  35  51
  28  40  46  64  75  86  91  33  20  24  15  19  45  26  28  83 110  95  92  99 108 122 133 152 158 152 152 148 131 116 105 114  40  39  52  96 104  86  33  33  44  49  32  35  70 129 142  68  36  67
  44  40  47  66  80  86  96 106 108  95 108  95  96 122 111  66 125 110 106 107 114 125 133 152 160 159 156 151 138 127 126 117 140 136 132 105 110 118  93  94 105  77  82  99  73 102 143 126  37  83
  59  63  65  66  76  79  76  86  89  86  96 103 119 114 126 129 124 129 117 109 119 123 133 146 158 159 156 152 147 135 131 118 117 104 105 108 104  90  98 104  99 117 127 126 127 122 143 155  55  86
  90  91  95 103 107 108 107 103 100 112 106  93 104 121 123 130 129 129 118 120 120 124 131 149 154 160 158 155 153 137 132 132 111  68  78  86 100 101 104 111 120 123 131 127 133 143 149 154  40 103
  89  85  91  92  92  97  96  96  92  83  88 104 112 122 130 132 135 132 125 123 128 126 136 140 149 157 158 157 153 147 138 138 135 121  94  73  78  80  88  97 100 101 116 123 137 146 149 154  56 122
 101  99  97  96  87  91  91  97 104 109 116 119 129 136 140 140 137 130 127 123 135 129 134 137 147 157 157 154 156 152 146 144 145 147 132 126 116  91  89  94  96 113 123 138 143 149 152 153 145  95
 111 111 109 114 114 121 118 120 117 122 126 135 139 144 147 141 137 133 129 126 132 131 131 134 145 154 159 158 157 153 149 145 146 149 149 145 140 136 129 133 133 133 139 147 150 155 154 155 156  62
 122 123 125 131 129 132 132 135 135 136 144 148 149 152 149 144 133 129 127 127 129 126 132 136 145 151 158 159 158 159 152 148 146 149 153 152 149 147 144 146 148 150 152 153 153 153 157 156 157  91
 129 131 133 135 137 144 146 147 147 150 152 151 154 154 149 143 130 126 122 124 122 123 126 136 138 145 154 159 160 160 158 152 147 149 154 155 156 155 152 152 151 155 156 156 157 158 158 158 158 134
 133 137 143 144 148 146 150 151 152 152 154 153 153 155 149 138 127 124 116 119 123 123 128 131 138 146 153 156 160 160 160 157 150 145 149 154 155 156 156 154 153 155 156 157 159 159 159 159 158 157
 140 143 147 149 150 152 149 152 152 154 156 154 154 154 149 135 125 120 118 120 125 125 127 130 137 144 154 154 160 162 161 159 154 146 149 149 154 156 157 156 156 154 156 157 158 160 160 158 158 157
 136 141 142 147 151 149 149 150 153 154 154 156 156 153 144 137 122 113 117 119 122 125 127 130 137 143 144 153 161 164 162 161 159 152 148 148 153 156 157 156 156 157 157 158 158 159 158 159 158 158
 134 135 139 139 144 146 151 152 151 154 155 151 153 149 139 130 117 114 122 123 130 132 135 136 134 144 146 154 160 163 161 160 160 158 143 138 150 154 153 153 155 156 157 157 158 159 159 160 158 158
 125 129 135 138 140 147 144 148 151 145 153 151 150 145 138 125 115 112 122 131 135 139 144 138 138 140 144 143 147 152 156 159 160 160 158 140 144 150 151 155 153 155 156 156 158 158 159 159 158 158
 122 126 131 135 138 140 144 149 147 153 151 152 149 139 130 121 112 112 122 127 136 144 143 140 133 128 129 130 136 142 149 153 154 157 160 160 137 147 149 152 152 153 157 156 157 157 158 159 159 156
 124 128 130 131 136 141 139 147 147 146 149 149 143 138 127 124 113 106 119 126 130 143 144 131 119 111 114 115 123 127 139 139 141 145 154 160 148 133 146 149 152 152 152 153 154 157 158 160 158 157
 122 127 128 127 130 135 137 141 143 146 146 146 139 135 131 126 107 100 109 122 126 127 124 123 105 101  99 100 107 116 125 130 128 128 143 152 154 135 138 143 147 146 152 152 153 155 156 158 158 155
 122 121 126 122 127 131 133 136 138 144 147 145 141 135 132 105  93  96 103 110 120 119 115 104 100  92  92  95 103 111 115 120 109 110 125 144 152 139 133 138 144 140 148 150 150 153 153 157 156 156
 114 116 119 122 125 129 131 132 138 137 141 142 138 131 130  99  82  91  94  92 104 108  90   1   8  21  27  91  99 109  87   6  14  34 100 127 146 147 142 137 136 139 145 148 149 150 150 156 154 159
 109 111 114 115 120 123 125 131 132 135 137 135 132 132 123 100  77  81  88  95  95  58  24  33  42  53  66  86 100 109  72  44  39  53  90 116 145 149 148 136 140 135 140 141 143 141 149 154 154 161
 106 107 110 114 114 121 124 124 125 132 133 131 131 128 125 102  65  62  67  72  61  48  59  58  62  64  69  83  97  99  94  91  85  80  92 123 151 153 147 140 140 136 136 143 145 147 148 152 153 165
 103 104 107 108 112 116 120 121 123 127 130 129 131 129 126 112  97  56  44  39  46  50  51  56  56  58  67  79  94  99 113 109  96  89 101 136 150 151 147 146 139 140 137 139 146 145 145 149 152 169
  98  99 103 109 115 115 117 120 124 127 131 132 129 129 123 110  94  75  52  45  43  44  62  68  65  73  88  96  96 110 119 123 124 116 120 137 149 152 150 148 145 143 139 141 140 144 147 147 152 175
  94  98 103 102 106 110 114 117 127 128 127 129 131 126 124 121 114  98  83  85  87  88  86  94  96  97 100 107 106 114 116 125 132 131 137 141 149 150 150 150 148 146 147 141 141 140 146 147 153 176
  96  95  99 100 104 105 114 116 123 129 130 131 128 131 125 121 117 105 108  97 103 101 105 106 116 115 116 114 113 120 129 135 136 133 134 137 139 149 151 151 147 146 141 141 144 142 145 150 154 180
  90  90  87  96 103 109 110 117 124 127 128 129 129 128 124 122 114 116 112 105 107 107 114 117 127 133 126 121 119 125 132 137 141 143 141 136 141 142 146 147 144 141 144 142 141 143 144 146 154 175
  92  83  93  99 102 105 109 116 121 124 121 125 125 123 115 114 114 109 106 103 110 108 123 131 135 142 133 129 126 132 146 149 146 146 148 144 134 133 135 137 136 138 145 147 140 140 142 146 159 178
  84  91  90  97 100 106 106 111 112 122 117 121 115 110  99 106 101 106 107 113 123 122 124 129 139 147 144 145 144 144 151 149 146 148 151 154 137 140 132 128 131 130 138 143 141 139 139 145 161 181
  82  85  89  94 101 101 106 105 114 115 115 111 101 106  94  93  99 109 117 126 121 112  91  98  95 105 127 150 150 149 132 125 120 120 122 137 144 136 136 133 132 131 132 144 141 138 140 148 163 179
  85  90  88  90  99 103  99 105 107 114 111 103  90  91  91  95  99 108 110 104  92  82  79  82  85  83  92 100  99 101 106 111 115 116 112 115 123 139 135 131 137 131 132 141 144 139 139 143 167 180
  84  84  87  90  95  99  99 103 104 105  99  91  96  94  89  89  98  97  87  83  74  81  82  79  90  90  90  91  92  91 104 107 116 115 106 105 108 123 122 121 127 126 129 143 140 140 138 146 175 182
  81  81  83  87  92  94  95  96  99  95 100  96  90  87  83  81  76  71  68  69  66  68  69  70  69  74  69  68  77  86  89  87  94  83  96  90  83  97  88  90 109 124 135 138 138 142 134 149 175 176
  81  81  84  80  89  93  92  93  96 100  89  85  80  69  61  62  52  48  46  48  45  43  37  28  44  41  38  44  59  42  28  35  40  42  49  44  27  23  54  89  98 121 132 136 137 129 138 153 173 176
  78  79  79  84  86  91  92  92  91  95  86  81  79  60  19  19  20  24  27  31  49  78  84 101 103  97  98 103 107 110 100 114 111 120 138 134 102 109 122 112  95 120 135 133 135 134 137 164 175 180
  76  85  83  81  90  88  95  89  87  91  74  53  65  63  32  24  46  83 112 117 122 124 127 140 150 145 146 146 145 150 145 149 149 149 150 149 152 151 132 124 123 122 133 130 132 138 138 174 175 176
  79  74  78  85  86  85  89  94  92  85  72  55  74  85  95 100 106 114 118 111 109 121 119 120 123 141 152 155 155 158 154 153 148 140 144 148 151 149 137 134 135 131 132 130 133 138 148 172 175 179
  75  76  75  78  84  86  91  95  92  90  84  74  88  90  92 105 101 105 105 111 112 117 110 110 111 112 117 123 128 131 134 138 137 139 142 146 149 146 144 145 139 131 133 132 133 137 162 175 174 178
  74  78  71  77  78  81  85  92  98  98 100  95  97  95  85  93  93  96  98  97 105 106 101 104 100 103 111 112 113 110 121 124 120 124 128 130 138 143 143 146 140 131 133 135 136 135 167 174 174 178
  65  72  70  79  79  75  86  87  95  99 100 100 100 104  98  95  91  90  86  85  82  84  82  85  83  86  85  87  85  88  92  87  94 104 118 130 136 139 144 146 146 137 131 131 136 160 168 171 171 176
