P2
50 50
255
  23  24  22  23  22  19  14  17  20  15  20  18  23  27  43  46  57  66  84  96 102 100  99  97 101 101  98  81  73  70  57  54  37  35  38  24  28  26  22  25  28  33  29  34  39  53  52  68  50  59
  27  33  34  27  27  37  37  29  25  26  23  22  23  28  38  41  54  57  73  85  92  89  94  96  97  88  84  73  65  49  52  53  47  31  38  32  34  34  31  37  51  55  50  55  51  50  48  51  63  53
  40  38  39  43  44  44  48  44  43  36  38  39  37  34  34  44  53  49  67  76  78  85  87  92  85  84  73  66  56  52  48  59  44  48  38  54  50  47  60  51  62  73  58  67  62  63  56  63  56  56
  50  49  48  46  50  50  49  49  47  45  45  45  47  45  45  44  44  50  60  68  75  81  85  90  86  82  73  63  57  58  57  61  57  58  59  55  56  66  76  99  94 102  94  90  79  80  81  84  85  71
  56  55  50  55  59  59  63  70  55  54  47  44  44  46  49  51  54  53  54  69  75  73  77  86  84  81  70  63  66  68  66  61  62  63  58  64  84  97 119 128 133 131 126 115 107 103 104 105  90 109
  63  62  63  64  67  64  40  27  32  37  39  44  40  41  45  46  53  52  59  55  67  75  77  81  80  81  68  62  66  64  66  58  59  63  66  75  91  84  71  90  84  97 114 121 122 116 109 106 108 106
  70  63  65  45  44  76  81  75  73  67  53  38  36  39  39  41  44  48  50  63  67  72  84  87  89  85  72  72  73  63  58  55  54  58  59  29  56  85 104 125 136 136 115  63  71 102 108 110 114 114
  70  66  48  38  73  68  51  45  23  34  54  52  37  27  41  39  38  46  54  64  67  83  89  91  93  95  89  78  70  59  49  51  52  54  39  64  49  54  41  42  50  66 103 117 101  74  87 110 114 116
  67  58  44  55  43  21  21   4   1   0   1   2  19  36  30  39  39  40  48  62  72  88  94 110 110 109 106  94  75  56  47  49  51  50  39  30  30   6   4   3   5  13  26  60  98 108  87  97 109 117
  59  51  59  22  27  34  43   5   1   1   1  12   1  10  30  41  35  40  48  62  77  93 107 128 132 132 121 103  84  55  49  49  51  25  34  52  38  13   4   2   7  10  27  39  37  75  94 101 103 114
  60  43  20  12  41  60  55  15  10   7   4   0   4  25  13  47  38  39  50  74  88 102 122 137 144 142 131 116  98  82  51  66  15  25  41  53  51   8  10   2  16  22  66  47  30  28  40  75  87 102
  52  29  24  24  30  47  52  43   3   2   1  45  41  35   9  31  66  49  53  80 102 120 134 147 151 145 138 128 123 104  75  44  39  53  64  68  62  62  39  15  30  69  63  68  43  52  38  44  67  87
  48  37  51  40  43  39  41  47  51  62  54  65  59  74  67  61  63  59  65  88 105 122 131 148 151 147 140 134 131 131  96  89  80  67  64  56  58  63  65  68  67  71  74  86  86  87 100  98 108  93
  60  65  59  59  56  64  62  59  60  48  70  65  60  66  72  68  72  69  76  88 104 125 137 147 148 146 140 133 130 132 128  99  62  51  50  57  59  62  68  77  84  97 108 111 114 115 115 117 119 128
  67  63  60  59  63  59  66  60  62  51  54  65  73  74  80  81  78  77  85  95 110 127 138 148 147 146 142 137 135 134 138 131  87  50  43  39  42  50  55  62  67  70  85  85  91 102 111 122 125 127
  73  65  62  56  54  49  52  53  54  65  70  74  78  85  87  86  77  86  90  98 119 124 138 148 149 146 142 142 142 138 140 139 133 114  77  67  57  48  46  51  55  60  68  86  97 119 130 132 131 133
  77  73  70  64  65  67  72  68  69  74  82  86  91  97  92  86  84  86  90 102 124 135 145 149 146 146 142 142 142 141 142 143 141 136 132 110  95 100  97  96  97 100 109 120 122 131 132 137 138 137
  83  75  72  76  77  80  83  85  84  89  95  98 100  93  86  86  85  87  94 111 127 138 146 150 148 145 142 138 140 142 140 142 147 146 144 131 129 128 128 130 131 134 136 137 139 142 142 145 149 143
  87  85  84  87  87  94  92  97  97 106 105 106 103  92  81  85  81  87  92 113 128 142 148 149 150 146 145 142 140 139 138 142 142 143 146 141 142 139 139 136 136 142 143 145 144 148 150 150 149 147
  96  91  97  98  94 102 102 106 108 108 106 109 102  86  80  78  82  91 100 122 130 146 150 150 149 149 146 144 140 139 135 136 137 137 140 142 146 146 144 138 144 144 146 150 152 151 152 152 151 150
  96 101 101 101 100 101 104 108 112 114 114 108  97  87  77  78  86  93 109 121 133 148 155 150 151 148 145 142 144 139 136 133 133 134 133 136 138 148 147 146 147 148 150 150 152 152 151 152 151 147
  89 101  99  98 102 107 102 108 109 111 110 105  96  82  76  86  93 101 111 116 129 154 162 155 150 148 147 143 139 140 135 132 128 127 130 133 135 139 144 145 147 147 152 153 152 152 150 151 147 146
  91  92  97  98 102 102 102 108 108 108 109 101  90  75  80 103 106 103 106 108 123 139 152 156 153 153 148 143 142 143 141 131 116 114 124 130 130 130 136 142 142 146 146 149 149 147 148 146 146 143
  89  91  96  98 101 104 103 111 112 114 107 102  85  80  97 109 103  96  97 103 114 126 133 143 144 145 150 152 149 146 140 137 128 106 116 116 125 131 133 136 137 142 145 146 147 145 143 145 145 146
  90  93  92  94  98 102 106 110 108 115 103  92  85  87 104 103  90  85  85  90  98 108 114 121 127 130 134 148 152 148 146 140 132 108 100 114 116 123 120 128 136 136 136 145 145 143 145 144 146 144
  89  89  90  94  96  98  99 105 111 104 104  91  85  92  96  93  80  75  74  79  85  90 102 105 103 107 119 129 142 148 146 139 133 124  97  98 110 114 120 126 129 131 132 136 138 141 142 145 144 145
  86  84  89  93  93 101  98 108 110 105  99  91  74  83  85  84  75  73  69  75  81  82  90  92  85  82  90 107 127 136 142 139 130 120 100  97 103 106 115 117 126 129 131 131 134 139 139 140 143 143
  75  84  83  89  92  98  97 100 105 102  90  87  71  80  77  72  23   0   0  40  73  80  82  52   2   0   0  64 102 120 131 130 125 126 114 102  98 104 113 117 123 123 127 129 131 134 137 138 141 140
  77  80  78  85  87  92  94  94  96  96  85  78  64  72  72  52   9  10  14  36  69  78  82  61  39  22   2  11  55  88 106 112 118 128 122 114 102 100 106 108 113 117 122 126 129 127 131 137 139 137
  80  77  77  81  85  89  92  95  97  87  81  75  52  51  56  41  36  42  46  48  56  66  63  64  54  54  46  39  45  63  81  87 113 129 128 120 106 102 106 106 113 116 117 114 125 129 131 134 137 136
  76  76  76  78  81  84  85  91  87  86  78  69  56  45  35  33  42  49  39  42  45  53  56  55  56  60  54  54  53  50  60 103 136 138 136 127 116 104 105 108 110 113 117 121 126 125 127 131 133 131
  74  74  77  77  77  83  89  91  89  82  76  65  49  46  41  43  43  43  38  45  49  57  61  82  86  89  89  66  68  95 118 137 140 136 134 131 123 110 106 111 109 111 116 122 123 124 127 127 130 131
  73  80  70  72  72  78  82  85  85  79  70  66  54  47  46  47  39  45  43  44  57  70  73  81  98 109 116 118 119 126 132 137 136 136 133 133 128 126 117 117 115 116 114 117 120 124 123 127 125 128
  74  72  71  68  74  76  83  85  80  75  74  68  53  53  50  45  49  53  57  62  72  74  85  94 108 122 124 119 117 127 131 131 136 136 138 136 133 129 126 121 123 116 118 119 117 123 124 123 125 127
  75  67  72  72  74  79  78  79  75  72  71  63  54  53  47  53  56  69  70  78  83  80  82  93 107 119 127 127 126 121 128 129 130 131 130 135 135 126 125 123 125 120 120 123 119 123 125 125 125 126
  70  71  72  69  70  72  77  75  74  69  68  56  54  58  65  63  74  84 100 107  96  88  89 101 115 127 130 130 129 124 116 122 116 118 123 126 120 125 124 120 122 123 120 123 120 120 122 125 122 122
  73  68  67  72  67  68  71  76  72  67  58  56  63  74  75  79  83  91 114 116 113 108 112 117 115 130 134 132 135 135 122 112 118 109 114 116 110 116 116 115 120 125 124 119 117 117 120 122 120 119
  72  70  66  68  68  66  74  70  63  57  56  59  69  78  71  54  54  55  70  90  91  97  83  89  83  86  88  94 117 126 129 119 116 120 108 105 109 112 106 107 114 120 120 119 117 115 120 118 119 117
  72  67  67  67  67  65  72  62  58  55  53  61  71  62  52  51  53  53  51  53  55  58  66  71  75  76  77  79  81  86  95 116 119 117 109 103 109 109 103 103 110 120 125 117 117 119 115 116 115 116
  68  67  65  62  67  63  63  61  57  57  55  60  53  51  49  54  53  51  55  51  55  52  54  63  71  73  77  76  69  67  71  90 101 101  97  96 101 109 105 100 105 114 119 119 122 117 117 111 115 119
  66  66  62  66  60  61  65  59  52  54  54  53  38  38  42  44  47  39  40  44  42  43  41  50  45  52  56  57  61  64  55  66  64  74  62  56  67  83  90  99 106 108 119 115 117 119 114 106 111 115
  66  64  68  67  65  59  63  53  52  48  36  25  23  12  21  19  14   8  13  17  20  19  20  19   9  11  16  22  23  29  35  33  33  25   4   4  49  55  73  88 104 109 114 114 112 115 102 105 108 114
  66  68  63  66  63  59  56  55  45  34  34  22  10  36  64  74  86  89  96 105 102 106  98  85  92 100 108 117 129 126 118 102  86  65  66  76  67  59  64  84 107 109 111 115 113 105 105 107 109 112
  65  68  64  60  61  63  57  51  37  34  47  53  65  73  81  88  88  93 109 116 127 129 127 136 142 147 142 135 130 131 135 136 135 134 129 111 106  88  79  78  99 105 107 110 113 109 115 109 111 106
  68  65  64  63  55  63  56  53  45  46  49  57  71  72  78  79  73  80  87  91  99 111 105 113 116 116 118 125 128 128 133 131 131 132 126 119 117 107 102  93  99 108 103 109 111 109 111 110 110 110
  69  68  65  61  60  59  59  55  57  54  63  57  66  69  66  69  72  71  73  79  87  89  91  93  97 104 111 114 118 125 127 129 127 129 122 130 126 116 108 106 105 108 106 108 106 109 109 109 108 103
  74  68  63  65  61  60  56  59  54  62  66  59  58  64  60  64  59  59  63  62  68  70  67  72  71  76  82  86  98 110 113 116 126 124 120 127 128 126 114 105 106 108 109 108 110 107 109 108 108 105
  87  71  66  63  61  59  57  58  58  62  60  65  62  56  54  56  59  51  53  52  51  54  49  53  59  63  72  84  92 101 106 111 116 126 127 129 128 127 117 114 108 107 110 110 106 111 109 110 102 103
  89  80  62  66  62  56  63  61  59  59  65  61  66  65  54  57  55  50  48  46  49  47  43  51  61  67  71  81  90  92 109 115 120 122 126 129 129 123 122 114 109 108 109 110 106 104 103 102 102 104
  92  87  65  70  58  59  57  56  56  65  63  63  62  58  59  60  54  54  57  53  55  54  54  59  67  75  84  91  95  97 110 116 117 120 122 126 125 122 120 117 114 109 111 105 108 105 103 103  99 101
