P2
50 50
255
  44  58  52  48  49  42  41  37  44  47  30  36  32  39  37  38  43  43  45  42  60  95  90 109 125 140 143 148 146 145 146 147 143 137 119 112  97  84  51  45  44  42  35  36  44  43  47  49  68  40
  46  46  63  39  63  52  51  50  57  65  63  62  65  52  47  59  47  47  53  61  52  88  86 103 117 128 143 144 140 144 144 143 133 117 107  97  85  67  62  56  48  37  48  45  42  75  70  76  77  44
  64  50  60  68  65  62  66  73  79  79  78  74  72  71  69  72  76  67  67  67  71  91  84  91 114 119 131 135 139 144 138 136 127 110  92  80  93  86  71  71  72  77  71  97 100 103  98  99 102  96
  61  68  65  68  74  79  81  87 107 109 119 113 102  81  76  72  75  80  78  81  72  75  81  92 100 118 126 135 133 142 135 132 120 110  89  99  92  95  94  95  99 109 114 127 130 132 129 118 112 106
  71  82  81  82  83  87  97 109 118 129 135 131 133 119 103  91  81  78  76  77  76  82  84  88 104 117 124 129 128 135 132 128 119 109 103 101 104  99  97  98 114 134 145 148 148 146 145 138 134 131
  86  86  85  85  87  92  94  58  42  75 126 126 100  46  96 107  92  83  78  73  78  80  84  87 103 109 118 128 128 133 129 125 113 112 109 105  97  94  96 114 132 135 144 139 148 157 154 154 148 144
  86  87  85  81  77  43  57 108 124 140 146 140 138 127 106  42 100  86  83  75  71  75  82  83  97 108 118 132 131 134 134 126 116 112 106  96  88  87 105  68 126 147 157 158 152  75 130 149 153 153
  82  81  77  54  36  92  94  71  43  41  35  36  52  99 107 106  79 100  93  77  66  62  77  88 105 114 123 134 138 135 135 132 121 108  93  87  80  79  92  93  83  74  86 118 132 147 143 128 149 157
  80  70  45  47  76  56  36  25   3   9   4  14  30  45  42  89  96  71  93  82  73  65  73  93 103 121 132 142 150 149 146 138 111  99  88  82  82  65  23  13  17  17  25  41  36  75 136 128 140 160
  71  59  59  61  43  37  40  14  15  12   7  23  23  71  51  53  36  90  92  91  75  72  76  96 112 129 140 158 158 157 155 145 118  99  94  85  71   9  22  14  13  32  29  87  89  44  59 147 138 160
  75  64  47  27  30  45  56  16  18  19  13  28  26 130 111  75  44  32 102 105  91  86  91 102 121 132 147 166 168 163 163 148 124 109 106 117  40  12  16  13  21  32  37 135 128  83  45 100 143 159
  51  44  32  33  27  35  65  47  22  19  20  26  69 135 128  79  43  39  19 124 123 105 110 111 126 136 154 171 175 169 163 152 130 125 126  37  42  42  11  25  34  36  70 130 129  98  48  66 125 155
  72  55  53  50  38  42  64  71  77  94 109 104 125 132 109 148 129 134 120 113 139 124 114 121 125 137 155 169 173 171 165 156 138 135 135 139 142 134 117 128 134 133 110 109  97  89 110  71 107 147
 102 101  85  78  74  78  77  77  78  76  87  97 103 111 115 133 129 128 143 132 143 134 121 125 127 139 149 166 173 171 168 161 147 139 143 142 119 115 121  98  98 106 108 121 120 134 124 150 131 146
 115 109 105  98 102 106 109 109 121 117 117 115 120 120 108 108 126 132 135 143 141 135 132 130 133 137 149 159 170 173 170 166 158 141 141 138 115  97  92 100 115 109 120 133 133 139 144 146 150 157
 114 111 105 106 103  98 102 106 113 110 111 114 104 108 113 121 126 135 142 145 145 140 134 134 138 140 145 153 163 171 171 169 163 153 145 148 143 117  97  81  85  95 109 113 117 127 132 142 150 159
 118 114 118 118 116 112 105 112 106 109 117 119 118 127 128 129 138 150 150 147 143 139 135 138 143 143 145 149 163 170 169 168 167 159 153 153 152 151 136 126 103  90  93  99 111 121 135 144 159 161
 130 128 127 124 127 129 127 129 132 129 129 129 130 137 138 147 154 155 151 151 144 138 137 139 138 139 140 145 158 169 173 172 170 163 155 153 158 159 158 147 145 139 137 139 137 143 150 157 163 165
 133 135 135 136 137 139 143 148 148 141 148 147 150 148 156 160 162 163 153 147 139 139 135 135 135 138 142 144 156 166 171 173 173 172 158 158 159 163 164 161 156 156 153 157 158 162 163 163 168 170
 135 137 137 139 140 144 146 152 156 158 157 158 160 160 161 166 165 163 155 146 137 134 135 133 134 135 139 143 147 157 167 172 173 173 168 160 155 162 166 167 166 163 163 162 163 166 168 166 169 171
 137 140 139 145 148 150 152 155 160 161 161 163 164 168 166 165 168 161 152 139 133 130 129 129 135 133 139 144 148 158 165 169 174 175 173 169 157 159 163 167 169 168 166 166 166 166 170 171 171 173
 138 142 146 147 149 156 158 163 162 161 163 164 166 167 167 166 167 162 158 140 130 125 126 133 133 135 137 143 148 156 162 169 175 176 176 173 166 157 158 163 169 169 168 167 168 168 170 171 173 173
 136 137 139 147 149 154 155 161 163 160 163 165 166 168 167 168 168 163 153 139 126 121 128 134 133 138 137 142 147 151 157 168 176 181 175 175 173 160 157 162 166 168 168 170 168 166 170 171 171 172
 131 133 138 139 143 147 151 155 155 159 163 164 162 167 163 163 164 156 144 131 124 125 129 135 138 144 145 144 143 154 156 163 171 174 174 174 175 170 150 156 163 168 165 168 170 168 170 170 172 173
 129 128 130 133 135 139 144 151 155 160 155 161 162 161 163 161 159 149 140 128 126 122 133 139 144 146 153 146 147 149 148 147 157 165 171 172 174 173 172 152 160 165 168 167 166 160 168 170 170 171
 123 125 125 131 133 138 145 143 156 150 159 161 163 164 162 163 154 144 136 127 122 120 128 137 147 153 153 146 139 135 138 139 140 152 157 161 166 168 175 168 153 162 163 166 163 167 167 169 171 171
 121 127 127 133 138 138 141 143 151 149 155 157 157 157 160 160 149 142 135 130 114 118 127 137 142 152 148 135 125 118 116 126 130 138 144 147 149 153 171 173 147 155 159 163 163 167 166 168 170 170
 121 123 125 133 135 135 140 139 146 145 149 150 151 155 159 154 147 142 143 125 106 106 121 129 135 136 133 124 109 108 106 111 117 125 135 138 134 135 157 170 157 150 155 160 160 163 163 163 166 168
 112 120 125 127 132 132 134 134 138 142 146 146 149 158 156 153 145 145 130 105 100 108 112 120 125 131 117 113 104  97  96 102 114 118 122 111  70 117 138 162 160 149 149 153 156 157 163 163 165 168
 105 114 120 121 126 127 130 130 138 141 144 146 148 148 154 150 145 144 132  89  93  91 101 109 113 117  35   6  22  24  40 101 109 121  44  12  25  48 124 142 162 154 149 154 151 158 162 162 162 163
 103 107 110 113 117 124 121 126 132 137 140 143 142 145 145 145 146 142 127  88  81  86  94 101 100  37  29  39  55  60  77  97 112 115  52  45  41  65 108 137 159 160 153 148 149 150 155 158 153 158
 101  99 109 113 113 118 120 122 126 128 135 137 139 144 143 142 143 139 133 101  66  75  76  77  61  51  66  68  63  63  70  97 102 108 100 102  84  88 111 146 163 161 157 151 151 150 155 156 159 161
  97  96 103 106 113 110 115 121 122 126 130 133 139 139 143 139 143 135 132 115  76  47  44  48  43  50  62  61  62  59  79  92 105 114 118 114 103  97 120 151 164 161 160 156 156 154 153 156 158 159
  96  94  96 106 106 109 111 118 126 129 127 134 135 139 145 139 138 135 133 115  91  67  53  47  49  52  74  82  91  93 101 106 114 127 134 135 131 120 138 154 163 163 161 160 155 157 156 154 156 157
  89  90  94 100 104 109 110 113 118 124 124 130 138 139 141 142 137 134 135 129 118  96  91  84  97  96  94 103 101 110 115 121 121 127 133 139 143 142 146 156 162 165 164 163 160 159 154 155 154 155
  85  88  94  98  97 105 108 110 114 119 125 132 138 137 139 139 137 136 135 130 124 117 111 111 111 111 117 122 129 129 126 122 128 133 141 145 143 144 144 150 160 163 165 162 161 162 157 156 155 157
  87  89  90  95  97  98 107 110 107 114 123 133 135 137 138 141 141 138 135 127 122 122 121 111 117 115 127 132 137 139 133 128 133 136 144 147 150 151 147 147 153 156 163 160 158 160 159 158 156 157
  87  91  91  94  94  98 106 110 111 115 121 129 134 133 134 135 134 132 126 122 120 117 113 112 118 117 133 139 147 150 137 139 135 143 151 156 155 152 156 143 131 146 149 153 154 154 160 158 155 155
  81  87  83  91  99  95 102 110 110 114 122 123 127 128 129 127 120 118 108 116 110 116 114 127 132 129 137 143 149 157 153 154 152 156 162 158 159 155 162 153 144 140 142 145 146 150 156 157 154 154
  85  87  87  90  90  92  98 104 108 113 113 117 121 126 122 120 114 111 104 105 106 121 130 133 125 114  98  99  99 124 158 161 162 154 146 134 122 129 140 156 140 147 140 142 145 147 155 157 151 148
  80  82  87  89  87  98 101 103 108 108 110 114 124 117 112 110 100  92 101 102 109 120 122 112 106  83  87  87  86  90  99 102 120 111 113 115 121 121 122 127 144 147 144 139 140 146 154 153 154 149
  81  82  82  90  90  90  98 100 104 108 109 109 111 110 110 101  98  91  93  98 108 102  99  86  75  82  87  93 105 100  94 101 102 106 115 121 126 127 114 115 127 141 135 137 140 138 146 150 153 149
  81  80  82  83  87  88  92  96 101 101 105 104 107 103 105  93  98  94  86  85  80  82  71  72  74  79  83  77  80  87  86  85  92 100 103 104 106 105 108 104  96 114 100 119 134 142 146 151 148 149
  75  81  80  84  87  88  87  95  97  97 100  96 105 105  95  92  81  78  63  71  67  59  54  59  54  49  41  44  52  54  58  65  79  71  64  66  59  77  89  82  56  36  85 104 117 139 146 148 148 145
  80  82  85  85  83  86  86  96 100 102  98 100  97  96  85  84  78  48  29  31  24  21  30  26  34  36  45  56  66  72  60  59  53  84  98  89 101 122 111  78  39  89  95  90 119 141 145 147 146 148
  79  80  74  77  81  88  89  93  94  95  96  96  98  95  77  64  73  28  18  33  51  91 117 118 124 128 139 154 153 152 151 156 153 156 154 153 155 154 161 162 156 142 133 125 117 133 143 146 145 147
  72  77  73  81  82  82  86  93  91  94  99  99  97  82  63  65  87  95 102 114 118 125 127 119 126 129 127 133 146 172 170 170 166 171 168 166 158 154 158 160 163 154 139 135 132 135 139 142 148 150
  69  73  78  80  77  80  82  85  88  95  99 101  96  93  82  88  95  94 111 105 113 122 122 121 121 122 116 113 117 124 132 145 148 148 150 148 147 148 157 161 160 148 149 139 140 137 145 143 148 154
  74  75  80  78  77  78  83  87  89  91  96 101 104 105  98 104 106 100  93 101 101 105 109 114 115 116 118 119 115 117 120 126 128 134 135 140 140 143 149 155 156 148 155 150 143 139 144 145 152 177
  73  72  75  74  75  79  78  82  86  88  95 100 102 109 107 104 113 108 100  99  94  92  94  88  87  86 101  96  92  98 101 106 104 110 112 106 108 120 132 145 145 151 155 153 144 138 143 143 151 186
