P2
50 50
255
  23  19  23  20  25  21  20  19  18  14  21  22  19  35  29  38  70  93  78 119 125 133 130 129 129 133 132 137 129 122 118 112 119 104  83  50  35  52  44  39  39  48  57  81  85  81  84  81  94  86
  12  30  29  25  25  24  21  12  20  24  20  19  20  23  31  40  60  61  66 103 111 119 124 122 118 122 125 126 117  93 104  94  83  59  55  28  47  28  32  25  28  41  36  47  50  77  69  64  53  69
  35  35  34  36  31  33  35  41  30  30  27  23  26  23  30  35  49  59  67  79  91 115 113 109 116 118 117 106 101  65  81  59  53  48  54  42  34  28  26  31  28  26  30  34  42  42  58  61  61  56
  42  45  44  42  40  46  49  49  47  48  44  40  47  38  36  41  45  42  69  86  83  99 102 111 116 115 109  95  78  72  66  65  62  64  42  53  37  40  44  44  46  57  67  71  56  55  53  42  69  55
  49  54  51  53  53  56  56  56  56  53  48  47  49  51  67  53  50  48  53  58  72  98 102 104 111 111 109 100  81  59  58  59  72  66  64  67  65  63  67  83  83  99  98  88  77  78  76  83  59  61
  56  62  61  57  62  69  77  77  79  70  63  51  47  50  50  53  55  58  54  54  80  88  99  88 107  97  98  88  79  73  84  67  80  75  73  63  72  87 115 132 143 139 127 117 113 101 108 100  99  93
  68  62  65  66  65  44  35  74  93  94  71  41  47  51  45  50  49  58  56  59  63  74  89  92 102 102 103  93  83  79  75  81  77  71  67  73  83  99 116 113 119 133 134 144 130 127 126 122 112 124
  70  66  66  49  41  79  75  64  48  60  73  68  51  35  46  50  46  49  60  59  65  77  88  99 109 109 104  94  86  86  81  76  71  61  68  75  48  66  99 127 147 148 118  78 122 130 129 125 125 127
  65  65  57  34  69  54  27  10   1   2   1   3  49  57  35  49  40  41  46  57  70  80  89 110 115 117 118 112 103  90  75  63  58  57  77  48  68  55  28  21  36  51  94 130 107  72 117 125 132 130
  63  57  40  56  33  22  23   3   1   2   2   7   2  28  48  38  46  50  47  54  64  85 102 116 133 137 133 126 110  92  72  57  57  57  58  42  21   8   2   4  11  18  25  67 116 113  91 116 129 133
  62  52  54  30  14  39  56  25  13   7   8  12  48  44  21  62  52  42  49  51  75  93 112 129 148 154 152 143 124 103  68  56  61  71  23  35  38   5   8   3  12  15  51  35  51 113 125 109 127 132
  61  47  26  16  30  68  83  82  30  11  18  44  89  74  28   6  85  63  51  56  80 102 125 137 161 165 161 151 137 120  85  62  91  15  36  64  77  30  14  12  25  52 105  78  29  46  88 121 124 132
  46  35  32  28  31  44  53  55  73  83  92  90 149 120  96  34  99 104  66  72  89 114 136 151 164 167 160 152 140 130 128  82  25  58  69  80  84  98  63  50  77 100  95  76  37  30  35  64 107 128
  53  52  41  52  47  53  54  67  68  76  75  82 100 111 113 103  93  94  82  88  94 112 134 146 164 166 164 154 147 143 145 100 109  97  94  83  77  75  78 100  90  89  89  94  90  84  97  70  83 114
  72  72  67  66  75  78  86  86  85  84  87  80  82  91  96 102  99  98  89  89  98 123 135 150 163 166 163 156 148 144 151 136 107  78  70  72  75  81  81  89 103 116 121 128 125 130 126 124 121 121
  79  73  71  64  68  72  82  80  80  75  79  79  85  93 106 105 104  96  94 104 108 117 138 151 160 163 162 158 154 150 146 153 137  87  58  57  58  77  74  77  95 109 109 121 125 122 132 133 137 137
  84  80  80  72  70  73  75  77  80  77  81  91  92 108 115 112 105 100 100 107 110 120 141 149 160 165 160 157 155 154 154 154 155 148 111  77  55  54  56  70  79  85  93 104 115 123 132 140 144 147
  91  89  85  82  88  88  89  90  93  86  96 109 112 117 116 110 105 102 102 105 107 126 144 158 163 163 162 158 155 154 152 154 159 158 160 145 106  95 103  96  98  96 108 117 125 141 147 151 152 153
  97 100  98  99 102 104 108 107 102 109 116 120 121 120 116 105 104 101 106 103 107 129 146 155 164 167 163 159 154 155 155 153 157 162 162 160 154 150 138 151 145 143 146 152 151 157 155 158 159 155
 104 105 111 107 113 115 118 120 124 127 129 126 124 122 110 101  96  98  97 104 114 133 143 158 163 165 165 162 161 156 154 151 156 161 165 166 159 162 158 158 160 160 162 162 165 158 165 161 165 162
 112 117 116 120 118 118 121 124 126 128 129 128 126 125 106  91  86  96 102 108 116 138 147 158 167 166 166 165 161 159 156 151 153 156 159 165 162 165 163 163 161 164 162 166 166 165 167 166 165 163
 115 115 116 121 121 120 121 124 128 128 132 131 133 121 108  91  88  98 103 112 122 129 144 162 173 169 166 165 164 159 158 151 150 152 156 158 162 164 166 165 165 165 166 169 168 168 167 166 165 164
 109 111 112 116 120 120 126 121 125 135 126 132 123 117 101  85  95 108 115 112 124 129 138 157 173 172 167 165 162 159 156 156 150 148 153 154 157 159 163 165 167 165 167 168 168 168 167 167 166 162
  99 105 107 113 120 127 119 124 120 133 129 127 117 112  93  89 114 120 117 122 116 124 131 143 155 160 167 167 165 164 159 158 151 137 135 147 153 155 157 163 166 166 167 168 167 165 165 160 162 165
  96 101 107 111 116 116 121 124 135 128 134 129 118 111  95  98 120 124 116 102 104 108 117 122 140 143 152 156 165 169 166 162 157 151 124 136 146 149 157 161 163 162 164 166 165 162 162 164 165 164
  99 113 107 108 116 116 120 124 127 130 129 125 118 101  86 107 112 116 100  91  85  88 100 112 122 125 132 133 142 158 166 165 161 152 125 127 143 145 144 149 153 160 155 162 162 163 162 162 162 162
 100 107 102 102 112 111 115 116 128 133 126 126 113 106  80  99 100 101  91  80  77  78  85  98 109 116 113 105 115 144 156 165 162 149 150 119 124 135 141 147 150 149 154 157 157 158 162 163 164 159
  94  98  99 101 107 112 117 121 127 130 125 118 110  80  79  90  94  88  96  57  58  69  85  91  96  95  83  49  66 106 131 153 157 146 143 121 117 125 132 138 141 146 151 155 154 157 161 162 162 161
  86  92  94  96 112 111 116 117 118 127 125 115 109  66  74  86  84  67   1   0   0  26  76  85 101  33  19   0   0  20 105 129 134 137 147 136 126 124 125 135 140 140 147 150 150 153 157 155 162 158
  83  91  89  94  95 105 109 114 117 117 115 104  97  67  55  70  78  36  28  34  43  54  58  79  86  74  51  30  28  30  66 103 110 124 147 148 140 131 124 129 134 136 141 148 149 151 150 157 158 155
  86  85  82  89  95 100  97 107 113 117 108 101  92  68  42  45  37  38  40  50  51  41  51  66  74  74  67  59  58  54  57  70  77 133 152 153 144 134 128 127 129 135 139 141 135 147 154 156 156 153
  81  79  83  87  95  93 103 107 111 114 101  94  86  71  47  50  38  36  42  43  42  43  58  66  83 101 108 102  71  66  58  86 117 160 158 156 151 140 128 133 130 131 135 138 146 143 149 150 153 150
  78  77  80  84  88  93 101 110 109 109 102  93  83  71  54  50  50  52  47  47  52  59  81  90  97 111 128 131 130 124 118 138 154 156 155 157 153 146 140 133 137 133 134 141 144 144 147 146 150 147
  78  78  81  79  84  85  99 108 104 105  89  88  77  72  59  63  64  57  60  64  73  84  94  98 110 113 128 137 137 140 141 150 154 158 156 156 155 151 147 140 143 138 135 132 137 142 147 144 141 148
  77  77  75  81  88  87  94 108 101  94  95  88  84  77  69  64  68  72  74  79  88 105 107  99 105 119 134 143 141 137 134 142 144 153 154 158 157 153 148 148 143 141 140 146 141 146 146 146 143 147
  77  73  73  79  83  86  93  96  92  88  83  78  74  72  68  66  70  84  89 104 117 122 116 109 107 115 137 137 144 144 141 134 137 137 142 146 155 152 146 145 143 144 143 144 141 140 144 144 145 146
  77  74  71  72  78  84  86  93  89  87  80  67  70  75  81  86  94  93 107 117 137 140 132 126 133 134 139 151 154 149 150 140 127 123 133 133 137 136 143 141 141 141 146 141 144 140 140 145 139 141
  76  78  72  74  76  80  81  85  78  84  72  69  65  80  89  98  85  66  62  73 100 122 132 134 131 120 112 117 112 135 149 149 136 138 136 128 128 132 134 124 135 146 146 141 139 138 137 141 140 140
  67  74  71  74  75  75  78  83  72  61  61  58  64  76  84  74  55  56  58  58  61  66  77  70  79  78  88  96  96  98 103 123 137 134 134 132 124 125 128 128 128 134 141 140 137 137 137 139 138 136
  71  73  67  71  75  76  74  79  75  59  57  67  61  62  51  54  54  62  55  62  70  64  65  67  79  83  94  98 102  93  83  93 103 126 130 130 123 124 127 125 127 132 144 140 137 137 135 137 136 136
  72  74  65  75  71  71  63  70  75  62  61  56  55  52  47  46  50  50  48  50  51  51  53  54  58  61  60  72  75  77  72  78  81  95 107  97  98 114 115 118 127 126 136 138 138 135 132 132 134 137
  65  67  66  73  74  61  68  72  58  57  47  43  41  29  26  28  24  20  12  15  19  26  25  37  34  29  31  23  33  34  52  65  65  56  54  55  54  77  99 110 123 133 137 135 134 141 133 122 130 133
  69  64  68  69  72  65  64  70  57  47  46  25   0   2  27  56  71  80 115  98 109 107 120 100 117  83 100  79 104 111  97  80  42  24  12   9  35  60  74  97 123 127 130 133 132 132 121 126 130 132
  65  66  66  65  61  69  72  60  54  35  43  51  56  81  87  93 104 101 105 117 134 136 151 149 143 150 158 159 155 153 155 152 153 142 130 131 115  93  79  88 126 128 128 134 129 126 118 129 129 129
  66  65  70  65  62  62  71  64  55  48  56  60  73  85  96  92  94  85  86  97 107 114 134 135 135 151 146 140 140 144 143 148 149 151 154 144 125 122 107  93 115 125 122 126 125 126 133 129 125 128
  65  66  68  60  65  65  65  72  70  58  68  60  67  75  77  77  87  86  85  85  90  98 101 115 117 117 125 128 135 141 147 146 146 149 146 132 140 132 125 118 116 126 120 126 126 126 128 127 125 120
  69  66  65  67  62  59  65  67  71  70  70  74  67  61  67  60  65  72  70  68  69  76  80  80  82 100  87  99 113 116 124 134 138 143 137 145 143 145 131 128 123 128 128 126 122 128 128 126 123 122
  65  62  70  65  62  65  69  71  69  71  76  72  71  70  63  61  58  58  60  53  59  62  56  63  66  65  67  80  91 105 118 129 130 135 140 146 148 146 139 129 124 126 126 129 128 124 125 124 120 123
  72  67  63  58  67  59  65  67  71  71  69  75  71  64  64  56  59  61  57  54  55  54  54  54  54  63  76  86  97 104 109 122 133 133 137 143 144 146 143 132 125 124 126 124 122 122 128 121 120 118
  71  68  69  65  63  59  60  63  73  69  75  75  66  64  68  68  67  62  66  64  68  66  56  61  65  76  79  96  96 112 117 128 133 134 138 141 147 143 141 131 126 128 128 129 124 119 118 120 121 123
