P2
50 50
255
  33  48  55  60  56  26  12  16  20  21  23  24  26  25  39  39  42  51 108  47 149 150 162 165 162 163 164 167 159 157  80 153 123 116  89  58  29  33  28  36  37  29  52  74  89 112  97  24   7   2
  48  53  63  20  14  24  18  21  25  31  33  39  38  37  39  59  49  99 100 108 122 142 157 161 158 162 164 162 157 139  92 113 104  81  92  76  83  59  29  27  24  35  32  29  33  49 104  71  21   8
  51  39  21  18  23  26  28  49  51  48  50  47  55  62  56  66  83  99  90 100 123 132 141 148 146 153 155 153 142 121 110 100  86 123 110  92 106  77  85  71  43  42  28  37  27  28  27  69  45  19
  29  23  24  26  36  55  76  86  85  74  69  67  67  64  71  72  73  91  89 101 116 127 132 147 133 147 134 151 142 134 108 107 110 117 104 103 108 113 113 107 110 120 118  74  52  49  35  32  34  42
  24  24  30  48  68  94  96  97  94  85  72  60  55  58  70  64  75  86  87  91 108 115 127 133 128 143 148 151 139 119 116 126 119 116 118 111 109 106 108 115 125 138 147 151 116 108  58  28  28  27
  27  37  50  92 107 106 101  96  82  70  57  44  42  50  57  55  59  69  78  90  93 109 121 128 133 133 144 140 131 129 119 120 120 114 109 106 103 101 106 108 118 123 132 138 148 153 127  79  45  27
  32  62  91 102 102  87  60  59  38  27  23  25  25  28  47  62  60  61  73  77  86 102 113 119 129 135 140 133 131 123 122 121 113 110 108 108  95  71  54  45  57  70  97 116 126 143 153 139 110  51
  69  91  94  88  81  55  26  56  55  30  37  39 102  57  29  53  69  63  52  64  74  92 108 122 133 132 143 138 130 127 121 114 106 105 104  99  36 106  51  43  44  82 120  40  99 122 140 155 151 115
  85  89  86  69  39  28  33  28  23  14  12  16  21  80 104  39  82  80  60  55  66  83 107 122 137 153 153 148 136 121 116 105 103 102 104  55  69  25  14  17  17  26  28  56  89  72 116 137 150 151
  86  80  70  47  31  45  27  43  18  16   5  17  20  21  36 126  71  91  73  62  64  83 105 122 135 156 159 158 147 128 113  98 104 104  79  46  33  18  16  52  16  23 113  34  28  72  93 123 140 152
  75  70  58  43  28  24  57  97  20  15  13  17  24 138  23  46  87 100  89  69  59  86 104 126 136 154 162 162 151 132 121 103 103 111  57  37 118  20  20  18  14  24  61 134  37  39  82 110 127 148
  73  81  63  35  24  24 103 112  26  21  20  42 155 174 160  26  47 129 113  86  76  92 109 128 139 153 156 157 151 138 128 119 121 124  60 125 142 129  28  25  26  29 161 165  37  34  91  98 129 136
  72  73  55  28  27  61 104 118 108 105 109 129 154 152 161 211  24 123 142  93  97  97 109 125 136 146 153 154 150 147 138 137 129  56  79 112 119 120 117 110 121 148 164 167 135  35  49 117 123 142
  80  74  41  30  27  47  71  85  94 103 116 128 149 150 142 132 122 119 120 100  98 101 111 120 131 141 149 151 147 144 139 139 126 110 106 106 108 121 139 151 139 161 140 121 106  31  41  72 121 138
  62  48  38  37  67  93  98 105 112 114 116 115 116 114 124 122 122 112 107 100 109 107 109 126 140 155 154 156 149 147 136 136 133 114  86  76  86 100 114 130 132 149 150 143 140 125  90  60  97 132
  52  55  55  87  86  96  95 102 105 101 100 102 108 116 122 121 113 107 102 103 104 108 113 127 141 156 160 160 154 144 146 136 137 138 112  65  59  62  89 100 107 120 127 129 144 142 137 119 112 114
  71  69  84  72  82  82  84  86  93  96  96 107 116 120 119 115 113 109 105 103 102 109 117 129 145 161 164 165 160 151 141 144 141 142 136 142 114  75  71  62  70  96 105 113 120 125 126 134 132 122
  83  88  88  91  93  96  98 100 105 105 108 114 119 118 120 115 111 107 102 107 103 109 123 134 144 165 175 171 168 158 150 148 144 148 150 141 139 136 133 139 122 107 101 114 126 131 133 133 131 136
  93  97  97  98 105 108 111 110 115 112 117 119 122 126 123 114 108 105  98 106 114 118 122 126 131 155 167 167 167 165 162 154 145 147 154 157 152 146 136 140 141 152 151 148 153 154 154 151 148 140
 102 106 106 110 110 110 114 115 113 117 122 125 127 131 126 117 110 100 100 115 118 115 107 111 119 128 141 150 153 159 165 165 148 148 153 156 158 157 152 149 144 144 142 148 154 157 156 158 157 153
 108 110 113 116 116 120 116 119 122 125 132 134 136 137 131 121 109 103 122 123 117  92  88  97 102 112 122 133 131 132 152 167 166 148 159 158 160 160 161 158 156 145 146 154 158 162 162 163 161 160
 115 117 119 122 121 125 123 129 126 128 133 130 137 135 135 118  97 114 117 117 101  83  60  80  87  93 102 115 111 104 121 157 166 166 152 156 158 163 162 159 160 157 158 158 162 163 165 166 165 164
 115 112 120 121 121 123 126 126 128 139 139 143 148 138 136 109  94 107 109 103  71  40  37  28  66  82 100  99  28  34  95 119 153 162 161 150 156 159 161 164 163 163 162 162 165 166 168 168 167 167
 107 113 114 118 119 123 121 126 131 141 147 149 144 142 127  92  87  94  91  61   2   1   1   2  63  80 103   9   1   3   1  49 120 156 156 152 150 154 162 165 166 163 163 165 166 169 168 168 167 167
 109 113 114 121 118 125 123 131 133 141 150 151 148 138 115  69  79  71  73  12   1   1  18  33  52  71 100  97   3   2   1  10  93 126 132 147 146 147 156 165 167 166 167 167 166 168 168 167 168 167
 109 110 115 115 116 122 122 127 135 147 154 146 144 128 105  57  62  61  61  19  19  28  49  51  64  96 107 130 121  31  19  22  56 100 116 135 153 146 155 159 162 163 166 168 166 166 167 168 167 166
 105 110 109 114 115 118 122 131 136 138 146 144 128 117  99  50  50  47  42  37  50  61  85  99 121 127 134 145 148 146 119  58  52  65 102 136 159 156 154 158 159 158 164 166 163 165 164 164 164 165
 101 101 107 110 110 115 118 123 129 136 145 139 126 110  96  49  30  30  37  56  87 100 108 116 130 136 137 139 146 139 150 120  83  75 115 151 158 160 161 158 160 156 163 163 162 162 163 162 164 166
  93 100 101 105 107 110 115 117 125 128 138 129 118 106  99  78  64  81  87  97  97  98 108 118 128 126 123 125 126 136 138 141 141 143 157 158 157 163 161 160 159 158 157 158 161 156 155 156 160 163
  89  96  96 101 106 110 113 120 122 129 135 125 110 106 104 102 105 103  97  90  99 107 110 119 123 118 119 123 129 132 134 127 138 144 156 157 156 160 158 159 157 160 157 160 159 159 159 160 162 162
  82  89  94  98 104 108 109 117 121 124 125 119 111 107 108 102 100  82  84  85 105 109 117 125 121 118 119 122 124 137 141 139 132 131 141 153 157 155 162 161 158 160 161 158 155 158 158 156 159 161
  79  80  87  94  93 104 108 117 122 120 122 116 108 105 102  95  83  94 101  96  99 102 119 126 128 130 135 129 134 129 138 142 149 141 127 136 143 155 158 160 160 159 158 157 157 153 157 156 156 154
  73  84  86  92  98 103 106 115 116 115 115 108 107  88  88  86 105 104  84  74  71  82  82  86  86 101 104 107 111 114 116 123 135 152 139 129 129 136 151 155 153 159 160 154 155 157 157 156 157 152
  72  84  77  85  97 100 102 109 112 107 109 105  96  77  75  94  99  77  65  71  80  88  93  82  86  97 103 106 113 117 120 113 109 119 141 135 141 132 135 141 151 155 158 159 156 156 155 153 153 151
  72  76  73  88  89  99 100 100 106 106 101  94  86  75  84  87  68  52  64  66  59  56  70  61  60  76  75  85  86  99 107 107 103 100 109 129 141 140 128 128 139 141 154 158 159 156 153 154 153 152
  75  75  73  84  87 100  98 100 107  98  85  74  75  68  69  59  48  41  45  42  36  43  38  37  37  44  50  38  43  58  52  77  92  91  92 105 127 135 133 132 135 141 145 154 155 153 151 151 150 153
  67  72  69  82  87  94  93  96  99  89  69  85  71  57  54  37  34  33  30  25  24  39  53  79  69  76  58  61  38  29  29  40  48  63  62  61  94 109 120 126 141 134 137 153 155 157 151 146 144 148
  76  73  71  82  84  91  86  91  87  86  80  74  54  42  35  25  27  27  66 100 107 112 121 130 143 141 137 144 150 151 138 131 108  44  57  47  47  78  63 111 123 128 139 145 154 150 150 147 146 147
  65  64  73  67  77  80  74  90  89  89  81  64  49  28  22  21  76  99 112 108 105 104 116 115 138 148 144 144 153 152 146 146 150 148 128  31  31  28  37  97 115 122 138 148 152 153 156 146 144 144
  66  69  67  70  70  77  75  83  90  79  69  59  67  22  35 102 103 101 106 101  97  95  99  89 105 106 107 121 120 127 141 146 144 149 156 153 131  91 113 102  98 115 140 148 151 150 148 148 142 138
  59  66  64  66  72  74  75  79  87  81  59  50  75  93  92  87  87  79  80  75  71  59  57  52  58  58  54  62  69  87 109 120 128 148 150 153 153 147 129 121 108 114 134 148 148 148 151 148 142 136
  59  65  66  63  66  73  82  83  86  84  62  58  73  62  68  66  73  68  71  74  77  71  62  65  58  69  69  75  90  93 109 120 127 142 141 145 147 133 136 135 131 124 127 145 147 148 145 130 129 130
  57  57  70  66  64  66  73  84  89  90  77  75  82  68  67  70  66  71  77  85  94  96  89  81  84  86  97 102 108 116 117 119 122 128 141 139 149 137 148 146 142 145 136 147 139 145 144 136 128 131
  58  59  62  61  64  62  66  78  85  84  87  81  83  71  67  75  79  82  82  89  93  99 108 109 107 106 106 114 117 124 121 122 129 135 141 141 145 142 152 154 154 145 136 144 138 138 140 138 135 137
  56  58  62  58  60  60  62  75  80  89  84  88  75  80  75  73  80  86  92  97 106 110 121 119 122 120 127 132 131 139 139 144 141 141 148 149 148 145 155 154 154 149 140 142 147 138 136 136 133 132
  53  57  55  58  58  61  62  71  76  86  84  76  77  76  77  80  88  91 100 103 113 116 125 127 125 131 136 141 145 145 148 150 145 144 148 150 148 150 151 154 156 154 144 146 136 142 140 135 137 137
  54  59  58  58  55  57  64  62  73  83  82  79  76  73  86  82  86  98 102 109 118 120 123 123 126 138 138 142 150 150 155 155 155 154 154 155 147 153 154 153 154 153 150 144 134 136 136 132 136 132
  58  55  57  53  56  58  59  64  68  84  78  83  73  75  83  88  95 102 105 116 116 119 125 120 132 131 137 148 154 155 156 156 157 155 154 154 149 148 150 152 153 153 150 142 136 141 132 132 132 130
  54  54  54  57  53  55  56  63  67  71  73  80  76  76  86  87  96 102 103 109 114 119 123 127 132 125 141 150 151 154 156 158 156 157 156 155 151 154 151 150 151 154 150 145 142 132 129 129 128 126
  56  55  56  55  54  56  61  55  71  68  71  78  76  77  84  86  96 100  99 106 108 111 110 122 121 125 132 135 137 149 157 157 154 157 156 156 154 151 151 152 148 148 148 145 141 132 132 129 122 122
