P2
50 50
255
  29  32  36  30  28  26  25  24  19  26  17  23  24  23  32  32  39  73  76  86 102 114 125 126 126 123 121 122 125 120 116  87  67  62  75  53  42  36  43  24  32  30  37  42  43  44  55  56  78  55
  43  36  37  37  37  35  38  37  28  28  32  31  33  29  31  34  39  54  65  82  81  96 113 113 117 112 117 119 113 107  94  96  65  69  55  47  37  34  36  35  39  33  26  45  56  49  54  57  61  54
  44  47  41  47  48  50  52  57  52  51  46  45  47  43  34  41  46  56  54  72  93  94  98 106 107 110 114 113 102  95  90  78  56  61  69  65  42  48  45  48  56  58  69  78  75  67  62  66  70  63
  58  56  55  55  55  54  55  57  56  55  53  52  53  55  59  54  53  53  50  59  63  84  91  99 107 105 109 100  99  93  87  71  76  70  71  59  64  63  65  67  76  84  88  94  95  92  91  90  86  85
  71  59  62  58  63  62  63  69  65  75  61  55  53  51  56  55  63  59  61  54  71  78  91  91  96 100 109 105  97  90  80  72  76  81  86  79  73  64  72  91 104 120 126 122 118 117 113 116 109 109
  70  59  66  63  64  76  80  73  58  54  58  59  56  51  50  51  56  58  59  61  57  74  80  92  90  99 102 100  95  80  80  76  83  80  80  72  71  71  95 113 129 140 138 138 139 136 130 125 121 124
  72  72  64  62  51  43  66  95 109 110  97  64  42  44  53  52  53  52  57  59  61  67  79  88  95  94  94 100  96  84  86  88  83  70  64  61  71  81  58  90 134 145 138 109  87 100 124 127 126 128
  74  66  60  46  58  85  88  77  62  67  70  81  67  52  41  53  51  48  51  58  61  69  78  88  96  95  94 103  97  94  91  82  70  62  55  63  43  65  80  80  93  96 114 133 138 124  84 110 124 129
  69  64  35  72  59  53  41   9   5   3   2   8  36  55  48  39  49  50  50  53  61  72  86  97  97 112 114 118 112 103  91  78  57  56  57  41  53  31   6   5   8  10  23  43  90 113 133 103 116 127
  63  50  63  58  15  28  42   0   5   1   2  14  18  31  40  53  51  48  46  51  59  73  90 101 118 125 135 134 130 112  97  70  57  54  52  37  32  23  15   7   2  19  21  54  40  41  87 116 113 124
  59  53  26  12  27  53  62   8   6   3   7  15  32  61  38  18  56  56  45  51  59  79  94 112 128 142 146 147 137 120 103  84  61  69  14  36  52  10  15   8  13  23  24  85  52  46  32  56  84 118
  50  32  20  27  27  56  71  38   8   7  14   2  73  58  36  21  21  82  61  58  66  87 106 118 142 151 156 151 144 128 112  99  80  72  32  36  52  51  17  15  27  27  93  96  63  53  43  44  62  91
  47  41  41  36  36  38  47  53  63  65  85  89  84 105 109 101  84  81  82  72  87  89 112 133 148 158 159 155 149 136 127 128  89  93 104  93  87  78  89 107 111  91  90  75  85  86  96  86  94 103
  67  62  64  59  61  59  56  70  61  63  74  70  82  92  80  93  94  83  94  92  94 100 112 133 146 156 161 157 148 144 133 137 125  99  93  74  79  72  73  64  81  85 100 111 122 121 129 129 124 125
  80  72  69  70  76  82  84  86  83  80  83  74  62  69  85  86  97 102 109  97 102 111 120 135 145 157 160 157 152 145 140 137 144 131  67  52  53  58  63  75  79  90 100 105 111 110 107 116 120 132
  84  71  65  62  63  61  63  64  72  61  57  59  71  79  81 107 105 107 106 104 106 113 120 129 146 157 161 158 155 148 146 144 145 143 130 103  53  45  52  55  63  69  77  87  85  92  97 120 133 136
  85  84  84  76  74  59  60  57  60  69  76  82  88 108 114 120 116 112 105 107 113 115 119 133 146 151 158 160 155 151 150 146 146 151 148 145 126 105  81  64  50  54  59  70  89 103 120 133 141 146
 101  96  91  92  87  87  88  97  91  94 103 106 120 124 123 118 116 110 108 108 109 112 119 134 150 158 159 160 155 151 146 147 147 149 151 153 152 143 133 132 130 126 120 128 145 144 145 146 149 153
 104 105 101  99 103 107 111 110 119 118 124 127 133 133 128 121 113 112 105 107 106 115 124 136 145 157 161 161 158 152 147 149 148 145 152 158 160 155 151 151 152 153 151 152 152 157 156 155 155 154
 110 107 110 108 119 119 118 127 128 132 134 138 138 137 127 117 107 102  98 102 106 113 121 130 145 153 160 160 161 155 152 146 146 145 150 154 158 159 158 158 157 156 156 160 159 158 160 160 159 158
 114 119 119 126 128 124 131 132 134 138 137 138 138 136 128 115 109  98  99 103 104 113 119 140 146 152 160 162 161 159 156 153 148 142 144 150 151 155 155 162 160 160 160 160 162 162 161 162 160 160
 112 119 121 123 129 128 127 127 130 137 140 139 139 138 131 115  99  96  97 105 112 116 124 137 140 151 166 165 161 160 157 151 153 146 141 142 149 151 152 154 162 161 161 159 164 161 163 161 161 162
 113 113 120 120 121 124 132 132 127 133 142 136 138 133 122 114  99  96 104 112 117 119 126 129 140 153 169 170 163 161 158 155 151 146 140 134 137 144 151 154 153 157 161 159 162 163 160 161 160 158
 102 112 116 117 119 128 127 128 129 129 135 139 137 125 119 108  94  99 113 123 126 120 128 128 133 141 155 163 162 160 160 155 152 153 146 127 129 138 143 148 151 153 155 155 155 158 158 158 159 159
  98 109 107 114 112 119 128 127 128 136 137 137 136 121 115 101 101 109 121 128 133 122 124 123 123 129 141 150 156 160 160 160 161 159 153 146 119 124 134 138 143 146 145 152 152 154 157 157 159 159
 101 108 110 114 112 125 121 124 129 132 130 135 127 124 111 104 100 112 121 133 125 112 104 109 112 115 125 139 138 146 146 151 161 162 155 146 129 109 123 131 137 142 143 145 147 150 151 155 158 158
  99 105 107 111 112 119 117 120 121 126 132 132 121 115 112  99  92 111 111 118 111  98  87  93  97 101 113 118 121 128 130 135 149 157 159 151 141 112 112 122 128 132 132 139 142 145 146 151 155 155
  97 101 104 104 105 112 113 117 121 129 130 124 121 115 110  81  89  98 101 102  92  88  86  84  83  92  97 106 112 109 102 109 131 146 151 149 138 123 113 116 120 125 124 137 138 142 146 146 149 151
  92  96  99 100 105 113 114 114 119 116 125 121 113 111  95  70  85  91  96  94  85  42  56  56  83  87  92  96 104  36  21  39 101 123 138 140 137 132 120 113 112 116 123 128 136 137 139 143 146 147
  89  89  92  98  97 104 109 113 109 114 117 113 107 104  80  63  80  85  90  82   9   8  17  35  56  86  96  99  45  21  11  22  36  96 116 119 136 134 128 116 109 113 116 120 125 134 133 137 143 146
  90  91  90  93  94  94 102 108 108 103 113 109  99  97  84  52  59  66  67  40  39  44  51  55  58  77  88  91  79  57  62  55  55  74  87 110 144 142 133 117 108 109 108 116 124 129 133 136 137 140
  86  89  85  92  91  93  97  99 103 105 110 104  99  92  90  71  46  43  37  42  48  53  54  47  52  65  74  75  74  63  69  76  70  65  83 136 145 143 133 127 112 109 113 114 117 127 130 132 133 139
  80  89  83  86  87  94  94  95 102 109 111 102  96  91  83  73  50  51  43  41  47  46  44  44  58  58  64  80  85  96  94  78  74  97 123 143 146 145 139 132 120 110 112 114 119 123 124 132 133 134
  83  78  86  84  84  91  88  94 100 103 105 104 101  93  86  70  56  54  47  48  43  47  46  53  54  69  72  85  94 113 117 116 112 125 133 143 147 146 143 137 128 115 117 120 116 118 122 125 129 133
  81  81  80  81  84  89  84  93 101 104 105 100  98  98  93  77  60  64  57  56  55  57  61  61  75  81  82 101 113 122 130 128 127 132 136 141 139 145 145 143 130 124 116 119 116 120 124 123 128 129
  79  81  77  83  88  87  85  96 101  99  98  97  99  91  87  72  70  65  58  71  66  74  87  92  91  87  91  99 119 130 141 136 137 137 133 134 137 138 137 139 134 119 112 113 123 123 121 124 125 129
  80  82  76  79  86  83  84  93  94  99  96  93  89  85  84  81  77  79  82  77  88  97 109 117 110 108  99 108 123 140 141 142 139 141 135 129 127 130 133 127 126 116 108 113 117 123 123 125 124 129
  83  76  74  72  83  83  83  84  89  94  94  87  87  70  75  81  86  93  99  94 100 113 125 143 140 137 129 135 146 143 148 146 143 146 145 130 138 130 125 119 129 117  99  98 117 121 122 123 124 128
  78  76  78  75  78  85  81  84  88  90  84  70  72  63  77  77  95 102  94  82  80  64  85 101 129 133 138 134 125 111 107 103 110 128 139 138 133 135 134 123 130 120 114  99 118 128 124 128 126 123
  75  80  75  77  78  80  81  85  87  84  84  73  71  60  78  81  91  75  61  59  58  61  63  65  84  85  85  84  85  93  93  99  99  98  97 116 128 130 129 125 127 129 115 104 110 125 129 125 125 120
  70  80  72  73  71  74  79  75  76  75  71  62  64  65  69  71  63  59  58  63  60  62  63  72  68  72  75  84  84  89  97  98  98  87  88  93 101 108  98 103 103 107 119 117 117 121 127 126 127 116
  68  73  73  73  68  79  74  75  77  79  62  62  52  54  60  53  55  52  52  54  52  52  57  59  58  57  66  66  75  63  83  78  78  78  78  71  66  50  35  50  85  91 107 119 124 124 129 124 114 117
  64  72  71  69  75  79  73  71  73  74  62  60  53  29  15  21  23  29  27  28  13  16  25  30  26  30  32  29  33  30  27  32  41  42  43  35  33  28  74  96  94  87 103 124 122 125 124 113 113 119
  78  68  70  77  76  72  78  71  71  67  59  42  47  33  14  18  34  50  67  82  93 117 109  99 112 119 103 125 108 124 137 125 141 146 143 138 128 143 129 112 109 103  99 120 122 118 123 119 124 123
  70  70  72  66  66  70  70  74  74  57  55  41  51  53  59  65  89  92  95 106 100 111 124 141 153 155 158 156 160 161 159 148 145 143 140 145 145 146 132 128 124 127 110 116 117 116 118 119 117 121
  71  68  70  64  64  64  65  67  73  63  60  51  58  61  74  81  93  98  92  95  87  91  98 109 123 134 141 137 140 142 133 133 133 141 142 144 141 139 134 138 137 129 123 121 124 119 117 119 124 120
  67  63  66  70  71  65  70  70  72  70  73  62  74  70  69  75  84  85  92  95  89  91  87  96  95 107 114 112 116 120 125 128 132 135 141 138 139 134 140 139 141 132 124 124 123 122 123 120 120 120
  72  68  68  65  58  63  64  66  74  75  74  77  81  78  73  69  75  71  69  78  79  73  78  78  83  87  90  95  94 101  97 103 108 115 128 130 134 138 141 142 137 133 128 121 118 124 116 116 119 119
  67  78  69  66  65  64  67  64  62  73  74  78  80  77  79  71  71  66  75  64  73  67  62  66  63  65  72  63  69  80  77  91 100 116 122 125 132 136 138 139 140 135 128 124 119 124 118 116 115 116
  69  70  70  68  64  70  62  63  72  64  78  76  76  78  72  68  77  73  67  62  67  58  59  61  60  58  61  60  64  78  84  98  97 112 118 130 129 136 136 140 138 134 130 123 123 116 118 117 119 120
