P2
50 50
255
  58  35  19  28  22  19  19  23  19  18  22  24  29  49  85 101 108 112 125 119 111 108 116 120 128 141 123 122 113 110 105 131 131 130 126 118 115 128 107  52  39  23  36  35  51  73  64  64  39  57
  48  16  16  21  18  11  14   7  13  11  10  10  18  20  36  57  62 101  94  83 114 108 101  84 108 115 124 112  83  73  78 115  84  61  43  43  26  24  24  25  22  20  19  45  31  34  35  53  34  27
  17  12  14  17  13  16  11  17  14  10   5  10   7  11  13  22  36  64  55  78  91 111  84  95 111 111 113 102  70  61  66  39  82  48  27  20  16  16  18  29  19  19  25  36  44  63  34  42  82  34
  22  22  15  18  26  24  25  24  25  18  15  12  12  12  11  12  16  17  27  53  67  77  85  77 106  97  98  99  79  48  73  38  49  20  25  19  24  23  27  26  26  27  47  60  66  56  77 154 161 146
  41  32  53  34  46  56  72  67  59  67  42  24  17  18  19  17  14  22  21  29  43  57  68  58  88  96  89  64  67  61  70  53  27  37  32  41  41  33  45  66  81  72 104 111 122 138 147 142 141 144
  59  49  48  76  78  86  96 101 109 103  94  65  41  33  24  19  22  15  20  27  33  56  42  77  92 109  99  63  46  50  59  51  45  48  44  32  34  39  49  63  80  96 123 136 148 145 144 145 133 137
  61  61  76  85 103 100  98 109 120 123 109 107  91  60  36  22  18  22  25  22  26  33  58  87  93 115 123  85  84  68  72  86  61  47  39  37  41  40  53  66  89 122 131 137 145 154 162 154 159 155
  66  94  93  90  75  88  54  32  38  26  49  41  37  37  52  47  23  23  24  30  29  32  55  71  78 116 145 150 150 111 112  91  56  54  33  33  27  24  17  21  14  20  40  74 135 149 156 156 159 153
  83  89  77  45  25  22  18   9   5   1   2   5   6  20  15  32  30  26  20  26  35  55  52  71  89 132 151 171 169 154 130  89  56  34  26  24  14  12   1   1   1   8   6  34  12  23  79 138 151 158
  86  83  32  25  18   4  20   3   9  17  15 105   3 112  20   7  39  29  29  29  39  57  71  91 119 146 163 171 174 159 123  90  52  29  26  18  74  12  11  15  17  37  32 177 143  16  22  45 109 146
  82  32  39  12   3  60  90  10   5   7   0   7  16 146  73  25  14  29  31  24  36  64  77 115 126 151 165 176 173 154 129 136  36  62  20  34 109  49   8   4   1   7  23 183 181 120  26  19  98 141
  66  35  15   7  12 106 134 120  11   4   4  10 138 136  26  62  16  28  28  21  43  61  89  91 128 146 161 175 165 154 131 105  52  22  44  25  53  91  16   4   4  15 151 178 138  54  51  41  73 148
  47  35  27  27  22  27  45  62  71  21  19  25  31  33  31  25  24  18  27  26  42  54  89 120 124 135 158 169 166 153 138  82  84  36  30  49  34  33  33  30  28  56 114  97 102 135 140 124 139 148
  60  54  49  46  50  34  34  35  28  29  32  36  53  34  41  54  37  25  33  38  40  65 101 118 129 133 154 169 161 159 140  94  83  86  61  51  38  34  36  61  68  95 126 135 153 145 144 139 139 146
  96  71  79  65  69  86  75  69  97  70  69  56  49  54  35  41  33  51  29  57  55  78 112 129 120 136 150 158 165 164 146 128 115 109  89  69  48  37  55  70  89 124 137 158 164 170 172 158 161 164
 123 112 102  95  99  88  86  77  89  73  60  76  56  56  44  24  48  57  53  60  82  80  99 116 122 115 146 167 169 159 153 148 139 126 123  94  82  65  61  66  74 116 131 148 156 162 165 160 163 160
 131 131 112 109 118 114 110 113 112  81  72  72  72  44  43  64  64  76  81  79  78  81  98 117 126 121 139 163 169 162 163 153 148 144 149 137 129  83 119 103 101 113 115 143 141 156 160 171 168 166
 115 126 128 131 128 116 117 119 113 118  72  71  55  47  80 103  83  81  82  95 112  89  87 108 110 123 135 154 160 165 171 164 167 153 152 149 153 147 127 107 120 130 135 134 141 148 161 162 165 164
 136 123 131 135 140 131 118 115  97  92  93  64  88 109  91  98  71  82  92  90  92  93  92  98 121 137 146 153 165 159 169 171 163 159 153 159 162 149 143 137 131 132 135 142 139 146 158 164 152 163
 131 141 133 137 131 119 114 107 106  84  91  97  92 104  80  89  85  83 100 109  95  92  72 110 130 117 149 153 155 154 162 164 173 152 164 161 154 156 144 151 147 132 139 132 134 143 149 147 161 159
 135 119 128 128 133 132 126 116 125 104 105 118 115  96  87  80  68  88 102 104  88  77  94 123 120 129 133 148 153 146 153 157 168 177 158 153 152 151 156 154 158 139 147 151 139 141 148 160 164 167
 116 129 130 138 136 124 133 109 117 118 109 119  95  98  95  73  89  75  65  73  71  87 108 113 130 135 142 149 156 152 146 156 158 172 166 159 151 144 154 156 153 156 158 152 152 156 156 167 160 181
 115 131 132 126 126 127 133 132 130 115 115 119 103  99  83  84  58  56  50  56  95  93 113 119 132 134 143 149 163 162 147 139 135 155 161 154 152 152 155 161 155 164 163 159 158 164 165 169 177 183
 118 128 115 119 122 128 129 133 131 123 129 112  95  95  81  74  50  63  73  88 122 118 115 134 139 147 148 160 167 169 163 153 133 137 145 131 142 142 152 157 156 168 163 164 158 162 164 172 178 181
 118 119 117 121 125 125 116 126 131 117 126 111  89  83  56  40  63 103 117 117 121 126 133 130 141 149 153 171 178 176 177 167 158 156 152 109 118 135 148 156 161 164 165 167 164 166 167 177 174 179
 102 104 132 117 117 115 113 130 131 125 123 105  86  66  31  29 113 125 129 116 121 113 139 130 144 154 158 181 184 183 182 176 179 174 170 131  71 124 144 146 162 167 172 167 165 170 176 177 179 176
  75  97 119 125 134 126 128 131 137  92 125 110  69  37  27  92 120 128 125 115 116 110 129 137 140 141 141 170 178 176 165 163 177 182 180 159  78  86 138 149 162 167 167 169 175 178 177 177 177 182
  99  92 104 118  90 120 130 127 130 111 134  98  66  36  28 104 111 120  78  24  35  71  94 107 122 116 139 156 153 146  93  67 139 166 177 173  88  79 118 136 147 162 168 176 176 172 178 179 181 182
  87  98 103  90 118 114 129 132 127 118 117  98  62  32  32  92 109  85  13   1   1   3  39  78 117  94 127 139 125  18   2   4  20 120 160 169 114  71 100 141 149 149 168 172 179 175 180 180 181 180
 100 101  85 107 112 112 136 130 127 126 118 117  60  41  55  66  77  68  22  16  11  18  30  37  82 102  91 114 133  91  35  28  23  70 135 138 125 103  98 128 138 149 154 173 169 177 179 180 181 180
  88 104 100 101 119 113 123 108 120 118 129 116  92  72  59  53  38  42  32  28  30  31  40  45  51  62  82  93 118 153 137  93  51  46  71 128 146 141 113 110 132 138 157 163 175 175 179 180 175 175
  83  79 101 103 117 103 103 131 124 133 127 102  86  89  67  77  50  32  26  33  34  55  72  73  95 100  78 100 115 118 128 116  89 110 136 134 152 155 152 128 121 143 152 153 159 172 174 175 171 169
  90  90  92  97  99 103 109  96 126 122 130 100  88  82  68  65  52  60  40  34  33  45  61  80  90  73  73  85  89 105 122 129 123 123 128 133 147 148 151 145 129 136 146 161 167 151 173 171 173 168
  88  81 105  91 104 109  93 114 113 120 115  93  81  91  75  65  65  51  48  35  61  63  64  83  82  55  57  74  89 122 130 125 133 139 120 138 149 156 157 158 148 146 142 159 159 169 169 172 166 161
  93  94  97  70  88  97 106  94  95 114  97  99  84  77  70  55  60  42  48  55  54  55  80  73  93  79  69  54  86 103 133 126 135 141 133 145 156 161 161 169 167 160 153 162 163 163 169 161 162 152
 106  86  81  76  69  70  99  92 110 102 101  79  74  76  75  55  51  60  69  44  54  51  56  65  84  63  58  69  83 103 110 127 131 139 140 136 143 153 165 168 171 172 165 166 168 163 163 162 164 129
  98  86  76  45  60  89 103  99 111  79  90  85  65  72  71  61  66  54  61  34  59  45  43  61  67  53  41  48  50  82 103 116 105 131 135 145 148 146 168 166 170 170 169 167 170 168 168 162 163 154
  87  62  78  94  86  86  96  86 115  79  87  69  51  50  68  79  51  56  61  61  55  39  33  43  38  34  39  50  67  97 104 123 120 126 144 148 144 154 165 154 175 169 166 165 169 162 159 158 173 166
  78  50  68  81  80  91  90 101  81  83  65  47  46  80  67  87  62  71  71  49  56  79  53  64  47  70  77 101  79 110 119 116 126 140 144 150 147 160 157 154 165 167 166 171 171 169 167 171 162 166
  67  85  73  68  46  82  98  92  70  56  65  49  47  69  64  64  59  60  52  48  46  38  43  46  34  82  67  70  73  67  82  92  88 120 149 148 160 160 158 127 153 166 171 172 172 173 163 166 167 170
  93 108  77  73  56  79  92  99  62  70  55  45  50  60  73  73  58  37  38  32  35  33  43  42  21  67  60  37  65  86 115 105  80  92  84 135 151 157 156 140 150 153 161 168 167 172 169 173 171 158
 101  86  73  70  85  75  83  71  55  72  45  51  39  41  66  50  28  35  33  44  35  42  58  39  41  78  74  51  68 122 123 111  64  80  60  85 107 140 147 147 147 133 154 164 172 167 173 177 176 170
  98  76  83  65  91 101  98  81  68  72  48  50  29  38  36  29  27  39  32  31  37  35  37  37  44  58  65  85  44 121  66 116  75  50  58  50  67  76  83  94 120 142 142 150 168 173 171 174 176 173
 115  87  95 111  99  78  95  80  67  70  69  35  20  15  22  18  26  25  18  98 143 144 157 156 135 116 112 146 173 185 144 189 184 146  46  40  59  52  22  48  78 126 148 160 167 172 173 176 166 176
 104  82 111  93 105  93  86  85  70  69  61  29  22  23   6  13  15  46  12 105 150  52 179 177 178 182 171 186 185 189 135 186 185 138  22  73  10  14  26  71  79 101 138 158 164 173 175 157 170 174
 113  82  96  74  81  68  69  87  79  92  69  33  29  30  20  12  14  22  10  19  30   4 131 168 158 167 129 173 175 166  63  84  68  22  29  55  39  34  85 109 112 126 132 154 168 168 170 164 170 174
 113  87 108  71  77  71  67  82  70  69  41  48  35  35  31  13  23  35  27  22  19  21  33  41  41  52  36  45  39  41  36  35  29  83 113 126  77 140 131 124 118 139 141 159 161 148 154 167 164 174
  84  98  97  62  70  69  70  98  65  66  46  53  35  47  37  33  23  49  44  36  32  44  32  41  32  43  43  43  43  51  42  78  97 128 144 120 121 144 149 145 142 137 150 153 151 162 160 167 172 170
 127 108 105  98  67  82  65  67  71  68  61  49  51  45  42  39  26  33  31  39  66  45  46  63  78  76 101  67  83  86  82 147 120 141 133 127 144 158 159 152 150 147 144 151 154 154 165 166 170 169
 181  82  68  82  87  83  73  75  57  56  69  71  55  54  62  52  51  28  30  36  56  39  67  77 102  92 129  70  97  76 129 147 114 133 131 142 147 158 156 161 153 143 154 147 158 142 162 167 170 163
