P2
50 50
255
  57  42  21  24  24  22  18  19  17  19  16  15  22  33  63  77  90 115 111 107 121 111 112 117 120 125 134  94  86 112  74 118  96  77  69  45  30  52  33  23  22  31  36  61  41  82  79  35  71  84
  37  17  20  21  16  18  16  19  19  18  18  13  10  14  17  24  33  75  72  79  96 102 112 101 127 116 115 111  73  71  29 107  60  31  26  23  19  17  24  28  23  29  32  31  30  35  30  66  24  52
  19  22  22  19  17  18  21  25  25  20  21  16  19  19  21  22  21  23  39  80  97  93  94  95 114  96  91  94  83  97  72  76  31  28  24  25  24  27  33  24  21  24  39  55  60  46  48  67  33  29
  21  25  27  26  35  36  42  66  75  37  31  26  22  22  21  23  17  24  25  36  52  81  70  84  97 109 104  80  83  67  81  33  39  33  45  35  33  38  51  62  70  73  79  80  55  58 114 117 111  52
  33  27  38  48  64  67  85  93 100  94  74  66  33  33  26  24  24  26  28  35  38  48  71  87 106 103  84  63  66  67  62  52  49  44  46  47  41  58  74  91  96 105 125 121 136 138 125 138 142 134
  72  39  51  64  92 101  99 114 107 108 119 105  76  46  35  29  27  24  33  30  33  55  62  84  94 127 113 109  81  78  68  78  66  48  39  53  56  75  72  83 114 131 135 135 138 135 136 135 125 138
  74  65  86  93  98 105 103 107 112 116 127 119 111 101  58  39  26  26  26  33  37  42  68  85  98 130 126 150 133 119 113  95  43  48  44  50  45  56  77  97 122 128 129 141 137 151 143 138 141 126
  70  78  97  96 100  74  42  39  33  56  53  28  38  42  75  42  35  34  33  34  45  49  55  95 112 141 150 158 143 143  99  78  59  34  34  38  48  25  29  30  63  53 114 136 152 147 151 149 142 143
  86  85  96  77  31  35  35  21  16   7  18  11  19  27  21  32  41  38  29  38  52  68  89 105 120 138 155 161 150 140 114  75  44  34  45  23  15   9   4   4   4  10   9  19  75 133 148 145 138 151
  77  84  33  42  29  16  12   9  13  20  10  43   4  65  15  18  32  35  27  38  39  71  86 114 122 143 151 159 146 140  99  50  46  44  14  21 105  16  17   7  27 119  27  31  15  41  61 137 144 149
  81  36  39  19   8  25  84  25  14   8   4   2  61 114  28  19  20  30  26  36  52  74 100 104 121 137 149 157 148 130  99  50  51  23  44  67 123  16  14   2  11  19 110 150  41   9  31  68 130 153
  62  46  16  12  16  79 111 131  15   8   6  19  72  36  19  20  14  37  22  35  42  82  78 116 118 128 147 153 146 141  91  68  68  29  26  37  58  77  14   2   4  21 165 147  56  26  19  49 130 144
  42  27  19  21  26  24  25  29  30  27  24  33  30  47  32  28  28  28  24  50  54  88  94 108 123 125 146 150 143 131 109  65  79  53  34  44  52  41  33  53  49  59  70  80 114  96  72  90 105 150
  52  38  55  39  41  35  36  33  55  62  37  37  41  42  38  32  32  33  43  48  65 108  97 117 117 125 145 152 152 135 121  95  93  66  75  58  50  48  51  85  93 119 110 121 123 115  94  91 121 141
  73  73  64  73  79  81  84  86  94  76  55  58  46  39  36  32  51  62  60  69  86  98  92 100 117 126 141 153 152 144 133 133 115  93  78  73  94  67  84  89 106 116 138 146 146 149 142 138 138 142
  98  94  96  86  84  88  98  84  76  79  76  63  54  45  41  56  63  77  86  93  91  96  98 105 114 127 138 148 148 148 146 138 141 131 122 103  97  95  86  92 120 113 134 140 142 143 144 149 153 151
 103 117 107 108 109 110  96 105  97  85  74  57  50  53  87  92  73  82  94  95  86  77  86  98 130 132 136 144 141 150 153 146 141 141 138 133 104 109 109 107 118 128 125 132 142 150 147 153 149 154
 119 117 120 129 123 114 114 112 103  83  76  55  83  94  93  94  78  68  96  98  85  85  63 110 128 119 137 135 134 145 154 156 145 148 141 141 142 123 113 105 109 122 124 128 143 145 145 146 153 150
 123 116 126 120 122 106 119 101  68  79  58  94 109  94  94  78  74  97  94  84  75  92 107 103 121 126 134 138 131 137 142 150 149 133 140 139 138 142 138 130 120 109 117 129 130 139 145 148 148 153
 122 129 116 127 119 126 103 108 102 116 109 109  96  74  96  95  91  94  77  72  68  77 109 129 120 133 133 146 145 137 135 142 156 146 143 139 141 141 141 141 133 120 132 123 136 136 144 148 150 154
 131 124 124 126 121 117 116 109 110 120 107 101  96  92  87  67  65  61  57  77  79 119 110 124 137 131 146 156 158 144 136 120 139 159 144 134 131 135 144 141 141 145 138 135 142 143 144 149 152 163
 119 119 124 112 119 124 123 114 123 123 120 117 106  91  86  75  53  76  84 102 115 121 136 138 137 144 156 162 162 161 154 136 126 150 138 133 133 137 143 142 142 149 152 145 146 146 142 150 160 160
 118 116 119 121 114 130 126 121 117 109 116 102  92  93  81  53  86 123 117 120 124 125 130 139 145 143 159 169 170 167 165 156 156 139 119 124 132 137 140 143 148 151 149 145 146 146 157 157 163 166
 119 102 102 122 127 126 125 115 119 121 114 112  91  64  45  91 120 129 125 124 111 119 129 125 142 144 157 168 168 164 160 165 168 164 134  98 125 145 144 149 152 149 153 151 150 149 155 156 157 163
 101 110 114 130 117 129 121 119 115 120 117 110  85  32  39 119 129 123 105  66  77 102 104 116 125 129 145 155 153 138 132 152 165 168 159 101 105 130 137 146 143 148 155 156 150 152 156 157 153 162
  97  97 115 113 114 133 134 124 125 129 116  86  48  38  49 120 127  91  17  11  15  22  80 106 114 110 141 137  61  25  20  62 132 160 165 119  78 118 129 144 150 152 153 156 158 158 160 161 165 164
  96 106 101 103 113 126 128 127 125 130 108 115  49  34  67 102 114  75  10   1   1  14  34  75  92  90 107 132  24   1   6  10  88 148 157 120 100 115 130 143 144 153 158 164 158 159 159 164 164 168
 101 102 105  93 114 132 122 135 124 123 115  97  56  42  35  67  86  44  35  16  19  30  40  47  80  76 115 125 105  27  27  26  43 126 146 111 116 111 123 137 150 152 158 162 155 164 162 166 161 165
  97 105  89 100  79 115 119 126 134 134 137 110  93  66  37  40  47  63  44  27  33  46  61  61  59  81  95 108 129 127  96  74  59  91 120 126 103 119 125 130 136 152 158 160 160 166 165 169 166 168
  89  97  81 107 102 119 125 115 129 132 141 107  95  79  78  50  33  29  33  30  44  51  71  96  98  84  84  95  95 106  99  95  85  88 127 129 139 131 118 117 142 139 152 159 158 165 166 165 165 165
  86  99  98 112 112 121 118 128 131 136 126  89  84  72  76  65  44  43  38  43  56  63  55  82  59  63  75  81  95 114 115 103 110 122 123 140 139 141 135 118 130 143 145 157 152 162 161 165 165 163
  91  83  99  94 108 110 110 113 119 123  95  90  84  62  83  58  57  40  48  44  53  61  61  84  81  66  62  69  94 117 113 123 125 139 135 143 138 141 141 122 126 138 144 154 155 165 160 164 156 163
  90 106  86  97  97 117 109 108 113 107  98  91  80  81  76  63  45  54  82  44  64  52  63  75  94  70  63  69 108 109 114 119 119 136 129 138 142 153 153 145 141 141 146 152 159 164 162 161 153 161
  97 105  76  87  97  94 102 106 102  90 105  91  76  82  71  51  61  52  62  57  64  64  64  61  70  61  58  49  73  98 107 116 110 133 130 136 139 146 152 153 144 143 148 150 154 163 161 162 145 153
  80  89  53  68  75  98 108 109 105  94  94  86  69  80  87  62  68  72  52  58  36  44  50  47  48  34  60  52  89  95 111 106 122 136 118 131 147 149 153 158 156 149 156 154 158 152 154 152 111 148
  91  84  87  67  86 101  88 102  83  91  78  70  63  70  78  73  73  62  41  55  55  51  72  43  63  63  79  89 104 121 106 115 127 136 130 129 139 146 149 156 160 160 154 155 162 156 159 154 139 148
  60  77  75  86  97 102  87 105  82  84  53  60  62  68  89  66  63  75  66  53  52  35  52  42  62  87  88  85  87  86  89 103 130 135 145 139 142 153 149 144 154 158 155 153 162 163 162 161 159 149
  55  78  70  73  86  80 102  88  80  69  81  55  70  72  74  83  65  52  44  29  32  34  35  34  42  97  65  77  85  91  90 104  89 117 143 146 145 148 136 134 154 158 162 161 162 158 162 158 161 163
  65  81  82  59  81  94 107  55  63  52  40  63  67  60  74  47  44  30  40  28  51  59  34  45  61  78  98  92  94 123  90 115  85  81 115 122 145 149 141 140 152 156 157 157 160 161 158 150 161 163
  89  95  69  89  89  96 102  63  77  53  50  55  57  94  62  29  32  32  41  30  26  34  27  51  43  58  74  84  82  99  70  50  60  56  67 113 116 140 139 141 137 151 154 162 157 162 161 157 161 163
  84  82  75  71  90  87  86  73  82  71  66  45  56  44  26  29  31  29  26  45  85  55  79  72  63  49  75 111 134 144 123 103  33  45  57  69  84 101 129 124 138 140 147 160 161 161 163 161 166 161
  82  90  68  87 108  94  66  86  63  71  59  29  26  26  22  34  34  26  71 125 157 146 162 161 160 125 168 167 174 191 170 170 142  40  30  37  44  51  56  86 131 140 141 159 156 160 162 164 163 164
  97  93  96  79  74  88  84  66  78  61  54  39  24  17  18  23  34  39  51 110  85 151 167 169 170  91 174 172 179 182 168 176 167  27  93  32  27  13  33  83 107 143 150 158 159 160 163 158 165 160
 102  99 108  95 100  83  98  74  69  71  50  29  31  20   9  19  32  17   8  34  16  55 129 146 144  58 147 143 146 132  86 117  74  25  73  45  24  26  80 106 109 139 150 157 160 162 161 156 163 163
  92 101  92  85  92  86  93  89  63  61  49  35  35  41  21  24  29  28  31  34  36  31  40  56  71  63  56  43  55  47  48  57  70 100 117  95  58  79 121 107 116 121 149 155 150 159 154 152 163 158
  98 105  80  96  84  90  98  76  55  54  41  41  53  33  38  23  33  52  59  33  51  47  47  58  69  72  41  58  59  62  67 107 124 136 122  97 129 136 136 133 140 136 152 153 150 153 157 161 163 155
 106  94  89  84  82  89  83  89  90  64  54  46  51  50  40  31  34  31  40  45  50  50  82  74  86 112  47  99  87 103 111 136 141 125 116 138 146 145 142 139 139 141 146 149 146 152 148 156 163 160
 120 109  84  92  89  87  82  83  92  66  61  61  48  60  50  40  50  30  31  51  45  64  77  89  86 105  87 101  99 109 122 119 120 120 123 141 147 148 142 145 139 144 148 148 150 147 155 159 159 162
 118  90 100  97  72  79  80  86  63  92  83  77  74  71  60  58  41  38  40  34  35  46  46  70  77  64  65  71  78 102  95 112 118 133 128 144 145 152 149 151 144 152 145 153 154 149 157 158 158 158
 102  95  84  93  97  70  77  47  67  65  79  80  82  73  58  64  54  45  39  36  29  31  32  49  41  45  51  59  50  84  87 121 117 128 142 141 150 151 149 148 152 152 150 153 149 150 153 154 161 155
