P2
50 50
255
  50  40  32  39  33  31  32  30  28  25  30  39  79  85  84 103 106 105 107  99 110 106 113 125 115 107  93  92  99 108 108  99  86  84  76  84  77  50  35  35  35  38  47  61  45  71  76  43  52 100
  45  27  32  32  23  25  25  31  24  24  15  20  29  48  53  70  95  94  75  93  88 100  99 100 110 106  82  72  74  89  84  75  44  38  35  24  30  31  34  30  37  41  41  55  37  39  38  45  43  44
  34  27  26  31  24  31  26  26  26  18  20  25  19  22  31  42  44  47  64  83  92  72  90 102  86  89  71  58  55  54  77  51  34  33  31  32  37  44  38  32  36  41  40  72  45  46  59  84  44  38
  37  34  38  40  39  43  49  50  41  34  31  27  32  25  30  31  26  40  65  71  70  76  81  81  98  73  80  63  71  71  56  40  38  40  45  47  39  51  55  79  66  73  85  76  92 117 139 134 130  79
  43  41  56  57  79  96  70  84  66  77  54  42  38  33  33  33  37  32  41  55  63  72  80  83  90  63  66  63  56  60  48  54  52  55  67  61  54  60  68  77  93 115 108 118 122 124 109 119 111 136
  64  52  74  77  88  98 107  96  98  99  88  68  51  36  40  38  33  39  44  53  49  68  92 102 111  81  68  77  71  60  69  63  53  48  43  67  65  64  78  99 104 114 120 134 126 127 127 128 115 113
  61  83  88  98  86 105 110 109 106  89 103  98  75  65  46  34  35  35  47  45  49  63  80  91 115 106 101 105  93  96  82  69  60  51  53  48  63  71  95  94 110 128 128 125 133 131 139 126 136 135
  80  87  85  78  70  41  33  38  37  38  41  53  44  40  49  40  39  39  46  45  53  70  82 100 120 135 139 144 121 111  68  65  51  43  48  41  32  26  19   8  19  25  33  96 129 138 127 131 131 144
  83  80  74  35  39  35  12  15   5   5  14  14   4  23  31  39  42  37  45  46  68  69  70 124 126 139 149 149 136 117  73  61  50  38  29  31  83  30  26  14  25  26  28  20  33  50 112 126 134 135
  78  54  34  35  16  37  74  27  10  30  11  41   8  66  34  33  44  42  37  47  64  82 102 116 129 143 153 146 130 117  77  54  47  35  66  90 113  26  30   1  26  30  52 134  28  24  81  66 123 135
  70  50  36  16  45  90 113  58  13  13  11   5  41  89  46  30  38  42  36  50  77  84 106 122 135 145 152 146 133 119  87  61  54  44  68 102 123  43  18   3  17  25 139 154  88  32  26  78 112 138
  61  47  27  28  37  92 115 121  39  17   2  25  43  29  29  25  31  47  37  50  69  96 100 110 127 134 145 135 124  96  69  83  34  29  34  44  59  66  46  19  20  98 122  65  63  66  81  89 104 137
  64  46  49  48  40  37  37  40  44  38  41  44  46  47  46  40  37  40  44  58  69  97 103 115 122 137 145 140 133 112  94  77  67  75  46  45  47  47  50  51  71  97 105 104 116 106  97  90 114 139
  79  71  67  59  56  51  53  44  50  67  46  54  42  49  47  45  46  46  52  57  80 100 114 111 128 135 137 139 131 120 101 107  90  74  68  53  53  54  67  80  98 110 120 123 123 123 110 119 125 130
  88  86  76  77  73  73  74  78  72  70  57  56  53  48  41  47  52  64  55  78 100 107 109 110 121 139 144 141 137 131 118 114 101  92  91  78  70  65  78  94  95 103 128 135 130 130 126 130 133 136
 110  92  96  93  80  92  87  95  83  76  65  64  61  48  53  67  57  73  58  79  83  94 110 115 119 135 136 145 142 125 131 124 110 115  94  78  84  86  81  84 114 122 125 131 129 131 135 137 135 138
 107 108 106 113  95 111  90  95  91  86  75  66  56  50  83  71  65  80  87  97  90 103 106  99 114 128 139 140 144 147 138 122 134 125 122 109 105  98  93 103 114 121 118 126 134 131 140 139 140 142
 108 109 103 115 112 113  98  93  96  92  82  67  77  92  83  83  65  84  88  93  86  93 100 113 125 132 137 138 138 145 146 141 135 129 128 122 126 119  98 100 100 115 118 125 129 139 140 134 136 137
 117 107 113 115 110 110  96  92  75  73  71  88  95  98  92  81  80  94  91  86  92  95 113 112 126 128 129 137 139 140 143 138 129 134 129 135 126 123 119 114 116 114 111 121 128 131 130 136 139 144
 117 114 116 109 112 113  92  92 104  82  98  89  85  93  94  74  90  86  77  75  92  95 104 107 116 124 125 135 135 135 140 145 135 126 134 132 126 125 127 122 121 117 119 125 125 126 128 138 145 148
 117 118 113 121 120 110 111  97 102 103 106  98  95  89  89  89  72  86  62  73 102 108 105 118 117 121 123 118 126 125 134 144 139 135 126 128 126 130 132 133 128 122 111 124 127 136 135 135 148 153
 114 113 109 115 114 118 101 106  94 113 106 102  86  91  78  77  71  64  65  83  96 110 114 115 126 132 138 134 126 115 114 131 139 135 135 128 127 132 133 131 134 132 133 128 136 137 139 145 152 153
 115 111  97 113 106 102  98  99 104 115  96  92  98  84  73  54  66  72 100 108 107 108 122 123 122 140 145 141 136 128 110 113 127 118 116 124 131 132 132 130 129 129 134 138 135 144 149 153 156 159
  98 113 106 101 107 115 106 108 113 117 113  79  78  62  58  70 103 105 123 122 114 119 131 126 134 144 154 152 150 143 141 131 125  93 108 117 125 131 140 135 141 140 139 145 141 143 147 149 153 155
 106 101 113 106 103 113 114 114 112 100  99  90  68  48  73 115 112 101 108 111 115 120 125 134 143 156 160 160 159 157 155 153 146 125  88  95 128 130 137 136 134 142 135 135 136 150 145 147 153 153
  81  99 110 109 115 114 101 111 119 110 103  83  66  50  94 113 114 104 115 106 110 112 118 129 135 144 150 151 146 144 153 158 158 142  99  85 114 123 130 134 138 143 139 143 146 152 153 153 156 154
  88  88 110  98 114 110 114 107 105  98  84  71  47  60  96 109  91  59  36  70  85 108 107 105 121 134 134 126  96  96 123 141 156 149 114  83 101 123 131 139 139 144 145 145 146 149 153 156 156 158
  82  95  90  97 101 117 113 106 111 119  86  75  46  48  86  93  61   5   0   2  32  74 113 102 112 119  74  28   0   5  36 117 143 146 117  88  93 110 122 133 139 144 148 146 153 154 154 153 155 154
  86  84 101  88 103 108 107 118 108 107  88  69  56  52  68  80  63  40  27  24  38  50  73  92 100 108 115  89  48  33  38  57 114 126 108 102  87 107 115 125 139 146 147 151 156 152 156 155 157 152
  79  95  91  98 103 110 110 109 106 117 112  95  73  68  58  51  54  53  39  48  53  57  51  53  75  74 113 125 130 110  69  66  83  79 113 117 112 104 113 128 136 141 142 147 153 155 151 153 154 153
 102  86  84  89 100 105 105 102 116 119 108  97  67  72  64  54  37  36  45  50  55  80  74  87 100  77 100 100  94  96  74  80  91 109 114 128 120 113 111 124 131 135 142 149 151 154 155 152 144 152
  87  87 101  93 108 114 111 114 120 103  85  74  80  67  66  62  54  50  53  61  65  73  74  79  73  70  85  87 102 115  96  87 102 112 122 126 130 122 116 121 128 136 141 141 149 150 151 143 145 150
  77  82  99 103  90  87 108 107 108  94  85  91  75  79  66  61  62  56  61  68  62  73  77  61  71  71  65  91 113  95 112 102 112 116 121 128 134 129 131 113 125 126 142 143 154 151 144 145 143 146
  73  80  78  87  95  85  98  96  98  81  89  73  69  65  62  63  60  75  60  67  58  70  76  59  69  67  80  87 110 112 111 112 117 119 124 137 138 142 140 135 129 138 145 144 150 153 153 148 139 146
  80  83  63  70  79  81  92 100  85  92  79  77  73  62  60  58  58  60  64  60  67  76  76  62  64  68  74  81 106  93 101 112 125 118 118 133 140 144 141 144 139 135 144 148 151 149 131 131 126 145
  83  74  56  67  71  76  87  84  77  81  78  66  76  65  67  63  70  68  59  49  51  48  61  61  60  55  53  73  84 112 101 107 122 119 123 136 137 138 146 145 144 146 150 150 151 149 143 136 124 145
  74  83  77  71  87  87  77  87  74  79  66  74  62  73  75  66  65  61  55  54  48  60  42  38  40  48  72  89  81  98 108 115 121 120 128 138 139 142 140 149 144 139 142 143 150 145 146 147 142 149
  62  52  70  91  87  93  86  85  69  71  50  57  69  76  61  64  66  56  56  58  57  73  64  66  82  95  73  91  93 105 118 103 122 126 121 131 134 137 143 144 145 146 145 143 150 146 143 144 146 146
  81  85  74  64  75  89  84  66  66  63  59  64  68  67  75  60  67  49  51  45  42  52  52  67  60  70  73  67  61  65  87 112 127 133 131 139 132 120 124 139 152 149 148 145 147 150 146 134 149 153
  95  94  70  60  82  90  76  67  71  50  58  57  69  68  67  50  44  40  39  47  58  53  48  71  69  58  64  79 108 108  74  72  98 125 130 133 134 124 132 138 140 138 144 151 149 148 146 148 152 151
  89  93  62  83  82  78  76  80  62  55  57  57  70  63  49  45  45  50  48  57  54  48  51  77  85  80  75  99 107  89  86  72  70  82 111 121 130 129 125 122 133 140 149 148 150 149 151 146 151 151
  78  89  85  82  87  83  67  55  68  60  55  52  44  45  38  47  47  36  39  48  38  44  48  46  58  62  64  59  62  87  45  48  57  64  64  83  95 101 108 122 123 124 135 146 147 150 149 151 148 153
 102  87  86  73  92  86  74  75  73  61  51  40  33  37  34  43  40  59 110 136 130 144 142 136 120 140 158 163 162 155 163 132  48  44  57  52  54  44  62  98 129 135 145 146 144 150 149 152 151 149
 105  88  82  90  93  87  85  78  75  58  49  35  33  13  20  33  49  29 120 114  93 153 156 154 150 157 159 165 159 148 165 146  59  68  45  33  22  42  72  82 121 135 141 147 145 153 149 145 149 146
 100  81  88  79  70  73  97  69  54  56  52  40  41  27  27  28  33  33  31  34  33 115 138 134  73 138 151 135  69  57  69  53  35  48  49  40  42  69  84 107 109 128 141 145 148 145 134 145 151 138
  96  85  87  83  73  85  81  61  70  60  52  45  46  48  36  38  39  43  38  36  35  41  45  45  51  45  43  52  36  42  51  69 102  92  76  67 110 118 102 101 111 133 134 137 141 143 144 147 150 147
  83  92  91  80  71  69  77  71  73  61  51  44  52  47  41  38  58  57  46  54  55  55  54  56  47  49  55  62  59  72 111 111 114 102  85 118 123 120 122 116 121 129 138 138 135 135 141 146 149 150
 105  86  82  85  68  75  73  69  68  67  56  54  51  57  54  47  45  55  59  58  57  70  81  75  73  63  69  72  89 110 124 123 112  99 123 120 125 125 127 120 122 129 133 140 135 140 146 145 139 144
 136  87  80  81  72  70  69  71  79  69  66  68  64  56  75  54  45  42  55  53  59  74  84  77  79  74  83  82 103 117 110 114  94 122 123 131 132 128 134 136 126 132 135 132 134 138 144 143 145 145
 158  95  70  84  61  71  56  63  63  67  66  60  56  67  54  64  45  43  48  46  60  62  71  71  72  84  93  80  98 103  99  97 123 122 129 129 135 135 136 135 130 138 140 135 128 140 137 143 141 146
