P2
50 50
255
  84  79  29  28  24  25  22  18  13  20  15  16  15  12  23  29  53  97  89  68 107 116 106 120 117 121 114 107 101  84  91  68 105  40  30  22  23  22  29  37  32  22  53  51  33  42  36  40 110 126
  78  32  27  21  24  20  16  17  20  20  23  21  20  17  17  23  24  21  35  53 109 106 108  99 109 117 110 112 104  60  77  82  45  33  25  25  33  41  56  37  30  28  29  33  29  24  26  26  58 111
  33  22  18  16  21  18  25  22  30  35  27  14  29  24  19  24  21  33  21  27  65  93  90  92 112 115 115 103  91  98  83 100  33  41  27  36  69  33  59  67  61  71  85  93  61  32  31  31  23  63
  27  22  16  25  27  31  51  73  80  76  81  76  41  31  29  29  29  23  23  46  60  68  64  96  81 110 111  86  60  87  71  48  42  59  70  94  64  73  89  90 106 109 114 123 100 119 121  87  48  23
  24  26  31  44  61  72 100  87 109 106 108  92  63  48  37  40  35  33  29  51  52  46  65  95  93 106 112  89  66  61  49  77  70  70  70  63  61  64  93 102 119 111 120 125 139 131 126 119 120  44
  43  57  31  79  99  88 107 115 105 103  96 115  85  73  56  44  34  39  43  40  48  51  67  67  76 102 122 123 120  98 101 110  94  80  62  60  66  82  64  78  98 107 116 132 130 142 134 133 121 120
  43  57  62  97  98 103  56  74  26  22  21  30  37  65  72  51  42  31  37  37  40  43  70  70  88 103 114 135 141 119 112 103  67  50  59  47  39  38  30  20  22  46  44 112 126 133 137 144 134 126
  38  72  88  80  72  27  18  15  19  17  16  17  18  31  20  57  36  36  29  36  39  62  53  95  97 115 123 131 137 135 112  80  71  48  36  34  13  18  10  11  13  15  17  15  23  96 130 142 144 138
  78  85  76  70  20  16  15  14   2   4   2   5  84  21  20  25  38  36  32  28  45  64  77  85 103 113 125 133 130 126 107  88  79  38  39  18  79  17   8   2   8   8 123  22  19  20 102 133 138 142
  83  76  64  21  16  13  56  15  13  16   6  16  34 132  68  15  24  31  36  24  31  65  60  89 103 108 126 133 138 122 103  91  41  50  20  69 108  22  14  17  19  23  52 146  20  18  20 120 138 143
  73  74  24  22   8  30  96   9  17  20   4 119 168 151  75  28   8  33  25  29  40  45  71  72 107 102 121 128 127 117  84  51  46  22  64  80 118  19  18   1  17  66 123 154 101  15  24  45 127 139
  77  35  27  12  14  20  22  22  27  34  31  30  38  34  35  21  23  20  27  27  32  57  78  83  98  91 111 130 129 113  93  71  73  27  27  28  31  40  37  37  43  56  55  51  39  22  25 107 118 139
  56  40  19  23  34  45  66  77  84  83  88  75  70  48  53  43  39  26  26  29  39  60  69 100  87 102 123 123 131 118 102  67  74  68  69  64  51  55  66  86  98 118 120 116 113 107  78  76 106 135
  56  27  29  67  80  80  92  93  84  75  68  62  51  37  35  32  33  46  44  40  68  70  81  94 107 119 114 126 125 121 118 110  92  72  42  41  39  40  45  90 101 112 133 141 141 137 125 100 112 139
  41  61  77  67  80  76  87  71  75  57  53  41  36  43  39  35  52  53  43  65  71  75  71  80 110 105 103 119 119 120 123 118 106 106  95  62  58  53  44  46  76  90 115 129 128 130 133 130 120 120
  87  72  93  93  99  98  88  76  76  70  70  47  39  39  45  85  54  51  59  76  72  61  74  77 111 119 117 112 117 115 110 126 111 116 101 108  92  85  78  92  94  86  78 100 117 126 130 131 129 129
  87  94  94  93  96  93  87  79  86  58  65  60  64  52  74  75  47  58  86  73  51  53  64  95 112 119 120 120 131 123 110 117 124 108 115 115 117 101 109  90  92  93  96 106 104 120 122 129 129 134
  91 103  95 108 109 101  72  76  74  61  85  78  84  70  70  59  64  77  75  64  71  72 110 115 122 118 122 134 138 137 127 105 120 123 110 113 110 109 110 108 103 100 101 105 108 116 116 119 130 131
 102 115 117 110 116 105 101  92  90  77  96  98  96  87  67  60  72  56  64  81  99 113 115 118 125 126 127 136 141 140 144 132 113 116 134 113 104 116 116 117 117 121 118 104 115 124 122 127 133 135
  99 105 106 101 105 101 106  97  89 106 109 105  83  83  62  75  58  88 113 116 116 106 107 120 122 130 129 145 156 154 151 139 143 137 129 119 115 113 120 119 123 131 128 129 125 131 128 125 114 131
 111 103  99 110 112 103 119 113 110 107 101  92  81  82  59  37 107 117 123 112 107  96 116 115 112 125 125 142 152 150 146 151 148 147 145 111 100 113 114 126 119 129 133 127 130 132 135 140 134 140
  97 110 106 107 111 106 113 102 117 113 116 110  84  58  41 103 120 124 111  99  75  67  87  92 111 105 106 127 130 122 114 113 132 144 149 146  77 109 115 121 116 126 133 136 133 129 134 138 130 141
  98  72 110 101 110 110 107 106 116 117 106 110 101  41  29 109 115 113  67   0   1   1  24  63  87 112 102 117 118  11   2   0  15 117 145 150  85  61 110 117 128 129 131 132 134 131 138 144 136 134
  98  99 100 110 108 116 115 113 116 117 119 115  79  29  34  84 108  92  11   1   0   1   7  20  85  93  98 110  36   5   1   4   9  43 129 143 112  80  99 117 119 130 126 133 135 131 136 136 137 140
  81 108 100  95 110 107 115 120 116 119 126 117  83  40  31  73  88  79  24  22   5  21  51  35  46  50  93 116 123 106  35  22  26  36  96 131  89  61  93 103 119 124 129 137 139 137 138 141 141 145
 102 104 102  98 111 117 114 119 121 123 135 117  84  65  40  37  63  64  73  25  28  42  47  60  45  44  54  67 105 102 107  97  72  57  74 105  99  95  79  89 109 126 134 133 136 135 143 141 144 146
  85 100 100 106 116 111 115 121 123 125 136 117  98  64  64  47  26  25  26  39  36  46  59  69  75  79  71  75  68  90 111  90  87  57  93 109 102 116 108  96 108 121 131 128 144 139 149 146 145 148
  99  82 104 108 111 119 115 124 121 128 121 109  82  81  71  70  36  45  28  37  41  48  45  44  49  66  66  54  57  68  75  76  91  92 110 111 118 111 114  92  96 118 116 133 137 143 146 147 150 150
  92  90 110 112 109 108 116 121 115 124 118  96  75  73  53  53  44  45  55  47  49  42  59  43  88  69  52  45  53  74  89  90  88  97 108 114 114 115 116 109  95 111 124 125 134 135 145 147 149 147
  91  96 101 108 112 104 102 111 119 107  99  94  91  63  56  43  50  35  51  42  49  40  49  48  84  57  51  34  39  48  75  89  98  87 103 112 113 119 122 122 117 102 121 120 134 146 150 143 146 146
  90 102 102  98 100 100 100 109 106  99  89  78  70  62  61  50  41  39  54  40  39  32  40  45  61  53  89  80  88  97  96  80  71  96  96 104 114 125 130 124 124 126 108 126 130 130 145 151 148 141
  82  89  75  85  79 103 105 106 100  83  91  75  55  74  42  53  42  50  45  48  62  42  59  60  43  67  99  80  74  63  78  89 105  97 106 109 114 109 122 128 130 126 130 127 133 136 148 145 146 143
  89  80  69  57  70  97  99  98  89  77  75  59  47  58  63  65  47  55  62  51  53  39  48  49  35  59  93  73  63  74  87  81  83 104 122 125 117 114 125 113 124 134 131 134 136 142 147 140 140 120
  78  65  69  93  61  86  90 110  75  69  69  56  61  54  72  61  74  51  45  38  54  48  62  30  39  46  85  89  86  92 115  94  98  57  93 124 126 134 130 126 123 136 135 133 135 140 140 146 143 133
  74  81  71  84  84  81 102  86  60  55  66  62  47  79  72  73  51  34  45  69  33  28  70  34  40  43  69  74  87  75  81  56  81  31  71  91 120 130 135 120 102 129 136 136 140 145 142 141 143 143
  32  68  73  87  97  98 106  53  47  46  38  41  59  71  52  36  33  38  60  32  31  27  27  33  38  48  48  48  73  78  54  45  59  31  59  60 105 118 130 123 118 129 144 142 143 144 146 144 146 141
  43  90  72  47  75  88  94  56  49  47  58  53  58  78  41  25  37  72  30  32 110  69  27 121 146 135  62 127 152 159  97 110 139  25  31  51  82  91 104 122 124 128 122 141 141 144 146 147 145 143
  81  78  75  62  88  94  82  71  75  59  57  52  44  37  36  43  40  38  39  77 144 151  88 156 166 163 105 158 190 193 163 152 175 151  72  37  40  78  81  75 111 125 119 133 142 146 146 147 146 146
  94  54  64  81  79  89  93  76  78  79  62  39  30  27  23  28  30  90 100 135 152 160 147 162 170 172 153 177 189 200 205 162 191 174 145 150  67  49  48  38  69  92 129 137 123 147 147 148 148 143
  74  67  69  90  87  90  85  75  73  74  45  34  34  25  17  20  27 120 123 138 151 164 147 157 160 157 152 169 165 183 184 162 176 176 148 167 139  25  27  19  63  78 126 126 143 146 145 146 150 146
  79  84  82  90  96  91  77  63  91  76  59  29  39  22  12   4  18 103 106  33  25  25  22  30 144 123   0  16  88  23  56  35  53  60  70  84 125  16  16  32  83  91 103 141 140 145 146 148 146 150
  83  93  81  85  81 105 100  95  79  70  40  44  37  34  17  21  25  31  41  39  43  46  39  40  44  58  62  60  42  60  66  63  93  87 114 128  98  49  33  74  90 104 121 130 142 141 144 146 146 147
 102  82  95  93  98  92  85  92  69  65  50  51  44  34  41  32  27  29  51  45  58  44  56  74  91  74  96  51  85  92  84 110 121 121 121 110  97 102 120 120 111 120 120 130 141 143 144 149 144 146
  90  94  88  86  81  99  98  79  83  63  65  53  55  41  44  33  35  32  32  34  52  59  72  93  94  80  81  62  91 103 101 119 108 111 119 112 116 125 124 120 119 125 127 127 140 133 146 136 141 144
  99 104  81  89  74  90  89  87  79  70  90  54  41  55  59  44  57  45  36  32  34  32  48  38  56  70  59  55  62  80  83  94 103 106 115 124 131 131 131 125 134 129 131 132 136 135 136 133 142 148
  86  79  94  73  79  71  87  68  90  79  85  71  63  67  78  64  53  44  37  39  51  35  54  58  47  58  59  49  51  69  75  96 101 106 129 126 122 132 134 136 138 133 134 137 128 133 139 138 145 146
  89  83  85  76  74  83  73  85  81  68  78  75  67  67  59  73  66  57  41  42  37  34  36  40  37  42  36  50  54  59  63  72  77 112 114 128 135 134 136 134 137 136 135 141 138 143 133 143 144 146
  95  95  84  95  60  88  81  62  53  83  79  76  78  71  71  77  63  62  53  39  48  35  32  36  38  40  46  71  70  85  74  71 100 118 119 130 135 138 137 135 140 137 138 142 140 142 133 144 144 139
 112  73  93 103  94  93  75  80  76  71  75  75  55  78  71  80  73  61  55  67  61  63  60  71  67  64  69  54  78  55  96 104 111 113 112 129 129 130 138 137 137 132 135 140 141 136 130 145 142 142
 104  98  85  85  82  68  75  66  67  86  63  63  32  61  55  61  71  66  78  62  62  67  68  80  83  86  83  68  85  85  87 100 108 113 120 122 124 134 142 133 129 135 140 136 135 138 138 142 142 146
