P2
50 50
255
  55  50  37  36  38  30  35  32  41  29  30  37  41  83  98 102 123 115 116 115 121 121 121 112 125 121 128 109 121  89 121 129 128 131 136 128 120 142  95  91  57  42  46  63  88  66  85  50  56 108
  54  25  31  29  33  22  30  20  28  27  19  22  33  43  67  84  95  86 104  91 110 109 105 113  93 113 110 109 101 102  86 113  99  69  87  73  48  36  45  33  28  21  36  50  48  51  41  63  39  44
  21  28  24  29  30  27  28  29  29  27  25  15  19  18  32  38  55  54  66  75  98 104  87  97 105 101 102  92  83  66  84  80  63  60  51  37  13  25  26  29  40  32  35  53  86  52  68  46  64  31
  35  30  23  33  37  34  34  32  37  31  23  18  25  16  23  28  27  34  47  72  89  93  81  97  98 107  93  91 106  77  80  45  68  30  38  31  36  35  41  32  40  42  56  53  69  72  93 140 133  83
  46  36  55  63  46  73  83  81  81  70  68  41  33  33  25  30  36  36  34  42  64  68  89  91  92 101 105  85  98  66 115  81  40  50  32  43  39  39  53  71  63 105 116  94 110 135 128  76 139 141
  68  46  58  88  68  74 106 102 112 106  84  73  54  33  34  30  36  27  36  36  37  60  69  90  97 108  87  74  48  79  76  56  43  61  57  48  41  50  56  71  97  90 108 120 131 144 136 133 125 136
  66  76  92  67  94  92 116 105 101 112 114  97  79  66  36  35  29  36  33  31  44  43  85  92  96 114 115 102  47  91  83  86  64  55  42  49  51  51  59  91 100 109 116 132 135 139 135 139 152 147
  82 102  93  78  67  44  27  37  30  35  38  55  46  32  47  49  37  35  35  40  40  39  59  76  95  99 134 143 135  93 105  79  48  58  45  40  39  34  21   6  12  26  72 118 143 133 139 144 148 146
  82  82  62  21  37  28   5   1   1   4   9   8  23  26  24  34  43  38  40  37  44  58  70  70  94 124 139 156 145 150  98  82  55  46  47  21  24   4   3  13   1  10  33  24  14  34 101 126 136 144
  79  48  29  32  12  27  63  15  19  27   4  30  30 136  36  16  41  39  38  37  52  66  79  87 122 128 151 157 155 138  94  58  50  50  25  33  88  15  24  17  30 158 134 163  85  11  33  39 127 133
  56  50  33   9  31  97 123  16  19  14   4   6 125 142  58  36  21  32  41  37  53  66 103 111 127 139 150 158 157 135 110 123  46  43  43  67 104  17  14   2  12  23 128 162 154  45  19  37  97 127
  51  33  25  28  30  36 104 107  18  13   9  51  62  44  28  23  17  48  39  38  56  60  93  94 122 132 152 155 154 128 106  95  62  31  28  39  43  62  16   4  10  29 155 107  46  73  68  52  72 123
  53  39  46  57  48  41  35  39  39  36  39  47  54  75  67  50  41  36  33  41  52  69  82 115 127 125 145 156 150 133 110  83 113  46  46  48  54  51  45  48  79 111 119 124 108 129 106 107 131 135
  86  70  72  68  67  69  74  82  67  67  58  58  59  65  52  39  50  48  43  49  59  74 102 113 129 118 142 155 143 138 114  88  92 100  63  50  64  51  56  64  82 119 133 141 146 149 147 148 139 144
  94  79  63 102  91  83 102  95  84  64  60  65  56  58  44  39  54  50  52  54  66  78 105 117 116 129 142 154 154 130 134 116  94 102  78  61  45  46  52  86  87 123 133 145 147 150 153 151 152 147
 101 101 109 107 103 105  83  87  87  71  90  71  63  55  52  66  60  74  66  74  80  95 106 106 109 113 137 153 152 150 139 137 112 107 104  99  90  51  58  69  78  82 111 124 134 143 151 152 154 154
 108 114 113  99 117 112  99  98  99  82  73  74  64  56  63  85  81  76  76  77  94  95 103 108 115 115 135 153 150 148 151 139 137 132 137 132 113 107  94 104  99 105 101 106 125 129 144 148 152 150
 106 114 124 113 117 118 108  93  96  75  68  64  80  99 100  92  81  73  81  82 103  95 100 103 111 125 133 142 154 148 150 150 151 141 139 139 132 130 115 115 116  95 127 131 128 136 142 137 148 146
 114 122 125 110 108 107 109  97  75  75  68  93 100  91  97 103  70  66  87  86 100  98 107 102 114 124 135 144 155 150 152 155 151 147 145 132 141 137 130 113 107 122 127 116 123 130 139 138 136 149
 107 124 109 125 112 101 109 105 109  91 106  98  95  95 102  74  74  81  99  97  87  90  82 106 115 125 126 142 143 153 142 140 146 132 134 133 135 138 132 141 124 129 122 126 131 127 132 144 149 149
 125 120 123 130 126 114 114 117 101  94  91 115 105  87  88  87  91  91  88  81  71  78  83 112 117 113 131 134 144 138 139 142 149 140 132 132 136 134 139 132 140 139 135 130 135 136 138 148 120 157
 118 119 114 114 120 110 119 115 118 116 106 115 116  97  89  75  82  69  47  55  90  90 102 112 117 117 128 138 138 128 133 144 136 151 143 138 136 133 131 152 132 145 148 148 142 139 153 153 147 159
 116 112 122 114 116 122 125 112 128 130 118 116 101  91  85  63  42  55  67  72  89  96 121 118 125 122 136 144 155 148 133 122 108 130 122 127 131 128 137 141 141 144 148 144 139 145 153 154 158 159
 114 120 127 126 124 118 124 130 119 121 128 122  91  57  46  45  68  76  86  85 106 112  97 124 135 124 135 145 153 151 154 130 118 128 114  94 128 122 138 147 142 147 146 147 141 146 148 156 157 154
  60 109 121 118 115 110 122 123 121 135 121 107  72  50  39  55 109 117 125 110 119 119 116 138 131 143 150 156 159 160 157 144 145 151 134 105  73 114 129 126 145 147 151 153 153 150 155 160 157 157
  97 109 109 124 123 121 135 122 128 123 111  94  47  38  53 123 118 127 121 116 119 122 125 134 138 135 155 167 170 163 165 158 161 160 156 117  72  95 125 139 141 152 153 152 157 151 155 159 161 164
 109 100 103 109 118 124 125 118 111 117 111  75  43  37  70 107 117 110 106 103 100 115 115 120 124 110 144 157 156 155 153 149 157 162 163 155  86  87 103 120 126 145 152 152 157 162 157 149 164 164
  98 108  95 108 106 119 126 123 105 115  84  46  43  43  82 103 111  94  14   4  61  75  98 111 119 126 132 142 144 133 119  98 123 143 156 153 103  64  80  89 124 126 143 153 158 158 161 162 164 157
  84 110 114 109 105 137 122 127 121 108  88  52  42  61  46  86  77  37  29  22  15  32  58  81 105 121 119 113 104  28  26  30  32 107 141 132 119 101  78  93 101 127 136 143 157 157 160 159 164 159
 112 102  95  96 105 115 107 108 120 113  86  74  61  79  54  42  46  39  44  38  42  37  39  51  69  89 102 107 113 143 132  80  48  58  98 146 139 133  90  89 109  98 128 135 150 150 154 163 155 161
  82  92 101  98 112 111 117 129 121 114  87  81  77  73  77  65  47  42  43  40  55  59  71  61  45  49  65  87 109 139 116 107  92 130 143 143 147 140 129  97  90  95 116 120 128 144 155 140 153 155
  90  87  97 110 105 123 105 109 110 104  87  87  91  81  92  61  61  51  50  47  54  53  74  68  80  65  74  66 103 121 111 121 117 138 135 147 139 148 127 129  93  83 112 128 141 134 144 145 150 142
  89  68  74 103 103 104  85  96 107  87  88  89  73  75  70  54  67  56  61  59  54  57  72  60  57  70  56  55  82 118 126 125 126 126 133 138 143 145 151 133 120 124 125 131 129 142 142 148 142 134
  97  78  88  82  92 114  94  88  84 104  89  92  78  63  57  55  61  49  64  57  51  53  68  79  81  70  59  59  60 101 108 119 123 121 141 145 144 147 151 147 147 130 115 127 134 133 142 143 144 115
  84  55  59  51  67 108  93  92  90  68  75  66  68  77  58  39  46  56  57  65  56  58  63  56  72  50  55  70  84 102 110 125 127 143 138 135 151 148 147 155 151 146 135 130 130 144 121 130 129  94
  70  79  67  73  80  92  92  95  59  65  54  50  62  63  73  57  51  70  50  55  50  45  54  44  58  54  43  56  57  72  93 117 122 115 131 144 145 148 151 146 153 142 140 135 135 140 136 130 135 139
  46  70  66  63  62  92  97  81  52  65  51  47  56  64  76  59  69  73  49  52  62  60  56  55  41  41  37  57  77  96  76 103 116 120 138 135 136 147 154 141 152 152 153 149 148 144 137 137 145 138
  68  79  73  69  88  83  88  52  47  59  57  48  73  65  76  78  63  59  59  64  58  53  65  58  47  96  87  98  81  86 110 122 127 120 131 147 141 144 137 138 141 149 152 154 147 145 140 143 136 145
  77  78  72  48  78  85  95  48  54  67  53  59  72  78  67  69  53  64  56  58  51  41  47  40  41  79  86  62  74  73  90  95  75 116 136 152 151 150 147 113 136 150 142 149 150 152 142 148 153 148
  85  73  59  95  85 102  86  65  74  49  56  59  87  76  65  50  41  46  45  54  55  57  41  42  60  69  68  65  77  85  91  71  99  81  93 132 140 141 147 127 124 141 141 151 153 149 150 153 153 147
  87  83  66  80  80  80  68  72  77  50  50  54  76  58  45  45  41  59  42  59  60  49  51  62  52  65  89 102  76 101  86  76  72  85  80  81 107 124 128 124 101 130 135 129 147 150 152 154 154 146
  79  80  81  67  76  98  70  61  58  69  44  50  41  41  40  39  47  89  53 142 152  74 139 151 123  62  89 136 168 141 148 168 143 119  96  72  67  72  57  33  58  91 131 143 154 152 154 155 157 153
  91  94  92  92  80  97  85  67  89  64  45  38  32  33  31  31 111 138 138 164 166 132 167 171 171 146 167 188 221 192 168 225 209 163 168 143  56   1  10  41  58  90 127 138 147 154 158 151 151 144
  98  91  78  85  80  90 101  91  73  73  60  35  44  11  12  32 132 140 153 161 168 159 176 180 180 165 190 191 218 230 184 229 207 164 172 162   1  12  31  80  93 102 116 137 152 150 153 137 152 148
  97  96  99  71  88  80 104  96  82  81  73  51  61  41  22   6 136 149   3 154 142  77 169 172 171 164 181 178 183 193 162 178 150   9  95  27  41  36  95 111  93 101 115 136 141 151 147 151 148 147
  82  88  83  72  77  82  97  90  73  57  69  55  64  68  44  35  36  26  31  25  19  17  50 161 159  24 160 165 111  21  23 102  72  37  48  76  75  93 133 129 122 115 121 139 144 145 135 154 145 152
  98  92 101  81  71  81 100  90  85  84  68  61  63  47  58  40  46  50  38  36  33  15 101  85  22  76 151  37 146 122  53  43  50  54  78 120  92 139 140 140 127 125 130 129 136 144 150 152 155 145
  90 100  97  96  89  73  80  81  77  81  90  68  64  57  52  49  40  38  48  41  40  40  46  55  53 117 109  76  73  44  40  50  59  79 129 118 121 140 143 145 142 134 142 133 139 143 148 147 144 153
  86  91 104  96  82  75  71  81  77  69  82  79  69  71  60  56  46  47  62  54  58  56  51  46  50  48  55  41  53  57  74  67 104 117 136 124 143 147 147 145 150 137 141 136 140 135 141 144 144 147
 145  80  77  73  69  67  69  72  74  61  67  85  83  77  62  51  48  40  45  56  57  53  60  53  78  71  93  67  93  81  81 118 130 137 136 132 142 151 150 144 149 146 136 141 140 142 142 144 144 157
