P2
50 50
255
 102  75  83  55  58  23  62  71  53  58  63  63  78  85  94 102 101 108 112 102 106 107 102 110 111 122 114 102 107 109 105 117 110 117 122 123 112 113 112 109  94 109 113 111 104 115  68 114  92 129
  88  72  29  31  29  28  25  32  20  27  29  30  34  41  62  89  88  81  96  90  97  98  91 100 102 105 109 102  95  98  97 104 103 102 100 101  90  93  86  55  46  42  61  66  93  66  75  93  78 104
  51  25  25  24  17  24  26  19  21  22  13  13   9  27  26  49  57  63  79  92  79  85  77  85  90  93  94  97  87  78  81  66  85  79  66  70  36  40  37  35  35  36  38  66  64  75  62  47  66  34
  36  38  31  31  26  26  25  27  23  22  21  11  11  17  14  25  40  34  49  64  68  73  78  82  79  85  83  85  82  81  67  52  69  56  32  14  20  20  24  31  27  26  22  34  56  80  65  49  97  85
  44  49  46  64  37  55  53  43  39  47  39  36  20  22  32  16  27  28  22  39  58  62  66  71  72  81  73  74  73  66  74  65  68  31  43  25  54  39  35  39  33  49  67  79  74  63  92 112 113 123
  66  62  62  61  70  68  67  58  68  51  51  51  40  32  36  39  31  25  34  29  36  52  57  55  68  74  71  68  64  70  46  68  36  42  45  61  54  54  59  63  63  62  70  84  85  94 101  95  95 110
  54  68  62  73  70  70  74  74  68  54  53  45  41  35  33  36  33  36  32  40  43  34  45  58  73  81  79  67  45  52  66  63  59  61  56  40  45  35  41  40  53  70  79  92  95  98 101 106 102 107
  77  78  77  72  71  70  40  12  10  20  10  17   7  18  32  34  26  27  36  41  32  44  40  58  78  81  95  75  78  59  65  65  60  51  43  32  31  37  42  60  55  82 105 107 103  99  96 106 102 112
  81  76  69  63  23  26   9   6   1   2   1   2   5   7  17  11  26  28  27  35  47  41  61  74  82  87 110  89  93  85  76  67  48  42  28  40  18   6   2   2   3   2  24  37  12  29  88  99 105 114
  79  60  39  37  20   5  51   5   7   5   1   6  19  59  25   6  21  20  28  22  42  57  73  93 105 112 124 113 106  96  77  47  45  27  35  21  48   2  11   5   6  25  26 103  82   8  32  45  98 104
  67  38  49   8   9  77  85  50  16  11   1  15  13  70  44  22   6  18  22  26  38  57  81 100 114 128 147 132 125  94  65  43  27  37  13  33  62   6  19   1  14  24  46 119 110  46  19  47  79 102
  49  40  26  14  17  40  84  90  10  15   2   2  63  51  18  23  10   9  22  27  37  66  94 115 127 142 160 141 141 104  70  35  29  15  20  23  40  59   5  13  26  30 117 124  76  43  43  51  75  97
  49  43  38  44  52  33  25  36  41  33  27  34  39  28  26  24  20  17  28  30  46  76  95 124 134 157 167 159 152 118  83  45  40  14  23  22  36  57  65  56  73  82  88  89  91  96 102 101  94 102
  51  51  46  49  57  50  57  45  40  53  39  36  39  34  35  32  35  29  33  39  78  94 115 129 140 172 173 165 157 132 108  80  66  52  49  43  45  42  52  68  75  93 108 109 121 121 126 128 132 124
  84  77  70  69  75  76  73  78  69  68  54  46  36  37  35  35  31  45  76  80  98 106 117 136 146 179 181 166 158 142 131 115  99  90  76  48  42  43  59  71  85 104 116 120 126 130 134 141 145 152
  92  87  95  87  83  72  74  66  62  54  50  51  53  53  60  62  81  93 101 101 109 111 125 134 144 178 176 167 159 152 146 139 124 128 116 101  57  47  53  64  71  89  95 105 116 133 144 149 157 156
 105 105 102 100  98  98  88  83  78  78  78  81  67  81  88 101  98 111 112 109 106 112 112 135 137 168 169 165 159 156 144 149 145 150 158 138 121  95  79  71  70  72  83  91 125 140 148 154 159 158
 112 111 114 111 114 114 110 102  98  88  86  78  91  98 109 118 119 115 114 117 115 112 109 130 139 177 180 168 158 153 152 155 152 156 156 157 152 134 138 121 103 117 124 147 151 150 156 158 163 162
 121 124 121 120 120 128 123 118 124 107 113 112 112 120 124 131 124 122 114 114 119 114 116 127 136 168 176 162 157 154 155 160 152 157 157 164 160 162 159 152 155 156 137 136 131 157 162 161 164 164
 125 128 132 136 137 144 140 138 131 130 128  77 133 136 131 130 112 108 116 117 109 113 118 127 139 177 184 181 159 155 154 156 154 152 161 168 176 166 164 165 170 172 178 172 164 159 166 166 166 162
 129 126 133 135 140 152 142 146 146 141 137 139 138 130 125 131 121 114 105 107 110 113 123 127 146 170 202 169 158 154 152 152 154 152 159 165 156 166 166 179 171 177 172 170 157 155 159 159 157 157
 115 120 124 133 136 139 145 145 149 144 143 135 138 141 135 124 118 102 102 104 103 118 126 134 148 165 171 171 165 160 153 153 151 144 149 155 158 157 172 171 183 173 169 178 168 156 153 148 142 150
 114 119 125 126 129 136 140 145 148 144 145 143 140 135 123 113 101  89  97 102 113 124 129 136 151 168 187 184 162 158 154 149 148 133 130 135 146 156 155 144 175 171 178 167 169 160 147 150 149 149
 112 106 114 124 128 137 139 140 141 141 143 140 130 137 116 102  86  88 119 130 129 131 135 144 144 171 192 194 178 164 163 152 149 148 111 122 141 149 152 153 166 167 170 163 177 159 152 148 144 142
  99 110 117 123 130 136 135 139 143 142 141 142 127 120 109  86  79 122 133 137 130 132 133 135 143 151 167 167 169 165 165 164 160 155 136  99 116 122 143 165 154 155 161 158 162 157 158 162 149 143
  96  95 104 122 125 127 125 126 136 134 133 134 130 116  98  75  96 125 132 131 125 127 126 135 139 139 140 150 154 158 158 154 161 161 157 101  95 111 126 146 156 154 162 151 152 150 153 150 146 143
  97 101 105 111 108 121 122 127 131 128 136 128 119 107  90  63 107 117 123 111 108 102 106 115 113 124 127 133 139 140 137 137 142 152 158 142  89 106 124 132 140 146 151 148 148 150 148 144 142 138
  90  95 107 102 108 109 118 121 117 120 125 118 108  92  82  60 104  98  96  96  88  87  93  91 100 106 116 121 128 129 125 108 121 132 142 142  92  97 116 127 143 145 144 145 151 138 135 141 143 138
  84  92  97 101  97 109 111 116 117 114 109 115 107  93  77  59  92  93  87   3   1   0  72  81  86  90  92 102 114  96   0   5  23  97 123 127  99 101 105 112 122 127 138 131 135 142 140 141 138 135
  83  77  94  95 103 104 113 106 109 118 106 110  98  90  82  51  83  84  45  12   4   3  15  53  78  87  91  92  85  25  11  19  20  78 102 117 136 108  99 105 123 128 129 134 137 141 139 139 136 132
  78  88  92  90  97  99 105 107 105 110 104 106  97  94  89  56  24  49  40  27  21  26  30  40  46  82  85  70  58  60  53  44  47  68  82 140 155 133 105 103 120 122 125 126 138 134 139 127 133 132
  77  87  87  92  90  90 101 101 108  92 104 102  96 102  95  74  42  33  19  25  30  26  36  36  37  33  40  41  40  52  55  50  39  50 119 153 162 155 134 107 115 118 122 116 124 133 123 129 123 123
  81  78  77  76  88  89  91 101 103  99 103 102 105 107  97  77  44  35  40  36  40  39  40  40  39  45  37  49  66  81  82  92  83 100 132 152 163 156 149 122 115 122 122 131 121 123 124 128 126 116
  82  79  79  86  79  87  85  85  85  99  99 105 101 109  96  76  51  46  38  46  41  39  41  37  44  46  56  60  78 109 120 121 130 135 147 156 166 161 152 149 125 123 127 124 128 127 125 126 117 130
  86  74  78  73  75  86  85  86  89  91 103 117 108 101  99  82  68  55  63  71  64  39  47  39  54  44  62  84 105 123 137 134 138 146 151 159 161 157 155 151 143 122 122 115 122 130 127 117 112 122
  84  76  77  65  67  76  80  91  91 100  94 104 101  98  94  82  86  77  73  82  75  72  64  71  71  71  84  99 127 127 131 141 139 151 150 129 152 150 152 146 139 135 128 125 124 112 122 117 100 121
  75  61  72  77  76  72  80  80  95  95  90 101  89  90  94  92  89  94  92 103  87  92 101  97 101  97  94 100 122 135 136 136 134 144 155 137 148 152 148 142 142 141 131 124 127 127 117 122 123 119
  75  59  68  74  68  77  85  89  99  83  90  94  86  93  91 102 101  97 101 101  85 101 106 121 119 115 108 110 134 143 142 141 142 147 141 140 143 142 139 142 139 140 131 130 129 124 125 129 126 124
  70  67  75  73  73  81  86  88  89  81  91  89  86  84  91 100  95 110 106 109 105 108 107 136 134 138 143 144 114 135 136 138 141 141 139 131 139 134 139 128 134 134 134 131 128 124 128 116 128 122
  82  82  78  74  62  75  86  90  83  76  77  81  74  83  91  90  97 101  94 100  82  66  67  67  86 100 105 104  86  90  91 102 118 133 137 137 135 135 125 103 131 132 133 126 126 128 127 120 129 131
  86  78  74  63  76  80  84  93  80  87  73  67  77  75  86  91  90  80  65  45  40  66  49  49  48  77 101  51  89 101  95  89  74 100 106 124 126 122 117 110 125 130 131 127 130 126 127 129 122 133
  89  76  81  70  80  81  86  83  80  84  74  67  62  62  73  61  47  35  35  44  31  61  68  49  45  68  94  81  88 110  95  93  58  66  63  84 101 108 107  96 116 117 124 131 129 131 130 133 129 131
  83  87  84  83  77  78  85  75  82  79  83  65  56  65  43  40  33  40  44  63  30  39  40  29  67  64  76  97  68  87  52  59  54  41  63  65  65  75  64  82  94  95  98 124 127 124 128 126 128 129
  87  85  80  84  85  83  86  80  76  78  69  51  33  29  23  26  29  24  18  24  53  58  62  63  45  31  46  52  42  76  42  68  33  24  38  47  56  30  36  62  76  98 109 119 123 126 128 121 126 118
  86  77  82  68  76  81  71  96  81  78  77  53  33  26   4   2   9  20  20  19  22  16  51  47  45  66  34  74  74  75  23  67  63  68  67  50  25  26  58  74  75 100 104 120 125 125 114 121 125 126
  86  77  82  75  77  75  76  81  77  72  74  52  42  36  33  24  23  32  37  52  58  71  69  56  40  49  30  68  74 101 109 128 123 129 105  95  98 106  94  82  87  91 109 119 117 116 121 117 126 126
  83  89  83  75  73  73  71  75  77  73  68  59  54  46  43  60  36  47  71  88  93 106 139 125 150 145 142 116 141 143 122 132 121 121 125 116 124 110 106 103  94  99 105 105 109 110 119 115 124 126
  81  90  76  83  73  73  77  73  70  75  66  73  68  61  59  60  55  68  55  68  83  91 106 120 123 134 142 115 132 135 130 116 107 115 117 116 119 119 117 114 100  98 105 103 110 106 119 114 119 122
  89  86  76  77  79  67  72  71  73  63  72  75  71  65  66  63  53  57  46  38  48  82  75  89 105  88 104  92 103 107 109 115 112 104 113 109 117 119 116 114 106 105 103 105 105 113 117 117 117 150
  70  88  81  80  73  75  71  73  62  68  74  74  77  69  64  67  68  61  55  42  37  50  57  76  86  92  90  90  75  90  86  93  88 100  97 108 114 118 114 113 113 110 107 101 101 108 109 111 120 174
