P2
50 50
255
  94  78  61  51  43  52  39  53  50  54  58  67  80  91  94 105 106 102 104  98 109 105 107 112 108 119 113 107 104  97 105 112 115 119 116 119 110 110 111 109 101  85  95 111 103  95  79  70  80 129
  76  45  36  32  26  25  25  26  24  28  33  26  42  52  77  88  87  93  91  87  92  94  97  97  98 104  98  99  90  77  93 100  97  92  93 100  93  87  76  54  50  48  46  67  71  75  58  89  52 110
  40  24  25  30  14  26  18  22  21  24  11  18  15  25  38  55  77  74  86  74  81  81  88  82  87  89  92  96  86  83  84  88  84  73  60  63  42  32  33  26  34  35  36  49  65  70  64  86  77  61
  34  35  29  34  25  24  24  25  22  23  19  14  18  13  18  20  35  39  53  65  63  76  79  80  78  83  79  80  74  68  61  29  67  51  32  27  22  27  35  42  23  30  35  52  68  67  71  85  94  80
  57  37  51  36  39  36  33  43  44  37  32  30  23  27  22  24  24  18  26  41  55  66  65  66  74  79  76  73  79  57  77  62  43  36  37  33  46  37  35  52  65  66  62  71  84  81  97 109 107 108
  64  51  46  50  63  49  64  59  61  58  51  42  40  34  39  30  29  28  29  34  42  53  60  64  66  76  78  65  61  60  64  66  35  54  58  53  54  46  59  55  65  70  75  80  89  93  95 100  94 108
  70  66  65  65  75  74  79  73  62  56  48  45  40  38  33  31  34  34  22  45  40  43  46  67  74  81  77  58  56  56  65  60  62  56  49  40  35  39  37  39  55  73  80  86  91 100 102 107 110 100
  72  76  79  70  70  61  40  22  13  16  16  17  13  28  35  27  24  26  34  43  33  42  57  60  75  87  88  74  75  70  62  71  51  46  42  33  38  29  34  18  25  46  90  92  99  94  96 108 101 106
  83  76  70  52  24  25   9   5   2   1   2   1   4   7  15  23  24  30  31  41  44  44  56  70  77  98  97  93  86  77  69  50  49  34  28  21  17   3   4   4   3   3  62  32  10  25  81 100 103 107
  80  69  27  35  16   5  56  10   8   1   3  20  18  50  18   6  18  22  32  30  48  63  72 100 106 113 119 116 100  89  65  47  35  30  19  24  38  13   8   1   3  22  57 108  79  15  51  37  93 108
  64  34  40   7  19  81  89  16  12   7   7  14  48  63  29   9   2  19  28  28  41  65  89 106 119 134 145 135 120  81  53  36  24  24  21  34  61   8  17   2  26  27 108 114 113  31  23  59  85 109
  51  34  23  10  12  63  97  90   7   8  15  23  71  42  18  14   7  33  27  25  42  72  99 117 134 144 157 147 132  89  61  38  26  18  23  20  38  64   8  13  25  52 122  87  61  73  61  64  80 107
  45  40  38  41  32  25  28  38  33  28  29  35  29  29  24  21  22  16  27  30  58  79 110 125 135 174 167 160 148 111  69  45  48  18  21  31  43  56  84 102 113 137 100  91 106 107 106 109 104 109
  51  48  45  54  54  55  40  40  39  40  36  41  40  36  29  29  32  28  33  57  79  99 122 130 140 177 177 162 150 124 103  64  73  61  50  46  48  50  60  68  81 112 112 116 125 126 133 136 143 137
  71  79  65  64  73  78  72  72  73  60  53  53  36  40  35  36  38  52  64  85  95 101 123 139 148 174 176 165 155 143 127 113 100  89  73  41  43  47  66  71  84 105 115 121 121 129 138 144 147 151
  94  90  92  78  75  73  70  61  60  55  53  49  44  52  50  39  74  94  95  94 106 113 126 138 144 173 178 164 155 149 143 135 120 129 119  91  59  47  58  66  76  91  96 109 118 130 146 152 158 158
 100 103  99 100  94  92  85  78  74  78  73  75  69  75  80  99 103 108 107 113 105 110 120 137 150 175 176 166 158 151 148 147 146 153 151 134 124  92  85  75  75  84  88  97 124 140 150 157 160 162
 111 113 106 107 113 111 110  99  94  87  87  80  92  98 102 117 112 118 114 118 111 112 111 129 143 175 177 163 157 152 153 153 153 155 157 154 152 149 141 109 111 122 130 135 142 149 158 164 165 165
 117 119 120 123 124 125 118 123 109 104 118 109 114 121 120 126 118 116 117 111 115 111 113 131 144 174 176 166 158 152 156 159 154 155 158 164 162 163 161 157 156 147 147 145 152 155 164 159 166 166
 123 124 127 130 135 135 137 137 135 125 124 124 132 134 126 126 119 113 114 113 113 114 121 129 147 183 184 173 159 157 156 156 154 154 157 166 171 167 168 167 173 173 171 165 165 161 160 167 168 161
 123 124 133 135 135 140 142 146 142 142 138 138 136 130 126 125 110 111 105 109 110 119 122 129 149 175 181 166 160 155 151 152 153 152 158 167 160 171 170 174 173 175 168 171 158 160 160 153 153 154
 115 120 125 135 135 138 146 143 146 141 142 139 140 133 123 118 107 102 100 102 107 121 127 137 149 173 177 162 162 158 151 151 149 143 147 153 166 168 164 171 172 174 175 168 166 153 152 141 144 147
 112 116 120 124 134 138 142 143 142 145 147 141 140 136 121 112  96  89  94 102 122 127 130 140 154 175 185 173 164 158 157 150 149 132 129 137 146 166 170 154 174 172 173 172 169 154 147 146 147 146
 111 112 115 125 133 137 142 144 140 139 141 142 133 130 111  91  82  89 127 124 127 132 137 142 150 171 187 193 171 165 159 150 150 146 110 124 137 146 156 155 162 168 167 165 166 164 153 146 144 140
 107 110 117 124 132 134 134 141 138 140 144 140 135 117 107  79  84 123 132 138 129 133 134 142 144 150 169 170 168 166 163 160 163 156 112 103 120 126 141 158 156 161 162 159 152 157 151 153 144 138
 100  97 112 118 125 131 127 135 135 133 133 136 130 115  96  77 105 126 134 133 123 123 128 132 137 137 143 149 154 156 154 158 161 162 157  95  98 118 125 142 149 151 159 150 150 150 151 146 144 142
  95  99 104 111 112 119 125 130 128 128 132 124 116 101  84  55 110 116 113 110 109 105 104 113 118 124 121 135 140 142 139 140 146 153 160 115  95 111 124 134 142 147 143 150 144 146 148 138 142 138
  97  98 102  97 107 117 117 120 120 121 121 117 106  97  85  75 105 101  97  94  84  87  92  97 105 105 117 121 126 124 118 108 121 135 144 146  98 104 118 129 141 143 144 145 144 140 136 139 142 135
  91  93  92  99  98 108 119 118 117 110 115 113 104  93  76  63  92  94  88   4   1   3  80  86  83  95  99 102 108 100  13   3  80 107 123 127 108 102 107 123 124 133 136 140 138 142 134 137 136 133
  82  80  94  95 105 100 108 105 111 119 108 103 100  88  80  48  81  81  42  13   4   4  40  72  85  84  84  89  85  20  11  14  35  81 108 133 136 105  99 108 121 122 136 134 135 141 138 139 136 125
  83  85  92  90  95 101 100 106 105 112 108 106  95  92  90  46  35  49  35  28  25  23  38  33  66  73  80  55  65  64  41  45  60  71 101 148 152 130 114 112 116 125 131 135 138 131 135 130 131 127
  76  82  81  91  85  94  98  96 102  95 106 101  93 101  89  64  41  30  21  25  29  33  36  39  36  38  36  38  49  55  54  52  48  77 135 156 160 151 129 110 117 120 121 123 124 128 124 129 122 124
  78  77  87  82  86  87  90  95  97 101 100 101 100 106  96  66  44  40  38  34  41  39  38  35  43  39  36  50  72  75  84  87  87 109 145 159 158 155 146 128 118 124 123 126 128 119 121 125 121 120
  81  74  80  79  84  82  86  87  90 101  98 104 104 107  95  75  53  44  41  39  46  49  39  38  40  37  46  67  84 111 125 114 126 134 147 160 162 159 153 143 127 123 123 121 126 123 127 122 113 121
  82  78  80  61  79  84  84  86  85  94  99 112 106  94  86  78  64  61  61  67  60  49  45  43  48  54  69  86 114 131 130 135 140 145 153 157 159 154 154 147 135 121 124 120 123 127 121 119 107 122
  79  69  76  66  66  70  79  91  93  96  93  95 101  92  91  85  80  73  71  80  70  70  67  69  74  72  80 106 120 124 136 134 135 146 149 149 151 150 149 145 142 132 131 122 122 120 122 113 108 124
  71  59  72  78  71  72  81  84  93  94  87  95  93  90  98  90  80  84  91  92  85  87  94 103 101  94  94 116 130 131 135 133 135 144 146 148 138 149 145 144 140 136 130 123 125 125 119 124 120 125
  76  63  68  75  69  76  83  89  95  83  88  88  89  87  91  95  95  96  97  98  94 102  93 121 116 112 107 116 139 133 140 138 138 144 138 140 140 148 139 143 142 136 130 135 126 123 120 124 123 125
  71  74  74  76  70  76  82  80  86  81  86  85  87  83  89  98  94 101 102 102  97 105 118 138 135 127 141 136 132 134 136 136 140 140 143 134 139 134 135 127 134 134 135 127 126 126 120 120 124 125
  79  81  74  73  62  76  80  88  80  79  73  79  76  78  90  92  97 100 100  96  91  73  70  76  89 123 101  91  89  95 100 117 134 139 139 133 137 127 117 123 133 129 131 128 129 127 131 121 126 124
  83  74  77  60  71  80  81  86  80  83  74  63  76  72  84  90  93  86  73  65  59  52  51  44  50  90  69  79  96  89  92  76  86 112 118 128 130 118 118 119 120 125 130 131 127 130 129 126 130 130
  85  78  81  73  71  81  85  77  80  90  71  68  57  65  75  72  61  49  37  38  36  67  44  53  42  79  86  73  85  98  89 105  79  70  85  89  98 110 106 110 106 118 122 127 127 129 125 132 128 128
  89  86  83  81  75  82  83  82  79  80  82  70  56  67  42  44  31  36  37  49  44  45  60  37  66  77 101  92  76  80  72  47  70  69  70  57  64  69  67  89 100 117 114 126 125 129 127 129 129 125
  95  86  76  81  80  81  87  82  78  80  70  60  36  33  27  25  25  28  24  24  39  51  58  52  49  55  65  67  60  83  46  82  54   9  42  57  65  24  52  64  89 109 117 122 124 130 123 124 124 124
  85  78  86  77  80  82  77  86  81  73  72  47  39  35  10   3   6   5   3   6  34   4  66  71  63  77  57  89  86  88   1  71  52   4  24  31  15  46  81  83  87 100 108 119 123 121 117 123 122 127
  89  76  83  77  76  77  75  80  77  72  71  58  52  42  36  24  19  23  38  27  35  16   1  24  43  22   3  31  30  33  11 101 106 107 130 130 109 113 101  89  91 101 108 117 119 118 124 120 118 126
  86  90  80  84  76  76  72  78  80  81  77  65  60  56  43  51  40  56  71  85  99  90  93  88  83  93  94 104 100 128 111 134 147 128 135 120 124 112 105 103 100 101 114 111 114 115 113 118 120 120
  90  88  80  83  79  72  76  74  75  75  71  71  72  66  66  61  56  59  72  91  92 103 139 128 157 159 152 131 147 143 117 126 117 122 119 118 119 120 117 112 105 103 110 102 107 113 119 114 117 134
  86  86  85  76  80  74  71  71  76  70  72  72  75  70  69  63  56  62  38  60  69  81 109 109 105 116 149 116 133 146 115 109 114 111 108 109 112 118 117 117 102 105 101 111 102 109 111 119 118 166
  72  89  85  79  75  72  75  72  66  68  72  74  75  72  75  70  65  62  59  38  42  54  75  86 100  93  98  81 102  99 110 106  99  96 100  99 113 118 117 116 114 112 108  99 103 108 109 118 129 176
