P2
50 50
255
  72  44  26  30  31  27  25  21  22  20  16  20  25  34  48  64  78  81  85  76  85  86  87  85  89  96  90  95  88  80  83  95  85  81  74  74  68  73  68  51  41  49  62  67  77  76  90  76  86 120
  49  21  21  23  17  18  16  22  17  15  12  13  12  15  20  30  41  54  55  66  70  79  75  81  86  89  85  79  84  70  74  74  69  55  43  32  19  25  27  29  27  32  37  51  56  59  58  75  73  81
  24  24  21  20  23  18  20  21  20  18  16   9  14  17  20  17  20  17  28  37  61  66  64  71  78  82  79  77  70  60  58  44  56  29  28  22  23  26  27  31  26  20  26  37  53  66  62  70  67  57
  31  29  37  32  32  28  31  34  33  29  31  26  26  21  19  20  19  20  16  24  33  46  51  61  72  78  73  63  62  53  54  58  32  34  30  37  39  29  35  37  39  43  52  57  56  51  66  86  86  77
  31  34  38  44  54  54  59  57  56  38  35  29  32  27  28  27  27  20  25  31  34  35  42  69  79  87  74  55  44  44  44  36  36  39  47  46  45  35  43  41  53  59  63  67  71  80  82  95 100 104
  57  48  51  58  64  75  80  80  74  73  62  34  30  29  23  26  26  28  27  30  30  33  52  75  86  96  93  67  43  56  52  57  49  49  44  34  32  33  33  38  65  76  81  87  90  89  87  85  85  89
  51  57  62  66  75  76  82  83  83  70  62  50  35  29  25  24  21  25  29  33  29  39  60  79  94 108 108  92  77  63  59  56  47  38  30  27  26  30  51  88 110 128 121 104  93  95  92  89  88  88
  57  65  71  62  56  36  32  31  37  38  33  24  18  15  21  20  20  28  24  31  33  56  75  88 108 136 127 113 102  79  60  52  35  31  26  23  29  33  29  32  43  61  97 115 117 105  98  97  89  97
  62  67  67  33  24  27  30  11   6   1   2   3   2  10   7  19  15  19  26  30  35  67  91 101 124 153 152 141 121  85  47  38  30  21  23  25  18   5   4   2   2   5  13  12  39  75 103  95  92  95
  64  57  23  37  30  11  16   2   8   2   1   9   3  26   7   5  18  16  22  25  38  77 101 116 142 161 163 149 134  89  54  35  22  19  15  17  39   6   9   3   5  21  11  51  19  26  40  79  97  95
  55  35  39   9   8  46  64  35  10  12   4   3  24  29  12  11   4  19  23  29  57  91 108 119 151 163 165 154 138 101  68  33  24  24  10  25  55  30  10  11  10  20  38  96  75  19  18  58  75  95
  44  30  12  10   9  24  58  58  22   6   5  32  34  35  27  14  10  19  28  53  82  90 117 133 146 167 168 155 143 125  93  70  69  15  16  28  36  48  20  10  17  26  89  91  56  15  20  23  71  94
  42  31  26  25  28  22  26  30  30  34  36  45  38  41  54  44  46  48  66  81  86  97 120 134 157 166 171 154 142 136 118  99 105  89  77  72  62  68  76  78  94  78  80  75  76  92  88  87  80  83
  52  54  54  52  54  54  61  57  58  53  52  48  55  65  74  67  75  90  90  95  93 104 124 137 158 165 170 153 147 140 137 131 116 105  85  68  64  67  70  74  79 106 112 108 114 113 115 116 116 114
  84  86  82  75  73  76  73  68  65  67  74  79  86  85  91  69 106 111 103  94  95 102 119 131 153 164 165 157 151 145 143 144 137 134 127 110  83  61  66  82  82  88  98 109 116 129 135 142 143 147
  99 104 100  93  96  94  94  84  96  97  97  98  95 101  96 116 114 108 104  99 100 104 115 128 151 166 163 153 149 147 148 146 147 153 153 135 130 104  88  82  84  95 107 123 139 146 153 155 154 156
 113 113 115 118 118 121 121 119 114 110 108 108 108 111 119 121 115 107 108 100 100 103 115 132 151 162 160 150 150 144 148 148 148 155 161 155 150 151 138 119 111 119 125 135 146 154 159 160 159 157
 116 121 120 130 130 132 131 134 124 121 122 115 127 126 122 119 112 105 103  95 104 103 112 135 148 155 157 153 148 149 148 153 151 153 158 164 162 159 153 160 156 148 147 150 152 161 163 164 162 161
 122 130 132 137 141 138 139 143 134 134 134 132 133 126 118 118 109 101  97  99 103 107 120 139 146 150 154 153 151 146 146 146 149 154 162 164 166 162 162 162 163 163 164 163 167 165 170 167 166 164
 127 132 134 135 145 141 144 140 140 136 136 134 141 125 120 114 105  94  94  92 107 115 131 141 148 153 160 155 153 145 143 144 145 147 160 163 163 164 168 164 164 165 166 172 177 172 173 172 170 162
 122 130 132 135 141 141 142 138 138 134 137 139 136 127 115 106  93  86 102 107 119 126 133 142 154 170 174 165 161 154 147 138 139 142 149 160 163 165 169 168 168 170 169 170 175 171 168 167 159 155
 110 120 116 129 135 139 138 136 137 139 141 137 136 123 111  90  85 111 123 120 122 129 133 143 152 168 172 169 162 160 154 145 144 133 131 144 155 166 170 159 170 168 175 172 174 173 168 161 136 149
 105 113 114 129 137 137 137 139 134 139 143 135 132 118 102  85 109 123 124 120 112 115 126 130 134 138 145 151 155 154 154 151 154 153 110 126 142 161 164 160 168 169 172 174 168 169 168 162 151 149
 101 108 121 123 130 130 132 133 133 138 140 137 132 114  93  84 112 119 108 104  93  94 108 112 114 120 130 140 142 140 138 138 150 158 141 100 119 134 147 155 165 165 169 170 166 169 163 162 153 150
  93 101 110 121 124 123 128 130 132 134 135 130 124 108  86  97 100 100  89  80  82  85  86  94  96 104 112 122 118 116 111 117 134 146 149 107 100 124 137 151 160 163 167 166 165 162 161 158 147 149
  91  98 103 103 118 120 123 126 125 127 129 125 113 102  72  87  89  79  46  20  31  57  72  77  77  87  94  99  91  77  53  67  99 125 140 112  95 112 126 135 147 153 155 159 156 159 156 154 153 148
  90 100  99 102 106 120 112 118 114 122 119 114 105  97  65  80  82  59   3   1   0   4  42  68  78  78  85  77  25   2   1   3  68 105 119 114 104  99 115 129 143 146 149 153 151 148 146 146 148 142
  84  93  94  95 104 104 110 114 114 115 117 111  96  89  55  72  65  40  10   4   2  10  31  51  66  70  72  53  32   5   6  16  35  83 103 131 121 105 107 123 131 140 142 145 145 151 145 145 140 143
  80  85  90  95  96 105 110 110 114 108 114 104  94  86  62  32  46  31  22  18  15  24  23  30  38  44  36  39  39  28  24  31  43  71  97 146 145 110 104 111 123 127 134 140 144 144 140 143 141 135
  76  86  90  97  99 101 102 104 107 109 109 101  96  86  67  34  28  21  23  24  21  24  27  30  21  25  34  49  60  60  40  42  38  65 131 158 159 143 115 113 126 124 129 136 135 137 142 136 138 133
  79  74  86  90  94  95 100 104 108 106 104 104  94  89  66  38  37  30  29  33  33  32  31  32  35  35  67  88 109 105 102  91  90 114 146 158 159 159 137 114 122 118 124 129 127 131 128 131 129 126
  82  78  83  87  87  90  90  97 103 108 103 104 101  92  72  61  56  55  59  55  56  57  65  69  73  82  96 119 131 138 135 136 134 142 152 158 160 160 153 133 120 121 123 126 121 125 126 126 122 121
  72  69  76  79  86  86  93  89  93 107 109 104 103  95  87  82  80  76  80  82  82  85  96 110 108 104 116 134 138 142 139 144 150 148 153 158 162 157 154 146 131 124 125 124 127 128 124 123 116 123
  68  73  69  73  80  85  86  89  99 104 107 107 104  99  93  94  91  91  91  91  99  99 117 129 128 110 121 135 137 140 143 143 153 149 149 153 155 156 157 149 135 122 124 124 123 125 123 125 114 119
  70  70  65  60  67  80  88  95 102 100  96 100 100  97  99  92  95  93  99  97  99 104 120 132 132 120 112 132 133 129 141 135 141 147 141 152 152 152 151 151 144 132 130 127 124 112 119 107  90 108
  71  63  66  63  64  83  88  89  98  93  93  99  95  98 101 101 100  99 103 102 107 101 112 130 127 122 114 120 131 133 141 141 141 145 141 149 151 152 150 150 146 137 131 127 127 119 115 111  98 109
  44  62  72  63  73  73  84  93  92  94  91  93  88  93  91 102 103  97 103 109 103 101 107 131 125 126 124 123 132 131 134 140 143 142 138 145 147 147 145 151 147 139 132 127 126 124 116 115 116 109
  54  54  68  71  76  79  89  91  87  87  86  90  93  89  88  97  96 100  97 101  92  83  86 104  98 126 109 107 106 122 125 129 135 140 138 144 144 138 140 145 144 141 133 131 131 124 122 116 119 119
  64  70  67  66  65  80  89  89  83  80  85  82  86  85  88  96  93  91  86  84  67  62  51  50  61 105  86  85  82  84  87 107 115 129 136 139 136 135 130 137 143 138 135 130 129 126 123 111 126 117
  71  66  62  68  75  76  87  82  80  85  75  81  78  84  85  89  76  72  50  45  41  69  56  46  46  93  96  67  96  90  85  80  79  94 110 124 129 129 124 132 138 134 132 131 129 127 127 118 122 124
  71  70  56  68  75  80  85  82  85  84  68  77  77  72  67  63  54  36  30  46  43  57  65  34  60  87  90  65  90  65  83  62  67  71  70  92 103 112 116 130 124 131 127 131 129 128 130 125 127 130
  70  77  73  71  76  80  81  78  79  80  77  70  68  52  41  32  25  30  35  34  31  30  32  24  43  61  75  91  70  23  37  33  43  61  56  64  75  86  98 108 121 119 113 128 130 126 131 131 129 133
  82  79  80  82  78  80  79  76  77  75  71  57  43  35  23  14  18  20  18  12  12  11  10   5  21  29  36  33  23  18  21  42  57  73  59  56  53  82  91  98 100 117 114 122 130 126 129 126 127 130
  80  75  75  73  79  75  88  80  76  75  64  41  53  52  30  10  24  58  65  65  69  77  65  47  31  33  54  42  66  80 102 109 113 114 121 108 100 111 111  99  94 109 115 123 127 130 131 123 126 127
  81  73  71  71  78  75  79  79  73  69  59  54  57  58  74  56  61  91  72  80  85  97 121 124 141 125 111 110 103 130 133 120 123 121 117 106 123 122 124 110  97 100 115 122 123 128 120 116 129 122
  76  79  77  74  67  72  78  73  77  67  57  57  61  62  61  65  60  64  64  75  75  82 112 140 136 134 132 116 112 126 106 105 101 102 105 102 115 113 119 115 105 103 114 118 115 119 110 119 123 116
  74  79  75  71  69  67  71  73  72  68  68  58  62  63  58  37  49  55  37  38  57  48  75 102 101  97 102  98  82 103  90  92  94  88  98  97 103 114 124 123 110 105 108 113 110 112 110 122 123 115
  84  73  75  75  68  68  69  66  70  66  70  72  65  66  63  47  38  47  38  30  36  35  55  70  84  79  93  88  70  94  84  72  82  89  93  88 100 111 120 122 111 108 107 106 109 106 115 119 118 121
  80  75  74  78  65  64  61  60  62  67  70  73  70  62  66  60  52  39  43  47  45  34  38  46  59  72  82  73  81  73  73  78  84  84  78  90 103 111 112 118 114 110 107 106 105 107 109 111 117 115
  80  73  67  77  65  64  62  56  57  66  66  65  67  65  65  58  58  42  48  48  49  49  44  42  51  53  63  60  65  64  70  71  70  76  89  94  97 109 109 115 116 116 109 103 104 104 108 114 115 115
