P2
50 50
255
  63  85  79  85  76  67  60  50  46  19  21  38  20  40  56  61  86 101 111 110 126 132 124 127 123 126 140 128 118 103 105  95  93  84  49  23  30  53  49  51  59  61  67  81 107 100 104 108  73  16
  71  81  85  75  48  56  30  24  12  29  20  20  17  17  24  45  45  51  64  74 103 106 117 116 118 119 123 122 110  61  77  95  46  22  33  38  28  55  46  39  42  48  50  60  55  78  98 100 104  31
  81  83  83  21  22  19  26  45  23  20  25  18  14  16  17  18  21  31  22  45  75  90  97 103 111 118 108  99  99  97  89  91  54  61  47  42  66  34  65  59  71  66  71  70  80  35  58  83 109  86
  86  73  34  24  27  27  29  57  55  45  26  23  21  21  21  21  21  19  18  35  67  73  81  97 104 113 109  95  77  71  54  67  49  54  57  63  59  63  72  73  94 104 105  95 102  81  67  34 106 117
  73  38  16  18  57  75  73  95  85  83  72  41  26  22  28  27  23  25  22  46  54  64  84 107 117 130 122  79  72  70  61  57  56  59  64  52  55  58  63  87 103 115 127 119 127 137 121  91  26 105
  70  23  25  65  85  91  97 102  94  95  87  69  28  22  20  26  29  31  28  30  36  56  92  90 109 132 140 113  90  73  84  63  57  52  49  41  33  30  39  65  96 108 113 119 126 127 113 102  92  55
  19  39  58  70  93  98  82  85  85  33  38  59  43  23  20  21  21  26  25  26  41  64  83  98 120 151 149 142 123  92  73  72  58  46  25  30  26  53  97  85  54 118 113 107 105 127 131 113 123  75
  59  72  66  77  80  80  47   7   8  21  16  19  13   7  24  21  21  21  24  31  54  74  86 110 133 154 154 146 133 108  76  61  48  50  34  45  32   5  10   9  12  12   6  12  58 102 121 126 124 116
  67  64  75  76  56  10   7  16   6   2   3   3   8  12  11  23  22  22  23  28  47  73 101 114 141 153 151 149 139 110  82  60  59  54  69  15  10  15   3   4   3   9  19  17  13  52  75 124 128 118
  68  73  71  55  18  19  14  20   6   7 248  50  11  95  15  17  41  37  25  35  46  82 105 122 140 149 151 150 141 114  95  69  75  72  20  15 101   7  10 231 215  15 117  20  16  14  69 102 114 118
  65  70  63  26  21  10  29  25  12   8   6  14  32 141  92  14  13  76  54  38  70  88 110 133 143 152 152 147 136 121 106  89 101 140  21  89 133  20  11   9  16  17 128 137  17  26  16  81 106 122
  67  63  45   8  12  12  84 105  11  13  10  26 154 160 126 112  12 101 107  68  86  95 107 131 142 148 150 149 142 133 118 149 113  18 101 127 144 131  45  14  17  87 157 156 107  18  53  54  99 115
  64  58  22  20   9  45 104 111 110  73  86 117 108 139 104  93  94  79 119  97  91 100 108 127 142 153 151 147 142 140 136 129 148  92  96 105 111 118 137 125 130 145 112 106  93  92  28  93  97 111
  67  51  42  14  24  58  69  85  85  95  99 111 114 128 115 140 141  98 101 100 103 102 101 118 142 151 154 142 137 140 141 133 129 134 106  97  92 102 126 131 145 147 153 137 121 114  86  74 100 112
  68  55  26  31  63  87  97 102 104 108 106 104 119 125 130 137 105 114 104 108 103  98 113 144 152 155 156 160 162 139 140 143 135 135 139 113  94  88  93 106 123 129 130 143 141 140 113 109 102 119
  75  52  61  76  94 100 103 101  99 105 106 117 127 128 123 119 121 112 108 105 102 114 140 142 151 163 176 162 160 159 140 141 145 146 148 142 142 107  91  83  91 102 115 132 140 141 147 143 128 127
  76  78  95  97 111 117 117 116 117 125 125 129 127 125 127 128 118 112 107 109 118 120 124 129 144 158 158 163 157 157 156 145 145 147 150 153 152 148 150 142 139 144 140 143 149 156 156 155 151 142
  99 104 114 120 128 133 141 140 139 133 132 124 133 136 132 127 120 109 133 127 112 105 103 112 113 115 126 135 144 143 143 148 155 147 151 152 152 153 150 149 151 152 156 158 156 162 159 157 156 157
 110 120 127 134 141 140 138 139 139 133 133 134 135 132 127 124 111 121 120 109  86  74  77  83  96  98 104 109 111 111 116 126 147 157 153 153 154 154 153 154 154 153 153 150 150 154 159 160 160 163
 123 134 135 141 143 141 143 139 139 139 141 140 142 142 138 123 106 112 103  70  58  52  55  60  77  84  79  90  83  82  70  87 112 139 153 164 162 160 153 163 156 158 156 154 154 155 155 159 160 161
 133 132 137 139 140 142 142 138 140 140 144 146 147 148 156 132 100  99  70   5   1   1   2  43  63  65  65  76   2   1   1   1  63 107 138 145 160 160 165 158 158 160 158 159 158 158 160 160 152 158
 117 126 131 132 136 139 141 145 141 142 147 148 151 158 158 101  93  82  39   1   1   1   1   5  55  59  63  10   3   1   1   1   5  80 113 133 145 156 166 162 161 165 161 160 158 160 158 160 158 155
 118 118 119 131 130 132 136 139 143 141 153 153 155 157 149  80  71  64  21   1   1   1   9  22  26  41  53  57  52   4   1   2   6  60 101 117 142 154 160 166 166 163 162 166 161 160 158 158 157 158
 112 113 118 127 131 127 134 137 140 147 149 155 156 143 134  54  62  54  23   8   3   2  19  18  20  25  40  69  94  96  18  13  24  64  93 100 147 140 156 160 162 161 165 167 163 158 157 160 159 155
 106  95 110 114 119 127 136 133 135 131 145 149 145 139 104  39  54  48  42  50  26  48  75  94  92  96  96 124 124 116 109  87  54  55  71 121 156 154 143 158 166 159 156 165 162 162 160 153 155 155
 102 103 109 104 107 121 127 129 138 153 140 142 134 122  99  48  17  21  31  56  90  94 112 113 125 115 123 120 130 135 127 127 114  57  69 137 153 160 153 153 160 158 158 164 158 163 160 151 156 151
  97  98 104 107 112 115 121 124 132 148 137 152 135 114  93  79  67  89  95 102  97 104 105 114 133 134 124 126 133 133 138 133 140 146 150 153 154 156 157 158 157 151 153 161 160 160 158 155 156 149
  87  95 102 101 106 109 115 117 138 138 145 145 128 111 106 107 109 101 101 102  96 103 113 111 116 123 118 109 117 132 135 138 138 148 150 153 157 155 156 158 154 154 152 156 149 147 152 147 142 145
  90  92  97 101  99 105 113 112 125 130 140 131 126 121 113 105 105 101 101 101 102 104  98 109 121 111 125 127 124 132 132 135 133 140 143 150 154 155 155 158 158 156 153 153 151 127 148 141 140 138
  83  90  91  96  97 102 103 101 110 122 136 124 119 114 110 107 105 105 106 105  97  96  91  91  97  83 120 103 107 106 126 137 137 142 136 141 148 153 154 153 155 153 146 145 135 138 140 137 141 131
  74  83  92  91  94 100 104 111 104 117 121 120 113 109 110 109 108 103 104 103  97  81  77  67  87  60 107  92 101 104 102 102 130 143 143 137 139 147 151 154 153 152 145 147 144 141 139 138 132 120
  71  72  80  78  91  91  97 106 106 118 109 106 112  97 103 100 109 103  92  84  70  63  90  54  62  66 110 109  61 105  99 101  93 106 135 141 145 145 146 145 154 151 149 145 145 137 135 132 127 114
  81  78  84  70  71  88  97 101 109 112 108 103 103 104  95 101  98  94  74  56  59  33  68  75  65  60  86  90  95 102  63  87  74  83  96 119 132 138 135 139 151 149 145 141 132 141 139 125 119  90
  70  70  81  67  73  89  96  99 108 106  97 102  97  90  95  99  87  60  55  28  60  52  38  36  43  60  56  65  80  62  30  57  60  81  72  79 109 130 135 125 139 149 149 146 144 143 136 126 121 100
  62  65  75  77  82  91  93 102 103  99  98  94  91  86  92  75  68  33  49  62  23  17  16  17  19  21  22  33  29  21  19  18  28  27  66  68  74 107 121 131 139 144 142 147 144 141 137 132 125 122
  58  58  67  83  76  88  94 102 101  95  93  80  89  85  74  45  29  23  25  20  16  15  22  28  21  21  21  26  46  65  71  24  13  16  26  52  57  81 101 117 131 125 136 145 139 139 136 132 130 125
  60  49  58  69  60  77  91  95  96  86 100  88  88  64  52  26  17  19  19  15  21  53  80  71  69  62  40  76  96 154 135  85  57  27  13  37  77  46  84  95 111 129 114 140 141 141 133 133 113 130
  57  54  72  70  69  86  92  91  91  95  89  92  77  56  50  20  11  18  19   7  69  85  94 102  97  94 103 107  97 104 105  77 122 134 122 124 124  59  41 106 104 106 125 124 132 137 133 137 130 128
  55  61  72  65  73  88  89  90  90  91  87  87  64  51  60  25  13  54  94  81  86  84 106 146 115 161 122 140 119 136 148 156 144 108 113 117  95 118 119 109 114 104 120 126 135 135 136 134 132 132
  64  71  70  57  76  89  91  87  91  91  86  82  64  62  75 103  87  79  77  65  64  61  94  82  92 105  82 118  79 115 123 118 114 104 109 103 107 110 125 118 123 116 116 121 132 138 134 136 136 133
  67  69  81  76  73  83  89  94  95  87  82  83  68  71  69  62  59  56  52  31  44  39  54  56  72  93 101  93 111  83  93  85  93  90  89  98 100 103 111 122 129 114 109 118 127 136 133 138 134 133
  75  70  77  83  87  77  87  92  92  88  75  74  73  71  74  59  54  31  43  49  40  49  45  50  50  58  62  77  83  72  68  72  80  88  92  92  89 100 112 124 126 125 121 118 130 129 126 133 130 133
  77  74  71  82  75  84  78  86  87  86  88  76  75  76  84  73  66  51  33  33  42  40  49  44  53  50  49  54  56  55  59  62  66  62  66  70  87 105 114 122 133 128 122 122 125 124 123 116 119 132
  77  80  81  72  79  71  77  83  81  85  80  84  82  80  80  77  70  57  47  33  30  26  27  26  29  30  33  35  44  32  27  31  46  55  59  79 100 107 116 124 125 130 122 121 122 122 120 118 128 131
  79  76  73  74  69  71  74  81  82  79  73  85  85  81  76  71  70  71  55  41  27  25  25  26  23  25  27  29  28  24  26  36  45  59  85  92 102 106 111 119 117 122 122 121 118 119 119 124 126 129
  75  74  79  70  72  67  68  68  76  76  75  79  82  75  73  76  70  60  62  50  44  37  32  22  26  29  26  25  23  26  35  45  54  61  84  93 104 110 112 117 116 117 128 125 118 121 121 121 126 124
  76  65  78  73  68  64  71  66  68  70  72  79  87  71  63  62  63  60  59  57  46  39  35  28  30  26  31  27  24  31  33  57  63  71  87  92 106 113 114 112 121 128 123 127 122 117 115 122 127 126
  70  73  75  76  78  69  64  68  65  62  77  81  79  56  64  63  63  61  63  57  59  47  38  40  33  35  31  46  46  46  61  75  79  92  98 108 111 114 118 119 113 126 125 124 127 117 118 120 118 125
  75  78  73  78  71  64  71  70  65  65  66  76  83  79  80  76  73  66  68  66  58  57  59  43  58  62  63  77  78  84  90 100 103 110 110 119 114 120 121 121 121 130 132 127 126 121 116 117 119 127
  71  80  64  68  69  63  64  68  67  66  65  74  84  85  81  81  79  74  80  79  75  70  81  59  84  93  99  99 104 114 116 123 122 125 128 131 132 128 128 128 131 124 127 130 127 123 116 118 110 115
