P2
50 50
255
  91  76  84  47  61  74  51  64  76  84  66  78  81  88 103  99 107 108 108 103  96 110 104 114 116 109 108 104 101 105  96 114 118 108 117 117 117 118 116 126 122  97 112  91  94 105  77  78  73 138
  78  52  33  31  38  49  29  49  25  32  33  40  64  72  76  94  93  89  94  94  90 100  94  97  97 105  98  96  92  83  92 103 100 100 111 111 109 101  93  84  90  77  73  54  76  67  80  82  78 102
  41  28  34  31  24  18  13  11  24  20   7  24  27  45  56  72  71  83  85  85  86  87  80  86  83  94  92  91  81  81  79  93  89  86  88  73  79  78  65  56  28  53  51  67  45  47  63  55  51  51
  33  34  37  32  25  17  17  22  21  14  18  17  12  14  23  34  54  65  70  71  73  67  75  78  77  83  76  85  78  74  71  75  80  69  60  41  32  21  28  31  45  23  42  54  48  78  65  56  92  84
  61  32  45  32  40  33  28  33  23  26  31  20  10  25  13  22  23  32  45  47  66  73  67  70  73  76  76  74  67  67  56  43  67  43  18  24  26  25  39  37  21  45  43  54  65  64  90 112 108 113
  57  58  56  64  60  58  54  58  55  49  47  42  38  30  27  31  23  22  19  43  51  66  54  57  67  72  65  71  58  62  69  66  61  31  38  45  55  43  49  67  56  72  72  80  89  93 100  92  77  98
  61  72  62  54  70  66  66  69  58  47  48  46  34  32  30  31  36  19  36  25  28  41  53  57  61  56  67  55  42  63  67  62  48  56  54  51  49  39  41  52  55  62  74  79  88  96  97 102  97 101
  75  81  73  70  64  62  34   2  12  16   9   3  12  17  25  28  26  28  35  33  39  45  51  67  73  75  78  50  59  62  71  61  61  52  40  35  30  40  51  58  66  69  88  88  94  91  97 103 104 110
  73  76  62  25  32  15   3   0   1   2   1   1   2  12  14  19  25  23  31  40  41  45  53  67  76  83  91  75  79  77  67  57  48  42  32  31  14   1   2   1   2   2   9  36  17  26  42  89 100 104
  72  48  27  31   1  55  63   5   5   2   2   9   3  60  19   5  17  22  28  29  49  51  66  69  91 102  98  93  95  85  67  52  39  25  21  17  45   4   7   2   2  44  61  99  89  10  40  38  86  97
  55  43  14   7  20  83  91  13  10   7  10   2  69  60  24  22   2  22  29  29  44  69  76  90 104 116 118 109 104  85  51  45  30  35  12  33  62   8  14   1  18  28  96 112 106  33  16  41  76 100
  56  30  17  34  26  13  65  83  24   7  11  37  55  29  11   5   2  36  26  25  44  68  89 107 112 134 136 129 116  80  47  35  32  11  13  25  48  66   8   5  31  40 117  88  59  66  65  66  82  95
  47  42  38  47  44  30  25  36  35  36  32  25  28  26  27  22  20  20  19  29  52  70 106 119 130 141 152 149 129  84  55  43  42  17  24  28  35  42  70  85 107 142 100  78 105 110 102 103 104 111
  67  65  62  57  59  64  64  53  63  41  40  38  37  33  32  28  28  29  31  37  71  94 118 122 136 166 169 152 136 100  72  58  49  36  39  40  43  49  53  65  73 102 106 112 121 130 130 131 135 135
  82  75  72  74  72  77  68  71  68  64  56  39  39  32  33  33  33  47  52  74  78 103 122 131 146 146 166 157 138 123 102  81  74  68  41  37  39  41  62  75  86 100 113 115 115 120 127 137 143 148
  86  89  84  84  78  73  66  59  60  50  50  52  41  41  38  16  70  81  80  89  98 104 119 133 142 165 171 158 150 138 126 120 100 114  91  48  39  45  58  62  75  83  91 100 100 120 133 142 146 152
  97  95  95  90  87  81  83  69  67  66  58  54  47  66  65  92  90  94  96  98 105 114 119 133 155 151 168 156 150 145 137 134 135 136 127 110 100  62  54  53  55  66  64  78  94 125 137 150 150 152
 101  99  95 101  94  95  90  81  78  66  80  67  85  93  98 106 101 104 113 103 108 101 118 132 141 167 160 159 151 148 145 144 139 140 145 150 131 134 106  86  94  99  98 113 123 131 152 155 155 158
 113 112 110 119 122 108 104 113 105  92 102 104 107 112 107 107 109 109 109 108 110 105 113 128 140 165 170 153 150 148 149 150 146 146 142 153 154 151 149 148 154 138 145 146 158 158 155 156 163 158
 117 120 116 126 129 124 140 123 121 120 114 118 121 120 117 121 115 106 107 105 106 108 113 128 134 171 166 157 154 150 150 151 146 151 150 156 159 166 163 158 170 170 168 167 165 163 162 158 154 156
 107 121 124 129 129 130 136 136 128 129 128 129 129 123 121 120 113 112 104 107 112 112 112 130 152 174 164 156 153 153 147 148 151 147 153 159 152 164 168 168 172 171 161 170 160 160 153 148 145 149
 110 117 112 119 126 132 137 131 140 132 135 146 134 125 121 109 105  97 103 103 107 114 124 134 147 168 195 158 155 151 149 147 142 143 149 157 154 162 157 167 165 172 172 176 167 156 158 140 144 145
 115 113 118 123 128 134 137 134 139 140 133 136 129 123 113 100  86  84  94  94 109 119 123 137 149 185 181 160 155 151 144 143 139 131 129 139 142 148 155 135 168 158 152 172 171 153 150 146 145 143
 108 104 120 119 129 130 132 133 132 131 138 136 124 112 104  80  76 101 117 109 126 126 129 136 147 172 230 169 155 154 151 141 141 125 107 120 130 135 145 152 151 156 159 154 160 163 151 147 145 142
  99 107 114 123 123 128 123 131 129 131 128 123 119 106  88  83 106 123 133 130 123 127 130 136 147 178 223 179 160 158 155 148 154 146  95 102 116 130 140 147 148 145 152 150 144 143 147 147 141 141
  97 102 109 115 124 121 123 126 126 128 125 115 115 104  70  81 118 127 132 132 119 124 133 135 137 145 145 158 158 158 159 152 156 155 121  84  94 110 118 130 135 139 144 145 138 142 144 142 142 147
  95 104 106 111 111 117 113 118 119 120 119 114 100  85  65  95 117 119 124 123 111 109 120 130 133 131 141 142 147 150 143 145 152 157 147 103  79  99 113 119 125 131 131 142 135 138 139 138 139 137
  92  96  99  98  97 114 108 111 107 113 109  98  92  78  57  99 104 101 101  98  96 100 105 106 112 118 123 132 134 136 131 118 136 145 144 106  80  86  98 113 126 130 132 131 132 137 131 136 134 136
  85  90  96  90 104 104 108  96  97 104  98  90  82  72  52  93  95  94  87  93  78  88  88  92 100 105 104 117 124 121 104 106 112 121 131 106  89  78  88 105 103 121 129 121 122 131 128 130 131 135
  87  94  88  92  95  96 104 103  99  88  94  81  76  74  59  87  80  82  17  11   1  10  77  82  90  89  97 100  94   3   5  18  62 101 111 120 125  81  78  89 101 106 118 118 123 128 127 128 130 133
  84  83  82  82  90  93  94  93  94  93  88  74  81  83  62  40  58  44  44  26  25  44  44  71  84  80  90  85  72  53  34  38  53  84 106 145 137 102  89  88  91  98 110 107 120 118 112 120 118 119
  77  74  82  83  80  82  82  89  92  90  79  74  93  91  67  46  33  30  31  40  36  35  38  40  39  48  48  45  58  57  48  39  43  84 134 144 145 137 118  83  97  84  95 102  92 113 114 114 114 114
  78  78  72  76  76  75  77  78  87  76  87  93 100  85  71  45  42  40  35  37  40  38  40  43  42  37  38  41  55  59  67  72  74 106 141 150 145 146 135  96  89  89 100 102 108 110 109 111 114 115
  74  73  65  77  72  70  77  77  76  84  91  93  91  91  69  49  39  43  48  27  38  47  37  40  34  36  34  46  67  88  91 101 117 115 137 151 149 145 145 136 104  95  89  95 109 109 109 113  99 110
  68  70  66  63  68  78  81  75  83  78  88  97  92  83  67  62  37  45  48  50  47  38  41  41  46  38  48  60  81 108 107 123 129 137 143 148 148 145 141 136 130 102 105 104 102  99  97 100  85 110
  57  68  72  69  68  76  73  81  80  67  87  89  82  88  75  78  57  55  64  59  60  36  40  47  45  44  54  82 108 117 118 128 135 140 143 143 142 149 139 137 131 124 112 109 109 100 100 100 100 104
  60  59  70  66  69  75  82  82  64  78  72  73  86  89  86  83  76  82  74  71  60  52  51  48  57  62  71  90 114 122 128 132 131 132 146 137 139 136 139 134 134 126 114 106 109 109 108 105 111 110
  75  74  71  61  73  75  81  72  62  74  80  86  82  76  92  88  94  86  84  80  76  73  84  80  89  92  88 113 125 135 132 128 138 136 130 134 138 128 131 107 129 129 120 115 119 109 114 103 115 114
  77  75  68  60  69  76  80  56  66  73  63  69  81  84  88  91  94  95  89  89  93  94 106 115 117 125 135 128 127 122 138 130 141 137 133 129 134 130 103 115 120 128 123 122 118 115 115 112 117 119
  73  77  65  75  76  77  81  81  78  72  68  68  74  84  89  92  89  86  75  71  59  67  66  78  86 120  98 106  98  97  93 101 128 127 137 130 133 125 112 114 113 115 121 120 114 114 120 117 111 125
  76  79  72  68  71  80  79  78  75  63  55  59  68  81  77  74  69  52  50  42  52  56  59  55  63  89  82  80  91  96  92  89  74  87 108 113 124 112 108  94  93 107 114 124 123 120 123 120 119 124
  84  78  77  74  79  81  80  78  75  72  50  47  50  55  50  44  41  47  58  51  65  62  57  38  56  70  82  74  87  97  87  82  72  67  71  80  78  75  76  65  93  92 102 116 120 121 120 121 118 119
  78  74  79  82  75  78  86  67  79  63  42  32  22  23  31  34  44  38  59  83  78  45  46  58  59  72  69  84  73  75  83 105  77  52  69  69  60  20  21  42  77  96 102 113 120 123 116 120 118 119
  78  84  68  78  77  77  85  77  76  66  42  28  20   1   1   9  78  81  96 104 103  80 106 104 100  78 107 106 117 127 114 120  99  94 110  13   6   3  43  51  63  90 103 115 117 121 112 118 117 119
  78  79  73  76  73  78  79  83  71  66  53  36  32  19   6   7  31  76   1 109 112  21 113 106 112  91 114 115 124 135 117 121  11   7  61  36  30  83  95  67  74  88 105 112 117 107 113 119 112 122
  86  71  81  74  72  73  80  77  75  68  58  47  43  40  22  28  21  27  23  26   2   3 103  88  96   2 106 104 111  62  52  44  47  74  94 100  95 109  96  89  85  88 109 107 106 100 113 114 119 122
  85  74  73  70  67  72  71  73  77  68  64  63  57  46  57  41  43  56  54  47  51  40  41  64  73  72  80  79  77  73  92 111 103 121 118 109 127 114 108  99  97  94 101 110 104 111 114 110 114 138
  88  81  75  78  70  68  71  71  68  66  72  65  60  61  61  55  64  80  86  93  95 108  91  88  92  95  90  92  98 109 126 154 126 128 120 114 116 117 116 117  98 104  99 104  93 112 108 112 118 175
  73  77  76  74  66  73  71  61  71  73  75  74  74  71  65  61  58  66  80  86 107 121 134 150 145 145 127 137 135 149 115 121 104 112 112 117 118 115 118 112 104 102 101 105  97 105 103 114 150 173
  85  79  76  74  60  68  68  68  67  66  71  76  71  67  67  65  67  42  56  69  86  93 108 109 118 123  95 106 104 105  95 107 121  98 105 108 114 116 116 111 107 103 108 105 102  97 107 112 172 173
