P2
50 50
255
  95  67  68  53  75  71  66  77  81  81  71  89  94  97  99 105 107 109 106 103 105 110 103 107 115 112 106 105 103 105  93 112 114 111 113 116 115 113 107 112 122 109 104 107  99 102  98  76 106 115
  63  43  48  47  40  45  34  55  37  41  39  66  67  85  88  93  93  95  94  97  96  96  96 103  94 106  98  92  92  85 100 104  98 103 103  98 104 102  92  83  83  56  57  68  75  78  76  61  68  64
  26  23  30  31  26  23  16  22  20  14  21  32  35  46  64  78  77  89  81  78  84  84  86  87  89  92  87  90  83  80  84  95  87  89  74  75  81  64  63  50  37  35  41  58  54  67  64  76  80  46
  31  24  20  11  24  22  19  18  22  16  10  16  16  23  25  49  62  60  78  69  73  73  72  77  79  83  74  85  74  76  70  75  65  62  43  36  12  20  29  38  30  29  29  40  43  69  65 103 103  79
  30  33  18  31  33  35  30  26  26  23   8  15  18  10  18  18  34  38  41  50  67  77  68  73  78  77  76  80  71  69  55  45  67  51  41  24  35  32  34  38  34  44  62  67  75  69  93 103 114 116
  58  42  51  61  44  57  54  49  45  43  40  38  23  20  25  17  19  12  23  39  57  62  59  53  70  73  66  72  62  60  68  75  56  40  35  42  49  39  55  68  63  72  77  79  79  96  95  98 103 104
  57  57  68  67  68  60  62  62  56  53  47  44  36  35  31  33  31  18  35  44  45  48  49  55  63  66  70  58  50  58  59  62  50  55  55  55  40  35  39  43  50  63  72  86  87  90 101 105 110 105
  65  73  76  66  69  55  53  36   7   7  14  18  28  33  33  25  25  30  31  36  48  35  57  62  74  76  72  60  56  60  67  58  59  49  44  32  33  32  38  46  53  57  63  61  80  79  95 100 105 107
  68  74  64  37  22   9   3   2   1   1   1   1  19   7  12  26  23  27  35  41  45  44  57  62  70  84  90  75  75  73  65  59  48  36  34  34  16   2   1   3   3   9  15  88  24  16  40  73  93 106
  72  43  19  26   1  48  52   7   4   1   1  22  30  45  31   3  15  15  25  32  45  53  66  64  84  99  97  95  89  85  62  51  34  24  18  18  58   3   7   2   2  21  20 103  90  29  14  62  71  93
  38  31  11   1  46  81  89  13  10   1  17   3  71  55  24   4  28  12  25  27  45  64  78  89 101 119 113 111 103  83  53  43  24  34  12  35  63  12  16   3  19  21  80 119 104  24  45  37  78  88
  42  21  15  19  11  35  72  43   4   3   4  33  56  25   9   4   2  23  25  21  37  71  93 108 114 130 132 132 113  77  50  40  24  15  11  13  30  54   5   2  28  30 100  83  75  93  83  81  79  92
  32  28  28  43  33  34  29  29  34  32  28  33  28  23  22  15  10  26  25  28  45  79 103 116 135 139 149 145 126  86  56  41  45  15  16  26  36  40  62  77 109  97  94  94  98 111 115 112 116 114
  62  64  62  67  59  66  58  60  52  53  43  36  34  33  34  30  27  27  29  42  68  92 115 117 135 154 164 151 134  96  82  51  52  38  34  40  45  48  54  60  75  96 106 117 124 126 124 127 132 137
  75  77  67  65  65  71  66  71  67  54  50  45  38  29  29  26  33  43  54  71  80 103 119 128 136 155 162 154 141 126 102  76  75  71  38  38  43  42  55  64  78  91 102 110 107 110 122 134 142 144
  88  82  89  81  72  60  53  50  50  45  48  45  39  40  33  30  70  80  78  84 100 104 120 132 144 157 167 157 147 137 127 113 108 113  88  63  48  41  50  56  68  76  86  87  99 115 135 142 146 153
 101 102  94  95  86  80  65  62  56  58  49  43  52  65  70  92  93  96  95  95 102 110 119 133 138 161 168 154 151 144 139 131 128 142 135 124  97  93  48  57  59  62  67  92 111 132 143 152 155 157
 114 114 117 116 109  99  91  83  71  67  80  77  90 103 105 107  99 102 108 101 106 106 116 132 146 154 165 158 150 147 144 140 137 145 145 143 137 129 125 110 105 113 120 136 139 150 160 161 164 160
 121 127 130 136 136 130 127 120 113 104 107 107 116 114 110 108 103 108 109 110 106 106 113 125 139 166 165 154 150 145 146 148 144 142 148 149 153 152 155 149 155 154 154 153 162 165 168 168 166 157
 120 127 133 137 143 143 142 133 130 124 124 121 124 118 113 115 112 108 112 106 109 108 114 127 139 165 168 155 154 146 146 150 147 148 149 154 156 161 156 166 161 166 164 167 169 166 164 163 155 150
 119 126 128 135 142 143 146 138 136 136 134 130 131 126 119 117 112 108 111 109 111 112 115 128 143 174 178 156 154 151 145 144 150 144 151 158 154 159 164 162 166 166 168 172 167 169 160 150 139 146
 113 119 127 131 137 141 145 142 143 140 137 137 130 122 121 112 106 100 102 103 106 114 121 128 142 173 215 160 154 151 147 144 142 142 144 148 154 161 156 158 163 166 167 170 169 162 153 149 146 147
 112 121 127 129 134 137 142 139 139 141 137 132 124 116 106  98  88  85  95 102 107 115 123 133 140 188 190 162 156 151 145 145 143 126 126 132 137 147 149 157 156 155 163 161 164 161 158 152 145 145
 108 117 125 128 128 131 137 139 141 139 134 129 121 106 102  82  83 104 117 107 124 125 125 134 142 169 198 163 158 155 151 141 141 136 102 112 126 132 138 142 145 150 155 150 145 141 151 148 151 146
 102 114 115 123 126 124 128 135 127 127 123 115 107  93  76  86 106 122 132 126 126 126 132 132 142 162 169 211 164 157 152 144 148 150 128  90  99 107 115 126 136 142 145 143 144 142 142 148 143 144
 101 109 113 119 123 124 126 125 125 124 119 110  94  80  62  97 125 127 132 130 122 124 132 136 139 148 145 169 158 156 157 153 157 156 149 111  74  88 102 115 126 127 129 134 140 137 136 142 139 143
 100 100 103 111 117 114 119 118 116 113 108  94  85  65  68 105 121 126 128 125 116 121 124 128 129 133 136 145 140 150 147 146 154 154 153 130  77  68  92  96 109 114 126 126 132 132 132 130 136 135
 101 102 100 106 111 113 112 109 108 105  95  83  70  63  71 104 106 111 107 107 103  99 110 107 117 116 126 131 138 133 135 127 138 142 148 138  92  69  72  88  94 105 113 122 126 125 132 129 134 131
  95  93 103 104 106 108 105 103  96  90  83  69  64  65  66  94  97  90  92  87  81  92  91  94 100 102 110 121 122 123 117 110 114 119 132 127 107  84  69  77  90  96 106 116 116 120 125 130 129 130
  90  94  94  93  98  97  96  96  91  83  70  68  76  74  47  82  84  71  17   5   4  75  85  86  92  90  99 106 104  92   6  25  27  96 103 117 130 125  83  72  82  90  95 102 106 114 119 121 124 123
  83  88  83  88  92  90  91  86  74  69  68  83  87  85  53  40  43  35  32  24  26  38  54  77  87  84  91  93  73  62  55  59  43  51  90 131 139 135 109  80  73  79  85  90  97  97 109 111 116 117
  79  83  80  84  83  81  79  80  66  66  84  91  92  80  63  49  38  37  30  34  35  35  39  39  82  77  66  37  45  55  51  46  57  69 102 133 140 138 127 110  68  75  86  86  94  97  99 103 105 110
  68  79  77  79  76  73  65  68  65  73  81  88  89  76  56  47  46  43  38  40  33  37  37  39  39  32  36  42  49  59  61  76  76  92 123 135 142 143 132 124  99  78  79  83  86  90 100 107 105 106
  65  60  67  72  72  71  62  55  61  69  84  82  79  68  59  44  49  48  46  43  40  35  33  36  36  37  28  35  45  68  73  82  93 109 128 138 141 137 134 129 116 102  72  84  85  87  94  96  98  87
  73  67  58  66  63  66  55  52  61  72  73  81  84  69  61  46  40  46  45  40  36  38  33  37  40  37  38  45  62  85 100 110 115 127 132 137 140 134 132 126 126 119  95  90  88  91  87  94  92  96
  70  64  67  65  72  58  48  50  61  66  75  82  85  75  65  54  57  59  54  55  45  42  33  38  40  42  44  65  80 107 113 125 126 128 141 137 138 129 133 126 126 126 115  97  94  90  97  96  94 102
  73  63  68  70  70  50  39  56  72  82  85  84  84  87  81  76  74  70  64  64  58  40  34  35  41  45  50  78 101 105 125 126 129 132 140 137 142 128 136 119 123 121 119 108  99  99  98  96  98 110
  67  61  65  72  72  52  58  68  65  76  81  78  84  87  83  87  90  88  79  79  64  63  70  71  80  83 100 106 125 125 132 133 132 136 138 139 137 138 129 117 106 113 115 113 105  99 100 107  97 112
  65  74  73  81  77  64  72  68  60  69  75  78  86  90  92  92  91  87  79  77  80  83  89  94 107 114 117 105 113 116 123 127 127 131 135 140 136 136 126 112  98 110 110 112 110 106 107 109 110 114
  74  69  75  80  86  75  71  72  62  62  58  72  82  79  79  75  73  65  59  64  53  61  56  58  75 102  87  94  94 100  94  96  95 112 111 123 126 127 123 110  90  90  97 105 113 111 112 115 118 111
  76  75  71  79  88  87  79  77  74  47  53  54  55  52  46  50  50  53  53  60  56  55  48  52  66  71  79  80  84  98  90  83  84  81  79  82  98  90  91  75  63  78  88  93 110 114 116 116 115 119
  77  82  78  84  87  93  78  79  67  45  35  17   8  16  35  38  61  53  38  69  67  59  65  62  63  69  81  88  73  87  76  87  78  73  73  69  70  61  19  27  36  54  90  91 104 114 115 116 114 116
  78  72  78  80  88  93  91  75  67  52  33  20   1   1   1  53  70  86  48 100  97  63  71  83  63  68  69  82  94 106  82 124 116  92 112 101  66   3   4  55  59  65  86  96 105 114 119 108 114 113
  82  73  77  80  82  92  89  78  65  63  46  41  24   4   2  24  81  96  81 108 110  98 108 117 111 102 104 123 132 136 107 135 130 102 125 126  28  37  91 102  76  75  88  98 108 108 108 113 116 111
  75  79  72  72  75  85  86  85  74  65  57  46  45  34  19  15  43  86  32 106 114 107 120 122 118 121 126 134 141 147 117 140 128   9 122  79  94 109 114 105  89  89  89 103 105 105 102 114 111 115
  81  78  75  75  72  81  83  84  73  70  62  55  53  59  34  30  39  32  30  20   1   3 115 110 110 121 128 129 137 138  14  89  97 107 110 115 118 127 121 109 107  99  98  98 105  99 110 112 112 112
  86  77  80  74  72  74  76  80  75  79  72  65  61  71  63  55  58  69  79  62  78  68  14   2  13  13  37   5  54  68 104 104 114 142 126 111 119 124 125 119 113  98  99 100 101  96 108 108 109 115
  80  81  74  73  78  69  72  70  76  75  80  69  71  69  69  69  73  85  88 100 123 115 116 127 105 110 102 108 123 132 140 125 121 126 118 112 123 123 124 122 112 107  99 100  97 101 103 108 108 134
  79  78  75  69  68  72  71  77  72  74  70  77  71  72  75  71  53  70  80  87 102 134 136 146 143 132 128 138 141 119 114 115 115 118 108 120 118 119 120 122 112 110 103 103 102  98  98 104 113 162
  75  77  73  66  65  68  72  75  74  73  73  70  69  69  72  69  67  53  56  74  86  92  97 108 106 104  92 110 109 108 107 107 109 106 102 106 118 122 122 119 113 108 110 103 100  98 101 104 144 169
