P2
50 50
255
  98 104  85  83  86  90 100  89  87  92  94  91  93  99 100 110 112 109 107 108  99 112 115 115 113 114 117 111 106 112 102 112 116 116 119 118 125 122 124 123 120 117 117 110 124 100 103  97 102 130
  98  76  83  49  61  84  66  54  67  43  67  79  81  84  98  94  94 105 105  99 105  98  96 106 105 106 105 105  96  98  98 105 103 106 114 110 110 101 102  98  95  78  76  84  81  84  85  86  76  94
  83  67  45  35  42  31  29  31  27  31  29  38  41  60  72  84  88  93  85  94  90  93  88  89 100  93 100  95  86  85  90  94  95  91  94  98  86  83  75  51  49  46  45  57  64  67  62  62  63  62
  50  33  31  31  20  13  13  18  15  22   9  17  13  25  47  53  71  76  81  78  77  81  81  80  88  86  84  88  83  79  75  79  81  70  55  66  44  41  23  22  35  21  39  48  62  75  64  76  81  74
  28  24  35  31  19  24  22  18  19  10  17  14  13   8  23  31  31  57  55  66  69  74  69  74  75  82  70  76  75  61  65  37  71  48  36  30  22  27  31  39  32  34  45  60  62  75  84 103 110 103
  42  36  34  43  45  35  42  41  42  27  29  20  14  13  19  24  26  20  37  41  61  61  65  62  65  75  74  69  70  55  69  73  62  32  42  31  46  43  37  49  62  71  75  71  84  92  89  96  94 101
  57  56  56  54  64  61  65  61  64  57  47  51  44  35  38  32  29  29  31  29  47  56  55  50  65  70  67  66  65  61  48  60  32  45  50  55  49  47  57  60  62  70  72  85  89  93 100 100 100  99
  56  67  59  60  65  71  69  64  64  54  55  52  36  32  35  33  31  38  31  40  43  47  47  56  65  71  70  62  49  56  61  59  51  52  44  45  34  38  41  54  61  67  76  81  84  89  91  99 103 105
  70  71  74  66  51  29   4   2   3   2   0   1   2   6  13  24  30  25  28  36  34  39  41  60  75  77  92  70  68  66  61  66  45  46  33  31  22   2   1   1   1   1  21  42   7  21  45  84  93  96
  74  70  61  17   9   2  34   4   2   3   1   8  15  44  16   5  16  20  28  31  43  49  50  68  87  92  99  88  88  76  64  48  41  24  30  19  43   4  11   2   2  37  44  93  71   3  20  34  62  85
  58  21  24   2   1   4  25  28  21  11   0  21   5  66  36  15   4  11  20  23  34  58  67  83  93 101 114 109  96  84  44  39  24  26  17  21  60   7  13   2  18  25  65  76  28  18  16  17  67  84
  41  17   7   8  15  18  15  12  11   7   2   3  23  18   2   5   7   5  10  15  30  57  80  94 108 125 130 121 111  72  44  35  23  14  18   7  30  27   5   2  21  58 100  86 102  93  66  66  65  73
  36  52  62  61  70  73  71  62  53  42  35  32  32  23  18  22   9  15  21  14  34  59  91 111 122 131 147 137 124  84  49  34  37   7  13  23  31  41  54  66  81  98 124 133 139 127 123 116 119 121
  67  55  60  64  58  59  69  68  70  70  61  51  43  40  34  29  26  21  23  29  41  70 103 119 126 149 149 148 135 102  73  41  45  33  37  36  42  50  56  71  82  97 107 110 108 111 118 128 134 138
  75  89  91  77  82  76  61  53  56  40  46  47  42  35  27  21  18  46  50  49  68  92 115 124 132 159 157 152 141 113  95  71  76  71  39  40  39  45  47  64  70  79  88  92  96 103 120 137 151 148
 103 104 101  93  58  51  48  49  51  50  48  32  32  48  44  49  81  76  80  77  87  99 115 127 140 158 161 155 148 132 118 111 102 109  97  65  36  35  38  47  53  53  50  61  77 137 144 156 155 155
 113 116 117 126 131 120  95  78  47  37  36  59  74  92  97  94 100  90  93  93  96 110 116 129 137 162 161 158 147 139 132 127 118 133 131 128 114  96  91  63  55  69  85 125 134 149 156 159 160 154
 110 110 126 133 139 137 136 127 115 115 115 106 119 117 103 103 104  95 100 107 107 109 115 134 142 162 161 156 150 143 142 137 131 139 140 136 144 142 141 137 136 138 147 151 155 161 163 162 152 148
 104 113 120 121 136 141 147 147 146 138 128 124 117 111 105 104 103 105 109 112 109 110 113 131 140 160 166 159 151 142 147 146 138 135 148 143 148 148 151 158 158 159 158 162 165 161 161 148 140 143
 107 109 113 125 133 138 147 147 147 147 143 132 125 119 115 115 111 112 112 111 108 109 116 129 143 160 165 165 157 145 145 146 140 142 144 152 142 153 152 154 156 159 164 165 163 164 152 145 139 143
 104 114 119 124 130 136 144 145 145 147 145 136 131 131 119 115 109 107 108 108 111 112 114 121 136 162 166 159 155 152 146 144 144 144 150 152 157 156 155 156 154 161 158 163 164 159 151 149 142 144
  94 103 116 125 130 133 131 144 138 142 139 133 127 124 115 102  92  91  96 101 103 114 118 126 139 172 171 162 157 152 148 144 139 134 136 151 146 152 150 161 155 155 156 153 143 145 149 149 148 142
 109 109 118 124 128 125 127 135 132 135 133 131 126 115  89  79  84  93 104  95 106 117 121 128 141 169 192 168 159 155 146 140 139 127 103 113 127 134 142 146 142 148 150 148 145 141 138 148 145 145
 107 113 109 116 120 124 126 126 126 125 121 116 111  91  64  84 114 118 128 124 114 122 123 133 140 165 189 171 160 153 149 142 139 144 123  73  84  98 110 118 133 133 140 135 135 134 136 141 140 145
 104 110 102 110 108 116 118 119 117 109 108  94  84  58  61 101 120 127 136 134 126 126 128 133 140 150 155 169 158 155 152 146 151 153 144 118  67  68  83 100 112 117 121 124 133 128 131 131 134 138
 104 104 107 105 108 116 114 110 109 102  95  79  52  50  75 110 122 128 130 132 124 117 129 134 131 142 143 148 151 153 153 152 161 156 155 139  94  67  63  76  89 107 113 121 120 122 130 129 130 133
 101  92 106 104 107 111 108 100  94  89  75  55  59  64  90 111 113 117 117 120 114 118 119 124 125 130 131 139 142 143 141 140 146 148 152 139  97  80  63  61  75  80  91 102 112 117 120 126 130 131
  95  94  98  99  98 100  93  97  88  74  53  61  68  67  73  89  99  94  96  96  97 103 106 109 116 111 121 127 132 131 129 120 128 132 134 131 107 100  85  61  68  68  83  86 103 108 113 121 127 119
  88  90  90  95  92  91  93  78  71  41  65  77  84  75  44  83  86  73  21  60  85  87  86  94  99  93 107 117 117 116 106 100 102 104 109 112 117 115  99  75  56  70  75  78  92  99 107 108 111 120
  83  88  88  84  85  83  84  61  45  58  81  82  84  72  55  45  30  39  31  30  32  68  82  86  87  88  97 102 102  90  55  47  49  34  71 110 129 125 105  92  67  57  72  75  83  91  92 105 109 113
  77  82  81  80  80  69  65  47  62  70  81  87  87  70  48  47  39  39  37  36  37  36  35  67  79  84  86  80  49  51  47  47  54  66  80 116 128 127 119 103  84  64  61  70  75  82  94 102 106 105
  63  78  73  76  68  67  44  55  65  70  83  82  81  70  57  44  43  40  39  37  31  39  37  29  47  57  39  41  42  46  57  54  67  78  96 126 133 132 125 110  97  82  70  61  71  81  86  93  99  98
  65  57  69  76  75  54  33  53  64  66  88  86  78  70  46  40  41  49  38  39  35  28  33  32  38  41  36  33  35  45  54  66  76  96 114 128 131 135 124 112  97  92  79  64  76  75  83  81  87  88
  66  74  69  73  57  23  46  53  69  82  88  95  81  72  58  41  45  45  39  42  35  31  22  32  38  32  28  34  32  54  74  83  96 110 121 132 129 136 124 116  99  92  95  82  68  72  77  92  91  93
  69  66  70  71  30  22  45  60  83  83  91  84  91  74  67  63  51  47  45  37  34  35  29  22  33  33  26  36  49  78  85  98 112 117 123 135 131 137 134 121 100  95  95  92  83  76  82  84  93  93
  62  65  68  68  15  40  60  67  82  83  88  86  86  76  75  67  64  55  56  44  34  28  20  30  25  34  40  50  84  99 112 125 126 132 136 138 133 133 131 122 108  81  90  99  96  83  84  86  91  96
  68  75  74  74  32  50  55  62  73  81  78  81  83  82  84  73  71  66  66  61  62  52  50  37  60  64  86 106 114 123 129 122 125 129 133 135 135 129 132 115  98  80  76  93  98  92  90  95  99 105
  69  76  80  86  39  57  62  55  66  63  73  75  75  71  69  68  65  54  61  56  53  55  59  61  70  87  89  94  90  95  94 100  97 106 111 119 122 125 126 111  93  75  71  85  97  99  99 106 109 114
  77  70  83  90  75  64  73  50  42  53  61  48  46  44  38  44  55  50  48  54  53  57  51  56  67  80  70  74  75  84  85  76  80  71  71  77  88  89  85  81  46  40  57  75  83  95 104 112 113 113
  81  80  83  95  96  62  73  57  26  29  17   0   1   6  20  35  38  49  27  28  14  33  61  65  69  66  72  75  82  82  64  41  36  44  61  77  48  40   3   3  19  33  42  70  87 100 107 112 116 116
  72  73  83  95 103  81  70  61  25  31   5   2   1   2  15  33  52  49  41  34  61  41  39  48  50  39  39  52  79  71  63  88  84  66 119 143  77  17   2   2  61  52  56  70  88 105 109 112 107 108
  79  72  82  82  92  89  70  65  40  38  40  16   2   1  15  67  52  89  54  61 109 102  53 100 112  70  68 132 149 120  90 145 157 106 153 156 119   7  13  87 109  66  70  80  94 105 107 104 111 113
  72  77  73  80  93  94  80  73  58  48  53  54  17  13   2  57  70 110 100 115 134 132  80 132 138 136  92 159 169 172 118 167 168 140 162 166 102  64 103 119  98  86  83  80  94 104 105 107 109 113
  72  74  74  73  85  91  87  71  63  58  57  60  54  29  19  21  34 114 113 130 143 148 140 153 156 159 149 166 173 180 157 173 170 127 159 165  98 131 136 118 105 102  89  93  98 104 106 103 107 112
  77  75  77  74  76  82  84  74  75  67  55  61  63  58  38  41  34 104 114 128 141 148 147 152 155 162 152 166 168 171 143 167 163  80  92 105 112 132 124 119 115 109  95  94  99  98  98 105 103 106
  79  76  74  73  72  77  75  70  75  81  65  66  65  70  69  53  66  61  60  36  35  16 114 141 142 148 113 156 155 158  73  55  82 132 122 120 118 127 123 118 117 107  99  94  97  98 103 101 104 107
  91  76  68  67  70  75  70  72  63  69  71  65  67  69  68  66  71  85  78  92  72  72  44  37  59  74  77  70  56  54 103 149 127 134 118 115 119 122 123 115 115 109 103 102  96 100  98 100 107 110
 108  76  75  64  68  74  70  74  64  64  61  71  66  70  68  66  60  72  84  87 107 128 124 133 127 130 136 129 118 148 133 120 116 116 113 116 119 122 119 119 114 107 103 110  99  97  89 100 102 165
 106  78  72  70  64  63  71  77  65  60  42  67  70  65  69  63  59  59  72  81  91 108 111 131 127 135 124 119 132 103 107 112 111 106 105 110 118 115 120 121 112 110 110 111  96  96 100 100 149 165
 108  85  63  71  66  60  67  75  76  50  47  50  65  68  65  71  68  57  52  71  83  88  96 106  99 104 100 101  97 104  99  94  97  92 108 104 113 114 120 121 111 112 111 100  97  99  98 105 164 166
