P2
50 50
255
  96  92  65  80  69  73  75  89  88  91  80  91  94 101 106 105 112 110 110 107 107 117 118 118 117 119 117 116  99 112  99 116 119 117 115 118 124 124 121 129 119 121 116 129 125  94  76  87 109 129
  92  66  57  48  23  17  60  72  51  46  64  56  74  86  89  97  96  98  97  93  99  97  96 101 101 105 105  97  96  94  93 106  99 112 113 110 103 106 104 106 110  84  47  51  83  60  94  83  72  90
  77  44  16  28  45  14  30  27   7  27  25  23  30  52  70  81  81  85  83  85  95  88  93  93  93  97  96  91  88  76  87  98  93  91  87  95  71  77  80  53  39  42  48  52  67  74  67  61  40  51
  53  37  30  19  21  22  28  19  10  16  13  14  17  26  19  46  69  66  72  77  72  79  71  82  83  83  82  89  82  80  78  76  83  59  58  66  42  27  43  30  24  15  43  65  70  76  64  78  96  85
  37  39  28  27  26  12  30  29  16  21  25  10  14  14  12  17  35  41  55  63  61  65  73  70  73  83  72  79  71  63  63  36  69  47  25  17  26  27  36  40  22  41  35  51  61  77  93 108 109 111
  62  52  53  60  40  49  48  47  47  59  39  39  22  26  22  20  22  14  19  41  57  65  64  63  71  72  66  68  75  63  68  71  55  35  23  29  48  46  61  68  63  71  74  80  91  97  98  97  90 109
  42  55  46  44  55  67  58  61  64  54  53  44  46  36  35  30  31  36  35  37  32  53  47  56  64  66  68  62  54  68  60  62  49  55  50  47  42  43  53  54  52  68  78  83  97  98  98 108 105  98
  64  69  69  73  78  61  63  62  58  41  15  20  27  36  35  27  31  26  34  42  42  37  49  66  68  69  72  62  62  54  71  61  63  49  44  33  36  39  43  55  59  70  79  75  84  93  93 101  97 104
  77  75  74  70  44  21   4   2   1   1   1   1   2  15  14  14  25  26  32  40  34  41  54  56  74  74  88  68  77  72  62  58  46  40  27  33  17   2   2   1   1   3  37  63   7  33  60  92 103 106
  80  73  55  28   9   2  65   7   6   3   0   4  12  48  33  14  16  16  28  31  39  60  64  77  89 100  98  95  91  86  64  49  40  23  18  22  49   5   7   2   3  27  46  98  86   5  29  37  83 100
  70  39  43   9   2  70  87  77   9   5   1  11   8  68  47  26   2  19  23  26  36  65  71  92 104 100 117 112 100  83  62  43  22  37  22  38  66   4  16   1  20  32  98 118  95  34  20  35  82  96
  69  48  23  11  20  13  48  81  18   9   4   2  51  38   9   6   7   4  18  21  37  50  88 107 114 127 131 131 116  81  51  31  26  15  17  12  31  55   6   6  18  43 110  73  67  89  71  77  79 100
  52  42  35  42  41  38  27  26  32  30  30  28  27  29  26  23  18  18  26  21  44  72  96 118 127 138 152 146 131  93  59  38  40  19  21  30  32  50  65  69  75  67  95  95 112 113 112 116 105 114
  60  68  60  59  65  64  64  63  57  56  38  43  37  34  34  30  27  26  26  36  58  86 113 122 132 149 162 152 138 106  90  50  52  44  38  38  46  49  58  60  84  97 110 117 125 126 126 130 136 139
  79  78  74  72  64  72  75  72  71  64  52  46  39  32  31  31  31  43  47  65  79  96 119 130 135 143 164 155 144 124 106  90  80  81  44  32  42  43  56  69  87  91 100 106 112 117 126 136 140 144
  88  83  85  82  75  74  63  65  56  48  41  44  38  40  33  31  71  76  86  85  96 101 122 131 141 157 166 155 149 138 131 121 111 115  95  68  49  37  45  60  66  77  83  90 113 122 135 140 146 149
  86  90  87  90  86  82  78  68  64  56  57  50  54  61  67  91  97 100  95  99  99 113 120 130 137 129 158 157 151 144 138 135 134 142 141 126 105  92  58  52  63  74  78  98 117 148 142 151 152 153
  97  99  97  98  99  90  93  87  82  80  76  83  91  95 102 104 106 104 106 109 108 110 116 130 143 163 162 159 151 147 144 142 140 146 149 145 143 139 133 131 115 118 129 126 128 138 157 150 157 157
 108 110 113 117 120 122 117 117 112  95 108  69 114 112 113 118 115 112 107 108 110 104 118 128 144 169 157 156 156 143 147 148 143 144 155 151 163 163 151 143 152 147 159 162 157 163 160 158 163 153
 116 117 121 125 129 134 127 132 130 128 124 130 130 127 123 122 113 117 114 107 109 111 118 130 136 166 169 161 157 154 145 150 149 149 154 149 158 156 164 164 156 156 159 167 160 166 166 156 151 154
 110 114 121 122 126 131 138 135 135 133 137 136 133 137 129 123 122 112 111 106 109 115 117 126 149 172 170 162 157 154 147 143 148 151 160 160 162 165 167 163 173 168 167 168 171 164 152 144 150 149
 111 113 118 118 125 131 131 131 133 138 138 139 140 130 128 119  98  96 100 109 105 117 122 105 146 169 180 160 157 156 151 146 141 133 127 142 148 155 153 141 169 159 170 171 166 156 166 149 148 145
 107 113 112 127 125 131 135 138 133 134 135 134 122 121 106  85  71  93 103 104 111 119 126 135 147 171 173 165 156 154 146 145 142 130  98 114 152 154 146 147 160 155 165 160 154 163 159 154 149 147
 106 113 121 122 128 127 122 131 131 131 132 124 119 106  74  69  96 117 127 125 122 126 132 136 145 166 196 175 162 154 153 144 143 146 100  85  98 108 126 140 152 154 158 153 154 156 146 155 137 148
 100  92 109 110 124 118 122 129 127 127 122 123 117  95  49  89 113 129 139 135 128 128 132 143 146 156 163 182 157 158 155 145 151 155 136  79  68  95 105 125 135 142 146 147 145 142 149 150 149 149
  99  94 103 106 116 121 122 120 117 116 112 112  92  62  48  94 119 126 131 131 120 125 128 133 135 137 144 151 159 153 154 152 161 156 155 125  62  75 101 112 123 128 133 137 137 135 139 143 143 142
  94  96 101 103 114 108 107 110 112 106 102  98  76  54  50 103 113 116 122 114 112 111 116 125 129 126 134 134 138 144 140 140 139 148 154 129  67  62  80  93 111 110 130 129 134 135 136 132 136 137
  88  98  91  99  96 100 101 104 101  98  91  73  54  54  43  93  97  95  94  94  96  90  98 100 109 109 112 129 130 133 123 118 122 132 139 128  88  60  67  78  91 101 113 117 121 128 133 132 132 133
  83  91  91  96  96  98 102  99 103  89  88  56  60  60  50  86  87  83  20   6  43  83  84  89  91  96 104 112 112 106  96  70  80  99 107 109 113  85  56  67  80  94 107 107 121 120 128 132 128 131
  83  86  91  94  86  83  93  89  90  92  73  56  68  69  62  43  45  45  40  33  22  35  72  77  84  88  93  91  89  60  57  51  46  59  87 127 132 113  79  61  76  78  93 101 113 119 113 124 123 122
  82  85  82  83  85  83  91  86  91  84  67  76  87  81  67  45  39  36  35  33  36  39  41  42  76  84  80  58  50  52  56  51  59  65 103 130 138 132 107  72  68  85  84  96  92 105 113 108 118 118
  82  74  75  83  80  77  80  79  78  75  71  82  89  83  66  38  42  38  38  44  35  41  37  34  36  40  35  41  50  52  60  71  76  94 119 135 135 138 131 110  75  76  83  91  99 104 108  99 112 103
  83  69  74  75  73  78  75  69  80  71  84  87  85  78  60  49  40  40  34  37  37  41  30  30  34  35  36  33  40  46  75  68  77 115 111 139 143 138 133 129 109  73  78  89  92  99 103 108 105  94
  80  75  67  67  73  72  78  80  74  74  71  83  86  82  70  51  25  24  48  41  39  33  32  30  35  34  40  36  50  68  92  99 108 123 134 135 142 138 130 132 125 110  92  92  83  94  97  96  98  94
  77  76  71  60  58  69  69  74  75  52  75  79  83  77  67  61  44  47  47  39  30  39  36  32  35  31  32  50  72  94 102 113 119 128 137 137 144 136 133 122 127 122 106  96  95 101  99  98 109 102
  65  66  71  64  70  73  71  78  69  56  78  74  83  75  82  76  67  73  69  54  49  37  32  34  31  37  41  57  96 100 125 125 132 130 138 137 129 134 129 124 126 124 118 109 101  97  97 104 110 105
  68  69  73  67  71  74  78  74  48  72  77  86  78  79  89  82  82  81  84  73  74  58  58  70  63  73  94 114 119 127 130 130 131 136 135 137 133 136 123 118 109 115 121 119 105 103 103  99 109 114
  77  78  71  67  56  69  78  67  63  68  64  69  76  85  89  95  92  91  88  88  76  77  79  82  94 117 109  98  99 105 110 116 125 132 134 141 137 135 119 106 105 116 116 117 110 108 107 113 111 123
  79  74  67  65  72  78  80  73  79  73  64  70  75  87  85  82  87  61  53  58  67  56  57  55  50  87  95  79  89  98  99  92  84  84 112 121 129 126 117 102  98 100 112 118 119 108 120 120 119 122
  84  74  79  71  69  79  82  75  77  79  69  62  59  72  64  53  49  48  60  45  60  63  66  59  59  69  73  66  72  77  80  81  78  66  78  79  94  97  94  88  79  92  95 102 113 118 116 119 120 121
  87  88  75  77  77  75  83  78  74  77  69  50  45  48  43  41  40  53  21  43  75  38  28  62  64  71  73  84  77  73  55  92  61  63  60  67  72  69  45  29  42  77  96 104 113 113 121 119 118 122
  91  88  77  80  80  78  84  85  72  79  62  45  34  25  21  34  21  74  54  93 105  87  57 106 103  73  52 114 122 105  87 122 123  98 117  94  28   1   2  41  48  68  90 106 115 120 119 106 122 113
  87  84  83  75  77  82  83  84  82  74  69  46  32  15  15  18  16  91  85 108 113 106 112 124 123 116 100 132 138 142 120 136 132 105 127 124  14  15  73  74  70  74  89 103 109 110 112 117 119 115
  90  74  86  75  74  74  77  82  78  77  66  45  39  36   9   8   8  95  90 111 119 113 122 125 123 124 127 138 146 148 128 139 132   8 116  65  87  98 107  92  82  88  94 103  98 107 110 114 121 120
  87  90  77  82  69  72  75  77  77  73  59  63  51  51  39  22  25  29  27   2  33   2 120 118 114 125 132 140 145 144  40 114  99  93 117 111 112 128 117  98  99  97  97 104 103 106 109 112 112 117
  88  84  77  79  76  73  77  75  73  79  69  65  64  59  53  46  39  53  56  58  65  44  20  45  62  69  73  68  72  55  96 111 100 132 131 116 112 119 119 120 107 100  97 100 103 104 111 108 115 117
 106  88  84  76  83  74  78  71  75  67  70  74  67  61  61  60  56  73  80  86  97 100 112 100 114 123 116 117 114 138 121 151 134 119 124 112 114 120 120 116 109 104 106 101  99 106 103 109 111 155
 106  81  84  80  77  71  78  69  68  56  71  75  72  69  67  68  58  63  70  88  92  92 123 135 152 142 147 124 136 134 128 116 113 115 114 106 106 115 117 117 112 106 108  99 103 103 103 109 128 166
 106  97  81  74  72  66  69  74  67  71  69  70  71  71  69  70  65  61  48  69  73  83 101 109 112 111 126 103 116 102 111 105 108 105  99 100 112 117 119 117 110 106 112  95 100  97 100 110 167 170
 110  92  69  74  74  66  71  63  69  67  73  68  67  72  68  63  61  65  62  44  56  68  79  84  96  90  95  77  96 102  99  95  92  92  92 105 108 115 118 114 106 107 105 103  96 106 100 144 168 166
