P2
50 50
255
  86  77  57  63  53  69  75  61  84  44  87  85  92  95  95 103 109 109 107 108 105 116 111 117 113 112 113 105 104 107  99 110 112 109 115 115 117 121 116 124 117 100 117 102 100  95  92  71 105 115
  67  65  40  23  44  59  45  40  32  48  32  55  66  73  82  92  91  93  91  93  93  93  98  95  96 109  99  99  88  82 100 103 101 103 107 105  97  95  92  85  85  74  70  64  74  65  71  79  63  89
  60  16  32  29  34  34  18  20  15  20  16  26  27  38  52  76  79  82  84  79  84  85  87  91  90  92  91  89  87  76  86  94  90  89  88  86  78  76  62  49  36  43  47  59  51  48  58  52  40  60
  26  31  22  17  20  20  16  20  19  18  11   8   8  17  33  44  54  64  75  67  71  72  74  78  79  78  82  87  78  77  71  70  72  61  37  46  46  32  35  27  41  22  44  46  61  79  68  70  90  73
  31  34  25  18  33  27  25  22  33  31  13  12  22  11  15  16  30  34  46  58  55  66  66  69  70  73  71  78  68  62  57  41  66  43  15  19  26  27  32  37  23  50  38  55  61  70  83 111 110 102
  45  42  40  58  40  54  59  43  50  44  44  40  34  22  13  25  23  25  25  47  59  64  61  58  66  73  71  69  71  61  65  69  55  32  40  32  54  41  53  66  63  76  74  79  83  87  93  91  76  96
  63  52  59  62  59  60  63  61  62  48  52  43  37  36  34  36  34  21  25  31  37  47  55  45  52  66  69  63  55  64  55  64  58  55  51  55  44  45  47  57  55  63  73  79  86  93  96 101  96 101
  60  72  72  69  64  61  62  54  26  18   7  16  17  25  32  23  30  26  35  36  42  45  50  63  65  70  64  60  58  55  65  60  65  51  42  32  33  38  42  56  59  66  81  80  81  84  90  98  99 113
  77  74  64  57  15  21   2   3   1   1   1   0   2   6  13  15  23  26  32  40  38  44  46  58  72  78  85  70  75  73  66  54  46  45  28  38  10   2   2   1   1   2  30  43   9  26  64  91  99 105
  73  58  15  38   3  32  61   5   4   2   2  17   7  48  19   3  16  12  27  32  39  57  63  64  82  91  88  92  87  85  65  47  43  27  25  25  46   6   3   1   3  48  45 100  83  10  47  42  82  98
  58  29  33   4  31  72  81  10   8   4  10  12  53  66  32  11   3  16  27  25  42  57  64  83  95 103 106 103  99  82  51  44  23  35  19  38  60   7  16   0  17  27  89 108  99  32  18  58  75  94
  49  26  16  18  10  34  80  79   5   5  11  12  64  53  15   6   6  29  23  20  40  59  86  94 106 122 126 130 109  73  52  38  20  21  23  25  53  59   5   5  31  31 111 103  56  53  61  64  74 100
  38  38  41  41  38  32  28  26  31  23  18  21  28  22  24  13   9  19  22  28  47  68  96 110 122 136 144 139 124  83  49  42  46   5  19  22  31  39  47  73  69  99 119  95  97 104 101 103  98 105
  60  54  54  59  58  52  47  46  41  41  39  30  32  26  32  29  29  24  24  42  55  81 103 116 128 150 145 149 134  93  68  56  47  32  36  37  42  45  50  69  76  97  99 113 115 124 126 123 130 127
  73  71  67  64  70  70  68  68  62  60  51  46  35  29  29  27  24  38  46  62  72  92 114 124 131 160 161 153 139 117  95  75  75  58  42  38  38  48  62  71  79  97 107 111 119 118 124 131 136 142
  79  73  74  74  68  61  59  52  51  48  46  39  41  39  31  21  52  70  74  76  93  98 117 129 138 153 165 154 145 132 126 117  93 104  86  43  41  40  51  66  76  83  89  98 103 116 129 141 144 147
  86  91  83  87  78  68  67  54  59  56  53  46  44  50  55  86  92  89  89  97  99 107 116 129 134 160 164 156 148 142 132 128 128 134 121 106  86  51  45  49  62  60  66  76  95 123 136 146 149 151
  92  96  89  94  89  87  86  74  70  67  60  67  80  87  92 102 103 101 103  99 104 103 114 136 141 154 162 158 147 144 140 139 136 145 144 144 138 125 100  80  96  95  96 118 134 137 147 155 154 154
 104 106 104 114 109 103 106 107 103  88  96 100 104 109 104 106 102 109 106 107 107 104 111 124 139 161 166 154 148 144 145 143 142 143 146 152 150 148 143 138 147 127 144 139 152 151 147 152 155 154
 111 115 116 117 126 123 130 117 115 117 111 113 116 118 115 119 114 108 109 102 106 103 110 125 138 161 163 156 151 144 146 147 141 147 154 155 165 158 150 156 159 163 164 160 160 156 147 158 152 149
 107 113 124 125 120 127 133 132 125 122 126 129 130 127 123 120 118 106 105 111 107 111 114 123 147 171 179 151 152 150 142 146 149 146 149 159 156 166 169 166 165 164 157 167 159 153 146 141 142 145
 103 115 113 119 122 127 134 127 135 132 134 136 129 121 120 115 104  94 100  99 104 105 119 125 142 179 196 159 151 146 146 145 138 140 154 141 154 163 159 158 163 159 164 171 161 152 147 131 141 140
 104 109 109 117 125 128 131 128 132 131 134 131 128 122 108  95  83  85  94  98 105 114 119 131 140 178 175 159 156 147 143 146 140 117 124 131 139 148 159 151 159 158 162 167 162 147 145 140 141 139
 100 107 110 113 122 126 131 130 125 132 133 127 118 110  89  69  78 107 118 107 120 119 123 133 136 164 199 163 155 152 147 139 139 129  81 108 122 133 144 141 156 152 152 155 152 154 146 142 139 130
  99  98 115 120 119 122 122 126 121 124 119 117 111  97  66  79 105 122 131 125 125 124 129 131 139 163 161 226 163 156 150 141 149 147 131  71  90 113 123 132 142 144 155 149 143 145 147 143 140 138
  90  96  98 116 115 114 117 118 120 118 117 108  98  77  50  88 117 125 131 129 123 118 126 134 138 152 146 161 155 152 154 148 158 155 142  89  65  88 109 118 136 137 143 143 141 139 143 137 140 142
  88  97 101 102 106 113 110 110 106 112 110  95  88  57  55  99 115 120 124 124 113 111 122 126 129 130 133 144 143 150 145 144 150 151 151 128  58  72  95 103 124 126 130 138 135 138 139 137 137 135
  85  92  89  94  91 107 103 107 104 104  98  90  69  53  44  99  98 104 103  93  91  96 107 109 116 116 123 134 136 133 133 127 134 139 145 136  70  62  77 102 110 118 127 128 126 135 127 129 129 129
  85  87  88  93  93  97  99  99  94 100  91  80  55  47  43  85  84  93  86  82  83  85  82  98  93 100 106 118 121 118 113 103 112 116 127 118  82  61  65  82  93 103 113 123 126 128 127 129 129 129
  72  82  81  89  89  85  95 100  93  90  78  71  64  67  48  79  73  66  22   6   4  44  81  79  85  86  88 104  93  90  20  31  28  92 102 109 116  77  59  71  88 101 108 118 120 125 126 130 126 124
  83  78  81  84  91  81  89  84  87  87  76  64  76  73  61  37  35  28  30  32  27  38  47  74  81  79  88  88  73  65  63  54  29  46 100 130 130 117  72  74  82  87 100 113 116 117 121 118 116 120
  80  77  79  81  78  78  60  85  87  83  71  83  88  78  56  35  40  37  31  34  41  41  38  34  57  78  63  44  47  56  58  48  64  72 110 132 140 130 116  70  78  84  92 100  93 113 114 114 112 120
  76  77  69  71  74  81  72  74  80  78  76  84  89  80  59  43  41  37  39  41  32  34  34  38  32  34  35  42  52  43  57  69  71  98 124 138 140 137 128 107  78  82  89 100 106 107 109 114 105 111
  73  76  71  69  72  77  75  70  79  77  87  90  81  78  66  48  38  42  38  42  37  30  31  27  32  28  34  35  39  64  73  87 106 117 134 142 146 140 135 125  94  87  93  94 106 107 113 112 100 113
  72  77  59  59  67  65  72  72  81  76  80  88  80  75  52  53  37  33  46  41  36  33  30  26  34  40  35  39  61  81  95 109 109 129 136 140 140 137 131 128 122  97 102  98 102 103 105 100  86 105
  71  71  58  59  63  67  74  74  81  67  88  81  76  80  71  63  52  54  51  46  39  35  40  31  37  34  41  61  75 105 117 120 125 127 137 140 138 133 130 130 126 120 108 104 102 103 102 103 100 112
  58  67  67  62  71  70  74  78  74  72  73  74  78  78  81  77  77  80  72  59  58  40  33  34  37  50  53  71 103 115 121 132 129 134 133 136 136 140 125 119 128 121 110 105 105 107 106 110 106 115
  74  66  65  58  69  70  79  74  64  77  72  77  80  72  88  82  88  86  86  75  83  83  83 101  84  90 104 119 123 129 134 131 129 144 137 133 128 133 127 111 122 122 118 111 112 111 110 107 116 116
  74  71  65  56  64  73  78  66  64  68  72  65  70  82  88  92  90  86  89  81  72  70  75  78  94 121 105  97  98  96 101 113 124 134 139 134 130 131 112  91 115 122 117 114 111 111 109 109 117 120
  73  72  57  61  70  76  76  70  74  59  52  65  74  85  91  91  82  65  52  54  57  65  53  50  57  86  78  74  79  85  92  86  82 108 119 128 126 121 115 112 111 111 114 116 114 112 113 114 108 120
  77  80  61  72  66  72  76  68  80  77  63  63  64  75  64  58  43  40  61  57  61  56  57  46  48  67  69  52  62  77  77  73  58  64  77  93 106 121 104 106  94 107 106 116 111 116 118 117 115 123
  82  78  73  72  77  72  72  77  70  70  61  51  51  54  46  37  46  49  21  72  72  36  42  60  62  67  61  77  66  51  53  86  58  51  64  65  78  87  83  78  95  95 100 114 115 117 111 120 121 121
  81  76  82  76  76  73  81  75  68  68  59  38  32  32  25  34  35  73  49  96 100  73  88 108  93  67  75 106 122 107  93 120 103  87  92  51  51  53  35  51  79 100  96 110 115 119 118 116 119 120
  81  79  78  78  72  77  81  77  70  71  61  38  34  16   3  14  72  93  72 108 113 104 114 119 119 113 113 126 131 133 116 128 119  95 117   3   0   1  39  65  73  86  97 112 117 120 102 117 119 115
  87  79  79  71  72  77  76  78  76  69  60  46  36  20   8   9  29  84   0 106 109  87 113 118 119 120 123 128 136 140 124 127 115  35 113  22  23  51  77  70  79  87 102 107 108 111 116 112 116 120
  85  78  79  67  74  70  74  80  76  68  58  50  50  36  21  18  24  11   3  23  44   7 106 106 103 121 126 123 131 131  77  80  55  27  86  94  96 115 100  89  84  85 100 102 103 103 112 111 115 119
  78  77  76  78  69  73  77  73  72  67  59  49  51  56  48  33  42  55  61  64  41  25  53  71  74  89  91  88  96  94  34 103 104 111 109 114 115 109 112 101  93  93 101 101 103 110 114 108 115 126
  73  80  75  75  76  70  70  68  70  63  65  64  58  55  53  52  45  58  78  87  90 103  92  52  35  69  80  34  74 107  99 122 118 131 129 116 114 109 106 109  96  99  96  99  99 107 106 109 111 157
  81  82  72  73  78  70  66  64  66  62  69  72  62  64  64  58  58  62  82  82 103 121 141 126 118 113 121 115 119 115 119 143 118 106 113 105 103 112 111 109 100 100  94 108  99 101 107 109 128 166
  94  59  72  69  70  67  68  67  65  65  65  69  66  66  64  59  58  42  65  79  77  90 130 122 131 131 130 105 132 112 113 107  96 108 103  97 109 110 111 103 106 100 103  99  99  93 102 105 161 167
