P2
50 50
255
  19  27  26  26  17  24  19  24  24  28  24  37  30  30  30  31  37  27  36  55  61  62  67  67  60  75  68  70  68  74  67  64  54  46  32  33  21  18  17  14  19  19  18  19  15  14  17  17  20  21
  26  31  24  24  26  31  45  42  48  48  43  36  37  39  41  37  43  43  45  49  57  46  57  62  58  62  58  58  60  62  60  58  46  51  31  30  25  25  23  24  25  28  34  30  24  21  18  26  26  27
  28  39  45  45  60  58  70  71  65  63  61  55  46  55  55  55  56  46  58  60  62  61  56  62  60  56  58  51  60  56  56  58  51  46  38  38  41  42  40  37  36  43  39  54  38  41  37  35  40  41
  46  61  67  72  82  84  89  84  83  77  69  58  49  46  52  57  54  52  56  54  58  63  59  58  56  59  50  48  53  55  56  55  47  42  41  41  44  45  43  45  49  56  58  60  64  55  57  48  53  49
  85  90  89  87  97  85  88  90  82  82  70  61  48  50  42  48  51  55  58  59  56  59  60  58  59  57  56  43  51  54  53  47  45  41  44  42  42  41  47  50  59  66  69  70  68  68  64  64  60  69
  86  97  99  99  96  85  88  82  75  74  61  55  54  49  43  45  48  49  54  55  56  60  63  66  71  69  45  38  55  53  47  48  44  45  44  42  39  41  53  58  63  60  71  67  64  68  67  76  75  83
 102 103  96  89  87  85  69  70  65  58  48  41  40  35  41  41  46  46  55  52  56  63  71  80  89  85  75  59  62  58  51  49  47  44  39  41  44  48  55  46  49  58  61  66  58  58  64  73  80  96
 106  95  90  75  70  49  25  22  19  17  15  16  15  27  34  37  41  43  49  56  63  78  84  96  96 102  96  81  72  63  53  55  50  40  39  38  39  40  20  33  33  43  42  36  24  47  54  63  75  96
  92  84  60  26  35  23   9   5   1   5   3   5   7  11  13  34  38  43  49  64  67  75  94  98 106 102 103  89  73  70  53  50  50  42  43  40  36   9   7   4   6   8  14  23  36  42  30  31  58  88
  64  33  30  27  13  12  29  13  18  13   7   7   8  34  19   8  44  45  52  67  77  87  97  98  99  99 103  86  77  70  53  50  48  42  45  42   9   3  13   9   6   4   4   9   6  26  35  46  41  48
  31  32  17   7  18  90  83  27  23   9   5   9   9  37  21   8  36  54  65  73  85  91  90  94  99  99  98  96  82  72  59  53  49  46  49  45  11   4   6   6   3   7   5  33   8   5  15  37  67  63
  25  17  20  19  22  25  44  11  12  10   6   5  21  30  35  45  59  64  79  83  89  87  92  97 102  99 102  95  85  75  64  53  45  52  57  40  28  26  11   7   8   5   7  25  12  11   7   9  27  41
  38  35  34  37  41  30  38  40  36  30  44  46  42  34  40  57  69  77  86  73  81  86  94 101 100 105 107  96  90  72  74  58  43  52  57  54  42  34  31  39  31  28  27  26  29  36  30  25  24  87
  74  74  72  79  80  74  70  61  47  43  35  31  37  38  47  69  77  88  88  83  89  92  98 102 104 111 107 106  95  84  72  74  53  47  51  54  47  40  31  29  28  33  39  44  50  53  55  70  64  68
  92  82  83  79  78  75  63  56  43  36  40  39  38  43  63  82  89  89  87  89  93  98  97 104 111 112 111 114  99  91  86  78  59  54  50  57  54  49  37  36  34  31  37  40  48  59  68  75  78  85
  96  99  95  84  85  66  58  53  43  42  41  43  48  63  81  91 100  95  90  96  96 103 100 103 107 116 115 111 101  93  90  87  73  62  55  55  62  63  44  41  39  41  41  44  48  54  65  72  81  89
 111 105  99  91  76  74  59  55  49  56  58  69  79  89  96 100  97  90  91  97 100 102  98 105 111 117 116 112 104  93  90  89  78  74  59  61  62  66  60  55  43  44  44  46  51  56  59  69  80  89
 122 115 107  97  98  91  89  88  85  88  89  95 104  98  98 100  96  97  94 102  98 100  97 103 114 113 115 115 106  99  84  94  85  84  65  63  70  65  69  80  66  63  56  62  60  65  69  78  88  91
 128 122 116 115 103  99  98  93  96  97 101 108  99 107 102 105  98  87  97 106  92  96 100 102 111 115 114 113 108 100  85  86  90  84  80  64  63  73  75  77  74  81  79  83  74  85  90  89  87  92
  97 122 119 114 117 111 108 104 100 105 104 108 106 102 103  99  96  96 100  90  90  96  99 111 119 121 121 111 103 102 104  87  85  86  75  72  63  74  75  78  92  88  91  95  94  89  90  93  93  99
 126 123 124 122 115 114 115 112 100 108 115 114 108 100 102  98 104 102  87  83  92  99 110 124 123 122 124 117 105 109 106  93  80  81  75  70  67  71  77  84  87  94  89  86  92  91  99  93  92  93
 127 127 126 120 120 118 118 113 117 119 108 108 107 111 106 106 102  79  83  85  96 114 130 128 127 121 122 131 117 105  94 108  97  79  73  58  65  72  75  86  90  96  96  94  97  93  94  99  99 104
 129 126 127 122 116 123 121 119 125 120 120 115 117 107 103  95  83  73 103 106 121 130 129 128 129 122 123 138 120  95  97  96 110 105  87  85  59  69  74  88  92  97 101  96  95  99  92  98  97  99
 128 127 128 127 123 125 124 125 120 119 121 111 114 110 106  88  58 116 126 125 123 128 126 128 121 119 115 111 105  97  90  93  99 111 106  97  90  67  73  78  91  97  99  90  92  95  97  96  93  92
 129 126 127 123 126 122 126 122 123 117 112 119 116 105  87  63 125 134 128 129 122 125 112 111 104  99  97  87  90  83  83  84  91  95 107 106 122  58  69  74  94  96  92  96  99  97 102  98  96 102
 129 107 124 126 128 124 127 121 125 119 121 119  99  98  76  61 135 130 131 123 120 109 100  94  96  99  93  82  82  75  73  76  91  85  95  98 118  96  68  75  95  93  94  99  97  97 100  96  97 102
 131 127 126 107 119 124 125 118 113 115 113  97 103  90  66  97 135 128 116 107  92  86  75  75  76  75  71  72  71  66  79  75  80  89  95  99 126 118  66  77  86  94  95  94  98  97  96  96 105  98
 125 127 127 128 118 121 126 125 122 115 106 108  92  83  72  69 129 117  94  34   6   5   5   9  16  62  63  61  58  65  58  38  33  67  75  85 124 126  62  75  84  89  93  98  96  93  97  96 103 104
 129 127 126 128 126 127 123 120 119 114 110 106 100  92  82  44  98  88  55  21  16  21  22  36  45  47  63  58  71  37  25  15  16  16  28  61  99  63  67  82  93  91  94  93  96  98 102  99 101 108
 131 126 127 126 127 123 127 114 119 107 105 102  96  96  88  60  51  67  48  35  33  44  41  47  47  46  53  50  47  34  35  31  29  24  27  56  73  50  69  79  88  88  89  97 100  97  99 102  96 106
 130 127 129 124 126 127 115 119 106 110 106 102 101 102  99  73  41  25  36  30  44  49  42  47  42  41  36  31  33  33  37  36  33  29  29  31  35  66  81  85  90  92  92  94  92  99  99 100 100  99
 128 133 130 126 118 125 117 105 111 106  95 104 102 112 112 103  73  66  51  47  49  59  68  66  66  67  58  56  65  54  56  45  39  31  31  39  57  80  86  85  90  93  89  90  91  99  88  97 108 118
 128 132 133 127 127 121 122 117  96 102 106 102 105 111 106 110 108  99  94  89  79  79  77  69  75  58  65  75  64  60  55  57  59  57  69  66  77  89  89  86  85  89  95  87  90  98  96  98 100 115
 130 133 127 129 125 123 115 115 108 103 104  98 108 109 111 111 100 101  94  91  84  85  70  65  61  62  59  71  66  61  54  47  56  60  73  75  74  84  87  91  89  92  92  88  86  91  92  97 104 107
 132 133 128 126 115 117 116 111  99 102 100 108 115 116 108 106  98  94  73  77  78  78  65  69  69  66  62  76  61  66  67  55  62  51  42  67  76  75  89  89  92  90  92  79  79  89  96 100 107 103
 130 118 126 121 114 121 115 108 100 107 111 111 113 113 114  99  91  93  75  65  59  84  68  74  73  63  66  65  60  61  53  60  60  60  63  59  66  70  86  88  92  87  86  88  89  83  89 100 104 115
 132 127 124 123 124 121 113 113 113 108 113 117 112 105  97 101  72  87  84  89  88  89  83  82  73  67  61  70  74  70  67  61  64  64  67  64  47  62  44  81  76  83  82  83  88  87  91 100 102 115
 128 122 125 121 117 119 115 115 114 104 114 105 103 102  74  86  94  84  73  90  97 105  90  85  87  92  95  85  88  81  62  44  63  72  72  67  59  55  61  61  67  68  81  81  87  86  90  92 103 111
 122 104 113 116 121 117 113 115 105 112 112  96  90  65  78  75  88  88 101  94  92  60  54  50  47  53  58  61  46  42  34  32  39  41  66  69  67  63  53  63  56  69  74  85  85  87  88  90 109 114
 122 125 117 119 123 119 111 111 113 103  91  86  57  58  71  76  88  92  91  68  45  42  41  39  33  35  38  33  33  33  31  31  32  34  37  65  70  67  60  54  46  51  53  76  90  98  91  97 107 116
 123 121 120 122 118 118 121 111 109 104  76  67  67  52  82  74  80  75  52  33  36  40  37  38  32  37  39  35  37  31  34  35  34  36  35  37  47  74  73  61  51  47  46  74  94 100  95  97 118 115
 128 126 124 114 121 111 121 113 103  96  73  64  52  63  63  56  44  35  30  35  36  42  38  36  35  36  40  35  28  35  35  31  45  42  38  30  34  52  63  48  57  50  55  71  92  94  99  98 118 123
 126 125 113 123 111 121 114 106  90  78  66  60  48  36  33  31  26  23  29  30  28  28  24  27  26  23  19  16  18  16  26  17  23  28  27  28  24  25  29  31  43  57  50  73  87  89 105 107 117 128
 125 125 115 113 113 122 113 103  96  81  65  42  27   8  21  31  43  47  54  47  51  44  42  39  36  40  30  45  35  37  38  33  36  39  31  26  24  11   4  17  28  44  49  64  87  95 105 102 119 127
 119 127 124 116 115 116 111 101  72  80  42  30  25  28  40  51  59  64  64  66  65  59  57  60  72  65  61  76  74  58  62  51  72  54  49  53  44  43  24  25  28  39  53  65  82  91 105 107 122 124
 127 125 122 119 108 108 111  92  80  60  44  43  43  46  44  44  48  59  64  68  78  80  85  94 102  78  70  73  88  95  80  64  59  51  45  47  46  42  41  36  35  45  48  52  81  89 110 114 126 125
 121 120 121 117 114 106 102  93  80  56  57  48  56  75  67  55  45  51  55  62  65  69  69  76  76  69  55  57  65  56  68  53  54  52  50  47  47  61  65  39  43  48  50  68  74  96 108 117 125 126
 108 118 120 116 114 105 104  86  72  58  57  63  68  81  89  80  66  46  42  41  53  52  55  57  55  51  48  46  46  47  43  41  41  42  44  57  67  80  69  48  52  47  53  64  78  89 104 118 127 128
 114 113 117 115 105 102  90  90  81  68  66  77  80  96  95  90  87  67  65  49  37  42  43  44  42  40  35  41  40  38  40  42  46  54  70  75  75  73  70  58  59  57  62  71  65  89 100 108 125 128
 117 109 109 111  98  92  87  87  71  74  76  85  83  92  99  88  73  74  77  70  60  59  54  43  42  42  39  42  38  39  47  46  48  57  66  71  85  74  73  64  64  61  62  65  77  87  96 103 123 122
