P2
50 50
255
  21  26  28  25  23  24  24  25  29  27  25  36  29  31  29  29  42  28  38  49  55  61  63  65  59  70  72  67  70  72  61  61  55  45  32  29  21  20  15  18  24  17  18  16  12  13  13  17  23  17
  26  22  24  28  36  50  41  51  55  55  49  36  35  41  49  36  40  42  50  58  68  50  64  57  63  57  55  51  63  61  59  57  48  44  35  31  28  24  19  26  25  27  31  28  23  22  22  23  26  25
  39  34  50  56  51  61  71  85  72  66  59  55  47  53  62  54  54  47  54  58  62  58  64  63  62  60  56  47  59  59  54  55  52  43  36  39  42  38  39  37  36  45  39  49  39  40  38  36  30  40
  55  64  67  77  78  74  87  84  86  75  67  58  50  49  47  55  55  54  56  53  58  61  56  58  61  59  53  50  54  54  53  54  42  41  39  38  45  45  43  44  47  54  58  64  62  54  52  52  46  57
  71  93  96  91  97  90  85  90  84  74  69  59  49  48  42  45  49  49  58  60  58  59  53  55  55  56  55  40  55  53  52  43  43  39  45  43  40  38  46  48  57  67  70  63  67  72  70  63  59  63
  98 101  95  92  87  92  83  69  73  66  59  52  48  44  43  39  44  48  57  56  56  64  60  69  70  68  46  44  59  54  49  45  46  46  44  41  37  43  53  53  59  61  72  65  64  68  69  77  78  82
 108  99  92  79  85  74  71  64  58  44  37  40  36  37  38  41  44  47  50  62  55  69  77  80  88  88  75  60  67  60  50  49  46  39  43  41  45  47  47  53  48  56  57  60  59  60  66  69  83  94
 102  89  88  64  55  25  25  22  13  11  11  15  14  20  35  34  40  43  51  55  67  80  91  94 100 101  90  83  72  62  54  49  45  39  38  38  38  38  16  34  41  40  39  27  32  45  57  66  81  97
  91  61  38  28  34  18   8   5  36   8   7   9   8  13  10  37  39  45  47  61  65  84  94 101 102  97 103  88  70  65  54  50  48  42  44  37  37  10   7   5   8  10  19  29  36  37  25  45  64  95
  47  25  35  17   6  27  29  12   9   6   6   6  10  37  17   8  44  42  54  71  79  89  94  94 101 100  97  87  79  62  53  52  44  41  43  42   6   3   8   9   6   3   4   7  15  30  41  44  29  76
  34  19   8   7  22  96  84  22  20   4  11   8  11  36  21  11  61  56  64  77  85  90  88  95  99  96  99  93  87  70  55  47  51  45  49  46  10   4   7   5   7   9   5  28   7   6  23  38  69  46
  26  24  27  33  27  25  27  20  12   6  11  16  27  37  32  53  63  63  83  77  81  87  94  98 101 106 105  93  80  70  62  50  46  51  58  32  29  23   7   5   9   6  10  23  13   8  10  19  34  57
  39  39  38  45  51  45  48  38  38  42  43  36  38  37  41  58  68  74  88  73  88  88  94 101  99 105 107  99  84  78  73  54  48  51  55  50  35  31  33  38  31  27  26  25  24  28  27  15  15  55
  80  80  74  74  77  69  61  57  47  39  38  35  38  34  52  72  79  87  86  81  88  98  95 105 106 113 113 101  95  87  75  69  53  47  54  54  51  36  35  29  32  36  42  43  43  51  55  65  60  50
  90  86  87  85  84  69  63  51  44  41  39  39  40  43  72  75  81  90  89  88  96 101  97 105 114 112 111 106 100  90  78  68  65  51  55  56  50  48  36  32  30  34  35  41  47  59  67  81  77  87
 103  99  96  86  67  63  54  48  39  44  38  50  58  77  85  95  97  91  87  94  99 106 100 102 114 116 112 113 100  96  90  75  68  62  57  56  58  47  42  42  37  36  43  47  49  53  68  76  81  94
 112 105  95  88  81  73  59  66  59  66  65  74  89  92  96 104  95  90  94 101 102 101 102 105 114 115 117 111 101  92  90  86  75  68  59  62  62  67  59  51  45  42  48  45  48  58  63  66  83  90
 121 115 110  95  95  86  90  89  88  85  87  95  98  99  99  97  92  94  98 106  98  97  97 105 114 112 115 105 106  94  87  89  91  80  63  58  66  65  70  73  64  59  59  59  58  60  65  80  88  94
 121 118 114 113 102 103  95  97 100 103 104 111 105 102 103 104  99  90 100  98  92  97  99 101 113 115 112 109 106  97  88  79  85  81  70  64  59  72  79  79  77  81  83  78  76  81  87  88  83  94
 116 123 122 113 111 108 111 106 104 106 109 106 105 100 102 100  97 102 100  87  94  99  98 113 116 112 114 108 104  99  95  87  86  83  76  63  61  75  73  81  88  85  87  87  90  90  88  94  93  92
 129 124 122 117 116 113 114 113 108 109 111 114 106 102 106  99 100  99  82  83  90 105 107 128 121 111 120 119 108 105 106  93  82  75  72  68  68  73  75  85  88  91  92  90  94  90  94  93  96 107
 127 125 122 122 117 120 118 117 111 109 108 110 104 109  99  99  87  71  84  91 101 121 129 126 124 117 126 133  99  97  98 106  92  75  69  61  65  72  83  85  92  99  99  95  94  93  91  98  98 103
 128 126 124 117 126 124 119 119 119 116 118 115 111 107 102  94  64  99 108 110 123 128 128 131 127 122 127 132 109  92  93 102 108 101  88  67  62  69  76  88  92 100 100  97  95  95  94  97  99 100
 125 129 125 124 123 121 123 121 119 115 103 117 113 110  92  73 109 123 128 121 125 127 119 122 117 115 116 102 103  88  88  87 106 108 104  99  66  67  72  84  92  95  99  91  91  94  94  94  93  92
 127 120 125 124 122 124 124 123 122 120 116 113 108  97  67  72 133 133 129 129 117 115 107 112 104 102  94  84  87  73  83  82  99  98 102 112 115  64  72  76  94  94  95  91  97  97  99  94  97 100
 128 118 110 126 127 124 123 115 121 121 120 106 104  94  66 113 134 128 127 121 111  99  92  92  94  92  87  78  77  73  79  85  85  92  94  99 126  49  70  78  92  94  96 101  97  99  95 101  95 105
 127 126 126 122 123 120 122 122 115 115 110 105  95  82  69 122 133 123 110  92  86  75  71  70  75  74  73  72  68  70  88  85  87  85  97 101 127  69  72  74  87  96  90  99  97  95  97 101 102  93
 129 124 127 126 127 128 122 123 117 113 113 104  87  84  73 100 123 103  63  10   7   6   5  12  21  62  62  55  62  64  40  23  38  59  73  94 126  66  72  81  89  91  97  95  96 104  94 100 102  99
 129 126 126 127 125 126 123 119 114 106 102 104  97  89  73  48  94  67  41  21  21  22  29  44  43  59  60  60  69  33  20  16  13  19  43  66 110  62  73  82  88  87  92  94  97 101 100  97 109 106
 129 128 131 123 124 126 121 118 114 104 107 104 100  90  79  44  66  59  42  32  38  46  45  49  43  45  47  50  36  37  31  31  27  28  41  63  48  60  81  81  87  94  88  97  93 101 102 106  99 105
 130 130 126 122 119 118 122 111 113 103 108  99 100 100 100  68  42  29  33  36  45  51  46  44  41  40  36  31  37  34  37  35  32  30  36  28  39  70  81  90  87  91  94  94  95  97  99 102  99 108
 132 133 131 127 124 115 114 110 109 106 104 112 104 106 106  94  72  63  54  50  58  63  65  63  67  64  54  63  58  57  52  44  36  33  32  45  67  84  85  87  90  90  91  91  94  99  96 101 106 106
 134 131 128 124 122 115 117 113 103 102 104  98 105 106 107 111 102  99  83  88  78  85  59  67  73  61  67  67  58  59  58  60  56  58  64  67  82  86  85  90  88  92  88  87  92  94  95  98 104 115
 129 130 123 124 117 111 114 102  93 100 104 104 113 116 109 106  99 100  86  84  78  79  70  74  73  66  71  63  63  62  58  54  58  63  73  81  80  85  88  86  86  97  87  86  86  94  90 104 108 117
 132 129 126 122 122 117 114 101 102 104 102 112 114 110 111 106  98  91  77  86  71  64  48  68  69  67  69  67  64  73  62  47  53  57  52  74  77  84  92  90  88  85  90  83  86  86  94  99 100 108
 119 122 124 120 124 114 111 104 113 111 115 122 106 114  98  99  86  81  59  75  72  86  67  71  64  60  69  65  66  57  61  59  60  49  58  59  63  75  87  91  88  86  81  86  85  87  95 104 111 112
 126 124 121 123 120 113 111 115 113 108 108 116 112 102  97  93  89  87  75  81  88  88  85  85  75  58  64  69  73  76  64  68  61  65  63  46  44  63  73  71  85  81  88  90  80  86  97  92 113 106
 121 108 121 121 119 115 114 116 106 113 103  99  91  56  86  75  91  87  73  98  92  85  80  86  86  90  83  82  83  66  54  55  61  69  69  64  48  59  56  65  66  86  82  79  81  88  99  97 111 113
 124 115 115 121 121 115 114 111 111 102  99  93  76  72  88  76  90  95  96  92  80  55  47  46  49  54  58  49  41  39  35  35  37  54  71  70  56  61  58  57  63  70  77  86  90  87  91  89 111 117
 123 120 120 121 119 119 119 106 113 104  76  46  80  85  74  80  91  90  73  54  44  41  42  39  32  43  35  36  31  32  31  30  34  33  47  64  73  60  59  49  49  65  75  83  94  90  88  99 108 111
 118 124 119 116 119 121 117 107 107  96  79  66  62  61  79  85  68  56  44  35  38  39  39  36  31  38  33  31  31  32  34  37  35  34  36  39  67  73  65  56  50  53  71  87  91 100  92 101 113 106
 128 122 123 118 112 120 120 105  88  71  65  53  61  59  64  55  38  28  29  38  38  41  33  33  35  35  32  34  39  33  41  45  43  40  35  30  39  56  59  43  60  53  67  85  90  99 100 101 114 123
 123 115 117 109 115 115 114 100  88  64  63  50  34  27  31  28  22  24  30  34  31  29  21  22  23  20  14  15  20  16  19  16  25  26  26  25  25  36  30  33  54  52  56  77  92  97 101 105 122 122
 124 122 108 112 124 114 109  95  89  71  53  30  13  13  43  41  41  48  47  46  53  44  45  40  41  42  33  47  43  41  36  32  55  28  32  26  21   8   9  24  31  44  59  76  85  90 106 110 119 130
 124 122 122 110 108 111 102  87  79  58  30  28  32  29  49  53  53  64  62  70  69  60  62  62  67  67  53  90  77  62  54  52  60  48  50  47  41  31  22  24  34  44  53  82  88  99 107 100 122 124
 122 121 114 110 115 105  97  90  72  54  44  43  53  51  47  47  59  68  65  79  82  89  87 100  91  78  55  86  83  90  66  59  57  44  46  51  44  38  34  28  44  47  56  74  84 102 110 113 123 127
 116 119 118 115 112 100 100  85  60  52  53  54  69  71  70  47  43  53  54  66  70  73  71  74  61  60  51  57  58  66  54  51  52  50  44  47  57  70  45  36  44  50  53  68  87 102 110 124 125 126
 115 118 109 119 106 100  92  80  68  57  66  65  79  89  92  78  57  46  43  44  49  52  52  56  48  49  40  48  44  49  45  40  45  45  51  65  81  71  57  51  47  48  60  73  88 100 106 116 127 125
 113 113 108 106  99  94  90  81  73  70  73  79  87  99  92  85  83  68  62  46  42  44  47  45  41  40  38  36  35  45  35  44  46  65  69  75  77  69  65  57  55  60  62  77  85  92 105 120 128 126
 114 111 106 102  97  86  86  75  71  77  87  90  87  89  92  78  83  75  67  66  59  55  47  43  40  37  42  42  38  43  48  52  57  64  69  83  78  70  70  64  70  59  68  69  84  94 107 112 123 122
