P2
50 50
255
  24  24  27  23  19  18  22  17  24  25  28  24  32  31  31  27  42  29  31  58  66  64  65  72  55  71  65  66  62  63  64  61  59  48  35  27  21  19  15  17  22  24  20  17  13  17  19  18  20  22
  24  28  24  22  18  26  30  38  30  33  31  39  36  37  30  40  42  32  53  52  57  51  62  62  53  61  59  62  62  62  62  57  52  45  36  30  30  27  22  24  25  29  31  31  27  26  21  27  25  23
  38  34  41  46  43  61  71  57  69  62  58  50  50  49  54  51  51  40  56  61  61  62  50  63  56  55  56  51  58  58  56  57  48  42  45  37  41  39  40  37  37  45  43  55  46  42  45  34  38  41
  53  70  59  57  75  83  85  83  83  73  63  57  53  52  60  60  53  54  57  53  61  62  59  58  60  59  52  48  50  55  55  57  47  42  44  42  44  46  46  44  53  58  55  65  63  56  61  58  64  57
  63  72  77  95  88  88  89  86  81  83  66  60  51  45  42  49  54  56  56  53  57  61  61  56  55  57  53  53  51  56  52  47  47  43  43  44  41  42  49  53  57  70  70  68  69  68  68  60  66  71
  90  92  96  94  89  85  88  85  80  75  65  57  54  46  43  45  49  50  55  53  59  61  60  67  69  63  42  41  57  52  49  46  46  48  43  40  38  43  55  52  60  63  70  62  63  65  70  76  80  87
  96 108  90  93  87  89  75  78  69  64  52  44  39  42  42  42  42  46  53  55  56  66  71  82  83  82  65  55  67  60  51  51  46  42  40  41  44  48  52  52  50  55  56  61  57  59  63  70  74  97
 105 105  91  80  79  64  54  40  27  20  18  16  25  29  36  39  44  45  50  53  62  75  87  97 101  97  85  76  70  64  53  49  48  46  39  40  42  44  20  31  32  42  39  35  22  42  49  64  76  95
  97  90  78  55  27  29  22  10   5   6   5   6   8  12  25  34  41  44  52  62  67  81  97 101 108 103 100  83  74  62  53  50  49  41  42  37  42  11   5   6   6  12  16  23  42  42  40  26  58  86
  81  54  20  35  19  12   9  14  12  10  18   7   6  30  11  10  42  46  53  68  73  81  92 101  98 100 101  88  77  70  51  51  50  40  48  39   7   3  17  11   5   5   4   8   7  22  31  46  44  44
  36  34  27  10  10  64  50  17  11   6   4  11   9  43  19   9  51  54  62  75  81  92  86  97  96  98  97  93  85  73  57  50  51  54  47  44   9   3   5   7   1   9   7  37  15   5  16  35  74  69
  28  18  12  11  19  45  70  15  20  14  10   5  18  23  27  33  47  63  75  85  89  87  91  99 103 100 104  92  85  76  61  55  49  48  56  39  26  27  14   4   7   5   8  24  15  10   8  11  25  43
  27  29  31  32  31  32  30  24  31  21  34  42  38  32  36  50  66  74  79  80  79  85  95 102 100 104 105  97  90  73  71  62  48  48  57  49  41  32  33  36  34  28  27  28  29  34  33  27  25  74
  48  63  62  64  61  68  63  61  51  49  39  33  31  43  43  63  74  81  88  86  87  92  94 106 105 110 105 102  94  82  72  73  57  51  57  54  49  41  32  28  29  34  37  44  47  52  62  71  69  68
  85  79  72  76  79  73  68  57  50  40  36  38  42  43  53  79  77  94  90  92  90  96  99 102 111 112 111 107 102  90  86  76  67  55  49  56  52  46  39  34  36  32  34  40  46  60  67  78  81  89
  96  90  87  85  81  72  61  57  45  44  38  40  48  56  75  84  92  93  87  93  96 103 102 104 114 111 114 107 103  96  88  87  72  59  52  56  59  57  48  38  37  41  41  44  47  54  65  71  85  88
 109 103  93  89  75  66  57  53  52  49  50  58  71  87  92 102  97  88  88  95  99 105  96 107 109 114 117 104 102  97  92  88  82  72  59  59  58  60  59  61  43  45  45  48  52  53  58  68  77  90
 118 111  98  95  84  75  80  77  76  80  85  88  98  98  96 104  97  94  93 100 100 100  98 102 108 116 117 109 100  97  90  93  85  87  70  63  65  66  70  75  66  65  65  66  64  67  71  76  88  90
 124 121 110 106 100  95  88  91  96  97  98  98 102 100 101 102 108  92  97 103  97  97 100 104 109 111 113 107 109  98  86  87  85  84  76  66  68  73  81  81  83  81  92  78  78  85  89  85  92  95
 124 122 116 112 111 102  94 102 104 104 104 112 107 103 112 102  97  98 102  97  93  98  99 109 116 112 111 111 103 105 103  85  87  92  75  70  64  68  80  79  87  89  89  92  92  91  92  93  94 102
 119 127 123 120 109 110 110 114 105 115 106 116 103 105 105 102 102  97  99  84  93  96 107 117 124 120 122 107 111 105 112  96  83  77  80  69  66  70  76  80  88  92  97  90  95  90  97  97  93  99
 127 123 126 120 116 113 114 116 114 111 118 116 107 115 108 113 102  91  75  87  97 102 122 127 126 118 123 128 121 101  89 106 103  81  73  58  62  68  73  83  90 100  95  97  92  93  94  95 103 102
 132 130 123 126 122 126 119 122 121 114 111 110 116 103 103 103  87  62  96 100 106 128 128 126 128 122 124 138 125 103  97  90 109 109  89  79  58  68  73  87  92 101 105  96 100  96  97  95  96  98
 129 123 124 122 123 124 120 124 120 123 120 112 111 116  98  96  59 109 118 121 124 128 126 129 123 122 122 113 109 101  86  91  99 108 101 101  96  68  73  86  90  98 102  87  93  92 100  92  96  93
 129 127 127 127 124 125 123 124 123 122 114 115 115 107  91  73 115 129 127 123 123 126 114 110 110 100 102  95  92  79  80  75 100  99 102 109 122  77  72  74  90  95  98  98  96  97 101  99  93  99
 128 118 124 129 126 122 124 122 120 122 123 116 103  98  79  63 129 132 130 126 117 106 103  89 101  94  93  86  81  74  76  78  96  88  97  98 118 118  63  73  88  92  98  97  95  96 100 100  97 102
 130 122 125 128 124 126 127 122 121 114 119 112 103  94  64  66 135 130 118 118 102  93  86  84  81  87  81  82  73  72  76  77  83  87  80  96 117 122  66  78  81  94  97  92  98  98  97  97 103 103
 120 127 130 131 102 124 122 123 117 114 115 107  95  85  70  63 134 122  98  62  18  11  18  27  50  61  65  61  57  60  64  56  62  62  70  87 118 124  64  76  85  90  92  88  95  97 102  93 102 104
 126 127 126 130 124 128 126 122 118 109 109 105  95  92  82  49 102  97  68  18  16  11  15  20  39  38  68  54  66  51  24  10  10  13  22  56  86 108  66  81  87  88  87  90  93 100 101  99 102 102
 130 123 127 129 128 127 115 123 122 103 105 118  97  93  88  51  81  77  49  30  32  36  37  46  53  48  60  51  59  37  35  29  27  25  30  44  78  47  69  83  87  94  88  98  93  93 100 104 100 105
 130 126 131 127 129 129 125 123 117 110 110 102 100 103 102  71  46  41  40  36  34  50  48  46  42  41  41  33  30  31  34  35  36  30  31  42  32  53  76  86  94  97  89  92  91  94  98 100 105  98
 133 133 129 114 123 120 120 110 114 111 101 102 107 109 104  93  63  42  30  38  48  62  66  62  69  50  57  47  54  51  55  46  36  29  27  35  50  66  83  88  90  93  91  92  89  98  93 105 102 107
 132 134 131 129 123 122 120 114 110 107 106 103 103 114 105 109 101  93  87  76  79  69  82  69  73  72  68  72  71  66  66  59  58  58  65  61  75  82  87  92  88  93  94  87  87  98  98  98 102 108
 129 134 124 128 126 123 123 111 107 102 103 103 111 111 113 108 105 103  96  90  79  92  73  65  71  73  62  58  67  59  56  48  57  59  69  71  72  88  91  92  83  93  90  83  88  88  95  98 107 105
 128 132 129 129 122 123 119 109 101 104 101 107 114 116 110 105 105  93  93  86  74  81  79  60  68  60  66  70  66  61  69  55  53  57  57  65  79  85  88  92  95  88  94  88  89  88  94  97  99 105
 132 128 129 124 120 119 122 108 100 102 103 106 115 113 111 103  95  96  82  65  78  78  66  59  77  68  57  73  63  58  61  58  65  61  61  59  59  73  85  88  94  90  83  90  83  81  91  99 105 112
 132 123 126 123 122 123 114 113 105 107 110 115 119 111 107 101  89  90  97  70  70  81  79  83  81  65  62  73  68  66  67  65  64  61  68  61  54  48  37  82  72  85  87  85  89  86  89  99 103 109
 132 126 123 122 118 122 109 112 118 106 114 114 105  97 104  94  88  72  83  92  95  84  94  89  93  95  85  73  79  85  68  50  64  70  73  68  59  59  58  50  70  72  79  84  88  87  87 102  94 109
 124 111 114 118 122 122 114 114 109 111 107  87  93  80  82  81  88  85 100  91  97  81  62  57  50  56  72  68  68  45  45  38  41  42  68  71  64  59  55  61  48  68  69  82  88  92  86  92  93 105
 124 125 118 116 122 118 120 108 105 113 102  97  86  69  83  69  81  93  99  88  67  43  43  40  41  45  41  41  35  35  32  33  33  36  41  59  69  73  61  57  51  51  56  73  88  95  92  97  99 115
 126 123 121 120 120 115 115 115 105 101  92  68  76  63  66  86  88  83  70  50  37  40  38  41  38  36  37  35  34  29  34  33  36  37  36  39  48  74  79  65  60  50  54  71  87  97 102  96 111 117
 124 126 120 121 121 119 120 114 107 101  85  78  61  63  74  67  59  51  37  36  34  39  40  44  33  36  43  36  34  36  36  38  42  43  40  34  34  51  61  58  58  60  56  68  87  95 102 101 105 113
 130 127 123 117 120 120 116 114  98  77  63  62  59  55  42  42  34  28  26  34  33  39  33  31  26  31  26  25  27  27  33  33  35  32  27  28  27  29  34  38  40  53  53  69  87  95  96 108 113 122
 126 123 120 118 114 116 114 112 102  89  76  62  35  25  16  21  17  35  37  50  36  33  25  24  26  25  27  31  28  30  25  25  30  27  27  22  18  12   6  12  26  38  42  62  82  95  95 104 102 123
 128 121 122 114 109 110 111 104  88  85  60  42  25  13  31  54  57  51  62  63  57  52  52  57  64  56  63  51  68  53  50  52  48  59  47  54  45  37  25  23  26  31  51  57  81  95 103 110 107 123
 124 126 123 123 111 117 109 100  74  75  49  39  35  46  42  48  54  53  70  70  79  80  76  88  87 113  81  70  93  94  89  75  65  54  50  50  49  42  36  34  35  40  50  57  72  86 110 107 111 124
 124 120 123 122 109 108 103  93  84  69  53  44  47  59  57  54  48  50  61  66  69  76  79  82  87  75  61  52  65  69  73  54  52  54  56  50  50  53  70  45  39  47  47  62  70  85 100 110 124 123
 121 119 120 116 111 106 100  98  83  63  54  58  62  68  84  83  58  46  49  50  56  57  61  58  63  59  53  46  51  50  51  47  47  45  47  49  65  88  71  58  48  54  53  63  75  88 100 106 116 131
 107 114 114 114 107 109 100  93  84  65  63  69  76  87  96  90  86  71  55  48  39  43  48  48  48  43  42  42  39  38  38  42  43  48  66  73  83  77  73  66  59  57  58  65  74  87  93 106 120 130
 113 116 112 111 105 100  92  90  85  72  77  79  89  88  97  92  83  86  79  74  62  54  49  44  42  44  40  37  40  37  39  48  56  58  62  72  86  79  76  70  65  68  59  65  74  84  88 105 120 123
