P2
50 50
255
  14  30  24  23  19  28  24  22  28  28  24  39  29  33  33  32  41  28  39  54  60  52  64  64  60  72  64  67  65  69  63  57  47  45  27  34  23  18  14  12  21  20  19  17  15  15  18  22  22  25
  28  29  25  29  31  35  45  45  54  48  51  36  40  38  42  42  39  33  45  58  64  48  67  59  65  57  61  59  62  64  62  58  50  39  34  31  29  28  28  27  27  27  31  27  25  23  19  24  20  29
  31  46  46  52  58  61  71  81  78  68  59  58  47  57  58  54  50  51  57  59  61  58  62  62  54  60  56  49  56  58  58  51  51  40  42  34  36  43  40  33  38  41  46  55  47  43  41  31  38  36
  52  57  70  75  80  78  89  87  87  73  70  57  52  51  51  55  55  51  57  56  60  58  60  56  60  59  55  51  54  59  53  55  44  43  41  39  44  45  44  48  53  54  63  62  59  49  55  54  60  53
  84  90  93  86  99  94  85  92  88  75  69  60  50  46  45  48  50  53  54  57  59  59  58  56  62  61  55  43  52  53  48  43  45  42  44  42  39  41  45  54  60  66  73  65  68  74  72  62  73  75
  96  98  99  96  92  85  86  78  73  67  63  54  52  44  42  43  44  51  53  57  60  64  57  71  72  66  41  44  55  55  47  48  49  48  40  36  46  50  49  60  60  65  69  63  63  67  67  77  86  82
 114 103  96  83  82  76  75  63  63  51  45  39  36  37  39  41  42  47  53  56  56  67  76  83  87  92  81  62  67  59  52  49  49  43  40  42  48  51  46  53  45  55  56  59  58  59  68  74  88 102
 106  97  89  73  60  44  23  24  21  10  13  19  15  23  37  35  42  45  50  56  61  81  88 102 103 102  92  87  68  62  53  51  47  42  39  38  42  31  23  31  41  42  40  33  24  50  58  64  85 102
  94  75  49  24  36  28   8   5  34   7   6   9   6  14  12  36  42  47  50  58  69  82  98 100 106 102 100  87  76  62  52  48  47  43  43  38  28   5   3   5   4  10  15  31  36  43  34  40  68 103
  60  27  36  26  10  15  49  13  14   7   4   5   6  38  17   7  46  47  56  74  77  93  96  96 101  99  99  86  77  67  54  49  45  44  45  34   8   4  14   7   5   5   5   9   9  32  45  53  28  69
  35  25  10   8  20  98  93  23  19   8   8   7   8  36  19  12  56  58  66  78  90  86  88  99 103 102  95  95  78  65  59  50  50  49  46  19  11   4   5   3  12   9   9  28   7   6  25  44  75  61
  30  28  21  25  23  24  32  22   8   6   9  10  25  33  35  53  58  73  81  83  84  92  96  96 103 102 104  92  87  73  63  50  49  53  56  35  31  29  20  11   9   5  21  19  12   9   8   8  30  46
  43  39  34  41  47  48  47  40  42  42  45  37  36  36  42  61  71  76  93  76  88  88  95 104  96 110 111  95  90  77  73  61  50  51  53  50  40  30  30  34  31  28  28  31  34  38  39  25  30  27
  80  75  74  75  77  71  69  57  46  41  36  34  39  42  49  71  77  87  92  85  91  94  98 102 109 118 111 104  95  83  72  70  55  48  52  54  50  38  30  29  28  36  39  44  51  60  76  64  73  72
  92  86  88  81  81  69  64  57  46  43  35  39  41  45  67  85  89  89  85  94  92  98  98 103 112 113 112 106  99  92  86  70  69  54  51  53  58  46  40  36  33  34  35  44  50  59  74  80  85  97
 107 101  92  87  81  67  57  52  46  47  42  49  61  73  82  95  98  94  89  97  99 108 101 107 116 118 116 113 102  90  87  83  73  65  57  58  61  62  46  41  36  40  42  45  50  57  61  77  85  93
 116 111  98  92  77  66  63  63  62  63  65  76  91  97  99 100  97  96  93 100 103  99 105 104 113 120 111 109 103  93  93  87  78  73  54  59  64  65  63  58  47  47  49  52  54  57  65  76  87  94
 121 116 107 102  98  91  91  88  83  88  90  96 101 100 102 103  98  94  95 105  96 102 102 100 118 113 118 108 104  97  86  89  88  74  69  62  67  69  74  77  71  69  65  68  73  75  79  80  92  95
 124 123 112 116 105 103 102 101 102 100 107 111 102 108  99 103  98  92 101  98  95  97  98 109 116 111 116 107 109 102  91  83  88  88  76  59  58  73  77  82  81  79  80  87  78  81  92  90  92  96
  77 123 124 119 114 107 109 105 102 105 110 111 104 104 105 105 100  99 103  93  90  98 100 114 120 120 111 108 100 105  99  90  87  81  81  67  70  72  76  80  89  91  89  89  92  94  93  95 104 103
 128 128 123 116 119 114 111 113 107 109 104 108 107 102 105 100 103  97  82  86  94 106 117 126 124 117 121 116 116 107 105  94  83  72  68  64  72  73  73  84  92  99  96  95  95  92 105  94  96 105
 128 124 121 123 118 123 121 111 120 114 107 109 110 110 104 107  95  73  93  95 102 124 131 127 123 120 131 135 118  99 103 113 100  81  73  57  66  73  83  90  92  96 102  93  95  96  99  98 100 103
 127 123 127 123 123 124 116 119 116 121 120 112 113 107 104  93  68 100 110 107 125 128 133 133 129 123 124 125 109  89  95  95 118 103  91  73  62  67  81  91  96 102  98  96  92  99  99  95 100 106
 124 129 127 128 124 124 126 124 123 119 118 105 117 109  99  76 114 125 130 123 124 130 120 122 110 112 109 100 103  89  88  92 103 108 103 109  93  66  75  80  90  95  97  94  96 100  88  88  96  98
 129 124 130 128 125 125 128 122 119 121 121 120 105  97  74  57 130 134 130 131 120 112 107 102 107 102  95  83  80  80  81  85  95  95 100 116 121  59  67  82  93  97  95  99  98  97 103  96  98 101
 133 116 123 124 124 126 125 121 123 120 117 103 103  96  70 105 137 129 128 121 110 107  91  94  93  93  83  78  78  72  83  87  87  91 100  89 125  59  71  83  93  98  95 100 100 100 100 100 103 105
 124 128 128 124 110 124 121 124 109 119 112  99 100  83  67 106 135 123 111  89  88  71  71  63  71  73  73  64  64  61  82  74  77  88  94 101 131  91  65  85  88  93  94  96  98  93  96  98 102 107
 124 125 125 130 124 122 124 124 121 112 110 107  95  81  74  94 124 103  64  12   7   6   6  16  22  60  61  56  66  68  10   8   7  23  57  81 124  65  72  85  88  88  92  99  96  98 100  95 105 103
 131 124 128 125 129 123 124 123 119 109 105 109 100  95  89  43  94  76  44  26  25  30  41  48  48  53  60  58  69  36  22  20  18  20  35  64  93  63  75  78  90  87  87  90 101 100 101 102 101 107
 128 126 132 128 130 126 123 123 113 106 112 107  98 100  92  52  42  59  40  36  37  50  46  47  43  42  45  42  36  31  31  33  31  28  36  57  40  74  78  88  92  93  91  92  96 102 102 102  98 111
 134 133 128 121 126 124 121 116 120 109 105 103 102 108 101  77  52  29  30  36  50  53  52  49  46  44  39  36  38  40  43  34  34  25  24  26  56  74  82  87  95  92  93  93  92  95  91 104 104 103
 130 131 132 130 125 122 120 109 111 103 109 110 107 111 111 100  92  72  70  53  69  63  70  66  65  69  64  68  66  60  59  49  44  43  49  52  70  85  89  85  93  93  90  96  95  97 103 105 107 114
 132 135 130 127 128 120 120 110 105 103 106 103 115 107 102 108 109 103  92  93  78  91  69  67  64  68  63  79  61  58  51  61  60  58  73  69  78  87  88  88  89  95  92  89  94  92  95 100 105 114
 131 134 127 129 117 123 118 111 102 103 107 105 111 119 108 106 103 103  92  79  83  82  71  72  65  63  67  70  62  63  60  48  63  62  68  83  75  86  93  85  90  93  95  90  90  93  98  97 104 116
 134 128 127 128 120 115 120 107 102 108 101 111 116 113 114 111 100  92  91  86  75  59  54  75  85  72  77  68  61  72  59  56  64  52  62  69  77  86  87  92  87  87  88  81  86  85  98 101 105 118
 131 121 124 120 121 120 116 107 102 112 106 117 111 113  95 100  89  74  53  77  77  71  80  82  72  60  66  60  64  58  58  64  65  63  61  51  49  60  89  89  92  80  86  88  83  87  94 101 110 117
 130 125 125 118 124 113 106 116 113 110 111 114 111 103  98  94  70  86  55  92  87  92  90  94  77  72  67  70  82  89  73  68  65  67  63  51  53  55  64  75  77  88  85  87  85  88  89 106 113 107
 123 114 121 118 120 118 111 116 108 109 104 100  84  77  88  66  95  80  73  98 100  92  76  66  78  85  94  91  74  60  37  43  52  70  73  63  56  55  60  56  69  67  81  90  90  90 105  93 111 118
 125 121 118 118 123 115 111 110 113 103 104  91  80  60  81  73  95  98  96  87  71  57  47  47  45  46  49  50  40  36  32  32  37  41  60  77  65  57  48  51  58  67  81  86  90  89  88  94 111 113
 124 123 117 120 120 116 116 110 111  99  88  78  78  83  73  77  95  95  77  49  40  40  42  36  36  41  36  34  32  29  32  34  32  35  37  57  70  72  61  52  48  59  65  82  92  96  96 104 110 117
 125 127 121 123 122 119 117 108 103  96  86  60  69  74  81  75  66  58  40  34  38  41  40  38  36  36  37  32  32  36  36  36  40  37  34  35  58  76  66  59  54  57  57  85  97 100  90 105 120 117
 128 124 123 114 117 116 117 109 103  83  67  63  61  59  55  47  38  28  31  35  39  41  39  33  33  34  27  27  31  31  34  40  43  38  34  28  31  49  50  49  55  51  60  88  93  96  98 105 117 125
 124 123 117 116 109 117 118 103  96  78  67  54  35  24  22  19  13  25  27  23  24  17  16  16  13  11  10  10  13  12  13  14  19  18  23  20  23  21  17  28  41  50  57  73  93  93 102 111 121 127
 125 121 120 118 118 111 116  98  86  76  57  29  23  11  44  42  58  56  68  56  55  57  50  46  53  53  33  50  42  49  41  36  39  46  43  33  34  22   9  20  32  47  55  80  88 102 109 111 123 127
 125 121 121 120 111 108 105  97  82  61  46  32  31  42  47  55  57  63  62  81  78  73  75  85  90  96  69  90  96  82  81  61  62  54  51  59  46  35  28  27  39  47  52  75  89 101 111 112 125 130
 118 120 121 112 113 109 105  92  78  57  52  46  48  59  52  49  53  56  65  70  77  79  91  91  92  69  56  64  75  93  73  60  53  51  51  54  46  49  49  35  41  47  51  70  86 104 113 124 121 129
 118 120 117 116 109 107 102  89  71  58  58  52  69  82  85  64  49  45  50  55  59  64  59  63  63  51  50  57  53  56  53  45  49  54  46  52  68  82  56  46  45  51  57  69  85 100 105 120 127 129
 110 118 113 115 105 105  95  92  78  67  65  65  81  94  88  91  78  55  46  42  42  46  50  52  48  47  40  40  41  44  42  38  45  44  58  77  85  75  69  55  53  54  63  75  81 100 111 107 128 128
 115 112 113 107 100  96  90  92  76  73  77  83  83  96  93  92  83  78  67  61  52  46  45  43  42  38  36  34  39  36  41  54  64  63  72  74  85  76  69  72  65  58  66  70  88  92 103 113 124 125
 109 107 102 103  96  89  87  78  73  75  87  89  89  89  96  81  84  76  74  67  57  58  53  59  41  40  40  40  36  33  46  47  54  63  70  83  82  61  71  65  68  63  65  72  82  93 102 111 121 125
