P2
50 50
255
  32  25  25  21  17  22  17  20  18  21  27  25  25  31  30  25  38  34  39  67  68  61  63  70  59  67  67  68  68  60  59  57  51  45  24  30  22  14  13  21  21  22  23  24  16  18  23  26  27  25
  18  25  30  24  23  25  28  30  29  28  28  38  35  39  29  28  46  33  46  56  63  52  68  59  65  58  63  56  57  60  63  61  51  38  36  27  29  28  28  27  31  36  35  32  31  29  30  23  29  25
  28  26  24  25  41  48  50  61  66  58  58  44  44  44  51  46  50  45  58  59  65  61  53  63  54  54  56  55  58  56  56  55  53  39  38  36  40  45  38  39  41  56  53  55  55  49  43  55  45  46
  39  37  45  57  53  76  73  85  79  71  68  60  52  52  57  55  53  55  58  55  60  59  61  55  57  56  54  52  53  57  53  56  46  43  44  44  44  42  45  46  51  59  61  66  60  63  59  64  58  46
  54  73  69  76  72  83  87  87  84  77  68  60  53  50  49  51  57  53  56  54  59  59  60  54  59  56  51  45  48  54  46  41  47  45  45  43  40  45  52  53  61  64  73  68  67  70  68  71  72  84
  72  85 101  94  92  91  87  91  85  74  65  56  53  47  45  46  46  51  54  56  54  65  62  65  67  62  42  45  59  54  49  46  46  45  42  39  44  47  50  59  59  67  69  62  65  60  64  74  84  96
  96 106  96  91  96  89  87  77  74  64  61  45  50  45  44  44  41  46  54  53  50  61  71  79  81  85  77  62  64  60  49  51  45  40  39  42  45  50  45  34  34  39  53  46  56  64  60  70  86  97
 106 106  99  85  86  72  67  56  46  33  28  24  27  31  34  39  42  46  55  54  63  74  87  94 101  99  90  81  71  61  54  46  45  41  42  39  41  27  28  31  32  41  39  41  44  26  44  56  80 104
 107  97  89  70  50  24  28  19   8   7   6   2   7  13  21  37  37  45  52  61  67  78  95 102 105 101 104  84  74  67  55  54  45  43  41  37  25   2   4   5   6   5   9  11  30  33  43  29  48  90
  98  77  44  27  34  16   9   7  16  14  11   6   7  28  13  10  41  47  51  70  80  84  95  98  98 101 100  91  80  70  50  50  45  44  43  38   7   3   9   7   4   5   5  10   6  18  36  53  56  46
  61  27  38  21   8  25  68  14  10   9   4  11  10  39  22   8  52  54  61  77  84  92  91  95  96 102  97  94  85  71  58  50  47  49  53  34  13   5   6   6  13   6  12  37   9   5  12  25  52  70
  38  27  14   8  13  58  95  14  24  18   5   6  10  25  24  31  40  64  74  83  84  85  86  99 101 102 101  90  81  71  65  57  51  52  56  45  29  33  22  17  17  20  16  21  21  20  17  12  18  26
  29  27  26  31  30  28  27  25  26  22  25  31  39  33  38  47  71  71  84  77  84  87  97 104  97 107 107  97  92  70  72  59  53  48  56  53  46  33  29  32  35  41  40  43  39  45  50  46  42  48
  45  40  40  46  57  61  62  60  56  47  38  34  35  36  41  60  80  75  87  81  85  87  93 104 107 112 112 104 101  81  72  68  60  45  55  60  51  45  33  30  31  30  38  45  46  58  69  77  76  85
  87  79  76  76  77  77  68  63  51  43  37  42  38  43  48  71  81  92  87  92  90 101  98  99 110 114 110 107 102  92  84  76  71  60  54  54  60  50  41  37  35  36  39  44  47  56  68  76  87  95
 102  91  91  86  86  81  67  61  49  43  45  43  40  57  74  82  89  93  88  91  95 106 106 102 110 117 118 116 104  93  85  84  76  68  58  58  58  61  56  43  38  39  43  47  50  52  63  71  87  92
 110 107  99  94  71  72  62  54  45  47  48  56  70  77  92  97  91  93  91  96 100 104  99 107 107 118 114 110 104 101  89  87  80  83  68  61  69  68  66  67  55  50  52  56  55  60  71  76  88  95
 112 113 101  97  82  85  76  74  73  77  71  87  89  99  98 101  98  97  93  99 104 101 101 107 106 112 114 109 104  97  87  94  91  85  68  64  62  75  73  74  74  76  70  72  70  71  82  96  92  97
 126 123 114 112 102  97  99  91  94  97  98 102 104 102 101 102 101  92  91 109  97  97 101  99 114 109 110 109 106 104  94  87  89  84  79  69  67  70  77  78  85  89  87  85  81  87  87  91  95  97
 127 120 114 119 115 107 104 102 103 104 102 106 107 109 106 101  97  96 104 101  93  92  98 102 112 112 116 116 102 102 104  85  79  84  79  65  70  70  72  77  92  96  91  94  89  93  99  92  99 104
 106 120 125 126 121 110 112 107 103 106 113 109 111 107 102 107 102 100  98  87  87 100 108 122 128 121 122 113 117 104 102 101  84  81  74  66  65  76  74  82  92  96  94  92  99  96  99 104 106 102
 130 129 125 118 119 113 112 113 116 116 114 119 105 104 105 104 102  94  76  87  93 105 127 130 124 122 125 136 122 102  97 104 106  88  74  56  59  72  79  88  93 104 104 101 100  93  92  95  99 102
 127 128 125 124 122 125 121 117 107 119 104 112 113 110 106 103  96  69  99 106 108 128 130 129 127 126 124 135 123  97  91  92 106 109  97  84  63  64  74  84  91  97  99  93  96 100 100 101  98  97
 128 126 127 126 119 125 125 123 119 122 119 115 114 109 106  96  67 104 118 125 126 125 127 128 128 110 114  97 102  94  84  87  95 102 108 112 114  60  70  87  85  99  97 101  99  99 101  97  96 100
 126 130 130 125 124 119 125 125 123 116 120 114 119 104  89  76 103 135 131 127 129 122 108 106 107 101  99  90  87  85  77  79  92  91  98  96 119 113  67  76  88  91  96  94  97  97  99 102  94 104
 130 128 120 127 127 128 127 126 122 123 120 119 109 101  90  67 127 131 130 123 120 102  96  93  96  97  92  80  81  74  74  84  94  87  89  91 115 125  64  79  82  91  97  94 101 101 102 101 102 102
 131 129 125 114 130 125 114 129 107 115 122 111 102  99  83  66 129 134 122 106  93  85  71  73  68  74  72  70  65  65  72  65  68  88  84  89 116 130  62  71  84  90  94  97 101 102 100  99 101 104
 134 127 127 128 120 119 126 127 123 117 107 105 100  92  81  68 121 122  94  62   6   6   5   6  15  26  65  57  60  67  29   6   7   8  22  60  86 122  68  76  90  87  94  94  91 106  96 107 109 106
 124 128 125 128 130 126 126 123 123 118 101 104 105 100  87  68  96 100  68  27  22  18  17  31  44  45  68  54  64  46  37  23  16  21  22  46  64  84  67  75  84  87  92  93  94  99  99 106 100 112
 129 132 121 131 128 126 122 121 125 105 104 104  99  91  93  75  45  75  59  38  31  33  47  45  47  40  44  44  46  33  34  31  34  28  30  41  53  44  72  94  93  92  94  95  94  95  96 102  99 102
 132 131 131 131 115 128 127 120 116 114 106 100  99 101 109  92  58  38  35  36  39  47  49  49  49  44  40  36  35  38  36  37  37  28  21  24  39  59  79  87  89  91  90  91  92  96  93  97 102 106
 133 132 133 130 122 118 114 115 116 114 106 102 112 107 109 106  87  65  57  45  55  60  68  68  59  76  71  64  70  60  60  57  55  52  42  57  64  74  84  87  92  90  96  91  89  97  94  96 104 109
 132 132 134 134 128 123 116 117 113 103 112 106 101 109 107 106 106 102  93  88  93  81  87  55  75  72  64  68  74  60  54  59  59  59  66  77  71  85  89  89  89  92  97  89  91  89  93  98 104 107
 127 134 132 128 129 125 123 120 104 104 103 106 106 114 116 116 113 104  99  87  86  84  79  68  80  76  61  77  70  65  52  56  44  66  57  69  80  78  85  97  91  90  89  91  84  91  91 101  99 108
 131 132 133 128 128 122 121 116 108 104 105 105 109 116 115 110 105 101 101  80  86  74  70  51  72  76  68  70  68  63  71  64  57  59  55  62  67  81  88  89  91  89  90  88  84  88  91  96 104 119
 136 131 130 126 123 122 108 119 107 101 104 112 114 121 115  96 104  94  83  68  84  84  85  76  77  72  62  68  64  65  56  61  57  56  59  59  56  46  52  85  81  95  85  85  91  85  91 101 103 108
 126 132 126 123 122 123 114 116 114 117 109 116 116 114 107 102  98  80  89  64  87  91  88  87  87  79  62  62  70  81  87  65  66  65  74  69  57  55  61  57  71  74  85  84  85  84  86 101  98 107
 131 127 127 123 119 119 116 114 116 116 115 109 102  94 112  96  86  97  79  74 100  96  86  86  77  91  92  92  88  76  59  42  47  43  65  76  62  57  55  60  54  67  65  81  85  91  88  94  90 107
 132 122  91 116 116 122 119 107 114 106 109 107  96  96  71  66  87  97 101  88  92  85  62  47  46  49  48  48  47  38  34  32  32  39  42  65  72  67  62  52  51  66  64  74  82 101  91  95 102 109
 130 121 123 119 116 121 116 112 108 111 108  87  86  72  72  77  76  87  96  84  61  42  43  39  38  37  39  39  34  33  34  31  32  33  35  40  47  70  76  59  63  56  60  69  79  92 101  92 103 120
 127 125 116 116 119 118 112 121 108 109 110  76  71  71  68  83  78  82  63  43  36  38  40  36  39  35  39  38  33  31  33  36  36  44  39  35  33  48  67  62  54  59  53  67  86  96 101 100 104 110
 130 126 129 122 121 123 116 120 109 106  94  70  64  55  60  54  59  42  37  31  34  40  41  38  37  34  38  29  35  32  35  36  39  38  39  33  29  29  35  34  38  56  55  65  81  94  97 107 113 123
 128 125 123 110 120 112 120 118 105  92  72  69  68  56  30  33  28  24  24  30  26  24  23  19  17  15  14  10  12  13  11  12  15  17  23  20  15  17  11  14  25  36  42  59  77  91  96 113 107 119
 131 122 126 119 114 120 114 111 103  96  79  65  47  27   8  26  39  47  44  55  51  55  55  47  46  49  49  36  49  49  43  45  39  54  45  54  42  39  29  17  19  31  44  50  77  89 101 106 101 127
 130 126 126 122 112 112 116 109 101  85  78  45  34  27  33  36  49  58  62  64  76  70  75  67  70  76  95  72  81  96  88  76  72  54  56  54  55  46  36  38  29  40  45  57  74  89 109 108 114 123
 130 127 126 125 118  96 111 106 100  86  64  44  42  40  50  44  47  47  67  68  66  74  79  91  90  92  71  62  60  78  94  68  56  57  57  55  51  44  63  55  40  42  53  52  71  84 101 104 120 125
 126 124 119 122 113 109 108 104  98  77  60  56  47  57  76  73  64  47  47  53  60  68  70  66  60  62  59  52  54  52  55  52  45  46  47  47  57  65  76  64  49  45  53  60  70  83 101 108 111 129
 125 106 121 120 116 109 106 103  94  80  61  62  63  75  88  89  89  76  46  45  45  44  49  56  58  49  45  40  40  44  44  44  38  45  48  64  77  77  80  77  54  60  55  59  72  84  94 105 116 127
 118 108 110 116 113 112 103 100  92  84  70  69  78  74  97  97  90  87  72  70  56  49  40  45  46  43  37  39  34  37  39  42  50  64  63  68  74  91  67  77  64  66  61  67  72  81  96 106 108 124
 119 114 114 112 106 106  96  89  85  74  71  76  87  92  92  99  91  84  81  81  70  57  60  51  47  42  45  36  39  39  35  40  47  56  60  70  79  81  80  71  71  71  65  65  67  84  89  91 102 116
