P2
50 50
255
  49  22  26  24  21  14  20  17  20  19  24  30  33  28  27  34  29  26  43  44  62  66  68  72  61  71  67  65  66  71  64  62  58  44  32  29  23  17  16  13  20  19  21  16  17  15  17  20  19  20
  18  25  30  25  24  25  28  33  40  36  38  28  27  40  36  36  39  30  30  44  54  59  62  68  57  62  62  58  61  64  65  53  57  54  30  27  24  21  20  25  25  27  28  25  19  23  20  24  28  25
  27  37  34  45  35  52  64  68  76  61  58  44  46  55  50  43  46  44  49  53  67  58  67  68  62  63  56  57  62  58  58  56  54  43  38  34  38  40  34  38  35  40  33  49  41  36  34  38  32  41
  39  51  63  55  63  78  79  82  83  64  69  57  54  51  54  54  60  52  49  60  63  60  61  56  57  57  57  50  57  58  55  56  51  44  44  42  43  46  42  44  50  50  60  60  61  51  56  57  61  54
  67  62  73  76  91  95  92  91  85  85  72  64  55  47  49  49  56  49  56  54  56  61  61  55  59  54  52  63  51  55  49  45  45  44  48  44  41  43  44  53  60  68  71  67  63  69  69  62  64  69
  94  90  97  98 100  92  89  87  81  79  67  61  53  52  44  46  43  50  53  57  59  60  63  68  64  63  41  38  56  50  49  47  47  46  39  39  41  44  52  53  58  67  67  69  63  68  67  72  86  83
 102  98 107  93  91  85  87  77  76  67  65  47  44  38  43  43  42  43  50  55  55  61  71  77  82  83  66  66  66  61  52  49  50  45  41  40  44  50  53  51  50  61  61  60  54  61  67  73  81 100
 111 102  96  91  75  76  66  60  32  13  21  16  17  29  36  40  44  44  47  53  63  70  90  94 101  98  88  74  75  62  54  56  47  43  41  40  41  36  22  30  42  49  41  25  41  53  61  69  81 107
 107  98  86  67  36  27  28  14  11   5   6   6   5  13  14  34  38  46  47  59  68  73  94 100 108 102 101  83  70  65  55  51  48  40  43  41  34  13   9   4   9  18  21  31  39  41  29  47  71 101
  95  76  42  35  32  13  11   8  10  11   4  11   7  30  19   9  41  47  51  63  73  84  94  97 100 101 102  87  80  68  52  51  42  43  43  40   7   2  13   7   6   4   5   8  12  35  44  52  30  81
  62  30  35  19   7  29  61  21  15  12   5   8   8  43  28  10   8  55  62  73  79  92  92  95 104  99 101  89  85  71  58  50  52  49  50  44  10   6   7   5  10  10   7  27   8   6  27  50  82  58
  36  25  16   9  18  23  44  46  20  25   7   7   7  24  29  32  37  60  71  83  85  86  89 100  99 101  98  93  82  75  64  49  48  49  55  29  27  23  12   3   6   6  19  18  13   9  12  13  30  47
  36  39  33  33  38  35  39  33  28  27  33  38  38  33  38  44  69  77  77  81  83  88  91 103 101 106 102  95  85  79  74  61  48  51  55  51  42  31  32  37  26  30  30  30  33  35  30  22  23  27
  66  70  67  70  77  78  67  64  57  47  36  34  28  34  40  57  71  81  81  82  86  93  94 102 104 110 112 103  96  79  77  70  59  51  55  55  55  34  34  28  30  34  40  48  54  56  71  71  71  70
  92  86  83  75  78  78  70  62  53  44  42  41  39  40  53  73  85  89  85  89  96  95 102 102 110 117 108 110 101  89  81  71  64  55  51  57  54  44  39  33  32  35  38  42  53  58  67  77  79  87
 108  96  97  94  85  75  66  63  50  45  43  42  44  65  77  85  91  98  93  91  97 104 104  97 111 116 118 112 104  98  86  83  74  66  59  56  60  60  46  40  39  40  43  45  51  56  66  76  82  95
 117 107  94  93  82  71  61  58  52  56  57  59  75  85  96  95 101  94  94  96 102 100  97 110 108 119 117 110 104  95  90  90  80  77  60  59  63  67  61  54  47  45  46  47  53  55  68  73  84  93
 125 119 108 103  96  89  88  85  79  81  86  87 102 101 101 104 108  97  91 102 104 101 100  99 110 110 115 107 107  95  83  89  89  81  73  61  67  66  73  74  64  70  61  70  68  71  81  78  92  91
 126 126 115 117 112 104  97  90  97  99 101 111 107 106 100 102  99  91  97 104  94  97 101 104 112 115 109 111 113 103  82  81  89  86  76  65  64  72  76  82  83  85  85  86  81  86  86  93  92  96
 130 124 124 124 117 114 109 106 102 107 104 110 115 109 108 105  97  98 102  92  94  93 100 111 114 119 116 114 103 106 104  85  85  89  82  70  66  72  71  80  86  96  92  87  91  97  92 101 104 102
 130 126 126 124 120 114 112 117 106 113 119 109 112 109  91 102 101 102  97  88  91  96 110 125 126 121 121 117 111 108 107 101  82  77  74  70  66  77  80  81  87 101  93  91  97  95  98  96  95 105
 130 131 124 124 124 119 119 116 120 112 116 112 103 107 109 102 102  85  73  91  97 114 124 129 124 124 123 133 122 103  94 104 100  84  75  55  67  72  82  91  96 100 101  94  96  97  96 101 100 102
 127 129 124 125 123 123 124 123 118 119 114 109 117 112 106 102  85  66 102 108 111 131 131 131 131 126 123 137 122  97  89  93 110 111  92  84  54  71  74  85  91 101  99  93  92  97  95  96  95 101
 130 125 128 126 125 125 124 124 122 123 115 107 117 113 106  90  65 116 123 127 125 127 127 125 118 120 115 101  99  89  87  88  97 108 104 106 105  70  74  81  89 101 101  96  96 101  96  83  96  97
 131 129 127 127 125 123 127 124 121 123 115 115 110 108  94  75 112 135 131 126 125 121 108 103 110 104  98  87  90  83  81  79  96  94 102 106 115  58  71  77  90  91  96  95  88  97 101 101  96 102
 127 130 113 125 129 129 126 126 113 122 119 113 106 102  85  65 130 132 130 121 119 106  96  94  97  92  92  83  81  75  75  83  89  88  95  91 116 111  69  76  89  96  97  97  97  99 101 103 101 105
 128 130 126 126 125 125 119 124 116 121 112 118 106  96  79  66 133 127 116 101  84  75  69  66  70  78  72  70  69  64  80  74  79  76  92  99 125 116  66  74  83  88  99  95 100  95  92  99 103 102
 124 129 129 129 124 125 126 124 124 119 114 106 108  91  77  63 121 116  85  29   8   5   4   9  18  32  61  56  62  70  24  18   8  13  49  67 118 112  71  75  87  86  93  98  93 101 100  99 104 105
 129 132 130 129 130 126 125 123 123 111 109 104 102  98  92  62  93  91  60  25  23  22  26  38  48  49  68  57  70  40  30  24  19  18  24  50  79  52  74  77  88  95  91  95  95  99 103 104  98 105
 130 130 127 130 126 124 127 124 124 117 105 109 114 101  92  73  48  66  49  37  38  45  53  50  44  42  44  44  44  30  33  30  32  27  33  48  56  59  75  87  91  94  91  96  95  97 103 103  97 107
 134 132 131 129 124 124 122 122 113 115 104 110 101  99  97  91  61  38  32  33  42  55  55  55  45  45  41  33  38  43  41  36  34  25  22  27  41  70  85  87  93  92  92  92  89  97  97 101 106 108
 134 131 133 130 125 126 120 119 113 112 106 107 114 110 119 107  92  74  74  53  59  66  73  68  78  68  69  59  71  65  59  57  50  44  50  53  61  83  86  94  94  96  90  87  91  96  97 102 105 113
 130 134 131 131 126 125 120 122 116 104  98 105  99 116 106 110 108 104  96  88  87  82  74  68  75  67  64  75  68  60  55  57  58  58  71  67  77  85  92  88  89  96  93  89  89  91  95 102 113 124
 131 133 132 126 127 120 123 120 106  96 104 105 110 112 110 112 102 104  96  78  87  85  74  49  72  65  65  71  58  56  64  50  61  61  54  78  78  81  91  95  91  89  91  88  88  91  99  97 108 112
 135 131 130 127 126 120 117 117 104 101 102 103 115 118 108 105 101  92  84  72  80  75  67  60  75  66  66  72  62  76  62  60  66  64  59  64  76  85  90  94  93  85  91  84  84  87  93  99 109 119
 130 130 124 125 123 125 118 112 108 107 110 112 123 119 118  98 102  88  91  74  71  84  68  85  74  63  65  71  64  62  57  64  62  68  62  52  48  61  80  81  91  91  84  92  82  87  93 101 104 103
 132 129 126 125 120 124 110 108 116 119 110 112 117 110 105  96  91  83  82  91  89  87  91  86  94  77  68  65  73  82  73  61  66  69  65  68  55  42  60  76  61  84  85  86  91  86 100 101 107 107
 131 121 118 123 117 126 121 111 115 108 117 106 101  99  65  88  88  85  95  96 102  93  71  67  67  78  95  91  77  52  47  39  46  62  74  68  54  62  70  65  70  71  81  77  87  89  90  89 113 122
 130 126 118 111 122 122 119 117 109 116 104 102  75  78  81  78  77  90 102  91  81  53  48  44  41  48  46  52  46  38  32  36  32  38  50  71  71  64  57  55  43  67  58  84  90  91  87  97 105 115
 130 124 122 113 123 118 115 119 107 107 104  72  43  87  77  72  83  90  81  62  43  38  41  41  38  38  34  36  31  31  33  31  34  36  34  44  62  77  65  57  50  52  58  75  95  96  92 101 119 114
 129 124 126 123 123 123 122 117 112 106  98  81  64  59  65  77  75  66  46  34  33  36  38  37  34  37  38  33  36  33  32  39  41  34  35  32  38  71  68  52  59  55  57  74  90  97 101 102 118 121
 126 129 125 123 117 117 121 121 107  95  73  68  62  53  58  46  41  32  26  30  35  39  37  35  28  33  36  30  29  30  33  37  43  38  33  32  27  34  55  43  49  57  52  78  91  96 105 106 113 123
 129 126 126 114 112 118 115 112 104 102  74  71  44  28  22  22  16  26  24  28  24  24  17  16  18  16  10  17  15  12  16  11  19  25  22  17  18  13  16  22  32  46  61  70  93  92 102 104 120 127
 129 125 123 117 114 117 117 106  95  88  67  46  29  16  25  45  49  57  61  63  56  53  51  55  58  56  46  54  53  49  49  42  45  51  45  49  42  33  14  18  27  39  50  71  89  98 111 115 119 123
 125 125 125 121 120 109 107 105  96  78  57  38  35  36  43  47  59  59  65  64  81  78  82  79  88  97  81  78  95  89  72  82  61  57  56  52  51  44  32  28  34  42  55  65  85  92 110 108 114 128
 133 119 119 121 117 112 110 104  97  78  57  48  45  56  58  47  47  51  61  57  69  81  93  87  88  72  63  61  67  74  81  50  55  53  48  50  49  50  58  40  42  45  47  68  84 102 108 121 126 129
 124 118 117 117 115 109 106 101  72  67  56  55  60  74  80  88  60  47  45  50  54  61  62  64  61  56  54  45  50  51  49  44  46  47  48  50  65  81  62  52  48  50  51  64  82  96 103 116 126 125
 116 110 118 109 113 110 101  96  87  77  65  69  72  87  96  92  91  70  54  44  42  46  45  52  46  45  39  44  43  43  42  36  44  48  62  75  81  77  68  58  56  57  64  72  75  92 102 117 125 129
 114 112 113 110 108 104  96  90  89  71  74  76  86  86  93  97  91  81  77  75  61  52  52  44  46  43  40  39  38  36  42  52  53  57  69  79  85  73  71  66  65  64  65  63  75  92 104 110 125 123
 117 111 109 101 101  96  86  87  77  79  79  87  94  90  89  93  74  82  77  73  64  59  54  49  43  41  40  35  40  42  41  46  53  61  58  75  86  78  72  72  69  62  65  67  81  90  97  82 119 121
