P2
50 50
255
  27  20  25  28  24  16  19  19  23  22  24  29  30  29  27  37  26  22  38  52  60  63  66  69  60  74  68  68  63  68  64  63  56  45  33  30  20  21  17  14  23  21  16  19  15  13  22  19  19  25
  23  27  28  22  23  26  30  37  44  34  40  31  29  39  35  34  40  31  36  43  53  54  64  64  62  62  55  54  62  61  62  54  49  51  34  31  28  27  26  26  27  26  31  28  25  23  23  26  25  30
  33  35  36  40  44  59  67  67  68  59  61  50  45  55  51  43  51  46  48  60  69  61  60  61  62  59  52  52  59  58  54  60  49  44  43  36  38  43  41  39  35  42  44  54  46  41  41  39  37  39
  47  60  60  56  67  86  79  78  82  67  66  63  52  50  53  54  56  51  51  53  57  60  63  59  52  59  52  46  53  55  55  55  48  41  40  38  45  46  43  46  51  55  61  64  63  56  54  57  61  54
  71  66  81  86  92  88  91  92  89  85  71  64  53  45  45  50  53  56  58  55  56  59  59  55  54  55  55  55  53  55  51  45  43  43  44  41  41  38  46  52  56  68  71  68  70  69  67  58  70  73
  92  92  99  99  95  91  89  91  81  78  68  62  49  46  43  45  48  50  57  53  55  60  61  64  68  65  45  36  55  52  52  46  45  45  45  39  41  45  52  54  57  67  68  64  63  59  70  71  80  81
  98  95  99  89  91  89  83  76  71  73  62  51  41  41  41  43  42  45  55  54  56  63  69  84  83  84  66  63  64  55  54  47  48  40  41  38  44  50  54  48  42  53  54  58  56  63  64  67  75  95
 113 101  99  93  78  70  58  40  28  16  16  19  17  29  36  37  42  42  50  60  61  68  85  93 101  97  87  78  75  64  55  48  48  43  40  41  41  42  16  32  31  40  38  33  24  39  50  65  76  98
 103  93  86  64  27  30  26  12   8   4   5   5   6  11  13  33  38  45  46  63  63  73  93  97 104 103 103  88  77  67  54  49  47  39  42  40  40   9   5   5   6   9  13  26  35  42  41  26  58  89
  87  64  31  35  28  13   9   9  12  11   5   8   5  36  19   7  43  46  48  67  76  86  93  98  98  99  97  86  80  73  52  54  47  41  45  43   8   3  15  11   5   5   4   8   9  21  36  51  46  46
  52  31  38  12   7  36  76  21  11   9   4   7   7  36  27   8   7  55  60  73  80  89  86  94  99 100 100  99  81  71  60  50  48  47  49  47   8   5   6   8   5   7   7  36  11   7  15  29  76  67
  34  21  14  10  19  25  77  27  18  22   7   7   8  25  30  31  47  63  73  82  80  87  90  99  98 103 102  97  82  78  69  57  48  50  55  42  27  32  17  11   5   8  11  20  15  10   9   9  21  32
  34  33  33  32  35  35  34  35  28  27  33  34  38  35  34  43  69  74  80  78  78  83  91  98  98 108 103  98  94  77  73  65  50  49  59  50  43  32  28  31  31  30  29  30  33  38  39  37  28  43
  59  65  65  68  74  82  69  64  53  45  38  37  34  37  41  55  73  86  87  81  83  93  93 106 104 107 107 104  96  84  73  68  57  51  52  52  52  41  31  26  29  30  35  41  50  58  62  70  69  75
  91  85  83  82  79  77  66  63  50  44  42  38  38  47  51  72  86  86  88  93  94  95  98  98 108 113 110 112  99  93  87  75  69  55  46  55  55  48  38  34  33  33  36  38  46  54  69  76  78  90
  94  96  91  91  83  73  63  60  53  45  44  41  41  63  73  87  94  96  91  96  98  99 103  99 108 113 118 109 104  96  88  82  78  62  56  57  59  59  45  39  37  38  41  45  51  55  66  72  83  89
 117 111  98  93  74  72  63  60  46  51  47  59  71  82  93  99  97  95  97  96 103 102  98 104 108 116 108 111  99  96  91  88  82  79  63  63  62  67  61  65  51  47  47  50  51  53  65  71  79  89
 121 117 108  96  94  89  80  86  84  73  81  86  97  99  99 104 100  96  93 104 106  98  98  99 107 108 115 112 106  97  91  87  85  83  72  62  62  69  76  74  69  75  66  67  66  69  77  87  87  89
 126 119 119 114 111  99 100  93  92  97  98 107 103 103 103  99 100  94  96 105  94  98  99  99 115 115 113 111 103 107  90  84  85  86  76  67  59  68  78  80  82  92  82  80  79  84  90  93  93  98
 124 121 123 121 118 112 107 100 100 104 101 108 101 108 106 102  94  98 102  93  93  98  98 108 113 116 112 114 103 101 103  85  81  87  84  73  69  72  71  82  92  88  91  89  88  92  91  94  99 103
 125 124 126 121 117 116 112 110 103 107 111 104 116 103  99 104 104  96  94  87  87  95 104 121 126 121 121 117 119 103 103  95  80  80  78  67  67  72  77  82  87  96  99  93  94  92  97 100  98 104
 129 126 127 126 116 119 121 118 115 110 113 116 101 108 108 102 107  86  73  90  93 106 121 125 122 121 126 132 122 103  91 100 102  86  76  55  59  70  78  87  95  98  94  95  94  93  92  96  99 101
 126 127 126 125 124 121 126 118 120 115 115 111 111 112 107  97  94  64  98 102 116 129 128 129 128 125 124 134 121  99  88  92 106 109  96  83  61  65  77  83  92  97 104  92  94  95  98  96  96  98
 129 127 127 126 119 126 124 119 121 120 110 109 117 112 103  89  66 110 124 126 122 125 126 127 120 115 116 101 102  97  87  89  91 105 101 110 108  63  73  83  86  93  96  93  94  98  97  94  99  97
 129 129 126 125 127 121 127 125 113 118 124 117 116 109  91  74 109 133 130 129 119 121 112 107 107  99  99  92  86  85  81  74  95  90  96  95 116 111  69  78  86  91  91  92  89  93  99  96  98  99
 129 126 113 125 126 127 127 126 117 122 114 116 104 102  86  67 130 131 131 121 116 107  95  97  88  96  96  86  79  69  76  80  92  93  94  85 115 124  63  75  85  89  96  94  99  96 103  99 101 104
 128 127 127 124 122 125 111 124 117 121 116 111 104  94  79  66 130 130 117 100  93  85  69  71  71  73  74  73  68  68  71  69  80  80  81  91 104 121  64  74  84  87  92  99  97  99  96  96 103 103
 123 126 127 128 112 125 125 124 119 117 113 108 104  95  80  65 124 119  88  58   6   5   5   6  16  36  63  62  58  65  32  12   8  10  43  62  94 125  67  77  85  87  92  94  90  98  99 104 104 105
 127 129 129 129 127 129 126 120 121 110 111 100 102  96  89  63  94  95  63  27  23  19  21  32  54  46  71  56  68  41  33  22  16  17  19  48  71  98  68  80  84  90  90  94  87  96  99  99  99 106
 130 130 129 131 127 124 129 124 117 116 100 109 103  97  90  69  45  73  56  34  33  42  46  46  49  43  48  48  41  32  30  30  30  28  31  41  60  41  71  85  89  96  94  93  93 100 101 103  98 106
 131 130 131 127 124 123 121 122 111 115 111 105  99 100 103  89  60  33  33  34  40  50  52  56  48  43  38  32  33  37  38  33  35  29  25  25  35  58  78  90  95  94  91  88  92  93  97  97 109 104
 133 130 130 129 125 124 109 118 113 111 107 103 111 104 111 103  91  65  62  50  53  64  68  69  69  65  66  58  68  64  59  55  46  44  40  48  56  75  84  87  93  92  94  84  93  94  97 100 100 106
 129 132 133 130 121 123 118 116 113 100 103 104 102 111 108 109 108  98  94  83  87  76  74  68  73  70  61  67  69  61  56  53  60  56  67  69  74  86  93  88  93  91  94  92  87  92  94  94 104 117
 132 132 132 125 126 121 123 118 104  96 104 107 110 110 111 111 104 103  90  86  90  83  76  48  76  76  67  69  64  62  62  53  56  63  58  75  84  77  91  91  84  90  94  90  88  92  93  92 102 100
 134 132 132 127 119 118 118 119 101  99 105 106 116 122 113 111 104 106  85  76  87  79  59  53  72  69  67  64  61  68  62  57  56  51  54  66  74  80  88  90  93  87  88  91  84  83  88  94 103 115
 133 128 125 125 118 119 118 111 107 104 108 111 118 118 118  99  99  90  89  70  76  78  80  75  75  63  61  73  63  62  59  62  62  57  63  58  55  63  69  84  89  92  86  87  83  87  89  96 107 115
 130 127 124 124 118 120 110 116 117 118 108 109 116 118 107  97  90  86  95  79  85  87  89  80  85  75  63  62  71  76  83  67  64  62  68  64  56  52  57  75  70  78  82  81  87  85  80  96  92 111
 130 121 119 124 118 119 118 113 116 108 118 112 101  90  87  88  79  94  85  85  94  88  83  80  87  90  95  91  86  76  54  37  45  57  70  68  59  54  68  65  63  73  77  76  84  81  86  89  96  99
 126 122 115 111 119 119 116 114 110 111 103  94  98  79  73  92  79  91  97  97  92  74  52  47  44  52  53  48  46  39  41  32  36  37  52  67  73  63  64  58  52  59  66  84  89  95  90  97 107  96
 126 122 125 116 116 118 119 115 109 106 101  87  67  86  82  83  68  93  89  75  56  42  42  40  37  34  40  34  34  33  34  31  32  33  36  45  58  69  66  55  55  46  51  76  91  96  94  95 107 109
 129 122 122 113 121 121 118 118 108 111  97  91  67  73  63  80  77  68  53  41  38  40  37  38  34  34  35  35  34  32  32  34  41  42  37  34  38  62  72  60  62  54  53  71  86  99 102 104 116 118
 123 130 123 117 102 121 119 115 104 100  75  70  61  65  62  59  50  34  29  34  36  37  42  36  31  36  37  34  33  32  32  36  36  44  37  31  28  36  45  44  51  56  54  69  88  98 100  97 106 121
 130 125 122 119 113 108 119 111  97  93  72  64  56  35  28  28  21  19  22  27  24  25  20  18  15  14  11  10  10  13  11  11  16  18  21  21  18  20  20  22  30  48  51  66  84  96 103 108 112 127
 126 122 124 115 113 110 119 116  96  89  73  55  30  16  12  51  39  50  57  46  45  51  49  46  46  50  44  35  47  43  45  42  38  49  41  38  40  33  16  11  23  34  53  61  81  96 106 102 112 126
 125 122 126 121 119 107 108 109  89  84  68  38  31  29  33  46  55  55  60  65  78  73  69  66  73  84  75  57  91  92  74  70  68  59  47  49  52  45  32  28  30  35  49  59  76  86 108 113 118 124
 126 122 124 121 116 108 108 104  93  72  55  44  42  48  56  49  47  59  65  62  74  80  86  87  90  83  70  60  74  77  87  59  56  54  46  54  50  54  61  41  39  43  45  60  76  89 100 118 124 126
 121 121 118 121 113 111 106  98  88  69  60  54  53  67  76  74  55  45  50  54  61  66  65  68  68  67  54  50  55  54  50  48  53  53  51  44  54  75  73  53  45  46  54  61  79  86  94 109 119 128
 120 106 112 119 118 110  98  95  86  74  65  61  64  78  90  93  85  68  47  43  43  43  50  47  53  45  44  36  40  41  45  42  42  43  52  65  83  75  69  62  56  53  58  67  73  84  99 111 120 129
 118 112 113 108 112 100  96  92  86  76  71  77  80  84  96  94  87  80  75  66  52  47  46  45  41  39  36  36  36  38  39  43  48  60  63  69  80  78  76  67  66  59  60  65  68  86  94 100 122 118
 111 109 107 102 102  97  87  86  78  80  74  85  90  90  87  93  85  80  75  72  60  55  56  48  46  41  41  39  39  37  42  46  47  56  63  68  86  80  74  73  69  73  65  66  74  86  95  94 116 122
