P2
50 50
255
  48  23  30  26  22  18  15  18  20  22  24  25  22  30  21  30  37  37  51  68  60  60  67  67  57  68  63  67  72  59  59  55  55  42  25  30  23  17  16  23  24  21  21  22  17  16  22  23  25  26
  15  25  25  26  20  24  27  24  26  28  28  38  29  37  38  31  42  42  49  60  62  56  73  53  62  56  62  63  62  61  63  58  49  38  33  28  25  27  29  28  33  40  33  38  36  29  30  33  28  35
  24  27  21  28  30  44  44  56  65  57  51  37  44  46  49  46  43  45  52  58  62  62  52  62  55  52  55  54  51  54  55  52  51  40  41  34  41  41  37  41  45  50  58  53  52  53  48  52  41  37
  30  46  50  50  58  56  65  81  77  68  65  59  51  54  57  57  48  54  54  56  61  60  61  59  59  51  60  52  53  55  51  52  44  42  42  46  43  46  43  47  52  56  67  68  70  59  66  65  59  44
  50  66  70  69  87  76  89  87  89  72  67  61  49  49  47  51  56  59  60  53  57  62  58  56  58  60  52  45  52  54  52  42  43  47  47  43  41  43  52  54  60  66  71  67  67  67  65  73  69  84
  89  90  89  91  99  96  94  89  87  79  65  59  52  44  43  44  49  52  54  56  60  63  59  63  66  59  32  45  56  52  50  46  47  41  41  41  44  48  53  60  63  67  67  63  64  58  66  74  78 100
  93  98  98  97  91  90  86  75  72  66  61  46  40  45  40  44  41  49  54  54  53  58  72  80  88  80  74  60  63  59  54  50  47  41  39  41  43  48  47  35  26  30  30  45  51  58  61  67  80  98
 107 107  98  86  84  80  71  64  57  45  36  26  30  34  40  38  44  46  56  58  58  76  86  95 100  94  91  77  71  62  54  50  46  38  40  38  40  26  30  33  34  34  38  39  37  24  42  57  73 104
 106 101  91  77  62  35  30  22  11  10   8   9   9  17  28  35  38  44  47  63  66  80  93 100 107 101 100  80  74  68  54  50  48  43  42  37  23   2   5   5   5   4   6  10  26  40  47  34  45  89
  97  79  57  21  36  23   8   5  11   8   7   6   7  22  11  20  42  46  54  66  76  86  96  97 101  98 100  84  78  65  52  52  44  42  47  36   7   3   6   5   4   6   4  16   6  10  31  54  66  43
  70  40  34  27  10  14  48  11   9  10   5  12   8  37  21   8  59  53  65  74  83  90  92  94  98 103  97  93  86  70  62  53  51  50  49  33  10   4   4   7  12   7  15  37  14   6  11  19  35  60
  37  31  13   6  12  63  86  12  21  16   6   7   8  27  23  30  38  62  77  85  88  89  87  95 101 101 101  93  78  71  64  54  50  49  53  42  33  33  28  25  16  22  18  21  21  21  22  15  15  38
  26  22  21  24  26  24  26  27  24  17  24  29  41  34  37  52  70  73  83  80  83  83  91 104  98 109 103  99  89  71  66  56  50  53  53  45  46  32  31  33  34  39  34  39  39  50  51  50  51  46
  41  43  41  50  45  52  49  54  63  43  41  37  40  33  41  56  75  72  89  81  87  88  90 106 105 104 104 100  96  85  75  73  62  49  54  56  49  42  33  30  31  30  34  46  47  58  65  76  71  86
  74  74  76  81  82  71  71  60  52  39  35  41  38  41  51  74  79  93  89  93  89  93 101 102 111 114 108 110 101  91  79  75  70  57  48  54  54  51  42  37  32  37  41  41  51  57  67  76  81  94
  95  87  91  88  81  75  68  55  52  46  42  42  42  51  71  85  88  95  89  91  96  99 102 101 108 114 115 109 107  96  91  80  74  65  56  59  58  60  54  44  36  39  40  45  51  56  61  70  86  93
 105 101 100  89  76  68  66  53  47  47  42  46  65  79  88  97 100  89  89  95 100 100  99 103 109 116 116 107 105  93  93  86  85  78  65  62  66  68  67  68  56  53  53  54  54  59  70  74  87  89
 118 103 102  91  80  80  69  68  73  73  68  84  89  97  96  97  97  98  89 102 100  98  96  98 111 107 110 109 103  95  88  87  83  86  74  65  63  74  74  83  76  74  75  69  74  76  84  93  90  98
 126 124 110 111 103  96  91  93  91  95  96  97  95 101 100 101 101  98  95 107 100  98  99 103 111 114 114 113 107 103  84  82  84  84  81  66  68  70  74  74  88  91  89  89  88  84  87  93  95  95
 127 122 120 117 105 102  99  97 105 105 103 106 103 108 104  98  96  94 101 100  91  95  98 107 114 116 113 112  99 101 103  82  81  85  81  71  65  70  74  78  84  93  87  93  90  89  96  90  98  99
  99 122 123 123 118 105 113 110 102 107 110 111 116 108 107 105 101 100 100  88  91  99 101 118 127 117 119 116 114 105  99 100  86  80  75  69  67  71  74  86  88  97  98  89  96  95  95 102 101 100
 127 129 127 122 120 114 116 107 111 118 116 115 108 106 102 107 105  96  74  82  89  99 122 130 125 124 122 130 120 104  96 101 105  85  76  60  56  73  80  88  94 102 101  96  97  93  81  95  97 101
 127 126 125 123 123 120 116 117 118 118 104 111 107 114 105 103  95  70  99 102 104 129 126 127 124 124 123 136 122 102  90  93 107 111 104  90  67  66  71  85  89  95  98  93  93  98  99  94  93  95
 127 127 128 126 114 125 128 118 120 122 113 114 114 114 101  89  79 104 115 122 124 126 127 128 127 116 118 100 100  96  86  89  95 104 107 115 107  63  70  86  85 100  96  95  96  97 105  98  91  98
 128 127 129 129 124 123 120 126 124 120 114 110 115 113  89  79  93 129 129 129 121 122 119 103 107 101  96  93  88  84  79  76  93  87  99  96 111 121  64  76  86  93  95  99  94 101  98  98  98 103
 129 131 122 123 124 123 129 124 122 118 120 120 106  96  88  70 119 127 131 124 116 107  95  97  98  96  91  87  80  74  71  80  91  89  90  86 107 125  62  75  79  91  94  98  98  96  96 102 100 100
 131 129 119 112 129 126 126 118 118 117 119 120 109  95  79  66 129 132 121 109  99  92  71  78  72  78  74  71  72  63  73  66  73  79  82  88 105 134  64  71  84  89  93  93  97 102  98  93  98 111
 129 126 126 128 125 120 124 129 121 112 113 105  95  96  75  69 126 125 100  71   7   5   5   3  13  40  63  60  62  63  48   7   7   6  25  60  80 123  64  72  88  88  91  98  95  99  95 102 104 110
 121 126 127 129 128 128 128 122 118 116 106 110 105  96  85  60 100  98  68  26  18  15  16  26  43  44  64  60  63  50  32  21  19  18  22  40  66  95  66  74  84  85  88  98  96  95  99 106  97 107
 129 132 124 129 127 126 126 120 123 116 105 105 102  95 101  79  47  79  56  40  27  35  44  45  52  42  47  42  46  33  31  31  37  29  29  42  62  40  74  89  87  92  90  95  89  96  98 100 100  98
 130 128 129 132 123 128 128 123 118 110 105 111 109 102 107  89  55  35  43  39  39  50  52  49  48  41  41  33  33  35  38  35  36  35  26  23  34  56  80  87  94  93  94  89  96  85  99 101 100 109
 134 132 134 128 117 123 124 120 114 113 109 105 109 102 108  99  84  54  44  43  47  59  65  66  63  70  70  62  64  60  60  56  51  47  43  52  58  68  84  88  95  95  92  89  86  93  93  96  98 104
 131 129 130 131 128 125 118 120 115 104 101 111 107 101 109 106 105  98 101  88  86  83  87  55  68  71  61  63  68  60  55  55  56  64  58  74  72  83  89  96  89  90  93  86  87  87  92  96 102 109
 131 129 133 127 128 125 121 117 111 103 101 109 103 111 109 111 111 107 103  88  91  85  76  74  72  75  62  72  67  66  58  60  45  62  59  63  82  78  88  91  89  92  88  90  81  91  89  94  99 107
 129 130 132 128 127 116 120 119 104 100 105 108 111 119 117 109 101 101  99  81  83  81  72  54  66  76  70  70  69  61  75  63  54  61  56  56  70  82  86  89  92  89  89  86  87  87  90 100 102 109
 133 130 129 127 124 117 115 118 109 100  99 102 115 114 114  96  95  89  89  87  84  71  85  73  74  71  57  67  58  63  51  60  61  62  58  62  57  47  57  80  80  86  84  84  91  84  88  93 102 110
 128 129 116 126 117 122 122 118 111 104 110 111 123 115 110  99  99  63  92  69  90  84  87  87  87  72  66  63  68  76  83  72  66  63  72  62  58  52  53  59  73  70  84  82  82  84  86 101  94 111
 130 130 126 123 119 120 122 103 116 119 108 111 111 100 102  85  84  92  82  63  96  93  93  86  78  88  96  90  87  83  64  43  44  48  66  78  62  52  53  60  62  67  69  78  85  94  91  91  89 108
 131 124 115 116 116 120 120 110 117 113 113 109  98  95  66  83  69  89  89  85  99  90  62  57  50  47  51  50  51  43  38  33  32  36  40  57  73  72  60  50  47  58  60  73  83  92  94  89 101 108
 130 122 122 118 118 122 116 120 108 107 108 103  96  64  65  79  76  89  93  89  70  52  39  42  39  38  38  38  33  33  31  33  31  35  36  39  49  73  77  61  59  54  58  67  84  95 100  91 102 116
 125 123 114 116 121 122 117 118 115 113 109  83  45  73  65  70  81  75  71  54  41  39  41  33  41  37  35  37  32  34  30  33  32  43  41  39  31  47  68  66  52  63  52  62  84  94  97  99 103 114
 128 122 126 116 120 124 116 118 114 106  89  77  58  59  63  69  59  55  42  31  36  42  40  41  34  32  34  29  38  29  36  35  36  48  36  31  30  29  37  43  40  54  54  55  82  91 101 102 100 122
 129 126 126 119 120 122 116 119 109  98  82  64  64  56  41  30  31  26  25  30  29  27  26  24  22  20  15  10  10  11  11  13  13  16  22  17  16  14  11  14  24  29  45  59  70  90  91 117 109 122
 129 123 126 120 118 114 117 113 109  96  89  70  47  28  15  18  38  45  46  53  47  53  47  49  45  42  51  30  42  48  46  43  40  45  43  41  40  40  36  14  18  30  40  52  73  86  96 106 110 125
 128 126 124 123 114 112 115 110 104  88  88  59  31  23  28  37  51  56  61  59  69  72  62  54  66  74  87  68  83  95  79  65  70  59  53  55  46  48  40  35  28  38  42  51  66  87  92 107 112 102
 130 124 126 123 122 110 115 109 103  85  60  49  38  37  45  40  51  45  59  64  70  75  81  95  92  97  70  66  69  75  89  72  56  55  50  46  51  47  54  57  36  43  46  52  68  81  97 108 122 124
 128 126 122 119 117 115 113 103  97  82  66  50  50  54  67  61  56  46  49  53  60  64  70  66  65  67  64  56  52  56  54  54  47  45  45  48  51  64  80  64  48  50  49  55  64  80  90 100 117 127
 126 118 116 120 114 109 107  96  96  82  63  60  59  67  77  88  85  69  49  44  46  43  51  52  50  51  49  43  42  43  42  44  41  40  44  60  76  81  79  73  58  56  55  59  70  74  92 100 113 124
 124 108 116 117 111 111 107  97  96  84  71  65  72  73  87  96  95  89  78  66  53  47  41  43  41  42  38  36  37  35  35  42  50  56  59  64  80  88  74  75  62  62  60  61  70  77  88 102 103 120
 123 114 116 113 109 105 100  88  88  82  71  74  80  86  93  95  93  82  79  79  66  59  56  51  49  44  46  40  43  39  39  41  47  53  60  61  76  80  74  73  70  67  65  62  68  80  87  93  88 117
