P2
50 50
255
  28  24  26  29  24  24  16  27  23  30  25  31  34  28  26  26  28  29  35  37  68  67  68  67  63  65  66  68  71  68  68  56  47  51  43  26  29  16  14  15  11  15  15  15  10  14  21  19  21  20
  25  28  29  14  24  32  41  36  44  40  42  35  30  33  36  35  31  35  41  40  55  64  65  67  61  62  57  56  68  66  60  59  49  39  33  28  26  23  22  17  23  26  26  22  18  18  18  22  27  21
  26  30  36  43  60  55  69  69  77  64  64  53  48  60  50  46  49  43  47  46  63  51  67  62  60  59  44  55  54  56  52  58  52  43  36  37  25  33  34  31  30  29  37  32  40  33  29  28  25  29
  49  51  69  65  74  80  80  87  80  69  66  61  49  50  51  55  56  51  53  55  60  60  61  60  61  57  57  48  44  55  52  53  50  43  40  39  42  45  42  38  39  41  53  47  54  49  48  44  52  47
  87  94  85  91  93  94  94  89  88  83  72  62  54  43  45  48  55  56  52  56  55  58  61  50  50  59  57  52  47  56  51  48  45  41  44  44  41  41  39  44  56  64  59  63  67  61  61  61  60  48
  81 101  93 102  94  88  90  86  74  78  63  57  50  48  41  46  41  46  56  54  60  56  60  62  68  63  51  29  50  53  49  47  47  45  44  39  36  40  45  52  53  64  69  65  65  68  69  68  71  72
 101 100  94  89  86  83  75  71  72  65  55  45  40  41  40  42  43  44  49  50  53  58  68  73  76  80  62  60  60  59  51  48  44  44  38  44  39  44  48  52  57  64  67  65  64  61  65  66  74  76
 105  97  94  81  72  63  41  27  25  21  19  20  15  26  35  39  39  44  49  58  57  69  84  91  95  96  85  79  75  64  56  48  47  44  40  38  41  46  44  36  22  23  27  44  49  53  61  65  74  90
  96  86  70  43  28  29  21   6   6   6  17   5   5  10  14  35  36  42  46  57  64  71  89  97 100 101  97  89  78  68  56  51  48  43  42  39  40  29  25  20  25  30  30  40  41  30  31  50  65  85
  74  40  26  34  16   8  21  11  18  12   7   7   5  28  16   9  40  46  48  62  75  84  90  96  94  99  97  83  81  68  57  50  50  43  45  41  38   5   4  18  16   5   5   9  18  38  40  46  35  74
  38  30  20   8  10  79 102  22  18   9   3   9   8  39  27   8  17  54  61  72  79  89  86  91  97 100 102  97  75  82  55  50  48  47  47  44   7   4   9   8   4   5   3  17   7   6  28  44  52  32
  27  20  14  20  20  28  52  11  16  14   6   6  11  24  29  32  44  58  74  85  85  85  88  95 104  96  99  91  87  77  60  56  50  50  51  51  12   9   5   7   4   6   9  36  26   5   5  19  41  71
  38  36  33  36  33  38  36  37  33  31  29  41  37  35  36  50  69  69  81  83  83  81  93  98  99 106 102  99  90  79  68  63  47  49  57  49  32  37  42  28  33  23  19  19  18  19  14  10  12  25
  71  71  66  69  77  72  66  67  51  43  38  35  31  41  41  57  78  75  86  75  85  92  92 104  98 102 110 103  96  74  71  68  55  48  51  54  47  33  28  32  32  34  39  35  36  42  40  47  36  36
  89  85  83  75  79  75  65  57  49  42  33  38  40  45  52  75  76  89  89  88  89  96 103 100 106 117 104 108 101  88  83  71  57  52  49  55  53  44  38  32  27  30  32  41  44  56  65  72  72  75
 101  96  92  85  83  66  60  58  43  44  41  39  46  62  73  83  89  91  89  92  95 102  99 101 113 110 111 113  97  90  89  75  75  61  52  55  58  51  43  32  35  32  36  44  44  55  67  74  74  90
 116 104  97  89  74  65  58  56  50  50  52  61  71  85  92  95  94  94  90  94 100 101  97 107 108 109 116 113  99 101  87  85  77  66  61  57  56  60  53  47  42  40  41  45  48  54  57  70  82  92
 121 116 106  96  90  83  76  82  75  80  82  90  96 102  94  98  94  97  96  96  99  99  99 104 106 116 116 111 101  94  89  83  83  81  66  60  64  70  68  68  57  54  49  51  55  55  65  72  80  87
 124 118 109 116 102  97  92  88  97  99 104 100 100 102 106 100  99  95  92 101  97  96  99 101 106 109 112 105 104  97  92  90  79  79  77  65  62  71  79  75  76  73  70  68  74  70  79  92  82  92
 104 122 122 117 114 106 102 102 108 101 108 106 111 107 107 101  95  96 101  97  94  94  97 109 107 113 112 109 106 102 100  87  86  87  77  65  63  69  79  77  89  90  85  85  86  87  83  89  92  96
 125 129 126 125 113 108 111 108 101 113 111 114 102 102 102 100 102  97  95  87  97  96  99 117 121 114 116 110 105 108 109  78  86  80  74  68  64  71  68  84  89  92  89  90  89  89  92  92 101 100
 129 124 125 121 117 118 118 111 108 111 111 117 107 108 104 106 102  90  77  84  99  99 120 129 124 119 121 120 116  97  97 105  79  82  70  67  64  75  77  81  87  97  90  94  93  90  93  96  97  98
 128 124 122 121 121 124 121 119 116 116 114 111 118 109 104 102  91  67  97  97 107 121 127 123 122 122 129 138 128  97 102  99 106  90  77  63  58  67  79  89  91  95 104  92  92  94  92  99  98 101
 129 129 126 126 124 125 123 122 118 121 118 108 113 108 100  90  58 113 116 122 122 127 124 131 123 121 120 120 109  89  83  88 106 112  98  89  61  66  78  87  88 101 101  94  89  96  99  94  99  97
 127 126 126 121 124 122 127 117 120 121 117 116 109 101  90  72 118 128 126 121 118 125 112 115 108 101 104  96  94  85  85  80  96  97 101 112 115  65  74  79  89  92  97  94  89  99  99  92  96  97
 129 107 125 126 124 122 126 119 119 118 118 112 101  97  75  75 134 130 130 124 116 101  97  94 100  98  94  78  79  75  83  80  96  92  97  98 119  91  67  77  87  90  88  92  87  96 101  93  97  99
 127 125 122 117 122 126 124 118 120 106 117 108  95  94  69 101 135 127 122 116 101  96  84  88  82  86  88  77  74  69  79  81  83  86  85  81 119 122  68  74  84  87  97  94  95  97 103  98  97 102
 123 128 126 129 119 123 126 119 113 116 111 103 100  85  74 100 133 117  86  55  20  25  42  58  54  67  68  60  61  61  77  56  66  76  77  92 124 117  65  76  85  90  92  99  97 102  92  96 101 102
 130 127 126 127 125 126 118 122 119 106 105 107  93  89  76  62 102  83  48  11   6   7  10  21  30  33  62  56  65  39  14   6   4  10  30  66  96 120  71  77  88  90  90  96  91  97 101  97 107 108
 130 118 130 126 128 124 123 123 118  98 101 111  92 100  82  51  81  69  47  26  30  37  41  48  54  53  60  51  67  37  31  25  23  21  27  53  75  51  72  79  85  90  91  97  93  99 102  99  96 106
 131 129 127 121 124 125 121 116 108 116 105 102 102 108 101  63  38  50  42  38  44  49  47  45  36  40  39  37  34  31  30  32  35  29  34  43  38  55  75  90  94  95  89  94  96  97 102 106  99 111
 127 133 128 120 118 119 113 113 111 104 101 109 103 106 106  89  59  43  34  41  49  56  56  60  54  49  43  36  42  43  42  39  34  24  21  27  44  71  85  89  96  94  86  86  91  96  99 104 106 105
 131 131 130 126 126 115 115 116  97 105 112 111  99 112 102 105 101  91  80  72  74  69  77  66  68  66  65  78  65  62  57  54  55  44  54  52  66  83  89  90  91  90  92  82  91  95  96  98 102 114
 129 130 127 124 124 124 119 111 102 103 103  99 106 113 115 106 103 100  96  94  75  86  71  65  73  64  59  64  60  58  50  58  55  55  75  73  77  87  90  87  81  89  91  83  83  88  94 100 102 117
 131 131 126 122 112 124 116 109 101 101 104 109 109 118 111  96 103  97  90  77  83  89  76  68  75  57  63  72  52  61  63  49  61  61  61  77  85  78  89  90  90  88  96  90  87  92  95  92 106 107
 129 121 124 124 118 108 118 108 100 105 104 111 113 111 113 101  74  91  79  76  74  74  59  69  75  72  69  68  60  70  61  57  64  59  56  63  77  82  87  90  90  86  88  85  85  82  94 101 108 116
 130 126 122 118 122 111 120 111 117 107 118 121 117 113  97 100  68  83  69  74  78  75  83  87  71  57  65  69  62  55  55  63  60  59  59  55  48  54  78  81  92  85  79  92  81  85  89 101 113 112
 125 124 122 114 114 118 110 113 113 111 113 110  97 102  84  92  73  74  47  94  85  90  95  88  80  75  67  63  82  83  67  61  65  70  64  61  50  47  55  77  69  84  85  81  91  88  92  99 102 116
 119  97 110 116 120 120 108 109 113 111 108 101  97  57  81  72  82  88  62  98  98  88  69  60  64  76  85  86  61  53  40  44  48  62  75  65  49  58  65  61  72  70  83  82  88  85  85  86 111 119
 120 119 114 119 120 117 116 107 108 104  97  80  69  73  78  76  92  94  88  84  61  48  41  43  44  47  47  46  41  36  32  34  35  39  55  78  73  57  52  57  56  70  69  84  91  90  90  94 109 107
 117 121 107 122 116 114 119 113 108 105  70  72  72  67  68  76  87  75  62  45  39  40  38  37  33  36  34  36  32  31  32  32  32  36  40  46  67  78  58  55  50  58  60  77  89  97  92 100 111 116
 127 124 110 113 120 114 117 106  99  97  83  66  46  68  70  60  59  43  33  33  35  39  40  35  32  36  34  32  34  36  34  32  43  39  39  34  49  67  72  55  60  52  54  76  92  97  94 100 116 116
 124 124 116 113 109 121 113 104  86  64  65  66  55  41  42  34  30  27  34  33  37  39  37  33  32  38  27  32  31  33  31  38  44  40  30  28  31  37  50  43  55  48  57  81  90  97 104 103 118 123
 126 125 114 113 115 112 109 107  94  79  65  42  31  10  16  26  37  33  44  40  28  22  21  21  17  17  11  13  18  10  12  12  17  21  19  18  20  16  19  26  38  45  59  71  90  93  98 106 116 131
 124 124 111 113 112 114 107  95  70  71  44  28  20  19  44  45  56  62  61  60  52  52  54  55  55  47  36  49  51  49  45  35  51  46  49  33  33  25   7  17  29  43  55  71  87 100 105 108 118 126
 124 121 123 121 108 104 105  86  79  57  41  40  43  41  45  56  53  63  63  79  78  65  74  85  91  89  70  87 100  80  75  65  57  56  48  55  44  35  29  29  33  41  51  74  86  95 113 106 124 125
 118 113 123 113 107 111 102  91  69  60  53  47  52  68  54  47  46  59  58  63  74  77  75  86  83  64  50  60  76  81  67  53  55  47  50  47  44  48  48  36  40  44  50  67  83 100 111 119 126 129
 105 116 112 114 111  99  99  83  69  53  59  58  70  78  85  66  52  44  46  55  56  59  61  61  59  51  47  47  54  55  51  45  46  48  47  50  61  77  55  47  45  47  56  69  82  93 105 122 126 130
 112 116 107 111 101  97  94  90  81  66  69  70  78  96  91  91  76  56  50  42  44  46  46  49  47  44  38  38  42  40  41  39  40  47  61  81  86  73  69  52  52  50  60  72  81  94 107 111 129 126
 111 111 104 106  97  93  90  84  66  72  79  88  84  92  93  89  82  75  69  64  49  48  45  44  41  38  38  33  35  37  40  50  57  64  68  73  82  73  69  65  63  64  64  73  79  92 106 119 126 126
