P2
50 50
255
  25  19  26  26  21  21  17  24  23  30  25  36  30  34  26  29  29  26  40  41  64  66  70  69  60  74  70  67  67  74  67  58  50  48  32  29  22  17  16  16  22  21  20  21  17  16  18  25  22  21
  27  28  29  21  25  34  38  43  44  47  42  36  36  37  35  35  42  38  42  42  52  58  55  64  63  61  53  62  64  60  60  63  53  42  31  30  27  27  25  25  25  30  34  30  28  25  24  31  24  25
  27  35  38  43  61  60  70  74  73  66  66  56  48  55  54  54  54  47  55  61  59  59  57  60  63  64  56  53  61  58  58  60  53  42  36  37  39  43  42  38  41  42  47  53  53  47  46  39  42  44
  46  66  69  64  78  84  86  83  83  81  70  55  52  46  50  55  55  53  54  53  55  63  58  57  55  60  47  55  53  53  55  53  49  42  38  41  44  43  44  44  47  60  58  63  64  55  61  60  69  55
  83  89  87  89  96  88  89  90  81  83  70  62  48  49  42  48  52  53  57  58  54  58  63  56  58  58  56  44  50  55  54  46  41  44  46  44  39  40  43  52  58  63  66  70  70  66  67  71  68  69
  85  96  96  99  96  89  90  86  74  75  65  55  54  48  43  46  50  47  56  55  56  59  63  68  72  70  55  31  56  54  49  48  45  45  42  40  38  43  55  52  58  66  66  67  63  64  66  75  76  79
 101  98  99  89  87  85  73  72  67  60  48  44  41  38  35  34  46  44  52  52  55  64  74  80  89  87  81  67  62  59  53  49  46  44  42  40  43  45  53  46  38  41  57  63  54  57  63  68  74  96
 109  94  90  78  70  56  30  24  24  15  16  15  17  18  35  36  38  43  50  54  62  74  84  94  98 103  89  84  76  63  58  52  49  41  40  42  41  39  18  28  33  36  39  39  33  24  48  58  71  91
 100  87  68  39  27  25  14   5   2   6  72   5   5  13  13  34  40  44  46  69  61  75  90  99 104 104 104  92  81  69  54  50  50  42  43  42  39   6   5   4   4   6  10  12  30  37  45  26  43  76
  74  43  24  37  17   9  24  12  15  13   5   7   5  34  24   8  43  45  50  71  82  84  94  96  99  99 103  91  81  74  54  53  48  45  46  42  11   4  14  13   4   5   4   9   6  11  29  44  41  30
  32  36  22   7  15  81 101  23  14   9   4   9   7  40  27  10  11  53  66  69  82  92  90  92  97  98  99  96  81  74  63  49  47  44  52  50   8   7   4   6   4   7   9  29  28   5   8  26  52  67
  28  21  14  20  21  25  36  14  11   9   6   6  18  27  31  43  51  65  78  83  85  80  87  94  97 103 108  97  84  77  62  60  49  52  56  51  30  30  22  11   8   6   5  22  18  12   9   9  17  29
  39  34  33  35  41  32  36  38  28  29  31  45  41  37  35  51  69  75  83  81  79  83  93  99  93 106 111  99  92  74  76  67  48  49  57  53  47  31  30  35  36  30  29  29  29  38  42  30  26  37
  70  70  72  77  79  80  69  61  54  43  37  35  38  39  47  61  79  86  92  83  81  91  88 104 102 112 108 106  96  92  77  74  60  50  51  58  52  42  37  30  29  33  37  44  45  52  61  72  68  73
  94  82  80  77  77  75  64  61  47  49  40  39  35  46  55  79  80  90  85  89  91  96  99 103 108 120 109 113 102  97  89  79  68  59  52  54  56  54  38  39  34  30  35  43  48  55  70  74  77  89
  99  98  98  85  85  73  59  56  43  38  42  40  46  65  81  85  96  99  89  94  98 102 100 101 112 115 115 113 107  93  90  78  72  62  53  56  59  63  51  39  37  37  41  39  46  52  59  72  79  86
 111 108  95  91  74  68  59  58  49  55  59  64  78  86  94  99  99  91  95  98 100 105  96 108 108 114 113 116 102  97  90  89  85  79  62  59  62  65  60  62  49  45  48  53  50  55  62  72  75  85
 122 115 105  99  98  88  89  83  85  87  85  94 100  99  96 100  97  96  95 104 104  98  96 100 108 115 111 115 108  97  90  94  86  84  71  63  64  68  70  71  70  66  65  65  66  68  73  82  84  89
 121 121 116 113 107  96  98  93  93  92 102 109 100 108 100  99  99  95  92 104  94  94 100 102 115 116 113 112 106 106  93  85  87  81  77  68  64  64  78  82  83  84  79  82  81  85  85  89  92  90
 109 122 118 122 121 108 105 104 105 103 106 115 107 108 104 102  99  96 100  95  91  94  98 107 115 121 119 114 105 104 102  85  80  87  82  73  64  70  74  80  89  91  92  91  95  93  92  92  92  96
 126 122 126 121 118 115 119 115  98 111 118 113 106 106 102 102 100 102  92  87  88  98 105 122 126 120 113 117 119 109 106 100  86  81  75  64  64  65  74  79  86  90  95  94  96  94  96  98  96  97
 126 129 124 121 115 122 125 121 120 117 110 102 104 114 108 101 105  93  72  87  93 104 125 129 127 123 121 134 122 108  95 103 107  89  79  59  64  69  71  83  86  97  92  97  94  95  95  93 100 100
 129 125 124 125 121 121 123 122 115 119 113 113 116 106 105  99  89  64  97 102 116 129 130 128 129 124 124 134 119 101  90  94 107 109  94  87  48  64  77  83  91  94 103  92  97  98  98  97  96  96
 129 125 127 126 125 125 123 125 117 121 116 115 117 113 105  94  59 111 121 123 123 126 126 126 123 116 116 107 106  99  85  89  83 106 111 107 100  64  70  83  86  98  97  90  93  96  96  92  97  97
 125 128 127 127 129 122 127 123 123 118 122 118 122 107  94  68 114 135 129 127 126 125 113 103 108 103 100  90  86  86  77  79  92  93  99 105 111  99  64  73  88  94  93  96  96  95  99  97  93  97
 130 120 124 125 126 125 126 127 123 121 117 121 103 104  80  62 127 129 132 124 120 106  97  93  98  96  93  82  77  76  70  79  93  81  93  96 117 120  58  73  85  94  95  92  99  93  99  95 100 104
 130 129 126 124 119 127 123 124 116 119 113 111 104  92  73  61 130 134 122 108  97  90  75  75  72  74  73  74  65  77  74  71  74  87  89  94 118 127  67  72  83  91  89  97 102  99  88  96 101 106
 123 126 128 129 107 128 127 125 120 118 112 101 100  92  78  57 122 121 101  63   7   5   5   6  10  38  64  61  67  64  58  17  19  25  65  77 105 127  69  74  84  90  90  92  99  97  99  96 101 111
 126 129 129 129 128 128 125 117 122 111 111  97 102  93  85  58  98  96  60  29  21  16  20  28  44  45  66  56  65  40  30  14  17  15  21  59  89 100  63  82  86  87  89  90  89  99 102  97 100 104
 128 126 130 128 126 124 122 123 121 115 108 108  96  92  90  68  40  70  53  32  32  41  49  48  48  37  46  44  49  31  33  31  33  27  30  46  63  48  71  81  89  89  89  92  96  93 100 104  96  99
 134 125 129 124 127 126 122 121 107 112 112 108  98  96 104  86  55  28  35  32  38  47  54  49  43  40  40  32  36  31  42  37  35  27  29  26  30  56  77  87  92  95  89  90  92  91 101  97 109  98
 130 134 129 128 108 122 116 104 113 109 103 100 109 111 111 100  87  64  57  49  52  58  66  72  64  65  64  56  63  65  54  49  42  35  34  41  58  74  82  84  88  92  96  92  97  91  96 100 108 106
 130 134 133 130 125 122 116 114 108 102 100 100 101 115 106 107 108 101  97  81  80  70  82  68  71  66  66  68  62  63  67  56  58  56  73  69  73  81  89  83  89  90  96  91  92  92  92  96  99 111
 132 134 130 128 126 121 120 117 108 108 105 104 108 113 113 115 102 104  97  84  90  81  71  50  69  74  62  69  68  60  64  52  52  59  57  74  80  79  87  90  79  82  91  89  86  89  92  92 104  99
 133 132 131 126 122 123 119 117 105 102 105 105 117 116 113 113 101  99  87  75  79  84  63  56  65  68  70  60  68  68  72  54  52  46  52  65  69  72  87  89  90  91  91  89  83  87  90  99 100 106
 130 127 127 123 123 122 118 111 102 114 109 111 119 111 117 102  96  91  85  74  70  78  69  69  73  62  59  73  62  66  59  62  55  58  61  55  54  68  82  78  94  89  85  86  83  80  85  95  98 111
 130 128 125 126 123 125 111 113 116 112 115 115 115 114 108  97  85  89  94  84  78  81  85  80  83  73  60  65  69  76  76  67  64  62  65  66  53  45  59  74  59  80  78  81  85  81  88  96 102 112
 130 126 123 125 117 119 115 118 110 106 115 120 106  98  78  87  79  83  80  87  96  95  79  79  90  89  95  92  83  82  61  41  54  63  72  66  64  57  59  62  63  70  74  77  82  82  85  99  95 114
 125 121 113 119 122 119 113 109 111 115  94  96  96  76  68  87  77  87 103  95  91  63  57  55  45  48  53  52  42  38  38  35  37  38  53  70  72  62  57  59  59  56  66  83  87  94  87  92  94 111
 127 123 123 115 121 117 118 111 108 111 102  87  72  78  86  75  90  98  92  75  52  44  40  42  39  37  43  36  32  31  33  31  34  34  38  51  71  71  65  57  56  43  54  72  81  92  97  96 100 108
 127 117 119 119 122 119 121 115 106 113  97  59  70  72  50  82  82  75  53  43  35  40  39  38  35  35  38  35  34  30  30  33  37  39  40  37  39  68  75  58  53  50  53  69  86  94  99  96 105 113
 126 121 123 121 123 118 116 113 104  98  67  71  60  65  65  63  59  42  32  33  37  35  41  39  35  36  39  39  31  41  34  34  39  48  40  36  29  36  53  54  43  60  53  69  88  96 101  98 111 115
 126 124 115 123 108 113 121 114 103  94  66  66  58  37  32  31  24  23  25  32  35  34  29  24  22  22  13  19  14  19  19  21  22  20  23  24  22  24  32  27  32  55  52  60  81  97  96 110 105 127
 127 125 124 113 116 122 114 107  98  87  80  59  33  16  13  42  38  41  49  45  46  53  39  37  40  33  38  35  44  42  41  39  38  48  30  26  29  23   9  10  25  35  45  64  78  89  97 110 107 118
 126 126 120 118 117 111 113 102  91  86  65  34  26  22  34  49  59  53  62  66  68  69  61  58  61  65  69  54  89  86  64  64  55  60  45  47  46  43  34  26  26  31  44  54  75  92 103 115 105 126
 127 127 122 120 108 111 103 102  85  73  51  41  39  48  48  43  50  50  64  63  79  84  86  90 104  88  78  57  86  85  89  65  57  54  47  53  48  44  44  35  34  39  48  55  73  87  99 118 118 126
 125 122 119 117 113 111 109 103  84  65  54  54  56  57  67  63  47  46  60  63  63  71  71  71  79  67  64  53  61  58  60  53  53  51  49  46  47  60  72  48  39  43  49  54  70  81 100 106 124 122
 112 118 117 117 111 111 104 104  78  66  59  58  67  84  87  89  72  50  49  45  44  46  54  52  56  52  48  43  45  41  47  42  44  43  43  47  66  81  71  59  53  50  51  62  72  86  99 109 117 128
 116 117 118 108 115 101  98  92  80  72  68  68  75  79  98  94  87  79  60  56  43  42  44  45  46  39  38  39  38  35  35  40  42  53  69  72  78  77  69  63  60  56  59  63  74  86  95 102 122 124
 117 119 108 112 105 100  91  89  76  72  74  77  84  90  92  93  86  78  77  70  66  60  55  47  43  39  40  43  43  38  44  46  48  58  59  70  82  79  72  71  63  69  65  63  69  85  93 102 115 123
