P2
50 50
255
  28  21  23  26  16  15  18  22  21  25  24  26  32  35  29  27  42  31  36  59  60  53  64  69  60  59  58  65  70  60  60  54  55  38  28  24  23  18  21  25  24  23  22  19  18  12  19  23  20  25
  23  29  25  22  19  22  29  37  44  36  37  37  33  32  37  35  31  32  46  66  64  58  67  63  64  58  59  56  59  56  60  60  51  36  39  32  28  29  29  27  33  37  36  41  36  34  33  36  32  37
  37  38  35  40  43  61  66  68  63  58  57  53  48  50  53  55  49  43  53  58  61  55  63  63  50  56  54  49  59  54  57  53  47  44  38  38  43  43  41  36  46  54  59  58  56  55  51  55  45  40
  54  71  64  57  76  87  75  84  83  75  64  57  48  52  54  55  56  53  55  53  59  58  55  55  64  59  51  51  51  53  55  46  39  42  36  44  42  43  44  44  51  57  65  66  63  69  70  63  52  56
  72  70  76  88  99  87  86  90  82  80  66  59  50  49  41  46  50  49  56  60  58  58  56  53  60  58  52  40  52  50  49  43  47  46  43  40  40  40  48  55  62  73  69  68  66  69  67  73  72  85
  89  97  93 103  98  87  86  81  74  76  65  55  50  49  41  39  48  46  55  55  56  64  61  70  72  70  46  44  59  54  49  47  45  41  40  43  42  45  54  57  58  63  63  68  63  60  68  79  77 105
  95  94 102  90  85  85  79  77  67  62  52  44  38  39  41  42  42  46  51  62  55  71  76  83  91  92  82  70  62  60  51  48  46  39  38  41  44  46  38  23  28  27  26  45  46  56  59  66  87 105
 107  97  93  86  74  68  45  29  20  21  18  19  16  22  36  36  39  41  51  56  66  79  92  94 100 103  92  85  74  66  52  51  45  43  39  41  37  15  23  17  23  28  32  36  41  34  33  53  77 111
 100  91  75  48  26  27  17   6   3   5   8   6   6  10  10  32  37  46  47  60  64  86  94 101  97  97  99  85  74  63  52  47  44  43  42  41   4   2  13   7   7   4   4   6  23  36  43  38  41  86
  80  55  23  36  18   9  27  11  18  14   7   7   5  36  16   8  45  46  55  67  79  89  93  94  96 101  95  88  77  65  52  48  46  49  46  37   9   4   6   4   6   5   5  23   6  12  30  56  65  45
  48  32  30   9   7  77  84  23  18   8   5   9   8  39  25   8  21  57  64  78  87  91  88  96  97  93  97  92  79  71  62  49  46  50  50  15  16   2   5   4  10   5  21  36   9   6  14  23  36  55
  27  21  14  15  20  27  52  14  18  14   5   5  18  29  34  49  65  62  70  81  82  87  93  95 100 104 106  94  84  77  68  57  44  54  55  43  35  31  35  32  24  23  23  27  25  27  26  22  13  26
  35  31  30  35  36  37  36  33  34  31  40  44  37  32  36  57  71  75  88  75  85  88  94 105 105 108 114 102  88  74  67  63  50  50  55  49  45  30  28  33  29  36  40  42  45  54  50  60  58  57
  66  67  68  72  74  74  69  64  56  42  37  35  36  39  48  65  81  84  88  85  85  97  98 102 106 115 108 104  99  87  74  74  59  46  54  56  48  43  41  35  30  31  37  44  54  57  67  81  76  88
  89  79  81  78  81  72  62  53  46  43  40  39  32  45  61  77  84  91  82  86  99  97  97 103 119 117 111 113  97  92  87  81  68  60  55  56  59  51  39  38  36  36  44  46  52  57  70  82  87  95
  96  96  96  86  83  72  60  59  45  39  41  41  47  67  82  91  93  93  88 100 102 100  97 100 112 115 117 114 104  95  92  82  77  66  57  59  62  62  58  50  44  37  44  44  48  56  64  73  85  92
 111 102  95  86  73  71  62  58  53  60  55  66  81  87 105 102  96  94  95  97  99  99 102 104 112 119 116 113 100  92  89  88  86  76  63  58  65  67  72  75  58  58  56  58  57  62  66  77  88  95
 119 117 106  97  96  85  90  87  87  84  88  94 104 100  99 100  97  94  92 105  99 100  94  99 115 113 117 115 109  98  86  87  85  90  70  63  65  70  76  74  73  82  77  75  75  81  87  87  85  92
 121 121 119 117 108 100  95  94  94  99 102 108 104 101 102 101 100  94  99 101  94  92  92 102 108 115 115 113 111 103 100  87  85  82  76  65  64  70  74  85  88  85  86  83  90  90  88  93  93  93
 123 123 124 121 115 109 107 108 100 101 105 110 107 102  96 101  99  98 104  92  87 101  97 111 121 117 119 108 107 110 111  88  83  82  74  69  65  71  75  81  85  92  94  94  94  90  94  94  94 104
 126 121 124 121 117 109 113 112  98 110 114 115 110 104  96 102 104  97  86  82  87 100 115 127 126 121 119 117 117 101  99 104  83  76  69  64  68  70  76  85  94  95  95  97  94  93  94  99  97 102
 126 127 122 117 121 119 120 115 116 116 107 111 101 114 100 103 100  76  70  98  94 114 126 125 125 121 125 136 122 100  99  95 112  99  81  62  53  65  76  84  93 100 101  97  94  96  94  99 100  95
 126 127 128 124 119 123 121 117 118 114 115 115 118 109 103  98  84  73 110 116 121 127 127 132 129 122 121 127 113  96  85  87 106 106 103  91  61  64  74  87  92  96 100  89  96  92  99  92  92  95
 127 126 131 127 122 123 124 121 118 116 108 106 121 115 102  83  65 122 127 127 121 128 123 120 111 106 102  94  94  81  77  83  96  99 100 107 113  58  73  73  92  98  97  94  94 101  98  98  95  97
 130 129 127 126 124 123 126 123 123 124 123 119 109 103  92  69 115 133 127 125 122 112 101  97 102 100  99  83  79  81  76  79  95  81  98  97 117  97  73  75  88  97  99  97  92  98  99 102  95 108
 130 126 114 125 127 127 124 127 116 118 111 117 102 101  83  64 129 130 126 119 105 101  93  88  92  85  83  75  77  70  69  79  83  90  86  94 119 114  67  72  86  92  93  95  99  93  95 107 100  99
 129 127 126 124 123 126 117 125 121 116 117 113 106  92  78  64 129 129 116  89  74  79  61  59  63  64  69  63  57  61  69  58  60  63  72  87 122 118  65  75  86  88  93  94  95  97 100  94  99 100
 124 127 125 130 119 124 127 119 121 118 115 108 101  90  85  59 106 115  89  41   9   7   6  13  26  25  64  56  60  63  19   8   8  12  20  63  91 100  66  78  88  87  90  88  95  98 104 101 103 106
 125 129 127 127 128 127 124 123 121 109 102 103  99  93  90  68  75  88  62  34  26  30  29  48  47  47  62  52  66  38  36  29  27  26  32  47  76  49  69  83  88  92  89  95  98  97 100 107  96 106
 128 129 128 129 126 124 126 122 117 113 104 107 102  99  87  75  48  58  47  37  38  46  49  45  44  40  38  36  32  30  31  34  36  28  28  40  30  55  78  87  92  91  92  89  89  97  96 100 101 105
 130 129 129 126 125 120 119 122 111 113 102 108 100 102 101  95  74  52  31  30  40  54  52  56  55  52  48  43  47  48  51  46  39  25  27  31  49  72  81  85  91  97  91  94  91  99  92  98 103 113
 134 127 131 129 125 126 117 113 110 106 106 104 107 103 112 109 103  87  78  69  69  74  76  62  67  64  63  66  72  62  60  57  57  59  59  60  75  83  87  88  87  93  92  91  87  94  95  94 101 111
 126 133 132 129 127 123 115 117 114 103 102 103  98 108 106 108 108 102  97  91  84  77  73  69  70  72  63  64  61  58  61  44  55  55  66  74  75  85  90  87  89  91  95  85  87  88  94  94 100 112
 129 129 130 126 127 120 113 115 104  95 102 104 106 110 113 108 100 105  97  79  87  79  77  47  48  59  64  74  61  54  64  56  44  58  65  61  79  81  88  90  88  89  88  81  87  88  94 101 105 112
 133 132 131 123 118 118 108 113 100 102 106 103 113 114 106 109  97  88  82  68  81  75  76  64  77  66  67  69  65  60  61  53  67  62  58  59  58  75  87  89  94  82  85  87  85  84  90 100 111 112
 130 128 123 123 122 121 116 115 113 108 111 115 119 110 114 103  93  84  87  67  69  75  79  79  82  65  60  65  74  62  70  61  64  57  61  60  50  44  35  73  74  84  82  83  89  82  89  95  93 111
 130 127 126 122 119 122 113 108 111 113 112 111 116 110  94  91  99  85  83  79  98  97  90  85  88  89  82  69  75  85  68  52  59  66  72  64  62  49  65  41  67  79  77  83  87  80  87  94 112 110
 130 123 121 124 112 119 114 107 113 106 115 104  96  96  63  84  81  83  96  88 102  92  72  59  59  54  68  73  60  43  42  36  36  39  58  73  68  61  46  58  54  63  64  85  88  91  81  92 107  99
 130 123 113 111 122 121 116 116 111 110 106 100  89  72  72  74  73  94  99  93  85  51  44  38  41  40  44  40  37  35  31  28  31  34  42  47  69  77  65  55  57  49  52  67  85  93  94  99 109 115
 130 121 126 117 118 116 115 117 111 104  99  81  49  73  75  71  79  88  79  58  43  36  38  39  38  35  39  34  32  31  31  36  36  34  35  37  40  76  74  56  59  48  58  69  88  94 100  99 111 114
 127 122 126 118 123 123 121 117 109 112  93  82  58  57  69  77  68  64  44  31  32  34  41  38  34  34  36  36  36  36  32  39  44  42  40  34  29  44  63  49  46  57  49  64  87  94 102 100 115 123
 123 127 127 124 111 115 118 114 106  94  73  63  60  59  50  46  37  33  28  31  32  36  39  36  32  27  24  23  23  23  26  28  22  25  26  24  25  26  30  26  32  55  50  58  81  92 100 111 113 127
 128 122 122 117 121 111 112 112 104  95  72  63  51  30  23  16  23  32  31  40  37  36  29  27  27  26  37  27  27  37  37  31  32  50  28  29  24  24   9  10  23  35  46  64  85  95 100 102 107 123
 129 125 123 115 113 113 113 108  97  85  77  47  29  17  16  51  40  59  58  68  65  49  51  56  56  56  53  49  93  63  61  53  50  60  48  51  48  40  31  29  26  34  49  56  76  89 102 108 111 126
 127 124 123 123 121 114 107 110  97  76  56  43  31  36  43  47  54  45  62  63  79  86  75  74  87  99  84  74  84  88  89  72  61  56  45  45  48  45  44  44  37  40  46  59  72  87 100 116 123 122
 128 121 124 119 113 108 108 102  87  70  57  48  44  51  59  49  49  51  56  56  68  73  74  76  74  77  59  47  60  66  68  57  50  53  46  43  46  57  71  50  38  43  47  53  71  87 100 108 116 126
 123 120 119 121 113 113 108 102  94  67  55  59  55  66  83  87  66  48  44  46  53  55  57  56  60  55  52  43  44  44  47  46  37  46  45  52  67  86  73  60  53  47  55  64  72  91  96 109 117 128
 119 111 118 115 122 114  98  95  90  74  67  63  70  79  95  91  87  81  55  46  45  39  41  53  46  43  38  39  36  36  36  43  43  45  66  69  80  75  71  63  64  61  56  63  72  90  94 106 121 124
 121 119 113 110 111 100  99  92  88  82  73  75  81  82  94 101  88  79  82  77  65  56  55  47  43  42  40  36  43  39  39  45  48  58  58  70  81  84  69  63  65  72  60  63  72  85  93 101 113 122
 117 115 113 108 102  99  89  82  80  80  72  77  88  88  89  93  80  81  85  69  63  63  53  48  42  40  36  36  34  39  34  44  49  54  64  71  78  79  76  68  70  68  62  63  78  84  93 100 112 109
