P2
50 50
255
  19  28  29  27  22  22  27  24  27  26  29  27  30  26  28  36  31  41  74  71  68  73  75  66  71  81  72  73  74  62  63  56  47  36  31  25  22  16  16  17  20  19  16  15  14  16  19  19  17  19
  29  28  24  27  38  36  46  46  40  37  40  39  36  34  36  44  44  48  59  70  60  72  66  66  64  64  66  73  57  67  65  56  45  31  34  26  24  22  27  26  25  27  30  25  20  18  21  23  26  25
  44  44  47  60  62  76  77  79  62  65  54  49  53  55  50  56  46  55  63  70  68  64  71  63  61  65  63  54  59  61  61  54  47  40  36  38  37  38  35  30  43  44  50  40  42  40  30  35  36  31
  74  76  76  82  87  91  87  84  75  69  64  56  57  59  58  56  58  58  62  67  68  66  62  65  60  60  55  58  61  60  59  53  45  46  43  46  47  49  45  48  48  63  65  65  55  55  56  57  56  49
  84  98  95  93  92  89  90  88  85  67  61  55  44  49  52  55  61  65  62  64  62  62  61  58  62  48  56  57  59  55  52  51  46  49  46  48  45  47  53  58  69  75  68  71  74  65  71  58  63  67
 105  94 105  93  89  89  84  80  75  65  56  51  51  46  47  51  56  58  59  62  66  64  69  62  60  52  47  58  52  54  52  54  49  50  44  42  40  52  55  58  68  75  71  69  71  72  69  74  75  72
 109 102  90  90  83  70  67  62  57  51  38  39  38  40  43  47  51  57  54  61  69  77  81  86  77  64  54  66  60  53  54  50  48  45  45  45  44  51  51  53  58  60  65  65  64  66  65  71  74  90
  99  89  84  62  38  28  25  21  10  16  12  14  19  39  40  48  47  50  59  63  77  88  91  95  91  87  85  75  66  60  56  54  47  41  39  41  42  25  24  34  43  45  31  27  45  53  58  67  77  91
  85  61  30  33  25  12  13   7  14  11   7   7   6  13  35  40  49  55  64  79  84  92 102 105 105  97  90  80  71  57  53  52  44  43  39  38  12   6   4   6   6   7  17  29  35  39  28  52  66  90
  48  28  28  12   8  37  65  14  12  12   6   8   6  23   8  53  49  47  75  81  91  96 102 101  98  94  90  85  62  58  58  51  42  41  41  22  11   6  17  11   7   3   3   7  12  32  42  36  32  69
  27  21  10  10  21  27  79  20  17  14   9   7   6  25  20  26  54  65  74  83  92  91 102 103 105  97  88  81  69  55  56  51  49  48  45   8  17   5  11   6   9   7   7  23   6   5  22  39  53  47
  34  36  38  39  45  39  43  32  32  36  33  45  37  38  54  63  68  78  87  86  86  91  99  98 101  95  92  84  68  62  50  49  52  52  36  36  39  29  32  23  21  20  22  21  18  10   7   9  24  32
  75  72  80  78  80  72  72  61  45  45  39  38  35  43  55  68  77  84  80  83  91  96 101 105 107 101  93  81  70  64  58  56  57  64  51  52  41  34  36  39  44  45  43  37  47  43  47  35  35  30
  92  90  87  84  87  76  68  58  48  43  40  36  41  46  63  79  88  90  85  90  90  96 107 109 109 105  96  80  75  65  58  53  54  59  57  50  44  36  34  34  35  42  47  50  59  57  66  70  73  73
 100  91  92  86  79  66  61  44  48  43  39  36  42  64  83  89  91  91  94  98 101 105 110 115 113 113 102  87  81  75  65  57  49  54  54  53  49  38  37  39  35  36  38  46  51  65  69  71  81  84
 109 100  91  77  73  58  52  45  47  42  43  65  69  85  97  97  96  88  94 102 104 107 113 119 115 113 102  95  80  77  71  63  62  59  62  65  59  46  41  37  37  38  44  46  47  53  58  74  81  81
 118 106  97  91  80  82  81  77  74  75  84  88  95  96 100 101  92  92 103 107 105 113 113 119 119 113 102  92  90  80  73  71  58  61  65  68  75  65  69  52  48  51  47  50  52  59  64  69  78  90
 127 119 116 106  97  97  91  94  93  95  97  99 102  98  99  99  93 104 103 103 105 109 115 120 113 107 104  92  91  81  76  72  72  65  66  71  76  83  77  79  73  70  73  75  73  77  79  84  85  90
 122 124 122 116 109 103 100 102 105 109 106 102 103 102 104  97  91 104 104 100  99 105 115 119 115 107 102  92  87  86  76  76  74  65  70  67  84  88  88  85  95  88  88  88  87  91  88  90  87  92
 125 125 123 122 111 111 112 107 108 114 109 110 107 102 100  99 102 102  92  96 101 104 118 115 111 110 101  94  86  83  82  74  71  69  61  69  80  84  88  96  97  92  96  94  96  93  96  98 104  96
 126 123 123 117 123 117 117 115 110 113 114 104  99 102 101 102 101  91  92  96 102 112 119 111 117 102  97 105  89  84  85  76  70  64  65  71  76  83  91  96 101  96  94  96  95  99  99  95  95  95
 125 125 125 125 124 126 123 117 118 115 107 102 102  99 103  96  82  88  95 113 120 128 122 116 120 115 104 102  97  94  83  76  67  59  63  73  80  90  92  96 101 102  98 101  97  97  94  95  96  99
 126 128 127 126 124 126 126 118 115 115 109 110 106  97  92  75  98 100 101 124 129 126 122 119 125 133 106  93 101 102  88  79  76  59  55  69  80  85  94  95 102 105  96  96  98  98  93  96  94 102
 130 130 126 128 120 126 125 123 119 112 105 106 103  90  82 110 123 124 129 131 128 131 124 118 129 133 106  95  93  96  97  96  91  86  58  57  69  81  92  96 100  99  98  99  95 101  89  97  94  96
 126 120 126 129 125 128 124 117 116 115 107 102  89  77 124 129 130 123 126 123 126 120 118 118 108 101  96  90  91  88  95 101 101 106  93  50  71  77  90 100 102  99  99  94  97 101  96  92  94  96
 129 125 126 126 125 125 114 122 114 109 104  97  88  76 131 132 126 122 116 109 106 110 102 103  94  94  85  84  77  85  89  97  94  99 113  47  54  78  83 100  96 102 101  96 100  97 104  99 103  98
 128 131 130 119 123 124 119 111 104 108  97  89  82  85 133 121 117 112 103  92  90  88  99  96  88  81  78  76  75  85  84  91  90  90 114  89  51  71  84  92  98  95  99  97  93  90  92  96  96 102
 127 129 129 127 125 118 119 113 104 102  99  86  78  88 126 110  85  75  83  67  66  70  74  77  83  72  68  79  75  79  83  85  88  96 125  94  58  68  80  94  96  99 104 101  97  97  96 101  99 101
 130 131 128 127 125 123 117 110 100  97 102  88  87  60  98  76  37  13  13  11  13  24  34  64  60  57  67  61  22  15  14  57  67  88 122  81  64  71  80  92  91  94  94  99  97  96  96  93  98 103
 129 129 120 126 124 122 116 104 102 101  96  97  84  62  74  65  42  30  32  40  46  56  56  65  58  66  48  34  28  24  26  26  40  65  80  51  69  76  80  88  92  95  97  97 100  97  96  89  97 104
 132 129 124 117 113 111 106 107 101 102  92  99  94  82  64  46  41  39  47  53  53  48  42  49  47  43  31  32  33  33  31  27  31  49  31  61  76  81  86  90  88  95  96  94 102 101  97  98  95 109
 131 130 126 125 113 114 105 100 101 104 102 101 105  94  75  63  44  40  51  53  54  59  49  46  41  38  39  45  37  31  28  23  26  31  52  72  85  89  85  89  91  91  94  91  94  93  98  97 110 102
 131 127 125 124 119 116 104  99 104 100 100 111 109 103 104 104  88  86  84  77  79  70  67  69  62  73  68  62  59  50  50  50  59  54  68  81  81  85  87  96  94  85  90  93  91  92  93 102 102 103
 129 127 124 114 111 111 104  99 102 101 107 111 113 113 102 103  97  95  85  82  78  73  77  70  69  76  63  59  55  61  53  62  69  74  69  77  85  88  90  90  94  87  85  90  92  88  91  94 101 111
 124 124 119 112 107 109 102 101 101 104 115 116 112 115 102  97  88  88  86  86  55  73  75  70  79  73  71  59  61  48  64  63  65  72  71  79  85  90  90  88  90  81  85  90  86  91  93  96 103 103
 125 125 118 115 107 107 104  99 106 108 113 109 109 103  85  85  84  78  75  77  58  79  74  69  74  71  68  80  63  59  56  60  59  65  72  74  82  88  90  84  81  84  85  77  83  85  92 102 101 109
 119 120 113 111 115 111 106 106 105 105 112 102 101  96  80  91  78  73  80  78  85  78  71  65  74  66  67  62  68  61  61  62  59  55  50  54  75  79  77  83  80  85  83  77  81  84  92  98 100 115
 116 109 114 117 111 107 104 107 105  96  96 102  83  88  91  86  85  97  91  94  83  88  81  76  70  76  82  89  70  72  64  67  63  58  59  50  53  65  55  69  73  81  81  77  80  89  87 101 112 105
 120 119 117 114 111 109 101 107 101  96  84  66  71  88  93  99  91 101  96  76  65  70  82  94  92  88  74  55  39  48  62  72  65  58  56  57  64  65  62  63  69  77  79  83  79  85  88  97 101 115
 123 119 117 119 112 115  98 102  91  64  74  74  79  79  90  94  90  76  54  49  47  45  51  51  56  49  41  36  33  37  36  46  62  67  64  56  57  47  35  51  46  69  74  77  85  85  92 100  98 119
 124 119 108 115 112 117 104  99  84  73  72  64  80  84  79  70  53  41  42  44  41  40  37  41  33  35  31  34  33  32  33  33  43  52  61  69  70  55  51  52  42  66  77  82  87  88  92 106 102 113
 123 117 115 104 116 111  97  84  62  64  59  57  57  47  41  33  37  36  40  42  45  34  36  37  33  36  31  34  37  35  39  37  39  30  37  49  59  46  59  52  51  62  81  87  91  81  94 106 110 115
 124 111 107 115 107 104  94  79  72  53  33  22  21  18  17  24  34  34  41  30  31  28  32  32  30  26  30  28  35  36  38  31  29  27  26  29  32  28  44  45  45  58  75  87  88  98  98 105 114 124
 114 115 110 109 108 102  86  76  60  39  24  14  28  47  47  57  51  45  51  42  38  41  34  39  24  37  33  32  28  34  54  28  31  26  25  14   8   9  23  42  44  60  77  84  94  93  96 106 115 123
 117 108 111 108 104  97  86  65  46  40  42  47  44  52  56  68  69  74  73  73  63  60  64  70  51  77  56  61  55  37  60  49  46  46  40  34  29  28  28  36  49  54  69  77  92 101 101 110 114 127
 110 111 105 106 101  97  85  60  54  52  57  68  64  52  55  64  65  83  83  98  88  91 108  92  69  84  90  90  76  63  55  47  48  47  42  42  46  38  35  47  45  54  76  85  96 100 104 109 122 109
 104 100 107 104  94  91  78  71  58  65  69  82  88  83  60  54  58  69  76  75  85  81  73  59  55  61  66  65  52  50  49  46  41  43  46  68  64  50  45  48  50  65  68  78  86  92 106 118 117 115
 108 101 101  92  91  86  82  71  71  73  78  86  92  91  81  58  50  46  54  55  56  61  55  51  45  50  49  49  45  45  43  45  41  58  81  75  65  57  54  50  54  62  63  73  87  98 101 117 121 123
  93  91  92  91  87  80  72  73  75  82  86  87  94  86  83  80  74  57  49  43  47  47  40  42  41  38  39  34  41  43  50  61  66  76  72  74  71  61  58  59  58  64  60  77  81  97 102 115 111 123
  88  89  89  87  82  76  77  78  71  81  88  90  83  87  80  82  74  68  59  62  51  45  45  42  40  42  42  48  48  51  59  59  65  75  76  66  71  64  64  64  58  59  72  77  82  82  77 109 117 117
