P2
50 50
255
  49  22  23  21  23  26  36  53  42  48  42  39  41  54  49  59  43  63  76  93  90  87  86  86  80  84  76  73  75  74  73  63  48  37  29  30  28  28  28  27  30  27  27  22  20  20  21  19  19  28
  24  23  24  26  41  64  78  89  89  87  76  60  75  80  75  62  64  73  67  87  84  87  81  71  77  68  57  71  71  73  64  60  50  47  43  43  47  50  40  37  43  45  40  40  37  28  26  23  21  20
  28  27  43  56  83  95 105 105  95  95  84  70  66  71  70  69  63  74  73  80  73  73  75  74  69  66  61  63  70  65  67  53  46  44  46  49  51  48  53  58  61  64  66  66  62  48  38  40  34  25
  40  71  84  86 103 101 108 107 103  93  88  68  64  60  60  69  73  67  76  75  81  75  70  77  76  71  45  58  67  68  54  54  53  51  48  45  57  54  56  69  76  81  74  87  79  71  67  69  49  31
  85 107 116 117 106 108 103 106  94  91  86  73  67  57  54  55  59  69  74  70  81  75  85  95  88  42  47  75  68  61  60  61  58  58  45  43  51  65  61  70  80  88  84  74  85  78  77  71  67  58
 113 119 119 108 108 107 103  94  86  78  69  47  49  52  60  53  57  68  69  71  77  86  96 103  94  87  78  80  75  69  63  61  55  52  53  54  56  56  59  65  75  78  82  86  74  70  76  82  78  70
 112 123 108  95 102  91  82  76  50  38  30  31  31  45  53  51  58  60  72  80  88 102 113 112 111  99  86  82  71  74  67  60  54  47  51  54  48  46  34  33  39  41  35  45  56  67  60  73  73  85
 125 111 102  90  64  44  34  28  26  28  26  24  23  22  38  45  61  61  68  82  94 107 114 112 108 102  90  86  74  64  68  67  64  52  49  45  39  24  28  29  30  34  37  41  37  31  42  60  75  83
 112  98  82  45  34  31  21  15  12  12  13   6  13  17  16  44  60  70  81  87  95 100 105 105 103 103  96  80  68  56  59  62  54  54  48  40  17  14  13   9  11  13  16  24  28  33  32  30  51  71
 100  79  30  34  26  17  22  14  62  17 149  14  10  28  13  14  73  79  82  90  99  92 103 115 115 112 100  89  82  61  51  54  56  63  51  13  13   6  25  14  39  10   5  12  17  25  29  34  25  55
  68  28  34  21  13  23  48  20  20  13  10  13  14  28  24  26  88  86  89  96  92 103 115 122 123 119 115 106  87  70  55  51  53  67  60  16  23   9  18  13  13   8   8  21  10  16  23  28  35  32
  38  35  18  13  16  27  33  27  28  36  40  36  31  32  44  75  90  90  81  87  96 105 107 122 122 122 112 102  91  77  60  49  55  64  59  43  32  31  31  36  33  28  27  24  20   7  12  19  27  31
  28  22  25  29  70  65  78  64  44  39  39  34  39  37  53  92  84  92  84  97 107 110 110 119 119 120 105 101  93  82  72  59  49  54  63  60  47  30  31  31  32  30  41  52  49  48  38  13  16  22
  33  73  79  84  86  78  72  49  41  40  37  33  35  46  80  94  93  94  94 103 104 100 108 110 117 117 118  94  87  88  73  65  55  43  66  68  52  37  35  35  32  33  34  37  44  52  54  63  59  35
  96  98  91  88  84  69  60  47  39  35  31  31  53  84  99 101  98  95 104 108  94  99 115 126 126 122 118 116  98  80  81  81  69  52  56  67  69  48  37  31  32  34  37  42  44  45  55  63  65  75
 103 112 102  83  64  56  53  44  42  47  57  80  92 108 111 107  98 104 111  94  99 129 132 129 123 127 120 117 117  99  75  74  77  63  60  68  75  73  68  50  43  41  42  43  44  48  54  59  70  80
 116 116 101  94  88  91  87  84  84  87  95 102 108 106 111 105 100 110  94 108 129 135 129 130 128 128 123  94 115 120 105  74  80  75  61  62  77  85  82  80  66  61  63  67  59  60  72  69  81  85
 127 126 119 119 112 101 100 105 113 108 113 108 110 115 112 100  98 107 117 131 129 133 132 130 129 132 129 104 105 101 116 100  76  70  71  67  72  86  92  91  91  87  91  86  85  86  95  98  97  98
 130 128 128 124 120 121 120 116 119 117 111 118 105 107 103 114 113 126 130 133 127 125 125 126 116  98  99  96  91  85  95 107 106  92  72  75  75  78  82  92  94 101 107  96 100 105 105 108 108 108
 131 131 129 127 124 123 123 124 120 118 112 100 115 106 106 123 136 134 133 125 112 106 109 110 103  85  87  73  76  77  82 100 108 114 110  74  82  84  86  94 103 110 108 110 111 105 118 117 112 113
 132 133 131 129 131 129 129 127 126 122 119 116 110 106 123 137 134 130 120 104  92  96  93  98  87  69  67  67  69  71  75  95  97  91 113 112  78  84  88  96 108 117 114 109 110 109 105 110 116 120
 130 133 135 134 132 132 131 127 126 119 112 115 110 107 138 135 119  90  63  56  44  39  49  83  71  60  62  54  57  47  66  67  78  91 100 124  78  84  86 103 109 104 112 106 112 112 112 112 118 114
 134 136 133 134 131 134 131 128 130 123 119 109 110  98 138 122  83  23   6   6   6   5   8  23  69  54  61  20   7   4   4  11  43  64  92 120  79  86  88  94 108 110 108 109 108 113 115 110 109 106
 127 132 136 134 131 133 128 128 123 122 110 110 103  75 123 111  60  15  11   5   6  19  35  48  66  49  47  26  22   3   3   4  11  41  73 118  79  78  93  91 110 108 112 117 115 112 116 115 113 112
 134 132 130 129 131 130 129 124 120 120 117 112  98  63 112  99  59  35  33  30  34  59  67  45  47  41  40  34  35  30  21  20  19  39  59  79  55  69  86  90 104  99 108 115 116 109 111 112 112 120
 135 136 136 131 133 132 129 124 116 118 115 109 100  59  46  67  48  44  55  63  69  66  63  49  51  42  39  40  44  43  43  33  31  40  38  45  43  75  82  92 105 104 108 115 117 118 110 111 112 119
 135 135 135 134 130 131 132 126 117 123 119 112  99  80  48  35  39  40  53  60  61  68  69  67  71  60  68  60  51  46  37  34  29  29  29  28  52  75  91  90  98 109 117 108 115 115 120 118 116 117
 132 138 131 131 133 132 127 125 120 119 121 115 110 106  95  62  61  53  69  64  73  71  71  69  67  79  65  54  58  53  47  39  34  26  30  52  66  83  94  98 110 117 112 110 115 115 117 119 103 108
 136 137 128 132 127 131 126 124 121 120 122 119 119 122 115 113 100  98  87  86  79  65  65  65  63  79  64  55  60  53  53  56  58  68  72  84  92  98 100  98 114 110 112 111 108 114 113 115 112 111
 138 138 136 132 127 128 127 115 121 123 110 122 123 123 114 109  96  89  87  72  59  71  77  72  81  84  69  70  63  60  52  54  59  64  66  83  92 100  98 102 108 120 110 108 111 112 109 112 113 112
 139 138 134 132 134 130 127 118 119 118 120 123 124 117  91  94  69  71  79  85  94  94  71  68  68  74  69  65  63  59  62  57  48  59  63  74  86  98 102  94 104 113 117 105 105 109 105 110 112 103
 137 132 135 129 130 128 119 119 119 122 128 124 119 107  82  93  64 101  94  96  91  94  93  93  94  87  88  79  65  56  67  67  72  67  53  50  55  85  94 101  99  98 103  98 103 103 105 104 109 110
 138 135 135 131 129 127 123 123 124 126 127 115 107  97 100  94  82 110 105  86  69  55  52  61  60  67  51  43  36  37  41  42  67  75  62  54  46  59  87  85  96  97  98  98  94  95 100 106 111 105
 133 133 129 132 124 130 127 128 124 126 118  91  82  89 108 104 108  94  60  51  43  42  37  39  35  39  32  32  33  32  32  31  42  48  74  57  55  71  56  75  79  92  93  96  89  91  93 103 100 114
 134 133 133 131 129 129 127 126 121 110  84  75  92  87 104 104  82  47  37  42  38  37  36  37  36  32  33  29  31  31  31  30  28  31  46  65  59  53  48  55  69  60  88  92  89  86  93  98 105 100
 133 132 132 131 127 128 127 127 112 104  70  83  86  97  87  60  40  34  34  36  38  37  31  36  32  31  29  30  30  31  36  30  29  28  30  41  62  64  51  52  49  60  82  86  86  89  85  91  99 111
 119 128 133 132 130 130 123 123  99  73  73  75  90  77  46  33  32  33  36  38  30  28  31  28  26  25  24  25  26  27  28  30  32  28  27  30  38  56  51  52  45  44  67  82  86  89  83  95  94 100
 133 129 132 129 127 129 122 118  91  69  72  67  61  41  30  26  30  29  28  25  24  24  22  21  18  21  21  19  19  20  19  24  26  27  26  25  27  39  42  44  49  48  48  78  87  92  90  96 101  91
 132 129 133 130 131 131 120  93  71  77  54  34  28  26  21  23  29  40  41  43  39  47  53  50  55  36  62  57  39  40  28  37  25  24  19  22  22  27  30  39  57  45  53  80  88  88  94  99  96  94
 134 132 130 130 130 126 117 111  88  64  33  26  17  36  40  60  64  72  88  90  88  90  96  92  80  59  86  92  94  74  69  62  54  42  35  28  14  16  22  28  38  46  51  68  84  92 100  97 103 110
 134 130 129 129 128 129 112 100  81  42  29  24  29  42  52  61  68  68  79  82  72  79  78  78  57  51  58  67  69  53  49  48  42  40  41  41  31  22  15  26  33  46  41  60  86  94  94 105 105 111
 133 128 127 129 129 122  98  92  60  43  40  43  47  48  43  45  52  49  51  48  55  55  58  54  44  44  45  47  45  37  33  35  34  36  34  36  35  29  29  28  35  42  48  69  83  91  90 100 103 110
 133 129 128 128 120 119 108  90  64  55  51  73  82  88  69  45  46  43  42  42  43  45  42  34  35  38  36  32  32  36  35  34  36  36  36  43  46  45  33  30  40  48  53  58  76  88  95  96  99 113
 134 134 128 129 128 120 105  82  67  69  67  86 103 110  99  97  87  83  75  71  59  53  48  43  41  44  41  36  39  45  54  60  60  62  62  74  72  59  43  39  44  44  46  64  82  86 102 112 105 113
 132 131 127 128 126 119  93  94  69  78  86  99 119 111 103 105  99  88  85  78  62  55  45  38  34  33  36  39  37  42  48  53  58  60  67  72  65  61  56  51  46  49  51  61  78  81  95 105 113 106
 131 129 129 127 120 115 101  92  91  96 104 105 109 114  95 105  96  87  79  75  58  47  45  40  38  39  38  44  43  49  47  54  55  60  66  71  76  64  62  60  56  51  60  62  75  84  93 106 110 116
 130 128 124 123 119 115 108  92  92 104 112 110 103 102 102  98  86  84  91  70  67  56  46  45  45  40  45  44  48  53  48  53  57  58  72  69  70  64  63  65  68  63  60  67  74  82  88 100 100 120
 132 127 127 116 110 110 104  99  95 103 110 108  97  99  94  90  92  88  91  65  65  56  51  49  47  52  51  49  62  52  53  56  59  63  64  65  73  69  69  60  64  63  60  63  73  86  88 100 114 127
 130 123 123 120 105 110 103 109 105 105 108 105 105  99  98  88  94  81  85  80  71  66  68  61  61  60  56  58  53  53  59  58  55  57  63  67  73  71  70  73  75  57  61  61  74  81  92  97 111 123
 129 122 121 115 100  95 105 108 104 105 108 100  98  95  92 104  95  87  83  76  82  82  81  80  78  72  70  62  61  60  58  56  55  58  55  61  69  71  70  71  71  71  64  67  76  87  88  91  76 122
