P2
50 50
255
  32  22  27  23  28  30  45  54  63  58  55  59  63  61  59  60  42  75  77  87  83  80  91  70  67  74  66  65  71  69  65  64  51  42  37  39  38  38  32  37  39  40  32  29  29  26  25  22  24  21
  24  25  31  37  56  74  95 101  96  95  76  73  75  75  74  70  64  67  67  82  76  80  76  75  68  70  59  68  76  67  69  62  46  46  47  51  55  47  52  55  59  61  65  65  46  46  35  29  27  25
  27  42  59  75  84 105 100 103 108 100  85  77  63  68  69  71  63  71  66  77  80  76  72  70  69  62  71  60  69  63  54  54  48  54  49  52  52  54  60  70  79  81  83  75  69  70  62  54  45  33
  42  73  91 103 111 112 105 111 110 102  88  79  64  57  58  60  61  69  77  75  75  80  75  80  74  42  39  63  60  58  55  56  53  55  50  49  50  63  69  72  85  84  83  89  85  77  61  65  61  52
  91 103 114 111 111 105 104 104 105  88  83  77  62  61  53  53  61  65  69  74  80  83  96  99  99  73  52  78  73  69  60  58  60  50  45  52  62  61  73  78  82  87  80  82  78  78  82  74  71  70
 109 122 116 105 109 108 103  93  92  80  63  58  46  49  55  53  56  60  73  73  85  94 110 112 112  95  86  84  82  70  61  63  52  47  56  56  56  60  58  63  75  87  84  79  76  73  76  74  81  82
 116 121 108 105 101  97  96  88  71  50  36  36  32  41  43  55  55  58  67  76  93 111 112 114 110 103  94  86  77  70  70  66  60  55  50  53  51  40  30  41  42  54  31  40  53  58  61  70  84  87
 124 112 103  95  90  51  48  53  50  48  45  30  25  24  32  42  56  63  81  81  98 105 110 108 108 104  91  85  76  64  65  60  47  57  50  43  22  29  32  32  43  40  43  43  46  37  37  55  67  89
 115  98  81  57  44  46  34  23  16  10  11   7  13  17  18  30  59  67  75  91  96  99 108 107 113 102  95  89  68  57  55  58  55  59  50  20  16  15   6  13  13  18  20  28  31  37  42  32  52  77
  95  68  29  43  35  23  16  13  18  21  17  12  13  29  12  12  69  84  85  93  93  99 113 116 117 111 102  91  84  66  53  54  54  63  54   8  18  12  19  12  14   7   4  10  18  27  32  37  43  43
  71  39  37  24  14  17  44  19  13  16   7  11  14  30  31  54  94  93  87  89  89 107 116 126 120 118 110 103  86  71  59  45  57  69  60  29  28  19  14   8   8   9   7  21   7   9  23  28  40  47
  37  25  17  15  21  27  29  25  38  34  35  32  34  33  43  79  89  88  90  94 108 114 118 122 126 118 111 110  95  87  62  55  49  58  62  55  33  29  31  32  36  35  31  25  25  18  13  14  22  29
  33  29  53  64  83  77  77  62  46  33  33  33  39  41  60  83  95  91  93  99 106 108 114 117 118 122 111 105  95  96  76  63  49  50  62  61  45  39  32  32  30  33  36  42  49  48  55  56  30  60
  80  89  85  85  89  82  66  52  43  40  35  31  38  53  89  97  97  93 101 105 105 103 116 116 118 122 110 103  87  86  77  73  58  55  55  70  57  41  33  32  33  33  40  41  43  49  60  62  66  74
 104  99  99  93  81  63  54  45  40  35  35  49  71  98 103 105  94  95 110 109  97 105 118 126 126 126 120 112 105  83  73  81  75  63  60  69  79  60  47  34  33  37  37  41  45  47  54  61  74  84
 120 117  99  87  80  70  55  55  60  64  76  93 100 102 108  99  98 103 116  99  99 131 133 129 129 129 122 114 114 110  81  80  77  68  67  77  75  85  79  63  57  43  48  58  46  61  72  73  79  90
 126 123 112 106  98  95  96  91  97  99 112 109 109 110 112 105  99 111  97 113 133 135 133 133 129 132 126 101 111 113 105  84  73  73  68  69  72  85  89  93  89  89  83  84  82  84  90  95  96  99
 131 127 126 124 118 115 110 114 111 114 112 113 113 107 108 106 106 103 119 136 131 135 133 133 130 136 139 107 104 104 115 109  87  73  70  71  78  83  85  96  98  99 103 103  97 101 104 108 105 103
 126 133 129 127 126 125 123 124 120 120 117 112 110 106 111 112 116 127 130 134 125 125 122 123 119  95 101  93  92  85  95 108 109  91  78  75  85  87  89  92  99 109 107 105 109 110 115 109 114 112
 135 132 132 130 132 131 129 127 125 116 116 111 114 110 110 133 138 136 135 124 112 106 107 110 102  88  88  78  79  83  84  97 112 110 114  91  83  85  96  95 105 110 113 105 108 112 109 114 112 112
 136 135 134 133 134 132 131 126 126 125 120 117 118 110 114 137 135 129 115 106  97  94  93  91  90  74  71  68  75  71  79  93  96  91 113 117  81  85  95 102 106 106 109 112 110 117 114 114 114 118
 136 136 135 134 132 130 134 128 127 125 117 119 110 107 131 138 119  93  54  36  34  43  36  73  75  60  60  60  54  50  60  66  79  96 108 124  74  89  91 102 115 112 106 108 108 113 110 102 108 110
 136 138 136 135 132 133 129 127 123 123 119 109 112  93 131 126  88  28   7   6   3   6  11  22  77  58  65  26  12   7   4  12  32  68  95 127  81  82  88  97 109 112 114 106 108 112 114 110 110 120
 134 133 132 136 131 131 129 127 122 125 118 112 108  83 113 116  69  21  14   9  10  22  39  51  72  43  54  27  23  10   3   8  16  44  73 115  65  73  91 101 108 112 110 114 113 110 108 114 115 119
 136 137 136 123 131 132 130 126 126 123 115 114 105  74  84 103  63  39  42  40  48  62  65  51  46  42  40  35  37  30  30  24  25  38  57  71  44  74  93  95 110 110 112 115 112 110 103 108 112 114
 135 137 138 133 134 130 132 129 122 121 118 115 107  75  53  66  50  47  54  62  75  71  60  53  51  40  41  43  50  45  40  33  32  32  42  41  49  77  90  96 104 110 108 112 117 116 114 114 114 114
 136 136 136 136 135 131 130 129 121 118 122 116 112  98  67  41  35  34  46  61  65  71  73  70  78  67  65  61  59  53  38  34  28  26  27  31  60  85  89  99 112 110 115 111 115 121 113 115 102 110
 138 137 134 134 135 130 129 123 120 121 116 115 114 112 101  91  76  70  76  82  83  69  71  73  69  69  69  59  61  55  56  48  41  34  57  79  87  93  93 103 116 110 109 112 109 115 116 113 105 111
 138 136 131 131 134 132 129 120 118 125 121 115 119 120 121 116 104  97  90  89  80  62  77  71  70  80  68  63  62  58  51  59  63  75  77  87  98 100 103  99 113 113 108 113 104 112 111 112 114 107
 139 139 136 136 131 132 126 122 121 120 117 116 123 123 114 111 109  86  88  80  62  68  80  76  76  85  77  63  68  58  59  60  56  67  76  84  95 101 102 101 108 121 110 105 102 111 105 108 113 100
 141 134 136 136 133 130 127 122 118 118 119 125 122 115 104  95  94  70  79  87  87  91  77  78  75  77  76  73  66  65  64  60  61  60  59  75  89  99 103 101 108 104 113 103 100 106 103 111 108 111
 139 137 135 129 132 129 126 120 122 122 127 125 123 110  88  91  87 101  95  99 101  89  93  97  93  85  88  85  71  61  65  69  71  69  58  50  61  80  89 102  99  98 105  97  99  95 108 103 107 105
 137 136 132 129 130 131 129 123 126 126 129 119 105  98 104  88  96 108 105  95  72  61  62  61  65  66  58  45  42  36  41  43  70  69  66  60  49  64  82  79  96  98 101 102  91  90  89 103 112 112
 135 135 133 132 130 128 129 130 126 123 113  98  85  91  98 102 114 102  72  53  50  42  37  36  40  40  36  32  31  32  33  33  42  55  63  66  60  67  60  60  75  93  91  89  89  92  91 102 103 105
 134 135 133 132 131 127 127 119 123 110  94  78  89  88 104 103  88  53  43  39  39  39  35  35  37  32  33  30  33  32  33  32  30  32  46  58  60  55  58  49  60  65  89  88  86  87  92 100 101 105
 126 129 132 132 130 127 127 124 116  95  77  72  87  95  88  71  42  35  37  40  35  39  33  35  35  33  31  33  30  32  35  31  31  29  30  37  61  65  50  55  42  53  76  83  89  88  87  92  97  97
 132 130 129 134 130 131 122 125 111  94  72  71  81  75  53  33  31  31  37  36  35  32  30  30  28  27  25  26  27  27  29  31  33  28  28  29  38  54  48  54  45  49  69  81  87  91  87  96 108  92
 132 132 132 130 131 129 125 120  90  72  67  65  55  43  29  27  27  30  28  28  25  24  25  24  22  22  23  25  23  22  22  23  25  25  27  26  25  37  39  48  53  50  58  80  88  94  93  95 103 103
 129 134 131 132 128 129 122 108  81  77  58  32  28  27  23  26  34  50  40  49  49  45  53  60  62  40  70  66  54  49  41  44  35  29  21  20  21  25  28  33  49  50  51  79  85  91  99  97 111 102
 135 133 132 127 132 128 122 108  94  75  31  25  17  30  43  55  68  69  88  89  89  91  93  91  83  64  89  97  96  79  74  64  53  50  46  33  24  14  18  29  37  45  53  67  88  91  95 104 108 112
 134 129 127 128 127 127 116  96  89  43  32  28  28  41  55  56  69  63  77  85  80  84  85  78  60  54  62  63  66  66  48  48  44  41  41  38  32  27  22  26  32  47  49  68  82  96 103 104 105 113
 134 132 126 127 130 126 112  93  67  48  44  45  60  60  49  49  51  51  52  52  60  57  63  53  43  44  44  42  43  44  37  37  39  39  32  36  42  34  29  30  39  49  49  71  82  93 103  94 108 116
 133 132 131 123 123 123 112  99  69  63  59  67  87  97  87  70  58  49  44  47  47  49  44  40  39  39  37  34  35  36  40  41  43  43  46  50  61  60  39  35  46  50  50  66  81  85 103  99 102 115
 133 132 130 129 130 123 112  91  73  68  79  89 108 109 110  96  90  87  79  72  67  57  56  49  44  44  41  39  40  45  53  56  62  64  69  73  77  65  47  47  47  52  52  71  75  91  97 110 114 116
 130 130 127 126 122 119 108  99  81  79  93  94 114 111 104 101  94  92  81  74  69  59  51  41  38  33  39  39  39  46  49  53  61  61  70  80  71  65  61  56  55  53  54  65  78  83  95 106 113 120
 127 130 127 127 122 114 109  98  89  94 105 106 106 117  93 101  97  90  85  77  62  50  50  40  38  41  40  46  45  46  53  50  58  60  71  75  76  68  66  63  67  60  62  74  73  83  92 104 112 124
 125 130 130 126 120 113 104  96  93 101 105 111 103 105 101  93  89  87  86  75  61  55  39  44  45  43  44  48  53  51  54  53  53  59  70  71  71  67  68  65  64  63  61  66  71  85  89 104 114 126
 131 130 125 123 114 103 102 101 101 101  98 108 103 103  98  98  87  86  85  79  67  59  54  47  49  51  52  50  55  53  57  59  56  61  70  71  75  78  71  72  69  63  63  63  74  85  93 103 111 127
 127 126 121 114 104 100 110 103 103 112  99 105  99  97 100 101  90  92  87  82  73  71  69  64  62  63  63  56  55  60  57  60  57  64  60  73  73  73  77  77  73  63  63  72  76  87  92  93 105 129
 125 123 116 114 102 106 107 109 110 114 110 101  99 101  95  97  96  91  86  76  83  85  82  81  80  79  71  66  61  63  57  58  56  58  58  65  67  75  75  75  76  79  75  78  81  93  97 103 119 124
