P2
50 50
255
  21  27  25  24  19  25  27  21  25  26  27  31  29  37  31  30  37  26  38  57  56  57  65  62  59  66  67  64  65  69  63  61  54  45  32  31  21  21  12  12  26  22  18  17  14  12  22  20  19  25
  30  26  25  28  32  40  41  54  54  49  46  40  41  38  49  39  42  43  49  55  65  51  64  59  62  57  61  52  54  61  57  55  48  44  32  30  27  27  26  27  26  26  33  30  28  21  24  27  23  28
  33  42  48  55  53  63  67  80  80  65  65  57  45  57  56  56  55  48  54  55  59  60  61  59  59  56  54  45  56  55  54  56  48  44  37  32  39  46  40  37  38  38  45  53  51  42  40  29  40  36
  51  71  70  72  80  78  89  88  84  74  68  60  51  50  53  55  55  50  57  50  60  59  59  55  57  56  56  54  49  56  54  49  48  40  42  41  44  43  44  46  51  58  62  57  61  54  56  52  64  53
  74  89  92  92  99  89  90  92  84  75  69  61  49  45  43  43  49  51  54  58  58  62  56  56  57  56  50  40  48  47  50  44  44  47  44  43  40  40  48  55  59  70  72  66  69  68  69  55  70  68
  97 103  97  96  92  94  86  78  74  71  60  52  48  43  42  40  44  47  51  57  57  59  58  68  75  69  44  44  55  58  51  47  46  41  42  39  42  47  54  55  59  64  67  62  64  64  64  74  81  84
 104 106  97  81  81  78  69  64  60  45  47  34  36  38  41  40  44  45  52  53  55  59  70  83  89  86  79  67  66  59  51  48  48  40  38  40  42  49  46  40  36  49  55  60  53  62  65  68  77  99
 104  95  89  72  60  30  25  25  17  14  11  12  13  18  31  37  36  44  49  52  68  75  90  96 101 100  96  81  77  62  55  51  44  41  39  39  40  38  20  31  34  44  42  40  26  39  52  64  80  99
  94  75  52  24  34  20   5   4  28   8   7   7   4  11  11  37  39  46  54  62  66  83  98  97 103 100  97  88  77  65  53  50  43  43  42  36  35   5   3   5   4   6   9  22  36  40  45  24  57  91
  55  24  36  19   7  18  31  11  11  13   3   6   5  35  17   8  44  45  57  69  78  91  96  95  97 101  98  89  75  69  47  52  44  44  45  37   7   4  13  11   4   4   4   8   8  24  35  49  41  44
  36  27  12   6  17  95  95  17  16  17   8   6   6  37  21  11  31  56  68  79  88  88  83  96 101  96  96  94  78  69  59  49  49  50  45  36  10   4   6   6  12   7  10  35   8   4  16  34  69  67
  26  28  24  27  21  25  29  24   6   8   7  14  26  31  32  53  62  73  82  81  80  81  91  98 102 100 104  92  83  77  60  52  48  51  54  32  30  31  21  19   8   7  19  18  11   9   7   9  21  37
  47  40  41  45  45  50  46  38  45  40  46  40  35  34  41  59  75  81  87  74  84  89  92 102 102 111 102  96  85  71  67  56  48  47  51  48  43  31  28  30  32  29  29  31  34  38  37  34  33  30
  75  79  74  74  76  69  72  60  49  38  35  36  35  40  47  66  77  86  85  87  87  91  96 103 101 113 109 105  98  81  75  72  57  47  50  58  48  39  30  28  29  31  36  44  49  56  69  72  68  73
  92  89  89  81  79  73  63  54  46  42  38  40  40  42  69  76  89  90  86  86  94 100  98 106 113 113 113 109  97  89  85  74  70  56  57  52  50  46  34  38  34  32  38  41  46  57  72  78  77  91
 108  99  97  89  76  65  58  55  49  44  40  55  57  71  83  91  97  90  87  96 102 101 101 105 108 114 113 118 103  92  94  77  72  65  58  55  56  61  46  40  37  40  42  46  47  56  64  69  87  94
 111 111 100  94  77  71  65  63  63  64  62  77  86  93  97 101  99  94  95  96  99  98 104 106 112 119 114 111 100  92  90  85  81  70  63  58  61  66  60  59  48  48  46  50  50  56  61  72  80  96
 121 115 112  99  96  89  96  89  83  89  93  96  96  99  94  99  95  90  95 100  95  99  97 103 114 113 113 111 102  93  82  91  88  86  69  62  65  69  78  76  68  68  60  67  66  68  74  80  91  92
 124 125 116 119 104 104  99  96 100  98 105 105 101 100  99  99  99  90 102  98  97  96  97 103 110 108 113 102 110  97  90  82  89  83  75  64  61  74  78  80  83  84  83  83  80  89  87  89  91  96
  70 125 122 115 112 105 102 105 100 105 113 110 108 104 106 101 102 101  97  90  90  99  96 110 118 118 113 111 101 103 101  92  81  83  77  69  66  70  74  79  90  93  89  86  89  94  92  95  99 100
 125 127 122 118 114 114 111 108 106 109 106 111 103 103 104 102 105  99  83  78  89 101 113 127 119 118 121 111 106 103 102  95  79  76  74  64  68  75  75  87  87  97  96  95  96  92  97  94  94 102
 127 125 118 125 119 118 119 113 121 117 115 104 106 110 106 105  95  71  80  95  96 125 125 122 123 124 125 134 119 102  97 107 102  76  74  54  63  77  79  89  92  96  96  93  97  97  98 101 101  99
 125 122 123 122 122 122 118 120 116 119 113 117 108 112 105  94  70  98 102 106 119 126 129 132 126 121 123 132 110  91  89  94 110 107  89  82  57  72  85  86  90  99  98  95  91  97 101  97  96  97
 126 128 126 126 122 121 124 119 116 119 114 107 117 113  94  81 112 122 129 120 124 128 113 120 102 108 114  99  98  86  83  87  99 105 106 112 101  68  70  87  87 101  99  89 100 100  96  85  96 101
 129 119 125 129 125 125 126 122 122 121 117 109 102 102  80  67 131 133 132 126 118 108 103 103 104 100  95  78  82  77  81  80  94  92  99 104 120  57  73  77  88  91  97  93  87  97  99  96  97 101
 130 110 122 125 125 126 126 113 122 119 119 111 104  98  71  96 135 129 125 119 112  99  90  90  89  96  90  85  78  75  80  83  88  83  93  87 119 104  68  77  94  92  94  94  91  97 102  99 101 104
 125 127 130 124 112 125 117 125 118 116 115 100  98  87  75 108 135 122  98  83  73  72  63  65  67  74  73  69  61  61  79  70  73  82  89  95 122 121  66  77  86  91  94  96  96  96  94  98 104 103
 123 129 127 127 125 120 125 125 119 107 104 107 100  81  78  96 121 100  61  10   6   4   4  11  17  60  64  53  57  70  13   8   8  18  58  68 114 104  65  82  90  87  89  98  96 103 101  96 101 100
 131 125 127 127 130 125 123 119 113 109 101 106  99  95  88  49  94  74  44  21  23  26  29  45  44  50  61  54  70  37  26  21  16  20  29  52  78  52  77  76  83  84  89  96  94  99 103 104 105 104
 130 127 131 127 125 126 122 124 123 105 105 102 101 101  90  59  42  59  45  40  35  47  45  46  44  41  41  40  36  32  30  31  34  26  35  51  47  63  77  86  94  92  90  95  94  97 102 104  96 106
 133 130 129 116 121 120 118 121 116 110 103 103 100 108 102  79  48  31  31  31  46  53  49  53  44  44  41  35  33  38  41  37  32  26  24  24  40  67  80  85  92  92  87  90  85  95  93 102 106 109
 130 133 131 127 124 122 120 115 112 112 104 113 106 109 111 100  89  81  71  54  62  66  72  64  66  70  60  65  66  57  53  51  41  43  41  49  64  79  86  87  91  87  92  89  92  95  97 102 100 108
 127 134 126 126 126 113 122 113 108 101 102 110 109 108 105 106 101  97  89  94  78  89  73  68  71  62  59  74  65  58  50  61  59  60  71  69  77  88  92  86  85  90  89  89  87  91  92  99 114 119
 129 133 130 126 123 119 119 110 100 104 102 108 111 115 108 111 102 102  87  85  82  84  70  69  67  63  64  71  60  56  58  50  65  61  66  80  80  83  90  90  89  95  96  89  85  94  93 101 108 112
 132 128 127 124 118 119 118 110 103 106  98 113 113 118 111 111 100  92  89  85  84  65  63  73  74  64  73  68  59  68  65  51  65  59  58  64  75  81  83  88  92  86  89  86  84  84  92 102 108 118
 131 124 126 115 118 116 117 106 109 111 103 118 110 115  87 102  91  85  86  67  73  79  78  80  72  63  64  71  61  59  54  65  63  61  58  55  48  63  83  84  93  84  80  93  83  86  92  98 112 113
 132 125 125 121 122 117 103 112 116 113 112 116 109 105  99  93  56  89  60  92  78  84  87  84  80  68  65  66  75  85  70  64  65  70  63  60  49  51  52  76  75  85  85  82  85  92  95  99 108 111
 125 116 123 116 120 110 110 116 108 113 110  98  94 105  87  75  91  81  76  96 102 101  76  74  84  91  92  90  75  65  48  47  52  65  74  66  51  55  60  57  73  69  82  84  89  87  90  86 107 122
 124 119 114 118 121 118 113 115 109 100  99  94  88  68  87  71  94  97  94  92  74  57  48  47  43  46  49  52  44  36  35  35  36  43  57  75  67  57  48  56  64  69  74  85  91  91  88  96 110 108
 123 122 116 112 124 118 116 106 112  92  89  89  73  72  68  75  90  86  78  50  40  42  41  36  35  39  38  36  33  31  33  32  32  35  41  54  69  66  58  52  50  56  60  82  91  94  89  98 110 112
 124 125 121 121 120 121 116 111 108  97  90  59  72  54  74  74  69  56  35  35  38  38  35  40  35  36  34  34  35  30  31  31  40  41  36  35  53  70  73  57  56  52  51  78  92  96  94  97 115 115
 124 126 119 113 114 118 116 107 104  82  60  64  61  55  56  42  35  30  31  30  40  40  39  35  32  39  29  36  29  34  36  39  45  37  30  30  32  41  50  44  58  48  59  83  91  97 103 105 117 122
 126 123 118 121 111 116 112 104  97  74  71  57  35  26  24  21  16  23  23  24  21  17  13  15  15  14  10   8  13  11  13  12  17  19  19  23  23  24  22  27  39  48  57  71  90  92  98 107 118 132
 125 125 117 116 114 114 113 101  80  79  58  29  20   8  29  43  54  41  52  53  51  51  48  48  50  49  32  45  48  48  40  34  40  43  42  30  32  24   7  17  30  42  54  70  88  99 106 112 121 127
 126 124 121 116 108 108 110  96  92  69  44  30  30  32  38  52  54  62  64  77  75  71  65  70  80  89  76  82  94  76  63  62  62  56  46  56  44  36  30  28  31  40  51  74  84  96 113 106 124 125
 121 120 117 115 109 105 105  90  78  57  51  43  43  56  50  45  48  63  63  67  74  79  89  97  88  74  49  63  84  93  66  54  55  48  48  48  44  45  44  33  42  44  48  66  83 100 111 119 127 129
 121 116 119 111 108 107  99  94  72  58  53  51  64  74  78  64  48  43  47  54  60  66  66  62  57  61  55  52  54  56  54  50  50  48  48  49  63  77  52  47  45  47  56  69  82  92 105 122 126 129
 114 118 113 113 110 101  96  87  79  66  61  64  75  91  85  88  75  53  45  44  42  50  48  53  50  47  40  41  42  42  44  41  46  44  59  77  85  76  70  54  51  50  60  71  81  94 107 111 129 126
 116 113 112 109  99  96  90  87  84  74  75  79  79  93  97  90  84  77  73  60  50  47  44  44  40  39  37  34  36  37  39  48  55  64  67  70  86  75  67  62  61  64  64  72  79  92 106 118 126 125
 111 111 102 101  97  90  86  74  80  70  78  82  92  88  97  80  85  79  74  67  56  56  47  47  44  44  41  42  41  40  42  44  55  61  66  75  86  65  71  61  68  64  62  67  82  89 108  94 118 122
