P2
50 50
255
  30  21  22  26  24  18  23  22  25  25  27  26  30  29  33  28  30  38  30  38  62  58  62  67  69  62  71  74  66  68  69  57  57  50  39  27  27  19  14  14  16  17  14  13  15  20  20  28  34  76
  23  25  27  22  26  32  38  42  50  49  51  41  37  41  38  35  35  41  41  44  56  59  56  64  61  60  57  61  67  66  58  60  50  44  31  30  23  20  21  24  22  23  22  21  19  22  26  20  26  34
  31  30  43  44  52  61  61  71  84  71  62  59  55  51  55  55  55  50  46  52  53  61  60  58  63  58  51  56  58  53  57  62  56  43  37  32  33  36  32  32  32  35  37  34  34  32  28  27  27  25
  42  56  63  67  71  86  85  87  86  85  78  67  56  51  52  53  56  55  52  52  52  60  67  61  60  57  50  54  51  57  57  58  53  43  41  43  43  45  45  43  45  53  52  55  50  50  44  50  41  43
  70  81  93  92  92  98  96  85  90  86  77  65  57  49  45  47  51  51  53  56  52  59  62  50  53  55  52  55  47  56  55  47  50  44  42  44  41  44  43  47  54  58  65  62  62  61  69  64  54  61
  93 103  98 100  93  88  90  79  78  79  68  55  49  48  43  38  43  48  48  51  60  58  62  56  62  57  52  35  45  52  52  45  45  50  44  41  39  43  50  50  59  62  60  63  65  73  73  87  91  85
 103 107  94  90  78  80  69  70  58  61  51  42  43  35  39  41  41  43  45  54  50  56  62  69  74  79  60  50  53  57  48  48  45  42  41  42  41  45  45  53  52  58  57  62  55  63  76  87 106 116
 105  96  87  74  65  55  32  21  22  20  14  15  13  12  29  35  37  43  45  52  56  60  71  88  92  95  77  73  69  65  52  50  44  42  41  39  39  44  34  23  31  25  24  36  49  58  66  85 104 120
  95  78  57  37  26  28  18   6   5   4  77   6   4   7  10  27  36  41  44  53  59  68  85  92 109 112 100  90  77  63  55  50  48  41  40  38  32  18  11   9  11  18  26  34  38  24  47  69 113 126
  56  42  22  34  16   6  11  13  16  13  11   7   6  26  15   7  28  41  43  55  71  76  90  97 101 101 101  91  82  72  50  50  41  41  44  39   6   5   8   8   6   4   6   8  26  42  42  32  79 122
  38  30  11   6   6  10  22  13   9   6   4   6   5  22  21  12   7  47  53  66  78  87  90  87  95  94 101  94  83  74  57  50  44  45  48  24   5   6   7   5   6   6  18   6   6  16  41  62  38 106
  24  13  26  27  30  42  46  38  38  36  37  37  34  33  30  36  51  55  59  74  81  82  90  89  99 101 101  97  91  82  71  57  44  44  51  29  34  37  31  32  28  28  28  24  15   9  11  31  53  73
  53  60  63  71  69  72  65  65  55  48  41  38  38  37  36  40  59  60  72  80  78  81  85  96 108  99 108 102  94  82  78  60  47  47  51  49  41  34  33  36  38  41  43  45  49  53  51  28  29  67
  83  76  72  70  72  71  68  59  49  42  36  38  36  34  36  41  62  71  81  78  82  79  90  96 106 113 113 104 102  94  77  73  56  46  49  48  43  39  33  33  30  36  39  45  58  74  85  82  79  53
  91  87  78  71  60  56  46  44  39  38  34  32  29  29  54  69  82  81  90  84  90  95  96  97 100 111 117 111 110 103  91  85  63  49  47  51  49  37  34  32  34  32  40  44  52  61  78  92 101 105
 107 100  83  72  65  52  47  40  36  43  39  49  60  76  87  87  96  92  85  85  97 101 104  96  96 114 116 119 108 108 102  90  76  62  53  53  57  53  44  38  36  34  40  44  48  52  64  80  95 104
 118 113 105  97  90  81  70  72  72  70  76  81  93  99  88  94  97  90  90  92  96 102 101  92 108 107 118 108 113 109 106  96  89  78  58  53  62  71  61  51  53  47  48  51  50  57  68  80  87 100
 120 120 116 115 109 106  96  96  97  96  98 102  98  98  93  96  93  90  90  94  98  93  97  98 101 110 117 113 115 111 104  93  90  91  71  59  62  74  80  78  76  76  73  74  76  81  92  94 101 100
 115 119 124 123 118 115 118 115 105 105 113 106  98 100  92  93  87  90  88 103  95  87  94  94 102 113 113 117 116 113 112  91  85  95  75  54  56  71  76  91  90  90  93  96  90  96 106 107 103 104
 126 129 125 121 124 121 119 121 119 121 111 106 102  91  83  90  89  88  92  89  80  80  94 100 108 115 118 120 115 111 113 115  88  83  82  62  59  64  73  82  90 101 100 102 101 106 106 102 116 113
 128 128 126 126 126 126 127 125 121 121 104 109 100 101  91  91  90  80  71  70  73  85 101 107 117 122 120 122 120 115 110 114 105  90  73  64  60  65  76  85 101 105 103  96 103 102 107 111 112 118
 130 127 128 126 126 127 130 127 125 120 113 107  98  97  90  78  71  51  67  84 100  98 107 124 126 124 123 128 132 119 101  94 113 108  81  59  58  65  74  86  97 102 104 107 106 107 105 110 105 117
 130 128 132 129 127 125 130 129 124 117 118  96 107  95  78  60  43  78 107 112 117 120 126 127 129 121 124 131 136 118  99  95 101 121 110  84  62  60  71  82  88  98  98  96 104 111 106 103 108 120
 132 123 125 129 128 127 126 127 121 118 115 101  82  75  61  41  62 106 127 124 124 116 122 127 124 124 118 117 108 108  91  83  95 112 120 117 116  70  65  69  93  96  96  95  98 113 114 110 118 117
 133 128 126 126 122 124 120 118 115 108 107 100  76  69  46  40  93 130 129 128 122 121 118 108 106 110 105 101  93  88  80  77  77 111 110 116 122 118  56  69  87  92  96 104 101 107 108 114 117 124
 125 128 129 129 113 123 122 120 117 101  92  76  65  56  42  41 101 127 126 123 117 111 106 100  90  93  96  87  74  71  74  71  92 106  96 103 105 127  56  60  75  97  95  94 101 101 107 113 118 119
 125 127 129 127 125 125 120 108 102  93  76  71  55  45  50  44  78 122 122 105  78  71  74  66  69  67  79  78  72  71  66  73  82  90  87 102 118 129  59  64  72  84  94  94 101  98 101 105 117 124
 129 128 128 124 122 121 118 102  98  88  73  66  54  49  61  50  58  85  84  53  17  17  13  11  12  23  42  65  55  55  64  62  27  24  36  65  94 121  54  63  70  79  81  90  97  96 106 102 115 121
 127 127 126 125 120 118 108 102  96  71  67  62  49  58  73  69  35  56  50  31  30  31  36  38  42  43  47  64  54  68  48  30  22  21  24  36  68  66  57  62  73  79  78  92  94  97 101 105 104 122
 132 130 125 104 111 102 102 100  82  77  63  58  49  78  88  89  59  41  27  24  28  38  40  38  40  38  39  41  44  44  30  30  35  34  30  40  31  50  65  68  77  77  80  85  79  89  96 106 110 115
 128 129 127 122 114 105  97  86  78  68  61  56  58  85  98  98  97  76  53  49  45  50  45  49  50  40  31  28  28  30  29  35  34  29  25  30  47  60  74  67  73  80  80  77  79  86  86 102 115 121
 126 129 113 114 113 107  88  87  80  72  64  56  76  94 105 103 102 101  85  82  69  70  76  61  65  60  53  57  58  48  49  48  52  50  59  64  63  76  81  74  71  71  75  71  78  91  90  98 111 122
 124 125 119 115 105  92  94  85  71  68  60  69  78 102 104 108 101  97  84  78  81  75  81  64  65  65  61  63  63  49  50  52  59  55  62  75  86  77  86  80  74  73  72  71  72  79  82  98 117 126
 126 121 115 117 100 101  87  83  70  69  66  76  92 106  99 106  85  92  78  74  78  74  65  46  59  60  63  67  72  54  50  52  49  63  62  64  81  85  86  83  77  69  75  68  69  74  94  97 109 121
 124 112 108 112 102  96  80  81  75  76  74  81  96  98 108  91  90  88  80  71  66  75  75  69  69  67  60  65  62  57  57  54  52  59  55  54  70  83  91  84  84  72  66  69  69  77  85 100 117 120
 121 115 109 101 103  92  87  78  84  82  78  74  89  91  93  86  79  73  82  84  85  76  87  73  77  71  66  62  56  66  50  57  58  57  59  62  52  49  67  85  76  75  72  71  67  69  79  98 115 104
 120 111 106 108 103  99  92  89  86  77  74  76  82  85  58  80  95  78  94  94  92  90  74  73  68  76  76  80  82  69  63  54  54  62  68  74  65  52  69  71  69  67  71  69  73  72  92  92 112 119
 115 111 103 102 102 102  94  93  85  80  70  69  64  65  78  75  91  93 100  97  85  56  52  44  41  45  47  45  44  40  36  36  34  41  52  76  78  62  63  69  59  67  65  71  78  76  79  90 107 121
 119 117 105 101 108 101  94  87  84  76  65  62  56  62  67  83  96  96  85  60  40  41  38  33  34  34  39  38  37  32  30  31  32  33  38  50  74  83  72  66  55  49  57  67  81  80  82 105 117 123
 114 121 115 111 106 101 101  89  83  72  57  60  57  59  84  80  78  53  44  38  35  31  35  32  27  30  36  34  35  32  32  31  32  32  34  40  46  69  94  82  62  52  47  68  77  87  91 108 119 125
 125 122 116 104 113 101 106  91  76  54  49  51  57  75  71  57  39  33  33  29  28  28  26  22  32  28  26  28  26  29  27  23  28  28  31  35  31  47  68  78  60  54  48  68  76  89  93 115 125 125
 122 121 109 117 106 103 101  87  71  66  51  56  43  37  38  27  23  26  28  18  44  37  34  49  44  29  44  29  28  37  27  58  32  11  21  26  27  30  31  42  45  59  57  59  80  91 110 112 125 131
 122 121 105 105 111 102 100  86  67  65  49  38  32  12   8   3   3   6   6   6  10  11  33  27  85  41  37  38  21  44  36  22  25   6   3   7  12   7   8  20  33  42  49  60  74  93 111 118 125 131
 118 121 120 113 109 106 101  82  62  60  44  36  33  33  38  44  60  47  60  37  19  13  14  14  12  11  10  11  11   9   9   8   9   7  30  46  45  43  30  30  29  38  50  59  78  93 115 120 130 131
 120 124 119 115 104 102 101  91  71  53  46  50  55  57  51  50  56  65  63  72  80  49  66  33  69  67  50  67  71  38  57  44  32  50  55  54  67  58  43  56  41  46  41  56  78 100 118 124 127 131
 120 116 115 117 103 105  93  86  66  48  56  60  77  82  74  55  51  59  66  71  82  68  65  59  47  72  45  46  94  61  59  54  59  64  63  57  65  59  64  73  55  55  50  62  76 102 115 123 129 127
 107 117 115 112 104  95  87  78  69  57  57  72  85  97 102  85  55  52  65  61  65  90  88  62  59  63  64  63  64  80  81  69  66  60  55  51  65  63  87  87  78  56  50  63  76 105 115 122 128 132
 113 117 115 113 104  98  85  84  72  60  74  82  94 108 101 100  92  55  49  56  60  65  70  84  76  85  73  68  63  82  84  76  62  50  55  58  68  78  96 102  81  63  56  62  79  93 118 127 130 131
 115 117 108 104 100  85  75  75  69  64  78  94 102 104 102  96  85  78  55  45  47  51  52  60  63  61  59  54  41  56  54  51  50  48  53  61  78  94  93  98  87  68  58  65  78  94 115 122 125 126
 113 106 101  98  92  78  77  75  76  76  80  87  95  99 102 101  70  74  72  62  44  42  46  48  46  46  44  40  40  41  39  42  41  43  60  73  90  97  93 100  85  67  54  70  86 104  96 120 126 136
