P2
50 50
255
  19  22  23  23  19  25  27  24  27  28  27  34  33  34  33  32  31  41  37  40  63  62  62  63  66  63  68  65  67  66  66  57  53  46  40  26  26  20  17  17  18  18  20  13  14  16  17  20  17  23
  24  27  23  26  32  37  41  49  51  46  46  40  45  44  41  38  40  42  43  47  57  63  53  64  58  59  56  59  56  60  56  63  52  41  34  32  26  25  21  27  26  28  32  26  21  22  20  23  25  30
  29  38  44  53  55  65  74  85  78  67  65  57  52  56  51  55  55  50  48  53  56  59  59  59  59  54  47  52  56  56  55  56  51  50  37  35  39  36  38  37  34  42  42  47  38  39  38  38  42  32
  52  58  65  71  80  83  83  87  83  88  68  62  55  50  53  51  59  53  49  50  53  60  60  61  56  56  53  53  49  53  56  54  52  45  40  43  43  46  44  45  49  49  56  60  59  52  50  59  65  49
  82  92  88  90  95  96  88  87  87  86  68  60  55  47  44  47  47  53  53  53  56  56  59  50  55  52  55  52  51  52  56  45  45  41  45  42  43  41  44  48  56  60  66  61  63  67  69  68  74  77
  93  98 100 100  92  82  80  79  72  72  59  52  47  46  45  43  46  48  51  52  59  55  60  57  62  58  51  31  49  55  50  45  44  45  44  38  40  41  43  46  52  58  60  63  60  65  72  81  93 101
 107  98  85  81  78  82  71  62  57  54  46  46  38  38  39  41  43  43  46  52  50  56  60  72  74  85  63  54  56  58  52  48  46  43  39  38  40  41  49  47  47  50  55  54  55  63  65  78  90 116
 102  87  82  73  65  47  24  24  21  18  18  16  12  25  30  36  39  43  46  51  56  62  73  85  93  95  80  75  71  62  54  48  45  43  38  40  41  41  29  26  32  38  34  27  24  52  62  71  86 117
  78  71  56  26  26  26  11   5   6   1   6   4   6   8  10  30  41  40  42  52  60  69  90  94 109 112 102  90  78  65  55  47  44  41  38  38  38  15   9   5   8   9   6  24  33  42  25  38  71 107
  57  27  27  27  14   7   8  16  17   7  25   5   7  26   8   7  40  42  45  53  71  78  91  96 101 101 101  93  81  74  54  49  41  40  44  40  13   3  13   7  13   5   4   6   9  25  40  45  30  76
  29  28  10   6   8  31  24  12   9   5   5   6   9  26  14   6  19  50  52  69  72  87  88  90  95  94 101  94  89  76  66  49  46  44  46  45   8   5   7   4   5   6   8  20   5   6  23  38  59  47
  18   9  18  26  30  28  35  35  29  30  26  29  34  30  34  42  49  48  62  79  79  86  88  90 101 101 100  94  90  79  73  59  48  44  50  38  32  34  36  40  36  30  33  28  27  20  11   9  35  49
  30  47  57  64  69  67  64  67  51  47  41  37  39  33  38  46  62  57  74  78  78  80  84  95 106 101 108 105  94  85  80  64  46  48  50  47  42  34  31  30  35  34  40  42  47  50  57  58  40  25
  74  72  70  77  69  69  62  55  48  41  38  37  37  38  39  53  64  72  80  80  83  85  91 100 108 108 111 106 102  93  75  76  60  49  46  46  48  41  39  33  29  31  36  42  47  66  74  82  86  84
  88  76  73  63  66  54  55  43  41  38  34  34  30  32  51  69  76  86  87  84  85  91  94  98 103 111 115 115 107 108  92  87  68  54  45  50  50  42  36  34  32  34  35  40  46  55  68  81  97 103
 101  87  72  66  50  41  39  38  34  34  29  36  56  72  80  88  92  91  87  90  92  99 100  97 104 115 113 120 110 107 103  96  81  65  54  55  54  53  43  38  40  34  40  38  44  48  54  68  82  96
 106 101  89  73  73  61  68  70  65  59  65  78  85  90  94  95  96  86  90  94  94 102 106 101 105 109 115 114 111 113 106  96  90  78  62  56  60  68  64  62  51  51  48  47  50  52  59  69  80  96
 119 115 113 106  95  89  86  85  80  85  90  98 100  98  94  92  93  87  89  96 100  96 102  97 102 107 111 115 115 108 101  92  87  89  76  57  61  61  77  80  77  78  68  71  73  76  85  92  91  97
 113 120 121 114 117 107 113 102  97 101 108 103 106  89  94  88  95  86  84  97  96  90  94  95  96 111 112 117 118 114 113  93  85  86  83  65  57  69  74  79  90  92  87  95  98  96  97 105 108 104
 121 125 125 123 120 118 114 119 111 111 111 105 102  85  85  88  89  93  97  90  82  83  93  96 108 113 113 118 118 113 113 115  94  81  83  72  59  65  67  80  90 100 100  98 103 101  99 106 104 115
 129 123 124 124 122 126 122 122 122 117 109 101  90  96  92  93  95  93  89  75  73  85  92 101 113 122 118 121 111 112 109 114 108  90  76  66  59  68  70  80  92  98  95 105  98 103 102 107 104 112
 128 125 126 126 125 128 126 124 124 116 113 102  99  98  90  85  81  67  62  74  82  90 101 116 125 125 121 119 125 120 103  95 112 112  82  60  61  57  72  87  94 101 111 102 106 106 108 105 108 108
 131 129 129 127 126 126 125 125 121 116 108  96  96  92  78  68  52  53  85 100 106 108 122 121 121 121 121 134 139 130 105 103 101 122 113  92  66  57  66  74  86  94  99  92 101 107 112 103 113 111
 132 129 128 126 128 126 128 124 118 113 111 104 101  90  66  48  44  98 118 121 121 120 121 127 130 132 121 120 121 115 102  83  86 102 121 111  98  72  63  74  77  98  98 101 102 104 111 113 106 116
 129 120 126 129 125 125 126 120 121 114 101  96  78  70  49  40  85 130 131 127 124 118 122 121 115 108 110 103 100  92  90  81  85 100 113 117 118 120  60  60  69  91  92 101  98 103 107 110 115 115
 131 126 125 121 126 121 124 114 113 108 101  85  74  61  40  44 108 133 127 126 123 117 113  99  93 100 101  96  87  79  73  74  86  92 106 106 108 127  97  62  68  85  96  96 100  98 102 105 115 121
 129 129 127 123 120 124 122 118 102  96  82  69  63  47  48  42 105 127 127 118 115 102  93  85  80  79  82  82  78  72  72  69  90 103  94  94 106 125 114  55  66  79  80  96 104 101  99 102 110 114
 130 130 127 127 125 119 116 108 102  86  79  63  55  48  55  43  88 118 112  92  62  30  31  47  58  57  61  69  63  56  59  65  68  64  76  73  93 128 112  56  67  71  84  90  94  92  98 104 104 120
 131 125 126 123 121 118 106 102  94  78  62  61  52  50  64  46  52  80  73  40  25  25  22  22  26  33  28  59  57  56  71  28  14  15  18  24  55  97  78  57  65  70  81  81  88  90 103 102 106 105
 128 127 127 118 121 118 111 103  87  69  65  56  51  63  81  61  39  32  43  31  30  34  39  38  42  47  45  56  51  67  52  38  29  28  25  31  52  61  56  64  66  76  80  81  86  89  94 102 108 103
 128 129 121 106 104 103  91  91  86  68  60  52  53  77  94  89  59  44  32  27  30  40  38  41  32  32  37  35  35  31  28  28  32  34  28  21  27  44  63  66  66  77  74  77  83  82  82  94 103 108
 131 126 125 117 111 105  94  88  76  65  57  55  63  87  98 101  96  89  70  59  54  53  60  57  50  47  40  38  30  31  41  39  38  34  32  37  47  60  74  76  76  72  74  77  69  81  87  90 101 112
 129 114 120 113 108  95  92  86  73  68  63  57  80  98  99 102 101 101  89  85  79  72  70  60  68  61  58  56  60  51  53  53  56  56  58  68  69  72  82  79  71  67  74  75  71  78  82  81  98 114
 126 124 117 113  96  96  92  80  65  65  62  72  83 102 102 104 101  85  91  78  84  80  80  63  62  60  63  59  66  56  48  49  52  61  62  69  80  97  87  88  76  73  70  74  79  72  80  87  92 113
 122 121 113 106  89  94  92  76  69  68  69  80  90 105 107 105  85  93  76  70  81  71  63  50  56  69  66  71  66  60  58  58  51  48  58  57  66  76  85  94  85  78  66  73  71  71  70  85 100 115
 120 115 115 102 100  97  87  76  73  80  72  82  95  98 103  90  90  89  79  68  66  74  74  69  72  61  58  62  66  60  54  51  56  58  59  57  61  63  78  90  85  82  72  69  72  67  70  80  94 108
 120 115 110 102 101  92  78  80  88  79  77  77  89  84  92  88  80  71  83  80  84  85  92  79  80  79  76  66  63  67  64  58  60  61  55  62  60  52  53  63  79  65  77  72  71  65  70  80  97 108
 112 105 111  96  96  92  78  85  84  77  75  81  85  90  61  80  94  78  96  91  90  91  78  77  69  68  76  77  75  68  64  55  45  54  60  69  76  65  55  69  57  78  61  71  72  71  74  86  76 106
 115  95  99 106 102  94  93  88  85  75  68  67  66  64  77  73  93  93 101  95  86  59  52  49  47  44  44  45  44  39  38  37  35  39  40  62  74  76  70  65  74  62  59  65  71  77  78  80  92 114
 115 115 102 101 105 101  94  90  80  69  68  63  61  69  69  77  96  98  88  62  46  43  40  36  34  32  36  37  34  32  32  32  31  34  32  41  56  86  90  70  66  58  46  50  68  80  82  81 106 116
 112 118 108 108 106 101 105  89  79  69  62  51  62  60  87  82  78  55  48  38  37  34  34  29  31  30  33  39  34  34  34  34  31  31  31  34  43  56  78  96  82  67  56  46  71  77  88  85 105 120
 118 120 113 102 103 101 101  92  76  52  50  50  59  68  80  62  47  32  32  30  31  30  26  24  24  29  28  27  29  26  30  24  23  27  28  33  34  36  43  67  69  64  51  48  64  78  90  99 106 122
 121 113 112 107  96 104 101  82  71  56  51  51  52  43  42  35  28  28  29  27  18  21  36  34  41  35  27  31  28  29  36  25  44  15  10  18  26  27  32  30  39  47  60  57  60  81  90 106 112 124
 118 119 106 117 111 111  98  76  68  64  50  38  30  23   9   3   6   6   9   5  14  25  34  33  94  56  31  33  34  29  45  28  26  16   5   5  10  20   7   8  22  31  43  49  60  75  93 111 120 125
 121 120 111 113 106 105  98  81  61  64  44  34  29  30  31  43  59  41  39  16  13  12  10   9  11  12  10   9  11   8   7  11  10   6   9  36  54  51  36  27  26  30  38  50  59  77  91 114 116 127
 120 119 117 111 101 101  96  81  68  50  39  48  49  56  48  49  60  60  60  67  78  46  65  42  54  61  68  73  60  70  17  51  31  33  47  56  56  65  56  44  50  42  47  41  56  76  96 115 120 128
 117 118 117 111 111 101  95  81  64  49  53  54  60  78  64  50  57  62  69  69  77  68  67  55  54  38  48  65  60  53  57  58  57  52  70  61  59  67  54  64  72  52  52  50  62  76 103 115 123 127
 118 113 108 111 103  98  90  78  66  52  64  70  79  96  96  76  52  52  63  65  69  85  71  63  57  56  55  61  46  70  77  69  62  65  71  51  55  63  60  89  81  75  57  51  64  76 102 116 121 129
 107 112 111 113 107  96  85  83  67  56  65  82  92 105 104 102  75  53  52  61  62  68  80  82  72  78  76  73  74  92  96  89  65  66  52  51  57  59  87  99  97  81  62  56  61  78  92 110 125 130
 116 117 110 106  98  88  80  74  67  65  78  91  92 101 106  93  92  72  50  49  52  52  65  63  66  66  64  57  51  53  61  62  57  49  52  53  64  78  96  94 101  85  67  59  63  80  94 113 122 124
