P2
50 50
255
  25  21  26  28  20  24  20  26  26  28  27  32  30  30  28  32  27  28  40  48  61  65  64  67  60  67  67  67  67  71  66  63  55  45  34  33  21  20  16  14  22  23  18  19  15  15  23  26  20  23
  29  30  27  21  25  31  37  45  47  47  47  41  39  36  38  37  37  48  43  43  58  52  63  60  60  61  57  56  63  59  59  63  52  46  35  40  29  27  28  28  29  27  38  28  28  26  23  29  25  28
  25  37  43  46  54  62  67  75  78  65  68  59  46  62  54  54  54  51  53  59  61  60  58  58  61  60  54  52  53  57  57  57  51  41  42  36  41  44  43  35  40  43  47  51  55  45  42  32  37  43
  49  56  69  67  76  80  84  84  80  84  68  60  55  48  53  55  51  56  56  56  55  58  61  54  59  61  54  55  53  55  51  53  46  41  42  44  45  41  43  43  49  59  61  63  64  57  61  56  64  45
  84  89  82  93  96  92  88  90  90  82  67  61  51  46  45  48  50  54  54  57  56  60  63  55  63  60  55  42  50  49  51  45  42  44  44  42  39  37  45  52  58  66  73  66  71  71  68  58  75  74
  88 102  96 102  94  91  86  82  76  71  60  49  51  52  42  42  44  51  53  55  58  57  63  66  73  69  53  32  58  56  51  46  46  46  43  39  41  45  55  53  60  67  68  64  70  60  68  78  74  92
 102 104  97  86  86  76  73  69  67  59  50  41  35  38  38  40  46  45  53  53  59  66  74  80  88  84  77  69  66  61  55  49  45  44  39  41  43  47  44  38  32  41  47  53  55  57  66  74  78  95
 109 105  96  85  61  45  26  26  22  18  17  15  17  16  30  34  39  44  46  55  62  78  85  95 100 102  92  82  74  66  58  49  46  43  43  38  42  32  21  29  31  43  32  38  29  26  46  59  79  98
 100  80  65  29  29  27  14   6   8   8  50   7   5  13  14  27  40  45  47  63  66  76  93  96 100 101 101  90  76  66  53  53  50  41  43  44  36   5   5   5   5   6   7  16  32  38  42  29  45  88
  70  42  27  32  15  10  30  13  16  12   6   8   6  39  20   9  39  47  47  64  74  85  92  96  98 103  97  90  77  73  54  51  47  45  46  40   8   4  17  10   4   6   3  11   6  18  30  49  47  39
  39  32  18   9   9  74  97  21  19  16   4   7   6  32  26   9  15  56  63  79  83  90  86  92  99  97  95  95  85  75  63  46  49  49  55  47   8   6   4  12   7   6  10  36  19   5   9  28  59  74
  28  19  20  20  21  26  29  31  10   8   5   8  24  31  33  47  64  68  74  82  82  81  90  95 102 105 103  96  86  81  66  60  46  49  60  46  35  32  27  21   9  13  18  20  19  12  10  10  18  31
  41  38  40  41  39  42  40  35  32  38  44  39  34  37  38  54  70  74  85  79  77  89  97  98 102 104 107  99  94  75  75  67  50  49  51  51  47  31  28  28  32  36  36  36  31  41  38  34  32  38
  80  77  75  73  75  75  68  61  54  43  34  35  38  41  47  59  78  88  90  89  84  94  93 105 107 113 113 101 101  86  79  74  60  51  54  56  50  44  36  31  28  30  35  42  47  60  67  70  69  79
  99  84  87  76  84  75  68  59  49  43  43  39  36  43  63  83  86  90  86  85  95  95 100  98 107 114 112 116 101  97  88  78  68  59  54  57  58  51  43  37  34  30  39  39  47  56  71  77  78  92
 100 100  96  91  81  70  60  55  46  43  42  44  53  63  87  90  97  95  90  94 101 102 101 100 106 119 121 114 103 100  93  84  82  72  54  56  58  61  51  43  38  38  41  43  48  54  61  71  83  95
 110 107 101  93  78  76  64  59  56  64  56  71  86  88  93 100  97  92  96 100 105  98  97 107 108 115 113 111  98 101  94  88  82  80  66  60  67  70  63  63  50  47  51  55  56  56  66  67  75  90
 127 116 114 107  96  93  90  92  84  90  87  94 104 101  96  99 100  91  93 103 101  98  96 101 107 111 111 111 103 100  87  92  87  86  74  64  59  68  73  76  75  74  61  71  70  74  78  88  83  92
 125 122 116 116 113 102 100  93 100 100 100 112 101 104 101 101 101  93  98 104  95  89  97 105 113 105 118 108 106 105  98  87  85  92  77  70  67  70  76  75  88  91  84  80  84  87  86  90  93  93
  76 121 124 118 114 113 108 107 100 103 116 111 108 112 103 102  97 101 101  92  92  96  95 109 121 122 120 113 105 108 111  91  84  88  80  69  68  75  70  83  89  93  94  91  90  91  87  95 100 100
 126 126 126 120 118 113 114 111 107 110 114 119 106 107 101 104 106 104  90  86  88  93 118 127 125 123 120 121 121 103  95 101  90  84  72  67  68  73  76  80  88  96  91  93  93  92  98  99  95 100
 128 127 126 122 122 123 120 116 119 119 115 108 109 111 105 104  98  75  77  96  95 120 125 128 124 123 125 137 127 101  97 103 111  90  80  58  60  70  78  93  95  99 103  96  97  93  94  96  98 101
 127 124 125 125 121 124 124 116 118 121 118 116 109 109 102  97  83  79 107 116 121 127 131 131 131 123 126 129 111  99  79  89 104 114  96  86  57  66  73  86  90 100 100  94  92  96 101  96  96  96
 128 127 129 127 126 123 128 122 118 114 116 110 118 115  98  90  60 118 124 127 124 124 125 122 113 111 108 102 101  93  85  82  96 105 103 108 106  65  73  84  84  95  99  94  93  95  95  93 101  95
 128 127 129 124 125 122 125 128 124 123 122 119 106 104  88  68 119 135 130 128 124 111 100 100 108 101 100  84  79  84  77  75  98  95 100 103 116  98  67  72  91  96  90  92  87  94 100  98  98 100
 130 126 123 118 128 123 124 119 116 119 119 120 103  96  82  63 129 132 128 119 117 105  94  92  90  85  91  77  79  72  75  80  88  91  91  91 116 118  68  84  82  91  95  96  96  94 100 100 100 106
 129 129 127 127 118 126 123 124 123 114 110 105 102  90  77  70 133 128 119  97  80  71  65  63  65  70  74  66  59  59  74  69  72  78  88  94 125 125  61  75  87  89  93  95  95  99  98  98  99 104
 122 129 124 130 126 128 128 123 122 116 111 107 102  92  77  56 108 111  83  37   9   7   3  10  22  28  63  56  60  72  22   8   7  11  35  68 103 121  67  72  86  92  89  95  93 101  99 101 103 102
 127 128 130 129 123 127 127 123 122 109 105 109 100  91  92  61  79  94  57  28  27  28  28  37  49  53  63  55  66  40  33  26  19  23  25  59  79  50  70  82  81  90  86  96  93  95 103  99  98 106
 131 131 128 130 123 129 124 123 116 110 105 103 101  96  92  71  44  59  50  34  37  43  48  45  47  43  42  44  38  29  33  32  38  28  33  44  39  55  71  85  92  95  92  96  96 100 101 105  95 113
 133 130 132 122 126 117 114 122 115 111 104 105 101 101 103  94  60  41  30  30  38  51  51  58  50  45  45  38  39  42  44  34  34  22  21  25  45  65  80  90  92  92  92  95  93  95  98  98 107 101
 133 134 134 130 127 124 120 118 114 106 106 104 105 108 113 111  91  79  77  68  59  70  74  71  71  68  69  62  71  64  60  53  49  46  47  57  67  79  84  92  91  92  92  87  94  95  98  99 105 103
 124 135 128 128 125 124 122 118 107 104 103  99  98 114 108 107 104 101  90  94  80  83  74  68  70  76  61  67  65  59  58  52  57  59  68  65  75  86  92  91  93  88  95  90  88  91  95  97 103 118
 131 132 130 125 127 110 122 115 106 101 104 101 111 107 109 111  96 103  97  76  88  84  77  49  73  64  66  76  63  56  60  53  54  61  59  75  76  80  90  91  91  91  93  90  84  92  97  96 109 105
 133 131 129 125 121 120 114 114 101 100  99 107 116 120 109 105  93  87  92  59  80  70  68  58  75  68  65  67  63  67  65  55  62  57  58  63  73  86  91  92  88  88  90  92  85  88  92  98 103 114
 131 125 125 125 123 123 118 108 104 107 109 116 120 111 119 108  92  89  89  68  65  79  79  81  76  68  59  70  64  60  62  67  58  60  62  56  54  57  59  84  84  88  88  90  92  82  94  98 111 115
 130 126 122 122 120 120 111 108 114 116 111 115 107 105 101  87  93  75  85  87  92  87  91  84  87  83  71  64  71  81  76  65  69  68  70  64  56  50  60  73  63  77  80  85  90  86  84  98  98 112
 129 120 111 122 119 119 111 110 114 109 113 103 101  97  73  90  84  81  91  95 103  94  75  62  65  65  85  87  77  58  47  35  42  54  74  69  61  59  68  60  65  74  76  83  85  88  87  92 103 106
 125 124 118 114 121 122 114 118 107 116 104 100  71  76  80  82  74  87 100  93  82  55  48  42  43  47  45  44  44  38  31  32  29  38  51  63  74  63  62  55  51  63  63  84  88  95  88 106 109 106
 127 124 123 112 123 112 116 115 110 111 102  68  54  74  71  76  87  89  85  62  43  40  43  41  37  37  38  34  32  30  30  32  32  32  37  41  63  75  76  54  57  47  45  75  92  95  94  96 109 120
 128 120 125 118 120 120 116 117 107 106  92  79  56  64  76  71  74  59  39  38  38  38  37  38  35  35  33  34  37  32  34  37  42  43  38  34  37  61  75  51  61  55  48  71  88  98 103 100 118 122
 125 129 122 122 119 111 119 114 101  76  76  51  61  53  53  46  43  30  28  30  35  38  41  32  30  34  38  28  27  28  30  37  38  38  33  27  25  34  54  41  46  59  53  64  92 100 100 105 111 126
 123 122 119 117 114 120 118 108 101  93  73  66  44  28  24  19  15  24  19  23  21  21  19  14  13  15  10  16  15  12  10  15  17  24  20  19  16  19  15  21  29  44  51  64  88  95 101 111 112 123
 127 123 123 105 111 116 112 113  95  90  70  50  27  10  26  51  51  56  60  61  59  53  53  51  56  51  48  55  54  47  48  44  38  55  42  43  40  29  17  15  24  31  50  64  82  93 109 103 118 123
 124 123 124 120 110 111 109 103  95  83  53  40  36  35  39  47  54  58  64  67  75  78  77  78  80  97  84  68  91  94  76  76  72  60  48  49  50  39  33  30  32  38  50  55  76  88 109 107 121 125
 126 120 123 120 109 116 107  95  87  71  56  44  46  56  56  46  45  51  61  60  73  80  83  84  96  76  67  56  68  81  85  56  51  49  55  50  47  52  58  40  38  44  52  59  77  91 106 113 123 123
 122 118 118 118 113 109 101 101  87  63  55  56  62  72  79  81  53  49  45  49  62  65  60  64  65  56  52  49  52  55  54  48  48  47  48  46  60  80  68  54  45  48  53  64  79  90 101 111 123 128
 104 111 117 114 120 108  99  95  86  72  61  68  69  81  93  86  86  67  48  46  37  43  54  48  50  44  46  41  40  40  41  40  43  45  56  71  82  75  71  57  55  55  60  65  76  87  93 110 123 127
 118 114 117 114 106 101  95  87  83  71  72  75  81  88  96  93  86  86  80  72  60  48  49  43  43  43  38  38  35  38  44  47  59  58  60  74  85  75  69  64  67  64  61  68  70  84  96 107 123 124
 116 105 102 101 100  94  86  86  81  76  78  83  93  89  87  95  76  84  79  68  63  56  51  48  45  41  39  36  38  40  37  47  46  52  61  73  82  76  74  69  68  73  59  66  74  86 101  93 117 122
