P2
50 50
255
  19  27  26  25  19  26  19  25  26  27  27  33  29  35  29  29  31  27  38  51  57  61  66  66  61  68  65  62  65  70  63  62  53  43  32  32  22  20  19  21  23  20  20  19  19  16  18  22  26  25
  27  30  26  23  29  38  35  48  56  48  48  36  37  41  45  42  47  45  44  54  64  48  61  59  63  59  59  59  60  58  57  63  44  48  34  31  31  31  29  31  27  31  38  32  38  34  30  27  30  28
  28  40  48  50  55  59  65  75  73  66  68  57  50  58  57  56  60  52  56  58  58  59  59  62  63  59  56  51  57  58  57  56  53  45  45  36  43  49  40  39  43  50  50  52  56  54  48  53  50  45
  49  57  66  64  82  79  87  87  85  81  68  59  51  49  52  56  54  54  58  51  62  62  57  55  58  59  51  62  58  52  54  51  47  41  43  43  44  43  43  46  54  66  65  60  62  65  60  66  60  48
  82  95  77  91  96  92  87  88  86  82  68  60  51  43  44  45  49  54  49  57  57  62  57  56  57  60  52  35  52  54  48  43  47  44  43  41  40  41  47  53  58  68  70  65  65  69  69  71  75  68
  79  97 102  97  97  87  87  85  73  70  63  56  51  44  41  42  42  49  53  57  56  64  62  68  77  78  50  37  61  58  50  49  47  46  42  36  42  46  48  53  59  61  62  66  65  57  69  79  78  90
 101 107 100  85  87  79  78  68  64  52  48  42  35  36  40  38  47  47  52  52  57  66  75  87  92  91  84  69  67  61  59  48  45  42  41  42  43  47  47  28  24  26  31  46  52  58  58  68  80  95
 107  98  97  81  69  50  25  27  21  16  13  17  16  15  32  35  40  41  48  57  65  83  91  93 100 102  88  87  79  65  53  50  47  42  44  41  42  28  24  26  28  29  32  39  36  31  32  55  70 101
  95  83  68  31  31  24  10   5  22  11  10   5   4  14  10  36  40  47  48  66  68  85  93 101 102 102 102  87  83  68  56  52  49  41  46  41  36   5   3   9   8   4   6  10  21  39  45  44  38  84
  65  37  28  30  15  12  28  13  14  15   5   7   6  38  22   9  38  50  50  65  78  88  87  98  97 100 100  91  77  73  54  52  48  45  46  42   8   5  14   8   5   6   5  14   7   9  25  45  60  37
  34  34  16   6  12  75  97  22  18  19   7   8   7  33  24  11  15  56  66  75  83  90  90  97 102  96  97  93  84  75  70  50  47  48  52  46   9   8   4   9   7   7   9  36  21   6   7  22  39  69
  29  21  20  23  21  25  31  27  10   7   7   6  23  31  34  52  65  68  74  80  80  85  94 100 101 106 106  96  92  77  65  58  46  51  60  51  33  35  28  26  19  19  18  22  17  20  21  13  18  27
  38  37  35  39  40  38  40  35  31  32  45  40  34  34  42  57  68  72  84  83  87  85  95 101 102 108 113 102  93  73  73  65  53  50  55  51  49  31  27  30  34  37  38  42  41  50  53  47  42  39
  76  73  72  73  81  75  68  63  52  42  34  32  36  39  45  59  73  88  90  84  83  92  93 103 105 113 113 104  98  87  77  75  62  52  50  53  52  44  38  33  32  30  35  43  49  57  69  72  76  83
  92  82  85  81  85  79  68  59  46  43  38  39  35  46  61  80  83  91  87  87  89 101 101 103 114 114 118 111 100 100  88  81  71  58  56  57  60  49  43  36  39  35  39  41  49  50  70  77  79  90
 104 100  94  89  82  66  62  52  49  45  42  46  52  67  85  90  92  93  88  98 101 102 100 105 105 116 117 117 105  98  88  81  83  68  57  61  56  62  57  44  41  39  40  43  47  56  63  72  87  91
 116 105  97  91  81  75  62  57  54  64  57  71  90  91  97  98  97  92  92  97 103 100  99 107 108 116 110 117 100 100  92  90  83  82  69  62  63  69  64  63  59  57  50  53  58  53  70  69  87  91
 123 115 109 103 100  90  90  92  85  87  87  95 102 104 101  99 101  91  94 105 100  98  93 100 108 110 117 110 107  97  95  93  85  86  73  63  60  71  73  81  76  77  69  72  74  79  81  91  90  91
 126 123 117 118 105  97  97  97  99  98 102 113 103 103 101  99 101  93  97 103  97  90  97 103 112 105 116 114 103 107  99  88  82  81  76  69  68  68  75  75  92  88  83  92  86  89  89  92  95  98
  77 127 123 123 118 105 108 107 101 107 105 109 108 106 105 102 101 100 102  87  92  98  97 110 120 122 118 107 104 105 111  89  80  84  81  67  69  66  76  76  87  88  89  89  91  94  93  96  97 104
 124 128 124 123 118 120 117 115 105 105 116 122 112 100 101 103 105  97  89  85  87  99 111 127 128 119 118 120 123 101  97 106  87  82  73  66  66  69  77  87  87  98  88  93  95  93  95  98 101  95
 126 127 126 119 121 121 121 110 116 118 111 103 100 107 108 105 101  72  81  98  95 115 129 127 123 123 126 137 126 103  97 103 106  92  77  63  58  70  79  88  92  98 104  98  96  91  89  93  98 108
 129 125 126 124 124 124 123 120 116 122 117 119 116 107 103  97  87  71 107 116 121 130 129 132 131 126 124 126 119 103  87  90 105 111  99  89  73  64  75  88  92  97  98  92  95  95 102  98  97  97
 125 124 128 126 124 122 126 120 116 118 112 113 122 116 102  86  67 118 124 126 123 127 118 123 114 111 109 103 102  90  84  88  97 103 106 113 107  57  70  87  87  95  97  99  94  98 102  97  96  98
 127 129 124 124 128 123 125 125 125 119 118 117 107 104  88  69 120 135 131 128 124 118 105  99 105  96  96  85  83  77  78  79  95  90  95  97 119 107  66  77  86  93  97  92  96  96 101  98  95  99
 131 121 127 122 128 126 127 122 121 123 116 118 104  99  83  63 130 130 128 124 111 104  94  88  91  91  94  83  76  72  73  80  90  92  84  87 111 125  66  82  82  92  93  96 101  95 102  97 102 100
 129 128 128 123 122 127 122 123 118 116 119 116 107  89  72  66 131 130 118  99  80  76  66  68  63  63  76  68  57  66  68  65  69  76  87  94 120 127  62  74  83  90  89  97  98 101  98  96 102 111
 122 128 126 132 120 127 128 124 121 113 111 106 102  92  79  51 119 115  88  34   9   7   5  10  20  25  65  61  60  72  18   8   8   9  28  63  99 124  69  76  89  87  94  93  92  98  99 100 101 105
 129 129 128 131 128 126 126 124 123 107 106 105 102  98  87  62  92  88  60  30  25  29  27  36  47  48  65  51  68  47  34  23  22  21  22  47  73  64  68  84  88  89  86  97  93  92  95 102 100 105
 130 130 129 132 127 127 127 123 120 109 109 105  99  95  90  69  40  65  53  38  36  45  53  50  45  42  44  40  41  30  29  32  36  29  29  42  55  47  70  85  90  94  90  94  97  97 103 101  92 104
 133 133 131 124 128 110 118 118 109 111 102 104  99 102 104  94  65  38  29  29  43  53  52  58  48  46  44  36  33  42  42  36  35  28  21  23  42  63  81  87  94  94  92  91  93  93  96 101 100 103
 133 133 130 128 127 126 116 113 111 109 109 103 109 109 112 114  96  78  74  60  61  70  69  67  70  69  67  60  69  65  62  56  53  44  48  56  63  81  84  87  91  91  91  90  91  97  96  98 103 102
 123 135 131 128 125 125 116 110 107 103 102 105  99 112 111 107 111 102  92  90  85  75  70  66  69  67  62  69  69  53  57  53  57  59  70  69  69  83  89  88  90  90  97  87  89  90  92  93 100 106
 134 131 130 127 126 114 120 118 103 102 105 102 107 111 116 110 103 104  92  82  88  84  74  50  75  75  64  73  66  60  57  54  51  62  58  78  81  81  85  94  89  92  90  87  87  91  93  97 102 104
 132 132 130 124 119 122 118 122 103  99  98 111 114 111 103 107  99  97  90  65  85  71  70  50  72  68  64  71  61  63  69  62  57  57  58  59  77  82  88  91  95  87  86  87  87  81  83  96 107 120
 131 126 124 126 123 122 116 106 102 104 113 113 118 116 114 103  99  84  91  76  73  83  79  82  77  65  58  69  64  65  59  61  60  59  61  58  60  52  62  92  86  92  85  88  90  87  91  97 103 108
 131 130 126 126 122 118 109 115 113 116 113 110 115 109 107  96  95  80  87  87  88  85  92  82  88  78  69  61  73  79  77  66  68  65  69  66  58  57  62  71  73  73  82  86  87  81  83 100  93 115
 129 122 114 120 115 117 114 114 114 109 108 102 100  97  61  86  86  86  90  87 103  93  75  64  70  82  95  92  79  65  50  40  45  48  63  69  60  54  60  66  62  71  77  78  85  87  89  93  88 104
 128 126 115 113 117 121 117 112 108 118 110 101  84  84  78  85  75  92 101  92  89  57  49  44  44  47  46  49  45  38  39  31  30  36  46  63  73  67  62  56  51  55  62  81  92  98  88  95 102 105
 128 122 123 115 122 117 117 116 107 107  98  62  50  74  73  73  86  96  86  63  50  40  43  40  38  36  39  38  33  31  32  32  37  36  35  44  54  77  83  54  58  46  53  71  88  94  96  98 109 110
 129 123 124 119 122 119 123 115 108 103  87  80  67  62  66  76  83  72  46  38  34  40  38  39  35  35  42  32  37  34  32  37  45  43  42  35  34  59  73  58  66  52  59  70  87  96 103 100 105 118
 126 127 126 121 122 115 116 116 103  79  71  65  57  59  59  59  47  32  29  30  37  42  41  36  32  35  36  32  29  28  31  36  41  38  47  30  28  34  49  43  45  55  51  63  84  97 100  95 107 124
 129 124 117 119 108 115 116 110 100  96  68  66  51  31  25  28  17  16  17  25  16  20  16  16  16  13  11  14  12  10  13  12  17  23  21  18  18  21  15  21  28  41  51  57  83  97  98 107 105 120
 128 122 124 105 111 119 116 109  93  88  70  50  28  12  21  47  47  48  55  51  52  56  57  50  48  51  45  36  49  51  48  47  36  46  42  43  36  30  22  12  23  32  48  62  84  94 104 103 114 123
 126 124 122 122 114 110 108 104  88  82  59  36  32  27  36  49  58  57  64  66  75  73  70  67  85  95  84  53  95  92  75  75  73  61  50  46  50  42  33  27  29  39  48  53  79  88 107 105 113 127
 126 125 124 124 106 106 111 105  92  70  56  44  41  51  56  46  49  51  66  64  80  80  87  88  93  80  68  57  79  84  85  59  54  55  50  51  49  48  63  45  35  42  49  58  70  89 101 113 124 123
 122 117 120 115 114 109 101 100  90  65  62  56  60  76  82  76  54  45  54  52  59  68  60  67  69  62  61  48  53  54  56  50  41  49  52  44  54  77  72  52  48  44  52  60  72  87  97 109 120 126
 106 113 118 116 115 107 104  95  85  70  58  65  66  82  96  88  81  64  50  45  42  42  51  51  53  50  46  41  42  39  42  40  42  43  52  71  79  78  66  63  58  56  54  66  77  85  94 106 118 131
 120 115 114 105 109 106  95  93  81  79  72  80  83  86  98  95  87  84  77  70  53  47  45  47  40  38  39  38  34  38  40  40  52  62  60  68  81  79  76  66  68  69  59  66  70  88  92 107 110 122
 111 110 105 103 102  97  89  85  81  74  72  86  91  88  91  95  76  87  83  70  66  58  57  48  47  43  42  41  42  40  42  47  48  57  62  69  81  85  72  72  68  70  65  64  71  84  98 100 105 121
