P2
50 50
255
  27  20  27  23  26  19  19  26  15  24  24  33  30  30  30  34  42  30  36  58  67  60  62  66  59  74  68  67  63  67  63  58  57  47  31  32  20  20  17  11  23  23  20  14  16  14  24  23  18  24
  27  30  26  21  23  25  30  45  47  33  44  33  39  35  39  40  35  38  51  53  61  46  69  58  60  60  59  59  61  63  59  57  54  43  32  31  28  28  26  28  29  27  32  30  26  26  24  27  26  30
  35  30  37  40  49  61  72  68  66  54  64  52  45  56  48  54  55  43  53  58  58  58  49  61  65  56  54  51  59  58  57  55  52  44  41  32  42  42  44  37  34  38  50  54  58  43  43  41  45  40
  59  62  72  56  80  86  82  83  81  73  69  62  50  50  53  59  58  52  54  52  55  62  60  59  58  57  56  47  56  56  54  52  49  41  42  45  43  46  44  46  54  60  65  62  60  52  59  50  62  52
  67  74  79  83  94  89  91  89  89  81  70  57  50  50  45  48  51  52  55  58  56  58  59  59  63  58  58  46  52  52  54  45  45  41  46  43  38  42  46  56  62  68  72  65  68  70  72  62  75  74
  91  98  93  98  94  92  92  87  73  72  64  54  51  47  46  42  46  49  55  57  57  61  62  69  68  73  44  48  56  58  48  49  47  47  43  40  41  46  50  57  66  63  72  65  63  62  70  72  75  85
  99  99  99  90  89  82  73  73  68  62  50  48  38  39  40  43  43  43  53  55  56  65  73  79  87  84  77  60  65  62  52  45  46  43  37  43  47  50  48  39  41  40  50  61  56  59  65  70  84  99
 116  98  95  88  74  66  47  31  21  20  18  19  17  23  36  39  39  43  48  54  63  77  90  96 103  98  95  84  72  61  54  51  49  41  42  38  41  37  25  33  32  40  40  41  28  29  53  65  73 103
 102  88  74  45  25  32  16   8   5   5   8   6   7   9  13  35  39  47  48  62  65  77  95 100 103 101  98  86  78  65  51  51  47  43  39  37  32   3   4   6   6   6   8  23  31  40  41  25  61  93
  80  55  23  35  20  11  26  11  17  13   7   8   7  32  17   9  46  50  52  69  81  84  94  95  98  98 100  87  77  68  53  54  46  43  44  39   7   3  13  11   5   5   4   8  10  21  39  52  51  45
  43  30  21  11   9  86  82  23  17   8   5  11   8  42  22   9  24  56  65  74  83  93  87  98 101  98  95  93  86  72  59  50  48  50  48  41  14   6   5   7  13   8  10  33  11   6  13  35  65  72
  29  19  13  15  20  28  57  14  22  12   8   6  22  28  32  46  62  66  78  85  83  85  88  98 106 104 107  92  88  69  62  53  47  51  62  48  32  33  22  14   9   8  20  20  15  14   8   9  22  41
  38  31  33  37  34  36  33  40  32  33  34  45  43  35  35  54  71  73  81  78  83  87  96 103 105 111 108 100  94  74  68  63  49  52  53  51  42  31  29  31  32  32  29  32  32  38  45  34  31  31
  67  66  67  73  73  72  68  61  53  42  36  35  39  41  47  64  79  87  85  81  90  94  96 104 105 111 109 106  98  83  69  74  57  52  54  57  51  43  31  28  28  34  38  40  49  61  68  75  72  77
  90  82  83  77  79  77  68  58  47  43  39  39  37  50  61  78  83  86  85  89  93  95 100 105 114 114 109 114  99  94  84  77  69  55  52  57  58  48  38  36  35  34  37  42  49  58  70  76  84  91
  96  96  92  91  82  69  61  58  43  43  42  37  44  62  81  89  95  95  88  98  96 102  98 103 106 117 118 114 100  98  87  87  74  66  59  55  61  59  49  43  38  38  37  48  49  53  59  75  83  93
 111 113  97  91  75  69  63  53  49  58  61  64  75  85  90  99  97  95  93 102  98  98 102 107 109 118 109 110 102  99  90  89  78  75  62  58  62  67  62  62  53  47  45  53  52  60  67  72  82  91
 120 116 103 101  90  84  89  83  82  87  87  94 103 102 100 101  98  95  90 104 102 101  98 103 114 122 114 111 102 100  89  93  79  84  71  64  66  67  78  81  68  69  62  67  70  70  83  86  89  95
 123 119 118 116 105  99  98  92  96  97 102 108 100 103 103 103 102  94  96 103  97  91  98 105 114 106 116 109 106 102  89  81  85  89  75  69  65  70  76  82  87  90  83  81  81  86  89  91  92  92
 101 123 122 121 116 108 103 103 103 103 109 106 101 107 107 102  98  92 100  91  90  97  98 114 119 120 118 115 106 105 107  89  81  86  84  69  68  71  72  85  93  91  91  90  89  94  92  99  98 103
 127 125 126 122 121 113 118 110 102 107 110 111 118 103  98 103 105 102  93  87  90  97 109 124 123 120 122 113 117 103 103  96  84  80  77  66  68  75  77  85  87  92  96  96  92  93 101  98  98 102
 127 126 122 122 118 120 120 111 117 114 109 109  96 114 106 104 103  78  72  90  97 108 128 128 126 122 125 136 121 102  99 103 105  84  76  57  62  75  76  87  92 102 100 101  98  91  90  97 102  99
 127 126 126 127 125 124 127 123 117 118 116 112 111 111 107  98  86  72 104 105 115 132 128 130 134 124 121 134 118  95  89  92 109 113  94  89  50  62  73  85  90  97 105  94  92  98  96  97  98  94
 130 126 129 126 123 126 124 122 120 119 113 111 120 111 105  91  63 120 124 126 123 127 124 125 118 116 114 101 101  92  88  85  92 105 103 105 105  61  70  81  87  98 100  94  95  95  97  94  99 100
 126 128 128 124 126 120 127 124 123 120 117 118 110 103  93  68 119 135 130 127 123 123 107 101 109  99  94  84  83  78  87  79  98  91 103  97 121  78  65  79  87  96  95  93  90  91  97  93  97 102
 129 119 122 121 128 127 124 125 123 122 112 117 103 100  82  58 130 129 130 122 111 103  96  95  99  95  93  81  79  70  72  80  90  93  95  88 114 119  69  81  86  89  97  97  98  93 100 103 101 103
 132 129 124 126 126 127 123 122 114 117 118 115 107  94  74  70 133 129 115 100  84  83  68  70  71  72  75  73  66  64  74  67  78  83  90  99 121 123  62  75  85  93  98  95 101  98  94 100 102 102
 124 128 128 133 114 127 131 127 122 111 111 109 102  89  76  58 123 112  87  49   8   5   4   8  18  38  62  59  62  70  23   9   5  12  53  70 109 120  69  77  91  87  91  92  94  99  99 101 106 105
 127 129 129 128 129 127 126 113 119 101 108 100 100  95  83  59  95  89  55  26  25  19  25  32  47  50  68  53  68  43  31  22  18  18  24  51  78  52  72  79  89  90  86  96  88  92 106 100  97 105
 129 127 132 129 128 127 124 120 116 110 107 105  98  95  93  68  40  72  52  36  36  38  45  48  46  44  46  42  48  30  33  34  32  26  31  49  48  52  70  86  91  92  89 100  98  98 102 102  95 108
 130 123 133 123 127 123 123 118 110 113 109 105 104 100 101  87  60  30  31  34  41  50  50  51  48  43  40  32  33  40  39  35  33  25  22  23  44  63  82  90  94  96  94  93  92  96  95 107 108 105
 135 134 130 127 122 123 116 108 116 109 104 102 109 108 113 105  87  69  62  54  52  66  66  71  71  67  69  55  71  60  56  53  53  44  45  52  59  79  89  90  91  91  87  87  92  94  95 103 109 109
 125 134 132 127 126 122 121 112 107 102 103 100 102 111 106 110 111 102  97  91  83  73  76  64  72  61  61  73  69  58  60  53  61  58  69  70  73  81  92  90  90  86  94  87  89  94  92  99 104 122
 132 135 131 126 127 120 116 116 106 102 103 101 107 107 115 109 100 103  95  71  85  88  78  53  70  75  63  70  56  59  60  52  56  63  53  79  82  83  90  92  86  94  90  89  90  95 100  95 107 109
 134 134 130 127 123 122 118 118 105 100 102 107 114 112 110 109 100  94  88  82  85  76  67  66  68  65  59  69  62  71  62  56  63  64  57  65  74  85  92  89  90  87  87  90  89  85  92 100 107 116
 133 127 127 123 123 120 119 114 106 109 108 110 122 116 117  96 100  88  90  73  69  83  74  77  74  65  65  68  65  65  58  63  62  60  63  54  50  66  72  83  92  86  87  88  85  85  92  98 108 117
 132 126 123 124 124 120 111 108 114 110 114 117 111 110 103  97  92  76  85  87  89  85  93  83  89  74  69  64  71  79  74  65  67  69  73  68  58  43  63  79  60  80  85  79  90  88  86 100  97 114
 130 123 117 121 120 117 109 117 114 106 111 105 103 101  55  92  84  79  88  94  97  95  77  78  81  84  89  89  84  67  49  35  46  56  75  69  60  56  68  57  68  69  76  85  85  79  91  94 109 104
 126 123 115 115 120 116 116 114 106 110 103 101  84  81  71  85  77  82 103  94  92  58  54  44  41  48  47  50  47  39  35  32  30  37  56  75  72  68  62  58  54  60  66  83  90  96  93  98 108 107
 128 125 125 117 122 118 116 118 110 108 107  70  59  66  80  72  85  94  89  70  49  40  43  40  38  33  37  35  33  30  31  32  32  36  37  47  64  75  69  56  58  43  51  75  96  95  92  97 108 116
 127 117 126 118 118 117 123 117 103 111  93  73  72  64  70  80  79  70  49  36  38  39  40  36  32  37  34  35  32  32  33  39  38  45  37  30  39  62  76  56  56  53  49  76  89  97 100 103 118 118
 127 125 127 124 121 116 120 118 106  93  71  59  59  62  64  61  45  33  28  31  36  41  45  37  28  32  37  28  30  31  32  35  42  44  38  30  29  35  55  43  46  57  53  73  91  94 102 102 107 126
 127 124 117 118 109 116 118 106 102  96  61  68  55  32  26  28  19  19  20  26  24  22  18  13  18  16  11  16  11   8  13  14  16  21  19  18  19  20  19  24  30  43  51  68  88  97  94 109 114 126
 128 123 124 111 115 118 115 111  91  89  74  54  30  13  23  46  45  51  56  53  50  51  52  48  52  51  46  47  48  48  48  44  38  50  37  42  34  32  17  15  26  32  51  62  88  95 105  99 112 125
 128 127 122 114 113 106 107 106  91  83  58  34  27  34  37  52  58  56  64  69  79  73  70  68  82  83  87  67  94  86  70  76  68  58  49  52  50  39  33  28  32  37  50  53  78  91 111 103 122 126
 127 120 123 116 111 109 108 103  91  75  50  42  39  52  55  43  49  54  68  62  73  85  93  95  94  75  69  60  71  86  91  58  54  53  52  53  46  59  60  43  39  43  48  59  78  89 105 114 126 126
 124 120 115 116 113 110 103 102  90  59  57  57  58  71  77  72  52  45  52  57  62  66  62  68  68  66  53  50  51  55  62  46  47  49  50  47  53  71  73  51  45  49  54  63  72  89 100 115 118 128
 109 111 118 118 114 103 100  97  86  68  58  67  69  83  95  88  83  63  47  47  45  46  45  48  50  45  42  40  42  41  42  42  40  41  54  71  80  81  73  61  55  53  57  66  74  85 100 115 124 128
 114 114 115 109 111 102  94  87  83  75  74  70  77  83 100  93  90  88  74  69  54  49  42  46  44  40  36  37  38  37  40  42  54  58  60  70  83  75  72  66  68  64  61  66  73  87  95 109 124 120
 114 107 103 102 103  95  89  86  80  73  72  85  88  92  91  95  82  87  85  72  62  62  56  54  48  43  38  38  41  41  38  46  53  56  59  71  87  78  75  69  67  69  59  61  78  82 103  93 115 122
