P2
50 50
255
  28  25  24  24  22  19  22  25  23  25  31  29  29  28  26  36  30  33  67  76  61  63  73  61  71  70  72  74  71  68  65  58  52  30  33  23  19  18  16  24  19  21  19  15  17  19  19  23  20  20
  24  29  23  24  26  34  38  41  40  42  34  33  34  34  39  39  30  51  61  68  58  70  67  64  62  62  63  65  62  65  64  54  51  33  32  28  27  27  27  26  33  34  33  28  26  27  24  23  22  23
  32  34  51  52  61  68  79  81  69  68  56  55  54  56  54  57  46  58  64  74  64  60  67  63  59  59  54  64  61  62  60  54  48  39  38  44  47  46  41  41  48  54  53  53  51  46  41  36  37  32
  54  66  70  73  88  90  87  90  80  76  67  57  51  60  59  60  57  59  61  68  68  64  62  58  64  55  52  58  61  59  57  50  48  43  45  52  50  50  51  55  65  64  70  69  65  62  60  63  54  46
  78  82  89  92  97  97  91  91  86  78  66  57  51  49  52  59  56  58  64  65  69  63  57  59  55  57  59  55  55  61  46  49  46  50  43  47  44  50  55  60  68  72  74  73  71  73  70  65  67  66
  94 104 107  97  92  93  89  84  79  69  60  55  51  45  46  51  50  55  62  61  66  63  74  74  69  44  35  60  56  57  54  52  51  46  45  42  44  47  54  56  63  71  71  66  67  68  69  69  76  76
 105 103  94  86  88  82  82  68  68  53  45  39  40  41  42  45  44  58  61  61  68  73  82  89  86  74  68  68  65  56  51  53  47  45  45  42  45  47  44  38  37  51  56  54  60  64  65  66  73  88
 108 100  89  77  65  42  30  29  25  21  17  18  20  33  37  40  43  50  59  63  73  86  97 104 100  92  86  81  63  62  54  53  46  44  41  40  38  27  24  28  31  36  32  31  31  30  55  62  75  87
  99  85  65  31  28  25  11   9   9   6  84   5  10  13  30  39  46  41  62  67  81  96 102 101 102  98  88  84  68  55  54  49  46  45  41  38  19   9   6   6   8   7   9  18  32  34  27  28  53  83
  79  42  29  30  13  12  45  13  15  17  15  11   5  24  11  49  49  51  65  78  86  95  99  99 102  99  87  91  66  53  53  50  45  47  41  27  13   5  16  13   8   6   5   7   4  20  34  37  31  40
  37  30  19   8  13  73  83  19  15   8   5   9   8  29  16  10  55  60  76  85  89  89  98 102  99  94  94  83  71  54  52  53  50  54  49   7  19   6   9   6   7   8   6  26   9   5  14  29  48  49
  28  19  18  19  25  28  33  18  20  12  16  19  25  30  34  50  69  76  84  85  87  98  99 104 102 103  94  87  72  59  51  53  52  59  53  28  29  28  26  22  24  16  21  24  20  19  11  10  13  29
  38  39  33  47  52  53  48  46  45  38  43  38  35  39  46  69  77  83  79  81  87  93 104 108 110 105  96  90  74  69  56  49  55  59  54  56  32  32  32  37  38  39  35  42  49  43  44  40  30  46
  83  79  85  83  85  74  70  54  49  40  35  34  39  42  54  79  85  84  85  88  95  94 105 111 111 107 101  91  76  71  66  51  50  54  65  56  44  36  35  30  31  36  39  47  54  55  62  71  66  72
  92  94  87  88  88  71  65  52  48  40  38  34  38  52  77  86  94  89  93  93  99  97 109 119 112 113 101  91  86  75  67  55  52  50  59  62  53  40  36  32  33  34  36  42  44  55  64  69  74  83
 104 104  91  86  68  60  55  47  42  42  38  49  64  81  92 100  94  91  92 102 103 100 105 116 115 113 102  96  87  79  74  64  55  57  58  62  67  52  43  33  33  37  38  42  47  49  54  66  71  83
 113 109  93  82  77  73  61  64  63  64  71  78  97  97  99 102  92  94  99 104 100 102 107 112 109 109 101  95  88  86  70  70  66  61  60  71  73  76  69  59  55  51  52  55  51  58  63  73  78  84
 117 113 109  99  94  89  88  90  89  91  91  99 102  99  99 102  95  94 105 103  96  99 106 113 115 106 104  92  86  86  77  77  75  61  62  64  78  82  83  84  84  78  78  75  73  75  86  85  87  90
 122 120 117 117 104  99  94 100 101 105 107 105 104 105 102  99  92 101 104  94  95  98 111 109 111 107 107  95  91  89  79  76  74  64  64  68  68  80  88  94  95  95  89  89  89  93  91  93  91  93
 113 126 124 116 117 111 109 110 107 110 107 109 105 104 100  94  97 104  91  98  98 103 115 120 113 111 105 104  99  86  77  77  72  69  69  68  74  81  86  92  99  96  95  93  94  94  97  95 100  99
 128 129 124 119 119 117 115 117 114 113 112 107 107  99 104 102  99  88  89 100 107 127 119 115 117 118 108 101 100  96  83  79  68  64  68  70  75  88  85  91 102 100  97  97 100  99 102  97 100  97
 126 124 124 126 121 125 121 122 120 115 109 105 105  99 102  99  88  95  96 120 128 127 125 122 123 132 122  97  99 100  95  84  78  65  56  70  79  86  89  93 103 105 103 100  98  94  99  98  99 100
 128 126 130 124 126 127 124 122 118 111 111 107 107 100 100  90 106 113 123 129 126 127 129 125 117 130 118  92  92  91 100  99  95  87  68  57  73  85  91  94  99 105  94  99  95 100  99 100  95  94
 128 130 128 127 124 128 122 121 119 115 105 115 107  95  90 122 126 125 122 125 115 120 115 113 106  99  93  89  86  81  93  96  99 102 100  57  60  78  85  96 103 104 103 102 102  98  98  91  95  95
 131 121 125 130 127 127 125 120 119 119 112 104  95  81 101 132 129 127 119 110 107 107 104 107  95  85  86  74  79  79  84  88  96  94 103 104  55  74  84  94  97 102 102  97 100  99  96  99 102  97
 129 124 126 127 125 122 123 121 112 114 111  97  95  76 128 131 122 119 105  97  91  90  90  90  89  78  73  71  76  76  78  81  91  84 102 119  50  72  80  93 100 100 100 100  99  99  95  99 102  94
 130 127 129 112 127 126 121 109 112 108 104  95  85  74 125 121  98  77  49  50  52  52  60  71  74  63  60  64  74  63  71  77  84  91 107 123  53  66  77  90  94 102  96  99 100  94  94  97 102  97
 128 128 128 128 126 128 121 116 108 107 104  97  88  71 103 103  55  19  10   8   6  15  29  57  64  56  65  35  26  14  17  21  35  62  96 117  54  68  82  88  94  95  99  97 102  99  96 102  98 100
 130 128 128 126 125 124 121 118 105 103 105  98  88  70  70  87  58  30  26  29  30  39  55  57  65  54  62  32  32  23  21  21  25  50  76  80  55  71  79  82  94  95  99 100  97  98  99  95  95  96
 131 131 129 128 125 123 121 111 107 104 101  96  95  80  62  59  51  36  35  48  58  54  44  46  47  40  37  30  32  29  32  30  28  40  44  32  67  74  84  90  95  94 101  99  98  93  99  91  92 102
 132 131 126 121 119 120 111 111 107  97 104  99 105  91  78  55  35  35  46  59  56  62  56  51  53  44  44  46  48  39  34  25  23  25  33  53  77  88  88  91  96  94  94  94  97  99  97  99  99  96
 132 131 129 123 122 117 111 104 105 102 106 104 105 104 100  95  81  73  65  72  79  76  70  69  73  72  73  65  62  57  50  43  47  51  58  75  89  86  91  91  97  92  91  95  96  99  94  99  95 105
 131 129 127 126 122 118 110 102 104 102 100 108 113 108 111 107  99  93  86  82  76  68  72  66  68  74  68  62  61  54  62  62  62  77  71  78  83  86  88  91  91  98  91  90  92  91  91  97  96 104
 132 129 126 124 120 115 109 101 105 105 106 111 112 114 108 101  97  93  85  86  79  67  73  68  69  76  64  69  63  55  58  61  59  67  79  78  81  87  91  91  92  94  85  90  89  89  94  94  96  97
 130 127 125 122 119 117 105 104 104 105 113 112 115 105  99  92  91  72  85  78  67  72  78  70  73  83  66  71  60  54  62  64  61  59  68  69  79  81  91  92  87  86  88  84  85  86  94  99 100 104
 127 125 125 119 120 115 113 106 105 107 117 113 110  97  93  89  93  75  75  87  87  82  76  66  69  73  70  63  62  61  66  63  66  61  53  51  57  82  78  85  81  84  85  84  78  86  88  94  96  95
 125 124 120 122 119 109 114 113 109 109 108 105  95  97  88  85  81  93  89  91  93  88  87  86  78  74  83  83  65  59  65  65  69  66  56  54  55  56  66  67  74  82  83  88  78  81  89  91  96  95
 119 115 119 121 115 107 112 107 109 100  94  91  74  86  91  87  89  97  97  94  74  70  72  81  84  87  78  59  47  42  50  53  63  65  63  57  58  58  60  63  64  70  79  78  78  81  83  84  97 103
 125 122 115 119 117 115 108 107 102  94  79  78  83  85  90  97  99  90  64  52  53  47  43  51  50  49  44  35  30  30  32  35  51  58  64  64  58  53  49  52  53  57  73  83  79  76  88  91  97  99
 119 121 119 121 113 110 107 104 100  83  65  78  74  81  89  90  70  46  41  41  38  39  37  38  35  32  35  28  30  31  31  31  30  37  47  64  63  55  54  50  52  47  69  80  86  91  88  94  99  96
 122 121 121 121 119 119 109 102  86  76  59  68  74  73  66  51  37  33  39  40  39  36  33  35  37  35  30  31  31  37  36  36  36  32  29  44  59  56  47  55  49  49  64  77  85  87  88  92  99 102
 124 124 121 115 121 113 107  97  76  68  65  41  41  39  35  27  31  30  33  35  33  33  30  29  27  30  25  25  25  29  30  28  30  29  26  25  31  39  36  50  52  48  66  78  85  89  89  95 100 110
 125 121 114 114 120 112 103  91  77  65  41  27  14  23  26  26  30  36  33  35  28  27  28  26  25  28  27  29  28  26  23  31  21  23  20  19  10  14  23  30  45  49  57  76  85  92  99  95 104 112
 122 124 111 107 111 108 101  78  78  46  28  22  22  36  48  58  62  67  58  57  61  62  59  60  60  56  68  61  54  47  47  56  40  45  37  33  25  19  18  26  36  49  65  77  88  94  93  95 113 114
 122 122 117 112 109 107  97  79  58  44  35  41  50  46  55  56  69  73  85  86  85  86  91  94  88  78  89  93  77  69  59  54  44  50  45  40  34  31  28  30  41  52  47  72  82  98  98  99 105 112
 117 110 115 110 110 104  94  78  61  58  54  61  76  70  55  53  58  65  67  79  78  86  88  83  62  58  62  74  77  53  53  45  38  41  39  40  53  49  38  42  48  45  59  72  81  95  98 106 107 119
 107 117 112 111 106 100  94  76  61  62  66  75  87  92  78  63  51  52  52  55  62  57  56  58  52  47  50  51  48  44  40  40  43  42  53  65  74  65  47  45  49  47  56  68  85  87  94 105 117 116
 107 114 100 112  99  95  94  81  68  72  79  80  97  94  92  84  69  62  50  45  50  54  47  42  38  40  38  39  37  43  41  47  54  65  69  78  68  67  56  57  50  55  63  69  76  89  99 100 115 121
 108 106 104 103  95  90  83  78  74  76  91  90  94  96  88  86  82  78  68  58  55  51  41  42  41  43  40  38  42  47  52  54  60  67  71  81  64  66  55  61  62  56  63  71  78  84  92  99 112 117
 104 106  98  99  90  83  79  81  81  83  87  92  91  96  84  84  85  71  66  65  52  50  43  38  40  37  37  42  41  49  46  55  64  65  75  73  69  67  68  67  64  58  58  70  73  85  86  78 111 113
