P2
50 50
255
 118 122 109  85  54  35  24  23  23  22  24  27  34  26  35  35  34  30  94 102  88  99 110  96 105 102 109 103  87  80  73  74  42  25  29  24  21  17  19  22  21  18  16  16  18  22  31  48  81  75
 116 101  68  29  25  21  19  21  27  29  27  29  33  32  40  42  35  63  70  83  65 102  92  91  83  88  91  83  81  89  78  57  39  33  28  28  30  24  28  27  23  26  23  22  18  20  19  20  28  73
 101  34  21  22  18  22  27  36  64  54  54  48  51  57  48  62  49  71  84  88  85  79  92  78  74  75  65  68  67  74  65  63  44  43  34  37  41  36  31  33  46  37  46  31  25  25  22  19  19  44
  56  21  22  22  26  50  74  92  91  78  76  61  65  72  77  71  71  63  65  81  84  88  78  76  71  76  67  69  78  67  67  55  47  53  43  48  50  48  46  62  65  78  73  72  63  55  44  31  24  22
  22  22  26  47  74 106 101 109 106  92  85  76  61  62  65  69  68  73  70  76  83  74  64  71  62  70  83  65  71  61  54  50  48  54  49  49  49  48  53  71  75  83  83  78  86  79  70  52  34  29
  25  35  68  88 114 108 109 105 103  87  79  62  62  50  51  57  63  63  84  75  76  80  78  81  82  47  34  63  62  60  58  56  59  54  43  43  50  53  48  65  69  76  76  76  72  77  87  81  60  45
  43  92 117 120 118 101 101  81  67  58  29  47  51  51  48  56  49  60  70  73  84  81  90  98  99  79  67  79  76  67  63  60  55  45  49  44  44  49  42  27  24  26  28  44  59  65  73  81  81  81
  76 121 110 110 102  84  54  33  21  10  15  14  24  37  49  49  60  61  63  71  81  97 103 108 106  92  89  82  78  76  62  54  57  51  53  49  42  19  20  16  16  15  20  31  22  33  55  67  78  90
 115 119 116  98  66  37  19  18  18  14   8   5  13  14  32  51  56  64  68  77  92 107 109 114 102 101  85  86  68  62  65  72  59  59  54  43  13  12   5   5   7   9  13  13  24  31  25  39  64  90
 127 123 104  69  26  23  16  16  10  14  15  14   7  22  16  48  62  81  76  81  85  97 101 104 108 104  95  83  65  47  58  64  58  67  51  27  15   5  15  13  14  11   5  15  12  24  31  24  38  65
 122 108  63  27  25  16  20  15  20  18  15  15  17  38  24  15  65  83  83  88  98  92 103 107 121 114 105  95  76  59  51  57  60  70  58  13  25  13  19  13  13  10  11  27  13  13  25  31  25  43
 113  82  32  29  16  16  64  30  22  21  21  29  30  30  26  27  70  78  83  85  90  93 111 118 116 115 106  94  85  72  56  47  58  65  57  28  31  35  34  32  41  40  39  29  19  15  14  24  29  30
  95  45  28  20  13  22  43  57  56  47  41  39  36  28  37  55  83  83  81  78  87 103 111 111 117 115 103  98  88  81  67  49  51  62  66  56  33  35  37  38  36  44  48  49  53  47  29  15  22  28
  70  36  22  17  45  82  80  73  62  49  42  40  43  42  47  73  89  88  88  97  97  94 103 103 116 115 114  95  79  85  69  61  45  54  69  66  48  47  36  37  30  34  40  43  51  56  64  62  24  25
  60  28  29  77  90  92  83  66  55  44  40  38  33  43  64  92  92  92  86  99  98  92 113 124 124 125 121 115  95  81  73  70  60  54  62  69  69  51  43  39  34  35  41  48  42  53  60  71  69  60
  44  65  88  91  98  82  71  62  43  39  39  33  48  76 101 103 101  92  96 103 100 125 131 126 125 123 121 111 120 113  72  64  77  54  56  65  78  68  57  46  44  40  43  48  50  49  60  65  75  83
  92  96  98 103  89  73  62  60  51  59  62  80  92 100 108 100  98  98 111  98 127 133 130 129 128 127 126 109 115 108 121  75  69  65  63  68  73  85  78  75  68  61  59  70  59  65  70  76  85  90
 115 122 112 103  88  92  87  93  88  91  90 103 107 101 102 106 104  94 101 128 130 132 128 131 124 111 113  99  96  88  96 110  83  75  67  68  67  92  91  92  90  92  83  85  83  88  92  94  98 101
 125 125 122 122 118 111 102  97 103 114 113 111 108 111 110 106 103 125 127 130 125 119 118 116 111 100  88  83  78  75  88 104 111 109  76  71  72  75  73  90 102  98 101  97  98 103 102 106 111 106
 129 128 127 127 121 123 119 121 102 118 114 110 110 101 107 106 130 133 129 127 109 106  97  98  91  84  77  65  71  68  75  98 105 100 116  91  75  83  89  91 103 108 108 106 109 106 116 116 111 115
 129 126 130 126 127 126 126 122 125 119 111 110 110 109 103 130 131 129 120 107  88  82  73  87  81  68  61  53  53  52  64  77  80  97 101 121  78  81  86  94 108 117 109 113 103 118 115 116 119 119
 132 131 131 128 128 130 127 127 124 123 117 111 112 106  93 138 125  91  61  15  10   6   8  11  73  54  58  59  11   6  13  40  56  74  97 121  77  81  76  97 104 102  99 111 103 118 118 114 114 122
 133 131 131 132 131 130 130 128 125 122 120 114 110  94 111 132 114  45   8   5   4   5   8  21  76  53  55  25  15   4   4   3   7  36  76 102  88  83  81  89 101 108 110 104 103 116 116 108 116 112
 133 131 135 130 132 130 129 124 125 123 120 111  95  97  88 122  93  33  15   7   4  17  47  64  56  44  42  35  34  23   4   8  15  31  56  76  71  65  83  92 102 100 110 114 109 116 113 118 114 116
 135 129 128 131 129 127 129 121 123 118 120 111 107  95  50 104  73  52  44  46  54  69  68  52  43  39  33  34  35  40  38  30  31  34  46  51  37  66  82  90  98 106 114 118 116 116 111 109 115 114
 136 134 134 134 124 129 127 128 126 120 116 112 102  88  61  51  62  48  46  58  67  56  58  56  58  51  50  64  45  46  39  33  33  30  30  32  40  66  82  89  97 106 111 112 109 120 114 116 120 117
 129 134 133 133 129 129 128 125 126 121 120 106 107 106  75  47  29  30  32  48  53  66  55  67  62  72  67  57  56  52  47  35  25  23  23  27  55  74  88  95 102 113 109 115 117 118 119 118 106 117
 135 132 133 133 134 130 129 125 118 118 121 114 109 108 109  92  77  78  87  80  73  75  67  68  56  75  69  47  52  53  42  52  46  58  61  75  83  94  94  97 111 111 114 111 113 114 119 118 107 111
 135 135 134 129 129 129 130 122 123 118 115 121 111 118 121 121 112  92  89  76  67  58  74  71  76  76  68  53  55  56  50  58  53  30  73  84  87  96 101 101 112 114 112 113 112 116 111 117 115  96
 138 135 134 132 131 127 126 124 120 119 118 114 120 122 120 106  69  79  81  75  83  86  86  77  62  62  75  71  77  54  60  57  62  62  65  72  84  91 103  98 107 112 119 106 105 107 106 111 114 103
 137 137 137 132 134 128 126 121 121 121 119 118 122 121 107  92  98  84 100  88  96  95  90  92  98  87  92  79  59  47  51  62  67  72  68  47  36  58  93  96 103 103 111 106 105 106 109 106 109 112
 133 138 135 134 129 127 126 119 120 119 122 124 120 113 103  95  87  81 109  95  67  59  47  53  45  46  44  39  33  33  33  37  55  73  69  53  50  53  82  82 101  97 102 108  96  98  99 106 109  93
 135 137 135 132 129 124 129 123 123 122 123 122 105  88 103  98 117 106  90  52  44  43  37  34  38  34  31  29  28  31  31  31  30  38  62  66  57  60  61  63  66  99  88  93  92  90  93  98 111 114
 135 133 135 131 129 128 126 126 126 122 116 107  69  98  90 100 105  67  38  38  37  35  34  34  35  33  30  30  28  29  32  29  28  28  31  51  61  58  43  55  65  70  83  88  92  90  96  96  98  94
 137 131 130 131 132 129 124 124 125 122 118  82  70  79  97  94  51  36  33  35  34  31  34  30  35  29  31  28  29  29  29  29  33  27  27  28  49  63  57  48  42  56  66  83  90  90  83  89  97 106
 135 133 130 129 131 130 124 123 124 113  59  79  69  96  84  54  31  31  33  34  33  27  27  29  24  23  23  24  23  27  24  26  28  27  27  25  30  38  52  46  43  38  52  77  95  94  85  97  85 106
 134 126 125 127 134 127 127 120 121 104  95  55  72  76  48  33  27  30  28  28  25  23  22  22  20  19  27  26  25  21  19  21  20  22  25  24  24  25  39  41  49  49  47  64  83  94  97  92 100  96
 132 130 128 129 130 127 128 125 108  72  75  77  45  32  28  23  22  23  40  43  48  54  62  72  88  75  76  94  84  70  62  57  59  30  24  19  20  20  25  29  43  49  49  71  84  89 101  96 103 105
 133 130 129 132 134 125 127 122 115  74  86  46  27  19  18  42  61  63  71  88  88  96  93  93  83  64  64  68  80  83  61  49  49  37  43  42  34  13  17  25  29  43  44  58  80  91  98  90  99 113
 135 133 132 124 129 131 126 120 104  83  71  29  23  14  39  54  55  60  63  70  68  58  60  67  55  44  49  50  54  47  36  39  35  38  35  36  35  28  16  21  25  34  54  56  78  90  95 108 103 106
 130 134 128 131 127 129 126 118  95  65  39  35  31  41  44  44  43  43  45  39  46  48  48  43  39  38  40  39  31  32  32  29  33  31  31  33  34  33  29  28  31  36  51  49  69  87  94  93 103 113
 133 132 132 124 127 128 125 110 101  69  49  48  55  82  91  79  62  51  51  42  45  48  48  43  42  40  43  34  34  39  42  48  48  52  48  51  61  57  46  33  40  45  43  50  67  80  94  95 102 116
 133 130 131 129 127 125 124 115  90  67  80  61  83 106 112 106 105 103  94  81  74  72  62  53  47  37  37  35  34  36  47  48  57  58  54  63  59  67  50  44  45  48  47  58  65  85  99  97 100 113
 134 130 131 127 125 125 124 111  94  78  73  84  96 117 106 101 109  98  90  85  78  65  57  46  38  37  37  39  43  45  48  46  53  62  61  65  81  66  58  51  51  46  49  60  70  78  90  93 106 112
 134 130 129 125 126 124 123 111  99  90  93  99  98 112 113  90 106 101  85  83  69  62  48  43  46  46  42  42  40  43  52  42  47  57  57  67  69  62  60  57  61  58  56  59  67  82  90  92 107 111
 134 131 128 127 128 124 115 112 103  96 103 111 116 107 111 104  98  83  88  87  69  62  60  45  45  42  44  49  50  54  56  48  48  57  63  64  61  65  58  62  64  70  58  61  68  77  88  94  98 116
 133 124 130 126 124 122 116 109  98  91 100 110 114 105 101  97  92  92  94  91  79  67  62  58  56  61  62  52  56  52  58  53  64  58  58  67  60  63  61  63  69  57  56  58  62  73  83  92 101 117
 131 127 129 124 124 120 106 102 107 105 111 116 111 106 100 102  93  96  88  83  83  84  83  78  71  79  76  69  50  61  62  58  56  53  54  57  60  66  78  63  63  67  59  57  63  76  88 101  92 121
 131 128 126 125 122 111 102 114 115 107 110 106 106 106 103 100 102  99  92  87  79  88  87  86  91  90  81  84  73  60  62  60  62  58  53  59  60  62  65  73  69  67  67  68  73  81  87  90  77 118
 128 129 126 119 118 114 118 109 114 118 111 114 102  98 101 103 100  89 102  94  93  91  95  98  88  88  83  68  73  62  63  71  67  62  62  61  63  64  64  65  72  78  76  77  79  73  84  93 107 119
