P2
50 50
255
 117 109 102  64  33  23  19  18  20  21  24  28  30  25  29  38  33  35  98  96  82  94 102  90 104  98 105 103  90  77  73  61  55  23  34  19  18  18  17  18  19  14  14  14  19  27  34  61  76  75
 115  76  29  30  19  18  16  23  29  29  25  26  34  37  36  38  35  69  73  81  71 103  90  87  83  84  85  90  81  91  78  52  37  28  28  25  24  23  27  25  22  22  19  18  15  16  18  21  34  73
  68  27  20  17  17  24  32  52  64  65  51  47  55  69  50  68  47  68  76  84  80  80  89  81  70  72  65  64  64  66  60  59  46  42  32  30  36  29  28  33  40  34  31  24  22  21  20  19  17  35
  30  20  18  24  44  63  84  95  94  89  73  61  66  71  72  68  63  70  65  76  79  77  73  75  58  71  63  67  73  62  66  57  42  42  40  47  47  47  44  57  60  74  70  65  60  40  25  23  21  20
  17  24  28  58  90  97 105 105  98  91  81  65  55  57  58  69  67  70  67  73  71  72  60  67  51  64  63  62  68  71  48  46  43  49  44  44  46  47  54  73  73  84  78  77  73  70  64  54  32  22
  26  48  80 104 111 103 100  98  94  78  72  53  59  51  55  51  61  65  73  72  77  78  80  76  69  37  34  62  54  53  53  54  52  54  39  43  44  50  52  64  66  80  69  70  76  74  84  68  51  44
  67  99 112 117 109 104  88  67  53  46  35  36  41  48  47  50  55  63  67  68  76  81  89  99  91  82  73  79  68  62  59  55  53  48  42  46  43  45  46  32  28  48  41  47  60  69  75  79  86  62
 103 123 117  90  84  65  35  19  10  11   7  12  18  28  42  52  58  59  64  77  74  93 102 107 100  90  81  77  74  64  57  60  53  51  45  46  38  21  24  15  18  14  29  28  28  35  46  61  81  84
 114 116 103  82  47  18  14  14  13   5   5   4  11  14  31  45  58  61  60  81  94  96 112 104 103  91  83  81  69  65  63  71  56  55  47  41  13  10   6   4   6  12  11  11  27  26  26  48  67  91
 120 112  83  31  20  14  16  13   9  14  14  13   7  21  14  44  63  68  69  76  91 100  99 103  97  96  84  80  64  51  56  59  59  62  52  26  10   6  12  10   8   7   5   9   9  25  30  24  46  74
 119  86  35  18  14  15  28  17  19  15 110  14  15  36  17  14  63  79  74  89  93  89 100 112 113 104  92  85  80  55  53  53  58  67  52  10  21   8 116  11   9  13   8  20   9  14  25  28  22  49
  93  56  22  24  12  19  91  24  24  27  27  32  29  29  25  27  72  80  78  84  89  94 103 115 115 113 100  99  82  65  48  49  52  66  57  25  28  31  31  29  32  34  32  22  11   9  14  23  29  26
  70  30  25  13  12  37  61  63  53  41  43  39  31  37  39  66  80  82  78  81  90  98 103 110 113 113  98  96  88  82  63  45  52  66  61  52  34  32  31  35  35  40  49  48  47  36  19  12  24  30
  57  26  18  29  80  88  81  79  60  43  45  39  38  40  47  78  87  89  83  91 103  94  98 104 113 110 103  91  79  90  68  58  47  53  63  62  50  43  34  40  28  35  36  44  57  54  60  39  18  24
  30  29  63  89  90  90  75  60  44  42  36  34  32  44  71  98  99  90  87  98  92  92 108 118 120 121 115 103  89  67  68  64  51  50  57  67  63  43  35  34  31  33  36  40  42  51  62  66  55  26
  51  82  91  94  93  77  58  47  39  37  35  43  58  81  96  98  96  93  94 100  89 125 127 125 121 121 117 108 109  98  71  71  68  50  57  59  75  63  50  37  36  42  39  43  47  49  55  64  74  81
 103 103 107 104  79  71  59  53  63  68  69  78  89 101 104 100  98  92 103  98 125 129 123 124 124 123 119 102 104 111 108  73  69  61  59  66  82  86  79  66  59  48  54  61  55  60  60  68  78  83
 113 117 108 100  93  91  90  86  90  93  91  99  99  93 103 105  93  98 103 127 122 127 126 130 122 121 119  97  97  92  98  99  69  70  60  62  66  84  85  87  88  82  81  80  80  79  81  88  93  91
 125 121 119 118 115 107  97 103 103 105 109 107 112 103 109  92  95 120 121 128 122 117 113 117 107  91  84  79  76  75  82 103 103  88  71  65  72  87  82  93  94 100 100  95  96  97  92 100  99 100
 125 126 125 123 119 117 118 116 115 109 112 108 107  84 105 109 132 129 128 121 111  98  99  97  98  80  71  68  68  59  75  93 103 105 104  74  74  82  80  91 100  97  96 102 104 108 108 108 108 110
 126 128 126 124 122 122 120 121 119 110 112  98 105 105  96 128 126 123 109  92  84  80  72  78  75  61  58  53  59  52  62  77  84  88 103 117  75  80  91  96 103 113 111 109  99 108 104 112 113 118
 127 129 127 126 126 127 124 123 122 118 111 110 111 100 116 130 119  82  42  10   8   3   3  38  67  54  56  50  21  28  39  38  60  81  93 117  65  74  82  94 100 104  99 103 100 115 113 108 116 115
 132 129 131 130 129 125 127 122 119 118 117 113  99  91 121 124  82  27   5   5   5   3   6  17  75  47  52  14   6   2   3   3  11  47  75 115  70  75  83  88 108 111 108 103 112 115 113 103 111 112
 130 131 128 129 127 128 127 119 120 119 117 105 100  92 102 115  81  25  11   5   5  18  49  58  58  42  39  30  23   6   2   5  12  35  58  97  61  71  80  89 102 100 111 112 112 109 113 113 107 117
 132 120 124 128 127 122 125 119 119 116 114 104 100  77  54  99  65  41  40  39  50  62  71  43  43  35  35  33  37  36  31  22  23  37  44  56  39  65  79  87  98 106 107 111 113 107 104 113 115 118
 132 131 131 122 124 128 124 122 119 117 110 105  98  77  47  56  47  37  51  57  67  55  55  46  51  44  51  47  43  40  36  34  29  30  32  34  41  70  85  95 102 105 104 108 114 115 110 112 109 117
 131 128 130 130 128 127 127 123 116 109 112 113  98  82  58  30  32  30  39  52  55  57  54  64  63  59  59  52  52  46  34  29  23  22  22  23  53  75  87  89  97 103 110 113 115 117 119 117 114 114
 132 128 132 130 128 128 126 121 117 117 108 109 104 110  94  80  64  73  82  69  71  57  64  71  55  74  59  49  49  46  44  46  45  36  40  67  73  82  82  89 112 105 113 109 113 117 119 116 104 114
 132 132 130 129 127 123 123 120 120 115 113 116 117 118 118 114  96  94  82  72  53  48  64  68  70  74  70  57  66  53  36  49  55  59  66  78  89  90  98  99 107 114 106 115 100 108 107 114 115 103
 134 133 131 129 129 123 125 115 116 115 110 114 118 116 112 104  83  59  67  70  73  79  71  65  59  73  65  53  53  50  53  56  50  48  57  82  75  93  98  98  95 115 108 105 108 108 113 107 110 107
 134 134 132 132 126 126 122 115 118 117 111 119 121 113 108  73  98  82  92  80  96  78  85  89  93  79  83  74  63  59  57  60  56  61  52  52  71  89  93  98  97 108 109 101 100 103 102 105 108 113
 134 133 126 130 124 123 123 117 113 117 118 119 121  99  94  59  82  99 105  90  71  56  43  55  49  49  47  38  34  35  38  36  60  66  62  46  36  61  88  93  95  91  99  95 100  99 104 101 102 109
 132 134 130 128 126 126 123 118 119 118 123 114 110  89  91  74 106  98  85  48  42  40  33  34  37  33  31  31  30  30  31  32  31  47  66  55  52  68  51  72  89  91  98  98  93  93  93  96 109 103
 133 132 128 126 129 123 121 122 121 116 110  95  76  79  90 115 106  59  43  37  37  35  30  33  32  31  28  27  27  29  31  27  26  28  42  59  57  49  47  47  72  76  92  87  84  89  90 105 103  92
 130 129 127 128 125 123 124 120 121 118  95  67  82  91 102  91  46  33  33  34  34  34  27  31  30  32  29  30  26  27  31  27  27  25  26  29  57  55  50  42  52  60  84  89  84  89  83  93  96  98
 131 126 127 127 128 121 123 121 116 102  86  79  91  89  72  40  30  30  31  35  31  27  26  25  22  22  20  21  25  26  26  25  27  26  24  24  32  52  52  51  40  43  59  82  89  83  79  89  95  97
 125 117 124 130 127 125 124 119 120  91  56  76  79  69  43  28  24  31  29  29  23  20  20  17  18  18  20  21  19  20  19  19  22  22  22  23  24  31  42  43  48  44  50  78  87  87  91  89 100  91
 126 127 124 127 127 125 121 118  84  61  78  71  45  34  25  22  22  27  35  41  40  45  45  53  68  50  76  78  63  44  32  34  33  21  18  18  19  22  27  35  46  42  55  78  81  87  96  91 100  97
 126 127 126 128 127 126 125 110  94  73  76  32  24  19  21  31  53  64  83  82  91  91  89  84  79  58  66  88  89  75  75  56  52  44  42  30  15  14  18  26  34  42  49  66  83  89  88  94 102 102
 128 129 126 129 126 124 120 108 100  64  44  26  16  32  53  49  68  59  66  71  67  67  71  60  53  44  47  50  50  48  37  42  38  38  35  34  30  19  10  22  26  46  49  55  80  82  83  95 103  99
 132 129 128 121 127 125 119 104  93  65  35  27  29  42  45  41  44  44  45  46  50  47  49  46  39  37  39  34  32  33  29  30  29  31  28  31  38  26  23  25  29  37  44  61  70  87  92  98 103 111
 127 129 124 123 124 123 119 100  86  57  43  42  64  76  72  68  51  45  39  42  41  43  40  43  35  35  32  31  32  36  33  34  34  37  40  39  47  49  34  29  34  44  46  52  70  88  93  96  98 109
 130 130 128 124 123 120 119  96  68  60  56  71  93 105 109  97  89  91  85  66  76  54  57  43  41  42  42  34  41  41  44  44  55  57  57  67  66  66  45  38  46  42  40  56  75  79  93  98  93 110
 129 129 129 124 124 122 120  92  79  68  73  87 109 116 112  97  96  97  89  75  68  56  42  37  32  31  31  33  35  41  47  47  53  57  61  62  66  60  52  49  46  47  50  60  71  78  89  99  99 101
 129 128 127 122 123 117 118 101  89  78  91 105 112 117 110  98 101  89  86  68  64  47  44  42  45  42  42  42  42  44  48  43  42  56  55  75  66  52  59  57  56  53  52  59  66  80  88 103 113 115
 128 127 123 124 124 117 114 101  88  95  96 113 111 111 106  90  91  83  83  84  62  56  49  43  45  39  42  46  52  48  55  48  49  53  59  67  62  63  57  60  58  55  56  61  64  77  87  96 101 117
 121 126 123 123 120 117 108 103  93 100 102 108 103 108  94 101  89  88  86  86  69  59  55  46  46  55  63  46  52  58  47  53  53  52  56  57  73  67  62  68  59  60  57  60  66  78  84  86 105 119
 122 126 126 119 118 113  99 100 100  98 100 105 104 102  96 100  86  91  83  79  68  68  66  60  71  63  60  56  56  59  62  53  52  57  55  67  64  63  70  67  62  63  64  55  67  78  81  95  98 118
 127 128 123 121 117 106  98 106 103 108  97 107 108 105  99 105  98  89  87  77  80  80  82  82  81  80  78  69  58  64  57  53  53  49  53  56  60  65  64  66  66  60  59  64  68  80  83  84  72 120
 128 126 120 117 118 105 110 113 110 110 107 110 102  98  99 100  95  87  95 100  91  91 102  97  87  87  82  78  68  66  59  71  64  61  57  58  57  62  73  75  68  71  70  75  73  78  85  96  99 118
