P2
50 50
255
  23  28  29  25  22  21  21  24  20  26  26  25  31  27  28  38  36  39  71  74  71  72  71  66  78  79  72  76  73  66  64  55  50  36  33  26  24  17  16  12  20  20  17  17  12  16  16  20  19  23
  28  30  28  25  23  29  41  43  37  39  36  34  36  33  38  44  36  48  58  68  60  72  67  64  65  66  66  68  57  70  65  58  45  36  33  24  24  21  25  26  27  25  30  25  20  20  22  22  25  26
  33  39  46  56  55  75  78  76  65  59  49  49  49  53  47  53  47  54  63  74  63  68  70  64  64  66  61  58  62  62  62  50  48  41  33  37  34  37  36  31  37  47  45  45  43  36  35  36  34  33
  45  76  69  79  84  83  85  83  73  71  64  54  59  61  59  57  55  58  62  64  69  69  64  62  61  59  56  54  60  59  59  54  47  45  44  46  47  47  45  46  55  64  64  64  59  61  57  55  52  47
  89  89  92  96  91  93  90  88  85  72  62  54  52  50  53  56  58  59  62  64  61  66  55  65  66  53  57  54  60  56  52  48  48  50  44  50  47  48  49  57  64  73  68  70  69  69  71  63  63  66
  93 100 103  96  91  91  90  81  77  69  60  50  49  49  46  47  55  56  61  62  65  64  67  67  62  50  44  58  53  53  51  54  51  49  44  42  40  51  53  56  69  72  72  67  71  71  69  73  71  77
 111 105  86  91  84  76  76  67  63  55  46  44  40  38  40  43  50  56  57  58  65  77  78  83  78  64  49  68  62  55  53  51  49  43  42  44  45  49  51  56  61  63  67  65  64  65  64  69  74  87
 104  90  88  71  58  49  26  23  21  16  13  14  22  34  43  42  47  50  56  64  71  89  90  91  94  88  83  77  66  62  57  47  47  43  41  41  43  38  22  29  40  36  32  28  45  55  59  61  72  87
  92  71  47  27  33  20   8   6  10   8  49   8   6  11  39  41  44  52  62  71  82  92  99 105 104  96  91  83  72  62  52  51  45  41  40  39  21  12   6   8  11  11   9  28  34  38  27  49  56  86
  53  28  39  16   7  22  67  13  20  16   6   7   5  22   9  48  48  51  66  76  91  95 101 102  99  97  91  86  69  56  55  51  44  45  43  29   8   5  16   9   7   4   5   7   8  28  40  37  27  61
  38  21  11   7  17  35  87  21  21  19   6   8   6  25  11  16  58  61  74  76  90  93 100 102 105  97  85  81  71  55  55  51  49  51  46   8  15   5  11   9   6   7   6  22   7   5  22  32  54  47
  31  36  33  36  37  35  39  25  24  23  28  29  40  38  42  56  64  73  88  87  87  93 103 101 102 101  93  82  72  62  50  51  55  53  47  33  37  29  26  26  23  17  23  20  22  11   8  10  20  30
  68  67  72  69  75  65  71  61  49  46  42  40  42  37  49  69  75  85  82  87  88  94 102 105 110 102  96  86  73  64  58  50  58  62  50  51  38  34  34  40  51  41  42  37  41  41  45  39  37  38
  90  85  88  84  85  76  69  56  48  41  37  38  42  40  60  80  82  90  85  87  86  94 105 107 109 105  96  82  82  66  57  54  50  57  58  51  48  37  33  32  34  42  43  46  52  57  69  69  64  72
 101  91  94  89  84  77  65  51  48  42  41  36  44  54  78  87  91  88  90  95 103 106 109 115 114 112 100  90  77  74  62  54  49  53  59  57  49  37  37  38  34  35  39  43  55  61  64  74  79  78
 109 102  93  85  72  60  53  46  46  43  36  51  65  86  93  94  96  91  92  96 102 106 111 121 115 113 106  97  84  79  70  65  56  61  63  64  63  47  42  38  35  39  44  46  52  54  62  66  78  81
 117 107 101  88  81  82  71  78  68  73  74  85  91  95  99 100  94  91 101 105 105 108 113 121 122 114 104  96  90  79  73  71  61  62  63  70  72  64  68  56  45  48  47  49  49  57  64  74  79  89
 124 114 112 104 102  95  94  87  89  88  96 101 101  98 100  99  95 103 102 101 107 109 115 115 115 109 103  92  88  82  77  72  72  65  64  72  73  81  83  80  76  70  69  72  75  77  81  79  85  83
 124 122 115 113 115 102 100  99 104 106 106 104 104 100 102  99  92  98 105 102 102 104 111 115 115 109 100  92  86  87  80  74  79  67  68  66  83  84  88  91  93  91  86  88  88  90  90  92  92  88
 118 126 125 119 113 113 113 107 107 115 109 104 109 102 103  96  97 107  93 100  99 104 111 116 112 111 107  94  87  82  84  75  72  70  65  70  78  83  86  93  96  97  98  96  94  96  96  96 100  97
 128 124 124 120 114 114 113 117 117 113 114 107 103 101 102 103 101  92  91 101 101 110 117 113 111 107  99 101  91  87  81  79  66  65  65  72  77  86  89  95 100  97  92  97  96  98  99  97  91  96
 128 126 125 122 125 125 119 119 122 111 112 103 106 100 104  99  84  90  90 106 110 129 121 119 112 113 105 102 101  93  85  82  65  58  62  72  81  88  88  97 102 102  97  99  92  96  91  99  95  99
 128 126 126 124 125 127 124 120 120 114 112 113 105  99  92  87  90  97 101 125 130 128 123 120 122 130 112  96  98 100  90  81  75  62  56  65  77  85  92  97 103 109  95  98  97  96  95  94  92  99
 130 129 130 127 124 119 122 119 117 112 105 111 105  95  88 101 111 114 129 129 127 128 132 122 125 130 119  96  96  99  99  93  84  88  64  57  68  83  90  95 100 104  91  94  97 102  97  90  92  97
 127 116 127 130 126 127 126 124 117 111 107 106  96  81  88 124 128 125 124 125 127 126 117 118 113 105 100  88  90  82  97  97 102 102  98  43  68  74  86  97 101 100 101  96  98 101  99  94  96  96
 130 125 125 128 123 124 117 124 118 111 108  97  94  72 124 132 129 126 121 113 107 109 107 107  97  94  87  85  82  82  88  96  93  97 114  79  54  77  81  97  96 102 101  94  99  96  95  97 102 101
 127 129 128 111 123 121 113 116 114 104  97  91  85  75 132 127 125 115 104 100  92 104  98  95  90  84  80  76  77  84  84  89  91  90 105 103  52  68  79  92  96  99 100 104  93  94  95  99  99 101
 127 129 129 128 125 125 123 115 106 102  98  88  82  71 130 115  97  88  79  74  73  70  76  81  81  72  69  71  76  82  82  86  87  90 118 105  58  64  78  91  92  99 101 103 101  96  92 102 104 101
 130 129 128 124 126 123 121 113 104  97  99  91  90  69 102  89  59  13  12   9   9  16  29  63  63  57  51  63  48  37  30  61  66  85 119 100  64  69  77  91  92  91  97 101  94  99  99 100 100  96
 127 131 127 126 126 125 121 111 103 101  99  91  90  68  69  77  48  29  33  36  38  50  54  65  61  63  57  35  34  25  22  25  33  63  77  45  64  73  79  85  91  93 103  97  97  97  96  92  98 101
 132 128 123 124 114 111 107 109 101  96  92  94  96  73  64  51  44  38  45  52  52  55  46  50  51  49  37  33  34  32  32  30  31  45  34  51  74  81  83  91  88  93  97  98  96  95  97  99  88 109
 133 130 128 124 115 115 110 104 108 102 102 102 102  93  77  60  44  36  48  56  51  54  41  46  44  36  37  39  36  34  30  22  21  28  43  64  85  88  85  90  91  90  92  91  99  93  97  96 101 104
 131 127 125 124 117 117 107 102  99 100  96 105 110 102  98  97  90  77  71  71  81  67  69  68  63  68  69  62  62  51  43  40  42  51  65  75  82  86  86  87  97  88  87  88  92  92  94  97 102 102
 130 127 124 124 118 111 107 100 104 101 101 111 111 114 105 104  98 100  87  90  76  72  74  71  65  81  68  61  61  61  62  58  65  69  71  84  87  90  89  88  92  86  91  87  89  92  93  95 100 106
 127 125 123 118 109 115 102 101 100 101 114 113 113 111 104  89  97  89  85  85  78  75  69  68  80  77  72  63  66  51  62  62  59  70  75  78  82  83  85  89  87  90  84  85  87  91  91  98 101  98
 126 121 121 116 115 112 106 101 108 105 113 109 112 106  91  92  82  81  81  71  60  74  76  71  72  72  71  78  69  48  62  62  56  64  71  76  84  82  85  85  82  84  85  79  82  87  90  96  97 102
 124 123 119 113 115 109 109 111 103 101 112 105 104  97  79  88  84  72  81  82  84  81  71  65  72  68  67  57  59  63  62  59  64  57  48  51  65  79  77  77  81  82  82  81  82  85  90  97 100 111
 119 113 114 118 112 104 107 105 105  99 101  94  79  90  84  85  71  92  87  92  91  87  82  70  72  76  80  86  73  69  64  67  58  64  55  47  63  67  62  66  79  78  84  79  80  91  83  99 100  99
 115 119 113 117 113 105 107 106 102  94  89  74  82  80  89  90  81 101  96  85  76  86  89  94  90  87  87  58  53  48  60  66  68  60  56  59  71  64  59  63  55  76  81  81  81  80  88 101  97 105
 120 121 115 117 111 113 107 101  95  78  62  64  77  77  91  96  90  86  69  55  52  45  51  52  54  51  47  42  36  37  38  44  55  68  68  64  58  58  54  48  47  65  74  80  81  79  94 102 102 109
 123 121 112 115 111 114 104  99  92  74  65  65  82  81  87  81  65  50  41  43  45  38  38  44  38  36  34  34  33  33  31  32  38  46  56  69  69  56  57  47  50  62  75  80  88  86  89 102 105 111
 120 115 118 104 115 109 102  91  69  58  58  54  60  55  49  36  35  35  38  42  40  36  36  38  38  33  32  34  35  32  33  36  36  31  36  50  58  51  56  59  50  59  77  80  87  89  90 106 107 114
 118 120 109 106 111 108  99  91  70  64  47  30  27  26  23  27  33  34  41  41  38  30  35  36  32  32  32  33  34  36  42  38  35  29  27  26  33  30  43  53  50  51  71  85  87  92  99 104 115 113
 123 120 116 112 105 105  91  78  74  43  27  11  17  40  34  45  48  46  45  40  32  28  25  27  11  30  21  26  26  23  37  30  32  24  24  16   7   8  23  36  44  57  71  77  91  94  96 104 112 125
 113 115 110 107 109 103  90  71  49  39  38  43  43  51  58  60  66  71  72  50  60  63  66  58  49  65  54  54  49  44  63  51  52  47  41  38  27  28  27  34  48  51  69  79  88  95  97 106 113 127
 111 109 104 109 106  98  93  75  54  51  50  62  63  53  53  61  73  81  82  90  85  87  99  98  79  84  97  92  86  69  55  49  47  44  43  38  49  40  35  45  45  50  68  77  91  96 102 109 115 124
 105 112 107 105  97  95  82  70  51  65  64  76  81  83  53  50  58  66  74  81  80  81  79  66  55  58  72  77  61  53  51  46  50  42  47  47  65  48  39  43  50  53  68  73  86  96 105 110 118 118
 107 104 104  99  98  89  85  76  70  70  79  83  94  88  83  57  48  46  53  57  59  67  63  56  47  50  45  54  48  45  45  44  42  50  68  77  66  58  58  52  49  58  65  72  85  93 101 112 122 119
  97  95  91  91  89  81  77  66  74  72  85  87  91  92  87  82  72  53  47  47  50  51  52  40  40  42  41  38  41  42  44  57  68  75  76  72  71  64  68  65  57  58  62  76  82  91  99 113 112 117
  92  90  93  87  81  77  76  79  77  81  89  90  88  90  77  83  79  71  58  63  49  47  46  39  38  39  40  43  48  53  55  53  59  69  80  70  71  66  65  68  61  55  59  72  84  91  72 108 114 118
