P2
50 50
255
  34  24  25  24  20  20  19  23  25  25  26  24  31  28  28  33  31  41  66  74  73  70  74  65  78  77  73  68  77  67  67  61  60  35  32  26  22  15  18   9  19  19  12  17  14  13  19  19  23  23
  25  28  28  24  26  28  36  33  31  32  35  31  34  29  31  35  34  37  47  55  60  66  69  63  70  68  68  73  67  67  64  56  49  38  36  24  22  23  24  23  26  22  32  25  23  23  22  22  23  24
  36  34  38  38  50  61  71  69  61  53  50  46  50  49  44  51  45  52  56  75  52  74  71  62  65  60  58  62  61  61  67  55  50  40  35  36  34  41  34  31  37  46  40  52  42  37  32  36  31  36
  46  56  61  67  77  83  83  86  78  68  64  55  57  60  58  63  56  57  61  69  64  70  66  66  63  63  52  57  65  56  59  56  48  45  46  47  48  46  43  47  53  58  61  63  58  57  58  55  49  48
  80  82  86  89  95  87  89  90  86  73  69  60  52  49  53  56  57  62  59  61  67  67  60  60  63  60  57  56  55  55  51  52  48  49  45  47  43  49  51  55  70  73  72  73  72  75  70  64  64  65
  90  98 100  97  92  89  84  87  82  73  65  56  50  44  45  51  54  62  64  65  63  62  66  68  64  56  32  53  57  56  49  51  48  48  42  44  44  45  52  57  72  74  72  68  72  70  71  79  75  78
 101 108  97  90  86  87  81  72  70  57  52  46  43  45  40  43  46  51  60  60  67  72  83  80  79  64  49  63  62  52  57  53  51  45  43  42  47  41  49  51  56  59  64  64  60  64  66  68  74  89
 109 102  93  83  77  65  51  40  27  24  19  23  27  37  41  41  48  52  58  62  69  84  89  94  90  89  82  81  65  64  54  50  46  41  43  40  43  38  22  30  33  36  32  31  35  55  57  62  78  89
 101  86  69  47  28  26  14  13   6   6  27   5   6  14  29  38  45  49  60  67  77  90  95 105 105  98  90  87  73  58  53  50  51  45  40  40  35  14   7   6   8   7  14  25  32  37  27  41  60  80
  81  53  24  34  20   9  21  15  16  20   6  18   6  21   8  32  47  51  60  74  86  90 100 100 105  98  92  86  68  54  53  52  44  45  42  43   9   6  16  10   5   5   4   7   7  26  38  42  28  46
  45  35  22   9   7  54  84  19  18  13   4   8   8  27  16   6  57  56  68  82  90  96  94  96 103  98  95  85  74  58  55  52  48  47  47   5  14   8   8   6   3  10   5  24   8   6  16  33  53  48
  30  23  18  28  25  25  26  21  21  13  11  16  24  30  37  47  63  75  85  86  86  89  97 103 101  99  94  84  73  61  52  51  51  56  54  32  29  31  20  20  22  17  21  19  17  12   8   8  17  31
  42  40  47  49  56  56  57  46  45  40  48  40  38  37  48  71  73  76  81  80  86  92 100 102 106 103  96  87  75  63  56  50  53  60  53  53  38  33  37  38  44  39  39  38  40  45  43  39  34  45
  82  82  84  81  83  77  76  61  52  44  41  37  37  44  47  68  78  83  86  84  90  96 106 104 110 105  96  87  74  74  62  51  50  52  62  55  45  35  38  35  32  36  42  48  52  58  65  69  67  71
  95  89  89  85  88  77  73  57  48  46  42  37  40  41  66  82  89  92  87  92 100 100 106 115 114 112 106  95  85  78  66  55  51  52  62  60  48  36  36  34  34  34  36  45  50  56  66  71  74  78
 106 103  95  86  74  71  57  52  45  39  39  44  56  73  86  93  93  91  91  94 100 100 109 118 117 113  99  96  87  80  71  62  55  57  57  65  64  53  41  36  39  36  39  48  47  52  58  64  74  83
 110 108  97  89  76  73  60  58  50  55  55  74  86  96  95 100  93  90  95 105 107 100 106 117 119 114 105  99  87  86  75  71  62  59  58  67  74  66  62  56  47  46  46  49  51  55  65  67  76  83
 123 116 109 100  97  87  91  86  89  86  88  96 102  96  98 101  97  93 101 106 100 108 109 115 118 116 103  98  90  86  76  73  71  65  63  67  74  82  77  81  77  71  71  74  74  71  78  81  85  87
 124 122 118 113 105  99  98 100  99 102 101 105 104 101  99 102  93  93 106  99 101 102 110 113 114 108 103  97  89  87  82  78  73  70  66  68  70  79  89  90  91  89  89  87  86  88  90  93  90  89
  95 124 126 115 114 110 106 106 106 109 108 106 107 105 103 100  96 105 100  96 101 106 109 110 111 106 105  97  93  84  80  80  73  68  64  71  71  79  80  92  96  96  98  90  93  93  96  99 101 100
 128 126 125 115 112 111 118 112 112 115 106 111 104  98 101 101  97 103  92  96  94 106 119 120 116 107 100 103  98  87  81  74  73  64  65  70  73  80  86  89  99 101  97  97  93  96 101  95  94  98
 125 125 123 125 122 121 120 120 121 114 110 104 105 105 103 102  95  83  88  99 112 127 124 118 115 115 117  99 100  93  84  83  70  63  60  70  76  83  90  92 103 100 100  97  95  96 100  95  99  95
 128 126 123 125 124 126 122 124 117 110 111 107 100 108  99  90  82 101  97 124 130 128 127 123 120 126 130  98  98 105  94  88  80  76  50  57  75  81  93  93  98 106  93  98  95 103  95  94  96  93
 127 126 128 125 127 120 128 123 117 116 109 113 104  96  90  85 110 120 125 130 128 127 133 124 113 129 118  93  91  92  99 101  93  87  86  47  64  80  87  95 100 102  98  93 100 101  95  88  94  93
 129 118 126 127 126 126 126 123 120 112 110 106  98  87  76 126 128 125 124 128 118 123 114 115 111 101  96  88  88  80  90  94 100 101 103  84  54  71  80  95 101  99  95  98  99 100  97  90  96  95
 130 119 125 130 126 125 126 111 117 110 109 103  96  81 111 133 130 127 116 110 103 106 105 104  98  87  86  76  80  81  82  88  90  92 100 110  46  65  81  92  93  97 102 103  98  96  98  98 100  98
 128 130 128 125 125 121 125 118 107 108 104  99  88  73 124 130 123 116 103  98  91  93  91  94  86  84  82  73  81  78  80  84  85  80  98 120  48  63  72  89 100  98  96 102  98  94  90 100  99  99
 128 127 129 127 128 128 121 115 111 102  98  95  85  71 117 118  97  79  45  39  51  63  64  76  70  66  66  64  75  67  72  74  84  90 107 126  46  62  72  83  95  93  95  96 100  96  97  97  98  96
 131 124 127 127 129 125 115 116 105 101  97  95  86  71  94  95  68  24  16  15   9  17  28  45  62  59  61  52  29  13  16  20  40  62  95 120  54  66  80  89  92  94  98  96 100 102  94  95  95 100
 130 130 130 122 127 125 121 112 106 101 100  90  86  77  63  79  54  36  30  32  36  50  52  60  71  58  64  37  35  28  26  25  27  47  68  58  58  73  78  84  95  87 101  98  96 100 101  91  95 101
 132 130 127 122 118 113 114 109 106 101 101  97  95  91  71  50  47  40  39  51  53  51  49  44  46  42  36  31  32  32  34  29  28  33  32  44  68  82  83  87  90  93  93  93  93  98  97  98  97 100
 130 132 129 127 123 110 113 109 104  98  98 100 105 100  90  69  52  40  43  58  56  55  55  48  47  40  51  47  48  37  32  29  25  27  44  62  77  87  87  93  87  92  89  93  95  93 100 101  95 104
 131 131 127 126 120 119 114 103 104 103  99 105 109 106 105 101 100  89  84  86  83  68  68  73  71  63  76  67  67  58  54  57  49  60  60  76  85  86  87  89  92  92  92  87  94  93  91  97 101 105
 129 131 128 125 110 114 116 105 101 102 100 106 116 116 108 104  99  90  92  83  75  68  74  79  65  71  67  60  59  55  60  55  63  74  76  73  81  84  90  94  89  92  89  90  90  89  87  96  94 105
 130 129 123 120 120 116 106  96 103  98 106 112 116 113 110 103 103  85  87  85  77  59  78  67  68  81  61  61  67  51  54  56  61  64  75  81  81  83  90  92  87  88  81  87  85  83  93  93 102 105
 129 125 125 112 121 112 103 100 105 104 112 114 108  99 103  90  85  64  78  78  69  69  81  73  70  76  66  72  68  58  60  69  60  60  70  69  76  81  86  92  85  81  86  85  84  84  86  93  95 100
 128 125 123 117 110 106 106 112 102 107 108 109 107 100  91  89  95  70  69  84  86  82  80  75  65  75  68  63  61  64  59  61  62  59  54  47  49  73  68  81  79  80  75  82  78  82  87  88 100  90
 120 105 117 117 118 111 112 107 109 103  94  98 100  91  86  81  86  93  93  92  93  89  92  87  76  65  81  85  75  64  65  67  68  70  58  56  58  54  62  62  65  74  80  82  73  83  82  89  93 100
 121 119 110 115 119 112 112 102 106 100  92  87  70  86  88  82 100  95  97  88  69  68  66  75  84  88  80  60  49  40  45  53  67  63  61  55  57  55  61  60  63  69  76  84  81  78  90  94  98 101
 120 118 113 119 115 111 112 108  98  86  78  82  81  77  87  96  93  83  65  52  43  52  45  49  51  43  43  36  32  34  33  37  48  55  62  62  57  55  46  42  51  55  72  82  83  86  86  96  94  98
 125 126 116 120 112 116 108 102 100  83  65  70  59  84  86  80  64  43  43  38  39  38  37  36  36  35  35  32  33  33  35  34  35  37  44  61  67  61  57  53  48  42  63  81  83  90  92  95 104 105
 125 118 114 113 108 114 114  97  80  60  62  58  64  59  53  36  35  34  37  41  38  43  38  37  41  35  36  31  33  36  42  39  36  32  31  37  49  52  44  51  52  52  67  84  86  93  91  96 106 112
 121 117 116 110 118 112 100  93  78  65  53  33  29  30  25  24  27  30  31  36  30  29  29  29  23  23  25  26  24  25  25  30  29  27  26  23  25  25  31  39  47  49  58  81  90  88  95  96 108 120
 117 120 118 111 106 107 105  85  83  60  34  23  11  28  37  47  40  49  44  47  37  33  33  32  31  27  39  32  41  30  35  42  30  30  31  29  18   7  16  25  38  48  63  76  86  92  92  98 105 116
 123 121 122 112 108 105 102  80  70  47  35  33  36  42  59  57  66  69  73  64  65  63  73  67  71  60  81  70  61  59  57  59  46  48  47  43  32  27  28  31  39  49  57  76  83  95  99  97 110 121
 118 108 114 110 110 103  98  87  62  50  48  47  69  61  52  58  68  70  81  87  89  89  90 109  84  65  88  90  86  70  63  52  43  49  45  41  41  41  36  36  46  46  57  71  81  96 100 108 114 122
 103 119 110 108 101  95  94  81  65  54  58  65  87  89  67  49  56  61  68  73  71  78  79  80  60  56  61  59  62  53  51  48  43  44  45  50  66  58  49  45  50  49  57  70  78  88  94 106 120 120
 108 106 100 105 100  97  92  80  74  66  73  79  93  91  90  76  54  49  46  52  54  61  56  56  47  41  49  49  43  44  40  39  42  43  62  83  71  65  54  56  53  48  65  70  79  88  99 103 123 120
 102 106 100  98  96  89  85  75  66  76  83  90  91  93  92  89  79  68  49  46  50  46  46  45  38  42  38  36  39  41  48  53  64  65  72  77  69  68  54  60  59  56  63  65  80  85  92 101 116 112
 100  96  93  93  89  80  80  83  75  78  87  91  87  92  80  83  80  74  64  61  57  52  44  45  45  44  39  40  40  47  54  56  60  69  74  73  65  70  64  67  68  57  58  67  74  89  88  83 111 113
