P2
50 50
255
 123 111 107  72  24  25  21  20  20  23  26  23  23  27  26  32  28  36  67  94  91 103 115  93 108 106 106 106  91  85  78  70  53  27  33  22  18  19  18  22  21  18  15  16  21  27  28  67  87  80
 118  86  40  28  20  21  21  22  27  27  31  39  36  33  41  35  34  51  63  81  73  92  92  87  83  89  96  84  84  85  78  55  39  32  27  27  26  24  25  25  25  24  20  17  16  17  20  22  39  75
  86  32  21  23  20  26  33  57  76  72  71  56  64  63  54  62  54  66  69  90  89  82  89  85  78  71  66  69  71  70  61  64  44  38  37  35  36  35  31  34  37  35  35  28  25  23  21  22  20  33
  25  21  22  29  45  69  82 100 105  90  79  70  65  65  71  74  64  67  68  78  85  79  77  80  69  67  64  66  76  58  69  64  46  43  41  45  43  42  43  61  58  72  69  65  62  42  30  27  21  20
  22  25  43  57  88 105 109 114 103  91  87  77  61  55  63  69  65  71  68  71  82  79  63  69  68  69  69  58  65  63  57  49  48  58  49  48  48  45  54  63  73  81  80  84  79  69  63  58  35  23
  28  42  99 112  96 110 104 106  99  85  75  59  58  52  47  54  63  65  75  72  76  80  82  85  81  47  34  67  61  59  57  54  56  53  43  43  44  52  48  59  67  81  80  73  78  82  78  71  60  50
  77  87 119 124 107 100  90  75  60  53  34  32  34  47  49  52  51  61  69  77  78  82  91  96  91  79  62  75  75  64  61  57  51  44  44  48  45  47  40  30  33  34  51  54  62  68  74  82  85  69
 103 126 123 100  86  72  32  19  14  17  19  14  15  29  43  50  56  59  67  78  85  96 107 110 106  91  83  81  78  67  62  65  57  48  50  48  45  23  23  20  18  18  28  29  28  40  55  69  85  89
 125 120 102  87  48  22  19  14  14   7   6   5   9  13  28  45  57  58  69  84  91 102 113 112 110  99  87  77  75  64  66  70  55  53  44  45  17  11   2   5   6  14  10  13  30  25  33  45  69  92
 125 115  88  43  18  17  18  19  13  16  16  16   6  25  17  39  65  78  68  80  91 100 102 105 110 101  92  85  71  50  61  61  58  62  54  30  15   5  15  13  10   9   4  12  13  26  34  28  44  82
 122  91  49  22  21  17  30  26  22  40  17  16  18  36  31  15  64  81  84  88  93  96 102 107 115 110 100  92  79  59  52  55  57  68  57  14  25  18  17  12  15  12  11  25  11  16  26  31  27  56
 104  61  25  22  15  19  81  83  28  34  34  38  32  31  29  31  61  82  87  89  87  91 114 119 120 115 110  96  79  68  52  47  56  65  51  26  30  31  37  38  36  27  28  24  14  10  18  26  32  30
  82  34  27  14  17  49  61  72  56  45  43  43  34  32  41  65  88  90  84  85  88 107 115 118 121 119 106 103  86  80  61  46  54  63  70  49  34  31  34  35  41  47  52  53  51  40  16  15  26  32
  60  28  24  29  70  92  87  81  62  48  40  46  40  40  46  77  93  88  77  93 105  99 102 113 113 117 115  95  81  87  74  61  49  57  69  68  46  42  34  38  35  38  40  49  52  53  59  43  19  28
  37  32  69  87  88  95  83  66  49  46  40  35  34  43  73  97  91  96  88 102 102  97 106 122 122 122 121 107  96  80  73  68  54  53  63  68  65  39  36  40  39  33  42  46  47  59  61  73  56  26
  56  87  96  98  92  80  70  55  45  44  38  42  65  80 102 100 102  93  98 104  91 119 130 127 127 125 122 117 110  88  71  73  71  58  61  66  83  63  53  38  38  40  41  44  52  52  62  69  78  77
 107 108 107 100  85  79  63  60  59  67  65  82  96 105 100 107 100  94 106  95 117 130 131 128 129 125 124  99 113 119  89  72  73  65  59  75  75  79  79  66  53  51  51  56  49  60  67  70  79  91
 123 123 117 110  98  96  98  96  91  90 102 110 102 104 106 110  98 102 101 129 131 133 128 130 128 131 129 112 104 102 118  92  68  70  65  67  80  85  91  87  87  79  79  78  75  75  84  93  92  98
 127 129 127 123 120 115 106 103 107 115 119 115 116 112 115 104 100 113 126 130 130 124 127 121 122 100 100  97  91  82  91 110 101  78  70  69  75  88  85  98  98 100  98  96  93  96  98 105 105 102
 131 129 130 127 125 122 123 123 118 117 118 115 111 101 115 108 130 134 131 128 119 106 110 103  96  84  86  73  74  74  87 102 108 109  97  71  80  85  87  93 107 101 101 109 102 103 107 113 110 107
 132 133 130 127 126 127 127 125 125 119 115 113 114 114 110 127 135 131 123 113 100  93  95  96  89  69  64  61  67  63  75  90  91  87 117  95  82  85  93  98 107 111 114 110 101 110 112 116 116 117
 132 133 133 132 131 129 128 128 123 122 119 116 119 113  98 138 129 111  74  54  45  55  42  75  69  58  61  52  46  40  53  63  74  95 107 120  73  82  93  98 105 102  98 104 108 117 116 117 118 117
 136 134 133 131 131 130 131 128 123 123 119 118 101  93 118 134 111  44   9   3   4   4   6  15  80  60  59  24   5   4   6   7  35  63  93 121  77  83  89  93 110 109 108 113 111 118 115 102 115 107
 133 132 134 134 130 132 129 124 125 123 123 112 106  96  99 124  84  33  10   5   5  11  29  42  61  46  45  27  22   7   4   4  12  39  69 121  64  75  86  96 103 110 111 113 113 116 115 106 115 117
 135 125 131 135 129 127 130 124 123 121 119 115 109  83  55 107  84  42  30  31  36  54  69  52  43  38  36  31  36  32  25  19  21  38  55  71  47  70  84  92 108 111 106 113 111 110 117 115 120 121
 135 135 135 131 127 130 129 129 124 124 113 115 104  87  50  69  62  44  49  61  74  63  66  49  49  40  38  41  43  41  41  35  32  31  40  39  46  75  87  90 100 106 111 109 118 110 101 115 116 121
 133 133 134 134 132 129 130 128 124 121 121 113 105  98  64  36  41  35  46  56  51  61  57  65  69  61  67  59  54  50  34  33  28  28  28  28  51  72  91  96 100 105 111 115 117 116 117 115 123 115
 135 134 136 133 131 131 129 127 122 115 117 115 105 107  98  76  60  55  65  71  83  65  67  67  63  66  65  53  52  51  51  48  37  32  32  62  75  81  92  95 110 112 115 113 113 120 119 113  96 111
 135 136 136 130 132 128 126 126 125 122 115 116 114 122 118 115 103  91  93  84  75  47  54  70  78  78  74  60  62  53  39  56  58  67  68  80  93 101 101  99 110 112 108 117 115 111 113 116 118 116
 137 138 133 133 131 129 128 123 121 122 117 115 121 124 117 104 100  70  79  75  71  65  75  75  65  77  68  62  54  54  55  56  44  52  73  84  91 107 100  98 112 117 111 106 108 113 113 115 113 111
 137 138 137 132 131 130 129 122 118 121 117 124 124 117 106  94  96  77  80  84  96  85  89  87  78  69  75  76  78  65  65  52  61  54  56  69  86  88  98  93 105 113 107 102 102 105 104 105 105 106
 135 137 134 134 129 130 127 123 119 119 123 125 123 101 104  82  91  87 105  95  84  75  65  71  71  82  71  55  45  39  46  57  74  66  63  46  52  68  95 106  94 100 105  98 102 101 109 102 113 115
 135 137 134 133 131 128 125 122 125 122 124 121 108  96  88  92 112 100  99  72  50  41  39  42  41  37  34  34  32  31  32  32  48  65  59  49  48  59  68  66  95  96  96  89  97  89  98 100 105 102
 136 131 132 130 129 125 125 127 126 119 118 107  82  93  83 109 110  88  49  40  41  38  34  33  34  31  32  30  29  31  29  30  29  33  62  66  59  55  54  54  73  91  93  95  89  89  96 100 100 109
 136 132 131 130 129 129 125 124 124 122 104  81  78  91  97  98  60  42  35  35  34  36  32  34  34  32  31  30  29  29  34  30  28  28  30  44  64  57  50  43  52  63  85  89  87  88  92 103 108  98
 136 131 132 131 130 130 126 124 123 109  74  77  81  93  83  59  32  31  34  39  36  31  29  30  28  26  26  28  29  28  29  30  30  28  26  29  46  73  54  52  36  52  68  90  93  91  92  89 102 101
 132 120 126 131 131 130 126 124 121  91  71  67  75  72  54  34  27  29  32  33  27  27  24  25  21  21  21  21  21  24  21  24  27  27  26  25  28  37  45  57  42  44  61  82  87  90  85 104 105  93
 130 135 127 131 129 130 127 123  96  74  81  75  56  40  28  25  26  29  31  32  34  29  40  39  48  29  52  39  38  31  32  31  21  22  21  23  24  27  33  41  50  50  59  82  87  96  96  98 107 104
 132 129 130 131 130 129 127 118 100  80  73  40  28  22  23  25  46  66  83  79  78  89  95  98  88  72  77  95  92  75  76  68  57  43  24  18  17  19  25  30  44  48  49  80  89  91  91  93 110 100
 132 133 130 128 127 130 126 118 102  81  50  28  18  25  50  53  65  68  70  86  86  81  80  80  66  51  55  60  70  66  50  49  42  37  40  34  28  11  17  27  32  51  54  68  87  88 100 100 103 109
 132 133 128 128 129 128 125 105 100  65  35  28  29  34  46  48  51  50  57  55  50  51  61  51  47  43  41  42  40  38  35  33  35  33  33  35  32  26  24  26  31  47  51  63  80  93  98 107 102 109
 134 132 128 128 127 128 122  98  88  61  45  44  60  78  71  57  50  43  39  39  44  47  46  45  35  36  35  33  33  37  33  31  32  34  36  39  40  40  32  29  36  47  48  65  79  89  99  99 112 116
 134 134 131 128 126 124 123 105  80  62  63  69  88  95  98 100  82  86  69  63  66  47  48  40  37  38  42  39  37  42  55  56  61  61  60  67  68  58  40  37  45  48  48  60  76  86 102  99 106 115
 134 135 130 128 127 127 120 102  85  69  82  86 102 115 110 104 100 100  91  76  73  57  45  40  32  31  34  37  35  39  48  51  52  58  63  66  65  59  51  47  46  49  52  63  74  93  98 105 108 117
 133 131 130 127 125 122 116 105  89  82  93 100 109 117 111 102 102  92  87  80  60  55  46  41  40  41  41  41  44  41  45  52  56  58  63  73  71  62  55  52  57  54  50  65  73  89  92 107 117 117
 131 130 129 129 121 122 115 108  91  91 101 110 112 114 104  92 101  89  86  80  62  53  47  45  46  40  41  48  52  48  53  49  51  61  66  70  67  60  63  56  61  58  59  69  75  85  91  99 107 119
 126 128 128 128 123 118 113  95  93  96 107 113 105 108  98  99  91  90  88  84  69  59  57  49  46  50  52  48  51  55  52  56  49  58  61  63  67  67  63  60  65  56  56  64  73  82  88 101 112 121
 127 129 130 125 120 112 107 109 101 104 102 107 105 105  89 101  89  91  83  82  75  66  68  63  65  58  59  58  59  55  60  52  59  58  61  67  73  73  70  70  73  57  58  61  73  88  91 101 113 124
 129 129 125 121 117 105 100 112 109 109 100 108 102 101  99  96 100  95  84  80  85  86  82  78  79  84  70  73  61  60  61  55  57  52  53  61  62  69  67  63  67  62  61  68  69  82  91  91 108 124
 130 126 125 119 116 108 110 110 112 115 114 106  96  96 105  93  93  88  87  89  89  91  98  89  89  88  82  70  71  64  63  63  62  61  58  63  52  69  69  72  69  74  73  70  72  87  95 100 117 123
