P2
50 50
255
  36  21  24  21  24  32  40  53  50  60  55  56  54  59  58  59  49  63  78  94  84  84  89  84  83  82  73  82  76  65  78  59  54  36  30  29  32  30  30  28  31  33  30  26  19  19  19  23  17  21
  24  25  27  41  47  69  92 102  95  98  80  74  73  75  71  70  67  67  60  84  79  84  72  78  78  67  59  65  72  74  67  59  50  43  40  47  45  49  41  41  48  47  47  45  41  31  27  22  22  21
  27  35  51  66  93 102 107 103 107  89  82  73  64  62  61  77  67  74  67  76  82  78  63  73  86  59  79  65  64  66  63  60  45  43  44  53  51  49  51  60  70  63  78  72  66  61  55  50  34  27
  39  68  86 111 114 110 104 108 110  92  88  76  64  57  54  60  62  71  80  78  81  73  74  78  73  61  36  58  64  67  54  53  55  50  52  49  49  51  60  69  81  80  85  83  82  79  74  70  50  42
  96 109 110 113 107 105 105 103  98  86  75  66  67  61  52  52  64  65  74  71  83  79  90  93  96  62  39  76  69  61  58  60  61  54  47  45  50  68  61  63  75  83  80  75  82  77  80  80  67  70
 119 124 107 112 101  97  96  91  86  72  58  48  49  50  55  61  55  62  68  74  81  90  94 103  98  94  84  82  75  73  62  61  56  48  52  49  57  53  58  60  64  67  84  77  72  74  74  79  74  78
 121 121 106  98  96  84  69  44  32  31  28  26  27  32  45  51  54  56  72  78  87 105 112 110 108 103  90  88  79  69  63  64  58  48  48  45  49  44  29  30  37  45  37  35  45  60  61  69  74  84
 123 111 100  78  50  34  31  26  22  19  16  19  22  19  39  44  58  65  71  75  94 105 107 108 108  99  90  87  74  59  62  60  61  59  51  43  34  22  27  25  28  33  31  39  40  31  38  48  72  80
 108  88  71  30  34  26  18  13  11  12  10  11   8  16  16  44  59  70  80  88  96  98 105 105 109 108 103  88  68  57  62  59  51  62  49  38  14  14   9  11  10  12  14  16  27  29  34  25  45  60
  91  51  27  31  22  17  29  16  19  21  25  16  15  31  15  14  75  84  86  88  99  94 113 115 119 110 100  93  84  63  52  52  58  63  56  18  13   8  70  14  76  13   5  12  14  22  28  34  36  40
  53  33  32  15  13  27  49  19  18  16  14  19  23  27  30  39  91  88  90  79  91 102 112 122 121 115 112 110  89  74  57  46  48  65  71  21  23  16  18  14  13  10   9  21   9  10  23  29  32  38
  37  24  13  15  28  36  39  46  44  41  39  34  35  38  43  80  90  90  82  88  98 106 108 122 124 120 109 108  92  88  66  52  53  60  64  64  31  31  30  32  34  34  29  27  22  15  13  16  24  32
  28  26  36  70  84  83  73  63  48  40  38  36  41  39  56  92  92  92  87  95 108 107 112 117 119 120 114 103  92  91  72  65  48  56  65  61  49  38  33  29  32  31  38  45  49  50  49  29  15  21
  66  79  84  88  91  79  65  50  39  37  37  31  37  50  87  98  95  92  97 108  98  99 111 110 117 116 115  95  86  84  79  69  58  53  59  69  60  43  34  34  32  30  34  38  41  45  53  62  63  45
  97  99  97  88  77  65  53  40  35  35  32  40  66  92 102 104  96 101 107 108  94 108 120 123 127 124 120 118  96  82  82  82  71  54  55  64  71  50  44  35  32  34  37  44  43  48  51  59  62  76
 112 111  98  80  78  58  58  52  54  54  72  86  97 103 110 103 102 107 112  91 108 131 132 129 125 126 123 113 117 108  78  75  79  65  57  69  75  77  68  59  45  36  42  44  41  48  55  60  70  72
 122 119 109 104  92  96  93  91  91  92 103 107 105 105 109 105  97 111  93 117 134 135 130 130 130 132 128  96 109 112 114  79  75  75  60  65  72  82  84  85  73  67  64  71  65  62  67  72  83  82
 128 126 120 122 116 109 107 108 109 112 110 108 110 117 112 100 107  98 124 132 127 135 131 130 127 129 127 103 109 103 111 107  89  71  69  68  79  82  90  90  92  90  91  88  83  90  94  99  97  98
 128 132 128 122 122 123 122 112 121 121 114 118 106 109 114 109 123 128 130 132 126 123 122 121 112  96  94  91  85  82  93 105 112 106  75  75  74  78  83  94  97 104 100 102 102 105 105 105 106 114
 135 131 129 127 127 129 125 124 124 117 109 107 114 105 108 132 136 134 131 125 109 105 103 104 103  83  86  71  75  74  80  98 106 115 113  83  80  83  88  92 103 112 110 108 110 108 114 118 113 115
 135 134 131 130 132 129 129 125 123 122 117 118 111 105 131 138 131 127 118 100  87 100  87  90  87  67  65  63  72  69  77  87  90  92 109 119  78  84  86  96 109 115 110 111 112 106 108 110 116 118
 133 135 135 135 130 133 130 126 126 120 117 115 113 115 137 132 114  73  39  24  29  30  28  71  65  56  63  54  46  44  55  62  78  90 102 124  80  86  81  99 112 106 112 103 111 115 116 112 118 110
 135 134 133 133 133 132 130 129 128 123 117 101 112  98 136 122  72  16   4   6   5   4  10  23  75  54  60  18   9   4   3   3  33  61  88 119  96  80  86  94 108 108 112 110 106 112 117 113 108 107
 126 130 134 133 131 134 126 126 122 120 116 101 104  65 123 108  56  18  15   3   5  22  42  55  64  46  44  27  23   6   5   4  13  42  69 104  92  71  90  92 108 109 113 117 114 112 116 114 112 113
 135 134 135 128 131 128 130 126 119 119 114 108  95  61  91  96  60  40  34  38  40  71  69  45  43  41  38  33  36  31  25  22  24  35  52  73  57  66  85  92 103 100 110 115 112 110 107 109 110 113
 133 135 136 130 133 128 130 125 120 117 114 110 104  65  45  63  44  44  54  70  71  64  61  49  51  45  39  43  46  43  43  33  31  33  37  48  44  73  82  95 105  99 111 115 112 118 111 110 114 119
 134 135 134 135 133 130 132 128 118 119 121 108 101  83  58  32  33  35  50  63  60  65  71  75  74  63  73  60  51  51  36  34  29  28  28  25  50  73  92  88 101 112 111 108 119 112 116 117 115 117
 136 137 129 134 133 133 124 122 122 120 117 112 116 110  97  72  71  69  77  74  74  71  69  69  65  79  60  53  58  56  51  44  34  30  29  56  73  84  94 100 106 115 114 115 117 116 117 118 108 108
 138 135 130 132 125 128 124 123 123 122 119 122 119 121 121 115  99  93  84  84  80  64  72  66  66  79  66  58  59  54  46  56  58  69  72  85  91  96  99  94 112 116 112 110 110 119 111 111 110 111
 139 139 133 132 128 130 122 116 122 120 119 122 123 120 115 100  94  91  79  79  66  69  82  76  79  85  73  64  63  60  51  58  55  55  70  86  94 102  97 100 105 120 107 110 111 112 106 113 115 115
 138 137 137 133 133 128 123 120 117 117 123 126 122 116  94  99  64  72  83  87  91  92  74  68  68  75  71  72  66  59  65  61  51  61  61  72  88  96 104 102 105 112 115 105 105 110 103 107 102 103
 138 135 133 130 130 129 123 119 119 123 126 124 111 105  79  93  71 104  92  94  91  94  90  92  94  89  89  75  60  53  63  66  73  69  53  50  54  82  92 103  97 100 101  98 102 101 108 102 108 110
 138 135 130 132 130 123 123 126 126 127 126 112  95  86 101  93  78 105 102  81  63  49  53  58  54  66  48  40  36  37  35  43  67  75  61  53  50  58  84  77  95  94  98  98  95  92  97 105 113 104
 135 134 131 132 124 128 130 125 124 119 108  81  77  91 109 111 106  87  58  50  44  39  38  40  37  40  32  31  33  32  32  31  38  49  72  60  59  69  60  74  74  92  90  96  91  94  94 102 104 111
 134 133 130 130 129 129 126 126 118 116  83  75  87  86 106  95  68  45  38  41  36  39  36  38  36  33  33  29  31  31  32  30  28  30  44  62  59  54  51  54  69  62  86  92  92  86  94  96 100 103
 130 130 135 129 126 129 127 124 110  86  79  75  91  99  83  52  39  34  35  36  34  33  32  36  31  32  29  29  30  31  36  30  28  28  29  37  62  67  50  53  46  60  79  86  87  85  86  88  97 110
 127 127 133 131 130 129 123 124  91  74  64  76  86  70  45  32  31  33  35  37  30  28  31  28  25  25  23  25  26  27  28  30  31  29  28  29  35  55  53  49  51  45  64  81  86  89  82  96  94  99
 134 130 133 129 130 127 124 105  84  70  69  64  55  33  30  26  30  29  28  25  23  24  22  20  18  22  21  19  20  20  19  23  26  27  26  25  27  39  42  44  50  47  42  74  86  92  92  96 102  93
 133 132 131 130 131 129 112  98  77  79  52  32  27  25  19  24  30  40  43  47  44  52  62  63  62  48  75  63  40  44  29  42  26  24  19  21  22  27  30  39  57  47  54  73  87  89  96 104  96  98
 135 131 131 129 130 126 112 105  82  55  34  22  15  38  43  62  63  79  90  91  91  91  96  89  80  63  86  90  94  75  68  61  53  42  38  29  15  16  21  28  38  49  51  64  82  91 100  97 105 111
 132 130 130 129 128 126 115  98  68  34  29  27  30  42  47  63  65  67  78  82  72  79  75  77  55  48  58  66  67  53  49  49  42  40  41  40  30  22  15  26  32  46  40  60  85  90  94 104 105 111
 133 127 127 128 127 122  97  88  58  41  42  45  53  49  46  43  47  49  51  44  55  56  55  52  44  44  46  45  44  36  33  35  34  36  34  36  35  29  29  28  33  42  47  67  81  90  92 102 103 112
 134 129 127 128 124 117 109  90  67  58  56  82  82  90  82  50  45  46  42  42  43  45  43  36  36  35  36  32  32  36  34  34  36  36  37  43  46  45  33  30  39  48  53  56  73  90  96  94  97 112
 132 133 128 129 127 120 103  78  69  67  75  90 104 105 100  97  92  86  75  81  59  53  48  43  42  43  41  35  41  45  55  60  61  63  63  73  72  58  43  39  44  44  46  63  80  86 103 110 105 112
 129 131 127 127 120 119  94  85  80  85  88 101 119 108 101 103 102  87  83  79  61  54  44  37  34  33  34  38  39  42  48  53  59  61  67  72  65  61  56  51  46  51  51  60  77  82  92 105 110 103
 131 128 128 125 119 114 102  92  91  96 105 108 112 115  98 105  93  89  80  73  56  50  44  40  40  40  39  45  43  51  47  54  56  60  65  72  77  64  62  60  56  51  61  59  75  84  92 105 110 117
 130 126 128 123 117 110 100  92  93 109 115 108 105 100  97  97  86  85  89  68  68  58  46  45  44  39  46  44  49  53  46  53  58  57  72  69  69  64  63  65  67  61  59  66  73  82  88  98 100 119
 133 127 126 120 105 107 103 100  94 105 108 110  99  98  98  94  91  85  90  66  65  56  50  49  47  50  52  49  61  53  53  57  59  62  65  65  72  69  67  60  64  62  60  63  72  86  86  97 112 127
 127 121 123 119  98 106 105 106 108 101 110 105  99  97  96  89  93  81  84  78  69  65  67  62  61  60  58  56  53  53  59  59  54  58  65  67  72  71  69  73  74  55  61  61  74  80  91  98 109 122
 128 121 122 111 101 102 108 106 112 105 108  98  98 100  95 104  94  85  87  78  83  81  81  81  79  71  70  63  63  60  57  56  54  58  56  61  70  71  71  71  71  72  63  69  77  86  89  92  75 123
