P2
50 50
255
  23  24  24  25  29  43  63  68  74  72  62  61  71  69  62  63  46  75  74  83  82  79  89  78  75  77  58  69  69  74  71  61  55  37  37  38  35  39  33  30  32  38  37  28  25  23  24  25  24  23
  26  30  39  55  79  84  98 105  97  95  83  73  71  74  70  68  64  68  69  81  77  80  75  77  76  67  59  65  72  69  69  63  49  45  47  52  53  49  46  46  55  62  64  56  45  39  34  31  28  23
  39  62  83  83  99 107 108 107 103 102  85  75  66  64  69  70  70  71  68  77  80  75  68  72  70  63  73  60  70  67  60  54  46  54  50  48  51  53  55  66  77  73  79  80  71  67  58  55  37  35
  68  89  96 107 104 110  97 107 105  96  83  77  67  56  58  60  63  69  75  75  75  79  76  81  74  45  33  63  58  61  54  56  59  56  51  46  46  58  65  71  84  85  87  83  80  78  77  66  51  44
  96 110 115 112 108 108 108 105 101  87  80  75  63  59  53  52  60  65  69  73  80  84  93  99  97  73  46  74  69  67  58  60  58  52  47  54  54  60  69  77  82  93  82  77  77  79  77  82  67  65
 123 123 104 103 109 101 101  98  91  77  60  49  43  51  55  54  57  62  74  73  85  96 110 110 112  94  85  79  83  78  63  61  54  50  47  54  56  61  62  67  72  81  86  77  79  73  75  76  73  76
 121 111 110 105  99  97  92  78  52  39  34  33  33  37  42  53  52  60  66  77  94 110 113 115 112 103  95  89  79  69  68  69  59  54  50  52  50  46  42  30  31  36  34  55  64  73  70  73  80  81
 116 107 104  94  79  47  52  55  48  49  35  31  25  23  35  44  56  61  83  78  98 105 112 110 108 105  95  87  79  61  63  65  55  55  52  43  33  25  31  37  44  55  51  49  40  30  46  59  64  84
 111  92  69  35  47  41  29  18  14   8   6   8  13  18  17  41  59  67  77  91  99 101 107 108 112 104  94  91  74  60  56  59  49  50  54  38  18  18  20  15  19  24  23  30  33  39  42  30  53  76
  84  48  40  39  29  16  19  13  15  19  17  16  12  28   9  15  69  85  81  93  93 102 112 116 118 114 102  90  87  67  53  58  53  63  56  14  13   6 104  14  19   7   5  12  21  28  31  40  42  47
  46  40  27  18   9  26  44  14  16  13   9  12  18  28  31  60  98  89  89  88  87 105 114 125 120 119 110 102  93  71  60  47  59  75  60  21  23   9  15  14   5   9   8  15  10  13  24  32  44  46
  29  21  11  19  25  27  30  30  39  36  41  35  33  38  49  80  91  87  89  89 108 109 119 122 126 120 112 110  96  81  71  55  52  60  62  65  32  30  32  32  30  23  24  20  16  10  14  18  27  31
  30  36  61  78  83  76  75  57  42  35  34  34  39  44  61  85  97  87  91  97 111 111 117 118 120 119 114 106  96  92  79  69  49  49  63  61  48  40  33  29  30  31  35  41  44  45  48  29  16  21
  87  91  85  91  86  69  63  47  44  39  37  31  38  60  94  99 102  92 103 108 104 108 113 114 119 115 116 100  88  93  76  73  55  52  56  66  58  37  33  33  31  32  32  37  44  52  56  67  66  61
 104  97  98  89  71  60  49  43  38  37  35  53  68  94 102 102  95  96 109 102  97 105 116 126 125 126 116 114  96  81  75  80  76  57  56  62  77  55  42  31  35  34  38  40  42  50  55  56  63  81
 117 104  90  83  84  67  60  58  65  64  80  90 103 104 108 102  97 103 115  97  98 129 131 127 130 127 119 112 112 102  75  77  77  61  62  70  78  83  73  58  46  40  43  43  44  44  51  63  69  82
 125 119 112 112  98  96  93  92  93 101 108 109 107 114 106 108 100 112  98 111 129 136 132 131 129 130 123 104 112 115 102  80  77  73  74  67  76  83  83  91  77  76  65  70  73  70  72  85  92  92
 129 129 125 125 113 115 108 109 112 115 111 112 113 112 105 107 110 105 121 136 133 135 134 133 132 138 137 110 109 105 116 101  77  77  75  73  79  85  83  95  94  90  95  89  90  96  99 102 103 101
 134 133 129 126 125 124 122 121 118 117 113 115 112 112 110 110 117 125 129 133 126 132 122 125 122 104 108  93  96  88  96 114 108  85  71  77  74  85  84  93 104 105 108 104 108 103 108 106 111 108
 136 133 129 129 129 130 130 128 123 116 113 112 114 112 110 132 136 134 132 125 115 115 109 109 103  92  90  81  75  79  87 109 112 112 104  74  81  85  93  99 103 110 109 109 114 110 114 114 112 110
 135 136 132 133 132 132 130 125 124 122 118 116 105 108 126 138 135 130 123 112  99  94 100  97  97  78  74  76  79  73  85  96 103  92 119 112  80  86  95  99 110 114 106 111 109 112 106 112 116 114
 136 136 135 134 132 134 131 129 125 119 115 115 110 110 139 136 119  96  79  74  55  62  68  81  80  61  63  61  61  60  74  82  87  95 103 122  79  88  87 102 112 107 108 105 111 111 114 112 113 111
 135 137 132 133 135 134 131 130 126 123 114 109 106 100 139 125  83  28   7   8   5   7  11  38  65  59  67  29  22  18  22  29  55  81  95 123  85  83  93 101 107 108 110 108 110 113 114 111 108 108
 125 130 137 133 130 134 124 125 121 122 116 113 105  75 127 109  56  16  11   7   5  16  29  44  74  52  59  25  16   2   2   5  15  49  83 122  86  77  93  94 111 108 109 116 108 113 114 117 109 108
 136 137 132 131 132 130 129 125 120 120 112 108  99  63 108  96  55  29  29  28  34  58  64  54  57  44  41  33  29  25  20  18  20  42  68  92  56  71  89  93 107 106 110 114 116 110 103 113 114 114
 136 136 136 132 134 131 130 125 120 115 113 113 102  64  62  74  53  43  50  64  68  71  60  43  45  39  38  39  46  44  38  30  31  38  43  53  48  82  88 103 105 109 111 112 112 116 111 108 108 120
 136 134 136 136 134 132 131 125 118 123 121 113  99  75  50  38  41  35  56  70  63  67  65  65  63  57  55  53  51  42  38  33  32  30  31  31  52  79  94  94 103 110 110 114 112 112 117 112 114 110
 137 137 131 133 132 133 125 126 121 120 117 111 113 105  91  63  42  50  62  76  80  71  72  71  73  77  74  65  66  56  46  39  29  27  28  45  67  87  93  98 111 120 113 110 112 120 115 118 105 110
 139 136 130 133 129 129 126 122 122 118 122 118 121 119 114 115 101 100  87  95  79  67  70  68  69  76  63  55  55  55  59  58  51  61  75  87  93  97 101 102 116 110 113 108 108 112 111 116 109 109
 140 139 135 133 126 129 124 118 120 118 114 125 123 122 112 114  94  93  89  78  66  73  81  77  77  84  61  71  67  58  56  60  61  73  77  83  97 102  99 103 110 120 112 109 103 114 108 114 113 108
 138 136 138 132 134 130 122 120 123 118 118 125 126 118 100  93  84  86  81  93  81  81  77  70  78  81  73  64  62  67  62  63  58  64  75  84  89  97 102  98 104 114 112 105 105 108 101 107 113 106
 138 136 135 131 133 129 119 117 122 125 125 126 118 108  87  99  77  88  91  95  92  94  90  85  76  76  81  82  75  67  69  65  67  68  57  64  73  95  99 103 105 105 108 100  99 101 109 105 112 105
 139 136 133 134 131 126 125 127 125 128 127 116 107  99 102  95  81 108 105  94  88  76  71  83  87  88  80  63  54  44  60  61  75  75  58  52  53  68  93  88  99 103  99  99  95  91 104 101 106 103
 134 136 133 134 125 127 129 129 124 120 116  94  92  93  99 111 103 107  85  63  49  48  43  45  44  49  43  35  33  35  32  39  59  69  65  58  55  69  64  73  87  96  97 102  89  92  95 100 108 111
 134 131 127 129 129 129 125 127 122 112  95  79  89  86 108 107  92  67  44  42  45  43  32  40  38  34  33  31  31  32  32  32  33  46  64  65  62  56  61  58  73  89  91  87  87  90  89  99 103 101
 130 131 133 134 129 130 124 126 113  96  79  84  85  92  92  77  46  39  38  40  40  36  33  35  37  32  33  29  31  34  35  31  30  32  40  56  61  57  58  47  56  67  83  89  86  90  88  95 100 106
 124 129 132 131 131 126 125 120  93  76  76  77  89  79  64  42  32  33  35  40  35  32  32  34  30  31  28  29  30  30  36  35  32  29  28  38  58  65  55  52  44  52  76  81  91  91  87  93  95 101
 134 127 133 131 130 127 121 109  82  72  69  74  62  43  32  29  32  33  36  30  28  27  27  25  22  24  23  23  24  26  25  28  29  28  27  30  33  48  46  55  47  47  67  81  91  97  87  97 103  95
 132 132 133 129 129 127 118  87  79  75  61  39  31  29  24  25  28  32  30  35  31  30  38  29  31  32  27  29  30  25  25  24  23  24  26  23  25  31  38  43  55  51  60  85  88  91  91  92 105 104
 135 130 132 129 129 126 111 102  82  62  34  26  17  31  33  54  56  68  71  62  71  79  79  82  71  70  83  78  63  63  54  60  41  31  25  19  18  22  25  31  45  50  53  77  87  97  99  94 111 104
 132 129 127 131 127 123 108 101  69  37  27  23  27  49  55  62  74  76  81  91  88  96  92  88  78  68  71  87  95  67  64  55  47  46  46  35  27  14  17  27  35  47  53  66  89  89  97 103 104 113
 135 126 127 127 129 120 100  93  56  42  37  40  46  45  47  53  59  58  70  69  70  75  70  63  52  46  55  58  53  48  44  45  37  38  40  33  32  27  26  28  31  47  46  70  82 100 102  97 105 115
 132 131 130 125 125 116 100  87  63  55  54  71  75  72  57  48  49  45  45  50  53  53  54  48  42  41  40  42  38  38  35  39  37  35  38  40  42  39  34  31  40  46  45  73  84  93 103  96 103 116
 133 133 126 128 125 116 102  80  65  67  71  95  99 105  92  80  72  51  53  50  50  47  44  39  39  39  36  35  35  40  45  44  47  50  53  61  68  58  41  33  47  50  53  72  79  88 102 101 100 114
 129 131 129 126 123 114  94  82  74  81  89 103 112 110 102  97 101  92  79  77  67  56  49  45  40  42  41  45  41  45  55  60  66  67  73  72  77  65  54  49  51  52  55  69  78  91 100 109 115 116
 132 127 127 122 118 114 102  96  87  93 101 105 117 114 101 101 100  87  80  76  64  50  44  37  36  33  37  39  42  49  49  52  65  63  71  81  72  67  59  58  52  52  57  65  79  83  95 109 112 120
 131 126 127 123 116 110 101  89  95 105 113 110 110 107  96 105  92  90  81  71  56  46  44  45  41  44  39  44  44  52  46  50  61  63  70  79  68  66  64  64  71  58  57  73  73  83  91 105 113 125
 128 129 122 118 109 103  99 102  99 101 107 100 107 100  93  94  89  89  85  64  60  55  49  46  43  42  46  49  54  52  53  49  60  63  70  69  74  65  62  66  69  61  61  66  75  86  90 107 114 126
 128 124 120 111 100 107 103 101 104 105 105 105  96  93  99  90  91  84  88  73  68  63  59  54  53  56  54  54  55  61  51  65  57  61  71  63  71  73  73  77  73  61  61  65  79  88  95 103 114 127
 126 122 116 107 103 102 103 103 106 100 105  99 100  91  99  95  97  83  83  79  80  76  73  64  74  74  63  57  61  58  57  56  55  59  68  67  68  81  73  73  74  63  62  72  77  87  91  93 108 129
