P2
50 50
255
  24  25  28  26  19  26  27  25  25  27  24  35  30  31  27  30  29  27  39  53  56  58  58  64  59  68  66  67  65  66  60  61  55  48  35  30  22  20  17  14  22  19  18  19  14  12  18  21  22  24
  30  25  26  28  31  34  39  45  50  47  49  38  35  36  41  41  49  40  48  55  61  49  66  58  64  55  61  58  61  64  61  58  52  41  31  33  26  27  27  27  26  29  31  26  24  23  22  23  24  26
  32  44  47  53  54  68  71  80  82  65  67  58  46  55  56  55  54  52  58  60  58  60  59  58  60  56  58  48  58  56  56  54  54  42  41  32  37  43  41  38  34  46  44  50  41  40  40  34  39  40
  54  69  66  75  80  80  88  84  88  86  71  60  47  49  51  55  52  54  55  49  60  60  60  58  61  58  55  51  51  55  55  59  46  42  42  40  44  43  43  46  52  54  66  62  60  52  54  60  62  52
  69  85  89  92  95  93  87  86  89  83  67  59  55  46  42  45  51  52  54  60  58  59  59  58  65  56  55  42  54  51  48  45  46  46  46  41  42  41  50  52  61  66  73  72  70  71  72  62  70  76
  96 107  92 101  93  89  92  83  71  67  63  59  48  45  44  46  45  49  53  55  58  63  61  66  71  76  47  42  58  58  49  46  48  45  42  40  43  46  53  55  63  65  71  63  56  67  69  74  85  82
 103 106  99  89  84  80  74  71  61  46  46  38  35  38  43  41  44  49  53  58  57  63  76  81  91  88  82  66  65  60  50  52  45  44  41  42  43  48  50  53  46  60  60  60  56  63  64  70  84 103
 104  98  87  76  59  34  26  24  16  16  12  15  12  16  33  37  42  44  49  52  65  78  89 102 101 104  97  86  73  64  53  55  46  39  37  41  42  32  24  34  37  44  41  33  24  51  58  67  88 101
  97  75  57  22  35  25   6   5  27   8   8   9   6  15  10  35  41  45  53  64  66  81 100  99 102 104 100  83  76  64  54  50  47  41  45  39  36   8   4   4   4  13  17  32  40  41  29  41  68 108
  58  32  36  25   9  13  36  11  12  14   7   7   7  38  20  10  45  46  55  72  78  91  93  93  98  94 100  89  78  67  50  51  46  45  44  40   7   3  14   8   5   5   4   7  11  30  45  49  29  77
  34  26  15   9  14  67  92  15  22  22   7   7   8  36  22  13  21  56  67  78  88  88  90  98 101 101  99  92  80  69  56  49  47  49  50  27  12   5   6   4  11   9   6  31   8   7  22  45  76  57
  27  25  25  31  27  24  27  28  17  11  11  18  27  32  35  49  64  69  84  85  76  89  93  99 104 103 104  91  81  75  70  54  48  54  60  32  30  29  17   9   8   8  22  19  14   7  10  12  29  49
  49  45  37  51  52  62  55  53  49  41  40  41  31  37  45  61  71  77  88  75  86  91  97 108 102 109 108  96  93  75  67  60  50  52  54  45  43  30  30  30  32  27  30  31  35  33  42  27  28  26
  80  79  76  73  75  74  65  59  54  40  36  35  40  44  53  68  79  89  88  88  88  96  99 104 106 112 111 105  99  86  78  71  57  48  53  53  52  37  33  28  29  33  40  43  48  57  70  68  69  70
  98  85  88  86  83  76  68  59  46  42  41  38  43  47  66  81  87  93  86  93  96 101 100 109 114 116 111 105  99  96  85  71  68  55  55  58  56  46  36  36  33  33  36  44  52  60  75  78  84  88
 112 108  99  91  82  72  61  52  47  45  44  50  58  78  84  93  96  95  89  99 105 111  99 105 114 120 116 116 103  93  93  80  73  66  57  57  64  59  46  42  39  40  40  46  50  55  69  79  83  94
 120 115  94  91  83  68  68  73  64  66  63  81  93  93  98  99  99  94  94 100 104 101 103 103 113 122 114 110 104  96  97  86  81  72  62  63  65  65  59  57  46  48  49  52  55  55  66  74  88  96
 126 116 114 106 101  91  93  91  91  90  90  97 102 103  99  99  98  93  95 106  99  99  98 104 116 113 118 110 106  99  89  91  86  82  68  64  65  72  70  78  73  70  66  66  70  71  79  83  91  96
 124 121 114 119 111 110 103 101 103 103 108 111 106 101 101 105  99  96 101  99  96  93 104 101 106 117 110 105 109 103  93  88  89  88  72  67  61  73  82  84  81  88  82  89  81  84  91  92  91  98
  89 126 128 119 117 108 110 111  99 104 109 108 112 112 101 101 101  98 103  89  93  98  99 110 120 121 113 110  98 112  99  89  82  88  74  65  68  71  73  79  90  95  93  87  94  93  94  94 103 103
 130 130 126 121 118 112 107 112 111 118 114 119 107 103 106 101 107  98  82  82  94 103 119 129 124 111 123 114 110 101 102  95  82  73  71  66  73  78  80  83  88  96  92  92  98  95 103 101  99 103
 126 129 124 123 123 126 121 122 119 119 110 106 113 104 105 107  95  71  88  97 101 126 130 126 125 122 131 137 118 100  98 104  96  82  74  55  63  76  85  90  97 101 101  97  98 100  94  98 102 103
 127 121 126 120 124 125 118 121 116 117 117 119 115 112 103  91  68 104 108 111 125 129 129 131 126 124 126 124 109  89  93  97 115 105  94  85  57  70  87  89  96 103  95  93  94  97  98  95 103 104
 129 127 131 125 125 122 118 122 122 122 119 108 117 106 101  74 111 126 132 124 125 129 114 121 108 110 105  96  94  80  81  87 105 110 103 108  96  73  73  87  95 102  98  89  97  98  98  89  96  99
 129 122 125 126 126 125 125 124 122 121 121 117 103  96  79  70 133 132 132 126 119 110 104 103 106  98  94  80  87  73  86  84  96  95 102 111 122  61  70  80  89  92  96  99  94  98  98  99  98 101
 132 121 126 126 122 128 126 125 119 121 120 110 101  94  71 100 137 133 126 117 110 103  93  91  91  93  85  78  73  72  81  88  88  88  98  92 125  65  73  80  93  98  99 101  93  99  98 106 101 104
 121 126 131 130 101 124 119 121 118 109 114 104  98  87  71 103 137 122 105  75  72  68  59  64  70  75  70  65  65  65  78  71  76  88  91 104 133  97  69  81  89  85  96  98  99  95  89  99 104  98
 126 126 129 131 126 125 123 122 122 114 115 106  98  87  76  72 119  97  61  12   9   6   6  16  23  63  59  53  68  43   7   5   7  17  55  78 119  71  71  86  86  88  91  96  97 103 103  98 105 105
 131 124 132 126 127 123 122 123 121 102 100 101  98  97  85  51  92  74  46  27  29  28  36  53  50  54  62  54  67  39  25  22  15  22  33  63  94  61  80  84  88  90  90  93  96 102  98 103 106 113
 131 130 129 125 128 128 125 123 110 107 113 103 103  99  94  61  40  61  42  38  37  52  44  50  44  40  39  41  35  31  33  30  31  29  37  58  32  70  81  88  92  90  89  97  97 101  99 103  99 111
 134 134 126 116 125 122 116 120 119 110 103 105 103 106 104  89  61  32  29  36  49  53  55  57  50  43  41  40  42  41  44  40  37  23  24  30  50  75  84  90  91  91  90  94  93  96  95 104 103 119
 132 133 133 130 122 124 120 115 104 106 110 106 104 115 113 107  96  87  81  70  68  62  78  68  68  68  66  72  66  61  59  58  46  48  49  60  71  88  88  88  95  95  89  94  93 103 101 108 106 115
 128 132 128 127 125 125 119 110 108 109 106 107 110 108 107 108 108 102  94  96  73  90  70  71  68  61  60  76  66  60  56  60  60  58  73  69  82  88  89  91  89  96  91  86  89  91  92 108 111 114
 131 133 130 128 123 122 120 115 104 104 104 105 115 117 109 103 104 103  93  78  83  83  70  70  74  63  70  71  57  63  62  45  62  61  67  84  82  84  88  90  94  91  94  88  91  93  95 101 103 121
 131 127 129 126 121 115 121 109 104 106 102 112 117 117 113 103  99  93  84  84  72  71  49  71  75  66  71  68  63  70  58  53  58  53  59  72  82  89  91  98  91  89  90  85  86  87 100 101 114 121
 131 125 125 121 124 120 120 110 104 110 114 121 115 119  95  99  85  86  64  78  81  81  82  85  71  56  63  68  66  56  63  65  60  64  60  54  45  57  86  85  92  84  88  87  84  84  96 100 109 119
 130 128 124 119 119 118 109 112 121 111 111 115 110 103  83  97  60  82  49  98  90  93  89  92  85  86  66  70  82  95  64  66  67  72  66  56  53  56  66  76  73  88  82  83  83  79  98 103 110 104
 126 102 117 119 121 124 107 119 112 110  97  94  91  67  83  71  77  85  55  99  99  89  66  61  67  75 105  86  69  61  41  44  47  67  73  60  50  54  61  59  70  60  80  91  85  93  97  89 108 113
 124 122 121 113 122 115 112 108 105 107  99  94  74  63  81  75  91  98  94  81  54  52  44  40  45  46  46  45  41  32  34  37  35  40  60  73  71  59  52  52  62  63  78  86  90  94  96  98 115 117
 124 122 117 118 120 112 118 111 107 103  80  56  68  76  74  82  92  82  71  43  43  40  44  39  36  39  35  33  33  33  31  33  34  35  41  52  71  74  60  55  49  51  64  79  90  94  93 101 112 115
 128 129 119 122 126 112 120 114 104  97  83  57  64  70  77  69  69  44  35  36  38  39  42  35  36  40  35  35  34  37  34  35  40  37  33  32  52  72  63  57  55  60  64  93  98  99  96 106 119 121
 126 121 111 119 112 122 117 103  98  87  67  65  62  47  41  36  31  29  38  36  41  41  37  33  31  37  23  31  32  33  32  35  36  38  35  28  35  42  43  43  54  48  61  85  93 103 101 108 125 122
 126 125 122 112 117 119 107 104  89  82  65  39  29  17  15  27  35  34  61  47  33  27  23  24  21  19  11  16  19  16  18  16  22  22  20  16  21  14  14  27  38  50  57  77  93  98 111 109 124 127
 124 125 121 116 115 112 112 102  83  79  50  29  20  19  40  44  59  62  65  62  53  53  56  56  60  52  41  55  55  48  40  40  58  47  46  39  35  22  12  21  32  48  58  80  94 105 106 108 129 125
 129 124 124 121 113 111 110  99  83  60  44  34  37  46  43  54  53  61  66  84  82  78  74  87  98  96  71  91 101  86  79  68  58  51  52  53  45  34  42  30  40  45  53  76  89 102 113 115 123 133
 125 118 122 110 112 117 106  95  79  58  50  49  55  68  60  49  48  61  61  68  71  77  77  93  84  68  54  59  84  84  68  53  53  51  53  47  47  54  47  35  44  45  61  72  89 104 115 123 124 130
 104 121 118 114 110 104  99  87  73  62  64  63  71  83  89  75  59  42  48  47  60  59  59  63  59  53  45  48  47  54  51  46  49  48  49  59  75  80  59  48  44  55  59  72  86  96 105 121 125 127
 117 115 110 117 110 102  89  93  81  71  66  75  81  97  93  91  83  62  53  43  44  48  46  51  44  45  41  40  39  39  40  40  40  53  65  77  78  73  70  59  53  59  67  76  85  89 108 119 130 127
 115 113 109 105 100  93  91  89  77  76  71  82  84  94 100  91  88  76  73  68  57  56  46  44  44  40  39  40  37  43  48  55  60  63  72  77  73  78  70  64  66  64  68  70  88  92 105 119 122 124
 108 104 100 102  96  88  86  81  83  75  84  90  92  89  95  82  83  85  78  67  56  55  48  42  40  37  34  38  39  38  46  48  55  66  67  79  80  68  70  68  67  62  65  73  82  97 102 119 120 122
