P2
50 50
255
  29  21  24  27  21  18  19  18  24  21  27  25  30  32  29  26  37  32  32  62  65  57  63  69  59  69  67  69  71  57  59  57  51  43  23  30  21  15  11  19  20  20  18  22  17  15  24  21  19  25
  21  28  29  22  23  26  29  37  34  29  33  37  34  37  32  35  39  30  48  55  62  51  69  53  59  57  56  62  59  59  62  60  46  36  30  25  27  27  28  25  28  37  30  29  27  27  29  26  27  26
  28  33  31  40  42  60  63  63  68  54  60  50  48  53  54  49  50  36  55  59  67  63  52  60  56  55  59  51  53  55  59  52  47  42  39  32  39  42  37  36  40  45  53  51  48  46  43  42  46  45
  43  59  63  58  73  86  78  87  82  71  64  62  51  49  54  54  52  52  53  54  62  62  63  59  57  52  56  52  58  55  55  53  45  41  42  44  44  41  42  46  52  59  64  64  54  59  54  60  54  50
  65  69  74  87  84  91  92  93  88  80  73  61  51  48  47  48  55  54  55  52  59  62  60  53  62  56  55  48  47  54  45  43  44  44  46  42  40  41  50  54  60  68  72  69  66  71  67  66  72  73
  91  85  99  98  96  87  92  89  84  80  68  60  50  45  43  45  46  50  54  55  55  63  62  63  67  63  43  46  61  54  52  46  45  43  41  40  45  48  51  59  62  64  66  64  62  63  68  72  84  91
  94 102  99  95  90  89  82  74  71  64  58  46  42  41  40  45  41  47  51  54  58  64  69  80  87  86  76  59  63  59  52  47  46  40  39  41  45  51  47  48  31  43  49  55  54  60  64  68  86 108
 110 103  94  90  80  68  63  44  26  19  20  16  20  29  37  37  41  47  51  58  62  75  87  97  99  98  91  82  72  65  52  53  47  41  41  39  42  24  29  31  37  41  42  37  27  33  50  62  86 104
 106  91  86  60  33  29  27  12   6   5   4   5   7  11  15  34  41  44  51  64  68  78  91 104 107 100  99  80  73  65  52  50  45  44  41  36  20   5   6   6   5   9  10  24  34  40  38  26  58 101
  89  65  32  37  26  13  14  10  16  12   7   6   6  31  16   9  41  44  51  68  81  91  96  98  98 101  98  83  78  68  53  51  45  45  44  41   7   4   9   6   5   6   3   8   7  23  40  55  55  59
  53  27  37  14   7  57  80  18  12   8   5   9   8  37  26   8  40  55  63  73  82  90  86  96  99 101  98  94  85  70  58  49  47  47  52  24  17   4   5   4  13   7  15  34   8   7  17  30  65  71
  33  21  11   9  18  25  75  23  22  14   6   6  14  24  29  39  48  65  74  82  84  87  90 101 102 108 102  91  78  70  68  51  45  53  53  40  32  37  19  20  12  14  20  19  15  15   9   8  19  36
  35  32  31  33  38  34  33  33  30  30  28  38  39  37  33  53  68  74  80  77  86  86  94 103 102 105 103  93  85  73  68  58  50  50  54  50  42  31  29  34  34  33  37  39  37  41  40  41  41  33
  58  66  63  68  73  76  68  62  56  42  41  35  37  41  46  59  76  88  87  82  86  94  95 104 108 114 108 104 100  84  77  67  58  48  55  51  50  44  31  28  29  33  36  44  51  59  67  76  73  83
  91  85  85  83  78  78  65  63  47  43  42  37  38  48  54  73  84  89  86  90  94  99  98 103 110 111 112 108  99  87  82  78  69  56  51  54  54  48  36  39  33  33  39  42  48  59  73  79  86  99
  93  94  91  92  82  72  62  63  49  44  41  39  46  63  78  86  94  96  88  96 103  98 103 102 107 116 118 116 104  98  90  83  76  64  58  58  62  59  47  43  40  41  41  46  50  54  64  71  88  90
 118 111 100  92  75  72  60  60  47  48  51  60  70  84  94  99  99  95  92  94 104  97  99 104 108 118 106 111 101  97  94  86  84  76  62  61  62  67  64  65  53  50  54  54  57  57  66  80  86  96
 120 114 105  96  93  89  82  84  85  79  85  89  99  99 100 106  98  97  91 103 101 100 100 101 112 110 116 112 103  93  91  93  87  84  71  64  63  74  76  79  76  73  70  72  73  75  85  95  88  93
 126 121 118 113 111  98  98  93  90  98  98 108 102 106 104  98  98  93  98 104  93  95  97 101 112 111 116 106 110  99  87  82  87  86  74  68  63  74  78  81  86  89  87  89  80  84  87  97  96  96
 124 121 122 121 119 108 108 100 103 103 104 105  99 108 109 100  94  95 103  91  92  97  94 108 117 116 115 111 101 105 103  85  86  88  83  69  66  73  76  79  94  92  87  98  89  93  93  98  99 104
 125 124 126 121 114 116 113 112 100 112 111 107 111 103  99 103 106  96  88  86  89  97 112 121 127 116 122 112 111 103 102  99  84  76  76  65  66  78  77  84  90  95  94  94  94  93 101  99 102 102
 129 126 126 125 116 119 120 118 117 114 113 115 100 109 104 103 106  85  75  93  97 119 125 124 124 122 125 136 123 100  95 100 108  86  79  56  62  71  81  87  96 101 103  96  94  96  97  99 101 101
 126 128 126 125 123 121 125 118 119 116 115 113 109 108 101  95  91  74 101 107 118 129 130 130 129 122 118 133 118  91  93  94 106 109  96  86  63  66  77  82  90  99 100  96  93  98 101  97  99  93
 129 127 127 126 119 125 124 121 120 119 103 106 117 117 106  89  67 112 125 126 124 126 122 122 118 116 112  98  97  86  84  86  87 102  98 107 108  68  75  78  91  96  99  93  98  98  96  94  93  98
 129 129 126 125 127 121 127 125 120 120 124 120 113 108  89  69 123 134 129 126 123 121 104 102 105  98  97  84  83  77  81  78  99  91  98  98 116  81  67  78  90  92  91  96  94  97  94 101  98 106
 129 125 115 124 126 128 126 125 117 123 112 118 101 102  83  64 134 131 129 119 113 101  93  95  91  90  91  75  77  70  74  82  89  89  93  79 120 117  73  80  83  91  93  96  97  98  99  99 107  93
 129 127 127 125 122 127 113 124 118 121 116 111 106  94  76  66 132 129 113  94  83  76  69  67  66  72  73  68  65  66  75  63  73  73  86  94 121 111  68  72  84  89  96  99  99 101  94  98 101  99
 122 126 126 130 113 127 126 125 118 117 116 108 103  91  80  58 116 112  83  24   6   5   5   9  21  32  62  59  63  68  18  10   7  10  28  63  93 114  68  78  86  93  94  94  93  99 104 103 106 106
 127 129 129 128 127 130 125 121 122 109 111  99  98  95  88  60  94  87  54  26  24  21  26  32  48  52  63  55  67  41  32  22  20  21  26  49  76  53  69  78  85  94  88  97  98  98  99 101  94  99
 130 130 129 132 127 125 131 122 119 113 101 106 103  97  86  66  37  67  49  36  42  45  47  48  46  39  45  45  33  29  31  31  36  29  30  44  37  53  71  89  94  96  93  95  94  98 102 102 102 104
 131 130 131 127 124 121 119 121 107 117 111 105  99 101 101  92  63  39  30  36  45  53  53  58  47  46  44  37  40  40  45  36  36  26  23  25  43  65  85  87  93  91  93  93  91  98  95 103 104 107
 133 130 131 128 125 126 112 116 115 107 106 104 111 107 112 106  92  67  80  61  59  66  68  71  73  68  68  63  72  62  57  53  54  45  53  58  66  76  87  88  93  93  94  87  87  96  95  95 103 115
 129 133 133 130 122 125 119 114 117 101 103 103 101 111 108 110 106 103  97  87  84  78  74  66  71  67  64  66  66  58  58  53  62  55  68  69  72  84  93  87  89  84  93  87  86  89  89  98 108 118
 131 132 131 126 127 121 122 118 106  91 103 105 108 113 113 111 103 103  97  80  87  86  75  54  73  70  63  66  59  54  63  51  57  59  55  74  80  84  84  90  87  91  91  84  86  89  91  99 107 104
 134 132 131 127 121 118 116 117 100 101 104 109 116 122 115 111 102  97  88  72  83  76  68  58  77  66  64  69  61  68  65  55  66  63  58  63  73  78  87  89  93  86  88  89  81  85  93 101 101 114
 134 129 126 126 121 120 116 110 108 107 110 114 118 118 115 101  96  84  89  73  74  83  72  76  76  66  62  70  67  63  59  62  59  60  63  57  51  55  69  81  84  88  86  83  86  87  91  94 106 113
 131 126 124 121 116 119 109 113 109 118 108 114 113 116 103  97  94  80  86  84  93  86  89  82  88  75  70  64  74  82  69  63  63  71  67  64  62  51  58  74  69  68  86  84  89  86  90  93 103 104
 130 124 119 123 118 119 117 111 114 107 113 108  99  96  62  87  79  92  89  87  99  93  68  68  61  77  84  82  75  62  44  38  41  52  74  68  61  54  67  66  64  70  74  84  86  87  89  93 111 113
 127 122 113 111 118 119 115 114 108 113 101 101  91  82  77  82  76  93  97  94  85  55  54  43  41  48  43  46  45  35  31  32  33  36  45  65  72  64  57  54  51  59  59  84  87  96  93  98 111 114
 125 122 124 119 116 113 116 115 107 108 101  80  48  82  81  73  79  86  84  66  49  40  41  40  37  31  40  34  33  29  32  33  33  34  37  41  54  71  72  58  52  45  50  75  90  98  96  98 115 110
 126 123 122 117 122 121 121 119 112 110  98  89  66  64  61  77  73  63  45  37  35  35  41  40  33  37  36  33  34  34  32  37  44  43  39  35  33  56  63  50  59  55  53  74  93  99 103 101 119 121
 125 129 125 119 104 122 120 118 104  99  73  70  63  64  58  53  45  30  27  33  32  38  42  37  31  31  34  29  27  28  28  33  37  37  32  27  25  31  43  34  45  57  51  76  90  92  99 107 111 130
 130 125 123 118 115 107 117 112  99  90  68  65  48  29  25  22  17  18  23  27  25  24  19  18  18  22  19  18  19  18  17  18  27  31  25  20  19  13   7  17  28  41  49  67  87  97 106 100 122 126
 129 122 125 116 112 117 116 115  98  87  73  52  29  15  12  46  44  57  58  60  56  50  53  55  56  55  50  44  46  56  49  44  43  49  46  48  45  35  22  23  27  36  53  63  87  95 103 105 118 125
 125 122 124 122 119 111 108 104  93  83  56  39  32  36  37  45  56  55  59  66  80  76  68  82  87 101  74  63  91  93  84  74  61  55  49  48  44  41  37  33  33  42  52  60  78  90 108 115 125 121
 127 120 118 120 113 107 106 104  93  75  57  46  47  51  54  52  45  54  59  58  67  78  79  78  86  71  66  60  64  73  72  53  46  51  51  55  52  53  64  46  39  41  48  64  78  95 102 116 126 130
 122 121 119 120 111 111 107 100  86  67  55  54  55  68  76  80  60  47  46  48  53  60  58  62  63  53  51  45  51  52  45  45  43  44  47  47  67  85  71  55  48  49  52  67  76  91 103 109 120 131
 122 110 116 120 117 113  99  95  87  76  67  64  67  78  94  91  89  71  52  45  42  42  45  47  51  45  41  36  41  38  37  43  41  43  67  74  82  75  69  59  59  55  59  63  73  83  97 113 125 123
 118 114 113 111 106  98  96  92  91  75  72  76  80  86  93  96  87  80  74  67  64  53  51  45  41  40  41  37  37  36  41  46  55  58  66  73  82  74  78  72  63  66  57  70  74  79  98  99 120 124
 116 109 108 104 101  99  89  85  79  79  75  83  91  93  85  93  78  84  79  69  65  58  53  50  45  39  38  36  36  35  37  43  45  56  64  72  83  81  77  68  67  65  65  66  73  86  96  96 118 109
