P2
50 50
255
  86  37  23  23  27  23  16  19  17  15  13  16  29  46 108 109 110 109 117 120 123 103 116 126 134 136 131 116 108 103 129 120 126 114 111 117 111 101  52  30  26  23  35  80  52  61 108  24  57 106
  55  19  14  18  15  17  10   7  11  15  11  11   7  16  32  36  78 101  91  90 103  93 108  87 114 126 122  99  77  76  62 108  69  53  46  24  15  12  17  22  27  28  23  46  36  32  27  46  33  49
  20  17  13  11  13  11  16  14  14  15   9  12  10   9  12  16  22  35  39  73  85  99  98 100 119 108 106  73  82  73  62  70  59  19  18  13  16  20  28  30  21  20  18  32  54  60  56  69  44  23
  22  20  18  15  24  31  24  34  22  31  29  16  13  15   9  11  17  11  24  41  65  82  88  73 110  95  96 107  90  70  57  81  25  30  19  21  41  22  26  42  51  48 103 101  68  58 149 148 136  62
  40  33  54  59  46  81  77  88  87  79  60  40  24  23  20  13  18  18  15  29  50  68  56  87  91  95  93  51  83  53  43  45  29  35  46  36  51  43  56  68  94 101 132 120 141 155 126 150 148 155
  50  49  29  60  83 106 105 123 116 107 109  91  49  49  21  19  20  26  25  25  29  42  65  82 106 123 111  58  60  75  54  57  55  38  37  34  34  45  57  87  99 135 136 142 145 147 152 141 132 140
  55  69  71 102  90 106 111 117 119 114 109 109 100  77  50  31  18  25  27  25  29  40  67  87 100 130 131 127  90  87  92  87  50  57  36  54  38  47  74  99 120 133 139 144 143 163 150 155 158 141
  73  78  96  96  86  64  37  31  18  21  26  36  30  28  45  46  24  26  28  29  35  42  76  77 105 134 151 163 161 140 103  69  54  43  29  38  26  14   6   6   1  16  38 107 153 158 155 164 155 151
  82  94  72  53  20  24  15   2   3   2   2   3   2  12  15  25  28  38  23  26  50  47  65  77 127 156 161 173 170 155 121  72  43  30  35  13  17   2   2   5   2   4  52  17  13  57 133 146 152 162
  89  82  36  21  16   6  29   5  11  15   4  92   7 128  21   8  27  29  36  28  49  67  85 102 114 143 167 178 169 152 114  82  45  43  19  33  82   3  11   1  15 170 150 164  34   9  51  99 151 160
  84  31  28  14   4  54  86  37   3   9   0   4  30 151  38  37   7  29  22  17  34  72  98 111 130 144 167 170 167 144 122 111  36  30  39  54 104   9   8   1   3  15 166 182 158  29  11  88 117 155
  64  41  22   7  16  54 133 140  11   6   2  11 108  98  18  22  12  53  27  26  40  69  80 114 121 145 158 172 163 142  94  80 112  28  20  22  65  71   7   2  11  66 179 163  61  40  47  71 118 166
  64  37  25  24  24  28  23  28  33  25  27  27  38  47  42  37  32  19  22  36  48  69 109 126 132 142 161 168 162 140 117  78  84  44  36  42  34  28  50  45  60  66  98 107 133 133 115 116 142 170
  57  70  54  60  66  42  36  35  45  33  55  45  52  43  43  45  39  34  33  53  64  64 101 121 126 136 155 161 160 149 106 110  86 104  62  51  30  43  46  61  83 127 138 140 143 143 141 139 146 152
  99  88  90  68  77  87  71  95  87  71  52  53  41  39  40  30  39  53  63  52  68  87 108 120 132 131 157 163 157 163 150 139 118 109  87  60  58  42  69  84  87 129 149 160 163 161 163 160 158 163
 120 106  83 102 108  71 101  82 101  75  70  60  62  53  40  35  59  70  63  75  78  76 110 119 117 138 153 162 169 153 153 151 136 130 112  85  81  93  60  64  94 111 137 150 155 163 163 155 164 161
 119 121 119 124 122 113 110 102 102  86  79  70  59  52  52  80  73  81  72  78  82  82  83 110 122 120 144 160 163 164 162 155 144 150 145 138 108 111 106 109 113 127 128 141 150 162 164 164 163 164
 121 124 125 127 128 118 122 115 111  86  80  49  63  78 104  99  78  70  88  86  91 110 104 105 132 138 144 156 165 159 171 167 160 161 155 149 145 133 116 115 128 115 134 141 155 153 161 164 163 164
 119 121 116 129 139 128 120 115 102  84  86  82  88  98  84  90  80  78 103 103  82  71  88 108 123 125 139 155 150 162 161 172 164 157 146 153 151 140 133 140 129 131 134 139 141 149 156 159 164 163
 120 132 134 131 129 126 114  99 101 113 104  91 104  94 106  90  83  75  90 111  80  75  90 120 113 119 138 142 150 156 155 159 168 155 143 148 155 146 142 146 141 137 142 146 138 143 151 163 163 166
 132 136 137 138 132 137 111 121 114 113  99 118 107  91 104  73  86  70  84  61  49  78 108 110 131 117 138 154 141 143 143 148 165 165 151 150 148 145 153 151 158 150 146 142 150 155 151 155 165 177
 116 130 128 119 134 120 128 121 128 121 121 122 108 104  81  71  67  54  41  65  75  94 110 129 140 138 143 151 171 149 146 132 148 166 155 152 150 148 145 146 155 165 158 148 155 155 164 162 177 179
 115 125 128 122 129 122 127 124 119 124 124 120 109  98  98  53  45  52  68  85 101 106 129 131 146 142 155 167 171 165 163 134 136 139 136 147 146 143 156 163 162 163 158 159 158 160 168 172 180 184
 118 121 118 123 126 132 120 132 125 121 127 100  86  72  51  45  82  98 121 121 131 129 133 143 137 147 163 174 177 176 174 160 155 160 114 100 145 142 145 161 163 164 165 160 160 160 169 175 173 178
 103 115 121 129 118 132 115 124 128 127 124 126 100  47  34  37 110 140 117 116 113 128 136 147 145 149 173 184 183 183 181 178 177 176 164  78 108 143 146 157 160 169 170 162 163 166 171 165 172 179
 102  86 107 121 121 131 130 127 129 120 113  96  85  34  28 107 113 132 121 114 116 115 127 132 143 142 159 176 171 170 164 167 179 180 177 133  71 122 143 158 164 165 166 167 172 177 180 176 179 176
  89  82 108  86 108 119 126 129 133 111  96  91  59  32  28 111 126 115  60  22  36  78 105 112 132 125 154 156 159 140  94 116 146 174 179 121  72  92 137 154 163 169 175 177 173 178 170 181 183 182
 119  89 111 103 111 128 103 132 136 115 132  89  50  31  28 104 113  73   2   1   0   2  49  85 118 121 134 137  49   1   1   4  62 151 166 111  88  93 122 143 149 163 172 179 174 179 179 182 181 180
  81  97 103  84  86 116 129 120 126 128 109 116  65  35  29  77  72  54  22  14   7  19  34  40  64  74  89 122 123  31  18  22  30 112 141 137 108  99 119 126 153 160 171 175 175 181 180 174 179 179
  81 102 110 103 111 116 129 119 134 128 136 124 100  70  57  30  29  34  36  22  26  34  39  52  48  63  72  97 139 157 129  66  63  71  94 137 143 114 101 118 138 159 158 171 169 178 179 173 179 179
  88  93 110  90 111 111 116 121 123 132 136 127  90  78  78  70  46  24  32  29  38  33  61  67  91  68  79 100 105 121 119  83  71 122 128 143 146 143 130 119 141 145 159 164 168 174 167 177 174 174
  99  92  90 113 110 118 118 119 124 129 115  83  76  80  76  62  44  40  42  40  35  58  60  69  86  63  68  89 100 108 129 125 130 123 141 149 145 155 146 131 134 148 153 163 166 175 172 177 170 174
  99  85 109 104 103 106  98  94 126 128  92  86  85  83  74  64  55  43  43  51  63  65  75  81  97  72  43  68  86 122 119 125 129 130 138 142 154 158 156 149 141 149 157 162 170 176 165 174 159 174
 100  78  90  90 106 101 109  71 114 104  94  99  74  72  62  52  42  52  63  52  58  52  50  81  81  68  48  71  88 103 131 127 129 140 136 143 158 161 170 169 155 151 155 163 174 171 172 171 151 166
  87  94  77  59  75  91 106  99 113 127  89  80  74  69  69  50  44  45  52  43  41  57  77  77  68  54  50  83 105  96 114 124 121 138 138 132 153 153 168 168 166 163 166 161 162 161 164 165 118 157
  99  78  67  63  59  89  94  84 113  93  65  90  74  56  56  65  59  54  68  43  53  47  39  46  55  35  34  38  65  92 109 108 131 132 133 137 150 161 161 173 165 176 170 163 173 165 165 160 148 162
  75  73  81  72  83  71  82  93  94  67  69  57  58  61  75  73  72  63  54  53  43  44  58  36  39  37  36  66 101 110 120 128 142 141 143 147 158 155 163 170 173 175 163 170 171 168 170 164 167 157
  70  41  77  77  79  84 109  93  88  83  72  48  53  58  93  44  70  59  51  45  52  50  56  44  40  94 103  82  87  96 108 134 132 145 147 146 164 164 150 150 165 168 174 169 170 167 171 172 173 170
  56  70  94  66  50  74  94  84  48  65  55  61  55  69  83  80  73  51  50  38  46  34  31  41  33 109  73  68  52  81  67  77 115 134 145 157 164 152 146 122 164 169 171 172 174 165 171 151 173 170
  99 104  70  74  42  79  84  95  72  64  41  58  59  71  67  84  48  31  32  23  50  34  55  28  44  79  79  78  94 134  81 108  87  69 117 140 153 162 155 141 155 157 168 171 172 174 173 165 168 175
  95  74  70  77  79  93  89  77  71  62  49  33  55  74  65  40  26  25  38  35  35  69  36  40  64  74 111 104  85 134  94 100  65  69  70  75 121 132 128 139 138 151 158 177 168 167 171 167 166 178
 104  65  97  63  71 101 100  74  51  65  47  47  35  32  24  23  37  42  21  20  63  32  45  39  33  38  77  84  71 132 118  88  35  24  80  59  62  95  62 101 130 133 143 169 173 173 169 176 169 172
  84  92  99 101  87  77  92  78  67  77  63  44  27  25  21  17  29  25  45 131 163 129 173 176 166 152 171 178 203 195 176 200 180  38  31  25  51  38  22  62 121 152 153 165 168 163 172 170 172 173
 107  68  97  91  74  94  90  68  58  88  45  26  26  23   2   4  16  59   1 143 150   0 179 181 176 180 184 184 188 194 177 189 182  24 110   5   8   9  54  83 101 141 154 164 172 175 165 165 177 168
 111 101  95  82  85  94  80  90  76  85  63  32  29  35  15  13  17  19  15  17  23  20 106 152 157  50 151 153 157  75  28  50  34  36  56  51  32  51 113  94 122 123 163 163 161 166 163 165 168 161
 115  97 105  57  73  67  97  99  71  56  49  36  30  34  31  20  26  22  21  21  24  27  30  32  34  38  40  40  32  23  27  37  77 119  90  96  98 141 133 121 111 135 150 161 159 156 167 170 177 176
  96  99  93  90  74  82  81  96  70  66  47  49  40  38  46  34  23  45  42  55  46  41  40  59  48  71  32  52  59  76  52  92 134 157 132 109 147 145 145 142 138 143 146 151 161 163 158 167 171 164
 111 105  89  96  76  70  54  71  66  70  64  50  49  45  46  38  32  24  54  42  52  63  46  65  62  99  49  95  59  96 110 140 150 122 119 143 141 155 149 153 145 151 146 152 155 154 164 163 174 167
 160  90  84  86  70  76  61  73  54  54  66  66  56  52  57  49  37  31  24  33  32  51  65  85  71  95  64  92  82 111 121 129 128 127 139 145 153 154 156 160 146 155 159 159 146 157 161 163 169 170
 184  97  73  85  63  63  64  58  52  43  58  96  71  72  54  46  56  41  32  30  19  52  44  68  71  62  70  85  67 113 115 107 114 132 139 156 145 156 160 160 155 153 157 144 151 151 156 160 167 183
