P2
50 50
255
  66  28  21  14  26  22  15  18  16  16  18  22  26  43  72 119 116 114 122  93 126 116 106 126 130 147 133 127 106 109  98 140 134 139 143 141 109 153  99  72  55  52  29  48  83  82  73  52 104 111
  41  23   7  20  18   6  10  12  16  14  10  11  14  16  31  61  76  95 122 112 112 108  95 102 117 130 126 114 104  82  73 121 103  65  64  39  22  21  35  21  18  20  26  47  63  52  30  52  24  60
  21  16  16  11   8  13  16  17  10  12   6   8  10   4  11  16  21  32  59  68  73 110  94  88 108 112 118 106  79  66  71  96  67  46  30  15  13  19  16  28  18  18  28  36  26  40  33  64  33  33
  23  22  13  17  25  16  23  30  35  31  17  14  15  15  14  13  15  15  29  42  73  98  75  78 117 108 108  96  96  59  58  42  39  24  20  20  31  23  39  25  28  25  52  48  76  43  61 134 136  50
  56  38  54  44  40  60  83  77  79  75  74  45  26  18  16  15  14  19  17  18  52  63  61  82  83 111  88  57  66  62  47  66  22  39  35  29  29  29  49  69  59  85 115  91 103 141 148 169 150 147
  56  78  44  72  82  94  98 113 117 105  81  93  65  41  20  23  20  21  22  29  39  53  60  70 110 116  85  66  49  61  55  37  53  53  50  36  36  45  58  67 106 103 128 139 141 145 148 136 115 150
  46  53  77  90  98 119 103 116 122 121 120 115 103  60  42  30  23  27  27  21  25  34  56  83  97 121 132  87  73  63  76  75  69  44  34  31  47  43  58  67  89 106 133 150 146 156 158 164 152 129
  66  80  88 100  74  69  25  22  29  22  29  39  33  26  40  50  28  20  27  27  26  39  67  81 101 126 155 141 152 116 105  68  56  34  34  32  36  36  28  31  54  82 137 159 157 151 153 170 151 157
  86  87  78  60  22  21   7   3   1   2   1   2   1  12  15  21  35  29  28  26  38  66  51  62 100 147 147 171 166 154 120  65  50  31  33  22  12   1   2   2   1   3   6   9  23 116 152 160 159 163
  84  81  38  45  14   3  45   2   6  10   1  34  10 135  30   5  32  30  28  32  35  66  84  88 112 142 162 174 171 154 102  65  35  28  16  20  85   8  14  18  49 191 110 174  10  16  31 123 160 161
  68  50  31   9   3  78 107  68   6  10   0   1  14 150  74  23   8  34  34  24  37  54  92 110 134 153 165 175 175 144 102 131  35  58  30  48 112   8  17   1   2  13 106 179 157  12  12 117 119 154
  68  41  22  12  17  46 116 141  13   5   2   2 138 100  21  19  10  27  31  27  46  54  77 103 137 138 162 170 169 144 113  86  65  84  78  37  95  86   3   1   8   9 181 183 153  30  56  30 132 157
  58  33  34  47  39  25  27  24  37  26  24  45  36  33  46  39  25  16  21  28  54  53  88 117 128 142 154 171 161 139 117  96 117  24  29  27  31  32  33  28  34  86  76  71  84 110 121 120 131 155
  89  61  57  57  54  43  44  43  42  38  39  53  50  37  40  44  37  37  32  43  58  57  80 118 116 145 154 167 158 155 130  98  74  86  66  40  37  51  44  42  63  67 117 128 136 143 119 121 139 157
 107 106  85  76  83  93  79  83  83  79  80  67  68  64  40  32  40  53  52  46  79  92  95 105 135 134 147 160 160 150 147 116  94 101  58  58  57  49  64  80 101 126 154 166 166 172 163 160 156 165
 118 114 117 100  98 102  82  79  90  80  79  86  54  54  42  26  62  72  75  69  74 100 106 122 118 130 145 164 170 164 153 154 140 121 112  81  77  59  65  85 101 119 148 156 153 158 163 155 165 162
 117 124 123 131 117 124 115 111  98  88  95  66  75  57  45  83  83  83  87  81  90  92 103  83 132 130 148 163 166 162 162 163 148 142 142 135 100 102 104 100 125 111 111 132 152 159 164 167 167 163
 125 122 132 130 129 127 130 121 117  79  65  66  60  77 101 101  87  67  78  83  93  92  97  97 113 130 145 163 156 163 170 160 166 154 148 150 143 130 113  89 124 130 131 141 150 162 159 163 163 167
 121 114 117 128 132 127 133 117  94  85  72  79 105 103 105  99  71  71 108 103  85  82 108 114 120 134 141 159 153 164 170 171 164 164 147 154 153 136 144 131 122 130 107 139 142 156 153 157 157 167
 131 141 133 135 137 117 126 109  99 113  95 110 102 110  96  81  73  78 104 103  79  94  50 125 127 115 147 148 150 153 160 168 169 151 155 153 147 145 152 147 140 121 132 139 139 145 149 159 160 168
 114 135 135 141 133 127 116 115 108 119 105 111 118 100  79  91  76  80  82  83  66  78 102 116 124 113 134 146 149 147 142 151 168 163 155 142 147 148 152 156 150 143 136 135 136 142 149 157 170 175
 123 133 132 127 120 129 124 118 128 123 130 135  91  97  88  89  83  81  52  59  67  81 121 120 125 136 145 147 157 150 143 143 153 170 165 144 152 144 150 159 152 161 152 152 149 159 157 160 175 175
 123 125 130 121 132 134 124 130 128 131 111 104 104  98  84  59  53  49  57  66 104 122 120 136 136 135 146 162 169 163 151 130 135 155 146 159 143 160 147 144 157 163 158 160 160 164 161 169 181 183
 104 121 114 129 132 135 128 133 125 132 111 109  97  88  68  47  70  87  91 102 135 132 135 141 145 153 164 171 175 170 171 150 139 137 107 135 153 137 154 157 163 159 159 154 161 155 166 178 179 179
 113 104 128 107 120 125 115 133 128 123 127 108  95  45  31  31 116 119 130 130 129 122 136 143 150 150 175 182 181 184 179 170 170 163 126  88 111 148 161 163 163 164 171 164 170 166 171 171 176 180
 101  71 127 130 129 125 126 125 128 125 122 108  76  35  29 111 134 121 128 124 101 115 132 135 142 136 169 182 179 179 175 175 182 180 160  96 107 134 147 159 165 160 172 175 166 167 178 175 171 178
 107  98 109 111 111 136 123 125 122 115 121  93  53  29  37 111 125 113  96  72  76 113 105 115 121 136 150 165 158 162 147 151 164 178 178 123  85 114 132 154 160 172 167 174 177 175 177 179 183 183
 105 106 110 104 115 128 118 133 124 107 130  87  50  43  30 101 100  99   1   1   1  22  73  88 125 125 134 149 119   9   2  12 131 165 175 115  73 106 129 146 160 167 172 178 175 170 178 180 181 180
  79 107  92 115 124 124 129 133 130 125 115  95  65  48  32  77  93  51  14  10   2  16  36  66  89 104 115 138  83  13   9  14  27 144 162 132 108  99 118 136 152 164 175 175 175 178 176 182 181 179
 101  90 106 106 100 102 122 124 125 127 137 121  75  65  46  29  41  46  38  20  24  38  42  36  58  84 111  95 146 140  83  37  46 102 123 119 126 114 112 128 145 158 172 170 175 180 169 179 180 177
  86  99 100 109 104 111 121 115 128 127 132 102  88  89  73  67  39  25  27  35  40  54  62  80  79  98 102  91 130 128 122  73  60 100 123 133 138 147 127 126 143 149 152 171 177 172 179 177 173 172
  89  94  93  93  97 114 104 120 131 131 125  96  95  91  75  61  54  42  40  33  51  59  72  97  94  73  75  92 107 127 106 122 100 112 138 143 144 154 139 104 127 144 155 164 155 175 173 175 167 171
 105  76  96 100  96 105  98 116 123 130  98  95  80  88  72  66  67  51  43  39  73  67  77  84  74  73  53  73  80 118 125 122 130 132 138 143 147 155 156 141 138 137 156 167 168 169 162 175 167 168
  81  88  80  93  99  89  97  93 115 107  93  99  73  67  68  57  37  46  68  37  55  47  60  71  73  77  69  76  92 117 124 128 129 142 143 149 148 163 164 161 150 152 152 168 175 168 172 171 162 167
 107  71  75  66  82  72  84  92 124 102 106  93  88  74  56  53  52  47  65  60  57  52  75  79  82  68  58  60  98  88 107 119 112 145 147 143 161 163 167 170 166 156 164 163 166 172 167 163 131 167
 106  73  59  47  45  85 116  96 104  96  90  74  75  66  55  74  63  60  52  63  48  53  60  68  74  66  44  58  69  80 127  91 108 140 141 144 151 163 169 171 165 167 165 170 175 168 164 157 144 161
  68  67  80  60  99  77  91  77  95  67  80  58  59  58  73  60  57  64  57  60  52  32  45  44  35  28  27  46  75  87  90 117 133 146 136 146 146 164 161 168 175 172 159 163 173 168 165 168 163 170
  45  34  71  66  83  78  93 107  77  63  54  64  52  61  94  55  51  79  46  56  52  70  60  63  73  64 110  91 121 112 133 134 142 139 152 153 159 155 160 168 170 175 171 170 166 166 170 167 168 170
  64  81  67  68  64  81 105  91  74  81  58  40  53  69  63  75  76  51  46  45  32  37  53  46  54 107  88  83  73  80  72 116 136 145 152 158 164 163 139 149 171 171 169 173 169 167 171 163 175 174
 106  78  65  86  66  78  88  76  69  47  44  44  59  75  59  71  57  43  32  33  31  29  28  30  58 112  73  69  81  97  79  73  81 107 140 161 163 154 142 153 167 164 163 170 170 172 169 169 169 176
  95  99  50  88  81  81  94  88  67  60  36  57  53  71  68  39  30  30  39  32  39  48  30  40  46  87  81  74  98 131  98 111  84  61  86 125 142 145 144 143 142 172 168 174 166 175 174 172 165 171
  98 100  73  61  73  87  86  67  63  66  54  46  39  48  31  26  29  39  31  22  29  31  16  35  56  65  71 107 104  87  62  29  54  58  58  76  95  97 125 124 145 150 139 170 169 171 178 176 167 172
 111  92  87 102  67  76  85  73  79  63  57  26  22  20  19  22  27  20  65 130 161 141 158 129 120  54 100 144 183 187 175 186 107  28  45  67  74  42  40  80 135 149 160 174 170 173 170 173 176 172
 106  81  99  88  93  83 105  82  75  83  53  37  27  12   2  15  21  57  46 158 180 168 178 178 179 142 194 186 189 200 187 197 182  32 122  10  21   6  53  93 113 148 157 163 168 171 167 169 171 169
 106 100  90  73  86  76  84  90  93  69  48  36  28  21   9  11  18  20   8  21   5  61 163 167 172  57 178 180 179 123  64 125  20  16  41  28  21  47  84  97 128 143 155 169 169 172 155 170 174 170
 104 109  92  60  60  60  91  52  67  66  28  44  36  36  32  20  27  24  23  21  21  28  36  54  49  37  32  30  37  28  26  39  56 113 105  60  94 120 125 117 122 131 156 162 160 162 169 169 173 175
 110 109  92  74  72  73  79  88  67  72  39  37  50  30  44  26  25  49  46  34  30  39  38  45  29  53  30  37  46  45  59  92 118 151 119 102 143 148 128 134 142 141 157 154 154 156 169 162 175 175
  96  91 106  83  55  74  70 100  67  52  66  55  43  49  46  38  24  41  43  50  36  43  63  70  79  93  68  87 101  63 129 108 149 132 114 143 152 147 154 142 146 148 157 146 157 166 166 166 170 167
 134 109  86  91  92  85  65  77  58  56  61  68  52  68  50  43  40  30  33  47  53  49  61  89  94 118  69  70 105 119 139 138 138 122 144 143 155 146 159 158 146 155 152 153 159 160 168 170 169 179
 184  85  96  65  56  67  70  56  73  51  75  61  68  69  59  55  32  43  29  32  38  69  70  83  65  71  62  96  89 108 123 101 109 123 135 147 145 153 160 154 154 154 150 154 150 162 162 166 166 202
