P2
50 50
255
  34  21  23  25  18  23  20  15  20  19  24  22  29  55  94  91 103 104  97 105  88  93 106 103 119 108 119 115 108  99 131 131 116 122 129 124 128 105  94  67  47  28  35  51  87  98 128  56  48  50
  24  19  19  14  13  23  19  18  18   7  16   9  12  30  47  54  64  85  82  88  91  74  80 114 102 100 101  96  80  64  99 106  75  86  77  43  35  34  33  21  23  23  23  46  36  42  37  79  40  36
  34  29  23  23  20  19  19  19  22  17  15   8  18  13  22  20  34  37  49  73  94  91  94  97 120  95  95 104  53  58  45  97  51  28  24  13  19  20  20  26  21  25  26  28  32  39  74  53  97  31
  31  33  52  37  43  59  60  57  49  32  29  22  19  16  19  18  18  22  25  47  68  72  59  87 106  88  84  96  41  78  56  71  22  26  15  19  24  27  30  25  37  38  51  67  37  40 108 126 133 100
  63  50  41  75  80  95 100  97  98  95  77  58  32  28  21  23  21  22  25  34  39  46  60  76  88  88  83  67  65  45  70  42  31  30  40  40  32  37  53  67  90  91 114 112 116 128  80 110 116 134
  49  57  61  85 101  88 106 113 114 118 108  97  68  46  32  26  27  25  26  28  30  53  61  73  86 109  77  56  70  63  46  46  50  48  31  44  48  46  89  98 121 134 139 149 144 144 117 122 111 124
  82  91  93  83 105  99 120 114 117 119 122 126 118  82  63  28  23  25  29  27  31  44  48  78  87 121 128 120  89  86  90  64  57  42  40  40  65  67  91  88 109 132 143 140 145 152 154 150 146 141
  80  92  99  97  60  46  48  45  61  71  55  50  51  39  39  42  31  27  35  34  46  46  82 106 107 141 155 161 149 132 100  53  37  33  41  37  40  65  81 103 128 142 155 160 158 164 154 153 142 154
  77  48  35  67  34  38  39  35  28  26  19  23  19  20   9  28  32  30  28  30  57  68  72 103 135 157 166 169 160 143  83  50  35  32  31  23  25  16  13  13  22  26  50  79 106  96 130 148 147 148
  59  47  27  18  12  10  19  13   4   6   2   3   7  71  20  17  29  30  30  31  50  73  95 107 132 161 174 173 155 143 113  39  41  35  24  33  36   6  11   1   4  10  14  25  13  25  65 124 118 150
  47  32  22  21  11  16  36  35  10   6   3   3  29  28  15  10   8  57  28  34  54  64 108 113 142 160 174 174 159 144 100  63  87  29  22  33  78  21   7   2  11  16  48  98  20  17  30  61  95 148
  63  38  41  21  31  27  28  31  25  24  21  28  33  34  45  31  26  37  29  47  39  95 106 124 135 154 172 172 161 144 101  90  53  36  40  36  36  39  23  15  20  36  80  80 116  99  45  90 140 157
  93  68  62  45  43  35  33  35  28  28  37  29  34  30  34  42  33  36  46  45  59  82 119 124 132 140 170 170 165 152 119 106 109  84  68  38  33  26  37  48  60  69  85  74  81  95  97 121 142 151
 110  87  97  76  96  95  83  77  66  43  39  35  33  43  44  34  45  48  55  65  71  94 112 137 128 149 168 169 157 152 141 122 113  99  99  65  58  46  38  64  98 121 141 156 159 158 145 153 158 158
 100 106  98  98  91  86  83  86  73  68  60  87  70  52  49  62  53  81  55  77  89  99 120 133 131 150 165 167 170 157 151 134 134 114 115 101 111  75  92 109 137 109 138 130 141 148 156 161 161 160
 112 118 135 131 114 116 113 107 113  89  91  83  77  55  73  76  79  65  88  76 111  90 106 124 132 141 165 171 167 165 156 166 158 158 151 129 124 132 119 112 109 112 131 133 159 159 163 170 166 167
 127 125 118 137 140 127 128 124 114  97  69  67  53  94 101 104  92  90 102 105 102 108 112 110 140 143 158 176 169 172 167 165 166 158 158 154 139 125 126 122 130 122 141 143 154 167 162 162 163 165
 127 124 128 137 137 131 128 122  86  93  93  75 107 111 107 100  87  84 105  99 104  98 115 112 116 138 153 166 167 171 171 168 171 161 163 170 157 148 140 136 132 140 137 145 145 159 162 161 169 167
 133 127 137 141 133 135 124 101 113  98  88 128 109 114 109  84  88  86 114 106  85  96 112 116 132 146 152 162 166 161 170 174 166 169 162 159 158 143 151 145 141 142 140 151 154 155 165 165 166 174
 111 137 133 137 136 130 123 125 113 106 127 124 113  87  86  87  85 100 112  96 111  98 105 125 139 141 155 160 164 163 161 169 172 165 161 158 155 158 165 160 149 155 150 151 150 155 155 165 176 178
 120 121 129 118 131 123 126 122 113 125 116 104 119  93  96  89  84  89  81  73  95  90 100 117 120 133 146 156 155 150 154 156 169 166 162 155 148 156 165 157 161 162 156 152 159 155 171 153 178 181
 121 119 128 132 131 128 124  99 122 137 123 122 103 100  85  75  67  37  54  96  95 114 108 125 124 131 146 149 147 152 153 153 150 157 148 154 144 155 159 163 166 163 158 158 166 168 177 172 179 181
 106 102 119 127 130 119 140 135 130 133 132 121 111  85  72  49  49  60  60 105 108 105 132 125 130 145 151 157 162 155 141 131 131 133 103 156 152 153 164 162 168 166 162 156 165 171 174 178 179 177
 103  85 127 132 114 131 123 124 133 124 113 104  99  65  35  46  74  88  97 115 118 123 127 133 142 148 156 167 168 170 158 149 141 131  81 118 135 152 163 160 165 172 170 172 165 174 176 174 178 172
  70 102 107 122 132 115 118 127 125 132 125 100  71  31  32  70 119 122 116 105 126 118 141 145 142 159 171 178 178 177 172 165 166 162 135  71 116 115 147 161 170 169 173 170 171 177 178 176 175 174
  96  89 100  90 114 143 123 131 126 124 106  65  61  35  33  98 114 121 112 119 117 128 145 142 145 152 174 180 179 177 175 178 177 174 147  70 103 128 135 161 169 164 174 174 169 175 177 177 178 176
 102 109 102  99 115 133 114 120 117 105 110  81  46  32  57 131 111 118 104  75 107 106 110 134 139 142 158 166 162 164 154 163 173 178 165  78  70 119 141 157 161 174 171 174 174 174 178 173 179 175
  85 107  95 103 124 129 121 122 125 115  95  61  49  43  41 108 100  66  19  12  29  80  86 119 119 142 152 155 116  36  31  88 154 166 162 112  90 104 124 149 143 158 170 174 175 173 176 170 177 172
  69 106 114 126 113 123 124 117 131 101 112  90  60  48  42  62  75  29  26  20  20  41  63 105 104 116 133 145  63  26  25  25 116 155 139 118 115 102 126 135 147 154 171 169 176 178 176 175 175 170
  89 103 115 108 122 120 124 122 125 114 118  91  80  81  70  39  38  29  35  43  37  36  43  75  78  76 106 118 148 148  96  49  70 105 133 150 140 107 116 132 132 155 164 166 170 171 171 163 169 166
 113  86  88 105 101 121 126 115 120 120  91  94 112  88  92  70  48  47  32  42  55  59  86  91  80  83  90 120 136 135 106  89 112 131 142 155 160 149 109 121 127 149 158 157 165 165 170 167 166 164
  92  78  96  74 112  93 105 110 129 111 108  99 101  75  82  68  62  46  44  48  61  64 101 109 101  65  96  98 133 128 122 126 131 136 151 154 157 155 152 128 141 142 159 166 170 165 167 159 168 165
  94  78  79  85  91  95 113 105 107 108 110 104  92  89  77  67  50  56  59  66  76  87  77  92  63  64  84  84 132 130 126 135 137 139 159 152 162 165 162 151 146 150 152 157 168 170 163 154 163 162
  89  91  67  64  72  83 107  90 131  85  87  85  83  85  60  66  54  62  71  61  58  67  69  91  77  82  69  90 113 131 130 127 147 146 150 152 158 165 168 164 149 153 159 157 165 162 150 111 155 164
  58  86  87  59  84  93 117  97 103  96 108  77  74  69  62  76  74  59  46  62  60  57  97  93  66  70  66 114 109 132 129 132 136 150 119 158 160 162 173 165 159 162 159 164 154 152 153 151 155 165
  69  57  65  71  84  92  94 105  87  90  83  66  59  74  65  58  64  75  66  50  53  63  71  82  60  48  53  70  83 112 125 126 127 141 138 158 164 166 165 166 166 166 154 168 164 161 161 163 163 169
  90  86  77  72  86  91 103  98  67  83  73  49  56  57  72  80  86  75  61  60  51  44  63  44  46  36  40  54 101 104 125 139 139 151 143 155 156 160 151 162 169 164 157 168 166 158 160 168 164 169
 107  82  64  77  41  87  94  89  63  58  68  44  70  88  72  67  64  65  55  58  92  62  66  66  66  71  93  82 117 123 132 135 139 147 147 161 157 135 141 162 165 168 167 167 165 165 148 170 171 169
  74  91  68  76  89  87  55  68  54  49  40  59  71  83  90  79  63  59  47  48  49  52  54  44  96  74  97  82  82  81 102 116 141 149 157 161 157 150 143 158 158 162 165 165 170 170 163 165 170 167
 109  95  80  82  78  83  81  63  70  67  48  46  62  66  65  48  40  34  33  44  37  52  41  36  67  80  53  73 107 112  98  80  66 120 143 143 153 155 147 125 147 157 168 164 167 170 165 168 174 169
 115  84 113  93  91 102  89  72  82  82  62  41  39  43  41  31  33  33  43  28  62  62  50  45  66  93  55  90 135 104  92  69  69  69  70 103  92 102 111 131 140 137 162 172 165 168 167 172 170 168
 115  79  97 110 105 106  88  65  67  78  50  34  25  28  24  28  34  32  70  99  95 103  68  50  56  66  85  65 158 131 159 119  29  65  49  58  39  31  57 106 151 147 154 165 166 170 164 167 170 174
  99  87  91  97  95  77 109  84  95  69  44  26  31  18  10  21  37  10 101 153 126 168 172 161 164 137 167 180 185 162 182 178  18  70  43  34  10  47  76  96 136 148 158 162 174 164 164 170 162 171
 102 105  83  81  61  95  94 107  65  62  46  45  35  35  17  22  21  26  21  49   6 154 163 161 169 172 174 174 179  74 131  95  25  35  60  45  75 110  96 102 110 156 154 158 160 163 163 170 172 170
  79  85  97  69  88  66  91  82  72  63  48  45  45  36  30  29  33  28  31  28  28  34  65  79 108  78  83  79  50  53  37  42  50  98  97  87 130 127 114 134 111 148 152 152 150 163 163 167 169 176
 120  89 103 101  83  68  86  84  73  63  60  40  46  43  49  28  41  49  36  45  40  33  42  43  41  45  45  38  41  39  51  86 136 147 111 146 152 142 139 137 134 152 150 152 149 161 160 162 165 195
 180  88  76  72  60  72  70  77  66  59  65  55  47  54  39  40  34  57  53  46  49  47  57  46  74  53  59  53  72  78 121 150 148 122 131 152 154 149 155 137 150 147 158 153 156 161 163 162 178 207
 181 127  68  79  54  80  49  59  56  64  75  68  59  56  58  39  40  39  51  59  67  63  80  73  92 103  74 111 108 100 153 139 138 132 147 148 152 155 158 150 148 152 145 145 149 152 154 163 195 208
 181 176  73  65  53  54  53  57  59  57  82  79  62  78  70  60  41  37  33  43  39  62  75  82  91  96  82  96  97 131 125 123 131 132 150 153 161 149 150 155 154 153 156 151 145 148 153 184 197 204
 177 177  68  60  77  65  49  63  63  63  69  60  67  46  67  66  46  39  31  28  41  48  53  68  63  78  88  91  86 116 116  92 127 144 145 150 151 159 154 147 149 145 137 138 157 159 155 192 204 198
