P2
50 50
255
  69  81  28  21  24  22  20  18  20  17  16  14  17  16  19  20  37  58  72  95 113 119 115 117 126 118 116 112  75  69  89 114  50  23  20  21  25  28  36  53  22  32  58  36  43  58  34 104 134  27
  80  41  23  20  21  18  18  20  20  22  16  14  18  18  17  19  25  22  32  73 115 106 114  92 124 119 126 104  95 100 109  76  39  29  24  39  40  50  53  27  23  25  29  32  29  22  34  32 120 104
  53  26  17  18  16  20  27  22  28  33  26  23  23  24  20  31  24  29  26  37  91  90  74  89  99 111 108  91  91  82  97  33  73  49  50  77  42  39  82  74  81 100  79  56  40  32  35  24  43 121
  25  19  17  22  25  36  64  58  84  84  79  69  34  30  33  27  37  24  31  33  56  75  92  92 105 118  82  80  90  96  89  57  70  63  72  83  66 100 105 117 116 118 116 104 130 127 116  62  23 102
  24  22  55  74  76  86  88 110 118 110 113  94  87  64  36  45  31  28  32  23  69  58  85  90  92 121 111 113 109  90  91  86  89  87  61  42  75  91  99 117 112 123 132 144 145 134 138 134  48  38
  47  56  41  72  89  96 113 104 108 115 109 104  97  97  62  35  35  44  40  33  31  41  81  76 106 124 126 140 127 125 125 110  96  54  43  63  66  71  83  89 104 124 137 140 145 147 147 129 131  39
  56  62  74  69  91 106  99 101  36  23  22  38 113 108  91  56  43  39  40  42  38  70  76  72 108 126 134 142 141 128 111  95  91  74  50  60  59  56  32  28  99 109 109 134 146 149 155 150 125 115
  49  68 101  98 101  50  18  25  22  20  19  22  42  24  42  77  51  45  34  32  57  73  73  89 114 131 140 144 144 140 123  86  91  45  39  33  20  14  13  13  16  22  15  60 135 148 143 154 150 132
  85  73 100  99  25  27  13  16   5   5   4   6  10  17  19  30  39  55  36  37  46  48  70 101 109 130 135 145 141 138 126  96  65  39  23  21  53   8   8  10  11  10  22  20  28 124 145 146 152 153
  95  97  89  26  28  14  21  11  12  11  11  28  20 125  23  14  32  38  30  31  47  65  71 105 117 122 138 141 141 122 121  67  32  19  38  91 117  18  22  55  88  58 110  20  19  37 143 150 150 156
  81  78  52  26  14  20  87  54  16  17   2  26 172 155  50  18  13  23  26  29  46  72  93 102 110 121 140 141 139 116  80  37  86  27  92 126 145  26  15  10  15  92 164 102  15  24  49 140 152 159
  77  65  33  15  14  32 125 142  30  19  11  32  36  26  22  20  15  25  25  38  56  83 101 107 115 124 134 140 139 120  90  67  22  20  23  27  25  27  22  23  36 144 166 131  60  20  82 122 152 158
  82  44  20  17  16  20  22  25  29  36  30  37  39  33  39  38  25  28  33  54  72  94  93 105 119 126 129 130 140 134 115  79  80  54  63  48  34  49  65  71  93  78  94 102  89  33  52 123 149 158
  84  28  25  35  36  32  35  78  83  65  50  54  34  28  28  28  43  57  49  83  62  60  62 103 113 112 113 127 131 132 132 127  98  86  75  59  74  65 100  96 120 139 144 138 122 100  82 110 150 160
  85  42  38  46  71  73  80  85  59  77  63  54  48  41  28  60  51  77  87  77  85  59  64 114 119 129 132 126 117 125 142 134 124 123 104  76  79  76  97  99 121 126 139 130 134 131 125 128 128 153
  64  90  89  88  90  87  87  89  85  84  72  46  50  44  81  91  70  62  87  79  52  75 103 120 137 125 140 149 147 130 125 142 137 127 124 124  99  95 100 104 119 110 117 122 134 140 140 145 137 133
 103 107 116 112 112 109 100  95  87  76  58  46  71  81  67  78  84  90  83  73  84 119 128 129 136 135 144 148 156 157 138 132 141 120 133 125 127 109 110  98 105 112 119 118 125 141 140 147 145 142
 107 122 118 117 114  98  94  88  88  71  97  92  81  84  89  78  82  75  76 112 117 115 133 133 131 142 149 159 163 162 153 137 130 139 129 122 124 125 125 127 114 110 117 121 121 136 134 135 142 148
 112 118 116 108 114 104 110  84 108 110  98 104  82  79  80  92  54 119 125 126 122 122 128 127 140 144 155 163 166 165 164 157 156 139 129 128 118 134 132 134 140 125 125 124 126 137 135 143 145 150
 117 118 114 121 126 117 107 103 111 112 107  99  88  78  79  67 115 125 135 123 108 105 100 117 135 127 139 151 147 151 149 157 164 162 137 117 119 129 129 133 139 137 142 135 139 143 142 136 145 150
 114 122 114 115 112 126 124 122 114 109 116  99 102  73  57  96 126 137 111  30  18  29  69  99 120 124 133 137 122  63  47 108 147 164 164 119 125 122 130 138 143 143 143 135 147 141 147 145 155 148
 115 118 108  98 118 119 120 124 125 109 119 107  89  57  35 110 131 127  25   0   1   1   4  65 102 111 115  59   0   3   2   5 105 153 164 111 109 132 127 127 138 142 146 143 141 143 143 146 146 152
 112 117 118 115 119 117 123 123 119 128 120 118  94  48  34 106 123 118  10   2   3   5  23  22  71  97 122 114  35   4   2   8  25 132 153 136 101 132 122 138 142 141 138 144 143 144 149 148 148 148
 100 100 115 107 116 122 122 124 129 125 129 123 107  52  35  99 119 120  21  12   4  26  56  54  45  55 100 120 142  26  16  18  35 122 147 120 109 117 128 135 141 145 146 149 147 144 150 144 153 152
  93 100 102 104 113 123 121 132 136 138 128 119 119  53  33  42  74  89 106  22  27  43  45  86  92  75  94  86  96 111 100  78  71  98 122 100 107  93 118 137 131 138 149 149 150 152 152 149 157 160
 109 113 109 117 116 125 125 122 133 130 140 138 111  91  66  28  28  40  45  35  39  47  65  71  93  51  47  76  83  87  78 100  68  48 105 119 116 112 128 125 135 138 149 147 153 157 157 155 159 161
  99 111 107 119 118 119 126 123 134 138 143 131 105  80  68  65  37  46  31  38  34  54  63  65  76  73  55  73  76  90 106 101 105  99 114 119 122 130 115 119 136 141 142 153 152 155 156 151 161 162
  83 107 112 104 122 118 125 132 132 137 130 110  84  87  80  56  59  54  44  48  54  42  55  63  70  66  44  56  57  92 110 111 114 116 120 126 133 134 125 120 133 133 141 148 150 155 161 159 162 160
 104  89 104  95 107 120 108 123 132 126 106 101  92  82  60  46  44  43  55  48  49  50  43  35  52  56  43  25  51  75  95  98 117 124 127 133 128 137 135 118 122 144 148 154 154 157 159 162 160 163
  93 102  97 100 115 112 115 113 120 104 100  97  82  71  46  50  45  59  45  39  35  57  57  73  50  87  97 103 105 114 104 103 112 111 121 114 131 141 147 143 134 140 145 152 153 161 159 160 160 159
  93  84  91 102 104 109 111 109 109 100 105  81  70  66  81  56  70  67  60  70  44  47  47  34  31  86  74  86  69  89  90  99 118 118 118 124 130 138 142 149 139 141 141 153 152 160 162 161 157 156
  94  96  51  82  94  98 115 105 112  96  92  88  68  48  66  63  74  77  73  40  51  41  60  52  38  88  60  70  84  96  99  81 100 126 138 135 128 138 147 143 150 147 149 152 148 156 157 160 146 154
  95  90  79  73  70 100 102  92  94  75  60  64  72  68  95  75  61  38  37  37  63  78  62  42  49  87 123  73  97 119 123 115  95  95 131 145 147 144 132 143 154 151 148 147 153 157 156 148 136 150
  79  91  82  77 103  94 103 115 102  77  66  71  70  80  73  74  49  33  43  70  48  47  47  57  48  48  97  92  77 113  92 111 111  91  81 114 138 148 141 128 148 155 148 151 155 159 160 158 149 145
  62  88  84  61 101  84 104  92  80  71  50  44  80  80  77  35  30  42  55  31  25  33  32  37  33  35  46  68  51  68  47  65  36  77  78  82 130 142 142 136 144 156 152 156 159 157 152 157 160 151
  45  62  70  87  82 101 101  79  69  43  41  54  51  81  43  29  44  61  27  41  75  47 114 102  97  67  87  96 134 156  94  46  48  33  72 105  91 124 143 146 147 146 153 159 156 159 159 153 159 159
  49  58  77  57  76  99  95  62  79  46  53  59  49  35  27  28  46  39  37 124 158 146 164 166 166 166 163 172 181 189 146 171 161  34  28  66 100  84 104 130 143 112 145 155 160 159 160 154 158 159
  82  89  78  89  92  96  90  82  81  77  67  56  34  26  24  25  34  33  54 151 164  13 168 166 165 174 168 171 178 182 157 185 172 108  88  48  58  52  43  74 113 151 133 137 156 158 161 163 159 158
 108  87  72  78  89  99  94  91  81  80  67  37  27  23  19  21  27 126  13   6   8  13  11  27  29  12   2  18  16  17  21  37  58  12 116 152  29  29  21  90 104 137 139 152 160 161 161 162 162 160
  82  92  87  78  98  90  95  75  88  91  71  34  32  20  11  10  20  30  27  28  46  37  45  38  46  71  80  50  45  65  51  76  90  97  91  43  22  19  19 105 118 131 152 156 158 159 159 160 164 160
  78  98 104  97 104  91 100  85  87  83  49  43  40  28  17  19  22  34  37  47  54  45  41  77  71  99  96  89  78  91 107 108 126 133 125 105  69  45 100 108 123 140 139 157 156 159 161 162 159 158
 107  97  89 105  75  96 106  95  91  60  47  45  33  24  36  38  31  34  31  40  40  61  68  90  98 102 105  64 109 114 118 129 117 125 116 111 120 127 133 129 122 134 144 156 157 160 159 160 158 162
 108  99  74 100  95  89  94  87  91  74  51  58  48  56  41  43  50  32  28  27  29  40  39  62  79  63  73  92  93  93  92 111 116 114 134 139 135 140 138 136 132 138 141 155 157 159 152 151 161 162
 113 102  84  97  85  84  91  93  99  76  54  68  50  57  58  62  49  41  59  49  44  40  42  50  39  51  55  47  95  83  99 116 126 129 137 136 142 143 144 148 143 141 144 153 151 149 154 158 157 160
  93 105  94  86  76  96  91 107  90  91  81  80  69  66  65  74  43  40  37  31  56  46  45  45  42  71  82  71  84  81  81 100 118 133 135 144 149 147 148 151 151 147 145 153 151 154 153 160 159 160
 100 101  94  90  86  81  86  99  85  82  93  83  81  86  49  81  69  62  62  50  35  31  37  42  46  51  66  76  67  77  91  91 120 129 146 145 147 152 149 153 148 149 151 148 158 151 153 160 160 158
 104  95 102  96  72  72  93  85  63  94  75  86  62  76  89  88  72  54  68  52  53  47  55  57  69  65  64  66  56  98 103 115 122 134 140 146 150 147 151 150 149 152 156 157 158 144 159 158 161 156
 105  82  87  85  91  94  81  80  85  75  73  78  45  67  62  83  64  76  75  60  71  65  69  69  57  84  79  79  97  89 105 115 113 135 130 143 150 148 148 156 151 148 146 152 152 148 154 158 160 157
 121  92 102  98  95  87  81  82  81  77  70  74  40  73  67  74  78  83  77  73  73  62  69  74  80  89  99  80  95  88 108 108 126 126 141 141 147 144 147 143 150 151 153 152 151 155 158 152 156 160
 106  91  98  93  74  75  80  74  58  75  79  91  74  87  68  74  64  78  68  54  69  57  58  66  72  82  66  93  35  99  95 105 124 131 131 129 142 142 151 150 149 152 148 157 147 150 152 151 160 154
