P2
50 50
255
  43  36  31  36  33  33  31  34  27  33  29  32  36  57  88 111 112 115 124 118 130 120 121 134 127 131 138 138 125 120 114 135 141 135 138 130 136 122 101  58  59  43  48  65  60  64  50  82  87 134
  25  31  30  31  31  25  29  21  27  26  27  30  23  33  36  65 103  95 104 116 106 115 102 110 110 113 130 126 124 103  99  95 109 101  82  65  48  36  38  38  36  39  40  64  68  58  56  47  77 129
  31  27  35  29  24  29  33  28  29  25  16  24  23  19  29  31  39  42  52  81  96 110 106 110 106 125 126 117 122 110  88  86 104  65  50  34  29  31  30  39  38  35  36  72  43  48  48  64  36  39
  39  33  31  34  39  37  56  69  37  44  35  29  31  31  27  26  33  32  35  57  80  95  90  92 100 100 115 105 116  90 109  67  77  40  47  37  33  39  38  39  41  41  76  75  47  61 136 122  84  53
  47  52  53  60  59  89  98  69  93  91  67  50  39  38  39  35  32  33  38  39  51  71  79  69  86 108 116  97  80  98  63  82  38  51  45  44  51  51  69  72 102 107 112 111 125 132 131 137 139  73
  79  55  77  97 102  96 115 120 113 116 111  90  77  48  34  37  39  39  36  51  44  70  74 107 115 112 123  99  81  63  79  60  67  70  54  50  52  64  82  96 121 130 127 133 137 133 127 113 133 122
  70  84  97 100 121 113 115 126 119 125 129 124 113  96  55  40  36  36  39  37  43  58  62  81 105 118 134 113 114  95  84  82  86  64  48  63  69  78  86  93 118 130 135 139 141 144 140 139 130 131
  87  94  89  93  99  86  55  45  51  50  54  57  32  39  73  47  39  33  44  45  54  56  73  91  79 112 136 133 140 112 105  81  81  50  48  57  51  51  39  39  73  95 136 143 137 145 146 134 136 145
  87  85  72  35  40  43  35  28  19   9  15   1  15  32  34  60  52  37  38  50  51  81  67  94 111 132 146 146 148 127 106  88  51  43  55  31  33  16  13   6  19  15   8  15  61 137 143 146 149 145
  53  34  41  37  24  24  42  17  28   6  46  28  31  91  18  33  53  49  39  43  53  76  76  99 114 128 147 149 149 132 100  70  55  58  55 106 125  29  25  22  37  43 120  31  16  44 117 138 145 147
  41  38  23  22  45  97 130  22  18   1   9  14 123 104  39  20  63  48  38  43  52  71  87 101 107 133 145 148 149 136 119  67  72  48  90 126 137  20   7  11  21  29 155 122  26  32  94 136 146 154
  25  25  27  44 102 129 138 108  20   9   4  37 129  44  35  29  15  52  38  43  59  68 110 117 120 129 136 147 154 127 106  76  76  72  40  73 116 131  24  20  23 134 151  65  51  59  54 135 150 157
  38  42  38  38  36  56  56  53  54  37  39  51  53  98  57  36  37  44  39  51  53  82  94 101 113 115 134 146 147 128 115  99  64  50  63  51  51  63  46  64  69  71  89 118 121 110 131 131 152 155
  56  48  48  44  41  51  62  41  44  43  52  61  66  57  67  65  42  54  47  44  59  71  83 101 124 126 131 145 145 137 123 104 107 106  81  71  52  78  71  94 117 103 112 126 132 116 126 134 147 155
  66  61  61  64  70  60  84  90  86  74  62  63  72  63  67  42  52  54  53  63  64  76 102  97 125 130 133 139 139 144 135 127 114 102  95  96  90  60 107 109 127 143 145 146 145 144 144 146 145 150
  86  85  92  92  95  99 103  93  85  97  78  92  82  81  55  50  73  77  78  59  85  80  98 115 129 114 109 138 149 149 140 139 124 126 116 104 106  94 115 117 130 140 148 143 143 143 145 149 146 150
  96 108 102  80  98 107 110 111 102  95  99  94  83  60  55  84  76  82  86  83  89  89  98 102 112 123 125 129 145 145 150 144 136 134 135 127 113 119 127 123 132 129 140 144 152 150 150 148 145 148
 111 114 115 119 124 109 115 111 114 115  96  85  68  72  92 111  94  85  80  95  97  93  89 101 109 113 124 129 145 147 147 149 145 144 145 138 137 127 129 132 133 136 139 139 144 148 149 153 153 151
 114 119 126 127 116 121 124 112 113 105  98  85 108 109 106 105  97  74  89  92 104 107  93  94 117 115 127 135 142 140 145 149 150 145 142 146 147 139 136 124 126 129 134 144 143 152 147 149 152 151
 109 127 121 125 128 129 119 117 104 101  77 108 108 118 111  96  98  86  90  96 104  99  71  81 109 118 106 123 141 143 135 145 154 147 149 146 145 141 142 139 139 133 134 137 140 142 145 149 153 155
 126 126 123 125 124 120 119 113 111 120 111 120 122 113 104  97  89  88  89  84  77  80  77  89 111 117 124 129 134 142 138 139 137 148 144 142 145 145 143 145 145 137 138 144 143 146 145 145 155 155
 125 127 130 133 130 127 128 118 127 118 127 119 110 114 102  97  88  83  75  69  65  82  66 100  98 120 121 123 136 141 137 138 141 146 152 145 145 140 149 147 148 147 140 143 146 145 155 147 157 158
 127 127 121 126 121 129 126 117 124 125 126 128 124 111 100  85  92  71  44  49  60  74  95 103 114 116 124 135 136 145 149 146 136 131 149 152 147 146 144 143 146 150 149 145 147 150 153 154 158 160
 114 127 112 120 121 125 124 121 121 124 129 123 112 110  84  77  55  45  57  73 104  94 111 114 120 127 127 136 143 153 153 151 153 137 138 135 147 143 145 150 151 145 148 147 151 151 154 157 156 158
 107 103 114 121 124 120 125 123 127 126 124 124 115 107  75  49  43  68  85 105 115 109 115 127 124 131 138 141 149 155 159 157 157 151 149 131 127 143 148 154 152 150 153 150 154 152 156 151 156 153
 115 109 125 113 118 123 123 127 126 123 132 122 115  94  51  43  53 104 111 129 124 117 115 110 131 132 135 144 148 160 160 158 154 156 160 154 113 130 136 148 149 154 154 155 151 154 157 158 156 154
  82 114 116 123 123 126 118 119 125 124 125 130 105  59  43  37  83 104 121 134 113 120 102 105 119 128 123 132 144 146 153 152 144 147 155 156 126 103 139 145 153 153 151 154 155 157 155 156 159 157
  99 107 110 115 114 128 121 126 126 131 127 113  99  50  44  43 105 112 121 114  52   6  45  79  86 102 121 102 130 137 137 103  22 101 135 154 131 101 121 143 151 154 155 156 156 154 155 156 157 156
 102 108 104 101 121 120 117 130 128 123 129 121  94  60  42  36  76 106 120  44   1   0   8  28  42  88 104 114 121 127  21  24  23  40 109 141 133 122 115 139 143 146 154 158 155 158 156 156 153 155
  92 102 111 108 109 113 129 131 128 116 133 129 109  85  60  42  56  81  88  43  36  23  37  50  59  60  92  92 104 124 118  55  60  58 101 132 127 134 125 127 140 146 154 156 154 158 154 155 156 153
  59  96 107 111 110 117 118 127 126 130 135 137 120  96  70  55  37  57  57  57  51  51  62  73  79  81  56 111 127 132 140 129  80  79  95 125 138 140 135 126 138 139 149 155 153 154 156 155 154 154
  99  83 113 106  93 105 116 127 125 124 137 134 111  97  89  92  66  59  41  38  42  52  64  80  96 116 125  85 116 127 113 118 101 107 125 135 138 142 141 128 125 140 146 154 137 153 154 153 146 152
  96  90  95 107 102 114 120 127 129 128 134 109 104  91  93  90  81  64  54  51  54  56  64  69 100 117 107  84  94  98 115 123 123 126 127 136 140 143 143 143 135 144 146 152 154 154 148 152 152 151
  78  83  94  97 107 109 101 118 103 121 131 117 105  96  83  77  71  73  63  66  59  72  77  75  68 103  92  97  94  95 124 125 122 122 130 139 137 139 145 145 147 148 145 148 152 151 153 146 148 150
  89  84  89 108  94 114 117 106 112 122 116 104 108  88  80  75  64  52  64  70  73  52  63  69  69  87 121  82  85  82 114 128 128 129 134 128 140 142 150 150 150 148 147 153 148 152 149 139 147 148
  80  91  82  73  80  96 103 105 116 119 108  94 104  96  85  64  80  55  65  70  66  65  67  68  74  89  92  64  80  86  98 105 117 126 131 136 123 139 147 149 151 150 152 153 151 147 144 138 142 145
  90  76  57  57  84  80 107 119 112 104  97 106  97  69  80  71  71  64  71  66  63  62  75  65  63  69  87  70  56  57  82 101 124 124 127 134 126 145 147 149 152 152 150 146 150 151 144 144 143 146
  83  74  68  81  81 110  90  95 108  98 104  92  65  79  66  71  70  82  76  72  56  54  58  48  64  57  54  38  52  66 109 111 114 114 133 134 136 133 145 145 153 151 150 149 150 146 151 150 153 142
  53  69  81  78  97  78  97 113 112  91  86  81  65  62  72  85  66  64  77  64  56  57  66  72  79  79  82 112 113 118 109 101 102 131 131 142 138 142 143 134 139 148 150 149 153 152 148 145 153 151
  46  89  77  75  88  94  98 110 104  79  79  84  61  57  62  84  74  69  68  63  62  50  56  52  47  56  47  91  95  99  89 103  88  94 121 136 139 145 140 135 133 149 150 151 147 149 152 153 152 147
  68  74  69  69  61  93  96 105  85  72  64  56  55  74  69  72  81  75  67  51  44  44  45  46  79  51  46  89 102  84 105 117 106 113  85  93 116 135 139 139 137 135 142 148 152 149 150 151 153 154
 101  67  75  75  84  94 106  85  81  73  63  59  56  65  74  82  72  43  40  43  51  41  52  67  63  56  63  83 116  92 103 125 105  96 101  70  87 108 126 130 128 125 135 150 151 152 153 152 154 150
  78  48  58  54  96  92 106  77  81  84  70  54  43  55  54  54  46  39  42  39  46  44  45  40  37  51  65  68  86  83  80 100 124  82  47  69  68  76  93  67 109 133 138 148 151 153 146 153 151 153
  85  87  73  77  83 103  99  86  99  88  75  78  44  38  38  33  35  42  47  46 118 137 138 149 155 145 150 124 169 171 179 158 168 156  68  39  41  72  34  72  95 130 131 151 148 154 150 151 150 150
  82  87  97  78  78  97  93  88  84  92  58  63  39  35  29  28  36  40  84   7 133 151  48 157 158 158 160 153 164 165 174 130 161 153  29  37  35  33  37  99 101 129 137 145 144 148 143 152 151 157
  91  76  85  73  72  74 104 110  89  96 101  63  41  43  27  14  21  33  34  25  47  40  37  85 149 152 148  64 157 147 107  48  65  54  35  75  92  60 105 106 115 124 138 147 142 145 146 152 151 175
  97  78  72  74  79  76  79  87  77  92  77  62  54  52  45  33  32  38  41  36  39  37  40  48  52  63  61  73  68  61  47  46  51  70  88 132 100 128 130 129 128 131 139 141 138 138 149 149 149 182
  86  92  73  65  75  84  90  90 101  96  69  56  51  51  48  57  39  36  43  52  39  44  52  56  58  56  49  70  49  65  69  86  89 126 127 133 119 135 136 134 130 133 143 140 143 145 145 148 158 186
  84  72  75  73  68  87  87  98 100  91  74  53  64  52  55  45  51  39  41  51  57  69  68  66  63  88  79  97  67  97 109  93 122 139 130 129 135 137 138 138 134 134 138 146 137 145 145 146 178 193
  76  87  75  75  72  75  71  69  75  80  67  94  68  72  62  54  49  51  43  42  50  59  60  70  86  97 108 122  87 113 123 127 132 119 129 125 133 139 143 145 138 135 138 138 134 143 139 154 186 185
