P2
50 50
255
  84  65  38  38  32  40  31  25  32  28  27  33  35  66  86 118 117 111 120 118 116 117 110 125 118 122 124 123 121 126 122 134 123 119 128 122 121 129  84  58  48  35  52  89  90  89  41  72  97 141
  68  46  33  27  30  26  25  23  21  19  20  19  21  28  37  63 113 108 118  98 111 123 116 119 123 134 127 121 106  97 109 120 109  82  70  56  31  25  30  27  28  29  34  52  52  33  47  33  59  99
  51  35  19  21  24  23  20  23  20  23  20  21  18  12  23  26  39  56  61  81 104 104  94 116 119 110 115 116  90  94  80  38 101  63  33  22  25  26  27  43  30  29  32  47  49  52  32  41  25  49
  32  23  20  22  21  22  21  24  28  28  23  23  21  19  20  24  26  23  27  56  75  81  83  97 110 122  95  97  98  76  90  89  45  28  30  32  35  34  46  30  53  51  72 103  88  47  94  90  48  29
  26  26  26  26  31  35  47  61  71  66  58  34  27  26  29  27  26  27  25  30  51  78  81  85  82 115 102  80  88  83  84  78  40  41  37  49  53  41  71 101  85 112 121 126 126 143 133 140 137  58
  38  30  35  47  61  74  93  99 116 108  81  72  50  32  35  30  29  29  26  28  37  51  61  83 101 109 108  75  58  61  69  52  51  65  66  48  61  42  79  84 116 122 126 138 144 140 146 132 122 138
  47  51  45  61  82  92  98 102  98  60  84  75  60  51  34  32  31  34  29  36  34  46  59  85  97 112 124 102  73  80  77  64  61  67  42  42  39  49  48  79 104 118 125 136 136 149 147 153 144 130
  62  66  72  97  99  62  37  28  22  15  13  21  23  25  33  30  32  30  28  33  31  36  56  59  72 120 135 130 134 120  97 104  66  50  39  41  34  23  19  13  13  18  19  29  71 117 135 147 153 148
  80  77  87  81  29  17  10  15   5   2   1   6  31  17  24  23  29  35  26  31  35  55  63  74 101 121 135 148 150 136 109  63  62  45  49  26  33  16   4   1   6   6 112  26  17  18  91 138 148 152
  72  97  61  30  22  13  29   7  13  10  11  12  23 138  31  20  24  41  31  30  48  59  85  89 110 130 138 151 154 139 105  64  54  39  26  40  94  15  13  24  24  23 115 150  22  22  25 110 132 150
  84  74  25  29   6  21  86  17  19  21   5  51 170 214 137 136  16  29  31  27  33  56  77  90 109 118 136 150 151 129 119  85  39  48  75  80 128  22  21   4  22  74 147 162 118  17  24  30 122 147
  83  32  29  15  15  23  33  37  19  18   9  18 107 118  44  68  17   7  27  28  29  45  78  84 104 126 128 145 152 132  93  94  63  51  33  53  76  77  20  16  23  31  75  58  41  45  26  48 119 141
  63  39  19  23  30  37  59  40  53  44  51  57  52  73  57  37  30  32  33  30  34  36  67  91 104 113 126 142 138 118 120  87  94  25  32  37  40  56  43  63  70 105 104 117 128 109  86  77  97 145
  37  32  61  60  88  93 103 107 105 104  86  88  71  58  66  49  36  34  33  33  39  46  84 101 113 121 127 138 139 125 120  85  95  89  64  53  54  50  67  86 113 130 148 149 152 151 149 146 119 126
  73  98  66  84  84  80  84  68  67  78  64  58  58  55  49  38  34  50  46  41  47  78  95  94  99 102 123 140 141 138 123 118  85  83  59  48  33  51  47  92 103 109 126 135 142 146 142 143 133 133
  87  72  83 110 105 109  95  82  71  87  60  49  49  41  36  61  83  60  59  53  64  68  69  96  92 111 120 136 136 135 130 128 117 117 103  92  56  45  47  60  68  74  95 122 118 124 133 142 138 138
  95  87  89  68  76  86  83  77  70  71  42  44  33  52  83  76  80  57  75  73  88  90  84 101 104 112 119 130 133 130 134 128 126 130 125 121 109  88  79  72  99  95  99  98 109 108 119 124 136 146
 100  98 113 102 100  97  89  84  53  48  62  74  71  89  81  82  67  68  72  77  99  90  79  90 111 113 125 132 138 132 127 136 119 122 123 124 123 118 113 107  82  83  79  88 102 117 119 126 139 146
 115 109 123 113 113 120 110 107  97  80  82  97 100  99  91  88  75  66  90  97  82  81  98  77 112 120 113 121 138 132 129 128 139 127 124 125 126 118 121 120 103 110 114 108 111 120 122 136 138 152
  92 117 122 109 109 124 112 112 116 117 110 113 106  89  98  71  87  81  69  72  40  78  89  97 115 117 123 138 140 137 135 137 135 143 137 128 126 122 127 132 128 125 123 114 127 133 141 141 144 150
 117 115 109 120 117 120 122 125 121 119 116 128 108 101  97  89  68  53  44  40  64  83  90 110 113 130 120 132 139 147 138 131 116 130 129 140 126 132 133 134 128 127 139 138 125 141 135 146 150 153
 114 108 118 123 115 124 123 123 109 129 130 120 121 100  75  53  47  68  90 105  88 100 121 119 129 128 125 142 150 151 149 132 114 112 122 112 121 129 131 142 136 121 145 141 139 141 138 151 147 147
 107  97 125 122 121 128 124 130 123 129 132 122 115  69  36  44  95 112 109 113 111 119 127 124 134 139 144 149 155 153 154 150 141 143 142 108  83 103 132 136 136 135 140 138 143 144 145 152 147 150
 104 114 111 108 121 121 132 130 130 127 131 108  72  30  32  93 124 122 127 119 115 112 122 131 136 138 141 155 159 160 158 154 156 155 155 142  64  86 116 124 132 138 145 145 146 147 150 150 151 156
 116 121 112 105 118 123 120 139 128 128 125  97  37  29  31 101 109 119 104  95  97  87 111 125 130 133 138 149 156 155 151 151 153 157 158 155 117  74  82 102 122 133 142 148 153 152 152 151 157 156
 102 118 117 124 120 118 139 137 135 120 108  70  34  47  32  88 108 100  28  18  25  50 104 103 114 109 129 134 140 138 123  75  90 131 152 153 121  82  74  84  91 116 132 144 149 152 157 156 158 160
  89 103 110 125 126 126 134 128 128 118 100  53  55  54  43  42  51  38  20  18  10  16  41  77 106 109 111 120 123  45  35  22  26  64 120 136 135 129  83  77  88 109 118 131 141 149 157 160 160 161
 119 118 105 129 114 128 135 123 128 122  90  52  77  77  50  46  34  27  33  29  25  24  30  35  70  84  93 116 117 106 105  57  57  50 113 136 143 137 115  70  88 100 102 124 142 150 155 157 158 156
  87 117 118 118 122 129 124 126 124 101  82  77  99  84  79  52  39  32  37  28  33  30  32  33  41  42  55  57  87 121 109  86 107 125 144 143 141 141 122 100  75 104  93 102 128 132 143 155 153 153
 103 102 116 115 116 119 116 118 114  95  89  84  89  88  79  52  51  47  50  38  34  39  45  62  45  37  45  75  95 104 109 118 123 136 134 146 138 136 139 114 106  86 103 104 127 131 139 149 148 150
 108 103 111 112 115 117 110 107 112 103 113  92  71  84  62  78  45  34  47  40  39  49  50  59  61  78  64  57  69  97 120 112 123 125 142 140 139 143 146 138 129 118  83 106 116 120 136 141 148 149
  88  83  89  87 105 104 107  98 117  78 110  98  84  78  77  41  41  45  38  43  41  41  49  56  80  53  63  58  79  80 115 114  99 122 132 127 136 141 143 142 143 135 105 109 110 129 136 142 143 136
  83  58  47  69  90 104 103 107  93  60  84  97  68  59  60  40  43  43  39  38  41  36  42  39  55  43  36  30  38  66  88 101 106 101 107 118 135 139 143 141 148 146 142 132 115 128 129 132 129 123
  72  77  64  78  84  95  97 107  56  66  72  57  43  48  55  62  50  42  45  37  39  31  48  38  39  45  45  67  72  94  91 101  88  98 118 104 125 127 141 135 148 149 144 133 129 133 143 137 135 140
  42  67  58  78  82  99 107  90  38  56  45  63  58  58  41  53  41  45  39  35  40  46  57  43  48  40 105 106  92  96  95  92 118 108 111 111 108 129 138 137 136 145 150 150 143 140 143 136 134 139
  38  59  73  63  92 103 101  34  55  59  66  47  48  63  51  44  49  52  53  45  33  41  32  36  43  42  91  88  75  91  88  64  98 109 132 136 135 142 131 115 113 144 149 148 148 143 148 144 135 146
  44  69  76  40  69 108  99  46  76  70  40  53  63  58  68  59  51  36  39  35  34  38  52  41  30  52  97 103  98  84 104  87 101  86  99 112 135 138 141 138 118 129 139 153 149 147 146 153 148 149
  84  99  64  66  85  93 105  51  83  81  61  57  51  61  64  41  39  41  49  43  50  35  38  58  52  43  75  83 102  84  94  64  73  72  75  75  96 128 133 130 139 126 123 144 148 149 152 152 149 152
  86  88  65  64  95  94 105  66  94  79  83  49  50  56  33  34  35  36  33  33  34  30  26  33  57  57  60  57 123 104  73  62  95  35  37  43  54  68  87  84  89 112 135 146 148 155 152 153 154 153
  84  82  95  67  88  88 100  96  80  87  66  45  48  28  25  26  39  42  24  32 113 113  44 118 148 136  78 140 160 161 124 155 164 137 148 145  32  58  64  25  58  97 125 141 147 151 153 154 152 153
  93  96  93  98  97  93 101 104  95  83  69  49  49  53  21  31  33  45  73  61 157 159  89 160 176 166 130 162 200 215 160 169 208 152 161 175  18  32  28  26  83 108 117 128 147 155 154 156 151 154
  95 104  92  75  92  78  94 113 101  90  73  42  37  51  32  22  23  52 125 116 159 164 140 168 186 178 159 189 208 220 208 180 208 172 161 158  37  60  40  81 128 126 116 123 148 153 151 153 151 155
 105 105  83  98  92  76 104 107 101  97  73  47  65  73  53  27  29  47  53  93 138 160 105 168 177 176 165 196 206 210 224 176 183 160 113  61  89 106  77 138 141 133 121 133 146 140 153 151 153 153
 104 104  84  94  76  70  76 101  86  78  69  69  48  57  58  45  31  43  40  63  57 109  23 152 159 160 146 162 164 165 157 115 140  83  41  79 127 127 130 142 146 144 126 136 148 148 141 149 149 155
  98  95  96  96  84  63  75  81 103  90  84  85  64  75  63  42  45  34  33  47  46  36  43  56  96  91  93 105  83  98  77  34  39  56  87 112 135 127 134 142 146 146 128 135 146 145 143 153 148 152
  86 101  78  94  90  87  76  78  95  78  76  78  66  75  66  58  47  40  33  52  46  47  54  48  69  74  58  66  73  66  47  57  50 111 119 132 129 131 144 144 149 146 133 143 148 146 145 148 151 151
  99 105  98  88  97  73  81  51  64  82  94 100  86  70  67  63  51  48  35  34  46  41  56  76  63  75  91  81 116  76  96 103 100 123 131 121 130 137 141 148 140 144 145 144 143 143 147 150 144 150
  94  84  92  94  87  74  72  68  85  78  87  85  81  72  66  66  67  49  40  36  33  33  40  53  71  83  94 107 110  65  75  84 120 117 123 126 123 140 141 147 151 145 142 146 142 144 148 151 150 143
 100  97  95  91  91  57  60  97  65  80  83  94  73  64  72  80  78  75  47  47  34  33  34  36  38  74  80  78  80  78  79  82  83  98 103 108 131 143 138 136 150 149 137 147 142 136 131 144 150 138
 125  96  69 102  82  70  62  77  55  71  79  76  46  45  77  72  66  58  68  53  42  40  34  34  41  40  59  67  68  53  62  69  65  82 113 130 134 137 138 132 132 140 146 147 139 138 139 141 148 147
