P2
50 50
255
  87  80  49  33  27  31  26  20  25  26  23  21  24  35  58 100 111 109 115  90 119 127 124 115 119 128 129 120 114 115 121 128 122 104  94  97 102 103  93  37  29  31  36  50  66  89  39  59  77 136
  87  48  31  23  25  21  22  20  15  21  20  20  19  19  23  38  57  88 108  94 123 116 121 126 118 116 115 123 120  85  94  86 103  72  51  33  25  24  25  31  29  37  29  38  43  35  32  26  69  95
  49  33  18  20  19  17  20  24  21  23  18  17  20  16  17  22  22  28  46  55  96 110  93 103 117 120 107 106 104  86  54  67 101  31  30  28  30  30  30  36  36  29  44  39  59  38  35  27  29  46
  31  22  26  24  27  24  26  30  38  37  28  24  20  25  20  24  24  27  26  36  54  93  70  85 104 108  98  84 115  82 112 104  37  31  27  35  41  36  42  47  58  87  84 109  70  67 118  86  36  25
  26  23  28  49  38  51  77  76 102  96  48  58  38  29  29  25  26  23  30  25  44  76  70  91  95  91 100  88  64  77  65  69  40  50  50  60  64  52  76  97 106 122 124 127 139 144 130 138 128  43
  45  49  47  44  79 116  82 102 119  91 116 102  64  43  37  29  31  35  24  51  51  56  71  70  98 113 112  72  58  68  79  62  62  70  62  40  53  60  69 103 112 117 130 136 143 145 146 134 124 132
  37  55  63  83  75 105  91  95  60  44  37  50  55  54  40  36  33  27  29  33  29  42  46  62  96 107 125 118  95  95  88  97  81  45  50  33  33  48  58  74  91 112 127 136 136 148 145 154 142 130
  57  64  89  98  67  61  22  23  17  16   9  13  19  23  24  38  29  28  30  32  37  49  65  82  87 107 136 137 146 116 107  91  67  49  40  42  30  21   7   2   6  15  18  22  44 114 136 149 153 149
  82  73  79  55  24  15   9  20   2   2   0   1  23  32  23  20  29  35  31  27  40  46  64  78  93 122 137 148 151 142 101  63  59  43  41  25  36  17   3   5   1   8 107  22  20  21  94 134 145 152
  73  82  70  20  23   9  46  17   5   7  13  20  24 146  89  16  23  28  28  26  32  52  79  92 101 125 137 147 153 140 100  76  56  43  27  45 102  13  20  16  22  25 116 154  21  22  25 113 138 152
  87  64  27  29   4  26  70  29  22  21   1  25  80 239 129 158   9  33  31  27  35  49  60  86 103 119 137 147 147 136 105 104  46  35  64  99 131  22  18   4  20  54 142 163 104  18  29  39 124 141
  80  50  28  11  17  19  22  25  23  21  23  20  47  48  34  27  19  15  25  25  35  34  55  83 111 110 123 144 143 130  98  67  67  39  31  28  38  54  17  21  20  33  67  44  61  34  32  51 120 145
  74  36  22  24  33  50  68  76  73  81  64  72  67  61  49  55  45  31  27  28  31  52  63  88 110 114 127 136 136 117 118  65  85  37  43  42  38  40  51  60  84  96 116 119 130  90  69  91  72 147
  36  30  83  82  82  87  95 100  88 100  76  58  75  69  63  40  30  26  37  36  44  56  83 109 109 102 124 139 134 135 104  86  77  83  55  45  47  53  81  88 115 125 144 151 150 151 144 134 114 127
  87  81  91  56  87  91 108  75  91  72  82  69  60  45  34  36  48  49  53  49  57  64  71  98  86  98 119 134 134 128 123 123  92  96  75  50  50  48  43  84  93 125 136 135 147 142 141 137 130 129
  81  71  90  99 114  89  97  94  82  83  50  46  41  36  47  70  74  53  60  54  78  81  93  86 101 113 117 129 130 130 129 123 117 120 109  86  76  65  52  51  76  76  74  96 109 122 131 140 141 138
  95  88  80  78  87  85  81  68  71  53  44  38  54  85  79  84  87  59  50  89  90  88  77  96 105 118 125 129 137 127 130 131 123 121 118 124 124  98  94  80 108  98  92 102 106 115 121 129 130 143
 106 110 102 110 114 107  89  79  57  63  78  77  85  91  69  85  78  64  84  93  80  86  81  79 111 122 117 130 127 129 128 129 124 112 122 111 118 117 105  92  94  96  94  88 105 114 125 134 137 146
  84 104 119 117 120 109 116 106  94  93 111 109 103  96  88  95  81  85  61  83  79  80  77  92 110 119 119 127 124 123 132 126 133 133 128 117 113  94 118 126 114 119 115 108 119 128 131 137 138 148
 106 113 114 110 117 115 114 124 114 110 123 115 105  92  98  99  55  69  50  38  53  86  98 115 120 117 125 134 140 141 133 131 132 141 143 127 129 128 123 132 133 137 133 130 135 140 139 138 144 150
 121 109 108 115 124 116 119 106 121 123 126 114 117 113  85  47  49  50  63  97  88 101 106 114 122 122 134 135 148 148 147 121 110 117 103 125 134 125 134 134 138 142 143 142 127 142 141 146 151 153
 107 108 113 121 120 122 125 119 121 125 124 117 116  85  36  36  79  95 106 108  91 119 123 123 126 131 140 147 153 147 151 140 137 132 131  66 111 116 130 134 134 137 136 143 142 138 142 148 147 150
  99  97 105 117 123 120 117 133 131 123 124 123 100  38  35  67 114 113 137 120 112 117 122 126 138 139 143 151 158 159 157 152 153 152 148 129  63  78 123 134 133 138 143 143 144 140 143 152 152 152
 111 119 114 103 117 128 121 131 133 127 121 111  60  34  29 112 121 118 118 108 106  87 116 123 124 136 140 153 158 156 155 151 156 158 157 152  87  50  95 119 128 136 145 141 143 146 149 147 153 156
 110 105 111  95 107 125 128 127 133 126 119  93  38  33  36  89 102  97  30  17  30  62  89 105 113 123 123 136 142 143 138 117 135 142 154 155 108  77  73 112 107 129 150 149 153 149 153 155 156 156
  94 119 110 130 117 125 140 136 131 130 118  63  45  45  30  76  68  53  17  16   2  10  35  85 114 118 106 120 114  38  22  19  24  84 139 142 125 107  56  94 108 128 134 146 150 154 158 156 156 156
  97 118 112 123 117 125 126 137 128 132 106  60  54  60  48  35  31  31  33  25  21  23  29  45  79  92  90 115 113  66  71  30  29  43 116 121 130 129  86  75  89 116 117 138 147 151 157 159 157 160
 107 102 116 116 125 130 129 139 136 127  94  71  72  92  64  68  46  29  29  22  28  25  29  29  39  53  68  85 104 116 115  93  74  97 134 144 145 132 107  83  92  96 112 124 145 146 153 156 160 155
 108 109 117 108 115 129 114 121 133 125  94  99  96  82  95  71  49  46  49  51  39  33  50  45  44  32  38  67  93 100 107 113 129 134 139 138 137 129 117 113  74  93 105 110 134 125 148 153 154 153
  96 100 110 106 108 110  94 109 116 112 117 106  93  73  71  64  36  38  37  50  52  42  52  44  63  54  53  59  65  77  96 117 119 134 128 137 138 137 139 128  94  99  94 110 129 136 148 149 148 153
  89  90  90  97 116  97 121 103 115 112 118  92 100  79  73  59  45  41  35  33  38  41  54  58  74  59  74  75  77  98 105 101 109 121 126 131 134 140 147 141 130  90  90 114 128 129 141 149 146 142
  91  89  72  90  87  95 113 109 111  97  93  90  82  75  75  52  45  36  33  40  32  36  57  49  66  46  45  38  41  98 102 105 100 108 120 126 133 141 146 145 142 133 116 123 129 126 142 145 139 129
  81  78  54  71  75  97 104  95 111  65  86  94  71  62  66  55  65  37  34  38  30  36  27  34  30  38  37  41  53  81  66  85  84  93 105 115 122 144 135 143 149 146 135 126 128 135 130 137 136 114
  66  74  64  79  98 109 107 115  85  65  81  69  61  66  60  39  52  41  32  36  33  49  40  46  81  47  93 110 107 102 112 103 106 113 102 103 119 126 134 137 148 146 143 138 143 138 140 135 140 140
  40  64  72  52  87  81 114 105  42  41  66  56  70  42  61  61  41  44  35  42  47  42  37  32  33  29  83  79  84  83  71  86 111 127 110 114 124 128 125 127 134 149 146 145 141 140 145 145 138 144
  47  53  76  76  64  87 106  79  75  62  58  64  55  53  61  66  58  59  43  36  32  36  35  35  37  36  58  85  60  53  88  84  78  93 112 132 130 128 129 111 129 148 145 149 142 147 142 142 143 148
  60  72  67  60  74  92 102  80  76  79  48  57  58  50  53  56  54  44  36  34  62  40  36  48  39  45  73  97 108 100 103  77  82  82  71  92 122 130 139 138 128 124 141 149 148 147 149 151 147 151
  91  90  63  59  94  94 103  84  75  85  87  67  65  53  47  34  32  44  37  41  40  27  29  32  37  41  64  75  99  71  67  56  46  37  47  51  72 108 127 128 116 134 118 142 147 150 151 152 153 147
  80  70  88  62  69  97 103  87  89  91  69  64  48  44  37  27  29  37  33  33  56  45  29  72 102  47  55 101 144 126  65 128 152  32  40  40  53  78  84  43 100 111 139 142 149 150 152 154 153 149
 100  73 107  91  85  86 111  83  86  77  75  48  39  37  25  23  36  50  27  66 145 148  64 156 164 157 109 161 184 191 141 166 174 123 155 152  33  59  37  30  87 104 137 141 151 153 152 153 155 153
 100  97  89 102  99  82 105 111  88  81  64  60  48  43  25  25  37 122  89 124 159 161 144 167 181 175 142 184 210 212 148 189 204 156 161 161  24  39  27  48  97 108 113 138 148 151 154 155 153 155
  99 102  77  87  90  86  91 108 105  87  81  52  37  62  61  25  27  34  66 113 153 162 159 166 182 183 159 191 205 210 193 182 183 156 148  76  73 101  73 117 124 123 129 138 145 148 155 148 153 154
 112  96  98  97  91  66  98  98  97  86  71  61  53  54  49  34  34  33  47  43  58 137 135 159 161 166 126 185 178 182 158 155 150 106  54  90 108 110 123 141 140 127 128 139 146 146 150 149 152 149
  93  86 101 100  88  96  79  95  93  81  74  62  49  67  49  45  31  31  40  41  43  31  50  55 114 118  72 134 124 116  74  25  53  38  81 108 129 122 136 146 142 134 116 138 146 144 144 154 151 145
  98  93 105  90  86  86  92  93  89  89  79  93  65  59  62  44  52  34  33  50  60  43  49  54  52  63  55  67  63  63  43  47  68 104 119 137 128 126 135 144 147 142 130 142 146 145 148 152 149 150
  98  98  92 105  88  85  83  85  80  90  82  86  77  69  72  67  41  41  29  33  45  53  47  73  56  69  77  80  61  70  87  91  80 130 126 126 131 125 140 146 150 142 143 148 149 142 147 149 150 155
  92  93  91  82  99  80  83  86  63  78 100  83  65  69  68  49  43  37  31  37  31  38  48  52  65  91  97 108  68  76  95  87 124 113 105 123 116 135 139 147 147 147 148 142 143 138 148 149 146 143
 100  88  99  83  88  79  75  70  66  93  93  73  75  75  65  69  62  55  39  37  36  38  39  47  59  71  93  82  73  81  82  88 105  98 110 111 124 132 137 146 148 143 141 144 143 139 148 150 148 144
  83  97  75  76  72  75  71  79  47  88  98  77  66  57  83  58  76  84  49  46  35  37  31  38  41  47  59  53  69  50  59  58  78  89 110 129 136 141 136 140 144 143 148 149 136 136 132 143 151 141
  92  91  79  85  62  70  66  46  77  71  69  87  56  41  75  66  63  75  69  67  65  38  36  36  42  38  41  48  51  44  69  61  88  96 123 134 141 141 137 133 137 147 148 144 135 142 137 147 146 149
