P2
50 50
255
  80  71  39  28  22  25  21  20  17  20  14  20  16  21  29  53  93 102 122 110 111 112 112 126 125 120 130 115 106  74 107 119 111  73  72  87  22  22  24  19  24  27  27  41  35  50  30  58 105 127
  87  61  26  21  22  19   8  20  16  16  17  19  13  14  21  19  28  40  63  89  80 101 122 119 114 111 108 116  92  89  66  57 103  39  27  20  25  25  33  51  25  37  33  27  30  25  27  31  54 128
  59  37  15  16  14  17  19  24  23  26  29  21  20  16  20  17  24  24  32  53  75  93  88  88 104 118 109 105  79  90 109  87  35  29  30  28  33  34  49  24  37  37  49  51  81  42  30  26  25  33
  33  21  21  15  27  25  32  33  59  59  38  41  28  26  21  29  27  23  28  33  48  88  73  77  93 111 112  76  85  93  84  73  31  60  50  34  75  58  65  94 109 115 115 108 107 112 125  88  40  25
  25  22  27  38  67  59  87 107  86  92  82  93  71  33  37  30  40  32  24  34  41  58  63  88 109 114 103  86  81  50  83  55  61  74  80  68  79  65  81  96 114 114 123 134 140 143 130 128 132  59
  35  36  33  54  75 106 108 111 109  97 102 101  84  64  53  35  30  34  32  35  29  68  71  60 104 103 114 118  99  70  96  92  87  72  50  39  53  64  79  80 111 113 127 129 138 146 146 136 123 123
  42  50  60  73 107 101  98  74  51  28  37  46  57  86  57  44  37  29  35  52  32  30  64  69  83  97 128 126 135  94 102 113  85  61  54  49  40  58  55  67  88 118 121 120 127 143 141 152 140 128
  45  55  70  80  90  60  14  13  21  17  17  14  22  23  23  45  42  44  34  33  49  54  58  62 103 118 134 137 144 136 114  90  62  52  47  42  25  15  10   5  10  11   9  11  23 106 140 148 148 148
  95 101  83  73  25  14  13  14   4   2   1   5  28  24  23  21  40  34  36  29  48  44  69  88  93 114 125 145 146 139  95  95  61  44  50  19  29  29   3   3   4   5 130  25  19  18 103 136 145 147
  81 100  63  23  23   8  33  15  11   7   9  16  17 137  64  14  27  26  32  24  31  51  59  99 107 112 126 142 143 127 107  72  52  43  19  48 104  16  13  14  20  21  37 153  19  20  23 128 142 148
  74  85  30  25   8  20  86  21  17  20   1  24 179 165 123  71  10  32  32  26  30  33  71  79 110 110 128 136 135 129  88  93  37  45  61  75 130  21  21   2  21 125 127 160 126  14  22  45 128 144
  90  48  33  13  15  17  25  27  16  19  21  20  27  27  27  22  17  11  32  23  39  48  67  98 104 107 120 135 137 117 104  48  86  27  22  22  26  25  22  24  33  28  41  31  34  26  21  98 114 146
  78  39  19  20  31  31  50  55  65  62  64  77  65  48  71  38  38  31  29  30  34  46  68 101 100  96 109 138 130 124 107  55  84  55  50  47  36  61  64  65  76 104  96 111 126 104  76  85 101 139
  78  27  30  42  84  94  89 105  95 109  89  88  62  64  42  57  30  30  34  42  50  66  74 101 107 107 122 124 138 131 117 103  92  85  47  44  41  43  70 101 103 114 143 146 144 143 124 112 111 142
  48  72  73  94  82  68  82  83  68  70  55  54  58  31  47  32  38  41  50  45  66  76  68  89  96 115 115 127 135 134 133 122 105  87  85  58  49  50  49  47  82  96 121 135 137 138 142 138 130 130
 101  82  92  95 112 104  99  76  75  87  78  52  43  42  34  53  75  50  61  66  85  78  95  90 108 116 125 116 121 131 129 129 114 115 118 102  82  74  66  70  84  75  83  99 125 126 139 139 128 135
  79  89  93 102  97 106  87  93  96  79  66  52  44  58  82  72  74  64  56  65  63  64  80  88 111 115 115 123 122 108 128 131 128 129 118 116 121 100  92  94  99 105 104 104 108 116 118 129 138 137
 106  92  95 102 105 106  86  79  77  76  70  70  77  78  67  78  61  78  93  71  51  67  76 105 120 120 118 129 131 123 118 119 134 111 112 122 120 110  98 110 100  97  99 107 110 122 125 130 125 139
  97 113 109 116 111  99  98  92  95  84  92  92  93  73  78  71  71  90  78  67  53  84  89 110 118 118 120 128 143 142 123 115 124 135 112 123 115 113 120 118 121 120 118 107 119 115 120 126 136 139
 104 106 115 112 118 103 112  99  90 112 115 106  93  97  92  85  75  72  40  63  82 109 115 110 125 126 124 133 146 143 148 133 101 107 132 124 119 115 117 127 130 126 131 131 123 137 132 128 130 144
 107 109 115 109 114 117 117 122 115 113 111  99  99  89  76  71  56  74 115 111 115 112 121 122 134 130 133 143 150 151 152 145 143 143 122 100 109 108 125 124 130 135 139 136 133 132 138 143 134 146
 122 112 110 107 113 119 119 121 123 114 106 103 108  92  81  47  69 113 124 117 121 106 105 123 122 134 145 151 161 158 157 156 154 152 150 135  61 117 118 129 131 134 137 140 139 139 134 144 143 140
 105  99 118 119 109 111 110 118 122 120 116 109 104  55  43  45 119 125 120 117  97  91 110 116 118 120 131 136 146 143 144 140 147 155 154 153  54  73 118 125 132 137 135 145 135 139 139 142 140 145
  95 100 107 103 110 121 126 122 102 121 119 114 100  63  33  81 107 121 113  19   7  34  65 114  94 116 107 128 129 124 111  23  93 125 153 153 119  61  97 107 129 132 132 133 140 139 143 142 138 149
  94 113 105  99 118 119 112 124 123 125 115 116  71  46  32  83 110  98  20   0   0   1   3  45  90 101 109 113  92   4   2   3  11  29 127 142 112  83  58  99 128 134 140 143 147 142 141 137 148 149
 112 114 114  96 107 113 123 124 125 117 127 123  95  63  44  72 101  87  29  16   7   8  32  33  36  69  85 113 133  84  30  31  36  34  86 133  96  95  53  91 118 126 132 143 141 149 148 147 151 150
  92 109 108 113 115 112 125 129 127 129 133 129 109  68  59  34  52  39  57  37  24  30  37  34  33  40  47  67 104 122 113  96  62  59  80  89 120 115  90  71  99 114 132 144 148 151 152 153 154 153
  91 100  90 109 121 107 108 120 127 132 132 125 112  65  74  51  30  18  33  27  33  37  55  69  74  79  88  62  84  94 107  86  95 100 123 123 130 115 117  68  75 120 117 132 149 145 154 152 157 155
 105 105 114  93 109 118 127 122 133 131 130 112 102  91  90  66  55  44  54  33  38  43  46  52  63  72  57  49  72  64  90  98 110 107 126 128 123 125 118 106  97  91 115 128 135 138 153 154 155 155
 104  69 102 105 118 113 108 120 118 122 121 107  91  89  70  80  67  44  40  39  39  32  44  58  76  80  70  47  55  76  74 103  92 116 109 118 123 128 125 119 106  93  98 125 136 146 149 154 150 153
 103 100  96  96  96  91 111 102 109 114 109  88  91  82  68  64  52  48  34  52  61  45  42  65  71  73  49  36  51  57  69  84  93  90 117 121 123 129 126 136 126 115 108 119 136 130 153 153 149 146
  84 101  83 100  99 106 108  98 119 109 112  91  79  79  64  56  59  37  41  45  39  40  39  30  31  27  25  46  63  68  82  83  89  83  88 119 120 126 136 132 137 127 106 124 132 133 144 152 153 145
  79  77  67  62  98  87 110 100 111  91  72  80  79  76  67  50  42  55  71  35  38  60  59  55  69  36  70  94  88  76  87  98 114 108 113 111 118 120 132 128 132 135 133 123 136 138 136 146 134 123
  85  69  75  78  71 106  92  99  87  60  53  72  41  53  69  57  68  66  46  54  48  37  43  37  49  31  64  88  49  65 100  68  97  95 117 127 113 119 133 130 132 135 139 125 134 136 147 145 140 129
  62  80  84  72  96 100 108 102  87  58  66  55  61  64  50  72  63  51  64  43  28  41  34  42  38  29  59 101  56  85 105  95 105  64  81 130 139 136 134 121 123 133 135 139 140 143 144 147 147 145
  37  71  84  81  79  76  97  98  59  69  81  58  45  54  68  60  69  56  36  43  31  36  60  49  45  54  55  85 114  81 113  72  70  73  79  84 125 137 133 126 106 132 142 141 143 149 148 147 149 147
  54  76  85  52  79  85 100  62  63  64  45  59  50  64  82  58  54  35  36  45  55  33  31  32  30  36  37  43  55  58  71  35  56  31  50  57  84 120 141 135 121 129 140 145 145 152 151 150 142 150
  70 102  67  64  66  91  99  41  72  64  58  61  53  59  65  52  36  36  54  26  38  25  22  30 104  51  58  72 134 155  82  91 146  34  23  36  54  91 104 125 136 129 125 145 145 152 149 150 147 147
  97  90  71  76  85 110  92  66  88  81  54  63  43  45  36  30  32  41  30  25 129 144  69 155 161 159  78 157 182 198 154 159 180 134  94  49  36  68  87  70 116 121 133 135 135 146 149 151 146 147
  75  93  52  74  85  99  90  87  68  88  64  46  40  27  24  25  29  36  88 119 152 159 131 165 176 176 157 175 198 211 207 165 204 172 155 160  66  35  49  33  52  86 125 136 145 151 151 150 153 152
  68  90  69  82  86  99 104  60  88  77  50  35  33  34  18  18  24  83 113 144 155 165 140 164 171 173 161 180 184 199 209 168 181 175 153 166 104  24  21  21  97 111 126 137 149 145 149 150 150 152
  96  83 107 103  85  89 111  98  79  77  43  35  42  42  18  12  19  33 108  30  24   1  15 156 155 158 109 160 164 165 159   5 156 118  56  77  91  73  22  57 110 117 116 125 143 146 152 153 152 153
 114 105  93  93  92  85  92 100  73  67  64  55  48  40  54  21  30  33  31  30  28  30  33  67  78  95 107  94  54  75  48  35  33  59  86 125 116  88 114 122 116 121 119 127 145 150 150 150 150 153
 105  82  76  98  87  76  85  82  91  74  46  53  75  39  43  37  26  43  39  48  50  41  40  44  42  47  56  77  62  55  83  59  73  90 121 126 114 105 127 136 123 131 128 138 145 139 145 140 145 154
 108 102  99  72  64  80  98  89  82  85  53  40  56  60  38  43  42  26  33  41  61  70  49  47  55  81  89  93  69  84  61  98 124 128 122 117 114 135 132 136 132 136 128 138 143 144 142 145 148 153
  86 106 101  81  83  85  90  81  82  79  68  73  64  68  54  58  32  40  28  28  31  47  56  83  85 105  97 104  73  97  97 110 127 111 113 118 126 133 135 139 140 142 130 138 145 148 142 138 150 152
  98  81  99  81  76  72  72  78  69  76  80  87  85  69  73  77  64  47  53  44  35  42  38  40  48  89  68  78  69  56  84  80 103 110 121 116 129 136 141 143 146 143 144 147 137 143 137 147 151 150
  96  91  90  88  97  96  73  68  57  79  76  76  79  79  76  70  67  52  59  34  34  46  42  38  44  40  42  68  67  60  62  79  99 101 115 121 132 143 143 143 145 140 145 142 141 135 140 146 147 147
  93  94  74  81  82  77  74  77  72  75  65  74  58  68  72  89  68  82  65  47  44  33  31  35  36  41  41  52  50  41  41  66  88  96 123 132 135 140 139 144 143 143 141 145 138 136 145 142 147 151
  99 109 100  88  73  67  71  60  60  74  80  68  38  48  58  79  68  57  79  54  64  44  59  52  38  64  54  45  52  80  57  91 103 112 126 135 140 134 138 139 143 141 144 146 137 143 142 145 145 149
