P2
50 50
255
  79  39  36  34  37  39  35  38  33  33  47  58  83 101 121 116 101 115 115 113 120 120 127 124 125 125 111 102 115 106 120 113 117 132 128 124 130 108  78  96  78  44  97  80 116 105  47  50  83  96
  47  30  28  35  34  32  25  18  27  21  26  33  37  62  87 102 108  79  89 113 110  96 109 119 112  98  83  85  93  99 111 117 101  83  86  64  63  40  45  28  32  30  49  66  64  53  56  45  44  71
  32  26  26  19  26  26  28  23  22  23  12   9  31  31  36  61  78 101  66 104  97  93  78  87 103  95 104  76  75  81  94  84  65  43  39  29  25  28  34  37  33  38  30  35  63  42  45  55  35  39
  36  38  29  37  30  27  33  42  34  31  24  22  19  25  27  26  39  48  52  83  88  78  80 103  95  87  87  74  71  59  56  68  41  35  27  35  27  38  37  30  33  42  46  74  55  39 115 128 113  69
  56  48  67  54  60  57  65  70  62  48  39  33  30  28  30  29  26  24  47  61  89  76  75  95  80  76  88  69  54  63  68  38  50  38  45  40  39  39  62  63  85  97  79  96  75 133 135 137 128 137
  88  50  43  62  86  88 100  97  94  94  74  55  38  36  31  33  32  35  38  49  53  55  82  81  84  83  52  49  64  62  55  44  51  51  55  42  53  53  62  81  82  97 107 120 134 125 123 112 117 136
  75  64  73  86  98  82 102 102 107 106 104  76  56  40  35  34  30  37  39  46  39  61  84 101  91 111  59  55  63  88  72  59  54  50  41  49  56  49  63  51  72  94 108 124 126 133 124 138 149 119
 102  85  93  87  80  50  37  29  35  38  41  39  36  39  54  36  35  35  35  42  49  48  66  86  92 105 126 118  97 106  85  60  53  50  46  42  48  51  44  50  60 102 128 137 141 128 137 142 137 139
  85  89  75  44  37  34  14  14   1   2   1   4   5  27  20  42  37  37  40  45  52  62  69  87 119 137 150 143 135  96  79  65  47  39  56  25  17   2   2   8   2  11  10   9  39  94 111 123 135 142
 109  66  32  44  18  17  65  15  17  27   1  34  13  83  28  24  35  37  34  46  55  67  72  87 134 144 157 154 145 117  86  57  45  47  27  38  99  30  29  15  35 166 106 144  21  33  63  77 120 136
  80  47  47  15  14  89 122  62  16  17   0   2  50 128  58  32  44  39  38  40  52  85  97 109 135 149 159 158 141 117 123  51  44  25  49  94 127  19  25   1   9  21 107 158 119  22  22 101  90 134
  71  45  31  28  32  45 129 121  28  13   7  30 112  48  25  32  16  44  35  51  64  77  92 125 127 151 157 154 130 116  96  51  66  48  38  42 112 100   8   7  18  33 158 142  41  37  40  52  85 136
  74  63  50  41  53  36  38  38  48  39  39  48  55  60  47  38  38  43  37  57  62  87 102 112 134 148 154 155 137 121  78  89  43  42  45  54  43  43  54  47  61  59  77  91 130 115  91 102 137 140
  85  84  77  68  63  53  59  61  63  68  70  50  45  46  59  45  38  37  44  56  63  93  99 118 127 144 155 143 135 125  91  73  95  62  53  61  55  57  51  72  92  82 103 126 125 126 119 110 128 134
 116 110  95  98  96  88  90  85  77  80  58  49  53  54  54  43  60  49  49  53  70 102 115 119 129 137 149 147 142 128 125  90  90 102  59  47  53  52  70  92 107 124 137 148 149 152 149 143 143 146
 111 103 115  92  96  92  89  78  77  60  67  65  59  63  46  59  69  76  64  74  98  98 109 104 114 148 151 151 149 133 139 121  93 105  97  74  59  45  53  65 101  90 126 137 136 147 147 135 147 146
 111 113 110 114 110 102 103  90  80  68  69  83  63  63  69  70  78  76  63  81  80  86 109 119 124 135 153 155 153 150 148 138 124 132 116 108  87  89  84  85  85  95 101 115 131 139 145 145 148 153
 118 107 109 115 115 100 110 114  92  89  75  73  68  86  85  98  79  81  93 103  90 102 112 113 126 130 142 148 151 151 150 137 143 136 138 131 134 113  90 115 103 100 114 117 127 141 140 152 145 147
 115 114 117 115 120 108  96 105  91  80  79  93 103  86  85  77  76  90 102 107  96 106 107 125 128 135 144 149 139 148 153 148 141 135 145 142 131 135 111 116 102 114 116 117 116 138 134 138 141 149
 121 120 115 107 118 111 106  96  99  92  85  88 109  80  94  90  77  92  93  84  97 100 108 119 128 136 144 148 144 147 151 150 137 142 140 133 126 129 124 127 118 112 114 118 117 122 127 142 139 155
 111 125 110 112 121 105 107 111 114 114 111  91  89 103  82  82  79  95  97  84 101  78 100 114 128 134 139 143 134 141 147 152 147 138 125 131 127 129 139 132 135 127 122 129 126 132 133 138 147 155
 114 100 118 120 121 123 116 117 113 104 109  99  91  97  85  67  71  83  87  81 105 114 111 102 122 129 135 133 129 139 137 144 153 146 134 127 125 132 139 137 136 142 134 130 141 142 140 145 157 156
 113 105 113 102 111 115 110 118 115 124 117 100  94  84  69  57  62  48  76  82 110 102 121 115 124 125 144 149 136 132 120 124 128 127 132 130 137 135 132 139 141 135 138 141 141 142 151 157 161 162
 106 111 116 114 119 110 125 114 116 112 116  93  78  62  46  53  81  75 114 111 111 114 128 126 134 143 142 145 147 139 125 109 120 114 102 130 127 134 144 145 147 146 144 139 148 151 148 153 156 159
  85 110 117 117 110 107 116 115 123 108 108  91  67  42  53  97 112 112 115 115 117 128 127 142 136 150 153 155 156 147 137 139 137 103  81  85 108 129 144 138 147 149 143 150 137 149 155 153 156 158
 101 100 102 118 117 125 117 108 108 117 103  74  46  43 109 115 123 111 113 110 115 122 140 138 145 161 166 164 164 161 157 158 155 142  98  67  95 111 132 137 147 150 147 152 149 155 158 155 160 161
 102  98 106  96 115 116 117 118 118 104  76  62  38  50 114 119 110 102  97 100 110 115 123 127 130 149 155 153 155 143 158 163 162 154 120  69  78 105 116 133 135 146 140 155 156 158 159 159 161 164
  95 108  80 114  97 106 117 119 120  98  70  53  45  55 110 103  75  22  44  75 102 104 121 117 122 137 145 138 122 126 132 138 157 161 130  86  76  96  96 129 136 142 153 155 154 159 159 161 163 158
 113 102  99  84  96 118 117 122  97  89  74  49  53  42  83  80  40  27  18   6  40  86  97 107 119 122 115  35  13  21  28  74 139 153  98 107  79  92 103 120 129 143 144 152 150 158 157 161 159 158
  89 104  87 110 103 109 109 117 111  88  81  67  70  62  53  54  41  41  38  38  42  46  69  75  92 101 114 105  99  65  42  43  98 123 122 117 116  97  95 101 110 128 141 140 155 157 150 159 157 157
  93  83  88 100  91 108 106 103 106 100  71  79  72  74  78  44  38  46  49  42  58  56  56  44  53  63  99 116 128 122  90  52  84 123 133 123 132 100  93 105 111 117 134 153 142 144 155 155 150 155
  87  91  76  92  99 108  86  95 107  86  93  95  87  74  68  60  52  43  50  79  61  74  72  74  54  72  73  93 125 115 116 111 124 131 142 143 142 130  88  89 111 119 125 120 130 148 143 138 141 146
  95  89  91  89 100  84  92  97  97  85  66  83  85  72  58  68  53  53  53  63  72  56  61  65  63  62  69  96 105  99 115 116 115 128 136 139 141 143 127 114  99 120 129 138 141 140 135 149 128 142
  61  99  84  91  87 109  87  98  97  92  83  72  69  63  62  52  59  64  58  53  62  65  72  74  59  51  69  93 111 107 125 119 122 135 136 144 148 148 139 136 113 109 123 130 138 139 133 143 133 131
  77  79  51  54  69  87  90  86  81  75  59  77  69  56  64  54  52  57  63  65  69  61  80  64  58  60  72  74  89 101 126 124 126 132 138 138 146 147 148 137 139 126 129 138 127 136 133 131  80 132
  58  85  75  50  77  86  79  75  64  72  81  51  54  62  62  53  77  54  60  64  49  63  65  62  52  52  51  69  88  92 101 122 121 120 137 132 149 148 150 149 149 137 136 140 143 136 130 125 116 119
  61  64  91  73  73  75  99  78  56  65  64  67  62  90  63  81  78  54  56  50  45  42  43  51  38  36  51  74  65 107  96 115 123 129 138 139 148 145 136 147 145 147 137 141 148 137 129 136 142 133
  72  85  75  61  82  89  93  65  64  65  58  60  74  68  79  76  70  52  71  74  67  66  74  65  73  90  91 110 106 101  94 127 129 136 130 138 145 142 139 152 140 152 145 134 145 144 139 144 144 145
  96  87  68  50  74  83  85  57  50  60  49  78  70  76  70  65  65  56  61  53  49  53  41  70  79  88  68  74  72  95 107 123 131 131 135 141 148 139 125 135 149 150 145 140 147 141 142 133 148 141
  92  88  72  76  86  81  76  62  65  40  50  83  84  83  63  49  51  44  63  44  45  42  41  58  63  55  51  78  74  68  93  72 113 131 140 141 150 138 120 132 138 141 148 147 139 146 146 141 146 151
  95  94  76  79  95  79  74  70  68  58  54  61  79  46  38  46  57  46  42  50  70  59  51  75  80  78  66  76 105  85  78  74  73  85 111 120 138 134 132 126 105 137 142 152 145 151 149 149 148 154
 109  88  93  80  85  85  77  82  71  62  43  44  41  42  45  42  42  39 133 125  48  91  53  51  64  73  71  94  98 133 140  79  70  66  70  86  87  76  75  88 121 125 131 147 151 148 146 145 151 152
 102  95 105  96  84 100  79  64  76  61  45  35  34  32  43  41 112 132 153 161 124 163 165 162 115 165 170 184 163 164 223 165 138 110  54  71  39  30  35  61 102 126 135 142 147 144 153 143 151 153
 111  88  91  88  86 100  95  80  70  75  53  40  42  14   3  80 138 138 159 164 161 167 169 171 161 186 186 195 218 186 225 170 143 162 153   0   9  29  54  61  85  98 125 138 142 151 144 142 151 139
 109  95  89  78  84  74  95  76  62  63  50  57  56  35  24  15  21  21  27   3 150 167 166 166 146 176 171 177 183 164 170  54  34  94  47  46  38  87  93  93  86 114 136 145 144 140 139 144 152 143
 114 105 111  72  90  65  82  81  73  56  58  65  51  55  36  35  35  44  33  66   4  94 127  28 133 152  56 146 144 109  88  41  63  61  81  56  89 128 106  87 106 118 129 134 133 135 145 143 155 147
 154 105  85  89  81  71  89  76  86  74  58  57  54  55  54  39  39  38  39  40  49  44  81  75 122 102  63  89  56  38  41  48  76 106 111  88 132 128 114 116 118 124 127 132 135 142 142 147 153 148
 168 104  86 106  73  80  73  77  59  64  69  64  59  60  59  43  42  61  49  42  42  44  45  55  60  61  56  46  46  46  62  81 108 136  93 117 138 138 138 125 126 125 126 135 138 143 148 138 152 140
 169 158 101  85  75  66  69  73  65  71  84  76  68  61  72  48  43  57  68  60  62  52  51  68  78  67  62  51  85  68 108 124 128 110 117 131 129 138 135 134 125 130 129 138 128 143 144 149 149 145
 168 168  84  76  64  70  74  73  72  75  84  67  70  66  77  57  46  45  48  48  60  67  68  57  89 122  72  99  89 124 128 122 123 120 128 134 136 145 138 145 140 134 135 134 134 139 139 145 146 143
