P2
50 50
255
  59  45  35  25  33  35  28  45  38  32  33  47  75  63 108 112 119 123  97 122 125 114 116 126 124 129 128 111 105 113 121 132 129 128 138 113 124 152 110  83  85  59  48  50  69  58  78  60  48  77
  42  34  25  32  26  31  22  26  29  21  25  31  33  42  78  85 101 110  98 113 112 107  94 113 112 102 106 116  88 105 107 120 103 108  85  83  55  40  52  36  29  32  34  49  48  50  56  84  30  49
  33  31  25  27  25  32  27  28  24  20  24  15  13  29  28  40  70  98  86  76 106 101  98 108 100 120 100  96  71  58  80  87  83  60  52  35  23  26  33  44  44  25  40  36  80  55  72  54  71  33
  36  40  27  25  34  31  34  36  36  30  28  21  21  19  25  27  37  32  50  62  95 108  77 105 110 111  82  88  60  66  62  65  82  32  35  30  27  34  36  35  32  37  50  91  86  41  76 142 129  83
  42  42  51  39  46  41  61  81  62  73  49  35  32  27  28  29  26  14  28  54  56  68  60  76  98  94 102  94  84  63 115  83  45  40  36  49  43  40  54  86  67  95 105  75 105 134 145  68 134 147
  73  35  44  59  89  96 101 109 106  94  69  50  45  35  33  35  37  22  37  41  45  67  62  89  95  99  76  56  69  62  59  71  45  46  42  47  46  47  51  69  86  99 101 113 127 136 128 134 139 137
  74  76  78  93  92  95 106 116 117 100 113  97  77  65  39  32  32  32  34  34  41  39  56  94 104 112 115  77  64  68  71  66  67  58  50  44  49  41  53  75  72  98 120 128 133 135 145 138 147 143
  77  78  92  76  79  86  49  33  32  34  49  33  36  54  68  35  39  33  37  38  35  44  68  69  79  98 130 130 106 114  98  84  62  60  44  45  43  45  30  27  33  38 100 128 145 141 139 136 146 139
  97  93  70  54  34  38  23  12   9   2   0   4  18  31  31  37  35  36  33  36  46  73  57  74  99 129 151 156 150 141 112  72  56  44  42  39  26  12   4   4   1   5  13  20  21  41  97 125 132 146
  83  67  27  35  16  10  42   8  12  27   6 141  26 120  30  16  40  39  36  40  50  70  57  94 103 136 153 157 153 141 117  85  60  39  43  33  88  14  24  29  28 161  66 168 103  16  45  48 114 141
  69  32  46  10  20  71 109  20  26   8   1  13  75 144  70  47  19  37  45  33  43  64  89  97 112 136 154 160 155 131 102 124  48  82  41  58  99  19  26   1   4  26  57 163 159  71  17  39  99 128
  66  38  23  16  30  75 125 109  10  10   8  23 134 143  33  48  26  48  46  39  46  67  95 118 120 137 153 158 151 130 113  83  50  51  50  33  42  79  15   8  15  20 159 152  58  47  48  37  80 130
  44  40  38  38  43  37  37  37  41  34  37  43  53  47  46  39  35  33  38  38  58  73  71  93 119 128 150 154 153 137 117  81 100  41  48  44  45  43  54  55  56  86 128 118 116 128 103 102 126 140
  59  60  49  58  57  49  63  54  43  54  59  63  71  46  59  54  50  40  40  42  52  65 100 109 115 133 141 155 147 137 129  92  88 104  77  48  59  47  63  51  76 114 131 138 138 142 144 136 142 138
  84  92  79  96  93  82  87 104  99  84  78  63  54  49  48  41  44  54  45  53  65  62 101 119 117 120 142 147 149 142 132 118  85 103  85  71  56  60  54 106  88 116 136 145 151 153 154 152 153 150
 113 111  97  95  93  84  92  67  84  65  81  84  58  66  47  40  61  73  71  63  76  82  98 111 116 114 132 150 153 145 138 140 124 104 102  91  64  55  51  46  68  93 120 128 141 145 154 153 153 151
 113 101 108 114  98  89 104  98  94 103  77  67  63  57  54  82  68  79  79  82  89  93  97 112 109 107 137 145 154 148 148 144 144 131 132 116 110  98 102  94  81  95 109 117 125 131 148 141 149 153
  96 119 108 125 118 115 109 105  82  96  76  72  65  78  92  85  83  80  69  75  99  98 101 108 101 124 132 146 149 143 146 148 145 150 138 136 134 130 116 100 113 123 125 115 127 130 144 139 148 148
 116 116 128 129 117 112  94  89  77  83  73  80  93  97 101  86  78  80  75  96  89  92 107 100 113 119 132 142 151 146 149 157 152 150 136 147 137 132 140 124 117 121 124 129 122 131 138 134 142 141
 121 116 119 108 122 108 116  92 103  87 102 100 101  92  93  89  80  70  93  98  99  88  83 104 113 125 128 142 139 147 144 145 145 138 139 141 138 138 137 132 137 127 122 126 129 134 130 138 144 152
 121 117 118 117 106 112 120 108 102 105 108 115  95 113  85  94  72  72 102  79  78  86  88 108 117 118 120 134 147 147 139 141 151 150 135 137 140 133 130 132 137 139 133 131 136 135 135 137 134 156
 108 120 117 108 110 122 115 106 116 120 123 107 106 108  83  89  80  78  60  75  63  90  98 105 121 117 126 139 132 136 126 144 139 155 152 139 124 128 135 150 133 139 146 140 137 144 140 151 148 158
 107 112 112 109 118 124 122 128 120 116 120 115 103 114 101  74  62  46  46  53  77  88 107 117 121 125 128 133 144 143 140 123 122 124 127 132 132 142 136 134 148 147 148 141 139 140 146 154 157 160
 117 111 118 114 118 117 120 122 127 130 113 111 106  86  57  46  46  67  86  95 114 102 115 119 126 127 133 145 153 152 152 126 119 123 102  83 118 125 135 141 140 146 152 152 148 148 152 148 156 158
  86 113 117 115 116 123 121 126 131 121 125 109  86  61  40  46  97 102 101 117 109 120 125 130 128 139 142 154 157 157 156 148 142 152 143 112  77 106 134 147 152 150 150 155 153 156 154 156 153 157
 107 102 119 117 116 124 124 130 120 128 117 110  59  41  30  91 120 123 106 124 123 121 128 132 141 133 156 164 169 158 165 162 159 156 156 132  68 103 115 128 144 153 154 154 158 152 159 158 161 161
 103 107 101 117 123 127 121 133 123 121 105  87  44  37  39 122 123 121 118 114 112 110 123 132 131 127 135 155 158 156 157 144 159 163 165 155 105  72  90 120 131 148 150 155 159 157 160 157 159 164
 111 102  95 106 119 118 123 127 130 120  98  61  44  42  48 105 114 106  83  69  71  90  90 104 120 125 138 146 147 138 134 124 130 150 159 158 115  78  69 111 127 134 150 151 158 158 164 159 163 159
 101 101 107  94 103 129 114 128 106 118 115  54  36  46  46  96  86  60  21  23   4  16  72  87 104 115 118 131 127  26  16  23  28 112 139 141 133 101  82  88 124 131 138 144 150 158 160 162 164 161
  87 101  95 106 118 121 107 112 119 114  98  67  72  61  66  48  50  42  41  35  31  40  41  53  80  98 102 111 108 124 103  77  40  48 121 130 125 141  93  81 105 118 132 132 151 150 155 161 160 159
  92 103 115 103 112 115 113 113 107 117  99  72  68  91  75  65  50  34  31  48  39  47  59  47  45  61  68  66 107 129 110 119  89  98 138 138 139 137 135  93 105 117 127 134 134 152 154 151 158 154
  82  97  92  91 112 114 116 117 127 124  96  98  92  68  76  64  56  62  49  61  61  50  75  75  77  65  57  77 100 111 122 123 123 129 124 139 148 148 137 131  95  97 116 130 142 121 131 145 142 156
  84  88 105  98 102  81 101 112 121  97 100  91  96  75  70  60  52  57  61  46  50  63  52  63  67  61  57  66  58 102 122 129 125 136 143 137 142 138 142 145 125 111 107 122 129 141 144 148 140 145
  91  84  90  89 110  92  95  95  84  84  89  90  77  83  71  65  40  49  61  54  58  53  55  64  80  64  68  72  80  95 125 120 123 131 138 141 135 145 150 152 147 109 110 128 130 134 142 138 145 135
  80  87  71  68  83 104 105 101  92  77  80  81  69  63  43  60  49  51  60  56  52  56  63  78  80  70  60  59  74  98 103 119 121 132 132 138 134 141 153 143 155 144 142 137 129 130 119 135 126  83
  72  76  53  50  82  80 102  91  77  65  87  73  72  64  62  61  64  65  58  49  57  57  52  68  68  65  42  44  59  83 102 113 103 112 132 132 138 143 147 140 154 152 149 138 138 140 132 127 136 129
  49  59  68  73  78  68  89  90  63  55  71  55  64  67  76  68  58  55  69  51  60  38  44  43  40  39  40  36  45  82  80 100  91 119 133 118 143 140 152 137 143 149 152 138 144 139 140 140 136 140
  54  59  62  79  86  68 105  82  45  51  66  62  60  68  73  62  68  64  73  63  51  64  66  82  74  80  87  96  95 106 118 113 112 132 128 127 140 148 147 142 123 145 144 150 152 145 138 143 136 149
  68  75  74  59  78  92  94  60  44  62  46  48  61  74  63  71  71  55  57  54  57  55  42  62  46  79  55  86  70  80  79  84 109 126 139 148 144 144 150 125 112 144 145 156 151 143 147 150 133 150
  80  68  68  61  71 101  83  60  63  53  65  73  63  72  69  69  52  53  46  60  56  44  76  49  41  59  58  53  61  93 116  90  95  75 111 130 146 149 145 139 121 132 142 148 148 149 145 150 147 146
  74  80  56  64  85  84  80  79  67  51  47  63  66  76  63  42  50  47  64  46  44  72  54  61  64  85  96  97  81  85  82  84  90  63  72  84  98 131 127 126 116 127 123 146 154 151 154 154 155 153
  78  80  87  62  84  94  88  80  59  72  64  47  59  48  37  41  45  56  35  92 134  54  54 107  52  60  55  76  96 138  98 160 157  67  46  84  62  90  96  68  71 106 118 122 145 153 153 152 153 153
 106  93  77  85  93  89  93  74  70  79  59  42  36  33  30  45  54 121  79 154 163 154 159 167 167 158 144 172 208 195 155 192 212 155 166 142  51  47  12  34  44  85 121 134 145 148 155 155 154 155
  91  81  87 100  84  90  96  97  73  86  68  42  37  32  15  21  72 141 136 162 165 163 169 182 181 180 171 199 224 213 165 222 222 159 167 171  36   1  12  55  80  75 119 132 143 152 157 147 149 156
  99  99  75  90  94  67 101  94  84  78  62  55  46  52   9   1  50 151   8 155 165  27 174 176 172 176 176 189 202 202 157 194 182  15 157  45   4  31  37 102  80 100 121 127 144 148 149 144 143 152
  95  94  87  62  80  85  95 101  93  66  63  55  49  75  45  32  22  19   4   3  23  26 161 161 161 165 164 164 166 173  47  43  25   7  61  43  63  65 113 124 101 121 128 135 141 141 134 148 153 153
  96  95  96  74  88  75  78  97  82  82  56  69  68  45  67  36  40  37  34  31 119  13  21  28  31  34  34  34  31  82 165 144 122  45  53  78 114  85 140 141 127 129 130 132 132 143 140 149 153 156
  89  93  91  85  58  70  79  84  79  81  64  76  44  66  49  57  37  44  40  45  41  32  94 113 152 151 158 159 143 140 117  43  42  47  58 126 118 126 135 140 141 135 136 133 138 147 138 152 151 149
  77 108  68  93  98  72  75  68  74  79  68  85  68  68  62  54  60  47  47  43  40  39  51  52  38  49  82  82  45  46  54  47  60  68 117 137 120 131 150 142 148 142 138 138 143 134 148 147 147 146
 125  83  94  86  79  84  82  78  64  76  82  75  83  77  72  62  63  55  53  64  55  60  75  60  53  67  58  67  66  65  50  56  91 113 137 126 131 142 146 145 147 145 141 141 144 136 149 144 146 147
