P2
50 50
255
  72  77  88  72  64  59  54  38  30  36  33  28  40  68  83  92  97  99 111 104 115 122 118 119 117 123 122 127 109 107 112 116 108  94  89  89  86  92  79  75  78  77 101 115 121 111 104 116 123 113
  81  84  54  43  48  27  32  17  21  23  19  13  21  19  38  39  68  80  82  88 103 103 102 106 106 110 112 104 104  86  97 101  89  72  60  43  30  30  30  30  48  48  56  77  56 101  89  97 122 119
  82  69  25  26  24  23  22  22  24  20  16  14  18  16  18  24  29  23  34  58  81  93  93 100 100 102  98  99  95  63  76  61  74  38  36  23  29  22  33  50  36  47  58  64  61  63  74  67 109 119
  60  38  22  24  22  26  29  28  27  27  23  14  19  19  18  22  18  26  22  31  59  75  77  83  98  98  90  91  87  78  71  71  29  40  27  42  40  26  46  27  49  44  62  83  82  82  45  37  86 103
  27  20  23  31  50  53  60  60  56  47  32  26  26  24  27  24  25  22  19  32  43  57  64  74  91  91  90  84  60  62  68  52  41  32  49  46  53  48  56  62  65  77  90  93  96  93 112  80  48  42
  27  39  52  63  68  74  76  78  74  53  35  26  26  24  28  29  30  26  20  31  45  46  62  87  94 105  95  76  60  58  55  36  51  54  60  55  52  50  58  57  77  87 100 106 111 123 111 119 115  51
  61  59  52  65  68  68  73  55  36  40  18  25  20  23  24  26  27  29  30  37  32  49  63  79  91  97 102  86  66  69  57  59  57  58  49  40  37  31  24  33  51  68  89  95 106 114 111 110 107 103
  56  59  59  66  57  46  16   4   6   8   9   4   8  16  21  20  24  26  27  30  31  41  73  78  94 126 122  98  93  64  62  63  55  50  32  25  20  20  22  25  33  42  62  71  89 107 114 119 108 117
  61  68  65  57  26   5   7  11   2   2   1   2  10   5   9  19  24  24  28  28  40  55  84  98 120 141 141 130 107  86  67  51  52  42  26  22   7   8   3   2   2  15  13   4  26  70  95 115 122 108
  72  61  54  27  11  10  14   1   3   8 127   3   6   7  10  14  20  24  26  28  46  68  88 108 126 158 158 149 129  96  66  42  44  30  30  12  14   2   2 177 165   2  23  20  11  21  71 102 114 117
  63  59  35  13  12  14  51  19  17   6  12  16  86  78  19   8  18  23  24  25  37  65  97 121 150 160 160 153 135  98  59  50  44  34  13  20  68   6   9  11  18  10  95  59  18  18  48  84 102 116
  59  50  20  18   9  45  87 107  48  25  25 122 140 114  48   7  12  27  26  24  59  87 109 130 147 162 160 155 141 119  73  56  47  61  23  79 118 126  23  16  18  69 162 117  21  15  25  54  96 108
  57  28  25  11  15  80 108 104 121 120 125 144 145 133  87 106  11 103  48  50  82  94 113 132 147 158 157 153 142 131 102 126  90  25  59 102 132 142 138 123 140 162 164 156 103  20  27  27  83 105
  49  30  20  18  22  77  90  93  99  94  95  96 118 132 136 118  91  60  87  88  90  96 116 135 149 159 157 149 143 137 127 141 134  79  89  96 114 127 124 133 136 131 131 112  91  72  30  58  83 107
  52  29  23  47  62  79  80  83  92  94  95  99  98 107 118 122 120 104  95 101  94 104 120 132 144 151 154 152 149 142 135 128 147 123  98  85  92  96 100 106 116 135 129 121 124 114 101  96  74 106
  52  52  60  66  88  87  90  95  95  97  95  94  97 105 131 120 107 114 105 100 103  96 116 130 139 148 150 149 149 146 144 140 136 145 120  88  82  77  83 107 110 123 136 138 144 134 113 114 113 116
  80  91  85  90  93  93  94  90  91  90  97 106 108 114 117  89 117 120 107 107 109 103 113 130 141 153 153 151 149 145 151 150 146 148 150 117  84  77  77  81  95 107 119 124 130 138 144 140 138 132
 103 100 107 107 111 111 104 105 103 106 107 108 110 123 119 129 122 114 111 100 105 101 110 134 142 150 152 148 144 145 150 151 150 152 156 153 141 102  86  85  85  96 101 118 139 151 154 150 155 151
 112 120 122 124 127 126 126 123 121 114 114 111 121 134 130 127 115 109 105  99 100 106 118 141 147 152 157 153 145 145 145 151 150 152 156 159 155 155 148 127 119 127 131 146 154 157 160 158 158 158
 129 131 128 134 134 139 140 142 135 127 127 133 136 138 130 123 114 105 102  94 110 112 135 142 151 157 160 161 161 151 140 144 153 150 160 161 162 158 157 158 155 160 157 163 161 163 163 161 160 160
 132 135 135 142 144 145 145 140 143 140 136 139 138 135 128 117 108  95  99 112 118 128 134 145 160 168 186 180 162 159 153 140 143 152 157 162 161 161 156 158 158 159 161 163 167 166 166 162 163 163
 132 134 136 141 140 148 148 141 143 139 139 140 139 134 127 110  98 102 131 132 114 117 122 129 133 145 148 160 160 158 156 152 149 141 155 160 161 163 165 161 161 157 161 161 166 165 166 168 166 163
 116 130 134 134 140 142 144 136 144 142 143 145 148 140 127 105  99 118 124 109  97  97 102 111 115 127 131 137 140 144 141 145 158 156 137 159 162 167 164 157 163 163 161 162 165 170 168 165 161 157
 117 120 123 132 138 138 142 141 140 142 150 148 138 148 119  98 109 107 105  89  80  77  82  91  91  95 100 114 119 118 114 119 141 156 150 145 154 166 164 166 166 163 166 166 160 167 160 168 162 157
 112 114 121 130 134 135 136 141 136 142 151 156 150 144 112  93  95  92  69  33  24  43  60  69  77  75  85  94  93  87  81  80 108 135 149 118 131 155 163 164 166 167 169 170 165 163 160 166 158 155
 105 109 123 124 127 130 132 134 139 142 146 144 144 128 100  87  88  77  30   0   1   1   6  54  64  70  70  76  17   1   1   3  74 106 133 127 119 141 159 163 166 167 168 167 166 164 164 162 158 156
  93 105 111 111 121 126 127 131 127 129 137 138 131 123  97  73  67  61   4   1   0   1   6  19  61  67  71  26  10   1   1   2  25  87 109 124 120 127 142 154 160 161 165 163 164 162 162 159 157 154
  95 102 104 103 113 117 112 130 133 133 136 135 123 111  79  60  62  46  15   3   1   5  24  29  36  43  51  49  37   6   4  10  26  73  96 130 127 113 124 144 149 161 163 159 159 155 153 157 157 154
  93  94 100  96 102 113 126 124 127 119 126 124 109 101  75  27  48  32  25  14  16  17  21  22  24  25  30  55  66  59  27  26  41  71  73 136 148 124 122 139 151 152 155 162 154 153 158 148 143 144
  86  93  96 101 104 111 115 113 120 129 131 123 112 100  77  27  19  22  24  25  32  31  44  39  36  47  76 103 111 115  92  54  32  47 101 152 161 151 128 129 137 147 146 155 153 155 150 151 153 142
  75  90  97  95 103 104 106 115 118 118 120 120 109  94  83  58  44  50  56  69  78  89  93 107 102 102 112 128 134 136 139 134 117 124 141 154 159 158 142 134 143 135 140 149 149 147 148 141 141 139
  79  91  89  94  97 104 101 112 117 122 122 114 117 101  92  89  90  89  91  89  97 109 118 127 135 130 130 138 138 151 136 145 147 152 153 155 155 155 157 141 132 135 137 139 129 137 134 139 132 136
  78  72  83  90  94  96  96 100 107 122 121 116 112 112 105 101 102  97 100 108 106 110 123 132 144 131 120 138 140 136 140 147 148 150 152 155 157 153 155 153 145 138 134 139 135 134 130 132 128 126
  71  72  82  86  90  95  97  97 103 116 114 114 113 108 103 101 102  96  98 108 105 107 118 131 133 130 117 138 140 136 144 140 145 150 150 151 154 155 158 155 146 140 134 133 133 137 132 131 111 125
  72  72  71  74  81  88  96  96 106 114 108 111 112 103 107 104  97 108 107 106 103 103 105 122 125 121 112 111 131 129 144 137 140 147 144 152 149 154 155 154 150 140 139 134 130 131 133 129 117 123
  70  74  70  59  66  86  92  98 108 109 102 108 100 103 107 107 103 103 107 107  99 101 102 110 112 126 127 125 131 131 134 134 143 141 140 148 145 151 146 153 150 144 141 137 131 123 123 116  86 113
  66  66  64  61  75  86  91  96 105 102 101  99  94  96  88 103 102 105 102 100  93  83  79  68  78  78  85  92  89  92 113 128 134 142 138 139 146 146 142 152 151 144 139 132 132 128 117 114  93 107
  58  67  73  65  81  82  93 100  99  94  96  93  97  88  96  98 100  99  92  90  71  70  60  71  56  89  92  92  95  91  85  86 115 130 135 139 141 135 139 133 151 148 140 136 135 131 127 119 113 106
  50  49  64  71  77  86  88  94  95  88  93  93  85  84  92  94  84  80  68  51  59  65  74  80  46  78  98  74  79 106 100  78  78  88 108 121 135 133 126 134 148 145 141 140 137 134 123 119 121 114
  55  59  66  75  63  81  91  95  91  87  89  83  79  85  82  77  63  46  47  66  58  47  45  48  58  61  79 100  76  89  67  87  89  76  73  96 116 125 130 135 141 138 138 135 135 131 126 118 124 120
  64  70  60  66  76  83  90  92  95  93  78  83  77  79  59  39  27  24  27  21  24  20  26  22  34  42  56  64  27  56  29  26  48  67  69  53  88 100 116 128 127 134 137 137 134 128 132 118 127 126
  70  73  57  73  82  85  88  83  89  88  80  76  66  50  27  21  15  22  22  13  10   4  10   8  15  19  20  24  17  20   9   9  15  30  48  52  43  86  84 107 116 116 122 133 133 129 131 129 123 130
  63  72  63  71  80  84  88  82  84  81  80  69  47  33  29   9  15  18  87  69  74  72  79  86  61  67  72  69  64  90  93 102 110 112 104  74  44  70  95  93  98 114 117 127 131 134 135 134 131 132
  67  77  77  81  82  85  88  85  78  76  70  56  57  53  73  46  53  83  98  81  86  95 131 122 138 115 141 107 131 135  85 143 122 116 121 113 113 129 110 108  95 107 120 128 131 130 132 132 133 129
  79  73  80  84  79  88  87  86  86  77  72  56  58  66  80  88  73  55  64  58  69  83  79  87 132  84 136 103 129 135 134 110 102 104 104 108 114 125 116 114 105 105 114 126 132 134 133 129 130 129
  81  78  72  78  84  78  85  87  84  73  63  71  63  66  55  56  50  59  50  34  38  58  54  74  94  96 102  87  96 103 106  96  94  89 101 103 108 114 124 122 112 106 115 123 124 125 124 120 128 127
  77  82  68  72  64  77  81  81  83  78  75  72  71  74  65  52  49  44  44  38  30  31  31  50  63  90  87  93  87  80  78  82  87  91  92  90  97 108 120 123 116 113 113 120 117 120 120 121 126 124
  74  75  69  70  65  71  77  72  78  77  74  78  71  75  74  61  50  42  33  48  51  50  45  46  45  60  65  65  70  64  72  80  79  80  83  87 101 110 121 126 117 114 113 114 116 116 111 126 127 124
  68  77  70  64  60  64  61  71  71  74  77  84  76  73  69  66  56  38  32  32  39  46  42  54  51  56  50  51  56  52  58  59  64  65  81  94 104 113 117 120 120 115 113 110 111 109 116 120 119 114
  76  70  79  67  64  64  56  61  61  72  72  79  74  69  71  61  60  57  40  43  35  34  32  32  37  36  35  51  41  42  44  51  71  78  88  95 101 109 118 116 118 124 115 109 108 104 114 124 117 129
