P2
50 50
255
  97  93  64  58  53  74  71  66  74  62  82  81  96  97  99  98 111 113 110 106 103 117 115 116 116 121 122 115 109 111 108 110 115 118 117 116 124 123 129 125 124 127 115 115 129  99 103  68 109 122
  83  68  40  32  52  56  44  32  38  59  37  64  66  81  86  98  95 103  93  95 100  99  97 104 102 102 106 101  97 105  96 107 102 112 118 112 111 106 107 107  98  88  93 102 103 111  98  81  64  81
  49  26  23  31  35  28  25  20  21  27  24  24  33  31  59  83  87  85  81  86  95  90  89  91  96  96  93  91  85  86  86  97  94  88  95  91 100  83  84  45  46  42  56  51  72  56  62  72  59  71
  31  31  17  23  16  15  20  21  21  17  12  10  13  25  30  44  67  65  70  72  79  78  78  73  83  80  79  88  78  79  74  76  80  72  41  62  46  38  29  21  38  27  26  41  43  69  67  79  68  62
  38  33  36  30  34  27  31  28  24  30  15   7  12   7  13  16  32  45  55  63  63  77  72  70  81  81  74  76  73  59  60  36  68  46  36  22  22  27  36  42  41  36  34  54  58  55  78 100 103 115
  55  51  31  56  45  60  43  45  48  48  41  43  32  24  17  21  20   8  16  44  60  66  65  67  69  76  72  67  67  62  71  69  56  37  52  33  44  32  33  51  62  66  67  65  71  90  98 107  95 106
  70  70  55  66  71  64  64  65  63  52  51  47  40  32  34  35  29  24  26  40  43  53  54  50  59  73  65  65  58  65  54  63  33  46  55  54  45  55  50  50  65  65  73  81  85  92  96  98 103  80
  59  71  71  76  68  61  61  57  35  37  27  28  31  30  30  28  25  32  34  41  38  43  53  59  65  75  76  63  52  51  71  61  60  51  51  38  33  33  38  44  58  77  90  86  94  87  97 100 104 112
  83  73  71  60  26  26   5   3   1   0   1   0   1   3  12  23  21  31  30  38  35  43  44  56  75  78  90  69  66  59  58  64  50  49  35  34  14   7   2   2   1   1  34  15   8  55  91  92 104 114
  76  64  23  42   9   7  58   5   6   4   1   5   4  50  17   3  14  22  28  33  40  51  52  67  86  92  93  87  84  82  62  50  43  33  34  21  40   1   7   2  11  23  26 104  66   4  48  58  87 105
  62  31  45   4   9  74  84  21  13  10   1  12  16  70  43  18   3  16  26  31  38  57  68  89 101 109 112 111 100  83  60  47  30  28  17  27  59   6  10   2   4  25  63 116 103  59  21  60  70  98
  54  39  21  14  11  36  84  84   9   9   4  10  70  57  21  14  12  24  20  24  40  68  87 100 116 130 135 130 115  74  53  40  26  24  18  29  53  61   3   6  29  32 119 121  82  33  44  46  61  96
  50  39  41  47  43  33  29  28  29  27  25  26  30  19  19  12  11  12  28  21  44  77 104 114 130 140 151 141 124  93  58  38  38   6  13  18  24  32  40  17  62  79  90  91  86  94  94  90  90  98
  63  60  56  58  60  49  42  44  37  43  32  30  34  29  29  31  26  25  28  36  65  84 113 122 136 154 159 155 138 100  75  47  43  33  37  34  35  43  54  67  79  77  96 109 115 119 124 124 130 130
  80  76  70  70  70  70  68  71  66  67  59  46  36  31  27  31  32  43  43  62  78 101 120 131 137 166 166 159 144 122  96  73  73  56  37  37  43  52  68  68  83  96 109 117 121 126 130 136 139 144
  88  85  85  80  69  66  63  63  57  55  47  46  43  42  37  32  56  71  75  84  99 106 122 134 145 154 169 158 147 136 122 112  95  92  65  43  43  52  53  71  78  87  96 103 103 119 134 143 152 149
  98 100  88  95  85  78  68  68  62  60  54  55  47  55  53  74  91  94  96  97 107 113 120 134 140 171 168 155 152 145 135 131 123 121 116 101  72  54  50  53  50  71  76  77 101 120 134 145 151 154
 102 101  94  97  96  88  85  80  70  61  62  61  68  86  93 104 101 104 106 103 106 105 120 131 145 155 172 160 151 149 145 140 137 151 145 137 126 123  85  85  73  78  98 117 128 136 146 155 155 155
 109 109 106 113 109 107 102 104  95  85  92  97 105 110 106 113 107 107 107 107 109 103 113 125 139 166 171 154 151 145 148 149 143 153 153 147 146 149 150 135 125 131 129 130 120 149 156 154 160 160
 116 121 117 124 129 126 127 118 115 116 111 114 118 122 116 118 112 114 108 107 110 106 115 127 138 162 169 159 154 147 150 151 150 149 150 154 160 166 167 159 161 163 164 164 158 164 159 162 165 156
 114 116 125 129 129 130 133 133 132 128 130 131 131 127 116 115 114 107 109 111 109 110 117 129 142 179 182 155 154 154 152 151 150 151 148 157 159 163 169 169 165 172 166 169 159 160 157 154 151 154
 109 118 122 122 127 131 136 136 140 136 146 132 134 131 122 115 110  99 100 101 102 114 122 131 148 173 212 160 155 154 151 147 143 142 165 156 159 156 166 169 169 173 172 174 168 160 146 143 145 144
 113 110 115 122 128 132 132 130 135 140 138 136 134 131 121 105  95  89  95  99 111 117 123 136 145 192 177 161 160 151 147 143 140 134 136 144 153 155 149 163 158 168 181 169 160 154 162 145 146 144
 102 110 118 123 123 133 136 139 133 134 136 134 129 118 103  92  78  85 111 102 128 124 130 137 146 173 188 158 157 152 149 143 143 127 118 125 139 141 152 171 158 168 160 155 172 157 154 148 147 141
 101 101 121 123 127 127 128 133 133 134 136 127 119 113  93  76  87 115 128 125 126 131 136 133 149 165 185 214 165 160 151 145 147 140  98 107 122 138 131 149 155 154 153 151 150 149 154 155 147 144
  99 100 108 119 123 123 117 132 124 129 127 126 118 102  81  77  99 126 133 135 126 122 135 139 143 150 151 163 162 158 158 154 154 155 128  88  94 111 124 135 139 149 151 147 147 140 148 145 145 144
  92 104 109 105 115 120 124 117 122 123 120 116 106  85  68  86 118 123 128 127 115 121 126 132 135 136 136 146 150 156 150 150 154 158 149 100  85  97 116 125 129 134 136 137 138 140 137 138 141 141
  92  96  96  97  97 112 109 115 118 111  98 105  90  79  63  95 106 106 111 105  98 100 106 111 120 120 130 136 143 135 137 136 143 151 148 118  78  88  96 109 120 123 131 137 139 132 130 137 133 135
  83  94  91  94  98 107  99 110 100 106 103  96  84  74  59  89  95  95  88  87  85  91  85  90 102 106 112 128 126 121 116 110 121 131 137 115  84  80  88 103 112 121 122 126 129 134 133 133 127 132
  76  93  85  94  96  94 105 101  96  93  92  83  79  72  64  83  86  82  10   4   1  64  81  86  90  86  96 106 104 104   3  11  87 109 119 117 102  86  84  93  97 111 118 117 127 125 134 131 128 130
  82  82  85  89  91  88  91  90  98  95  93  80  80  81  74  41  65  53  35  21  23  33  48  76  83  81  86  91  68  39  23  30  40  87 106 132 136 109  80  83  89 105 103 115 120 121 124 124 123 125
  85  83  87  83  84  85  82  88  95  87  89  77  86  90  72  51  36  25  28  37  32  33  39  44  73  80  74  50  56  66  47  47  25  57 132 152 150 138  98  87  94  99  96 100 104 115 111 118 116 118
  76  79  75  80  80  84  76  78  84  82  78  91  96  87  78  53  49  44  36  39  41  33  39  38  43  40  42  43  48  65  67  68  70  93 138 153 149 143 136 102  88  93  95 107 103 107 110 110 106 120
  73  79  68  74  79  76  79  70  80  83  90  95  97  90  70  48  42  41  47  42  42  42  35  42  45  36  37  50  51  69  78  85  99 122 140 151 154 151 140 134 101  91  93  98  99 108 110 105 109 109
  76  72  63  63  67  71  75  76  79  82  88  91  99  85  71  56  48  47  52  44  41  44  39  43  40  38  42  59  72 103 111 115 128 135 146 155 151 147 145 138 127  92  97  99  97 103 103  97  80  99
  66  74  65  63  63  75  76  75  77  72  85  88  85  89  79  66  51  54  67  52  56  40  38  37  44  44  52  71  91 111 123 127 139 136 144 145 144 146 143 136 131 124 107 106 106 104 102 102 100  98
  65  61  65  71  71  72  71  82  65  73  81  83  85  88  82  71  73  70  76  66  60  46  44  32  53  50  56  86 115 114 129 132 124 136 142 141 144 141 136 133 132 126 114 105 106 111 103 107 111 112
  67  76  72  59  72  74  81  71  61  77  77  80  78  83  97  91  90  88  83  74  76  71  83  80  80  83  77  96 120 119 132 135 132 136 139 136 131 137 132 130 131 131 123 118 115 104 108 106 114 116
  79  71  71  61  73  83  83  58  71  72  80  79  81  81  91  90  93  91  97  83  93  97 101 112 110 110 113 129 132 133 135 134 140 139 139 136 135 131 119 111 124 127 119 120 118 115 112 105 118 120
  72  80  62  72  74  78  83  78  77  70  65  76  80  81  90  91  95  86  85  81  66  70  81  95  95 133 110 101  94  99 106 132 123 131 135 133 128 132 122  89 117 119 121 119 116 116 121 117 115 123
  78  78  72  72  81  82  80  76  78  63  62  62  72  79  79  85  74  67  55  52  65  64  63  59  65 117  90  90  90  98  93  90  82 100 120 122 125 122 114  94  92 115 115 123 118 119 123 120 115 123
  86  79  81  77  79  81  74  79  72  74  62  50  53  64  60  51  43  43  51  56  66  50  64  46  54  81  79  72  86  93  88  92  75  66  72  86  94  88  90  76  90  86 101 116 121 121 123 123 123 125
  81  76  77  80  80  84  84  67  78  67  46  35  32  34  29  42  40  45  44  73  56  54  62  65  67  78  88  80  83  90  69  67  61  69  70  69  65  54  29  43  65  95 101 111 121 123 123 116 123 115
  83  81  75  78  75  75  88  82  75  66  49  28  18   0   0  16  60  73  84  95 100  76 102  95  90  58  52  62 108 121 106 122 104  89 103  31   1   1  30  44  49  85  98 115 116 124 112 115 123 112
  81  81  75  75  71  76  79  81  72  66  53  38  33  14   3   6  43  77   1  97 110  18 107 110 107  95 114 116 123 134 120 119 123   4 120  32  20  40  94  58  65  84 101 110 114 111 116 118 117 121
  90  77  80  70  66  69  78  77  78  69  60  46  40  41  22  21  21  30   4  17   2   7  96  98 105  69 108  99 112  91  68  68   9  41  83  90  94 106 101  80  83  83 103 108 110 107 118 112 119 121
  86  78  78  76  71  70  76  75  75  71  65  54  53  47  58  31  41  51  35  57  28  28  45  26   7  76  83  69  81  77  69  93 106 105 119 110 120 119 109 105  91  93 102 105 107 112 113 111 116 125
  90  81  78  77  72  66  68  71  71  75  76  66  63  58  61  57  56  78  85  81  94 103  85  70  56  57  61  71  92  99 101 101 135 127 122 117 123 121 113 110  99 101 102 101 102 110 110 110 117 156
  73  81  81  75  66  71  68  70  57  71  74  75  71  67  64  62  60  68  87  91 120 128 136 150 156 128 121 143 132 144 134 117 115 120 109 115 116 120 117 116 102 105 100 106  98 107 113 110 124 171
  93  81  75  72  58  65  75  67  75  69  73  73  73  62  73  63  63  46  70  78  88  96 109 125 125 122 107 120 107 126 102 107 116 108 109 111 118 118 119 114 113 106 106 102 104  97 104 106 169 172
