P2
50 50
255
  97 103  91  81  85  92  95  92  92  93 102  92  96 102 105 112 108 110 107 111 110 113 116 121 110 118 116 107 107 112  98 114 123 118 120 126 127 124 125 130 117 126 114  90 124 108  92 100 117 123
 101  77  76  55  53  72  64  56  73  54  73  77  86  88  93  94 104 112 105  97 107  99 103 107 100 108 107 104  95  95  97 104 108 108 111 111 107 107 104  95  96  72  66  99  81  87  96  80  76 104
  87  65  39  33  23  25  29  25  25  29  30  38  47  55  74  90  90  94  88  95  92  95  90  92  93  96  98  94  88  91  93 100  95  93  95 100  91  83  75  48  55  48  57  68  73  74  52  68  51  90
  54  31  27  37  23  16  15  18  19  14  12  22  17  22  45  69  68  78  81  75  80  84  78  78  84  90  85  91  73  81  82  84  81  61  45  58  42  31  27  29  29  26  41  46  66  68  69  88  79  61
  33  29  37  31  23  18  29  20  21  13  16  12  12  10  20  28  28  63  60  64  72  75  69  73  76  84  76  78  71  62  66  49  68  50  35  29  16  24  34  42  35  30  40  68  54  68  95 110 119 101
  48  29  37  48  44  48  42  36  50  37  29  23  18  20  17  24  28  19  29  35  59  66  64  65  66  79  72  74  67  57  66  60  57  32  36  32  48  38  34  61  58  72  76  73  82  95  91  95  98 102
  61  59  51  46  67  57  68  67  59  55  50  46  46  35  37  28  31  24  31  34  45  59  56  51  63  70  67  62  61  61  59  64  34  56  47  48  55  49  62  54  67  65  73  87  90  98 108 104 100  93
  44  60  59  65  71  68  68  63  64  50  47  44  38  34  34  28  31  38  29  38  43  56  55  65  70  72  67  64  54  56  54  56  58  49  44  37  32  39  45  48  62  71  78  81  79  88  93 103 104 104
  70  69  77  67  51  14   5   1   1   0   0   0   3   7   9  25  24  23  34  37  25  44  56  62  74  80  85  67  67  72  56  62  49  44  30  36  11   1   1   1   1   3  31   3   5  29  64  85 100 100
  68  66  50  14  11   2  33   7   3   3   2   7  12  44  18   3  15  20  26  32  41  46  50  70  83  93  96  87  84  77  66  52  39  19  19  22  34   5   5   2   8  37  84  88  44   4  37  38  77  91
  55  26  22   2   2  10  46  37  19   5   1  14   6  65  39  18   3  14  15  24  42  55  68  89 102 110 106 111  95  81  49  41  24  24  22  37  55   7  16   1  20  34  88  76  18  13  13  38  80  89
  42  22   3   8  16  16   9   9   5   3   1   3  31  24   7   7   5   7  16  19  31  54  81  96 108 123 131 124 107  72  46  35  30  19  17  12  23  19   1   3  15  67  80  80 102  89  59  63  63  87
  33  57  64  70  73  73  76  60  43  41  28  30  29  26  24  21  11  17  17  19  37  66  95 113 125 133 147 136 123  76  47  34  34  10  21  25  37  46  52  67  79  77 125 136 135 127 121 119 118 117
  66  64  62  58  60  65  72  75  72  74  60  47  47  38  30  25  22  24  27  29  56  78 107 122 133 154 155 150 130  95  67  45  47  39  37  39  50  44  62  74  89 109 110 114 113 106 123 134 138 138
  88  93  90  82  84  71  62  60  57  51  51  45  39  41  36  23  39  50  53  56  70  96 120 125 133 163 161 152 143 113 102  75  72  64  45  40  41  47  55  66  73  83  93  91 109 119 133 148 154 151
 110 108 116 100  63  54  58  52  49  53  46  41  30  38  48  62  80  78  84  77  93 102 119 134 140 156 163 157 145 131 121 112 108 114 101  74  39  39  48  49  50  58  56  65 101 140 154 158 157 156
 115 120 123 129 136 123  94  66  37  31  37  59  80  94  96  99 102  91  92  91 104 112 120 134 140 165 164 157 148 143 136 129 125 133 133 137 115  96  71  55  62  80 114 130 130 154 161 162 158 153
 109 114 127 135 142 142 138 124 119 116 116  97 108 125 104 108 102  99 103 104 103 108 116 139 147 158 163 156 150 145 144 140 133 140 138 140 147 141 140 144 140 132 147 152 156 162 163 157 150 150
 110 114 120 124 137 148 151 148 147 137 126 124 119 111 111 107 102 108 111 109 110 110 120 131 142 163 165 158 151 145 146 143 143 143 148 147 141 156 154 160 159 155 159 163 169 164 156 143 143 144
 104 108 113 124 131 138 145 149 148 150 144 129 131 116 117 116 105 113 117 115 108 111 117 128 143 162 169 162 155 147 148 150 143 142 142 148 151 150 149 153 157 163 162 162 164 154 148 146 143 143
 104 111 121 127 131 137 147 142 148 151 148 137 133 126 117 117 117 109 106 107 112 109 114 124 144 168 179 162 156 153 148 144 144 147 153 146 157 150 155 154 147 145 155 159 163 153 148 145 143 137
  99 100 116 125 132 133 134 146 140 140 141 135 131 123 112 103  94  91  99 101 109 117 120 129 141 166 196 165 155 153 149 143 139 134 140 148 148 153 154 163 151 149 146 158 143 148 148 148 147 144
 105 110 118 123 123 125 128 133 136 133 131 126 130 113  94  77  87  95 110  97 110 117 124 132 143 173 191 166 156 155 148 140 139 129  98 114 126 147 144 155 144 145 154 142 140 139 145 147 146 146
 108 107 108 118 126 124 126 129 129 126 121 118 108  86  61  87 116 122 130 122 123 126 124 134 140 169 181 168 162 153 150 144 143 143 129  78  78  98 109 120 135 138 137 140 134 138 137 141 142 147
 108 109 102 110 116 118 119 118 116 118 112 100  77  61  68 100 125 130 138 134 126 127 133 134 141 151 153 166 158 156 153 148 152 154 140 124  62  63  87 105 118 119 129 124 130 130 131 136 139 139
 104 104 105 107 107 118 117 111 106 104  89  81  56  56  88 115 124 126 133 130 122 121 130 134 135 139 142 151 153 152 153 153 162 156 153 136  86  61  58  78  97  99 119 123 126 124 134 130 136 135
 103 100  99 102 104 110 110 105  92  88  73  53  59  60  91 109 111 118 115 119 114 117 121 128 126 129 134 143 145 144 140 138 148 151 148 137  91  73  56  66  73  86 100 110 116 119 130 128 129 131
  97  97  95  99 102 103  99 100  86  62  53  64  74  67  75  94  93  91  95  92  95  95 103 110 114 111 119 128 127 128 126 115 127 128 131 124 114 110  77  64  66  80  87  99 107 111 121 126 124 125
  89  93  92  93  96  90 101  77  59  50  71  72  87  78  43  82  81  43  11   5  84  87  83  85  92  97 109 118 116 113 100  95 104  95 109 115 131 118 102  69  63  74  79  85 102 105 108 111 118 122
  85  91  88  83  82  88  77  49  46  55  81  86  89  72  48  45  32  37  39  32  39  50  81  85  86  90  96 101  85  68  59  53  33  39  89 120 135 124 104  91  58  61  77  80  87  94 103 107 110 118
  77  78  82  83  77  72  62  51  71  69  85  88  85  76  54  48  41  38  39  38  38  37  37  71  80  83  85  60  46  48  47  50  66  73 103 125 134 130 119  99  85  57  66  73  84  95  97 105 106 108
  64  71  72  78  79  68  46  55  68  72  83  80  79  71  54  44  45  40  37  37  38  37  33  36  37  37  37  37  42  42  50  68  70  89 111 129 138 137 121 104  90  80  58  64  80  90  94  99 100 101
  67  61  67  73  79  58  45  62  64  72  88  86  70  67  45  38  41  47  41  44  39  36  32  27  37  33  35  33  38  43  61  69  84 106 123 132 135 131 123 105  97  85  73  65  78  84  92  89  92  93
  70  73  71  73  63  31  41  50  68  81  89  92  88  68  50  42  47  41  40  44  34  30  23  30  37  33  32  33  38  58  82  94 109 111 126 133 134 131 122 114  93  92  89  76  71  75  88  91  91  98
  68  71  73  71  41  24  45  63  80  91  89  87  88  76  67  59  61  45  42  36  32  30  26  27  28  28  30  37  54  86 100 111 118 123 132 136 137 130 124 118  96  96  95  91  80  79  81  91  96 100
  68  58  67  71  38  37  47  49  69  84  80  78  84  80  73  73  71  64  56  43  37  29  24  22  34  33  52  75 105 109 122 128 129 134 138 139 136 136 127 112  91  90  97  98  86  89  89  94  94 107
  68  74  76  78  39  55  61  58  62  74  72  82  82  81  79  75  77  72  73  69  68  62  66  65  78  97 104 111 110 123 128 130 127 130 136 139 137 133 122 115  89  80  92 101  94  97  88  97 109 110
  70  74  80  89  61  56  69  55  57  63  65  70  68  61  67  58  56  59  50  49  56  59  62  57  82  96  81  92 102  97  92  94  91  98 111 118 123 125 122 102  88  76  71  95 100 101 103 107 110 112
  80  75  82  91  88  61  67  59  43  49  50  39  31  37  38  35  54  61  50  64  60  65  56  58  58  74  75  73  76  84  85  80  79  74  77  80  88  95  81  62  57  53  74  83  92 105 106 113 111 117
  78  81  84  95  96  69  72  63  34  31  21   3   3  10  26  36  42  49  38  24  19  25  58  72  71  79  89  84  87  68  38  41  40  53  79  85  65  31  10   6  30  30  67  83  99 106 112 112 110 114
  75  73  81  92  97  92  69  63  39  33  12   2   0   4  20  48  68  63  39  67  82  63  43  65  67  39  46  75  90  83  72 123  89  92 138 117 114  14   4  16  57  43  71  79  99 107 116 111 110 113
  77  70  78  78  94  95  78  68  52  39  42  24   6   1  12  80  64  99  61 105 121  96  69 118 124  73  80 141 155 123 111 157 145 139 160 135 102  14  18 106  67  66  73  83  97 103 110 110 112 110
  80  71  69  76  87  93  82  74  60  56  49  66  27  15   3  59  64 113 110 127 139 141 129 143 147 150 137 164 171 175 157 170 168 150 164 133  75  83 125 107  91  83  73  92  97 100 104 110 106 108
  74  77  74  79  86  87  84  77  70  60  62  66  65  42  34  23   7 111 113 136 146 144 148 155 158 162 162 168 174 182 166 173 168 127 162 110 110 126 127 115 107  92  87  94  99 103 108 105 108 111
  79  72  79  73  72  80  81  72  78  77  64  63  68  66  49  44  47  93  15  29 135  44 147 151 152 160 160 164 169 169 119 165 118  88  90 112 124 135 122 118 120  98  99  91  98  99 103 105 102 111
  80  76  75  71  72  79  74  66  76  81  70  68  67  67  66  63  65  73  70  45  36  23  75 141 137 127 127 150 150  84  58  87 112 133 130 117 124 128 121 121 118 102 101  95 101  97 101 100 106 128
  87  77  69  64  71  73  78  72  60  72  73  69  73  73  67  65  70  86  89  97  81  92  64  45  40  78  70  48  71 101 116 145 132 125 120 118 123 124 120 119 113 104 101 100 100  99  97 103 109 164
 105  74  73  66  71  72  74  73  60  62  63  74  68  71  67  67  56  76  84  88  93 136 131 156 131 158 156 135 125 127 119 118 119 114 111 122 123 123 121 120 110 102 107 102  94  97 102 107 134 168
 107  78  74  66  71  65  72  80  70  58  41  54  67  68  70  68  68  60  67  82  89 102 110 125 125 118 122 115 118 108 111 114 109 109 110 116 122 116 122 120 112 108 108 103  93  98 102  97 167 169
 110  82  58  69  65  63  68  75  80  61  54  57  66  67  67  60  73  67  55  66  76  85  92 101  98 100  97  94 100 106  94  92  91 104 107 112 118 119 121 116 115 115 109 101 102  95 102 153 167 169
