P2
50 50
255
  96  95  72  72  60  78  76  83  79  76  86  85  92  97 103 102 108 105 105 107 107 114 111 119 118 116 112 115  99 112  97 114 117 116 117 117 126 126 123 126 124 123 107 109 127  99  85 106 107 122
  75  67  51  45  49  54  44  50  53  51  48  62  70  83  86  95  92  98  94  94  98  96  96  96  95 107 100  98  93  95  96 102 103 103 110 114 107 102 102 104  97  81  65  91  83  85 105  86  70  84
  63  24  29  32  29  30  30  16  20  24  16  24  33  42  61  76  83  88  84  80  88  91  84  92  89  97  91  93  86  77  88  94  95  93  91 100  83  81  80  45  42  52  56  64  82  78  63  65  54  87
  37  26  23   9  15  19  20  17  17  18  12   8  10  24  26  47  65  69  74  61  75  80  75  80  80  84  86  88  79  78  73  80  80  59  46  52  32  32  38  27  28  26  37  55  59  74  69  86  84  76
  39  41  21  18  35  29  27  25  18  28  17   9  14  11  12  13  35  45  57  61  64  71  71  77  72  76  78  77  69  66  62  42  72  53  29  24  23  29  29  43  31  40  42  57  57  68  91 105 117 107
  46  54  52  60  39  57  55  52  47  47  39  41  33  24  17  12  23  22  23  48  53  68  63  65  73  73  72  72  68  59  74  67  54  29  38  33  40  44  42  62  63  69  75  74  77  94  92 101  93 107
  73  46  59  57  68  61  62  64  63  49  55  49  38  33  32  31  26  22  34  35  43  47  54  53  61  67  65  62  61  58  61  61  41  54  55  54  48  48  49  52  62  68  77  82  90  97  97 101 100  93
  62  74  74  77  70  65  66  50  25  25  16  15  22  29  29  27  28  27  37  38  41  43  54  62  75  75  74  52  58  60  67  63  64  52  45  33  36  41  42  52  62  72  89  77  83  93  94 104 106 111
  78  79  72  63  23  17   6   2   1   1   2   1   1   9  16  13  20  30  29  38  39  40  55  59  76  79  89  74  76  63  69  57  46  40  37  32  12   2   1   1   1   1  31   6  12  25  77  92 103 112
  78  64  19  36   5  20  71   6  10   2   1   6   4  51  27   5  15  17  24  30  47  52  57  70  87  96  93  91  90  85  62  52  34  27  19  23  43  10   5   1   6  44  54  98  69   6  63  45  87 103
  59  35  32   5   7  71  83  44   9   5   1   8  27  65  34  23   2  13  25  26  42  65  74  89 104 116 112 114 100  79  48  41  21  27  17  40  64   7  12   1  20  32 101 110  96  35  16  56  77 100
  53  24  19  24  20  11  38  71  10   6   5  11  48  16   7   6   4  26  20  24  38  64  88 108 112 129 131 127 113  76  48  36  31  12  17  14  47  55   5   6  28  50 109  74  66  80  57  71  76  96
  44  41  39  46  43  30  29  36  29  34  29  28  25  25  28  20  20  18  22  27  44  67 101 114 132 139 151 147 126  84  49  43  44  19  17  25  40  54  65  87 109 120  90  84 100 107 101 108 105 105
  65  67  66  60  68  62  64  66  59  49  44  41  34  37  32  21  21  22  27  35  61  90 112 122 134 155 161 150 132  97  74  47  50  40  35  37  36  51  48  68  78  97 108 119 124 126 126 134 131 135
  83  80  75  70  68  68  73  70  72  64  55  42  35  34  28  25  29  49  56  69  81 100 121 129 138 147 162 154 138 122 104  80  74  69  37  37  46  48  58  55  83  96 102 113 113 119 127 134 137 143
  81  84  86  76  78  72  58  53  50  44  43  43  42  36  39  38  72  90  80  81  97 108 120 132 142 159 166 155 144 136 125 115 107 105  91  57  44  40  51  61  73  78  85  94 107 125 134 141 144 148
  95  91  90  85  88  82  74  73  64  54  53  43  54  63  78  98  96  96 101 101 102 112 119 132 152 152 163 156 150 140 138 134 126 141 125 116 101  76  52  55  61  66  76  91 121 127 140 147 150 152
 100 102  99 101 109  95  98  90  82  79  82  91  94 105 107 108 109 107 108 105 105 108 114 133 147 160 160 157 148 146 142 139 139 149 149 150 145 129 130 116 111 101 121 136 141 149 156 155 157 157
 113 115 119 122 124 120 119 118 111  97 107 107 107 117 116 115 108 113 113 108 105 108 116 130 140 160 160 153 152 145 150 148 145 149 158 155 165 155 143 153 153 147 154 155 154 159 158 156 158 154
 114 116 125 127 127 129 131 133 129 126 127 130 128 125 123 124 117 117 115 109 103 113 116 129 137 164 164 158 158 148 148 151 146 149 152 160 156 155 163 164 160 163 164 171 157 164 161 156 151 150
 108 117 122 121 128 130 136 131 136 135 136 137 138 139 129 122 116 104 109 107 112 113 117 131 154 170 169 158 155 154 148 145 148 150 159 157 160 161 164 171 167 170 165 170 164 156 155 145 145 149
 110 111 118 121 128 132 131 134 134 136 136 135 134 126 121 118  93  90 103 107 108 113 124 128 150 170 179 161 156 155 150 144 140 135 139 153 155 161 155 153 166 168 171 169 165 161 155 150 153 147
 108 113 114 126 124 131 132 138 132 136 133 130 127 113  96  78  71  91 107  99 115 121 124 139 155 175 171 161 157 151 148 141 139 115 101 116 135 146 150 157 161 162 164 158 168 160 154 150 148 144
 105 104 124 123 125 125 127 133 126 126 127 122 117  96  68  80 105 123 130 121 127 125 128 136 142 169 206 169 159 155 151 144 143 139  77  86 115 118 147 155 148 148 157 150 150 152 155 152 148 146
  94 104 110 120 123 121 121 127 125 126 120 110 102  75  61  94 120 129 136 131 127 125 129 138 143 171 171 167 158 157 153 144 151 153 131  66  76 100 117 126 143 144 148 147 146 142 149 144 147 145
  97 100 107 105 120 118 122 119 119 116 110 102  86  44  63 105 124 124 132 131 122 121 129 132 137 139 144 153 152 155 155 152 158 156 150  88  58  75 102 114 123 130 134 141 142 145 141 142 143 142
  91 103  98 102  99 109 109 109 104 108 103  88  56  51  71 108 113 119 117 113 108 109 122 126 131 129 136 138 142 145 140 143 144 151 149 139  57  58  85 100 121 123 129 132 132 135 136 139 135 140
  87  95  97  89  97 109 107 101  93 100  94  69  46  50  64  91  95  92  94  90  96  91 107 106 109 113 111 129 128 129 123 119 128 130 136 123  79  63  67  82  93 104 117 124 127 130 135 128 133 134
  83  85  85  94  98  96 104  99  97  83  74  58  61  64  44  84  88  80  17   6  74  82  85  89  92 103  97 116 117 104  99  91  98 108 110 110  99  69  63  82  82  94 107 114 122 122 132 127 132 131
  85  85  86  91  91  89  91  91  94  88  68  58  66  72  58  49  47  42  41  19  23  40  77  80  87  87  90  97  84  48  46  47  45  73 100 127 123 104  68  68  74  84  92 107 117 116 121 125 122 125
  85  82  86  84  86  86  85  85  86  78  67  78  84  76  55  38  42  42  39  39  30  33  37  71  78  81  83  64  51  45  52  47  55  76 118 130 134 118  98  68  70  74  87  93  97 104 113 113 119 113
  79  82  81  79  77  84  77  77  78  67  75  83  86  76  56  46  47  36  39  41  47  35  41  35  37  37  37  41  49  60  65  65  70  92 121 139 140 130 120  95  71  77  81  94  95 101 101 103 108 109
  82  80  64  69  75  71  72  73  74  74  82  86  85  78  57  44  39  39  41  37  39  37  30  29  36  35  34  37  36  51  68  76  93 115 129 139 143 138 128 117  97  75  82  89  86  95 104 103 105 105
  76  74  64  65  70  70  76  73  76  68  79  85  81  77  54  43  38  41  41  36  30  37  33  35  36  37  32  36  50  77  90 103 111 123 133 140 142 132 130 126 119  95  82  86  87 100 101  90  88  98
  71  77  67  58  70  75  73  77  65  64  81  75  81  79  64  50  44  47  38  43  35  35  39  39  32  29  30  55  70  97 108 117 121 127 136 133 141 137 128 123 124 119  99  90  86 102  98 100  99 103
  59  68  72  68  72  69  77  75  51  77  78  76  80  81  81  71  71  72  56  50  48  36  32  32  35  40  41  68  90 107 122 131 130 131 137 139 135 138 127 122 122 126 113  99 100 101 101 102 107 110
  74  75  74  67  72  73  79  62  54  74  77  84  77  85  86  83  88  79  74  69  71  59  55  51  64  73  86  96 122 125 132 131 139 143 139 136 135 131 117 108 118 121 119 107 108 103  97 105 110 113
  79  73  68  58  72  76  81  59  68  73  65  79  86  85  87  91  89  88  87  81  84  83  81  94  91 129 119 103 103 109 113 124 131 137 141 136 133 134 128  91 110 118 122 114 112 104 112 106 110 117
  75  72  65  74  75  78  80  73  80  68  67  66  80  86  89  82  79  73  56  66  59  72  52  58  72 108  83  90  96  93  95  89  92 112 121 129 134 130 118 105  97 101 114 118 114 112 113 114 116 119
  81  78  70  75  77  80  81  77  80  68  59  57  66  69  64  48  43  50  63  60  63  60  59  50  45  68  73  52  76  81  83  82  79  74  78  87 100 105 105  93  92  95 101 110 112 119 120 121 120 122
  85  80  81  78  79  80  84  77  79  64  58  55  44  54  44  49  53  48  24  62  69  30  40  69  68  73  83  83  83  67  51  82  46  64  66  67  76  66  41  46  52  82  95 107 111 112 120 117 120 124
  84  79  81  78  81  80  81  78  77  72  66  36  28  24  29  38  48  72  41  94 100  56  88 107  92  51  78 105 116  69 102 124  78 104 117  61   4   1   5  42  54  80  94 108 113 120 120 113 119 111
  87  81  79  82  79  76  85  85  74  75  59  38  28   2  12  24  73  97  75 108 110  93 120 119 116  78 117 131 138 127 125 135 124 117 130  12   6  19  48  59  64  71  96 105 112 117 108 113 119 117
  84  81  84  74  74  73  82  81  74  67  59  53  41  32   5   9  70  95  74 112 116  98 123 123 127 117 133 139 146 155 135 139 127 114 127  48  61 105  97  78  82  84  99 107 111 114 118 109 115 123
  88  78  81  75  74  78  81  81  75  69  61  55  48  39  41  19  29  39   4  19  77   1 119 121 121 112 139 141 146 151 138 136  50  84 114  99 106 119 113 101  96  95 100  97 107 112 114 114 117 117
  81  82  83  78  68  75  75  79  75  68  70  61  55  52  55  44  46  65  55  58  37  32  37 114 107  74 116 122  82  58  89 103 105 131 120 114 119 117 114 115  99  97  99 100  99 105 110 109 112 135
  80  88  79  78  80  80  69  69  70  67  70  70  59  60  61  59  53  68  84  82  87  94  94 101  67  79  60  60 109 109 119 139 130 124 116 113 111 117 115 114 100 101 101 101  99 106 106 109 115 166
 101  85  80  76  72  74  73  71  69  66  71  77  69  67  69  64  64  65  81  90  95 136 139 138 158 132 145 139 139 141 111 112 116 118 114 108 116 115 116 113 109 106 100 102 100 102 103 111 143 167
 103  69  80  79  75  69  72  66  69  65  71  74  73  70  70  63  65  46  67  70  84  85 109 113 122 124 127 118 112 108 115 110 115 105 104 110 111 117 119 112 108 108 103 101 101  90 107 105 164 167
 105  81  77  77  74  65  64  71  70  68  61  68  68  70  69  62  69  59  48  55  66  78  83  96  99 101 106  96 100 103 103 108  91  92  95 105 105 116 119 115 105 110 106  98 102 109 100 156 164 166
