P2
50 50
255
  89  99  74  69  75  81  83  82  82  94  82  90  96 101 106 110 113 114 113 110 115 112 115 118 116 120 112 110 111 107 104 115 122 120 122 127 131 126 125 134 125 102 121 138 116 122 111 114 135 137
  73  63  54  55  46  69  49  55  56  51  68  65  74  87  95  95 100 104  98  95 102  98 102 105 107 109 108  99  93  93 102 110 109 109 117 118 107 107 111  93  96  99 119 122 113  86  74  69  94 127
  63  18  25  32  26  36  29  28  22  28  29  31  41  55  73  82  89  89  86  89  90  96  91  89  95  96 101  93  88  86  91 100  96 102 106  94  85  87  74  63  56  41  59  80  80  76  66  80  51  69
  47  30  22  20  14  30  21  16  18  16  10  16  24  27  39  61  71  69  80  72  79  81  80  83  82  87  88  89  76  76  72  85  82  79  77  61  42  43  45  36  47  49  37  33  68  72  71  86  79  60
  48  42  26  25  29  20  22  27  20  19  16  14  19   4  18  24  32  53  58  65  71  77  80  78  79  81  79  76  71  56  67  71  64  64  40  27  22  32  37  38  24  28  54  63  69  47  87 117  91  95
  59  43  54  52  44  45  45  52  38  41  44  31  25  22  21  20  23  22  32  47  60  70  61  67  75  80  76  78  72  51  63  55  48  30  30  39  65  39  32  58  66  66  67  67  71  91  90  97  97 111
  59  50  62  45  65  66  60  65  60  57  50  47  43  34  36  32  23  25  28  26  39  59  65  69  69  75  67  64  60  66  60  61  39  49  58  53  58  45  49  57  67  69  76  90  91 101  94 102 103 106
  67  77  75  70  71  64  66  47  35  29  23  29  29  34  29  28  33  29  32  45  47  44  49  65  73  77  66  62  51  58  41  53  59  56  46  35  33  34  44  52  66  71  84  88  90  97  98  99 111 112
  81  74  75  56  12  21   3   2   0   2   1   1   2   8  18  29  21  22  36  39  37  36  51  66  75  81  85  73  70  73  53  63  48  45  30  37  15   1   1   1   1   2  35   7  21  80  94  97 112 117
  77  67  13  36   6  26  71   8   5   2   2  16   4  46  21   4  16  24  28  38  40  58  60  67  93  97  94  91  91  84  59  51  42  28  15  26  44   3   5   8  14  19  99  94  41   9  42  78  96 109
  63  27  24   7  15  75  84   8  12   4   4  12  43  66  26  10   7  12  30  29  45  63  75  89 104 116 102 106  97  83  46  43  22  36  21  43  69  12  16   2  20  23  97 105  92  35  21  67  83 107
  52  26  13  17  13  17  72  76   7   2  12   5  62  47  10   9   3  23  23  23  40  65  87 102 117 126 131 127 105  74  43  36  29  23  22  31  57  25  12   7  30  42 116  87  41  43  60  53  90 103
  47  42  43  46  39  20  30  34  32  31  25  27  32  23  20  13   9  23  22  30  48  75 107 115 133 144 144 139 114  75  43  40  62  14  20  24  20  42  46  55  70  92 107  96  96 104 101  90  94 109
  66  67  60  63  62  61  55  58  53  43  40  38  38  33  29  25  29  30  32  35  63  91 117 125 140 163 157 150 126  94  61  42  51  34  37  35  39  45  51  80  78  84 103 118 123 125 126 128 127 130
  81  81  73  71  76  70  80  74  71  58  50  39  38  27  32  29  25  41  45  65  79 105 120 135 135 165 159 152 136 107  91  69  67  63  35  36  43  54  64  77  92 101 113 121 117 124 128 135 141 142
  82  87  82  79  75  70  65  59  52  49  47  46  42  43  34  25  67  81  82  84 101  96 125 134 144 149 167 154 143 134 120 110 103  89  76  45  48  50  60  67  79  84  95  98 107 125 139 143 145 148
  92  93  91  84  83  78  72  66  61  58  51  50  51  58  70  87  91  97  94  97 103 115 122 137 156 160 162 151 147 144 137 125 129 134 113 103  74  56  51  52  62  55  68  84 107 133 140 150 151 151
 101  95  99  94  96  95  86  79  77  80  75  82  89  98 110 107 106 107 109 101 105 109 119 131 145 159 161 163 150 146 141 138 142 147 157 140 124 127  98 100  90 106 116 151 140 154 154 157 156 156
 109 116 113 121 123 121 120 116 106  98 101 111 113 114 114 117 109 109 112 112 109 105 120 132 154 164 160 161 151 148 153 148 146 148 160 161 149 161 150 145 133 150 144 147 145 160 156 163 161 156
 117 115 122 129 125 130 134 125 124 124 123 125 137 125 122 126 121 114 112 107 104 108 120 135 144 164 161 157 152 149 150 149 143 155 159 162 163 166 160 155 163 169 163 165 163 168 165 161 156 153
 107 120 124 122 127 134 137 137 135 133 131 138 139 130 129 123 116 113 109 108 110 116 120 133 153 172 172 158 153 151 147 148 150 147 155 163 167 161 164 169 163 167 164 163 165 156 160 149 145 149
 112 113 117 120 128 134 134 136 135 136 139 137 135 126 123 114 102 101 104 107 114 114 126 140 154 166 168 161 156 151 149 146 143 145 150 156 158 152 157 156 161 170 168 166 169 155 155 137 151 149
 106 113 120 124 129 134 134 137 134 136 134 125 130 113  95  84  83  88 102  97 119 117 129 144 164 177 174 160 158 153 151 141 136 112 129 137 152 150 168 167 158 161 161 165 164 157 152 149 147 144
 105 116 121 124 132 132 135 131 138 138 133 127 118  93  70  71 103 122 130 106 131 124 126 139 141 177 190 163 154 153 148 145 143 125  84 110 120 137 141 135 151 163 156 150 148 153 154 151 150 143
  93 105 116 119 125 118 123 128 126 127 122 114 100  71  68  96 122 129 141 134 129 129 138 139 161 161 180 173 158 160 152 148 151 146  90  70  95 113 129 134 146 141 152 154 152 146 153 148 149 148
 107 106 109 107 117 120 122 125 121 120 111 102  79  44  70 113 127 132 132 130 124 126 135 138 141 145 152 156 159 158 158 158 158 155 139  77  68  92 118 125 132 136 145 143 143 141 147 147 145 138
  98 106 100 105 111 110 114 108 109 110 103  87  62  46  86 110 121 122 121 121 115 122 126 129 132 136 141 147 150 149 145 150 154 156 144  90  59  71  92 104 122 126 129 140 134 142 129 141 143 139
  90  95  94 100 101 110 111 109  97 100  92  65  52  51  84  98 101  96  99  94  99 100 109 112 115 114 131 134 136 132 130 128 137 139 143  84  67  66  80  88 105 118 125 131 134 136 134 134 132 138
  83  91  93  98  98  99 101  98  92  93  82  59  57  55  51  91  89  90  61  75  86  92  93  91  93 104 116 122 115 115  99 103 105 119 123 102  90  64  67  83  98 107 119 123 119 128 131 133 134 135
  85  91  87  91  94  93  91  87  96  87  67  62  65  75  48  67  63  31  34  20  25  65  82  83  93  92 100 105  88  26  16  35  43  92 107 131 114  85  60  80  83  94  99 116 113 124 131 126 129 127
  80  82  86  81  87  83  83  92  86  73  67  75  82  78  47  43  40  29  37  38  37  41  42  80  84  81  88  78  64  65  35  36  52  83 124 138 130 110  83  71  81  86  93 106 108 118 115 122 121 121
  77  82  76  80  81  82  81  86  71  69  74  86  87  72  51  37  41  37  37  40  38  44  38  38  43  49  39  49  60  62  64  75  73 101 132 142 141 129 106  69  74  83  92 102  95  98 109 110 102 115
  75  77  80  72  72  76  75  67  71  71  82  84  83  78  45  38  42  47  40  34  35  21  34  35  37  35  33  39  51  52  65  77  90 119 127 143 144 138 137 111  75  80  86  88 102 104 107 108 113 113
  78  74  63  73  76  70  75  78  69  72  79  85  84  73  41  43  41  36  46  32  32  29  28  31  36  29  39  41  54  77  86 101 110 131 131 142 144 137 136 122 110  75  88  90  91 101 103 104  80 107
  69  75  67  59  67  75  72  78  69  65  81  82  80  78  64  42  40  35  34  45  36  35  26  36  37  34  35  63  80  92 107 114  93 134 135 132 137 140 130 131 123 107  96  95  96  94  97 101  92 112
  63  73  65  75  65  69  79  77  52  73  81  75  83  81  80  70  62  70  54  46  40  31  30  31  36  42  40  77  94 110 125 126 131 135 143 141 138 136 129 130 128 119 101  96  96  99  95 104 107 116
  69  74  70  74  70  74  85  63  61  72  82  83  82  86  85  80  81  81  74  73  51  46  42  39  61  61  76  95 119 125 130 133 140 140 141 137 133 134 130 116 124 127 114 105 105 104 110 102 114 122
  77  75  71  57  69  76  76  49  73  70  67  77  81  82  90  94  86  87  87  84  84  88  92 102 108 126 121 111 105 111 133 134 135 136 140 139 137 131 109  91 117 121 118 110 105 100 103 107 117 122
  78  76  70  74  74  77  75  74  77  75  67  75  82  89  93  83  80  71  64  78  56  61  67  66  85  96  88 110  96  99 100  91 107 124 131 136 137 122 115 117 110 117 116 114 110 116 117 116 113 123
  77  81  69  74  73  82  82  73  77  63  60  64  69  84  68  50  48  49  50  64  51  53  63  50  67  83  74  65  86  93  92  91  80  81  91 105 108 121 103 101  89 106 114 121 114 116 123 119 117 118
  87  81  80  75  74  80  82  77  74  73  63  54  43  51  47  52  53  56  22  51  48  61  69  71  77  74  85  77  76  76  72  71  63  79  71  77  81  77  72  67  88  91 102 111 113 118 118 126 117 121
  88  79  82  83  79  83  84  72  75  66  48  43  38  32  37  34  54  58  45 100  86  39  88  93  71  66  81  97  97  57 103 113  70  97  76  74  67   2  27  43  69  95 100 110 119 122 123 121 119 121
  82  79  81  81  83  80  85  81  74  67  41  34  26   1  13  24  89  90  97 113 112  68 116 120 112  58 123 129 133  90 128 135  91 123 134  28   2   3  46  63  65  83  98 117 119 118 109 116 112 124
  88  81  85  71  81  67  82  78  76  66  46  43  33   6  11  10  96  99 111 117 117 114 125 125 126 115 138 141 147 131 141 141  99 125 134  26  26  90 103  79  76  90  96 105 114 112 116 120 115 123
  87  87  80  75  76  76  79  79  77  67  61  52  50  38  14  16  56  24   4 121 136 118 122 121 129 103 145 146 149  85 138 138   7  64  95  90  98 114  97  90  88  91 104 111 109 114 118 115 117 124
  87  81  82  80  67  78  79  74  75  67  66  53  55  49  48  23  33  34  43  27   1  11 116 109 113   9 127 136 130  59  61  96 107 110 114 119 125 116 111 103 100  99 100 107 101 114 113 113 115 145
  86  85  74  80  75  77  75  72  71  70  77  67  63  60  60  53  53  70  78  83  81  88  45  59  63  67  76  66  91 112 105 106 124 128 120 118 121 117 118 112 100  98 101 104 105 108 109 114 119 170
  96  87  80  79  79  73  71  73  67  71  73  71  67  67  59  61  64  70  87  97 113 127 124 121 113 120 115 107 113 142 156 112 117 112 109 116 118 121 120 114 108 103 101  95 102 104 111 114 156 169
 104  64  81  78  69  71  76  71  68  70  75  74  74  71  67  60  63  55  76  86  90  95 122 139 126 120 110 136 126 129 108 116 120 111 109 112 115 121 120 115 111 108 101 104 100  99 109 120 166 168
 107  87  80  77  68  69  70  67  69  64  69  70  72  68  66  71  68  61  47  63  83  87  92  98 104 106  90 109 109 105 111 107 105 104  97 108 110 118 116 117 109 108 101  98  98 104 110 165 166 169
