P2
50 50
255
  89  65  69  46  54  69  74  65  81  71  79  84  87  91  98  99 103 106 104 109 100 109 107 117 116 112 109 110 103 105  95 110 115 108 116 116 113 119 114 118 121 100  92  88 102 106  63  69  90 129
  71  56  35  33  40  48  29  43  33  46  37  64  69  77  84  90  87  91  95  93  90  93  95  94  96 106 101  94  89  82  95 100  98  94  98  99 106  98  89  91  85  75  64  57  70  75  68  83  73  73
  54  24  29  25  23  28  19  23  20  16  14  23  32  43  51  74  75  85  85  77  87  87  83  86  85  88  91  87  82  79  83  90  87  85  86  74  81  76  71  49  43  31  43  61  52  67  63  75  67  42
  33  24  13  14  17  25  20  26  12  17   8  10  15  19  32  39  52  67  75  72  71  73  70  76  76  79  83  85  75  81  76  70  77  63  44  26  38  24  31  22  32  27  42  50  58  59  75  59  90  75
  25  36  13  30  29  36  29  25  23  27  12  14  15   9  13  17  33  34  40  53  63  65  63  74  74  73  74  73  70  67  58  48  68  50  30  20  24  24  42  35  22  42  41  63  63  71  80 112 111 109
  56  37  53  45  47  45  56  50  50  51  40  39  29  21  18  17  21  26  24  50  57  67  56  63  67  70  72  70  64  62  65  70  60  37  37  36  45  46  44  70  59  71  68  76  82  91  91  95  87  95
  55  50  63  61  66  65  63  62  60  47  48  44  43  34  34  34  32  26  31  39  38  46  52  52  56  65  70  62  51  54  57  59  44  53  52  51  45  50  51  50  49  60  71  76  85  94  98  99  99 104
  66  76  69  68  65  63  56  38  21  17  11  19  23  29  28  25  28  30  32  37  42  43  42  66  68  70  72  60  61  55  70  63  60  51  48  36  36  38  40  48  64  63  73  76  74  80  90  99 100 106
  70  71  70  52  15  13   5   1   1   1   1   1   9   7   8  21  23  28  29  34  40  37  55  59  68  70  84  74  71  68  64  56  49  45  28  32  11   8   0   2   1   1  16  64   6  17  42  82  93 106
  80  59  20  30   4  32  53   5   2   2   2  18  14  37  15   4  16  23  27  31  45  49  51  60  76  93  88  90  81  81  68  51  40  26  31  22  44   2  11   1   5  23  42 101  94  15  16  41  78  93
  46  25  18   3  33  79  79  18   8   0  10  13  55  64  27   8   9  18  25  28  42  56  64  85  98 106 108 102  98  83  59  47  25  30  14  25  60   5  14   3  10  29  66 105 109  44  33  28  67  93
  46  25  15  15   9  66  83  61   3   3   6  11  58  45  16   9   5  20  21  20  43  55  82  96 106 119 129 125 110  79  51  42  24  20  21  19  40  58   7   6  24  34 110  97  62  50  67  70  68  87
  38  36  34  37  28  22  24  28  19  19  20  21  21  28  17  11   8  16  20  24  41  63  91 109 119 129 147 139 127  84  53  41  38   8  18  14  30  36  51  51  69  83  98  80 106 102 100 101  96 102
  56  53  50  58  51  53  52  40  39  33  33  29  29  28  31  27  27  24  23  26  58  77 100 118 126 151 151 148 133 100  79  49  49  41  38  35  37  45  44  64  65  92  87 107 113 122 123 123 131 127
  66  65  64  70  71  64  73  63  63  62  44  41  35  35  25  24  32  37  39  56  70  94 110 120 130 161 158 152 140 119  94  73  70  66  38  38  41  44  56  74  79  95 106 111 117 120 124 132 134 139
  76  82  74  68  65  65  68  59  57  44  45  41  37  36  34  19  49  75  73  77  90 103 117 127 137 161 161 155 147 131 121 114 107 100  82  55  37  39  47  62  74  81  83  89 102 111 127 134 142 145
  86  85  84  82  77  67  54  50  49  52  45  36  40  51  56  80  86  89  90  89  97 109 117 127 136 158 161 155 147 140 132 128 128 135 123 106  93  58  50  51  57  59  63  71  99 116 133 143 148 149
  95  95  89  89  90  80  78  80  65  59  48  65  80  85  93 101  96  97 100 101 100 101 112 134 138 161 159 155 148 144 142 137 134 144 143 138 129 122  98  88  97  88 100 115 119 137 148 154 155 153
 104 101 107 105 103 106  97 104  88  85  86  92 102 109 101 105 101 105 108 108 105 101 108 124 137 159 162 156 149 141 145 145 143 140 146 151 150 147 142 140 146 134 138 143 153 145 155 153 155 155
 110 114 117 121 123 125 122 119 114 114 109 115 116 118 114 115 112 112 108 103 106 102 111 123 138 158 163 158 151 144 145 147 143 143 148 155 161 160 155 156 155 160 158 160 159 158 156 157 154 151
 110 114 122 123 126 129 131 129 124 125 123 127 127 125 121 123 115 109 110 105 107 106 113 126 139 164 168 158 151 151 146 145 147 146 152 160 156 157 162 156 161 158 159 164 158 155 148 145 143 146
 104 112 118 119 126 129 133 130 136 130 133 135 132 124 125 117 108 105  99 103 107 109 119 124 144 170 171 160 152 148 146 145 144 144 147 145 155 156 155 159 161 166 164 162 159 156 151 137 136 140
 104 111 111 117 121 126 128 129 131 133 130 131 127 120 114  99  87  86  92  98 101 115 121 125 139 172 176 161 155 151 144 143 144 124 121 136 146 146 154 148 157 157 163 162 159 153 147 143 138 137
 101 111 113 118 120 127 133 132 129 132 129 125 122 112  89  69  75  94 105 108 120 118 120 130 144 167 173 165 159 148 147 139 139 132  86  98 121 133 139 145 148 153 160 152 154 152 151 146 142 137
  97 109 119 117 119 122 125 127 126 120 124 115 112  91  67  74 111 118 126 123 120 124 127 131 143 161 189 187 162 153 151 139 147 143 123  71  87 113 123 131 142 145 150 146 145 145 145 146 137 138
  88  97 110 114 117 116 114 125 120 124 116 113  99  68  57  87 113 126 129 132 122 122 129 133 137 147 151 153 155 152 154 151 154 152 147  85  59  87 105 124 131 137 143 144 140 139 142 138 139 136
  93  93 101 101 111 114 118 118 114 112 107  99  89  53  52 102 117 121 126 125 113 121 117 126 129 132 136 145 144 147 147 147 154 154 150 133  57  65  91 113 120 127 132 135 139 133 133 135 133 135
  85  93  92  90 106 105 110 109 106 105  99  91  59  51  53  97 102 105 108 101  97 103 109 115 124 119 128 128 138 134 133 130 136 142 147 134  70  60  76  92 103 116 128 128 130 133 129 129 132 133
  83  90  88  90 101 105 105 103  94  96  91  74  51  53  49  85  89  90  84  84  84  86  90  96  96 101 106 121 122 121 117 111 116 120 130 126  86  57  63  82  90  93 119 123 125 125 131 127 128 127
  75  83  91  87  90  90  97  96  93  87  84  56  59  64  42  77  80  75  18   9   3  75  78  82  85  86 102 106 112 101  71  23  33  92 102 106 111  85  56  66  85  97 110 117 121 122 127 127 126 130
  76  82  80  88  88  90  86  87  97  84  76  59  74  72  59  36  39  43  39  32  26  37  56  74  84  84  87  87  86  63  54  50  45  55  84 121 128 112  74  71  80  82  94 107 118 116 121 124 120 121
  77  77  80  73  81  82  82  86  84  81  66  73  81  77  48  45  36  35  30  35  32  36  34  37  75  82  74  56  47  46  51  50  66  71 101 132 133 122 108  66  70  79  88  96  98 107 114 115 114 114
  75  74  69  75  76  74  78  77  77  74  71  83  89  74  56  39  41  39  35  39  33  35  38  40  36  39  30  38  39  47  60  69  74  81 116 132 140 139 126 107  74  78  88  93 100 100 107 107 113 114
  68  72  73  71  73  69  69  73  74  70  83  84  79  74  59  42  40  40  34  33  29  32  36  30  32  37  30  30  35  49  73  65  81  98 120 138 142 141 134 133 105  81  90  93  91 104 109 106 107 108
  69  74  62  67  72  74  69  67  76  76  77  87  83  76  62  44  38  36  43  35  35  32  34  31  31  30  36  37  60  77  91  99 105 120 127 135 140 136 131 131 123  96  93  96  92 106 104  97  87  97
  69  65  61  55  59  68  77  77  71  68  82  81  73  84  60  55  47  44  47  43  38  37  33  41  38  33  38  48  73  89 107 112 122 126 133 133 131 136 131 131 127 119 102 102 102 101  94  96  96  98
  53  67  69  68  65  70  76  79  66  71  75  65  78  81  76  64  69  74  62  53  51  35  34  30  30  38  48  59  92 104 122 126 126 130 137 133 142 134 133 123 124 122 111  99 105 107 108 103 109 109
  63  63  66  71  65  74  73  75  60  73  69  75  74  75  87  82  82  86  76  70  66  60  58  62  67  61  77  90 119 128 126 134 129 133 139 131 136 133 133 117 123 124 116 109 110 108 104 109 110 112
  71  71  68  59  68  70  76  59  57  72  74  70  77  81  82  85  90  91  84  87  84  80  83  89 105 123 113 105  95 103 115 127 130 133 130 137 131 137 122 115 113 117 119 116 112 105 113 101 117 111
  70  68  63  64  72  71  76  62  69  64  62  58  72  79  85  90  82  80  72  59  65  66  59  61  65  92  83  83  87  89  95  91  93 103 118 133 133 133 120  91 114 113 116 114 111 111 112 111 113 116
  71  73  62  67  74  79  76  64  76  70  55  62  73  80  79  69  54  45  49  57  51  46  60  49  42  65  69  55  62  76  83  77  76  70  82  97 111 117 114 102 100 100 112 117 113 114 114 112 117 122
  81  74  73  68  74  78  78  70  75  68  59  56  59  68  56  45  52  50  46  48  67  50  52  73  66  67  78  71  63  72  44  70  57  65  56  66  84  89 101  98  93  91  96 110 113 115 117 113 121 118
  80  77  75  77  74  69  75  73  74  75  62  45  40  47  38  40  41  59  37  84  91  67  61  97  87  58  56  98 117  97  67 107 103  75  72  56  67  71  45  52  76  92  97 110 110 114 118 117 116 122
  80  76  75  76  73  81  76  74  70  75  60  35  34  25  20  20  59  88  78  98 106  96 116 119 113  95  94 119 131 132 106 126 124  94 114 101   2   1   9  52  60  82  95 102 114 113 116 111 120 108
  82  70  80  68  75  71  77  79  73  70  61  40  32  16  15   4  55 100  86 112 117 105 118 122 120 122 119 130 137 138 109 134 130   6 118  96   0   2  27  69  69  80  94 101 112 114 111 113 118 115
  82  77  73  74  73  73  75  78  73  63  59  48  45  28  14   7  13  63   1   9 120  17 120 120 119 126 126 135 139 144  24 134  54  28  33  14  41  40  88  81  75  82  97 105 107 109 112 112 120 114
  82  83  76  72  69  68  74  77  72  69  55  56  45  47  32  15  18  15   7   5  21   7   8 105 119  72  20 133 110  23  17  92  94  33  58  83  97 106 104  95  87  86  96  98 101 105 103 111 112 112
  82  83  76  78  76  70  70  74  72  70  56  60  54  47  50  41  36  46  51  48  33  10  66  82  25  27  98 106 111 116 116  82  66  93 116 115 110 121 111 102  93  91  89  95 102 102 110 106 115 120
  84  77  76  72  76  70  65  68  70  63  69  64  59  60  53  50  45  50  74  78  83  81  57  69  81  89  96  94 103 101  64  88 130 108 123 118 107 114 112 106 103  95  96  99  97 101 104 105 112 154
  87  78  77  73  71  70  65  68  63  63  64  68  69  63  63  57  51  63  81  90  98 118 125  98 109 117 113 115 116 102 128 125 137 117 120 109 105 107 113 110 100 101  99  96  97 100 103 104 115 163
